<?xml version="1.0" encoding="UTF-8" standalone="no"?>
<svg
   xmlns:dc="http://purl.org/dc/elements/1.1/"
   xmlns:cc="http://creativecommons.org/ns#"
   xmlns:rdf="http://www.w3.org/1999/02/22-rdf-syntax-ns#"
   xmlns:svg="http://www.w3.org/2000/svg"
   xmlns="http://www.w3.org/2000/svg"
   xmlns:sodipodi="http://sodipodi.sourceforge.net/DTD/sodipodi-0.dtd"
   xmlns:inkscape="http://www.inkscape.org/namespaces/inkscape"
   width="17px"
   height="16px"
   version="1.1"
   xml:space="preserve"
   style="fill-rule:evenodd;clip-rule:evenodd;stroke-linecap:round;stroke-linejoin:round;stroke-miterlimit:1.5;"
   id="svg1625"
   sodipodi:docname="ButtonUp_ON.svg"
   inkscape:version="0.92.3 (2405546, 2018-03-11)"><metadata
   id="metadata1629"><rdf:RDF><cc:Work
       rdf:about=""><dc:format>image/svg+xml</dc:format><dc:type
         rdf:resource="http://purl.org/dc/dcmitype/StillImage" /><dc:title></dc:title></cc:Work></rdf:RDF></metadata><sodipodi:namedview
   pagecolor="#ffffff"
   bordercolor="#666666"
   borderopacity="1"
   objecttolerance="10"
   gridtolerance="10"
   guidetolerance="10"
   inkscape:pageopacity="0"
   inkscape:pageshadow="2"
   inkscape:window-width="1920"
   inkscape:window-height="1017"
   id="namedview1627"
   showgrid="false"
   inkscape:zoom="14.75"
   inkscape:cx="8.5"
   inkscape:cy="8"
   inkscape:window-x="1912"
   inkscape:window-y="-8"
   inkscape:window-maximized="1"
   inkscape:current-layer="svg1625" />
  <defs
   id="defs1617">
    <linearGradient
   id="_Linear1"
   x1="0"
   y1="0"
   x2="1"
   y2="0"
   gradientUnits="userSpaceOnUse"
   gradientTransform="matrix(-0.021056,-14.6243,14.6243,-0.021056,16.5478,15.3133)">
      <stop
   offset="0"
   style="stop-color:black;stop-opacity:1"
   id="stop1612" />
      <stop
   offset="1"
   style="stop-color:rgb(220,220,220);stop-opacity:1"
   id="stop1614" />
    </linearGradient>
  </defs>
  <path
   id="path27551"
   d="M16.527,3.607c0,-1.6 -1.299,-2.898 -2.898,-2.898l-10.257,0c-1.6,0 -2.9,1.298 -2.9,2.898l0,8.787c0,1.6 1.3,2.9 2.9,2.9l10.257,0c1.599,0 2.898,-1.3 2.898,-2.9l0,-8.787Z"
   style="fill:url(#_Linear1);" />
  <path
   id="path27555"
   d="M15.6,4.812c0,-1.745 -1.418,-3.161 -3.163,-3.161l-7.829,0c-1.746,0 -3.162,1.416 -3.162,3.161l0,6.327c0,1.745 1.416,3.162 3.162,3.162l7.829,0c1.745,0 3.163,-1.417 3.163,-3.162l0,-6.327Z"
   style="fill:rgb(38,38,38);stroke:rgb(102,102,102);stroke-width:0.85px;" />
  <path
   id="path27559"
   d="M14.907,4.511c0,-1.143 -0.928,-2.07 -2.071,-2.07l-8.626,0c-1.143,0 -2.07,0.927 -2.07,2.07l0,6.932c0,1.142 0.927,2.069 2.07,2.069l8.626,0c1.143,0 2.071,-0.927 2.071,-2.069l0,-6.932Z"
   style="fill:rgb(26,26,26);stroke:rgb(51,51,51);stroke-width:0.85px;" />
  <path
   id="path19851"
   d="M14.907,4.511c0,-1.143 -0.928,-2.07 -2.071,-2.07l-8.626,0c-1.143,0 -2.07,0.927 -2.07,2.07l0,6.932c0,1.142 0.927,2.069 2.07,2.069l8.626,0c1.143,0 2.071,-0.927 2.071,-2.069l0,-6.932Z"
   style="fill:#8b8ba2;stroke:rgb(51, 51, 51);stroke-width:0.85px" />
  <path
   id="path27565"
   d="M7.89,3.851c0.162,-0.005 0.272,0.196 0.272,0.196l3.313,5.435c0,0 0.067,0.111 0,0.255c-0.067,0.145 -0.192,0.125 -0.192,0.125l-6.796,0c0,0 -0.124,0.011 -0.202,-0.125c-0.069,-0.119 0,-0.241 0,-0.241l3.343,-5.484c0,0 0.098,-0.156 0.262,-0.161Z"
   style="fill:rgb(89,89,89);" />
  <path
   id="path27569"
   d="M8.664,4.302c0.162,-0.005 0.272,0.196 0.272,0.196l3.313,5.435c0,0 0.067,0.111 0,0.255c-0.067,0.145 -0.192,0.125 -0.192,0.125l-6.796,0c0,0 -0.124,0.011 -0.202,-0.125c-0.069,-0.119 0,-0.241 0,-0.241l3.343,-5.484c0,0 0.098,-0.156 0.262,-0.161Z"
   style="fill:rgb(179,179,179);" />
</svg>