<?xml version="1.0" encoding="UTF-8" standalone="no"?>
<svg
   xmlns:dc="http://purl.org/dc/elements/1.1/"
   xmlns:cc="http://creativecommons.org/ns#"
   xmlns:rdf="http://www.w3.org/1999/02/22-rdf-syntax-ns#"
   xmlns:svg="http://www.w3.org/2000/svg"
   xmlns="http://www.w3.org/2000/svg"
   xmlns:xlink="http://www.w3.org/1999/xlink"
   xmlns:sodipodi="http://sodipodi.sourceforge.net/DTD/sodipodi-0.dtd"
   xmlns:inkscape="http://www.inkscape.org/namespaces/inkscape"
   width="17"
   height="16"
   viewBox="0 0 17 16"
   version="1.1"
   xml:space="preserve"
   style="fill-rule:evenodd;clip-rule:evenodd;stroke-linecap:round;stroke-linejoin:round;stroke-miterlimit:1.5;"
   id="svg21838"
   sodipodi:docname="ButtonB_ON.svg"
   inkscape:version="0.92.3 (2405546, 2018-03-11)">
  <defs
   id="defs21842">
    <linearGradient
   inkscape:collect="always"
   id="linearGradient22411">
      <stop
   style="stop-color:#000000;stop-opacity:1;"
   offset="0"
   id="stop22407" />
      <stop
   style="stop-color:#dcdcdc;stop-opacity:1"
   offset="1"
   id="stop22409" />
    </linearGradient>
    <linearGradient
   inkscape:collect="always"
   xlink:href="#linearGradient22411"
   id="linearGradient22413"
   x1="92.79319"
   y1="323.93362"
   x2="92.804329"
   y2="309.92209"
   gradientUnits="userSpaceOnUse" />
  </defs>
  <metadata
   id="metadata21844">
    <rdf:RDF>
      <cc:Work
   rdf:about="">
        <dc:format>image/svg+xml</dc:format>
        <dc:type
   rdf:resource="http://purl.org/dc/dcmitype/StillImage" />
      <dc:title></dc:title></cc:Work>
    </rdf:RDF>
  </metadata>
  <sodipodi:namedview
   pagecolor="#ffffff"
   bordercolor="#666666"
   borderopacity="1"
   objecttolerance="10"
   gridtolerance="10"
   guidetolerance="10"
   inkscape:pageopacity="0"
   inkscape:pageshadow="2"
   inkscape:window-width="1920"
   inkscape:window-height="1017"
   id="namedview21840"
   showgrid="false"
   inkscape:zoom="41.7193"
   inkscape:cx="12.63143"
   inkscape:cy="8.4655213"
   inkscape:window-x="1912"
   inkscape:window-y="-8"
   inkscape:window-maximized="1"
   inkscape:current-layer="svg21838" />
  <g
   transform="matrix(1.03804,0,0,1.04192,-79.790839,-322.20077)"
   id="g21819"
   style="stroke:none;fill-opacity:1;fill:url(#linearGradient22413)">
    <path
   d="m 92.788,312.7 c 0,-1.536 -1.251,-2.782 -2.792,-2.782 h -9.881 c -1.541,0 -2.793,1.246 -2.793,2.782 v 8.433 c 0,1.536 1.252,2.783 2.793,2.783 h 9.881 c 1.541,0 2.792,-1.247 2.792,-2.783 z"
   style="stroke:none;stroke-width:0.95999998px;fill-opacity:1;fill:url(#linearGradient22413)"
   id="path21817"
   inkscape:connector-curvature="0" />
  </g>
  <g
   transform="matrix(1.02667,0,0,1.13251,-79.183809,-350.50847)"
   id="g21823">
    <path
   d="m 92.322,313.746 c 0,-1.541 -1.381,-2.792 -3.081,-2.792 h -7.626 c -1.7,0 -3.08,1.251 -3.08,2.792 v 5.586 c 0,1.541 1.38,2.792 3.08,2.792 h 7.626 c 1.7,0 3.081,-1.251 3.081,-2.792 z"
   style="fill:#262626;stroke:#666666;stroke-width:0.79000002px"
   id="path21821"
   inkscape:connector-curvature="0" />
  </g>
  <g
   transform="matrix(0.925979,0,0,0.991131,-70.581679,-305.75457)"
   id="g21827"
   style="fill:#8b8ba2;fill-opacity:1">
    <path
   d="m 92.322,313.042 c 0,-1.153 -1.002,-2.088 -2.236,-2.088 H 80.77 c -1.234,0 -2.235,0.935 -2.235,2.088 v 6.994 c 0,1.153 1.001,2.088 2.235,2.088 h 9.316 c 1.234,0 2.236,-0.935 2.236,-2.088 z"
   style="fill:#8b8ba2;stroke:#333333;stroke-width:0.88999999px;fill-opacity:1"
   id="path21825"
   inkscape:connector-curvature="0" />
  </g>
  <g
   id="text9293.-4"
   transform="matrix(4.00166,0,0,4.00166,5.9345,10.639)"
   style="fill:#000000;fill-opacity:1">
    <path
   d="m 0.481,-0.266 h 0.075 c 0.087,0 0.148,-0.011 0.186,-0.033 0.037,-0.022 0.056,-0.058 0.056,-0.107 0,-0.049 -0.019,-0.084 -0.056,-0.107 C 0.704,-0.535 0.643,-0.546 0.556,-0.546 H 0.481 Z m 0,-0.535 h 0.063 c 0.107,0 0.161,-0.043 0.161,-0.128 0,-0.085 -0.054,-0.128 -0.161,-0.128 H 0.481 Z M 0.138,-1.319 h 0.511 c 0.121,0 0.213,0.029 0.276,0.088 0.063,0.058 0.095,0.142 0.095,0.251 0,0.067 -0.012,0.122 -0.036,0.166 -0.024,0.043 -0.06,0.08 -0.109,0.111 0.049,0.009 0.09,0.023 0.125,0.043 0.034,0.019 0.062,0.043 0.084,0.07 0.021,0.028 0.037,0.06 0.046,0.095 0.009,0.035 0.014,0.072 0.014,0.112 0,0.062 -0.011,0.117 -0.032,0.164 C 1.09,-0.171 1.06,-0.131 1.021,-0.098 0.982,-0.065 0.934,-0.041 0.878,-0.024 0.822,-0.008 0.759,0 0.689,0 H 0.138 Z"
   style="fill:#000000;fill-rule:nonzero;fill-opacity:1"
   id="path21831"
   inkscape:connector-curvature="0" />
  </g>
</svg>