<?xml version="1.0" encoding="UTF-8" standalone="no"?>
<svg
   xmlns:serif="http://www.serif.com/"
   xmlns:dc="http://purl.org/dc/elements/1.1/"
   xmlns:cc="http://creativecommons.org/ns#"
   xmlns:rdf="http://www.w3.org/1999/02/22-rdf-syntax-ns#"
   xmlns:svg="http://www.w3.org/2000/svg"
   xmlns="http://www.w3.org/2000/svg"
   xmlns:sodipodi="http://sodipodi.sourceforge.net/DTD/sodipodi-0.dtd"
   xmlns:inkscape="http://www.inkscape.org/namespaces/inkscape"
   width="150px"
   height="380px"
   version="1.1"
   xml:space="preserve"
   style="fill-rule:evenodd;clip-rule:evenodd;stroke-miterlimit:10;"
   id="svg4055"
   sodipodi:docname="Knock.svg"
   inkscape:version="0.92.3 (2405546, 2018-03-11)"><metadata
   id="metadata4059"><rdf:RDF><cc:Work
       rdf:about=""><dc:format>image/svg+xml</dc:format><dc:type
         rdf:resource="http://purl.org/dc/dcmitype/StillImage" /><dc:title></dc:title></cc:Work></rdf:RDF></metadata><sodipodi:namedview
   pagecolor="#ffffff"
   bordercolor="#666666"
   borderopacity="1"
   objecttolerance="10"
   gridtolerance="10"
   guidetolerance="10"
   inkscape:pageopacity="0"
   inkscape:pageshadow="2"
   inkscape:window-width="1920"
   inkscape:window-height="1017"
   id="namedview4057"
   showgrid="false"
   inkscape:zoom="2.2105263"
   inkscape:cx="75"
   inkscape:cy="190"
   inkscape:window-x="1912"
   inkscape:window-y="-8"
   inkscape:window-maximized="1"
   inkscape:current-layer="svg4055" />
  <defs
   id="defs3750">
    <linearGradient
   id="_Linear1"
   x1="0"
   y1="0"
   x2="1"
   y2="0"
   gradientUnits="userSpaceOnUse"
   gradientTransform="matrix(149.956,-379.998,379.888,150,0.0435799,379.998)">
      <stop
   offset="0"
   style="stop-color:#555555;stop-opacity:1"
   id="stop3735" />
      <stop
   offset="1"
   style="stop-color:#989898;stop-opacity:1"
   id="stop3737" />
    </linearGradient>
    <linearGradient
   id="_Linear2"
   x1="0"
   y1="0"
   x2="1"
   y2="0"
   gradientUnits="userSpaceOnUse"
   gradientTransform="matrix(-0.437201,-175,175,-0.437201,125.437,230)">
      <stop
   offset="0"
   style="stop-color:rgb(108,108,108);stop-opacity:1"
   id="stop3740" />
      <stop
   offset="1"
   style="stop-color:rgb(108,108,108);stop-opacity:0"
   id="stop3742" />
    </linearGradient>
    <linearGradient
   id="_Linear3"
   x1="0"
   y1="0"
   x2="1"
   y2="0"
   gradientUnits="userSpaceOnUse"
   gradientTransform="matrix(0,-72,52.4783,0,132.623,316)">
      <stop
   offset="0"
   style="stop-color:rgb(156,156,156);stop-opacity:1"
   id="stop3745" />
      <stop
   offset="1"
   style="stop-color:rgb(36,36,36);stop-opacity:1"
   id="stop3747" />
    </linearGradient>
  
    
    
    
    
    
    
    
    
    
    
    
    
    
    
    
    
    
    
    
    
    
    
    
    
    
    
    
    
    
    
    
    
    
    
    
    
    
    
    
    
    
    
    
    
    
    
    
    
    
  </defs>
  <rect
   style="fill:#1a1a1a"
   height="380"
   width="150"
   y="0"
   x="0"
   id="rect9931" /><rect
   style="fill:url(#_Linear1)"
   height="379.99799"
   width="149.95599"
   y="0"
   x="0.044"
   id="rect2024" /><g
   id="g4268"
   style="fill:#3c3c4c"><path
     id="path42"
     d="m 67.518,362.5 h 2.674 l 2.49,8.317 2.574,-8.317 h 2.66 l -3.461,10.397 c -0.323,0.959 -0.902,1.438 -1.738,1.438 -0.847,0 -1.432,-0.484 -1.755,-1.453 z"
     style="fill:#3c3c4c;fill-rule:nonzero"
     inkscape:connector-curvature="0" /><path
     id="path44"
     d="M 78.116,371.292 V 362.5 h 2.508 v 8.709 c 0.044,0.312 0.334,0.468 0.869,0.468 h 1.705 c 0.512,0 0.797,-0.145 0.852,-0.435 l 0.017,-0.083 V 362.5 h 2.508 v 8.776 c 0,0.769 -0.084,1.315 -0.251,1.638 -0.446,0.858 -1.232,1.287 -2.357,1.287 h -3.243 c -1.159,0 -1.95,-0.44 -2.374,-1.321 -0.156,-0.323 -0.234,-0.852 -0.234,-1.588 z"
     style="fill:#3c3c4c;fill-rule:nonzero"
     inkscape:connector-curvature="0" /><path
     id="path46"
     d="M 87.728,371.343 V 362.5 h 2.507 v 8.642 c 0,0.357 0.212,0.535 0.636,0.535 h 4.463 l -0.017,2.524 h -4.664 c -0.167,0 -0.312,-0.005 -0.434,-0.017 -0.903,-0.077 -1.544,-0.342 -1.923,-0.794 -0.379,-0.451 -0.568,-1.134 -0.568,-2.047 z"
     style="fill:#3c3c4c;fill-rule:nonzero"
     inkscape:connector-curvature="0" /><path
     id="path48"
     d="M 95.417,365.024 V 362.5 h 7.522 v 2.524 h -2.524 v 9.177 h -2.507 v -9.177 z"
     style="fill:#3c3c4c;fill-rule:nonzero"
     inkscape:connector-curvature="0" /></g><path
   inkscape:connector-curvature="0"
   style="fill:#757575;fill-rule:nonzero;stroke:#414c55;stroke-width:0.61000001px"
   d="m 63.95,368.417 c 0,-4.509 -3.656,-8.164 -8.165,-8.164 -4.509,0 -8.164,3.655 -8.164,8.164 0,4.509 3.655,8.165 8.164,8.165 4.509,0 8.165,-3.656 8.165,-8.165 z"
   id="path4" /><path
   inkscape:connector-curvature="0"
   id="path3759"
   style="fill:#1a1a21;stroke:#333359;stroke-width:1px;stroke-linejoin:round;stroke-miterlimit:1.5"
   d="m 145.416,324.639 c 0,-4.116 -3.341,-7.458 -7.458,-7.458 h -14.916 c -4.117,0 -7.458,3.342 -7.458,7.458 v 20.903 c 0,4.116 3.341,7.458 7.458,7.458 h 14.916 c 4.117,0 7.458,-3.342 7.458,-7.458 z" /><g
   id="text9293-4">
      <path
   inkscape:connector-curvature="0"
   id="path3761"
   style="fill:#ffffff;fill-rule:nonzero"
   d="m 12.733,348.825 h 3.113 c 0,0.32 -0.013,0.611 -0.04,0.873 -0.026,0.261 -0.08,0.504 -0.16,0.728 -0.112,0.315 -0.264,0.593 -0.456,0.836 -0.192,0.243 -0.418,0.446 -0.676,0.608 -0.259,0.163 -0.543,0.287 -0.853,0.373 -0.309,0.085 -0.635,0.128 -0.976,0.128 -0.47,0 -0.898,-0.078 -1.285,-0.232 -0.386,-0.155 -0.719,-0.373 -0.996,-0.653 -0.277,-0.28 -0.494,-0.616 -0.648,-1.008 -0.155,-0.392 -0.232,-0.826 -0.232,-1.301 0,-0.469 0.076,-0.9 0.228,-1.292 0.152,-0.392 0.368,-0.727 0.648,-1.005 0.28,-0.277 0.618,-0.493 1.012,-0.648 0.395,-0.155 0.835,-0.232 1.321,-0.232 0.63,0 1.182,0.136 1.657,0.408 0.475,0.272 0.851,0.694 1.128,1.265 l -1.488,0.616 c -0.139,-0.331 -0.319,-0.568 -0.541,-0.712 -0.221,-0.144 -0.473,-0.216 -0.756,-0.216 -0.235,0 -0.448,0.044 -0.64,0.132 -0.192,0.088 -0.356,0.213 -0.492,0.376 -0.137,0.163 -0.243,0.359 -0.321,0.588 -0.077,0.229 -0.116,0.486 -0.116,0.768 0,0.256 0.034,0.494 0.1,0.713 0.067,0.218 0.167,0.408 0.3,0.568 0.134,0.16 0.299,0.284 0.497,0.372 0.197,0.088 0.427,0.132 0.688,0.132 0.155,0 0.304,-0.017 0.448,-0.052 0.144,-0.035 0.274,-0.091 0.388,-0.168 0.115,-0.077 0.21,-0.177 0.284,-0.3 0.075,-0.123 0.126,-0.272 0.153,-0.448 h -1.289 z" />
      <path
   inkscape:connector-curvature="0"
   id="path3763"
   style="fill:#ffffff;fill-rule:nonzero"
   d="m 19.896,349.962 -0.704,-2.009 -0.705,2.009 z m 0.416,1.192 h -2.241 l -0.36,1.049 h -1.673 l 2.297,-6.035 h 1.713 l 2.297,6.035 h -1.673 z" />
      <path
   inkscape:connector-curvature="0"
   id="path3765"
   style="fill:#ffffff;fill-rule:nonzero"
   d="m 25.058,347.497 v 4.706 h -1.569 v -4.706 h -1.288 v -1.329 h 4.146 v 1.329 z" />
      <path
   inkscape:connector-curvature="0"
   id="path3767"
   style="fill:#ffffff;fill-rule:nonzero"
   d="m 30.476,347.497 h -1.864 v 1.008 h 1.76 v 1.329 h -1.76 v 1.04 h 1.864 v 1.329 h -3.433 v -6.035 h 3.433 z" />
    </g><g
   serif:id="text9293-4"
   id="text9293-41">
      <path
   inkscape:connector-curvature="0"
   id="path3770"
   style="fill:#ffffff;fill-rule:nonzero"
   d="m 48.813,347.329 v 4.706 h -1.569 v -4.706 H 45.955 V 346 h 4.146 v 1.329 z" />
      <path
   inkscape:connector-curvature="0"
   id="path3772"
   style="fill:#ffffff;fill-rule:nonzero"
   d="m 52.366,346 v 3.281 c 0,0.176 0.007,0.357 0.02,0.541 0.013,0.184 0.053,0.35 0.12,0.5 0.067,0.149 0.172,0.271 0.316,0.364 0.144,0.093 0.347,0.14 0.609,0.14 0.261,0 0.462,-0.047 0.604,-0.14 0.141,-0.093 0.247,-0.215 0.316,-0.364 0.069,-0.15 0.111,-0.316 0.124,-0.5 0.013,-0.184 0.02,-0.365 0.02,-0.541 V 346 h 1.561 v 3.497 c 0,0.94 -0.215,1.625 -0.645,2.057 -0.429,0.432 -1.089,0.649 -1.98,0.649 -0.892,0 -1.553,-0.217 -1.985,-0.649 -0.432,-0.432 -0.649,-1.117 -0.649,-2.057 V 346 Z" />
      <path
   inkscape:connector-curvature="0"
   id="path3774"
   style="fill:#ffffff;fill-rule:nonzero"
   d="M 57.32,352.035 V 346 h 1.569 l 2.897,3.69 V 346 h 1.561 v 6.035 h -1.561 l -2.897,-3.69 v 3.69 z" />
      <path
   inkscape:connector-curvature="0"
   id="path3776"
   style="fill:#ffffff;fill-rule:nonzero"
   d="M 68.045,347.329 H 66.18 v 1.008 h 1.761 v 1.329 H 66.18 v 1.04 h 1.865 v 1.329 H 64.611 V 346 h 3.434 z" />
    </g><g
   serif:id="text9293-4"
   id="text9293-42">
      <path
   inkscape:connector-curvature="0"
   id="path3779"
   style="fill:#ffffff;fill-rule:nonzero"
   d="m 123.253,348.815 c 0,0.24 0.045,0.461 0.136,0.664 0.091,0.203 0.213,0.379 0.368,0.528 0.155,0.15 0.335,0.266 0.54,0.348 0.206,0.083 0.423,0.124 0.653,0.124 0.229,0 0.447,-0.041 0.652,-0.124 0.205,-0.082 0.387,-0.198 0.544,-0.348 0.158,-0.149 0.282,-0.325 0.372,-0.528 0.091,-0.203 0.136,-0.424 0.136,-0.664 0,-0.24 -0.045,-0.462 -0.136,-0.665 -0.09,-0.202 -0.214,-0.378 -0.372,-0.528 -0.157,-0.149 -0.339,-0.265 -0.544,-0.348 -0.205,-0.083 -0.423,-0.124 -0.652,-0.124 -0.23,0 -0.447,0.041 -0.653,0.124 -0.205,0.083 -0.385,0.199 -0.54,0.348 -0.155,0.15 -0.277,0.326 -0.368,0.528 -0.091,0.203 -0.136,0.425 -0.136,0.665 z m -1.641,0 c 0,-0.449 0.083,-0.866 0.248,-1.253 0.166,-0.387 0.395,-0.724 0.689,-1.012 0.293,-0.288 0.644,-0.514 1.052,-0.677 0.408,-0.162 0.858,-0.244 1.349,-0.244 0.485,0 0.933,0.082 1.344,0.244 0.411,0.163 0.765,0.389 1.061,0.677 0.296,0.288 0.527,0.625 0.692,1.012 0.165,0.387 0.248,0.804 0.248,1.253 0,0.448 -0.083,0.865 -0.248,1.252 -0.165,0.387 -0.396,0.724 -0.692,1.013 -0.296,0.288 -0.65,0.513 -1.061,0.676 -0.411,0.163 -0.859,0.244 -1.344,0.244 -0.491,0 -0.941,-0.081 -1.349,-0.244 -0.408,-0.163 -0.759,-0.388 -1.052,-0.676 -0.294,-0.289 -0.523,-0.626 -0.689,-1.013 -0.165,-0.387 -0.248,-0.804 -0.248,-1.252 z" />
      <path
   inkscape:connector-curvature="0"
   id="path3781"
   style="fill:#ffffff;fill-rule:nonzero"
   d="m 130.856,345.797 v 3.282 c 0,0.176 0.007,0.356 0.02,0.54 0.013,0.184 0.054,0.351 0.12,0.5 0.067,0.15 0.172,0.271 0.316,0.364 0.144,0.094 0.347,0.14 0.609,0.14 0.261,0 0.462,-0.046 0.604,-0.14 0.141,-0.093 0.247,-0.214 0.316,-0.364 0.069,-0.149 0.111,-0.316 0.124,-0.5 0.013,-0.184 0.02,-0.364 0.02,-0.54 v -3.282 h 1.561 v 3.498 c 0,0.939 -0.215,1.625 -0.645,2.057 -0.429,0.432 -1.089,0.648 -1.98,0.648 -0.891,0 -1.553,-0.216 -1.985,-0.648 -0.432,-0.432 -0.649,-1.118 -0.649,-2.057 v -3.498 z" />
      <path
   inkscape:connector-curvature="0"
   id="path3783"
   style="fill:#ffffff;fill-rule:nonzero"
   d="m 138.099,347.126 v 4.706 h -1.568 v -4.706 h -1.289 v -1.329 h 4.146 v 1.329 z" />
    </g><g
   id="g40">
      <path
   inkscape:connector-curvature="0"
   style="fill:#2b2b2b;fill-rule:nonzero;stroke:#414c55;stroke-width:0.04px;stroke-miterlimit:4"
   d="m 53.887,373.394 0.553,-0.891 -1.063,-2.393 -2.216,-2.284 0.459,3.101 0.597,1.28 0.833,1.264 z"
   id="polygon6" />
      <path
   inkscape:connector-curvature="0"
   style="fill:#262626;fill-rule:nonzero;stroke:#414c55;stroke-width:0.04px;stroke-miterlimit:4"
   d="m 57.615,373.401 -0.553,-0.89 1.063,-2.393 2.216,-2.285 -0.459,3.101 -0.598,1.281 -0.832,1.263 z"
   id="polygon8" />
      <path
   inkscape:connector-curvature="0"
   style="fill:#424242;fill-rule:nonzero;stroke:#414c55;stroke-width:0.04px;stroke-miterlimit:4"
   d="m 53.203,362.359 2.584,-0.66 v 13.447 l -1.35,-2.651 -1.06,-2.385 -1.023,-0.581 -2.052,-2.92 -0.057,-0.776 1.149,-2.067 z"
   id="polygon12" />
      <path
   inkscape:connector-curvature="0"
   style="fill:#333333;fill-rule:nonzero;stroke:#414c55;stroke-width:0.04px;stroke-miterlimit:4"
   d="m 58.368,362.364 -2.584,-0.661 v 13.448 l 1.349,-2.651 1.061,-2.385 1.023,-0.581 2.051,-2.921 0.057,-0.775 -1.148,-2.067 z"
   id="polygon14" />
      <path
   inkscape:connector-curvature="0"
   style="fill:#4c4c4c;fill-rule:nonzero;stroke:#414c55;stroke-width:0.04px;stroke-miterlimit:4"
   d="m 54.063,368.237 1.723,-1.684 v 1.229 l -1.723,1.718 v -1.263"
   id="polyline16" />
      <path
   inkscape:connector-curvature="0"
   style="fill:#5b5b5b;fill-rule:nonzero;stroke:#414c55;stroke-width:0.04px;stroke-miterlimit:4"
   d="m 55.787,367.781 -1.723,1.718 0.376,3.004 1.347,2.643 z"
   id="polygon18" />
      <path
   inkscape:connector-curvature="0"
   style="fill:#333333;fill-rule:nonzero;stroke:#414c55;stroke-width:0.04px;stroke-miterlimit:4"
   d="m 55.787,375.146 -1.347,-2.643 1.347,-0.635 z"
   id="polygon20" />
      <path
   inkscape:connector-curvature="0"
   style="fill:#ffffff;fill-rule:nonzero;stroke:#414c55;stroke-width:0.04px;stroke-miterlimit:4"
   d="m 54.064,369.499 v -1.263 l -1.249,-1.58 -1.477,-1.19 -0.002,0.932 0.776,1.823 z"
   id="polygon22" />
      <path
   inkscape:connector-curvature="0"
   style="fill:#2d2d2d;fill-rule:nonzero;stroke:#414c55;stroke-width:0.04px;stroke-miterlimit:4"
   d="m 57.509,368.238 -1.723,-1.685 v 1.23 l 1.723,1.718 v -1.263"
   id="polyline24" />
      <path
   inkscape:connector-curvature="0"
   style="fill:#353535;fill-rule:nonzero;stroke:#414c55;stroke-width:0.04px;stroke-miterlimit:4"
   d="m 55.784,367.781 1.723,1.718 -0.376,3.004 -1.347,2.643 z"
   id="polygon26" />
      <path
   inkscape:connector-curvature="0"
   style="fill:#191919;fill-rule:nonzero;stroke:#414c55;stroke-width:0.04px;stroke-miterlimit:4"
   d="m 55.784,375.146 1.347,-2.643 -1.347,-0.635 z"
   id="polygon28" />
      <path
   inkscape:connector-curvature="0"
   style="fill:#ffffff;fill-rule:nonzero;stroke:#414c55;stroke-width:0.04px;stroke-miterlimit:4"
   d="m 57.507,369.499 v -1.263 l 1.249,-1.58 1.477,-1.19 0.002,0.932 -0.776,1.823 z"
   id="polygon30" />
      <path
   inkscape:connector-curvature="0"
   style="fill:#383838;fill-rule:nonzero;stroke:#414c55;stroke-width:0.04px;stroke-miterlimit:4"
   d="m 53.219,362.338 2.566,4.215 -0.006,-4.87"
   id="polyline32" />
      <path
   inkscape:connector-curvature="0"
   style="fill:#2d2d2d;fill-rule:nonzero;stroke:#414c55;stroke-width:0.04px;stroke-miterlimit:4"
   d="m 58.352,362.338 -2.566,4.215 0.005,-4.869"
   id="polyline34" />
      <path
   inkscape:connector-curvature="0"
   style="fill:#333333;fill-rule:nonzero;stroke:#414c55;stroke-width:0.04px;stroke-miterlimit:4"
   d="m 53.377,370.111 0.688,-0.611 0.375,3.006 z"
   id="polygon36" />
      <path
   inkscape:connector-curvature="0"
   style="fill:#1c1c1c;fill-rule:nonzero;stroke:#414c55;stroke-width:0.04px;stroke-miterlimit:4"
   d="m 58.197,370.125 -0.688,-0.61 -0.375,3.006 z"
   id="polygon38" />
    </g><g
   id="text7967-9-5">
      <path
   inkscape:connector-curvature="0"
   id="path3803"
   style="fill:#ffffff;fill-rule:nonzero"
   d="m 51.339,37.714 v -7.351 h 1.378 v 3.203 c 0.354,-0.72 0.911,-1.08 1.671,-1.08 0.615,0 1.098,0.225 1.451,0.675 0.352,0.45 0.528,1.069 0.528,1.858 0,0.853 -0.199,1.535 -0.596,2.046 -0.397,0.51 -0.928,0.766 -1.592,0.766 -0.571,0 -1.058,-0.211 -1.462,-0.634 l -0.256,0.517 z m 1.378,-1.336 c 0.335,0.373 0.692,0.559 1.071,0.559 0.338,0 0.608,-0.164 0.81,-0.491 0.202,-0.328 0.302,-0.765 0.302,-1.311 0,-1.046 -0.336,-1.569 -1.01,-1.569 -0.406,0 -0.797,0.262 -1.173,0.787 z" />
      <path
   inkscape:connector-curvature="0"
   id="path3805"
   style="fill:#ffffff;fill-rule:nonzero"
   d="m 60.161,37.165 c -0.459,0.444 -0.951,0.666 -1.476,0.666 -0.447,0 -0.81,-0.137 -1.089,-0.41 -0.279,-0.273 -0.419,-0.627 -0.419,-1.062 0,-0.564 0.226,-1 0.677,-1.305 0.452,-0.306 1.098,-0.459 1.939,-0.459 h 0.368 V 34.13 c 0,-0.531 -0.302,-0.797 -0.908,-0.797 -0.537,0 -1.08,0.152 -1.629,0.457 v -0.95 c 0.624,-0.236 1.241,-0.354 1.853,-0.354 1.338,0 2.006,0.532 2.006,1.597 v 2.263 c 0,0.4 0.129,0.6 0.387,0.6 0.046,0 0.107,-0.006 0.181,-0.019 l 0.033,0.773 c -0.292,0.087 -0.549,0.131 -0.773,0.131 -0.565,0 -0.928,-0.222 -1.089,-0.666 z m 0,-0.74 v -1.039 h -0.326 c -0.89,0 -1.336,0.28 -1.336,0.838 0,0.19 0.065,0.349 0.193,0.478 0.129,0.128 0.288,0.193 0.478,0.193 0.322,0 0.653,-0.157 0.991,-0.47 z" />
      <path
   inkscape:connector-curvature="0"
   id="path3807"
   style="fill:#ffffff;fill-rule:nonzero"
   d="m 63.127,37.551 v -1.01 c 0.683,0.286 1.266,0.428 1.75,0.428 0.565,0 0.848,-0.192 0.848,-0.577 0,-0.248 -0.233,-0.465 -0.699,-0.652 l -0.465,-0.186 c -0.506,-0.205 -0.868,-0.425 -1.085,-0.661 -0.217,-0.236 -0.326,-0.528 -0.326,-0.875 0,-0.484 0.185,-0.861 0.554,-1.129 0.369,-0.269 0.886,-0.403 1.55,-0.403 0.416,0 0.911,0.061 1.485,0.182 v 0.968 c -0.552,-0.192 -1.01,-0.289 -1.373,-0.289 -0.571,0 -0.857,0.177 -0.857,0.531 0,0.233 0.212,0.43 0.634,0.591 l 0.4,0.154 c 0.599,0.227 1.016,0.456 1.25,0.689 0.234,0.233 0.351,0.532 0.351,0.899 0,0.481 -0.199,0.871 -0.598,1.17 -0.399,0.3 -0.918,0.45 -1.557,0.45 -0.615,0 -1.235,-0.093 -1.862,-0.28 z" />
      <path
   inkscape:connector-curvature="0"
   id="path3809"
   style="fill:#ffffff;fill-rule:nonzero"
   d="m 68.518,37.551 v -1.01 c 0.683,0.286 1.266,0.428 1.75,0.428 0.565,0 0.848,-0.192 0.848,-0.577 0,-0.248 -0.233,-0.465 -0.699,-0.652 l -0.465,-0.186 c -0.506,-0.205 -0.868,-0.425 -1.085,-0.661 -0.217,-0.236 -0.326,-0.528 -0.326,-0.875 0,-0.484 0.185,-0.861 0.554,-1.129 0.369,-0.269 0.886,-0.403 1.55,-0.403 0.416,0 0.911,0.061 1.486,0.182 v 0.968 c -0.553,-0.192 -1.011,-0.289 -1.374,-0.289 -0.571,0 -0.856,0.177 -0.856,0.531 0,0.233 0.211,0.43 0.633,0.591 l 0.4,0.154 c 0.599,0.227 1.016,0.456 1.25,0.689 0.234,0.233 0.352,0.532 0.352,0.899 0,0.481 -0.2,0.871 -0.599,1.17 -0.399,0.3 -0.918,0.45 -1.557,0.45 -0.614,0 -1.235,-0.093 -1.862,-0.28 z" />
      <path
   inkscape:connector-curvature="0"
   id="path3811"
   style="fill:#ffffff;fill-rule:nonzero"
   d="m 80.403,37.714 v -0.963 c -0.353,0.72 -0.911,1.08 -1.671,1.08 -0.614,0 -1.097,-0.225 -1.448,-0.675 -0.351,-0.45 -0.526,-1.07 -0.526,-1.858 0,-0.857 0.198,-1.539 0.594,-2.048 0.395,-0.509 0.927,-0.764 1.594,-0.764 0.534,0 1.02,0.211 1.457,0.633 v -2.756 h 1.383 v 7.351 z m 0,-3.775 c -0.332,-0.373 -0.687,-0.559 -1.066,-0.559 -0.338,0 -0.608,0.163 -0.81,0.489 -0.202,0.326 -0.302,0.763 -0.302,1.313 0,1.046 0.335,1.569 1.005,1.569 0.41,0 0.801,-0.263 1.173,-0.787 z" />
      <path
   inkscape:connector-curvature="0"
   id="path3813"
   style="fill:#ffffff;fill-rule:nonzero"
   d="m 83.504,37.714 v -5.111 h 1.378 v 0.963 c 0.357,-0.72 0.9,-1.08 1.629,-1.08 0.087,0 0.173,0.009 0.256,0.028 v 1.229 c -0.195,-0.071 -0.377,-0.107 -0.544,-0.107 -0.55,0 -0.997,0.278 -1.341,0.833 v 3.245 z" />
      <path
   inkscape:connector-curvature="0"
   id="path3815"
   style="fill:#ffffff;fill-rule:nonzero"
   d="m 90.999,37.714 v -0.963 c -0.447,0.72 -1.027,1.08 -1.741,1.08 -0.456,0 -0.816,-0.145 -1.08,-0.433 -0.264,-0.289 -0.396,-0.683 -0.396,-1.183 v -3.612 h 1.378 v 3.272 c 0,0.581 0.194,0.871 0.582,0.871 0.435,0 0.854,-0.309 1.257,-0.927 v -3.216 h 1.378 v 5.111 z" />
      <path
   inkscape:connector-curvature="0"
   id="path3817"
   style="fill:#ffffff;fill-rule:nonzero"
   d="m 94.1,37.714 v -5.111 h 1.322 v 0.963 c 0.403,-0.72 0.978,-1.08 1.723,-1.08 0.384,0 0.701,0.095 0.949,0.284 0.249,0.189 0.401,0.455 0.457,0.796 0.477,-0.72 1.055,-1.08 1.731,-1.08 0.935,0 1.402,0.515 1.402,1.546 v 3.682 h -1.322 v -3.231 c 0,-0.605 -0.202,-0.907 -0.606,-0.907 -0.413,0 -0.814,0.297 -1.205,0.893 v 3.245 h -1.323 v -3.231 c 0,-0.608 -0.203,-0.912 -0.61,-0.912 -0.406,0 -0.805,0.299 -1.196,0.898 v 3.245 z" />
    </g><g
   id="g4262"
   style="fill:#3c3c4c"><g
     id="g3830"
     style="fill:#3c3c4c">
      <path
   d="m 52.07,19.622 3.006,-3.912 h 3.045 l -3.762,4.491 4.114,4.994 H 55.278 L 52.07,21.081 v 4.114 H 49.604 V 15.71 h 2.466 z"
   style="fill:#3c3c4c;fill-rule:nonzero"
   id="path3820"
   inkscape:connector-curvature="0" />
      <path
   d="M 59.567,25.195 V 15.71 h 2.466 l 4.554,5.799 V 15.71 h 2.453 v 9.485 h -2.453 l -4.554,-5.799 v 5.799 z"
   style="fill:#3c3c4c;fill-rule:nonzero"
   id="path3822"
   inkscape:connector-curvature="0" />
      <path
   d="m 73.292,20.452 c 0,0.378 0.071,0.726 0.214,1.045 0.142,0.318 0.335,0.595 0.579,0.83 0.243,0.235 0.526,0.417 0.849,0.547 0.323,0.13 0.664,0.195 1.025,0.195 0.361,0 0.702,-0.065 1.025,-0.195 0.323,-0.13 0.608,-0.312 0.856,-0.547 0.247,-0.235 0.442,-0.512 0.585,-0.83 0.142,-0.319 0.213,-0.667 0.213,-1.045 0,-0.377 -0.071,-0.725 -0.213,-1.044 -0.143,-0.318 -0.338,-0.595 -0.585,-0.83 -0.248,-0.235 -0.533,-0.417 -0.856,-0.547 -0.323,-0.13 -0.664,-0.195 -1.025,-0.195 -0.361,0 -0.702,0.065 -1.025,0.195 -0.323,0.13 -0.606,0.312 -0.849,0.547 -0.244,0.235 -0.437,0.512 -0.579,0.83 -0.143,0.319 -0.214,0.667 -0.214,1.044 z m -2.579,0 c 0,-0.704 0.13,-1.36 0.39,-1.968 0.26,-0.608 0.621,-1.139 1.082,-1.592 0.461,-0.453 1.013,-0.807 1.654,-1.063 0.642,-0.255 1.348,-0.383 2.12,-0.383 0.763,0 1.468,0.128 2.113,0.383 0.646,0.256 1.202,0.61 1.667,1.063 0.466,0.453 0.828,0.984 1.088,1.592 0.26,0.608 0.39,1.264 0.39,1.968 0,0.705 -0.13,1.361 -0.39,1.969 -0.26,0.608 -0.622,1.139 -1.088,1.591 -0.465,0.453 -1.021,0.808 -1.667,1.063 -0.645,0.256 -1.35,0.384 -2.113,0.384 -0.772,0 -1.478,-0.128 -2.12,-0.384 -0.641,-0.255 -1.193,-0.61 -1.654,-1.063 -0.461,-0.452 -0.822,-0.983 -1.082,-1.591 -0.26,-0.608 -0.39,-1.264 -0.39,-1.969 z"
   style="fill:#3c3c4c;fill-rule:nonzero"
   id="path3824"
   inkscape:connector-curvature="0" />
      <path
   d="m 89.608,18.88 c -0.57,-0.696 -1.275,-1.044 -2.113,-1.044 -0.369,0 -0.711,0.067 -1.026,0.201 -0.314,0.134 -0.585,0.317 -0.811,0.547 -0.226,0.231 -0.405,0.506 -0.535,0.824 -0.13,0.319 -0.195,0.663 -0.195,1.032 0,0.377 0.065,0.725 0.195,1.044 0.13,0.319 0.311,0.595 0.541,0.83 0.231,0.235 0.501,0.42 0.812,0.554 0.31,0.134 0.645,0.201 1.006,0.201 0.788,0 1.497,-0.335 2.126,-1.006 v 2.918 l -0.251,0.088 c -0.378,0.134 -0.73,0.233 -1.057,0.296 -0.327,0.063 -0.65,0.094 -0.969,0.094 -0.654,0 -1.281,-0.124 -1.881,-0.371 -0.599,-0.247 -1.128,-0.595 -1.585,-1.044 -0.457,-0.449 -0.824,-0.981 -1.1,-1.598 -0.277,-0.616 -0.415,-1.289 -0.415,-2.019 0,-0.729 0.136,-1.398 0.408,-2.006 0.273,-0.608 0.638,-1.132 1.095,-1.573 0.457,-0.44 0.987,-0.784 1.591,-1.031 0.604,-0.248 1.237,-0.371 1.9,-0.371 0.377,0 0.748,0.039 1.113,0.119 0.365,0.08 0.749,0.204 1.151,0.371 z"
   style="fill:#3c3c4c;fill-rule:nonzero"
   id="path3826"
   inkscape:connector-curvature="0" />
      <path
   d="m 94.036,19.622 3.007,-3.912 h 3.044 l -3.761,4.491 4.113,4.994 h -3.195 l -3.208,-4.114 v 4.114 H 91.571 V 15.71 h 2.465 z"
   style="fill:#3c3c4c;fill-rule:nonzero"
   id="path3828"
   inkscape:connector-curvature="0" />
    </g></g><g
   serif:id="text9293-4"
   id="text9293-43">
      <path
   inkscape:connector-curvature="0"
   id="path3832"
   style="fill:#ffffff;fill-rule:nonzero"
   d="m 13.381,163.208 h 0.315 c 0.238,0 0.45,-0.037 0.637,-0.112 0.187,-0.075 0.344,-0.177 0.472,-0.308 0.129,-0.131 0.227,-0.286 0.294,-0.466 0.068,-0.179 0.102,-0.376 0.102,-0.591 0,-0.21 -0.035,-0.406 -0.105,-0.588 -0.07,-0.182 -0.169,-0.338 -0.298,-0.469 -0.128,-0.131 -0.285,-0.233 -0.472,-0.308 -0.187,-0.075 -0.397,-0.112 -0.63,-0.112 h -0.315 z m -1.372,-4.116 h 2.03 c 0.359,0 0.696,0.072 1.011,0.217 0.315,0.145 0.591,0.337 0.826,0.577 0.236,0.241 0.422,0.521 0.557,0.84 0.135,0.32 0.203,0.655 0.203,1.005 0,0.345 -0.067,0.678 -0.2,0.997 -0.133,0.32 -0.317,0.601 -0.553,0.844 -0.235,0.243 -0.511,0.436 -0.826,0.581 -0.315,0.145 -0.654,0.217 -1.018,0.217 h -2.03 z" />
      <path
   inkscape:connector-curvature="0"
   id="path3834"
   style="fill:#ffffff;fill-rule:nonzero"
   d="m 20.514,160.254 h -1.631 v 0.882 h 1.54 v 1.162 h -1.54 v 0.91 h 1.631 v 1.162 h -3.003 v -5.278 h 3.003 z" />
      <path
   inkscape:connector-curvature="0"
   id="path3836"
   style="fill:#ffffff;fill-rule:nonzero"
   d="m 25.302,160.856 c -0.317,-0.387 -0.709,-0.581 -1.176,-0.581 -0.205,0 -0.396,0.037 -0.571,0.112 -0.175,0.075 -0.325,0.176 -0.451,0.304 -0.126,0.129 -0.225,0.282 -0.298,0.459 -0.072,0.177 -0.108,0.369 -0.108,0.574 0,0.21 0.036,0.404 0.108,0.581 0.073,0.177 0.173,0.331 0.301,0.462 0.129,0.131 0.279,0.233 0.452,0.308 0.173,0.075 0.359,0.112 0.56,0.112 0.439,0 0.833,-0.187 1.183,-0.56 v 1.624 l -0.14,0.049 c -0.21,0.075 -0.406,0.129 -0.588,0.164 -0.182,0.035 -0.362,0.053 -0.539,0.053 -0.364,0 -0.713,-0.069 -1.047,-0.207 -0.333,-0.137 -0.627,-0.331 -0.882,-0.581 -0.254,-0.249 -0.458,-0.546 -0.612,-0.889 -0.154,-0.343 -0.231,-0.717 -0.231,-1.123 0,-0.406 0.076,-0.778 0.227,-1.117 0.152,-0.338 0.355,-0.63 0.609,-0.875 0.255,-0.245 0.55,-0.436 0.886,-0.574 0.336,-0.137 0.688,-0.206 1.057,-0.206 0.21,0 0.416,0.022 0.619,0.066 0.203,0.045 0.417,0.114 0.641,0.207 z" />
      <path
   inkscape:connector-curvature="0"
   id="path3838"
   style="fill:#ffffff;fill-rule:nonzero"
   d="m 29.166,162.41 -0.616,-1.757 -0.616,1.757 z m 0.364,1.043 h -1.96 l -0.315,0.917 h -1.463 l 2.009,-5.278 h 1.498 l 2.009,5.278 h -1.463 z" />
      <path
   inkscape:connector-curvature="0"
   id="path3840"
   style="fill:#ffffff;fill-rule:nonzero"
   d="m 32.687,161.836 -1.925,-2.744 H 32.4 l 0.98,1.442 0.973,-1.442 h 1.638 l -1.932,2.744 v 2.534 h -1.372 z" />
    </g><path
   inkscape:connector-curvature="0"
   id="path3843"
   style="fill:#323232"
   d="m 101,61.025 c 0.861,-0.959 2,-1 2,-1 h 41.835 c 0,0 2.035,-0.195 2.665,0.5 0.624,0.689 0.5,2.5 0.5,2.5 v 171.002 c 0,0 0.153,1.818 -0.5,2.498 -0.653,0.68 -2.521,0.5 -2.521,0.5 H 83.068 c 0,0 -1.027,0.049 -2.068,-1 -0.99,-0.997 -1,-2.005 -1,-2.005 v -48.982 c 0,0 0.082,-2.127 0.5,-3.013 0.418,-0.885 2.01,-2.3 2.01,-2.3 l 20.49,-17.7 c 0,0 1.583,-1.583 2,-2.5 0.417,-0.916 0.5,-3 0.5,-3 V 113.04 c 0,0 -0.16,-2.128 -0.5,-3.015 -0.331,-0.862 -1.539,-2.304 -1.539,-2.304 l -1.862,-2.103 c 0,0 -0.72,-0.741 -1.099,-1.807 -0.455,-1.28 -0.5,-2.852 -0.5,-2.852 V 63.025 c 0,0 -0.024,-0.86 1,-2 z" /><path
   inkscape:connector-curvature="0"
   id="path3845"
   style="fill:url(#_Linear2)"
   d="m 101,61 c 0.861,-0.959 2,-1 2,-1 h 41.835 c 0,0 2.035,-0.195 2.665,0.5 0.624,0.689 0.5,2.5 0.5,2.5 v 171.002 c 0,0 0.153,1.818 -0.5,2.498 -0.653,0.68 -2.521,0.5 -2.521,0.5 H 83.068 c 0,0 -1.027,0.049 -2.068,-1 -0.99,-0.998 -1,-2.005 -1,-2.005 v -48.982 c 0,0 0.082,-2.127 0.5,-3.013 0.418,-0.886 2.01,-2.301 2.01,-2.301 L 103,162 c 0,0 1.583,-1.583 2,-2.5 0.417,-0.917 0.5,-3 0.5,-3 v -43.485 c 0,0 -0.16,-2.129 -0.5,-3.015 -0.331,-0.862 -1.539,-2.304 -1.539,-2.304 l -1.862,-2.103 c 0,0 -0.72,-0.741 -1.099,-1.807 -0.455,-1.28 -0.5,-2.852 -0.5,-2.852 V 63 c 0,0 -0.024,-0.86 1,-2 z" /><path
   inkscape:connector-curvature="0"
   id="path3847"
   style="fill:#3c3c4c"
   d="m 101.5,62 c 0.836,-0.931 1.818,-1 1.818,-1 h 40.736 c 0,0 1.835,-0.175 2.446,0.5 0.606,0.668 0.5,2.5 0.5,2.5 l -0.015,169.07 c 0,0 0.148,1.764 -0.485,2.424 -0.633,0.66 -2.446,0.485 -2.446,0.485 H 83.977 c 0,0 -0.997,0.047 -2.007,-0.97 C 81.01,234.041 81,233.063 81,233.063 v -47.531 c 0,0 0.079,-2.064 0.485,-2.923 0.406,-0.859 1.95,-2.233 1.95,-2.233 L 103,163 c 0,0 1.797,-1.369 2.323,-2.197 0.517,-0.814 0.832,-2.772 0.832,-2.772 v -42.495 c 0,0 -0.053,-3.835 -0.322,-5.114 -0.197,-0.936 -1.291,-2.562 -1.291,-2.562 l -1.224,-1.581 c 0,0 -1.886,-1.947 -2.254,-2.982 -0.441,-1.241 -0.487,-3.797 -0.487,-3.797 L 100.893,64 c 0,0 -0.387,-0.894 0.607,-2 z" /><g
   serif:id="text9293-4"
   id="text9293-44">
      <path
   inkscape:connector-curvature="0"
   id="path3849"
   style="fill:#ffffff;fill-rule:nonzero"
   d="m 20.254,105.128 h 0.301 c 0.345,0 0.593,-0.044 0.742,-0.133 0.149,-0.088 0.224,-0.231 0.224,-0.427 0,-0.196 -0.075,-0.338 -0.224,-0.427 -0.149,-0.088 -0.397,-0.133 -0.742,-0.133 h -0.301 z m 0,-2.142 h 0.252 c 0.429,0 0.644,-0.17 0.644,-0.511 0,-0.34 -0.215,-0.511 -0.644,-0.511 h -0.252 z m -1.372,-2.072 h 2.044 c 0.485,0 0.854,0.117 1.106,0.35 0.252,0.234 0.378,0.57 0.378,1.008 0,0.266 -0.048,0.487 -0.143,0.662 -0.096,0.175 -0.242,0.323 -0.438,0.444 0.196,0.038 0.363,0.095 0.501,0.172 0.137,0.077 0.249,0.171 0.336,0.283 0.086,0.112 0.148,0.238 0.185,0.378 0.037,0.14 0.056,0.29 0.056,0.448 0,0.248 -0.043,0.467 -0.129,0.658 -0.087,0.192 -0.208,0.353 -0.364,0.483 -0.157,0.131 -0.347,0.229 -0.571,0.294 -0.224,0.066 -0.476,0.098 -0.756,0.098 h -2.205 z" />
      <path
   inkscape:connector-curvature="0"
   id="path3851"
   style="fill:#ffffff;fill-rule:nonzero"
   d="m 26.729,102.076 h -1.631 v 0.882 h 1.54 v 1.162 h -1.54 v 0.91 h 1.631 v 1.162 h -3.003 v -5.278 h 3.003 z" />
      <path
   inkscape:connector-curvature="0"
   id="path3853"
   style="fill:#ffffff;fill-rule:nonzero"
   d="m 27.716,106.192 v -5.278 h 1.372 l 2.534,3.227 v -3.227 h 1.365 v 5.278 h -1.365 l -2.534,-3.227 v 3.227 z" />
      <path
   inkscape:connector-curvature="0"
   id="path3855"
   style="fill:#ffffff;fill-rule:nonzero"
   d="m 35.465,105.03 h 0.315 c 0.238,0 0.45,-0.037 0.637,-0.112 0.187,-0.074 0.344,-0.177 0.473,-0.308 0.128,-0.13 0.226,-0.286 0.294,-0.465 0.067,-0.18 0.101,-0.377 0.101,-0.592 0,-0.21 -0.035,-0.406 -0.105,-0.588 -0.07,-0.182 -0.169,-0.338 -0.297,-0.469 -0.129,-0.13 -0.286,-0.233 -0.473,-0.308 -0.187,-0.074 -0.397,-0.112 -0.63,-0.112 h -0.315 z m -1.372,-4.116 h 2.03 c 0.359,0 0.697,0.073 1.012,0.217 0.315,0.145 0.59,0.337 0.826,0.578 0.235,0.24 0.421,0.52 0.556,0.84 0.135,0.319 0.203,0.654 0.203,1.004 0,0.346 -0.066,0.678 -0.199,0.998 -0.133,0.319 -0.318,0.601 -0.553,0.843 -0.236,0.243 -0.511,0.437 -0.826,0.581 -0.315,0.145 -0.655,0.217 -1.019,0.217 h -2.03 z" />
    </g><g
   serif:id="text9293-4"
   id="text9293-45">
      <path
   inkscape:connector-curvature="0"
   id="path3858"
   style="fill:#ffffff;fill-rule:nonzero"
   d="m 114.199,102.309 v 4.116 h -1.372 v -4.116 H 111.7 v -1.162 h 3.626 v 1.162 z" />
      <path
   inkscape:connector-curvature="0"
   id="path3860"
   style="fill:#ffffff;fill-rule:nonzero"
   d="m 117.552,103.891 -1.925,-2.744 h 1.638 l 0.98,1.442 0.973,-1.442 h 1.638 l -1.932,2.744 v 2.534 h -1.372 z" />
      <path
   inkscape:connector-curvature="0"
   id="path3862"
   style="fill:#ffffff;fill-rule:nonzero"
   d="m 122.711,103.569 h 0.455 c 0.504,0 0.756,-0.219 0.756,-0.658 0,-0.439 -0.252,-0.658 -0.756,-0.658 h -0.455 z m 0,2.856 h -1.372 v -5.278 h 2.184 c 0.593,0 1.046,0.154 1.361,0.462 0.315,0.308 0.473,0.742 0.473,1.302 0,0.56 -0.158,0.994 -0.473,1.302 -0.315,0.308 -0.768,0.462 -1.361,0.462 h -0.812 z" />
      <path
   inkscape:connector-curvature="0"
   id="path3864"
   style="fill:#ffffff;fill-rule:nonzero"
   d="m 129.088,102.309 h -1.631 v 0.882 h 1.54 v 1.162 h -1.54 v 0.91 h 1.631 v 1.162 h -3.003 v -5.278 h 3.003 z" />
    </g><path
   inkscape:connector-curvature="0"
   id="path3867"
   style="fill:url(#_Linear3)"
   d="M 146,258.4 C 146,250.452 139.548,244 131.6,244 H 18.4 C 10.452,244 4,250.452 4,258.4 v 43.2 c 0,7.948 6.452,14.4 14.4,14.4 h 113.2 c 7.948,0 14.4,-6.452 14.4,-14.4 z" /><path
   inkscape:connector-curvature="0"
   id="path3869"
   style="fill:#3c3c4c"
   d="m 145,259.37 c 0,-7.676 -6.232,-13.908 -13.908,-13.908 H 18.908 C 11.232,245.462 5,251.694 5,259.37 v 41.722 C 5,308.768 11.232,315 18.908,315 H 131.092 C 138.768,315 145,308.768 145,301.092 Z" /><g
   serif:id="text9293-4"
   id="text9293-46">
      <path
   inkscape:connector-curvature="0"
   id="path3871"
   style="fill:#ffffff;fill-rule:nonzero"
   d="m 46.372,255.116 h 0.315 c 0.238,0 0.45,-0.037 0.637,-0.112 0.187,-0.075 0.344,-0.177 0.473,-0.308 0.128,-0.131 0.226,-0.286 0.294,-0.465 0.067,-0.18 0.101,-0.377 0.101,-0.592 0,-0.21 -0.035,-0.406 -0.105,-0.588 -0.07,-0.182 -0.169,-0.338 -0.297,-0.469 -0.129,-0.131 -0.286,-0.233 -0.473,-0.308 -0.187,-0.075 -0.397,-0.112 -0.63,-0.112 H 46.372 Z M 45,251 h 2.03 c 0.359,0 0.697,0.072 1.012,0.217 0.315,0.145 0.59,0.337 0.826,0.577 0.235,0.241 0.421,0.521 0.556,0.84 0.135,0.32 0.203,0.655 0.203,1.005 0,0.345 -0.066,0.678 -0.2,0.997 -0.132,0.32 -0.317,0.601 -0.552,0.844 -0.236,0.243 -0.511,0.436 -0.826,0.581 -0.315,0.145 -0.655,0.217 -1.019,0.217 H 45 Z" />
      <path
   inkscape:connector-curvature="0"
   id="path3873"
   style="fill:#ffffff;fill-rule:nonzero"
   d="m 53.505,252.162 h -1.631 v 0.882 h 1.54 v 1.162 h -1.54 v 0.91 h 1.631 v 1.162 H 50.502 V 251 h 3.003 z" />
      <path
   inkscape:connector-curvature="0"
   id="path3875"
   style="fill:#ffffff;fill-rule:nonzero"
   d="m 58.293,252.764 c -0.317,-0.387 -0.709,-0.581 -1.176,-0.581 -0.205,0 -0.395,0.037 -0.57,0.112 -0.175,0.075 -0.326,0.176 -0.452,0.305 -0.126,0.128 -0.225,0.281 -0.297,0.458 -0.073,0.177 -0.109,0.369 -0.109,0.574 0,0.21 0.036,0.404 0.109,0.581 0.072,0.177 0.172,0.331 0.3,0.462 0.129,0.131 0.279,0.233 0.452,0.308 0.173,0.075 0.359,0.112 0.56,0.112 0.439,0 0.833,-0.187 1.183,-0.56 v 1.624 l -0.14,0.049 c -0.21,0.075 -0.406,0.13 -0.588,0.165 -0.182,0.035 -0.362,0.052 -0.539,0.052 -0.364,0 -0.713,-0.069 -1.046,-0.207 -0.334,-0.137 -0.628,-0.331 -0.882,-0.581 -0.255,-0.249 -0.459,-0.546 -0.613,-0.888 -0.154,-0.344 -0.231,-0.718 -0.231,-1.124 0,-0.406 0.076,-0.778 0.228,-1.117 0.151,-0.338 0.354,-0.63 0.609,-0.875 0.254,-0.244 0.549,-0.436 0.885,-0.573 0.336,-0.138 0.688,-0.207 1.057,-0.207 0.21,0 0.416,0.022 0.62,0.066 0.203,0.045 0.416,0.114 0.64,0.207 z" />
      <path
   inkscape:connector-curvature="0"
   id="path3877"
   style="fill:#ffffff;fill-rule:nonzero"
   d="m 62.157,254.318 -0.616,-1.757 -0.616,1.757 z m 0.364,1.043 h -1.96 l -0.315,0.917 H 58.783 L 60.792,251 h 1.498 l 2.009,5.278 h -1.463 z" />
      <path
   inkscape:connector-curvature="0"
   id="path3879"
   style="fill:#ffffff;fill-rule:nonzero"
   d="M 65.678,253.744 63.753,251 h 1.638 l 0.98,1.442 0.973,-1.442 h 1.638 l -1.932,2.744 v 2.534 h -1.372 z" />
    </g><g
   serif:id="text9293-4"
   id="text9293-47">
      <path
   inkscape:connector-curvature="0"
   id="path3882"
   style="fill:#ffffff;fill-rule:nonzero"
   d="m 122.701,252.351 c -0.149,-0.121 -0.299,-0.211 -0.448,-0.269 -0.149,-0.059 -0.294,-0.088 -0.434,-0.088 -0.177,0 -0.322,0.042 -0.434,0.126 -0.112,0.084 -0.168,0.194 -0.168,0.329 0,0.093 0.028,0.17 0.084,0.231 0.056,0.061 0.129,0.113 0.22,0.158 0.091,0.044 0.194,0.082 0.308,0.115 0.115,0.033 0.228,0.068 0.34,0.105 0.448,0.149 0.776,0.349 0.983,0.599 0.208,0.249 0.312,0.575 0.312,0.976 0,0.271 -0.046,0.516 -0.137,0.735 -0.091,0.219 -0.224,0.407 -0.399,0.564 -0.175,0.156 -0.389,0.277 -0.644,0.364 -0.254,0.086 -0.542,0.129 -0.864,0.129 -0.667,0 -1.286,-0.198 -1.855,-0.595 l 0.588,-1.106 c 0.205,0.182 0.408,0.317 0.609,0.406 0.201,0.089 0.399,0.133 0.595,0.133 0.224,0 0.391,-0.051 0.5,-0.154 0.11,-0.103 0.165,-0.219 0.165,-0.35 0,-0.079 -0.014,-0.148 -0.042,-0.207 -0.028,-0.058 -0.075,-0.112 -0.14,-0.161 -0.065,-0.049 -0.151,-0.094 -0.256,-0.136 -0.105,-0.042 -0.232,-0.089 -0.381,-0.14 -0.177,-0.056 -0.351,-0.118 -0.522,-0.186 -0.17,-0.067 -0.322,-0.157 -0.455,-0.269 -0.133,-0.112 -0.24,-0.253 -0.322,-0.424 -0.081,-0.17 -0.122,-0.386 -0.122,-0.647 0,-0.261 0.043,-0.498 0.129,-0.711 0.087,-0.212 0.208,-0.394 0.364,-0.546 0.157,-0.151 0.348,-0.269 0.574,-0.353 0.227,-0.084 0.48,-0.126 0.76,-0.126 0.261,0 0.534,0.036 0.819,0.108 0.285,0.073 0.558,0.179 0.819,0.319 z" />
      <path
   inkscape:connector-curvature="0"
   id="path3884"
   style="fill:#ffffff;fill-rule:nonzero"
   d="m 125.697,253.037 h 1.981 V 251 h 1.372 v 5.278 h -1.372 v -2.177 h -1.981 v 2.177 h -1.372 V 251 h 1.372 z" />
      <rect
   id="rect3886"
   style="fill:#ffffff;fill-rule:nonzero"
   height="5.2779999"
   width="1.372"
   y="251"
   x="130.15601" />
      <path
   inkscape:connector-curvature="0"
   id="path3888"
   style="fill:#ffffff;fill-rule:nonzero"
   d="m 135.658,252.162 h -1.652 v 0.882 h 1.505 v 1.162 h -1.505 v 2.072 h -1.372 V 251 h 3.024 z" />
      <path
   inkscape:connector-curvature="0"
   id="path3890"
   style="fill:#ffffff;fill-rule:nonzero"
   d="m 138.479,252.162 v 4.116 h -1.372 v -4.116 H 135.98 V 251 h 3.626 v 1.162 z" />
    </g><g
   serif:id="text9293-4"
   id="text9293-48">
      <path
   inkscape:connector-curvature="0"
   id="path3893"
   style="fill:#ffffff;fill-rule:nonzero"
   d="m 101.955,222.623 c -0.149,-0.121 -0.298,-0.211 -0.448,-0.27 -0.149,-0.058 -0.294,-0.087 -0.434,-0.087 -0.177,0 -0.322,0.042 -0.434,0.126 -0.112,0.084 -0.168,0.194 -0.168,0.329 0,0.093 0.028,0.17 0.084,0.231 0.056,0.061 0.13,0.113 0.221,0.157 0.091,0.045 0.193,0.083 0.308,0.116 0.114,0.033 0.227,0.068 0.339,0.105 0.448,0.149 0.776,0.349 0.984,0.598 0.207,0.25 0.311,0.576 0.311,0.977 0,0.271 -0.045,0.516 -0.136,0.735 -0.091,0.219 -0.224,0.407 -0.399,0.563 -0.175,0.157 -0.39,0.278 -0.644,0.364 -0.255,0.087 -0.543,0.13 -0.865,0.13 -0.667,0 -1.285,-0.198 -1.855,-0.595 l 0.588,-1.106 c 0.206,0.182 0.409,0.317 0.609,0.406 0.201,0.089 0.399,0.133 0.595,0.133 0.224,0 0.391,-0.051 0.501,-0.154 0.109,-0.103 0.164,-0.219 0.164,-0.35 0,-0.079 -0.014,-0.148 -0.042,-0.207 -0.028,-0.058 -0.074,-0.112 -0.14,-0.161 -0.065,-0.049 -0.15,-0.094 -0.255,-0.136 -0.105,-0.042 -0.232,-0.089 -0.382,-0.14 -0.177,-0.056 -0.351,-0.118 -0.521,-0.186 -0.171,-0.067 -0.322,-0.157 -0.455,-0.269 -0.133,-0.112 -0.241,-0.253 -0.322,-0.424 -0.082,-0.17 -0.123,-0.386 -0.123,-0.647 0,-0.261 0.043,-0.498 0.13,-0.711 0.086,-0.212 0.207,-0.394 0.364,-0.546 0.156,-0.151 0.347,-0.269 0.574,-0.353 0.226,-0.084 0.479,-0.126 0.759,-0.126 0.262,0 0.535,0.036 0.819,0.108 0.285,0.073 0.558,0.179 0.819,0.319 z" />
      <path
   inkscape:connector-curvature="0"
   id="path3895"
   style="fill:#ffffff;fill-rule:nonzero"
   d="m 104.951,223.309 h 1.981 v -2.037 h 1.372 v 5.278 h -1.372 v -2.177 h -1.981 v 2.177 h -1.372 v -5.278 h 1.372 z" />
      <rect
   id="rect3897"
   style="fill:#ffffff;fill-rule:nonzero"
   height="5.2779999"
   width="1.372"
   y="221.272"
   x="109.41" />
      <path
   inkscape:connector-curvature="0"
   id="path3899"
   style="fill:#ffffff;fill-rule:nonzero"
   d="m 114.912,222.434 h -1.652 v 0.882 h 1.505 v 1.162 h -1.505 v 2.072 h -1.372 v -5.278 h 3.024 z" />
      <path
   inkscape:connector-curvature="0"
   id="path3901"
   style="fill:#ffffff;fill-rule:nonzero"
   d="m 117.733,222.434 v 4.116 h -1.372 v -4.116 h -1.127 v -1.162 h 3.626 v 1.162 z" />
    </g><g
   serif:id="text9293-4"
   id="text9293-49">
      <path
   inkscape:connector-curvature="0"
   id="path3904"
   style="fill:#b3b3b3;fill-rule:nonzero"
   d="m 97.541,234.425 v -5.278 h 1.372 l 2.534,3.227 v -3.227 h 1.365 v 5.278 h -1.365 l -2.534,-3.227 v 3.227 z" />
      <path
   inkscape:connector-curvature="0"
   id="path3906"
   style="fill:#b3b3b3;fill-rule:nonzero"
   d="m 105.178,231.786 c 0,0.21 0.04,0.404 0.119,0.581 0.079,0.177 0.187,0.331 0.322,0.462 0.135,0.131 0.293,0.232 0.472,0.304 0.18,0.073 0.37,0.109 0.571,0.109 0.201,0 0.391,-0.036 0.571,-0.109 0.179,-0.072 0.338,-0.173 0.476,-0.304 0.137,-0.131 0.246,-0.285 0.325,-0.462 0.079,-0.177 0.119,-0.371 0.119,-0.581 0,-0.21 -0.04,-0.404 -0.119,-0.581 -0.079,-0.177 -0.188,-0.331 -0.325,-0.462 -0.138,-0.131 -0.297,-0.232 -0.476,-0.305 -0.18,-0.072 -0.37,-0.108 -0.571,-0.108 -0.201,0 -0.391,0.036 -0.57,0.108 -0.18,0.073 -0.338,0.174 -0.473,0.305 -0.135,0.131 -0.243,0.285 -0.322,0.462 -0.079,0.177 -0.119,0.371 -0.119,0.581 z m -1.435,0 c 0,-0.392 0.072,-0.757 0.217,-1.096 0.145,-0.338 0.345,-0.633 0.602,-0.885 0.257,-0.252 0.564,-0.449 0.921,-0.592 0.356,-0.142 0.75,-0.213 1.179,-0.213 0.425,0 0.817,0.071 1.176,0.213 0.359,0.143 0.668,0.34 0.927,0.592 0.259,0.252 0.461,0.547 0.606,0.885 0.145,0.339 0.217,0.704 0.217,1.096 0,0.392 -0.072,0.757 -0.217,1.095 -0.145,0.339 -0.347,0.634 -0.606,0.886 -0.259,0.252 -0.568,0.449 -0.927,0.591 -0.359,0.143 -0.751,0.214 -1.176,0.214 -0.429,0 -0.823,-0.071 -1.18,-0.214 -0.356,-0.142 -0.663,-0.339 -0.92,-0.591 -0.257,-0.252 -0.457,-0.547 -0.602,-0.886 -0.145,-0.338 -0.217,-0.703 -0.217,-1.095 z" />
      <rect
   id="rect3908"
   style="fill:#b3b3b3;fill-rule:nonzero"
   height="5.2779999"
   width="1.372"
   y="229.147"
   x="110.456" />
      <path
   inkscape:connector-curvature="0"
   id="path3910"
   style="fill:#b3b3b3;fill-rule:nonzero"
   d="m 115.832,230.498 c -0.149,-0.121 -0.299,-0.211 -0.448,-0.27 -0.149,-0.058 -0.294,-0.087 -0.434,-0.087 -0.177,0 -0.322,0.042 -0.434,0.126 -0.112,0.084 -0.168,0.194 -0.168,0.329 0,0.093 0.028,0.17 0.084,0.231 0.056,0.061 0.129,0.113 0.22,0.157 0.091,0.045 0.194,0.083 0.308,0.116 0.115,0.033 0.228,0.068 0.34,0.105 0.448,0.149 0.776,0.349 0.983,0.598 0.208,0.25 0.312,0.576 0.312,0.977 0,0.271 -0.046,0.516 -0.137,0.735 -0.091,0.219 -0.224,0.407 -0.399,0.563 -0.175,0.157 -0.389,0.278 -0.644,0.364 -0.254,0.087 -0.542,0.13 -0.864,0.13 -0.667,0 -1.286,-0.198 -1.855,-0.595 l 0.588,-1.106 c 0.205,0.182 0.408,0.317 0.609,0.406 0.201,0.089 0.399,0.133 0.595,0.133 0.224,0 0.391,-0.051 0.501,-0.154 0.109,-0.103 0.164,-0.219 0.164,-0.35 0,-0.079 -0.014,-0.148 -0.042,-0.207 -0.028,-0.058 -0.075,-0.112 -0.14,-0.161 -0.065,-0.049 -0.151,-0.094 -0.256,-0.136 -0.105,-0.042 -0.232,-0.089 -0.381,-0.14 -0.177,-0.056 -0.351,-0.118 -0.522,-0.186 -0.17,-0.067 -0.322,-0.157 -0.454,-0.269 -0.133,-0.112 -0.241,-0.253 -0.323,-0.424 -0.081,-0.17 -0.122,-0.386 -0.122,-0.647 0,-0.261 0.043,-0.498 0.129,-0.711 0.087,-0.212 0.208,-0.394 0.364,-0.546 0.157,-0.151 0.348,-0.269 0.574,-0.353 0.227,-0.084 0.48,-0.126 0.76,-0.126 0.261,0 0.534,0.036 0.819,0.108 0.285,0.073 0.558,0.179 0.819,0.319 z" />
      <path
   inkscape:connector-curvature="0"
   id="path3912"
   style="fill:#b3b3b3;fill-rule:nonzero"
   d="m 120.459,230.309 h -1.631 v 0.882 h 1.54 v 1.162 h -1.54 v 0.91 h 1.631 v 1.162 h -3.003 v -5.278 h 3.003 z" />
    </g><g
   serif:id="text9293-4"
   id="text9293-410">
      <path
   inkscape:connector-curvature="0"
   id="path3915"
   style="fill:#ffffff;fill-rule:nonzero"
   d="m 116.367,163.019 h 0.315 c 0.238,0 0.45,-0.037 0.637,-0.112 0.187,-0.075 0.344,-0.177 0.473,-0.308 0.128,-0.131 0.226,-0.286 0.294,-0.466 0.067,-0.179 0.101,-0.376 0.101,-0.591 0,-0.21 -0.035,-0.406 -0.105,-0.588 -0.07,-0.182 -0.169,-0.338 -0.297,-0.469 -0.129,-0.131 -0.286,-0.233 -0.473,-0.308 -0.187,-0.075 -0.397,-0.112 -0.63,-0.112 h -0.315 z m -1.372,-4.116 h 2.03 c 0.359,0 0.697,0.072 1.012,0.217 0.315,0.145 0.59,0.337 0.826,0.577 0.235,0.241 0.421,0.521 0.556,0.84 0.135,0.32 0.203,0.655 0.203,1.005 0,0.345 -0.066,0.678 -0.199,0.997 -0.133,0.32 -0.318,0.601 -0.553,0.844 -0.236,0.243 -0.511,0.436 -0.826,0.581 -0.315,0.145 -0.655,0.217 -1.019,0.217 h -2.03 z" />
      <path
   inkscape:connector-curvature="0"
   id="path3917"
   style="fill:#ffffff;fill-rule:nonzero"
   d="m 123.5,160.065 h -1.631 v 0.882 h 1.54 v 1.162 h -1.54 v 0.91 h 1.631 v 1.162 h -3.003 v -5.278 h 3.003 z" />
      <path
   inkscape:connector-curvature="0"
   id="path3919"
   style="fill:#ffffff;fill-rule:nonzero"
   d="m 125.859,161.325 h 0.455 c 0.504,0 0.756,-0.219 0.756,-0.658 0,-0.439 -0.252,-0.658 -0.756,-0.658 h -0.455 z m 0,2.856 h -1.372 v -5.278 h 2.184 c 0.593,0 1.047,0.154 1.362,0.462 0.315,0.308 0.472,0.742 0.472,1.302 0,0.56 -0.157,0.994 -0.472,1.302 -0.315,0.308 -0.769,0.462 -1.362,0.462 h -0.812 z" />
      <path
   inkscape:connector-curvature="0"
   id="path3921"
   style="fill:#ffffff;fill-rule:nonzero"
   d="m 131.235,160.065 v 4.116 h -1.372 v -4.116 h -1.127 v -1.162 h 3.626 v 1.162 z" />
      <path
   inkscape:connector-curvature="0"
   id="path3923"
   style="fill:#ffffff;fill-rule:nonzero"
   d="m 134.343,160.94 h 1.981 v -2.037 h 1.372 v 5.278 h -1.372 v -2.177 h -1.981 v 2.177 h -1.372 v -5.278 h 1.372 z" />
    </g><g
   serif:id="text9293-4"
   id="text9293-411">
      <path
   inkscape:connector-curvature="0"
   id="path3926"
   style="fill:#ffffff;fill-rule:nonzero"
   d="m 82.743,255.074 h 0.315 c 0.238,0 0.451,-0.037 0.637,-0.112 0.187,-0.074 0.344,-0.177 0.473,-0.308 0.128,-0.13 0.226,-0.286 0.294,-0.465 0.067,-0.18 0.101,-0.377 0.101,-0.592 0,-0.21 -0.035,-0.406 -0.105,-0.588 -0.07,-0.182 -0.169,-0.338 -0.297,-0.469 -0.129,-0.13 -0.286,-0.233 -0.473,-0.308 -0.186,-0.074 -0.396,-0.112 -0.63,-0.112 h -0.315 z m -1.372,-4.116 h 2.03 c 0.36,0 0.697,0.073 1.012,0.217 0.315,0.145 0.59,0.337 0.826,0.578 0.235,0.24 0.421,0.52 0.556,0.84 0.136,0.319 0.203,0.654 0.203,1.004 0,0.346 -0.066,0.678 -0.199,0.998 -0.133,0.319 -0.318,0.601 -0.553,0.843 -0.236,0.243 -0.511,0.437 -0.826,0.581 -0.315,0.145 -0.655,0.217 -1.019,0.217 h -2.03 z" />
      <path
   inkscape:connector-curvature="0"
   id="path3928"
   style="fill:#ffffff;fill-rule:nonzero"
   d="m 89.876,252.12 h -1.631 v 0.882 h 1.54 v 1.162 h -1.54 v 0.91 h 1.631 v 1.162 h -3.003 v -5.278 h 3.003 z" />
      <path
   inkscape:connector-curvature="0"
   id="path3930"
   style="fill:#ffffff;fill-rule:nonzero"
   d="m 92.235,253.38 h 0.455 c 0.504,0 0.756,-0.219 0.756,-0.658 0,-0.438 -0.252,-0.658 -0.756,-0.658 h -0.455 z m 0,2.856 h -1.372 v -5.278 h 2.184 c 0.593,0 1.047,0.154 1.362,0.462 0.315,0.308 0.472,0.742 0.472,1.302 0,0.56 -0.157,0.994 -0.472,1.302 -0.315,0.308 -0.769,0.462 -1.362,0.462 h -0.812 z" />
      <path
   inkscape:connector-curvature="0"
   id="path3932"
   style="fill:#ffffff;fill-rule:nonzero"
   d="m 97.611,252.12 v 4.116 h -1.372 v -4.116 h -1.127 v -1.162 h 3.626 v 1.162 z" />
      <path
   inkscape:connector-curvature="0"
   id="path3934"
   style="fill:#ffffff;fill-rule:nonzero"
   d="m 100.719,252.995 h 1.981 v -2.037 h 1.372 v 5.278 H 102.7 v -2.177 h -1.981 v 2.177 h -1.372 v -5.278 h 1.372 z" />
    </g><g
   id="g3940">
      <path
   inkscape:connector-curvature="0"
   style="fill:none;stroke:#cccccc;stroke-width:1.5px;stroke-linecap:round;stroke-miterlimit:4"
   d="m 130.325,208.298 c 5.878,-10.184 3.577,-23.245 -5.43,-30.804 -9.008,-7.555 -22.274,-7.555 -31.281,0 -9.008,7.559 -11.309,20.62 -5.431,30.804"
   id="path2198" />
      <circle
   style="fill:#cccccc;stroke:#cccccc;stroke-width:1px;stroke-miterlimit:4"
   r="3.7060001"
   cy="217.054"
   cx="128.895"
   id="circle2204" />
      <circle
   style="fill:none;stroke:#cccccc;stroke-width:1px;stroke-miterlimit:4"
   r="3.7060001"
   cy="217.56599"
   cx="91.114998"
   id="circle2201" />
    </g><g
   id="g3947">
      <path
   inkscape:connector-curvature="0"
   style="fill:none;stroke:#cccccc;stroke-width:1px;stroke-linecap:round;stroke-miterlimit:4"
   d="m 29.648,278.683 c 2.737,-4.742 1.665,-10.825 -2.533,-14.346 -4.194,-3.522 -10.373,-3.522 -14.566,0 -4.198,3.521 -5.27,9.604 -2.533,14.346 l 9.816,-5.667 z"
   id="path2105" />
      <path
   inkscape:connector-curvature="0"
   style="fill:#cccccc;fill-rule:nonzero;stroke:#cccccc;stroke-width:1px;stroke-linecap:round;stroke-miterlimit:4"
   d="m 29.276,279.879 0.024,4.41"
   id="path2108" />
      <path
   inkscape:connector-curvature="0"
   style="fill:#cccccc;fill-rule:nonzero;stroke:#cccccc;stroke-width:1px;stroke-linecap:round;stroke-miterlimit:4"
   d="m 31.493,282.052 -4.41,0.02"
   id="path2111" />
      <path
   inkscape:connector-curvature="0"
   style="fill:#cccccc;fill-rule:nonzero;stroke:#cccccc;stroke-width:1px;stroke-linecap:round;stroke-miterlimit:4"
   d="m 13.173,281.928 -4.414,0.02"
   id="path2114" />
      <path
   inkscape:connector-curvature="0"
   style="fill:none;stroke:#cccccc;stroke-width:1px;stroke-linecap:round;stroke-miterlimit:4"
   d="M 19.832,273.02 19.808,259.711"
   id="path2117" />
    </g><g
   id="g3954">
      <path
   inkscape:connector-curvature="0"
   style="fill:none;stroke:#cccccc;stroke-width:1px;stroke-linecap:round;stroke-miterlimit:4"
   d="m 66.654,278.394 c 2.737,-4.742 1.664,-10.825 -2.533,-14.346 -4.194,-3.522 -10.373,-3.522 -14.566,0 -4.198,3.521 -5.271,9.604 -2.534,14.346 l 9.817,-5.667 z"
   serif:id="path2105"
   id="path21051" />
      <path
   inkscape:connector-curvature="0"
   style="fill:#cccccc;fill-rule:nonzero;stroke:#cccccc;stroke-width:1px;stroke-linecap:round;stroke-miterlimit:4"
   d="M 66.281,279.59 66.305,284"
   serif:id="path2108"
   id="path21081" />
      <path
   inkscape:connector-curvature="0"
   style="fill:#cccccc;fill-rule:nonzero;stroke:#cccccc;stroke-width:1px;stroke-linecap:round;stroke-miterlimit:4"
   d="m 68.498,281.763 -4.409,0.02"
   serif:id="path2111"
   id="path21111" />
      <path
   inkscape:connector-curvature="0"
   style="fill:#cccccc;fill-rule:nonzero;stroke:#cccccc;stroke-width:1px;stroke-linecap:round;stroke-miterlimit:4"
   d="m 50.179,281.639 -4.414,0.02"
   serif:id="path2114"
   id="path21141" />
      <path
   inkscape:connector-curvature="0"
   style="fill:none;stroke:#cccccc;stroke-width:1px;stroke-linecap:round;stroke-miterlimit:4"
   d="M 56.838,272.731 56.814,259.422"
   serif:id="path2117"
   id="path21171" />
    </g><g
   id="g3961">
      <path
   inkscape:connector-curvature="0"
   style="fill:none;stroke:#cccccc;stroke-width:1px;stroke-linecap:round;stroke-miterlimit:4"
   d="m 102.648,278.394 c 2.737,-4.742 1.665,-10.825 -2.533,-14.346 -4.194,-3.522 -10.373,-3.522 -14.566,0 -4.198,3.521 -5.27,9.604 -2.533,14.346 l 9.816,-5.667 z"
   serif:id="path2105"
   id="path21052" />
      <path
   inkscape:connector-curvature="0"
   style="fill:#cccccc;fill-rule:nonzero;stroke:#cccccc;stroke-width:1px;stroke-linecap:round;stroke-miterlimit:4"
   d="M 102.276,279.59 102.3,284"
   serif:id="path2108"
   id="path21082" />
      <path
   inkscape:connector-curvature="0"
   style="fill:#cccccc;fill-rule:nonzero;stroke:#cccccc;stroke-width:1px;stroke-linecap:round;stroke-miterlimit:4"
   d="m 104.493,281.763 -4.41,0.02"
   serif:id="path2111"
   id="path21112" />
      <path
   inkscape:connector-curvature="0"
   style="fill:#cccccc;fill-rule:nonzero;stroke:#cccccc;stroke-width:1px;stroke-linecap:round;stroke-miterlimit:4"
   d="m 86.173,281.639 -4.414,0.02"
   serif:id="path2114"
   id="path21142" />
      <path
   inkscape:connector-curvature="0"
   style="fill:none;stroke:#cccccc;stroke-width:1px;stroke-linecap:round;stroke-miterlimit:4"
   d="M 92.832,272.731 92.808,259.422"
   serif:id="path2117"
   id="path21172" />
    </g><g
   id="g3968">
      <path
   inkscape:connector-curvature="0"
   style="fill:none;stroke:#cccccc;stroke-width:1px;stroke-linecap:round;stroke-miterlimit:4"
   d="m 139.648,278.683 c 2.737,-4.742 1.665,-10.825 -2.533,-14.346 -4.194,-3.522 -10.373,-3.522 -14.566,0 -4.198,3.521 -5.27,9.604 -2.533,14.346 l 9.816,-5.667 z"
   serif:id="path2105"
   id="path21053" />
      <path
   inkscape:connector-curvature="0"
   style="fill:#cccccc;fill-rule:nonzero;stroke:#cccccc;stroke-width:1px;stroke-linecap:round;stroke-miterlimit:4"
   d="m 139.276,279.879 0.024,4.41"
   serif:id="path2108"
   id="path21083" />
      <path
   inkscape:connector-curvature="0"
   style="fill:#cccccc;fill-rule:nonzero;stroke:#cccccc;stroke-width:1px;stroke-linecap:round;stroke-miterlimit:4"
   d="m 141.493,282.052 -4.41,0.02"
   serif:id="path2111"
   id="path21113" />
      <path
   inkscape:connector-curvature="0"
   style="fill:#cccccc;fill-rule:nonzero;stroke:#cccccc;stroke-width:1px;stroke-linecap:round;stroke-miterlimit:4"
   d="m 123.173,281.928 -4.414,0.02"
   serif:id="path2114"
   id="path21143" />
      <path
   inkscape:connector-curvature="0"
   style="fill:none;stroke:#cccccc;stroke-width:1px;stroke-linecap:round;stroke-miterlimit:4"
   d="m 129.832,273.02 -0.024,-13.309"
   serif:id="path2117"
   id="path21173" />
    </g><g
   serif:id="text9293-4"
   id="text9293-412">
      <path
   inkscape:connector-curvature="0"
   id="path3970"
   style="fill:#ffffff;fill-rule:nonzero"
   d="m 33.847,222.581 h -1.652 v 0.882 H 33.7 v 1.162 h -1.505 v 2.072 h -1.372 v -5.278 h 3.024 z" />
      <path
   inkscape:connector-curvature="0"
   id="path3972"
   style="fill:#ffffff;fill-rule:nonzero"
   d="m 36.038,221.419 v 2.87 c 0,0.154 0.006,0.311 0.017,0.472 0.012,0.161 0.047,0.307 0.105,0.438 0.059,0.131 0.151,0.237 0.277,0.318 0.126,0.082 0.303,0.123 0.532,0.123 0.229,0 0.405,-0.041 0.528,-0.123 0.124,-0.081 0.216,-0.187 0.277,-0.318 0.061,-0.131 0.097,-0.277 0.108,-0.438 0.012,-0.161 0.018,-0.318 0.018,-0.472 v -2.87 h 1.365 v 3.059 c 0,0.821 -0.188,1.421 -0.564,1.799 -0.375,0.378 -0.953,0.567 -1.732,0.567 -0.779,0 -1.358,-0.189 -1.736,-0.567 -0.378,-0.378 -0.567,-0.978 -0.567,-1.799 v -3.059 z" />
      <path
   inkscape:connector-curvature="0"
   id="path3974"
   style="fill:#ffffff;fill-rule:nonzero"
   d="m 41.743,223.778 h 0.259 c 0.271,0 0.478,-0.056 0.623,-0.168 0.145,-0.112 0.217,-0.273 0.217,-0.483 0,-0.21 -0.072,-0.371 -0.217,-0.483 -0.145,-0.112 -0.352,-0.168 -0.623,-0.168 h -0.259 z m 3.017,2.919 h -1.708 l -1.309,-2.03 v 2.03 h -1.372 v -5.278 h 2.135 c 0.294,0 0.551,0.043 0.77,0.129 0.219,0.087 0.4,0.205 0.542,0.354 0.143,0.149 0.25,0.322 0.322,0.518 0.073,0.196 0.109,0.406 0.109,0.63 0,0.401 -0.097,0.727 -0.291,0.976 -0.193,0.25 -0.479,0.419 -0.857,0.508 z" />
      <path
   inkscape:connector-curvature="0"
   id="path3976"
   style="fill:#ffffff;fill-rule:nonzero"
   d="m 46.356,224.163 -1.925,-2.744 h 1.638 l 0.98,1.442 0.973,-1.442 h 1.638 l -1.932,2.744 v 2.534 h -1.372 z" />
    </g><g
   serif:id="text9293-4"
   id="text9293-413">
      <path
   inkscape:connector-curvature="0"
   id="path3979"
   style="fill:#ffffff;fill-rule:nonzero"
   d="m 13.285,252.162 h -1.652 v 0.882 h 1.505 v 1.162 h -1.505 v 2.072 H 10.261 V 251 h 3.024 z" />
      <path
   inkscape:connector-curvature="0"
   id="path3981"
   style="fill:#ffffff;fill-rule:nonzero"
   d="m 15.476,251 v 2.87 c 0,0.154 0.006,0.312 0.017,0.473 0.012,0.161 0.047,0.306 0.105,0.437 0.059,0.131 0.151,0.237 0.277,0.319 0.126,0.081 0.303,0.122 0.532,0.122 0.229,0 0.405,-0.041 0.528,-0.123 0.124,-0.081 0.216,-0.187 0.277,-0.318 0.061,-0.131 0.097,-0.276 0.108,-0.438 0.012,-0.161 0.018,-0.318 0.018,-0.472 V 251 h 1.365 v 3.059 c 0,0.821 -0.188,1.421 -0.564,1.799 -0.375,0.378 -0.953,0.567 -1.732,0.567 -0.779,0 -1.358,-0.189 -1.736,-0.567 -0.378,-0.378 -0.567,-0.978 -0.567,-1.799 V 251 Z" />
      <path
   inkscape:connector-curvature="0"
   id="path3983"
   style="fill:#ffffff;fill-rule:nonzero"
   d="m 21.181,253.359 h 0.259 c 0.271,0 0.478,-0.056 0.623,-0.168 0.145,-0.112 0.217,-0.273 0.217,-0.483 0,-0.21 -0.072,-0.371 -0.217,-0.483 -0.145,-0.112 -0.352,-0.168 -0.623,-0.168 h -0.259 z m 3.017,2.919 H 22.49 l -1.309,-2.03 v 2.03 H 19.809 V 251 h 2.135 c 0.294,0 0.551,0.043 0.77,0.13 0.219,0.086 0.4,0.204 0.543,0.353 0.142,0.149 0.249,0.322 0.321,0.518 0.073,0.196 0.109,0.406 0.109,0.63 0,0.401 -0.097,0.727 -0.291,0.977 -0.193,0.249 -0.479,0.418 -0.857,0.507 z" />
      <path
   inkscape:connector-curvature="0"
   id="path3985"
   style="fill:#ffffff;fill-rule:nonzero"
   d="M 25.794,253.744 23.869,251 h 1.638 l 0.98,1.442 L 27.46,251 h 1.638 l -1.932,2.744 v 2.534 h -1.372 z" />
    </g><g
   serif:id="text9293-4"
   id="text9293-414">
      <path
   inkscape:connector-curvature="0"
   id="path3988"
   style="fill:#ffffff;fill-rule:nonzero"
   d="m 67.861,157.709 v 4.116 h -1.372 v -4.116 h -1.127 v -1.162 h 3.626 v 1.162 z" />
      <path
   inkscape:connector-curvature="0"
   id="path3990"
   style="fill:#ffffff;fill-rule:nonzero"
   d="m 70.969,156.547 v 2.87 c 0,0.154 0.006,0.312 0.017,0.473 0.012,0.161 0.047,0.306 0.105,0.437 0.059,0.131 0.151,0.237 0.277,0.319 0.126,0.081 0.303,0.122 0.532,0.122 0.228,0 0.405,-0.041 0.528,-0.122 0.124,-0.082 0.216,-0.188 0.277,-0.319 0.06,-0.131 0.097,-0.276 0.108,-0.437 0.012,-0.161 0.018,-0.319 0.018,-0.473 v -2.87 h 1.365 v 3.059 c 0,0.821 -0.188,1.421 -0.564,1.799 -0.375,0.378 -0.953,0.567 -1.732,0.567 -0.78,0 -1.358,-0.189 -1.736,-0.567 -0.378,-0.378 -0.567,-0.978 -0.567,-1.799 v -3.059 z" />
      <path
   inkscape:connector-curvature="0"
   id="path3992"
   style="fill:#ffffff;fill-rule:nonzero"
   d="m 75.302,161.825 v -5.278 h 1.372 l 2.534,3.227 v -3.227 h 1.365 v 5.278 h -1.365 l -2.534,-3.227 v 3.227 z" />
      <path
   inkscape:connector-curvature="0"
   id="path3994"
   style="fill:#ffffff;fill-rule:nonzero"
   d="m 84.682,157.709 h -1.631 v 0.882 h 1.54 v 1.162 h -1.54 v 0.91 h 1.631 v 1.162 h -3.003 v -5.278 h 3.003 z" />
    </g><g
   id="g4000">
      <path
   inkscape:connector-curvature="0"
   style="fill:none;stroke:#cccccc;stroke-width:1.5px;stroke-linecap:round;stroke-miterlimit:4"
   d="m 61.633,208.298 c 5.878,-10.184 3.577,-23.245 -5.431,-30.804 -9.007,-7.555 -22.273,-7.555 -31.281,0 -9.007,7.559 -11.308,20.62 -5.43,30.804"
   id="path2146" />
      <circle
   style="fill:none;stroke:#cccccc;stroke-width:1px;stroke-miterlimit:4"
   r="3.7060001"
   cy="217.56599"
   cx="22.423"
   id="circle2149" />
      <circle
   style="fill:#cccccc;stroke:#cccccc;stroke-width:1px;stroke-miterlimit:4"
   r="3.7060001"
   cy="217.054"
   cx="60.202"
   id="circle2152" />
    </g><g
   id="g4005">
      <path
   inkscape:connector-curvature="0"
   style="fill:none;stroke:#cccccc;stroke-width:1.5px;stroke-linecap:round;stroke-linejoin:miter;stroke-miterlimit:4"
   d="m 43.968,91.944 c 4.233,-7.33 2.575,-16.732 -3.909,-22.173 -6.485,-5.441 -16.031,-5.441 -22.515,0 -6.485,5.441 -8.142,14.843 -3.91,22.173"
   id="path8216-1" />
      <circle
   style="fill:none;stroke:#cccccc;stroke-width:1px;stroke-linejoin:miter;stroke-miterlimit:4"
   r="2.6670001"
   cy="98.247002"
   cx="15.744"
   id="path9488-2-9" />
      <circle
   style="fill:#cccccc;stroke:#cccccc;stroke-width:1px;stroke-linejoin:miter;stroke-miterlimit:4"
   r="2.6670001"
   cy="98.247002"
   cx="42.939999"
   id="path9488-2-6-0" />
    </g><g
   id="g4010">
      <path
   inkscape:connector-curvature="0"
   style="fill:none;stroke:#cccccc;stroke-width:1.5px;stroke-linecap:round;stroke-linejoin:miter;stroke-miterlimit:4"
   d="m 136.195,91.944 c 4.232,-7.33 2.574,-16.732 -3.91,-22.173 -6.484,-5.441 -16.031,-5.441 -22.515,0 -6.485,5.441 -8.142,14.843 -3.91,22.173"
   serif:id="path8216-1"
   id="path8216-11" />
      <circle
   style="fill:none;stroke:#cccccc;stroke-width:1px;stroke-linejoin:miter;stroke-miterlimit:4"
   r="2.6670001"
   cy="98.247002"
   cx="107.97"
   serif:id="path9488-2-9"
   id="path9488-2-91" />
      <circle
   style="fill:#cccccc;stroke:#cccccc;stroke-width:1px;stroke-linejoin:miter;stroke-miterlimit:4"
   r="2.6670001"
   cy="98.247002"
   cx="135.166"
   serif:id="path9488-2-6-0"
   id="path9488-2-6-01" />
    </g><g
   id="g4015">
      <path
   inkscape:connector-curvature="0"
   style="fill:none;stroke:#cccccc;stroke-width:1.5px;stroke-linecap:round;stroke-linejoin:miter;stroke-miterlimit:4"
   d="m 142.167,148.642 c 4.233,-7.331 2.575,-16.732 -3.909,-22.173 -6.485,-5.441 -16.031,-5.441 -22.516,0 -6.484,5.441 -8.142,14.842 -3.909,22.173"
   serif:id="path8216-1"
   id="path8216-12" />
      <circle
   style="fill:none;stroke:#cccccc;stroke-width:1px;stroke-linejoin:miter;stroke-miterlimit:4"
   r="2.6670001"
   cy="154.944"
   cx="113.943"
   serif:id="path9488-2-9"
   id="path9488-2-92" />
      <circle
   style="fill:#cccccc;stroke:#cccccc;stroke-width:1px;stroke-linejoin:miter;stroke-miterlimit:4"
   r="2.6670001"
   cy="154.944"
   cx="141.13901"
   serif:id="path9488-2-6-0"
   id="path9488-2-6-02" />
    </g><g
   id="g4020">
      <path
   inkscape:connector-curvature="0"
   style="fill:none;stroke:#cccccc;stroke-width:1.5px;stroke-linecap:round;stroke-linejoin:miter;stroke-miterlimit:4"
   d="m 39.167,148.642 c 4.233,-7.331 2.575,-16.732 -3.909,-22.173 -6.485,-5.441 -16.031,-5.441 -22.516,0 -6.484,5.441 -8.142,14.842 -3.909,22.173"
   serif:id="path8216-1"
   id="path8216-13" />
      <circle
   style="fill:none;stroke:#cccccc;stroke-width:1px;stroke-linejoin:miter;stroke-miterlimit:4"
   r="2.6670001"
   cy="154.944"
   cx="10.943"
   serif:id="path9488-2-9"
   id="path9488-2-93" />
      <circle
   style="fill:#cccccc;stroke:#cccccc;stroke-width:1px;stroke-linejoin:miter;stroke-miterlimit:4"
   r="2.6670001"
   cy="154.944"
   cx="38.139"
   serif:id="path9488-2-6-0"
   id="path9488-2-6-03" />
    </g><g
   serif:id="text9293-4"
   id="text9293-415">
      <path
   inkscape:connector-curvature="0"
   id="path4022"
   style="fill:#ffffff;fill-rule:nonzero"
   d="m 81.268,347.174 c -0.17,-0.139 -0.341,-0.241 -0.512,-0.308 -0.171,-0.067 -0.336,-0.1 -0.496,-0.1 -0.203,0 -0.368,0.048 -0.496,0.144 -0.128,0.096 -0.192,0.221 -0.192,0.376 0,0.107 0.032,0.195 0.096,0.264 0.064,0.07 0.148,0.13 0.252,0.18 0.104,0.051 0.221,0.095 0.352,0.132 0.131,0.038 0.26,0.078 0.388,0.12 0.512,0.171 0.887,0.399 1.124,0.685 0.238,0.285 0.357,0.657 0.357,1.116 0,0.31 -0.052,0.59 -0.156,0.84 -0.104,0.251 -0.257,0.466 -0.457,0.645 -0.2,0.178 -0.445,0.317 -0.736,0.416 -0.291,0.099 -0.62,0.148 -0.988,0.148 -0.763,0 -1.47,-0.227 -2.121,-0.68 l 0.672,-1.265 c 0.235,0.208 0.467,0.363 0.696,0.464 0.23,0.102 0.457,0.152 0.681,0.152 0.256,0 0.446,-0.058 0.572,-0.176 0.125,-0.117 0.188,-0.25 0.188,-0.4 0,-0.091 -0.016,-0.169 -0.048,-0.236 -0.032,-0.067 -0.085,-0.128 -0.16,-0.184 -0.075,-0.056 -0.172,-0.108 -0.292,-0.156 -0.12,-0.048 -0.266,-0.101 -0.436,-0.16 -0.203,-0.064 -0.402,-0.135 -0.597,-0.212 -0.194,-0.078 -0.368,-0.18 -0.52,-0.308 -0.152,-0.128 -0.275,-0.29 -0.368,-0.485 -0.093,-0.194 -0.14,-0.441 -0.14,-0.74 0,-0.299 0.049,-0.569 0.148,-0.812 0.099,-0.243 0.237,-0.451 0.416,-0.624 0.179,-0.174 0.398,-0.309 0.656,-0.405 0.259,-0.096 0.549,-0.144 0.869,-0.144 0.299,0 0.611,0.042 0.936,0.124 0.326,0.083 0.638,0.204 0.937,0.364 z" />
      <path
   inkscape:connector-curvature="0"
   id="path4024"
   style="fill:#ffffff;fill-rule:nonzero"
   d="m 85.454,346.958 v 4.706 h -1.569 v -4.706 h -1.288 v -1.329 h 4.146 v 1.329 z" />
      <path
   inkscape:connector-curvature="0"
   id="path4026"
   style="fill:#ffffff;fill-rule:nonzero"
   d="m 89.007,348.326 h 0.297 c 0.309,0 0.547,-0.064 0.712,-0.192 0.165,-0.128 0.248,-0.312 0.248,-0.552 0,-0.24 -0.083,-0.424 -0.248,-0.552 -0.165,-0.128 -0.403,-0.192 -0.712,-0.192 h -0.297 z m 3.45,3.338 h -1.953 l -1.497,-2.321 v 2.321 h -1.568 v -6.035 h 2.441 c 0.336,0 0.629,0.05 0.88,0.148 0.251,0.099 0.458,0.234 0.62,0.405 0.163,0.17 0.286,0.368 0.369,0.592 0.082,0.224 0.124,0.464 0.124,0.72 0,0.459 -0.111,0.831 -0.332,1.117 -0.222,0.285 -0.549,0.478 -0.981,0.58 z" />
      <path
   inkscape:connector-curvature="0"
   id="path4028"
   style="fill:#ffffff;fill-rule:nonzero"
   d="m 96.547,346.958 h -1.865 v 1.008 h 1.761 v 1.329 h -1.761 v 1.04 h 1.865 v 1.329 h -3.434 v -6.035 h 3.434 z" />
      <path
   inkscape:connector-curvature="0"
   id="path4030"
   style="fill:#ffffff;fill-rule:nonzero"
   d="m 100.988,347.174 c -0.17,-0.139 -0.341,-0.241 -0.512,-0.308 -0.17,-0.067 -0.336,-0.1 -0.496,-0.1 -0.203,0 -0.368,0.048 -0.496,0.144 -0.128,0.096 -0.192,0.221 -0.192,0.376 0,0.107 0.032,0.195 0.096,0.264 0.064,0.07 0.148,0.13 0.252,0.18 0.104,0.051 0.221,0.095 0.352,0.132 0.131,0.038 0.26,0.078 0.388,0.12 0.512,0.171 0.887,0.399 1.125,0.685 0.237,0.285 0.356,0.657 0.356,1.116 0,0.31 -0.052,0.59 -0.156,0.84 -0.104,0.251 -0.256,0.466 -0.456,0.645 -0.201,0.178 -0.446,0.317 -0.737,0.416 -0.291,0.099 -0.62,0.148 -0.988,0.148 -0.763,0 -1.47,-0.227 -2.121,-0.68 l 0.672,-1.265 c 0.235,0.208 0.467,0.363 0.697,0.464 0.229,0.102 0.456,0.152 0.68,0.152 0.256,0 0.447,-0.058 0.572,-0.176 0.125,-0.117 0.188,-0.25 0.188,-0.4 0,-0.091 -0.016,-0.169 -0.048,-0.236 -0.032,-0.067 -0.085,-0.128 -0.16,-0.184 -0.075,-0.056 -0.172,-0.108 -0.292,-0.156 -0.12,-0.048 -0.266,-0.101 -0.436,-0.16 -0.203,-0.064 -0.402,-0.135 -0.596,-0.212 -0.195,-0.078 -0.369,-0.18 -0.521,-0.308 -0.152,-0.128 -0.274,-0.29 -0.368,-0.485 -0.093,-0.194 -0.14,-0.441 -0.14,-0.74 0,-0.299 0.049,-0.569 0.148,-0.812 0.099,-0.243 0.238,-0.451 0.416,-0.624 0.179,-0.174 0.398,-0.309 0.657,-0.405 0.258,-0.096 0.548,-0.144 0.868,-0.144 0.299,0 0.611,0.042 0.936,0.124 0.326,0.083 0.638,0.204 0.937,0.364 z" />
      <path
   inkscape:connector-curvature="0"
   id="path4032"
   style="fill:#ffffff;fill-rule:nonzero"
   d="m 106.159,347.174 c -0.171,-0.139 -0.342,-0.241 -0.513,-0.308 -0.17,-0.067 -0.336,-0.1 -0.496,-0.1 -0.203,0 -0.368,0.048 -0.496,0.144 -0.128,0.096 -0.192,0.221 -0.192,0.376 0,0.107 0.032,0.195 0.096,0.264 0.064,0.07 0.148,0.13 0.252,0.18 0.104,0.051 0.221,0.095 0.352,0.132 0.131,0.038 0.26,0.078 0.388,0.12 0.513,0.171 0.887,0.399 1.125,0.685 0.237,0.285 0.356,0.657 0.356,1.116 0,0.31 -0.052,0.59 -0.156,0.84 -0.104,0.251 -0.256,0.466 -0.456,0.645 -0.2,0.178 -0.446,0.317 -0.737,0.416 -0.29,0.099 -0.62,0.148 -0.988,0.148 -0.763,0 -1.47,-0.227 -2.121,-0.68 l 0.672,-1.265 c 0.235,0.208 0.467,0.363 0.697,0.464 0.229,0.102 0.456,0.152 0.68,0.152 0.256,0 0.447,-0.058 0.572,-0.176 0.126,-0.117 0.188,-0.25 0.188,-0.4 0,-0.091 -0.016,-0.169 -0.048,-0.236 -0.032,-0.067 -0.085,-0.128 -0.16,-0.184 -0.074,-0.056 -0.172,-0.108 -0.292,-0.156 -0.12,-0.048 -0.265,-0.101 -0.436,-0.16 -0.203,-0.064 -0.402,-0.135 -0.596,-0.212 -0.195,-0.078 -0.369,-0.18 -0.521,-0.308 -0.152,-0.128 -0.274,-0.29 -0.368,-0.485 -0.093,-0.194 -0.14,-0.441 -0.14,-0.74 0,-0.299 0.05,-0.569 0.148,-0.812 0.099,-0.243 0.238,-0.451 0.416,-0.624 0.179,-0.174 0.398,-0.309 0.657,-0.405 0.259,-0.096 0.548,-0.144 0.868,-0.144 0.299,0 0.611,0.042 0.936,0.124 0.326,0.083 0.638,0.204 0.937,0.364 z" />
    </g><path
   inkscape:connector-curvature="0"
   style="fill:none;stroke:#cccccc;stroke-width:1.5px;stroke-linecap:round;stroke-miterlimit:4"
   d="m 96.143,143.292 c 5.718,-9.906 3.479,-22.611 -5.286,-29.963 -8.762,-7.353 -21.661,-7.353 -30.422,0 -8.762,7.352 -11.004,20.057 -5.282,29.963"
   id="path18018" /><path
   inkscape:connector-curvature="0"
   style="fill:#cccccc;fill-rule:nonzero;stroke:#cccccc;stroke-width:1.5px;stroke-linecap:round;stroke-miterlimit:4"
   d="M 95.368,145.783 95.419,155"
   id="path9630" /><path
   inkscape:connector-curvature="0"
   style="fill:#cccccc;fill-rule:nonzero;stroke:#cccccc;stroke-width:1.5px;stroke-linecap:round;stroke-miterlimit:4"
   d="m 100,150.325 -9.213,0.043"
   id="path9630-1" /><path
   inkscape:connector-curvature="0"
   style="fill:#cccccc;fill-rule:nonzero;stroke:#cccccc;stroke-width:1.5px;stroke-linecap:round;stroke-miterlimit:4"
   d="m 61.738,150.065 -9.213,0.042"
   id="path9630-1-6" /><path
   inkscape:connector-curvature="0"
   style="fill:none;stroke:#cccccc;stroke-width:1.5px;stroke-linecap:round;stroke-miterlimit:4"
   d="M 75.646,131.463 75.599,105.116"
   id="path9948" /><g
   serif:id="text9293-4"
   id="text9293-416">
      <path
   inkscape:connector-curvature="0"
   id="path4040"
   style="fill:#ffffff;fill-rule:nonzero"
   d="m 70.019,88.076 -0.001,4.116 h -1.371 l -0.001,-4.116 h -1.127 v -1.162 h 3.626 v 1.162 h -1.127 z" />
      <rect
   id="rect4042"
   style="fill:#ffffff;fill-rule:nonzero"
   height="5.2779999"
   width="1.372"
   y="86.914001"
   x="71.753998" />
      <path
   inkscape:connector-curvature="0"
   id="path4044"
   style="fill:#ffffff;fill-rule:nonzero"
   d="m 73.995,92.192 0.895,-5.278 h 1.358 l 1.057,2.814 1.05,-2.814 h 1.358 l 0.896,5.278 h -1.365 l -0.455,-3.038 -1.246,3.038 h -0.546 l -1.183,-3.038 -0.455,3.038 h -1.365 z" />
      <path
   inkscape:connector-curvature="0"
   id="path4046"
   style="fill:#ffffff;fill-rule:nonzero"
   d="m 84.481,88.076 h -1.632 l 10e-4,0.882 h 1.539 v 1.162 h -1.54 l 10e-4,0.91 h 1.63 l 10e-4,1.162 h -3.004 v -5.278 h 3.004 l -10e-4,1.162 z" />
    </g><g
   id="g4052">
      <path
   inkscape:connector-curvature="0"
   style="fill:none;stroke:#cccccc;stroke-width:1.5px;stroke-linecap:round;stroke-linejoin:miter;stroke-miterlimit:4"
   d="m 91.195,77.944 c 4.232,-7.33 2.574,-16.732 -3.91,-22.173 -6.484,-5.441 -16.031,-5.441 -22.515,0 -6.485,5.441 -8.142,14.843 -3.91,22.173"
   serif:id="path8216-1"
   id="path8216-14" />
      <circle
   style="fill:none;stroke:#cccccc;stroke-width:1px;stroke-linejoin:miter;stroke-miterlimit:4"
   r="2.6670001"
   cy="84.247002"
   cx="62.970001"
   serif:id="path9488-2-9"
   id="path9488-2-94" />
      <circle
   style="fill:#cccccc;stroke:#cccccc;stroke-width:1px;stroke-linejoin:miter;stroke-miterlimit:4"
   r="2.6670001"
   cy="84.247002"
   cx="90.166"
   serif:id="path9488-2-6-0"
   id="path9488-2-6-04" />
    </g>
</svg>