<svg xmlns:dc="http://purl.org/dc/elements/1.1/" xmlns:cc="http://creativecommons.org/ns#" xmlns:rdf="http://www.w3.org/1999/02/22-rdf-syntax-ns#" xmlns:svg="http://www.w3.org/2000/svg" xmlns="http://www.w3.org/2000/svg" xmlns:sodipodi="http://sodipodi.sourceforge.net/DTD/sodipodi-0.dtd" xmlns:inkscape="http://www.inkscape.org/namespaces/inkscape" width="13px" height="25px" version="1.1" xml:space="preserve" style="fill-rule:evenodd;clip-rule:evenodd;stroke-linecap:round;stroke-linejoin:round;stroke-miterlimit:1.5;" id="svg943" sodipodi:docname="Select2_A.svg" inkscape:version="0.92.3 (2405546, 2018-03-11)">
  <defs id="defs947"/>
  <metadata id="metadata949">
    <rdf:RDF>
      <cc:Work rdf:about="">
        <dc:format>image/svg+xml</dc:format>
        <dc:type rdf:resource="http://purl.org/dc/dcmitype/StillImage"/>
      </cc:Work>
    </rdf:RDF>
  </metadata>
  <sodipodi:namedview pagecolor="#ffffff" bordercolor="#666666" borderopacity="1" objecttolerance="10" gridtolerance="10" guidetolerance="10" inkscape:pageopacity="0" inkscape:pageshadow="2" inkscape:window-width="1920" inkscape:window-height="1018" id="namedview945" showgrid="false" inkscape:zoom="16.98" inkscape:cx="4.7544172" inkscape:cy="12.605165" inkscape:window-x="-8" inkscape:window-y="-8" inkscape:window-maximized="1" inkscape:current-layer="svg943"/>
  <path style="clip-rule:evenodd;fill:#c8c8c8;fill-opacity:1;fill-rule:evenodd;stroke:none;stroke-width:1px;stroke-linecap:butt;stroke-linejoin:miter;stroke-miterlimit:1.5;stroke-opacity:1" d="M 0.67367153,25.003833 2.993984,22.581561 h 6.953125 l 2.394532,2.422272 z" id="path1066" inkscape:connector-curvature="0"/>
  <path style="clip-rule:evenodd;fill:#5a5a5a;fill-opacity:1;fill-rule:evenodd;stroke:none;stroke-width:1px;stroke-linecap:butt;stroke-linejoin:miter;stroke-miterlimit:1.5;stroke-opacity:1" d="M 0.66075637,0.6315116 2.9810689,3.1048636 2.993984,22.581561 0.67367152,25.003833 Z" id="path1060" inkscape:connector-curvature="0" sodipodi:nodetypes="ccccc"/>
  <path style="clip-rule:evenodd;fill:#5a5a5a;fill-opacity:1;fill-rule:evenodd;stroke:none;stroke-width:1px;stroke-linecap:butt;stroke-linejoin:miter;stroke-miterlimit:1.5;stroke-opacity:1" d="M 9.934194,3.1048636 12.328725,0.6315116 12.34164,25.003833 9.947109,22.581561 Z" id="path1064" inkscape:connector-curvature="0" sodipodi:nodetypes="ccccc"/>
  <path style="clip-rule:evenodd;fill:#1e1e1e;fill-opacity:1;fill-rule:evenodd;stroke:none;stroke-width:1px;stroke-linecap:butt;stroke-linejoin:miter;stroke-miterlimit:1.5;stroke-opacity:1" d="M 0.66075637,0.6315116 H 12.328725 L 9.934194,3.1048636 H 2.9810689 Z" id="path1062" inkscape:connector-curvature="0"/>
  <g id="g889" transform="matrix(0.5,0,0,0.39622654,-0.981232,-8.3018959)">
    <path inkscape:connector-curvature="0" id="path887" style="fill:#141414" d="M 24,30.165 C 24,27.866 22.521,26 20.7,26 H 9.3 C 7.479,26 6,27.866 6,30.165 v 44.67 C 6,77.134 7.479,79 9.3,79 h 11.4 c 1.821,0 3.3,-1.866 3.3,-4.165 z"/>
  </g>
  <g transform="matrix(1,0,0,1,0,-11)" id="g941">
    <g transform="matrix(0.447299,0,0,0.447222,-0.19093,11.7503)" id="g895">
      <path d="M27,4.213c0,-1.221 -0.992,-2.213 -2.213,-2.213l-19.574,0c-1.221,0 -2.213,0.992 -2.213,2.213l0,19.574c0,1.221 0.992,2.213 2.213,2.213l19.574,0c1.221,0 2.213,-0.992 2.213,-2.213l0,-19.574Z" style="fill:rgb(51,51,51);stroke:black;stroke-width:1.57px;" id="path893"/>
    </g>
    <g transform="matrix(0.424676,0,0,0.419544,0.158984,12.1324)" id="g899">
      <path d="M27,4.213c0,-1.221 -0.98,-2.213 -2.187,-2.213l-19.626,0c-1.207,0 -2.187,0.992 -2.187,2.213l0,19.574c0,1.221 0.98,2.213 2.187,2.213l19.626,0c1.207,0 2.187,-0.992 2.187,-2.213l0,-19.574Z" style="fill:none;stroke:rgb(115,115,115);stroke-width:0.71px;" id="path897"/>
    </g>
    <g transform="matrix(0.473836,0,0,0.474124,-0.590973,11.3909)" id="g903">
      <path d="M27,4.212c0,-1.221 -0.992,-2.212 -2.213,-2.212l-19.574,0c-1.221,0 -2.213,0.991 -2.213,2.212l0,19.576c0,1.221 0.992,2.212 2.213,2.212l19.574,0c1.221,0 2.213,-0.991 2.213,-2.212l0,-19.576Z" style="fill:none;stroke:rgb(204,204,204);stroke-width:0.63px;" id="path901"/>
    </g>
    <g transform="matrix(0.411186,0,0,0.0177872,0.332216,13.7501)" id="g907">
      <path d="M27,9.104c0,-3.921 -0.138,-7.104 -0.307,-7.104l-23.386,0c-0.169,0 -0.307,3.183 -0.307,7.104l0,9.792c0,3.921 0.138,7.104 0.307,7.104l23.386,0c0.169,0 0.307,-3.183 0.307,-7.104l0,-9.792Z" style="fill:rgb(1,1,1);" id="path905"/>
    </g>
    <g transform="matrix(0.411186,0,0,0.0177872,0.332216,21.9831)" id="g911">
      <path d="M27,9.104c0,-3.921 -0.138,-7.104 -0.307,-7.104l-23.386,0c-0.169,0 -0.307,3.183 -0.307,7.104l0,9.792c0,3.921 0.138,7.104 0.307,7.104l23.386,0c0.169,0 0.307,-3.183 0.307,-7.104l0,-9.792Z" style="fill:rgb(1,1,1);" id="path909"/>
    </g>
    <g transform="matrix(0.411186,0,0,0.0177872,0.332216,20.6109)" id="g915">
      <path d="M27,9.104c0,-3.921 -0.138,-7.104 -0.307,-7.104l-23.386,0c-0.169,0 -0.307,3.183 -0.307,7.104l0,9.792c0,3.921 0.138,7.104 0.307,7.104l23.386,0c0.169,0 0.307,-3.183 0.307,-7.104l0,-9.792Z" style="fill:rgb(1,1,1);" id="path913"/>
    </g>
    <g transform="matrix(0.411186,0,0,0.0177872,0.332216,19.2388)" id="g919">
      <path d="M27,9.104c0,-3.921 -0.138,-7.104 -0.307,-7.104l-23.386,0c-0.169,0 -0.307,3.183 -0.307,7.104l0,9.792c0,3.921 0.138,7.104 0.307,7.104l23.386,0c0.169,0 0.307,-3.183 0.307,-7.104l0,-9.792Z" style="fill:rgb(1,1,1);" id="path917"/>
    </g>
    <g transform="matrix(0.411186,0,0,0.0177872,0.332216,17.8666)" id="g923">
      <path d="M27,9.104c0,-3.921 -0.138,-7.104 -0.307,-7.104l-23.386,0c-0.169,0 -0.307,3.183 -0.307,7.104l0,9.792c0,3.921 0.138,7.104 0.307,7.104l23.386,0c0.169,0 0.307,-3.183 0.307,-7.104l0,-9.792Z" style="fill:rgb(1,1,1);" id="path921"/>
    </g>
    <g transform="matrix(0.411186,0,0,0.0177872,0.332216,16.4944)" id="g927">
      <path d="M27,9.104c0,-3.921 -0.138,-7.104 -0.307,-7.104l-23.386,0c-0.169,0 -0.307,3.183 -0.307,7.104l0,9.792c0,3.921 0.138,7.104 0.307,7.104l23.386,0c0.169,0 0.307,-3.183 0.307,-7.104l0,-9.792Z" style="fill:rgb(1,1,1);" id="path925"/>
    </g>
    <g transform="matrix(0.411186,0,0,0.0177872,0.332216,15.1223)" id="g931">
      <path d="M27,9.104c0,-3.921 -0.138,-7.104 -0.307,-7.104l-23.386,0c-0.169,0 -0.307,3.183 -0.307,7.104l0,9.792c0,3.921 0.138,7.104 0.307,7.104l23.386,0c0.169,0 0.307,-3.183 0.307,-7.104l0,-9.792Z" style="fill:rgb(1,1,1);" id="path929"/>
    </g>
    <g transform="matrix(0.201407,0,0,0.155507,3.37008,15.7352)" id="g935">
      <path d="M27,4.213c0,-1.221 -0.766,-2.213 -1.709,-2.213l-20.582,0c-0.943,0 -1.709,0.992 -1.709,2.213l0,19.574c0,1.221 0.766,2.213 1.709,2.213l20.582,0c0.943,0 1.709,-0.992 1.709,-2.213l0,-19.574Z" style="fill:none;stroke:rgb(128,128,128);stroke-width:1.67px;" id="path933"/>
    </g>
    <g transform="matrix(1,0,0,1,-229.581,-117.534)" id="g939">
      <rect x="234" y="134" width="4" height="2.808" style="fill:white;stroke:black;stroke-width:0.7px;" id="rect937"/>
    </g>
  </g>
</svg>