<?xml version="1.0" encoding="UTF-8" standalone="no"?>
<svg
   xmlns:dc="http://purl.org/dc/elements/1.1/"
   xmlns:cc="http://creativecommons.org/ns#"
   xmlns:rdf="http://www.w3.org/1999/02/22-rdf-syntax-ns#"
   xmlns:svg="http://www.w3.org/2000/svg"
   xmlns="http://www.w3.org/2000/svg"
   xmlns:sodipodi="http://sodipodi.sourceforge.net/DTD/sodipodi-0.dtd"
   xmlns:inkscape="http://www.inkscape.org/namespaces/inkscape"
   width="150px"
   height="380px"
   version="1.1"
   xml:space="preserve"
   style="fill-rule:evenodd;clip-rule:evenodd;"
   id="svg34659"
   sodipodi:docname="Freak.svg"
   inkscape:version="0.92.3 (2405546, 2018-03-11)"><metadata
   id="metadata34663"><rdf:RDF><cc:Work
       rdf:about=""><dc:format>image/svg+xml</dc:format><dc:type
         rdf:resource="http://purl.org/dc/dcmitype/StillImage" /><dc:title></dc:title></cc:Work></rdf:RDF></metadata><sodipodi:namedview
   pagecolor="#ffffff"
   bordercolor="#666666"
   borderopacity="1"
   objecttolerance="10"
   gridtolerance="10"
   guidetolerance="10"
   inkscape:pageopacity="0"
   inkscape:pageshadow="2"
   inkscape:window-width="1920"
   inkscape:window-height="1017"
   id="namedview34661"
   showgrid="false"
   inkscape:zoom="2.2105263"
   inkscape:cx="75"
   inkscape:cy="190"
   inkscape:window-x="1912"
   inkscape:window-y="-8"
   inkscape:window-maximized="1"
   inkscape:current-layer="svg34659" />
  <defs
   id="defs34473">
    <linearGradient
   id="_Linear1"
   x1="0"
   y1="0"
   x2="1"
   y2="0"
   gradientUnits="userSpaceOnUse"
   gradientTransform="matrix(150,-379.998,379.998,150,3.28145e-4,379.998)">
      <stop
   offset="0"
   style="stop-color:#1e0000;stop-opacity:1"
   id="stop34468" />
      <stop
   offset="1"
   style="stop-color:#2b0000;stop-opacity:1"
   id="stop34470" />
    </linearGradient>
  
    
    
    
    
    
    
    
    
    
    
    
    
    
    
    
    
    
    
    
    
    
    
    
    
    
    
    
    
    
    
    
    
    
    
    
    
    
    
    
    
    
    
    
    
    
    
    
    
    
    
    
    
    
    
    
    
    
    
    
    
    
    
    
    
    
    
    
    
    
    
    
    
    
    
    
    
    
    
    
    
    
    
    
    
    
    
    
    
    
    
    
    
    
    
    
    
    
    
    
    
    
    
    
    
    
    
    
    
    
    
    
    
    
    
    
    
    
    
    
    
    
    
    
    
    
    
    
    
    
    
    
    
    
    
    
    
    
    
    
    
    
    
    
  </defs>
  <rect
   style="fill:#1a1a1a"
   height="380"
   width="150"
   y="0"
   x="0"
   id="rect9931" /><rect
   style="fill:url(#_Linear1)"
   height="379.99799"
   width="150"
   y="0"
   x="0"
   id="rect7406" /><path
   inkscape:connector-curvature="0"
   style="fill:#593725;stroke:#8d573b;stroke-width:1px"
   d="M 10.814,58 C 6.225,58 2.5,61.725 2.5,66.314 v 45.254 c 0,4.59 3.725,8.317 8.314,8.317 h 16.372 c 4.589,0 8.314,-3.727 8.314,-8.317 V 91.207 c 0.1,0.025 0.205,0.041 0.313,0.041 H 114.5 v 20.32 c 0,4.59 3.725,8.317 8.314,8.317 h 16.372 c 4.589,0 8.314,-3.727 8.314,-8.317 V 66.314 C 147.5,61.725 143.775,58 139.186,58 h -16.372 c -4.589,0 -8.314,3.725 -8.314,8.314 V 86.041 H 35.813 c -0.108,0 -0.213,0.016 -0.313,0.041 V 66.314 C 35.5,61.725 31.775,58 27.186,58 Z"
   id="path7409" /><path
   inkscape:connector-curvature="0"
   style="fill:#253459;stroke:#3b538d;stroke-width:1px"
   d="m 33.76,170.439 c -0.696,0 -1.26,0.565 -1.26,1.26 v 20.545 H 9.385 c -4.076,0 -7.385,3.31 -7.385,7.385 v 14.767 c 0,4.076 3.309,7.385 7.385,7.385 h 53.23 c 4.076,0 7.385,-3.309 7.385,-7.385 v -14.767 c 0,-4.075 -3.309,-7.385 -7.385,-7.385 H 37.5 v -20.545 c 0,-0.695 -0.564,-1.26 -1.26,-1.26 z"
   id="path7423" /><path
   inkscape:connector-curvature="0"
   style="fill:#255939;stroke:#3b8d5a;stroke-width:1px"
   d="m 111.76,170.439 c -0.696,0 -1.26,0.565 -1.26,1.26 v 20.545 H 87.385 c -4.076,0 -7.385,3.31 -7.385,7.385 v 14.767 c 0,4.076 3.309,7.385 7.385,7.385 h 53.23 c 4.076,0 7.385,-3.309 7.385,-7.385 v -14.767 c 0,-4.075 -3.309,-7.385 -7.385,-7.385 H 115.5 v -20.545 c 0,-0.695 -0.564,-1.26 -1.26,-1.26 z"
   id="path7433" /><path
   inkscape:connector-curvature="0"
   style="fill:#ffffff;fill-rule:nonzero"
   d="m 64.683,120.163 c -0.364,-0.444 -0.812,-0.664 -1.345,-0.664 -0.236,0 -0.452,0.044 -0.652,0.128 -0.2,0.084 -0.372,0.2 -0.516,0.348 -0.144,0.148 -0.256,0.32 -0.34,0.524 -0.084,0.204 -0.124,0.42 -0.124,0.657 0,0.24 0.04,0.46 0.124,0.664 0.084,0.204 0.196,0.38 0.344,0.528 0.148,0.148 0.32,0.268 0.516,0.352 0.196,0.084 0.412,0.128 0.64,0.128 0.501,0 0.953,-0.212 1.353,-0.64 v 1.857 l -0.16,0.056 c -0.24,0.084 -0.464,0.148 -0.672,0.188 -0.209,0.04 -0.413,0.06 -0.617,0.06 -0.416,0 -0.816,-0.08 -1.196,-0.236 -0.38,-0.156 -0.717,-0.38 -1.009,-0.665 -0.292,-0.284 -0.524,-0.624 -0.7,-1.016 -0.176,-0.392 -0.264,-0.82 -0.264,-1.284 0,-0.465 0.088,-0.889 0.26,-1.277 0.172,-0.388 0.404,-0.72 0.696,-1 0.292,-0.281 0.629,-0.501 1.013,-0.657 0.384,-0.156 0.788,-0.236 1.208,-0.236 0.24,0 0.476,0.024 0.709,0.076 0.232,0.052 0.476,0.128 0.732,0.236 z"
   id="path7443" /><path
   inkscape:connector-curvature="0"
   style="fill:#ffffff;fill-rule:nonzero"
   d="m 67.244,118.146 v 3.282 c 0,0.176 0.008,0.356 0.02,0.54 0.012,0.184 0.052,0.352 0.12,0.5 0.068,0.148 0.172,0.272 0.316,0.364 0.144,0.092 0.348,0.14 0.608,0.14 0.26,0 0.465,-0.048 0.605,-0.14 0.14,-0.092 0.248,-0.216 0.316,-0.364 0.068,-0.148 0.112,-0.316 0.124,-0.5 0.012,-0.184 0.02,-0.364 0.02,-0.54 v -3.282 h 1.56 v 3.498 c 0,0.94 -0.216,1.624 -0.644,2.057 -0.428,0.432 -1.088,0.648 -1.981,0.648 -0.892,0 -1.552,-0.216 -1.984,-0.648 -0.433,-0.433 -0.649,-1.117 -0.649,-2.057 v -3.498 z"
   id="path7445" /><path
   inkscape:connector-curvature="0"
   style="fill:#ffffff;fill-rule:nonzero"
   d="m 74.487,119.475 v 4.706 h -1.569 v -4.706 H 71.63 v -1.329 h 4.145 v 1.329 z"
   id="path7447" /><path
   inkscape:connector-curvature="0"
   style="fill:#ffffff;fill-rule:nonzero"
   d="m 77.784,121.164 c 0,0.24 0.044,0.46 0.136,0.664 0.092,0.204 0.212,0.38 0.369,0.528 0.156,0.148 0.336,0.264 0.54,0.348 0.204,0.084 0.424,0.124 0.652,0.124 0.228,0 0.448,-0.04 0.652,-0.124 0.204,-0.084 0.388,-0.2 0.545,-0.348 0.156,-0.148 0.28,-0.324 0.372,-0.528 0.092,-0.204 0.136,-0.424 0.136,-0.664 0,-0.241 -0.044,-0.461 -0.136,-0.665 -0.092,-0.204 -0.216,-0.38 -0.372,-0.528 -0.157,-0.148 -0.341,-0.264 -0.545,-0.348 -0.204,-0.084 -0.424,-0.124 -0.652,-0.124 -0.228,0 -0.448,0.04 -0.652,0.124 -0.204,0.084 -0.384,0.2 -0.54,0.348 -0.157,0.148 -0.277,0.324 -0.369,0.528 -0.092,0.204 -0.136,0.424 -0.136,0.665 z m -1.64,0 c 0,-0.449 0.084,-0.865 0.248,-1.253 0.164,-0.388 0.396,-0.724 0.688,-1.012 0.292,-0.289 0.644,-0.513 1.052,-0.677 0.409,-0.164 0.857,-0.244 1.349,-0.244 0.484,0 0.932,0.08 1.345,0.244 0.412,0.164 0.764,0.388 1.06,0.677 0.296,0.288 0.528,0.624 0.692,1.012 0.164,0.388 0.248,0.804 0.248,1.253 0,0.448 -0.084,0.864 -0.248,1.252 -0.164,0.388 -0.396,0.724 -0.692,1.012 -0.296,0.289 -0.648,0.513 -1.06,0.677 -0.413,0.164 -0.861,0.244 -1.345,0.244 -0.492,0 -0.94,-0.08 -1.349,-0.244 -0.408,-0.164 -0.76,-0.388 -1.052,-0.677 -0.292,-0.288 -0.524,-0.624 -0.688,-1.012 -0.164,-0.388 -0.248,-0.804 -0.248,-1.252 z"
   id="path7449" /><path
   inkscape:connector-curvature="0"
   style="fill:#ffffff;fill-rule:nonzero"
   d="m 87.276,119.475 h -1.889 v 1.008 h 1.721 v 1.329 h -1.721 v 2.369 h -1.568 v -6.035 h 3.457 z"
   id="path7451" /><path
   inkscape:connector-curvature="0"
   style="fill:#ffffff;fill-rule:nonzero"
   d="m 91.67,119.475 h -1.889 v 1.008 h 1.721 v 1.329 h -1.721 v 2.369 h -1.568 v -6.035 h 3.457 z"
   id="path7453" /><path
   inkscape:connector-curvature="0"
   style="fill:none;stroke:#cccccc;stroke-width:1.5px;stroke-linecap:round"
   d="M 104.739,101.173 C 112.96,86.93 109.742,68.664 97.144,58.092 84.547,47.526 65.995,47.526 53.397,58.092 40.8,68.664 37.582,86.93 45.803,101.173"
   id="path7458" /><circle
   style="fill:none;stroke:#cccccc;stroke-width:1px"
   r="3.7060001"
   cy="110.44"
   cx="46.173"
   id="circle7461" /><circle
   style="fill:#cccccc;stroke:#cccccc;stroke-width:1px"
   r="3.7060001"
   cy="109.928"
   cx="104.952"
   id="circle7464" /><path
   inkscape:connector-curvature="0"
   style="fill:#ffffff;fill-rule:nonzero"
   d="m 10.66,186.739 h 0.296 c 0.308,0 0.548,-0.064 0.712,-0.192 0.164,-0.128 0.248,-0.312 0.248,-0.552 0,-0.24 -0.084,-0.424 -0.248,-0.552 -0.164,-0.128 -0.404,-0.192 -0.712,-0.192 H 10.66 Z m 3.449,3.338 h -1.953 l -1.496,-2.321 v 2.321 H 9.091 v -6.035 h 2.441 c 0.336,0 0.628,0.048 0.881,0.148 0.252,0.1 0.456,0.232 0.62,0.405 0.164,0.172 0.284,0.368 0.368,0.592 0.084,0.224 0.124,0.464 0.124,0.72 0,0.46 -0.112,0.832 -0.332,1.117 -0.22,0.284 -0.548,0.48 -0.981,0.58 z"
   id="path7467" /><path
   inkscape:connector-curvature="0"
   style="fill:#ffffff;fill-rule:nonzero"
   d="m 18.199,185.371 h -1.865 v 1.008 h 1.761 v 1.329 h -1.761 v 1.04 h 1.865 v 1.329 h -3.433 v -6.035 h 3.433 z"
   id="path7469" /><path
   inkscape:connector-curvature="0"
   style="fill:#ffffff;fill-rule:nonzero"
   d="m 22.641,185.587 c -0.172,-0.14 -0.34,-0.24 -0.512,-0.308 -0.173,-0.068 -0.337,-0.1 -0.497,-0.1 -0.204,0 -0.368,0.048 -0.496,0.144 -0.128,0.096 -0.192,0.22 -0.192,0.376 0,0.108 0.032,0.196 0.096,0.264 0.064,0.068 0.148,0.128 0.252,0.18 0.104,0.052 0.22,0.096 0.352,0.132 0.132,0.036 0.26,0.076 0.389,0.12 0.512,0.172 0.888,0.4 1.124,0.685 0.236,0.284 0.356,0.656 0.356,1.116 0,0.308 -0.052,0.588 -0.156,0.84 -0.104,0.252 -0.256,0.465 -0.456,0.645 -0.2,0.18 -0.444,0.316 -0.736,0.416 -0.293,0.1 -0.621,0.148 -0.989,0.148 -0.764,0 -1.468,-0.228 -2.121,-0.68 l 0.673,-1.265 c 0.236,0.208 0.468,0.364 0.696,0.464 0.228,0.1 0.456,0.152 0.68,0.152 0.256,0 0.448,-0.06 0.572,-0.176 0.124,-0.116 0.188,-0.252 0.188,-0.4 0,-0.092 -0.016,-0.168 -0.048,-0.236 -0.032,-0.068 -0.084,-0.128 -0.16,-0.184 -0.076,-0.056 -0.172,-0.108 -0.292,-0.156 -0.12,-0.048 -0.264,-0.1 -0.436,-0.16 -0.204,-0.064 -0.4,-0.136 -0.596,-0.212 -0.196,-0.076 -0.368,-0.18 -0.52,-0.308 -0.152,-0.128 -0.277,-0.289 -0.369,-0.485 -0.092,-0.196 -0.14,-0.44 -0.14,-0.74 0,-0.3 0.048,-0.568 0.148,-0.812 0.101,-0.244 0.237,-0.452 0.417,-0.625 0.18,-0.172 0.396,-0.308 0.656,-0.404 0.26,-0.096 0.548,-0.144 0.868,-0.144 0.3,0 0.613,0.04 0.937,0.124 0.324,0.084 0.636,0.204 0.936,0.364 z"
   id="path7471" /><path
   inkscape:connector-curvature="0"
   style="fill:#ffffff;fill-rule:nonzero"
   d="m 25.866,187.06 c 0,0.24 0.044,0.46 0.136,0.664 0.092,0.204 0.212,0.38 0.368,0.528 0.156,0.148 0.336,0.264 0.541,0.348 0.204,0.084 0.424,0.124 0.652,0.124 0.228,0 0.448,-0.04 0.652,-0.124 0.204,-0.084 0.388,-0.2 0.544,-0.348 0.156,-0.148 0.28,-0.324 0.372,-0.528 0.093,-0.204 0.137,-0.424 0.137,-0.664 0,-0.241 -0.044,-0.461 -0.137,-0.665 -0.092,-0.204 -0.216,-0.38 -0.372,-0.528 -0.156,-0.148 -0.34,-0.264 -0.544,-0.348 -0.204,-0.084 -0.424,-0.124 -0.652,-0.124 -0.228,0 -0.448,0.04 -0.652,0.124 -0.205,0.084 -0.385,0.2 -0.541,0.348 -0.156,0.148 -0.276,0.324 -0.368,0.528 -0.092,0.204 -0.136,0.424 -0.136,0.665 z m -1.641,0 c 0,-0.449 0.084,-0.865 0.249,-1.253 0.164,-0.388 0.396,-0.724 0.688,-1.012 0.292,-0.289 0.644,-0.513 1.052,-0.677 0.408,-0.164 0.857,-0.244 1.349,-0.244 0.484,0 0.932,0.08 1.344,0.244 0.413,0.164 0.765,0.388 1.061,0.677 0.296,0.288 0.528,0.624 0.692,1.012 0.164,0.388 0.248,0.804 0.248,1.253 0,0.448 -0.084,0.864 -0.248,1.252 -0.164,0.388 -0.396,0.724 -0.692,1.012 -0.296,0.289 -0.648,0.513 -1.061,0.677 -0.412,0.164 -0.86,0.244 -1.344,0.244 -0.492,0 -0.941,-0.08 -1.349,-0.244 -0.408,-0.164 -0.76,-0.388 -1.052,-0.677 -0.292,-0.288 -0.524,-0.624 -0.688,-1.012 -0.165,-0.388 -0.249,-0.804 -0.249,-1.252 z"
   id="path7473" /><path
   inkscape:connector-curvature="0"
   style="fill:#ffffff;fill-rule:nonzero"
   d="m 31.901,190.077 v -6.035 h 1.568 l 2.897,3.69 v -3.69 h 1.561 v 6.035 h -1.561 l -2.897,-3.69 v 3.69 z"
   id="path7475" /><path
   inkscape:connector-curvature="0"
   style="fill:#ffffff;fill-rule:nonzero"
   d="m 42.489,187.836 -0.704,-2.009 -0.705,2.009 z m 0.416,1.192 h -2.241 l -0.36,1.049 h -1.673 l 2.297,-6.035 h 1.713 l 2.297,6.035 h -1.673 z"
   id="path7477" /><path
   inkscape:connector-curvature="0"
   style="fill:#ffffff;fill-rule:nonzero"
   d="m 45.626,190.077 v -6.035 h 1.569 l 2.897,3.69 v -3.69 h 1.561 v 6.035 h -1.561 l -2.897,-3.69 v 3.69 z"
   id="path7479" /><path
   inkscape:connector-curvature="0"
   style="fill:#ffffff;fill-rule:nonzero"
   d="m 57.343,186.059 c -0.364,-0.444 -0.812,-0.664 -1.344,-0.664 -0.236,0 -0.453,0.044 -0.653,0.128 -0.2,0.084 -0.372,0.2 -0.516,0.348 -0.144,0.148 -0.256,0.32 -0.34,0.524 -0.084,0.204 -0.124,0.42 -0.124,0.657 0,0.24 0.04,0.46 0.124,0.664 0.084,0.204 0.196,0.38 0.344,0.528 0.148,0.148 0.32,0.268 0.516,0.352 0.196,0.084 0.413,0.128 0.641,0.128 0.5,0 0.952,-0.212 1.352,-0.64 v 1.857 l -0.16,0.056 c -0.24,0.084 -0.464,0.148 -0.672,0.188 -0.208,0.04 -0.412,0.06 -0.616,0.06 -0.417,0 -0.817,-0.08 -1.197,-0.236 -0.38,-0.156 -0.716,-0.38 -1.008,-0.665 -0.292,-0.284 -0.525,-0.624 -0.701,-1.016 -0.176,-0.392 -0.264,-0.82 -0.264,-1.284 0,-0.465 0.088,-0.889 0.26,-1.277 0.172,-0.388 0.405,-0.72 0.697,-1 0.292,-0.281 0.628,-0.501 1.012,-0.657 0.384,-0.156 0.788,-0.236 1.209,-0.236 0.24,0 0.476,0.024 0.708,0.076 0.232,0.052 0.476,0.128 0.732,0.236 z"
   id="path7481" /><path
   inkscape:connector-curvature="0"
   style="fill:#ffffff;fill-rule:nonzero"
   d="m 61.769,185.371 h -1.865 v 1.008 h 1.761 v 1.329 h -1.761 v 1.04 h 1.865 v 1.329 h -3.433 v -6.035 h 3.433 z"
   id="path7483" /><g
   id="g34501">
      <path
   inkscape:connector-curvature="0"
   style="fill:none;stroke:#cccccc;stroke-width:1.5px;stroke-linecap:round"
   d="m 56.383,169.241 c 5.878,-10.184 3.577,-23.245 -5.431,-30.804 -9.007,-7.556 -22.273,-7.556 -31.281,0 -9.007,7.559 -11.308,20.62 -5.43,30.804"
   id="path7488" />
      <circle
   style="fill:none;stroke:#cccccc;stroke-width:1px"
   r="3.7060001"
   cy="178.509"
   cx="17.173"
   id="circle7491" />
      <circle
   style="fill:#cccccc;stroke:#cccccc;stroke-width:1px"
   r="3.7060001"
   cy="177.99699"
   cx="54.952"
   id="circle7494" />
    </g><g
   id="g34506">
      <path
   inkscape:connector-curvature="0"
   style="fill:none;stroke:#cccccc;stroke-width:1.5px;stroke-linecap:round"
   d="m 134.383,169.241 c 5.878,-10.184 3.577,-23.245 -5.431,-30.804 -9.007,-7.556 -22.273,-7.556 -31.281,0 -9.007,7.559 -11.308,20.62 -5.43,30.804"
   id="path7499" />
      <circle
   style="fill:none;stroke:#cccccc;stroke-width:1px"
   r="3.7060001"
   cy="178.509"
   cx="95.172997"
   id="circle7502" />
      <circle
   style="fill:#cccccc;stroke:#cccccc;stroke-width:1px"
   r="3.7060001"
   cy="177.99699"
   cx="132.952"
   id="circle7505" />
    </g><path
   inkscape:connector-curvature="0"
   style="fill:#ffffff;fill-rule:nonzero"
   d="m 40.158,38.559 v -5.112 h 1.322 v 0.964 c 0.404,-0.72 0.978,-1.08 1.723,-1.08 0.385,0 0.702,0.094 0.95,0.284 0.248,0.189 0.4,0.455 0.456,0.796 0.477,-0.72 1.055,-1.08 1.732,-1.08 0.934,0 1.401,0.516 1.401,1.546 v 3.682 H 46.42 v -3.231 c 0,-0.605 -0.202,-0.908 -0.605,-0.908 -0.413,0 -0.815,0.298 -1.206,0.894 v 3.245 h -1.323 v -3.231 c 0,-0.608 -0.203,-0.912 -0.609,-0.912 -0.407,0 -0.805,0.299 -1.197,0.898 v 3.245 z"
   id="path7510" /><path
   inkscape:connector-curvature="0"
   style="fill:#ffffff;fill-rule:nonzero"
   d="m 51.909,38.01 c -0.459,0.443 -0.952,0.666 -1.476,0.666 -0.447,0 -0.81,-0.137 -1.089,-0.41 -0.28,-0.273 -0.42,-0.627 -0.42,-1.062 0,-0.564 0.226,-1 0.678,-1.306 0.451,-0.306 1.098,-0.458 1.939,-0.458 h 0.368 v -0.466 c 0,-0.53 -0.303,-0.796 -0.908,-0.796 -0.537,0 -1.08,0.152 -1.63,0.456 v -0.949 c 0.624,-0.237 1.242,-0.354 1.853,-0.354 1.338,0 2.006,0.532 2.006,1.597 v 2.262 c 0,0.4 0.13,0.6 0.387,0.6 0.046,0 0.108,-0.005 0.182,-0.018 l 0.033,0.773 c -0.292,0.087 -0.55,0.131 -0.773,0.131 -0.565,0 -0.929,-0.223 -1.09,-0.666 z m 0,-0.74 v -1.039 h -0.326 c -0.89,0 -1.336,0.279 -1.336,0.838 0,0.19 0.064,0.349 0.192,0.478 0.13,0.128 0.288,0.193 0.478,0.193 0.323,0 0.653,-0.157 0.992,-0.47 z"
   id="path7512" /><path
   inkscape:connector-curvature="0"
   style="fill:#ffffff;fill-rule:nonzero"
   d="m 55.009,38.559 v -5.112 h 1.379 v 0.964 c 0.45,-0.72 1.03,-1.08 1.74,-1.08 0.457,0 0.817,0.144 1.08,0.433 0.264,0.289 0.396,0.683 0.396,1.183 v 3.612 h -1.377 v -3.273 c 0,-0.58 -0.193,-0.87 -0.578,-0.87 -0.438,0 -0.858,0.308 -1.261,0.927 v 3.216 z"
   id="path7514" /><path
   inkscape:connector-curvature="0"
   style="fill:#ffffff;fill-rule:nonzero"
   d="m 61.271,38.559 v -5.112 h 1.378 v 5.112 z m 0,-5.972 v -1.151 h 1.378 v 1.151 z"
   id="path7516" /><path
   inkscape:connector-curvature="0"
   style="fill:#ffffff;fill-rule:nonzero"
   d="m 64.516,38.559 v -4.251 h -0.703 v -0.861 h 0.703 V 33.08 c 0,-1.326 0.629,-1.988 1.886,-1.988 0.406,0 0.825,0.059 1.256,0.176 V 32.2 c -0.39,-0.165 -0.742,-0.247 -1.052,-0.247 -0.474,0 -0.713,0.358 -0.713,1.075 v 0.419 h 1.295 v 0.861 h -1.295 v 4.251 z"
   id="path7518" /><path
   inkscape:connector-curvature="0"
   style="fill:#ffffff;fill-rule:nonzero"
   d="m 70.47,38.676 c -0.798,0 -1.431,-0.242 -1.901,-0.725 -0.47,-0.482 -0.706,-1.131 -0.706,-1.948 0,-0.826 0.237,-1.477 0.71,-1.955 0.473,-0.478 1.117,-0.717 1.93,-0.717 0.816,0 1.461,0.239 1.935,0.717 0.473,0.478 0.709,1.126 0.709,1.946 0,0.838 -0.237,1.495 -0.713,1.969 -0.474,0.475 -1.129,0.713 -1.964,0.713 z m 0.024,-0.862 c 0.791,0 1.187,-0.607 1.187,-1.82 0,-0.556 -0.105,-0.994 -0.315,-1.317 -0.21,-0.323 -0.496,-0.484 -0.863,-0.484 -0.363,0 -0.65,0.161 -0.86,0.484 -0.209,0.323 -0.313,0.764 -0.313,1.326 0,0.556 0.104,0.997 0.311,1.323 0.209,0.326 0.493,0.488 0.853,0.488 z"
   id="path7520" /><rect
   style="fill:#ffffff"
   height="7.3509998"
   width="1.3789999"
   y="31.208"
   x="74.413002"
   id="rect7522" /><path
   inkscape:connector-curvature="0"
   style="fill:#ffffff;fill-rule:nonzero"
   d="m 80.731,38.559 v -0.963 c -0.354,0.72 -0.911,1.08 -1.672,1.08 -0.614,0 -1.097,-0.226 -1.447,-0.676 -0.351,-0.45 -0.526,-1.069 -0.526,-1.857 0,-0.857 0.198,-1.539 0.594,-2.049 0.394,-0.509 0.926,-0.763 1.594,-0.763 0.534,0 1.02,0.211 1.457,0.633 v -2.756 h 1.383 v 7.351 z m 0,-3.775 c -0.333,-0.373 -0.687,-0.56 -1.066,-0.56 -0.338,0 -0.609,0.164 -0.81,0.49 -0.202,0.326 -0.303,0.763 -0.303,1.313 0,1.046 0.336,1.569 1.006,1.569 0.41,0 0.8,-0.263 1.173,-0.787 z"
   id="path7524" /><path
   inkscape:connector-curvature="0"
   style="fill:#ffffff;fill-rule:nonzero"
   d="m 87.118,38.559 v -4.251 h -0.703 v -0.861 h 0.703 v -0.353 c 0,-0.643 0.153,-1.137 0.459,-1.484 0.306,-0.345 0.741,-0.518 1.305,-0.518 0.349,0 0.717,0.063 1.109,0.19 v 0.941 c -0.385,-0.171 -0.67,-0.256 -0.857,-0.256 -0.425,0 -0.638,0.388 -0.638,1.164 v 0.316 h 3.218 v 5.112 h -1.379 v -4.251 h -1.839 v 4.251 z m 3.446,-5.972 v -1.151 h 1.15 v 1.151 z"
   id="path7526" /><rect
   style="fill:#ffffff"
   height="7.3509998"
   width="1.3789999"
   y="31.208"
   x="93.435997"
   id="rect7528" /><path
   inkscape:connector-curvature="0"
   style="fill:#ffffff;fill-rule:nonzero"
   d="m 99.172,38.532 c -0.33,0.095 -0.589,0.144 -0.779,0.144 -1.194,0 -1.791,-0.559 -1.791,-1.676 v -2.692 h -0.573 v -0.861 h 0.573 v -0.86 l 1.377,-0.159 v 1.019 h 1.094 v 0.861 h -1.094 v 2.509 c 0,0.628 0.257,0.942 0.769,0.942 0.118,0 0.258,-0.023 0.424,-0.066 z"
   id="path7530" /><path
   inkscape:connector-curvature="0"
   style="fill:#ffffff;fill-rule:nonzero"
   d="m 104.563,38.387 c -0.656,0.192 -1.276,0.289 -1.863,0.289 -0.853,0 -1.526,-0.243 -2.021,-0.727 -0.493,-0.484 -0.74,-1.145 -0.74,-1.983 0,-0.792 0.227,-1.428 0.678,-1.911 0.452,-0.483 1.048,-0.724 1.79,-0.724 0.748,0 1.294,0.236 1.639,0.707 0.344,0.472 0.517,1.219 0.517,2.239 h -3.171 c 0.093,0.976 0.629,1.463 1.606,1.463 0.463,0 0.983,-0.107 1.565,-0.321 z M 101.374,35.5 h 1.834 c 0,-0.872 -0.281,-1.307 -0.843,-1.307 -0.571,0 -0.901,0.435 -0.991,1.307 z"
   id="path7532" /><path
   inkscape:connector-curvature="0"
   style="fill:#ffffff;fill-rule:nonzero"
   d="m 105.987,38.559 v -5.112 h 1.378 v 0.964 c 0.357,-0.72 0.9,-1.08 1.63,-1.08 0.087,0 0.171,0.009 0.255,0.027 v 1.23 c -0.195,-0.071 -0.377,-0.107 -0.544,-0.107 -0.55,0 -0.997,0.278 -1.341,0.833 v 3.245 z"
   id="path7534" /><path
   inkscape:connector-curvature="0"
   style="fill:#e3dbdb;fill-rule:nonzero"
   d="m 60.116,19.797 h -2.968 v 1.585 h 2.705 v 2.089 h -2.705 v 3.724 H 54.682 V 17.71 h 5.434 z"
   id="path7539" /><path
   inkscape:connector-curvature="0"
   style="fill:#e3dbdb;fill-rule:nonzero"
   d="m 64.055,21.948 h 0.465 c 0.486,0 0.859,-0.099 1.12,-0.301 0.26,-0.201 0.389,-0.491 0.389,-0.868 0,-0.377 -0.129,-0.666 -0.389,-0.868 C 65.379,19.71 65.006,19.61 64.52,19.61 h -0.465 z m 5.421,5.247 h -3.069 l -2.352,-3.648 v 3.648 H 61.588 V 17.71 h 3.838 c 0.528,0 0.989,0.078 1.383,0.232 0.395,0.156 0.72,0.368 0.975,0.635 0.256,0.269 0.449,0.58 0.578,0.931 0.131,0.353 0.196,0.73 0.196,1.133 0,0.721 -0.174,1.306 -0.522,1.755 -0.348,0.449 -0.862,0.753 -1.541,0.912 z"
   id="path7541" /><path
   inkscape:connector-curvature="0"
   style="fill:#e3dbdb;fill-rule:nonzero"
   d="m 75.905,19.797 h -2.931 l -0.001,1.585 h 2.768 v 2.089 h -2.767 l -0.001,1.635 h 2.932 v 2.089 H 70.508 V 17.71 h 5.397 z"
   id="path7543" /><path
   inkscape:connector-curvature="0"
   style="fill:#e3dbdb;fill-rule:nonzero"
   d="m 82.836,23.672 -1.106,-3.157 -1.107,3.157 z m 0.654,1.875 h -3.523 l -0.566,1.648 h -2.629 l 3.611,-9.485 h 2.692 l 3.611,9.485 h -2.63 z"
   id="path7545" /><path
   inkscape:connector-curvature="0"
   style="fill:#e3dbdb;fill-rule:nonzero"
   d="M 90.233,21.622 93.24,17.71 h 3.043 l -3.761,4.49 4.114,4.995 h -3.195 l -3.208,-4.113 v 4.113 H 87.767 V 17.71 h 2.466 z"
   id="path7547" /><path
   inkscape:connector-curvature="0"
   style="fill:#e3dbdb;fill-rule:nonzero"
   d="m 62.952,363.5 h 2.673 l 2.49,8.317 2.574,-8.317 h 2.66 l -3.46,10.397 c -0.323,0.959 -0.903,1.438 -1.738,1.438 -0.847,0 -1.433,-0.484 -1.755,-1.453 z"
   id="path42" /><path
   inkscape:connector-curvature="0"
   style="fill:#e3dbdb;fill-rule:nonzero"
   d="M 73.55,372.292 V 363.5 h 2.507 v 8.709 c 0.044,0.312 0.334,0.468 0.869,0.468 h 1.705 c 0.513,0 0.797,-0.145 0.853,-0.435 l 0.017,-0.083 V 363.5 h 2.507 v 8.776 c 0,0.769 -0.083,1.315 -0.251,1.638 -0.445,0.858 -1.231,1.287 -2.357,1.287 h -3.243 c -1.159,0 -1.95,-0.44 -2.373,-1.321 -0.156,-0.323 -0.234,-0.852 -0.234,-1.588 z"
   id="path44" /><path
   inkscape:connector-curvature="0"
   style="fill:#e3dbdb;fill-rule:nonzero"
   d="M 83.161,372.343 V 363.5 h 2.508 v 8.642 c 0,0.357 0.211,0.535 0.635,0.535 h 4.463 l -0.016,2.524 h -4.664 c -0.167,0 -0.312,-0.005 -0.435,-0.017 -0.903,-0.077 -1.544,-0.342 -1.922,-0.794 -0.379,-0.451 -0.569,-1.134 -0.569,-2.047 z"
   id="path46" /><path
   inkscape:connector-curvature="0"
   style="fill:#e3dbdb;fill-rule:nonzero"
   d="M 90.851,366.024 V 363.5 h 7.522 v 2.524 h -2.524 v 9.177 h -2.508 v -9.177 z"
   id="path48" /><path
   inkscape:connector-curvature="0"
   style="fill:#757575;fill-rule:nonzero;stroke:#414c55;stroke-width:0.61000001px;stroke-miterlimit:10"
   d="m 59.383,369.417 c 0,-4.509 -3.655,-8.164 -8.164,-8.164 -4.509,0 -8.165,3.655 -8.165,8.164 0,4.509 3.656,8.165 8.165,8.165 4.509,0 8.164,-3.656 8.164,-8.165 z"
   id="path4" /><g
   id="g40">
      <path
   inkscape:connector-curvature="0"
   style="fill:#2b2b2b;fill-rule:nonzero;stroke:#414c55;stroke-width:0.04px"
   d="m 49.321,374.394 0.553,-0.891 -1.064,-2.393 -2.216,-2.284 0.46,3.101 0.597,1.28 0.833,1.264 z"
   id="polygon6" />
      <path
   inkscape:connector-curvature="0"
   style="fill:#262626;fill-rule:nonzero;stroke:#414c55;stroke-width:0.04px"
   d="m 53.048,374.401 -0.553,-0.89 1.064,-2.393 2.216,-2.285 -0.46,3.101 -0.597,1.281 -0.833,1.263 z"
   id="polygon8" />
      <path
   inkscape:connector-curvature="0"
   style="fill:#424242;fill-rule:nonzero;stroke:#414c55;stroke-width:0.04px"
   d="m 48.636,363.359 2.584,-0.66 v 13.447 l -1.349,-2.651 -1.061,-2.385 -1.022,-0.581 -2.052,-2.92 -0.057,-0.776 1.148,-2.067 z"
   id="polygon12" />
      <path
   inkscape:connector-curvature="0"
   style="fill:#333333;fill-rule:nonzero;stroke:#414c55;stroke-width:0.04px"
   d="m 53.801,363.364 -2.584,-0.661 v 13.448 l 1.35,-2.651 1.06,-2.385 1.023,-0.581 2.051,-2.921 0.058,-0.775 -1.149,-2.067 z"
   id="polygon14" />
      <path
   inkscape:connector-curvature="0"
   style="fill:#4c4c4c;fill-rule:nonzero;stroke:#414c55;stroke-width:0.04px"
   d="m 49.496,369.237 1.723,-1.684 v 1.229 l -1.723,1.718 v -1.263"
   id="polyline16" />
      <path
   inkscape:connector-curvature="0"
   style="fill:#5b5b5b;fill-rule:nonzero;stroke:#414c55;stroke-width:0.04px"
   d="m 51.22,368.781 -1.723,1.718 0.377,3.004 1.346,2.643 z"
   id="polygon18" />
      <path
   inkscape:connector-curvature="0"
   style="fill:#333333;fill-rule:nonzero;stroke:#414c55;stroke-width:0.04px"
   d="m 51.22,376.146 -1.346,-2.643 1.346,-0.635 z"
   id="polygon20" />
      <path
   inkscape:connector-curvature="0"
   style="fill:#ffffff;fill-rule:nonzero;stroke:#414c55;stroke-width:0.04px"
   d="m 49.497,370.499 v -1.263 l -1.249,-1.58 -1.477,-1.19 -10e-4,0.932 0.775,1.823 z"
   id="polygon22" />
      <path
   inkscape:connector-curvature="0"
   style="fill:#2d2d2d;fill-rule:nonzero;stroke:#414c55;stroke-width:0.04px"
   d="m 52.942,369.238 -1.722,-1.685 v 1.23 l 1.722,1.718 v -1.263"
   id="polyline24" />
      <path
   inkscape:connector-curvature="0"
   style="fill:#353535;fill-rule:nonzero;stroke:#414c55;stroke-width:0.04px"
   d="m 51.218,368.781 1.722,1.718 -0.376,3.004 -1.347,2.643 z"
   id="polygon26" />
      <path
   inkscape:connector-curvature="0"
   style="fill:#191919;fill-rule:nonzero;stroke:#414c55;stroke-width:0.04px"
   d="m 51.217,376.146 1.347,-2.643 -1.346,-0.635 z"
   id="polygon28" />
      <path
   inkscape:connector-curvature="0"
   style="fill:#ffffff;fill-rule:nonzero;stroke:#414c55;stroke-width:0.04px"
   d="m 52.94,370.499 v -1.263 l 1.249,-1.58 1.478,-1.19 10e-4,0.932 -0.775,1.823 z"
   id="polygon30" />
      <path
   inkscape:connector-curvature="0"
   style="fill:#383838;fill-rule:nonzero;stroke:#414c55;stroke-width:0.04px"
   d="m 48.652,363.338 2.566,4.215 -0.005,-4.87"
   id="polyline32" />
      <path
   inkscape:connector-curvature="0"
   style="fill:#2d2d2d;fill-rule:nonzero;stroke:#414c55;stroke-width:0.04px"
   d="m 53.785,363.338 -2.566,4.215 0.006,-4.869"
   id="polyline34" />
      <path
   inkscape:connector-curvature="0"
   style="fill:#333333;fill-rule:nonzero;stroke:#414c55;stroke-width:0.04px"
   d="m 48.811,371.111 0.688,-0.611 0.375,3.006 z"
   id="polygon36" />
      <path
   inkscape:connector-curvature="0"
   style="fill:#1c1c1c;fill-rule:nonzero;stroke:#414c55;stroke-width:0.04px"
   d="m 53.631,371.125 -0.688,-0.61 -0.375,3.006 z"
   id="polygon38" />
    </g><path
   inkscape:connector-curvature="0"
   style="fill:#ffffff;fill-rule:nonzero"
   d="m 101.66,188.748 h 0.36 c 0.272,0 0.516,-0.044 0.728,-0.128 0.212,-0.084 0.392,-0.204 0.54,-0.352 0.149,-0.148 0.261,-0.328 0.337,-0.532 0.076,-0.204 0.116,-0.432 0.116,-0.676 0,-0.241 -0.04,-0.465 -0.12,-0.673 -0.08,-0.208 -0.192,-0.388 -0.341,-0.536 -0.148,-0.148 -0.328,-0.268 -0.54,-0.352 -0.212,-0.084 -0.452,-0.128 -0.72,-0.128 h -0.36 z m -1.569,-4.706 h 2.321 c 0.412,0 0.796,0.084 1.157,0.248 0.36,0.164 0.676,0.385 0.944,0.661 0.268,0.276 0.48,0.596 0.636,0.96 0.156,0.364 0.232,0.748 0.232,1.149 0,0.396 -0.076,0.776 -0.228,1.14 -0.152,0.364 -0.364,0.688 -0.632,0.964 -0.268,0.277 -0.584,0.501 -0.944,0.665 -0.361,0.164 -0.749,0.248 -1.165,0.248 h -2.321 z"
   id="path7576" /><path
   inkscape:connector-curvature="0"
   style="fill:#ffffff;fill-rule:nonzero"
   d="m 107.95,186.739 h 0.297 c 0.308,0 0.548,-0.064 0.712,-0.192 0.164,-0.128 0.248,-0.312 0.248,-0.552 0,-0.24 -0.084,-0.424 -0.248,-0.552 -0.164,-0.128 -0.404,-0.192 -0.712,-0.192 h -0.297 z m 3.45,3.338 h -1.953 l -1.497,-2.321 v 2.321 h -1.568 v -6.035 h 2.441 c 0.336,0 0.628,0.048 0.88,0.148 0.252,0.1 0.456,0.232 0.62,0.405 0.164,0.172 0.285,0.368 0.369,0.592 0.084,0.224 0.124,0.464 0.124,0.72 0,0.46 -0.112,0.832 -0.333,1.117 -0.22,0.284 -0.548,0.48 -0.98,0.58 z"
   id="path7578" /><rect
   style="fill:#ffffff"
   height="6.0349998"
   width="1.569"
   y="184.04201"
   x="112.056"
   id="rect7580" /><path
   inkscape:connector-curvature="0"
   style="fill:#ffffff;fill-rule:nonzero"
   d="m 115.962,184.042 1.456,3.674 1.465,-3.674 h 1.705 l -2.545,6.035 h -1.249 l -2.537,-6.035 z"
   id="path7582" /><path
   inkscape:connector-curvature="0"
   style="fill:#ffffff;fill-rule:nonzero"
   d="m 124.653,185.371 h -1.864 v 1.008 h 1.76 v 1.329 h -1.76 v 1.04 h 1.864 v 1.329 h -3.433 v -6.035 h 3.433 z"
   id="path7584" /><path
   inkscape:connector-curvature="0"
   style="fill:#ffffff;fill-rule:nonzero"
   d="m 110.998,305.65 0.768,-4.526 h 1.165 l 0.908,2.413 0.901,-2.413 h 1.16 l 0.768,4.526 H 115.5 l -0.388,-2.605 -1.069,2.605 h -0.468 l -1.016,-2.605 -0.388,2.605 z"
   id="path7589" /><path
   inkscape:connector-curvature="0"
   style="fill:#ffffff;fill-rule:nonzero"
   d="m 118.441,303.389 c 0,0.18 0.032,0.344 0.1,0.496 0.068,0.152 0.16,0.284 0.276,0.396 0.116,0.112 0.252,0.2 0.405,0.26 0.156,0.064 0.32,0.096 0.492,0.096 0.172,0 0.332,-0.032 0.488,-0.096 0.152,-0.06 0.288,-0.148 0.408,-0.26 0.116,-0.112 0.208,-0.244 0.276,-0.396 0.068,-0.152 0.104,-0.316 0.104,-0.496 0,-0.18 -0.036,-0.348 -0.104,-0.5 -0.068,-0.152 -0.16,-0.284 -0.276,-0.397 -0.12,-0.112 -0.256,-0.196 -0.408,-0.26 -0.156,-0.06 -0.316,-0.092 -0.488,-0.092 -0.172,0 -0.336,0.032 -0.492,0.092 -0.153,0.064 -0.289,0.148 -0.405,0.26 -0.116,0.113 -0.208,0.245 -0.276,0.397 -0.068,0.152 -0.1,0.32 -0.1,0.5 z m -1.232,0 c 0,-0.336 0.064,-0.648 0.188,-0.941 0.124,-0.288 0.296,-0.544 0.516,-0.76 0.22,-0.216 0.48,-0.384 0.788,-0.504 0.304,-0.124 0.645,-0.184 1.013,-0.184 0.364,0 0.696,0.06 1.004,0.184 0.308,0.12 0.576,0.288 0.796,0.504 0.225,0.216 0.397,0.472 0.521,0.76 0.124,0.293 0.184,0.605 0.184,0.941 0,0.336 -0.06,0.648 -0.184,0.936 -0.124,0.292 -0.296,0.544 -0.521,0.761 -0.22,0.216 -0.488,0.384 -0.796,0.508 -0.308,0.12 -0.64,0.18 -1.004,0.18 -0.368,0 -0.709,-0.06 -1.013,-0.18 -0.308,-0.124 -0.568,-0.292 -0.788,-0.508 -0.22,-0.217 -0.392,-0.469 -0.516,-0.761 -0.124,-0.288 -0.188,-0.6 -0.188,-0.936 z"
   id="path7591" /><path
   inkscape:connector-curvature="0"
   style="fill:#ffffff;fill-rule:nonzero"
   d="m 124.14,304.653 h 0.272 c 0.204,0 0.384,-0.032 0.544,-0.096 0.16,-0.064 0.296,-0.152 0.404,-0.264 0.112,-0.112 0.196,-0.244 0.252,-0.4 0.06,-0.152 0.088,-0.32 0.088,-0.504 0,-0.18 -0.032,-0.348 -0.092,-0.504 -0.06,-0.156 -0.144,-0.292 -0.252,-0.405 -0.112,-0.112 -0.244,-0.2 -0.404,-0.264 -0.16,-0.064 -0.34,-0.096 -0.54,-0.096 h -0.272 z m -1.177,-3.529 h 1.741 c 0.308,0 0.596,0.064 0.868,0.188 0.268,0.124 0.504,0.288 0.708,0.496 0.201,0.204 0.361,0.444 0.477,0.721 0.116,0.272 0.172,0.56 0.172,0.86 0,0.296 -0.056,0.58 -0.168,0.852 -0.116,0.276 -0.272,0.516 -0.477,0.725 -0.2,0.208 -0.436,0.376 -0.708,0.5 -0.268,0.124 -0.56,0.184 -0.872,0.184 h -1.741 z"
   id="path7593" /><path
   inkscape:connector-curvature="0"
   style="fill:#ffffff;fill-rule:nonzero"
   d="m 130.254,302.12 h -1.396 v 0.757 h 1.316 v 0.996 h -1.316 v 0.78 h 1.396 v 0.997 h -2.573 v -4.526 h 2.573 z"
   id="path7595" /><path
   inkscape:connector-curvature="0"
   style="fill:#ffffff;fill-rule:nonzero"
   d="m 84.864,302.081 h -1.416 v 0.757 h 1.292 v 0.996 h -1.292 v 1.777 h -1.177 v -4.526 h 2.593 z"
   id="path7599" /><rect
   style="fill:#ffffff"
   height="4.526"
   width="1.176"
   y="301.08499"
   x="85.568001"
   id="rect7601" /><path
   inkscape:connector-curvature="0"
   style="fill:#ffffff;fill-rule:nonzero"
   d="m 88.866,301.085 v 3.529 h 1.412 v 0.997 h -2.589 v -4.526 z"
   id="path7603" /><path
   inkscape:connector-curvature="0"
   style="fill:#ffffff;fill-rule:nonzero"
   d="m 92.359,302.081 v 3.53 h -1.176 v -3.53 h -0.965 v -0.996 h 3.106 v 0.996 z"
   id="path7605" /><path
   inkscape:connector-curvature="0"
   style="fill:#ffffff;fill-rule:nonzero"
   d="m 96.421,302.081 h -1.397 v 0.757 h 1.317 v 0.996 h -1.317 v 0.78 h 1.397 v 0.997 h -2.573 v -4.526 h 2.573 z"
   id="path7607" /><path
   inkscape:connector-curvature="0"
   style="fill:#ffffff;fill-rule:nonzero"
   d="m 98.442,303.11 h 0.224 c 0.232,0 0.408,-0.048 0.532,-0.144 0.124,-0.096 0.188,-0.236 0.188,-0.416 0,-0.181 -0.064,-0.317 -0.188,-0.413 -0.124,-0.096 -0.3,-0.144 -0.532,-0.144 h -0.224 z m 2.589,2.501 h -1.465 l -1.124,-1.741 v 1.741 h -1.177 v -4.526 h 1.833 c 0.252,0 0.472,0.04 0.66,0.112 0.188,0.076 0.34,0.176 0.465,0.304 0.12,0.128 0.212,0.276 0.276,0.444 0.06,0.168 0.092,0.348 0.092,0.541 0,0.344 -0.084,0.624 -0.248,0.836 -0.168,0.212 -0.413,0.36 -0.737,0.436 z"
   id="path7609" /><path
   inkscape:connector-curvature="0"
   style="fill:#ffffff;fill-rule:nonzero"
   d="m 35.203,276.686 c -0.272,-0.333 -0.609,-0.497 -1.009,-0.497 -0.176,0 -0.34,0.032 -0.488,0.096 -0.152,0.064 -0.28,0.152 -0.388,0.26 -0.108,0.113 -0.192,0.241 -0.256,0.393 -0.06,0.152 -0.092,0.316 -0.092,0.492 0,0.18 0.032,0.348 0.092,0.5 0.064,0.152 0.148,0.284 0.26,0.396 0.108,0.112 0.236,0.2 0.384,0.264 0.148,0.064 0.308,0.096 0.48,0.096 0.376,0 0.717,-0.16 1.017,-0.48 v 1.393 l -0.12,0.04 c -0.18,0.064 -0.349,0.112 -0.505,0.14 -0.156,0.032 -0.312,0.044 -0.464,0.044 -0.312,0 -0.608,-0.056 -0.896,-0.176 -0.284,-0.116 -0.536,-0.284 -0.756,-0.496 -0.217,-0.217 -0.393,-0.469 -0.525,-0.765 -0.132,-0.292 -0.2,-0.612 -0.2,-0.96 0,-0.348 0.068,-0.668 0.196,-0.957 0.132,-0.292 0.304,-0.54 0.525,-0.752 0.216,-0.208 0.468,-0.372 0.756,-0.492 0.288,-0.116 0.592,-0.176 0.908,-0.176 0.18,0 0.356,0.02 0.528,0.056 0.176,0.04 0.361,0.096 0.553,0.176 z"
   id="path7613" /><path
   inkscape:connector-curvature="0"
   style="fill:#ffffff;fill-rule:nonzero"
   d="m 37.035,277.438 c 0,0.18 0.036,0.344 0.104,0.496 0.068,0.152 0.161,0.284 0.277,0.396 0.116,0.112 0.252,0.2 0.404,0.26 0.156,0.064 0.316,0.096 0.488,0.096 0.172,0 0.336,-0.032 0.488,-0.096 0.156,-0.06 0.292,-0.148 0.408,-0.26 0.12,-0.112 0.212,-0.244 0.28,-0.396 0.068,-0.152 0.104,-0.316 0.104,-0.496 0,-0.18 -0.036,-0.348 -0.104,-0.5 -0.068,-0.152 -0.16,-0.284 -0.28,-0.397 -0.116,-0.112 -0.252,-0.196 -0.408,-0.26 -0.152,-0.06 -0.316,-0.092 -0.488,-0.092 -0.172,0 -0.332,0.032 -0.488,0.092 -0.152,0.064 -0.288,0.148 -0.404,0.26 -0.116,0.113 -0.209,0.245 -0.277,0.397 -0.068,0.152 -0.104,0.32 -0.104,0.5 z m -1.228,0 c 0,-0.336 0.064,-0.648 0.188,-0.941 0.124,-0.288 0.292,-0.544 0.512,-0.76 0.22,-0.216 0.484,-0.384 0.793,-0.504 0.304,-0.124 0.64,-0.184 1.008,-0.184 0.364,0 0.7,0.06 1.008,0.184 0.308,0.12 0.573,0.288 0.797,0.504 0.22,0.216 0.396,0.472 0.52,0.76 0.124,0.293 0.184,0.605 0.184,0.941 0,0.336 -0.06,0.648 -0.184,0.936 -0.124,0.292 -0.3,0.544 -0.52,0.761 -0.224,0.216 -0.489,0.384 -0.797,0.508 -0.308,0.12 -0.644,0.18 -1.008,0.18 -0.368,0 -0.704,-0.06 -1.008,-0.18 -0.309,-0.124 -0.573,-0.292 -0.793,-0.508 -0.22,-0.217 -0.388,-0.469 -0.512,-0.761 -0.124,-0.288 -0.188,-0.6 -0.188,-0.936 z"
   id="path7615" /><path
   inkscape:connector-curvature="0"
   style="fill:#ffffff;fill-rule:nonzero"
   d="m 41.357,279.699 0.769,-4.526 h 1.164 l 0.904,2.413 0.901,-2.413 h 1.164 l 0.769,4.526 h -1.169 l -0.392,-2.605 -1.069,2.605 H 43.93 l -1.012,-2.605 -0.392,2.605 z"
   id="path7617" /><path
   inkscape:connector-curvature="0"
   style="fill:#ffffff;fill-rule:nonzero"
   d="m 48.948,278.786 h 0.256 c 0.297,0 0.509,-0.036 0.637,-0.112 0.128,-0.076 0.192,-0.2 0.192,-0.368 0,-0.168 -0.064,-0.288 -0.192,-0.364 -0.128,-0.076 -0.34,-0.116 -0.637,-0.116 h -0.256 z m 0,-1.836 h 0.216 c 0.369,0 0.553,-0.144 0.553,-0.437 0,-0.292 -0.184,-0.44 -0.553,-0.44 h -0.216 z m -1.176,-1.777 h 1.753 c 0.416,0 0.732,0.1 0.948,0.3 0.216,0.2 0.32,0.488 0.32,0.864 0,0.229 -0.04,0.421 -0.12,0.569 -0.084,0.152 -0.208,0.276 -0.376,0.38 0.168,0.032 0.312,0.08 0.428,0.148 0.12,0.064 0.216,0.148 0.288,0.244 0.076,0.096 0.128,0.204 0.16,0.324 0.032,0.12 0.048,0.248 0.048,0.384 0,0.212 -0.036,0.4 -0.112,0.564 -0.072,0.165 -0.176,0.301 -0.312,0.413 -0.132,0.112 -0.296,0.196 -0.488,0.252 -0.192,0.056 -0.408,0.084 -0.648,0.084 h -1.889 z"
   id="path7619" /><rect
   style="fill:#ffffff"
   height="4.526"
   width="1.176"
   y="275.173"
   x="51.922001"
   id="rect7621" /><path
   inkscape:connector-curvature="0"
   style="fill:#ffffff;fill-rule:nonzero"
   d="m 54.046,279.699 v -4.526 h 1.177 l 2.173,2.769 v -2.769 h 1.168 v 4.526 h -1.168 l -2.173,-2.765 v 2.765 z"
   id="path7623" /><path
   inkscape:connector-curvature="0"
   style="fill:#ffffff;fill-rule:nonzero"
   d="m 62.086,276.169 h -1.397 v 0.757 h 1.321 v 0.996 h -1.321 v 0.78 h 1.397 v 0.997 h -2.573 v -4.526 h 2.573 z"
   id="path7625" /><path
   inkscape:connector-curvature="0"
   style="fill:#ffffff;fill-rule:nonzero"
   d="m 64.111,278.702 h 0.268 c 0.204,0 0.388,-0.032 0.548,-0.096 0.16,-0.064 0.292,-0.152 0.404,-0.264 0.108,-0.112 0.192,-0.244 0.252,-0.4 0.056,-0.152 0.084,-0.32 0.084,-0.504 0,-0.18 -0.028,-0.348 -0.088,-0.504 -0.06,-0.156 -0.144,-0.292 -0.256,-0.405 -0.108,-0.112 -0.244,-0.2 -0.404,-0.264 -0.16,-0.064 -0.34,-0.096 -0.54,-0.096 h -0.268 z m -1.177,-3.529 h 1.741 c 0.308,0 0.596,0.064 0.864,0.188 0.272,0.124 0.508,0.288 0.709,0.496 0.204,0.204 0.36,0.444 0.476,0.721 0.116,0.272 0.176,0.56 0.176,0.86 0,0.296 -0.056,0.58 -0.172,0.852 -0.112,0.276 -0.272,0.516 -0.472,0.725 -0.205,0.208 -0.441,0.376 -0.709,0.5 -0.272,0.124 -0.56,0.184 -0.872,0.184 h -1.741 z"
   id="path7627" /><path
   inkscape:connector-curvature="0"
   style="fill:#8c8c8c;fill-rule:nonzero"
   d="m 17.013,265.825 0.768,-4.526 h 1.165 l 0.908,2.413 0.901,-2.413 h 1.16 l 0.768,4.526 h -1.168 l -0.388,-2.605 -1.069,2.605 H 19.59 l -1.016,-2.605 -0.389,2.605 z"
   id="path7631" /><path
   inkscape:connector-curvature="0"
   style="fill:#8c8c8c;fill-rule:nonzero"
   d="m 24.456,263.564 c 0,0.18 0.032,0.344 0.1,0.496 0.068,0.152 0.16,0.284 0.276,0.396 0.116,0.112 0.252,0.2 0.404,0.26 0.156,0.064 0.321,0.096 0.493,0.096 0.172,0 0.332,-0.032 0.488,-0.096 0.152,-0.06 0.288,-0.148 0.408,-0.26 0.116,-0.112 0.208,-0.244 0.276,-0.396 0.068,-0.152 0.104,-0.316 0.104,-0.496 0,-0.18 -0.036,-0.348 -0.104,-0.5 -0.068,-0.152 -0.16,-0.284 -0.276,-0.397 -0.12,-0.112 -0.256,-0.196 -0.408,-0.26 -0.156,-0.06 -0.316,-0.092 -0.488,-0.092 -0.172,0 -0.337,0.032 -0.493,0.092 -0.152,0.064 -0.288,0.148 -0.404,0.26 -0.116,0.113 -0.208,0.245 -0.276,0.397 -0.068,0.152 -0.1,0.32 -0.1,0.5 z m -1.232,0 c 0,-0.336 0.064,-0.648 0.188,-0.941 0.124,-0.288 0.296,-0.544 0.516,-0.76 0.22,-0.216 0.48,-0.384 0.788,-0.504 0.304,-0.124 0.644,-0.184 1.013,-0.184 0.364,0 0.696,0.06 1.004,0.184 0.308,0.12 0.576,0.288 0.796,0.504 0.224,0.216 0.397,0.472 0.521,0.76 0.124,0.293 0.184,0.605 0.184,0.941 0,0.336 -0.06,0.648 -0.184,0.936 -0.124,0.292 -0.297,0.544 -0.521,0.761 -0.22,0.216 -0.488,0.384 -0.796,0.508 -0.308,0.12 -0.64,0.18 -1.004,0.18 -0.369,0 -0.709,-0.06 -1.013,-0.18 -0.308,-0.124 -0.568,-0.292 -0.788,-0.508 -0.22,-0.217 -0.392,-0.469 -0.516,-0.761 -0.124,-0.288 -0.188,-0.6 -0.188,-0.936 z"
   id="path7633" /><path
   inkscape:connector-curvature="0"
   style="fill:#8c8c8c;fill-rule:nonzero"
   d="m 30.154,264.828 h 0.273 c 0.204,0 0.384,-0.032 0.544,-0.096 0.16,-0.064 0.296,-0.152 0.404,-0.264 0.112,-0.112 0.196,-0.244 0.252,-0.4 0.06,-0.152 0.088,-0.32 0.088,-0.504 0,-0.18 -0.032,-0.348 -0.092,-0.504 -0.06,-0.156 -0.144,-0.292 -0.252,-0.405 -0.112,-0.112 -0.244,-0.2 -0.404,-0.264 -0.16,-0.064 -0.34,-0.096 -0.54,-0.096 h -0.273 z m -1.176,-3.529 h 1.741 c 0.308,0 0.596,0.064 0.868,0.188 0.268,0.124 0.504,0.288 0.708,0.496 0.2,0.204 0.361,0.444 0.477,0.721 0.116,0.272 0.172,0.56 0.172,0.86 0,0.296 -0.056,0.58 -0.168,0.852 -0.116,0.276 -0.273,0.516 -0.477,0.725 -0.2,0.208 -0.436,0.376 -0.708,0.5 -0.268,0.124 -0.56,0.184 -0.872,0.184 h -1.741 z"
   id="path7635" /><path
   inkscape:connector-curvature="0"
   style="fill:#8c8c8c;fill-rule:nonzero"
   d="m 36.909,263.324 h 0.224 c 0.232,0 0.409,-0.048 0.533,-0.144 0.124,-0.096 0.188,-0.236 0.188,-0.416 0,-0.181 -0.064,-0.317 -0.188,-0.413 -0.124,-0.096 -0.301,-0.144 -0.533,-0.144 h -0.224 z m 2.589,2.501 h -1.464 l -1.125,-1.741 v 1.741 h -1.172 v -4.526 h 1.829 c 0.252,0 0.472,0.04 0.66,0.112 0.188,0.076 0.34,0.176 0.464,0.304 0.12,0.128 0.212,0.276 0.276,0.444 0.06,0.168 0.092,0.348 0.092,0.541 0,0.344 -0.084,0.624 -0.248,0.836 -0.168,0.212 -0.412,0.36 -0.736,0.436 z"
   id="path7637" /><path
   inkscape:connector-curvature="0"
   style="fill:#8c8c8c;fill-rule:nonzero"
   d="m 40.931,263.564 c 0,0.18 0.032,0.344 0.1,0.496 0.068,0.152 0.16,0.284 0.276,0.396 0.116,0.112 0.252,0.2 0.408,0.26 0.152,0.064 0.316,0.096 0.488,0.096 0.173,0 0.337,-0.032 0.489,-0.096 0.156,-0.06 0.292,-0.148 0.408,-0.26 0.12,-0.112 0.212,-0.244 0.28,-0.396 0.068,-0.152 0.1,-0.316 0.1,-0.496 0,-0.18 -0.032,-0.348 -0.1,-0.5 -0.068,-0.152 -0.16,-0.284 -0.28,-0.397 -0.116,-0.112 -0.252,-0.196 -0.408,-0.26 -0.152,-0.06 -0.316,-0.092 -0.489,-0.092 -0.172,0 -0.336,0.032 -0.488,0.092 -0.156,0.064 -0.292,0.148 -0.408,0.26 -0.116,0.113 -0.208,0.245 -0.276,0.397 -0.068,0.152 -0.1,0.32 -0.1,0.5 z m -1.229,0 c 0,-0.336 0.06,-0.648 0.184,-0.941 0.125,-0.288 0.297,-0.544 0.517,-0.76 0.22,-0.216 0.484,-0.384 0.788,-0.504 0.308,-0.124 0.644,-0.184 1.012,-0.184 0.365,0 0.701,0.06 1.009,0.184 0.308,0.12 0.572,0.288 0.792,0.504 0.224,0.216 0.396,0.472 0.52,0.76 0.124,0.293 0.189,0.605 0.189,0.941 0,0.336 -0.065,0.648 -0.189,0.936 -0.124,0.292 -0.296,0.544 -0.52,0.761 -0.22,0.216 -0.484,0.384 -0.792,0.508 -0.308,0.12 -0.644,0.18 -1.009,0.18 -0.368,0 -0.704,-0.06 -1.012,-0.18 -0.304,-0.124 -0.568,-0.292 -0.788,-0.508 -0.22,-0.217 -0.392,-0.469 -0.517,-0.761 -0.124,-0.288 -0.184,-0.6 -0.184,-0.936 z"
   id="path7639" /><path
   inkscape:connector-curvature="0"
   style="fill:#8c8c8c;fill-rule:nonzero"
   d="m 46.629,261.299 v 2.461 c 0,0.132 0.008,0.268 0.016,0.404 0.012,0.14 0.04,0.264 0.092,0.376 0.048,0.112 0.128,0.204 0.236,0.272 0.108,0.072 0.261,0.108 0.457,0.108 0.196,0 0.348,-0.036 0.452,-0.108 0.108,-0.068 0.184,-0.16 0.236,-0.272 0.052,-0.112 0.084,-0.236 0.092,-0.376 0.012,-0.136 0.016,-0.272 0.016,-0.404 v -2.461 h 1.172 v 2.625 c 0,0.704 -0.164,1.217 -0.484,1.541 -0.324,0.324 -0.816,0.484 -1.484,0.484 -0.669,0 -1.165,-0.16 -1.489,-0.484 -0.324,-0.324 -0.484,-0.837 -0.484,-1.541 v -2.625 z"
   id="path7641" /><path
   inkscape:connector-curvature="0"
   style="fill:#8c8c8c;fill-rule:nonzero"
   d="m 52.06,262.295 v 3.53 h -1.177 v -3.53 h -0.964 v -0.996 h 3.109 v 0.996 z"
   id="path7643" /><path
   inkscape:connector-curvature="0"
   style="fill:#8c8c8c;fill-rule:nonzero"
   d="m 56.121,262.295 h -1.396 v 0.757 h 1.32 v 0.996 h -1.32 v 0.78 h 1.396 v 0.997 h -2.573 v -4.526 h 2.573 z"
   id="path7645" /><path
   inkscape:connector-curvature="0"
   style="fill:#8c8c8c;fill-rule:nonzero"
   d="m 83.41,265.635 0.768,-4.526 h 1.165 l 0.908,2.413 0.901,-2.413 h 1.16 l 0.768,4.526 h -1.168 l -0.388,-2.605 -1.069,2.605 h -0.468 l -1.016,-2.605 -0.389,2.605 z"
   id="path7649" /><path
   inkscape:connector-curvature="0"
   style="fill:#8c8c8c;fill-rule:nonzero"
   d="m 90.853,263.374 c 0,0.18 0.032,0.344 0.1,0.496 0.068,0.152 0.16,0.284 0.276,0.396 0.116,0.112 0.252,0.2 0.404,0.26 0.156,0.064 0.321,0.096 0.493,0.096 0.172,0 0.332,-0.032 0.488,-0.096 0.152,-0.06 0.288,-0.148 0.408,-0.26 0.116,-0.112 0.208,-0.244 0.276,-0.396 0.068,-0.152 0.104,-0.316 0.104,-0.496 0,-0.18 -0.036,-0.348 -0.104,-0.5 -0.068,-0.152 -0.16,-0.284 -0.276,-0.397 -0.12,-0.112 -0.256,-0.196 -0.408,-0.26 -0.156,-0.06 -0.316,-0.092 -0.488,-0.092 -0.172,0 -0.337,0.032 -0.493,0.092 -0.152,0.064 -0.288,0.148 -0.404,0.26 -0.116,0.113 -0.208,0.245 -0.276,0.397 -0.068,0.152 -0.1,0.32 -0.1,0.5 z m -1.232,0 c 0,-0.336 0.064,-0.648 0.188,-0.941 0.124,-0.288 0.296,-0.544 0.516,-0.76 0.22,-0.216 0.48,-0.384 0.788,-0.504 0.304,-0.124 0.644,-0.184 1.013,-0.184 0.364,0 0.696,0.06 1.004,0.184 0.308,0.12 0.576,0.288 0.796,0.504 0.224,0.216 0.397,0.472 0.521,0.76 0.124,0.293 0.184,0.605 0.184,0.941 0,0.336 -0.06,0.648 -0.184,0.936 -0.124,0.292 -0.297,0.544 -0.521,0.761 -0.22,0.216 -0.488,0.384 -0.796,0.508 -0.308,0.12 -0.64,0.18 -1.004,0.18 -0.369,0 -0.709,-0.06 -1.013,-0.18 -0.308,-0.124 -0.568,-0.292 -0.788,-0.508 -0.22,-0.217 -0.392,-0.469 -0.516,-0.761 -0.124,-0.288 -0.188,-0.6 -0.188,-0.936 z"
   id="path7651" /><path
   inkscape:connector-curvature="0"
   style="fill:#8c8c8c;fill-rule:nonzero"
   d="m 96.551,264.638 h 0.273 c 0.204,0 0.384,-0.032 0.544,-0.096 0.16,-0.064 0.296,-0.152 0.404,-0.264 0.112,-0.112 0.196,-0.244 0.252,-0.4 0.06,-0.152 0.088,-0.32 0.088,-0.504 0,-0.18 -0.032,-0.348 -0.092,-0.504 -0.06,-0.156 -0.144,-0.292 -0.252,-0.405 -0.112,-0.112 -0.244,-0.2 -0.404,-0.264 -0.16,-0.064 -0.34,-0.096 -0.54,-0.096 h -0.273 z m -1.176,-3.529 h 1.741 c 0.308,0 0.596,0.064 0.868,0.188 0.268,0.124 0.504,0.288 0.708,0.496 0.2,0.204 0.361,0.444 0.477,0.721 0.116,0.272 0.172,0.56 0.172,0.86 0,0.296 -0.056,0.58 -0.168,0.852 -0.116,0.276 -0.273,0.516 -0.477,0.725 -0.2,0.208 -0.436,0.376 -0.708,0.5 -0.268,0.124 -0.56,0.184 -0.872,0.184 h -1.741 z"
   id="path7653" /><path
   inkscape:connector-curvature="0"
   style="fill:#8c8c8c;fill-rule:nonzero"
   d="m 102.666,262.105 h -1.397 v 0.757 h 1.317 v 0.996 h -1.317 v 0.78 h 1.397 v 0.997 h -2.573 v -4.526 h 2.573 z"
   id="path7655" /><path
   inkscape:connector-curvature="0"
   style="fill:#8c8c8c;fill-rule:nonzero"
   d="m 104.687,261.109 v 3.529 h 1.412 v 0.997 h -2.589 v -4.526 z"
   id="path7657" /><path
   inkscape:connector-curvature="0"
   style="fill:#8c8c8c;fill-rule:nonzero"
   d="m 111.23,262.269 c -0.129,-0.104 -0.257,-0.18 -0.385,-0.232 -0.128,-0.048 -0.252,-0.076 -0.372,-0.076 -0.152,0 -0.276,0.036 -0.372,0.108 -0.096,0.072 -0.144,0.168 -0.144,0.284 0,0.08 0.024,0.144 0.072,0.197 0.048,0.052 0.108,0.1 0.188,0.136 0.076,0.04 0.164,0.072 0.264,0.1 0.096,0.028 0.196,0.056 0.292,0.088 0.385,0.128 0.665,0.3 0.841,0.512 0.18,0.216 0.268,0.496 0.268,0.84 0,0.232 -0.04,0.44 -0.116,0.628 -0.08,0.189 -0.192,0.349 -0.344,0.485 -0.148,0.132 -0.333,0.236 -0.553,0.312 -0.216,0.072 -0.464,0.108 -0.74,0.108 -0.572,0 -1.1,-0.168 -1.589,-0.508 l 0.505,-0.949 c 0.176,0.156 0.348,0.272 0.52,0.348 0.172,0.076 0.344,0.116 0.512,0.116 0.192,0 0.332,-0.044 0.428,-0.132 0.092,-0.088 0.14,-0.188 0.14,-0.3 0,-0.068 -0.012,-0.128 -0.036,-0.18 -0.024,-0.048 -0.064,-0.096 -0.12,-0.136 -0.056,-0.044 -0.128,-0.08 -0.22,-0.116 -0.088,-0.036 -0.196,-0.076 -0.324,-0.12 -0.152,-0.048 -0.3,-0.104 -0.448,-0.16 -0.144,-0.06 -0.276,-0.136 -0.388,-0.232 -0.116,-0.096 -0.208,-0.216 -0.276,-0.36 -0.072,-0.148 -0.108,-0.332 -0.108,-0.557 0,-0.224 0.04,-0.428 0.112,-0.608 0.076,-0.184 0.18,-0.34 0.312,-0.468 0.136,-0.132 0.3,-0.232 0.492,-0.304 0.192,-0.072 0.412,-0.108 0.652,-0.108 0.224,0 0.456,0.032 0.7,0.092 0.245,0.064 0.481,0.152 0.705,0.272 z"
   id="path7659" /><path
   inkscape:connector-curvature="0"
   style="fill:#8c8c8c;fill-rule:nonzero"
   d="m 115.195,262.105 h -1.4 v 0.757 h 1.32 v 0.996 h -1.32 v 0.78 h 1.4 v 0.997 h -2.577 v -4.526 h 2.577 z"
   id="path7661" /><path
   inkscape:connector-curvature="0"
   style="fill:#8c8c8c;fill-rule:nonzero"
   d="m 117.216,261.109 v 3.529 h 1.409 v 0.997 h -2.585 v -4.526 z"
   id="path7663" /><path
   inkscape:connector-curvature="0"
   style="fill:#8c8c8c;fill-rule:nonzero"
   d="m 121.806,262.105 h -1.397 v 0.757 h 1.317 v 0.996 h -1.317 v 0.78 h 1.397 v 0.997 h -2.573 v -4.526 h 2.573 z"
   id="path7665" /><path
   inkscape:connector-curvature="0"
   style="fill:#8c8c8c;fill-rule:nonzero"
   d="m 125.912,262.622 c -0.272,-0.333 -0.609,-0.497 -1.009,-0.497 -0.176,0 -0.34,0.032 -0.492,0.096 -0.148,0.064 -0.276,0.152 -0.384,0.26 -0.108,0.113 -0.192,0.241 -0.256,0.393 -0.06,0.152 -0.092,0.316 -0.092,0.492 0,0.18 0.032,0.348 0.092,0.5 0.064,0.152 0.148,0.284 0.26,0.396 0.108,0.112 0.236,0.2 0.384,0.264 0.148,0.064 0.308,0.096 0.48,0.096 0.376,0 0.717,-0.16 1.017,-0.48 v 1.393 l -0.12,0.04 c -0.18,0.064 -0.349,0.112 -0.505,0.14 -0.156,0.032 -0.312,0.044 -0.464,0.044 -0.312,0 -0.612,-0.056 -0.896,-0.176 -0.284,-0.116 -0.536,-0.284 -0.756,-0.496 -0.217,-0.217 -0.393,-0.469 -0.525,-0.765 -0.132,-0.292 -0.2,-0.612 -0.2,-0.96 0,-0.348 0.068,-0.668 0.196,-0.957 0.132,-0.292 0.304,-0.54 0.525,-0.752 0.216,-0.208 0.468,-0.372 0.756,-0.492 0.288,-0.116 0.592,-0.176 0.908,-0.176 0.18,0 0.356,0.02 0.528,0.056 0.176,0.04 0.361,0.096 0.553,0.176 z"
   id="path7667" /><path
   inkscape:connector-curvature="0"
   style="fill:#8c8c8c;fill-rule:nonzero"
   d="m 128.369,262.105 v 3.53 h -1.177 v -3.53 h -0.964 v -0.996 h 3.109 v 0.996 z"
   id="path7669" /><rect
   style="fill:#ffffff"
   height="4.526"
   width="1.176"
   y="285.203"
   x="31.941"
   id="rect7673" /><path
   inkscape:connector-curvature="0"
   style="fill:#ffffff;fill-rule:nonzero"
   d="m 34.066,289.729 v -4.526 h 1.177 l 2.173,2.769 v -2.769 h 1.168 v 4.526 h -1.168 l -2.173,-2.765 v 2.765 z"
   id="path7675" /><path
   inkscape:connector-curvature="0"
   style="fill:#ffffff;fill-rule:nonzero"
   d="m 40.709,288.732 h 0.272 c 0.2,0 0.384,-0.032 0.544,-0.096 0.16,-0.064 0.296,-0.152 0.404,-0.264 0.112,-0.112 0.197,-0.244 0.253,-0.4 0.06,-0.152 0.088,-0.32 0.088,-0.504 0,-0.18 -0.032,-0.348 -0.092,-0.504 -0.06,-0.156 -0.145,-0.292 -0.253,-0.405 -0.112,-0.112 -0.248,-0.2 -0.408,-0.264 -0.16,-0.064 -0.34,-0.096 -0.536,-0.096 h -0.272 z m -1.177,-3.529 h 1.741 c 0.308,0 0.596,0.064 0.869,0.188 0.268,0.124 0.504,0.288 0.708,0.496 0.2,0.204 0.36,0.444 0.476,0.721 0.116,0.272 0.172,0.56 0.172,0.86 0,0.296 -0.056,0.58 -0.168,0.852 -0.116,0.276 -0.272,0.516 -0.476,0.725 -0.2,0.208 -0.436,0.376 -0.708,0.5 -0.269,0.124 -0.561,0.184 -0.873,0.184 h -1.741 z"
   id="path7677" /><rect
   style="fill:#ffffff"
   height="4.526"
   width="1.176"
   y="285.203"
   x="44.25"
   id="rect7679" /><path
   inkscape:connector-curvature="0"
   style="fill:#ffffff;fill-rule:nonzero"
   d="m 47.176,285.203 1.092,2.757 1.101,-2.757 h 1.276 l -1.909,4.526 H 47.8 l -1.901,-4.526 z"
   id="path7681" /><rect
   style="fill:#ffffff"
   height="4.526"
   width="1.176"
   y="285.203"
   x="51.117001"
   id="rect7683" /><path
   inkscape:connector-curvature="0"
   style="fill:#ffffff;fill-rule:nonzero"
   d="m 54.419,288.732 h 0.272 c 0.204,0 0.384,-0.032 0.544,-0.096 0.16,-0.064 0.296,-0.152 0.404,-0.264 0.112,-0.112 0.196,-0.244 0.252,-0.4 0.06,-0.152 0.088,-0.32 0.088,-0.504 0,-0.18 -0.032,-0.348 -0.092,-0.504 -0.06,-0.156 -0.144,-0.292 -0.252,-0.405 -0.112,-0.112 -0.244,-0.2 -0.404,-0.264 -0.16,-0.064 -0.34,-0.096 -0.54,-0.096 h -0.272 z m -1.177,-3.529 h 1.741 c 0.308,0 0.596,0.064 0.868,0.188 0.268,0.124 0.504,0.288 0.709,0.496 0.2,0.204 0.36,0.444 0.476,0.721 0.116,0.272 0.172,0.56 0.172,0.86 0,0.296 -0.056,0.58 -0.168,0.852 -0.116,0.276 -0.272,0.516 -0.476,0.725 -0.201,0.208 -0.437,0.376 -0.709,0.5 -0.268,0.124 -0.56,0.184 -0.872,0.184 h -1.741 z"
   id="path7685" /><path
   inkscape:connector-curvature="0"
   style="fill:#ffffff;fill-rule:nonzero"
   d="m 59.137,285.203 v 2.461 c 0,0.132 0.004,0.268 0.012,0.404 0.012,0.14 0.04,0.264 0.092,0.376 0.048,0.112 0.128,0.204 0.236,0.272 0.108,0.072 0.26,0.108 0.456,0.108 0.196,0 0.348,-0.036 0.452,-0.108 0.108,-0.068 0.184,-0.16 0.236,-0.272 0.052,-0.112 0.084,-0.236 0.096,-0.376 0.008,-0.136 0.012,-0.272 0.012,-0.404 v -2.461 h 1.173 v 2.625 c 0,0.704 -0.16,1.217 -0.484,1.541 -0.321,0.324 -0.817,0.484 -1.485,0.484 -0.668,0 -1.165,-0.16 -1.489,-0.484 -0.324,-0.324 -0.484,-0.837 -0.484,-1.541 v -2.625 z"
   id="path7687" /><path
   inkscape:connector-curvature="0"
   style="fill:#ffffff;fill-rule:nonzero"
   d="m 65.159,288.048 -0.528,-1.505 -0.528,1.505 z m 0.312,0.896 h -1.68 l -0.269,0.785 h -1.256 l 1.725,-4.526 h 1.28 l 1.725,4.526 h -1.257 z"
   id="path7689" /><path
   inkscape:connector-curvature="0"
   style="fill:#ffffff;fill-rule:nonzero"
   d="m 68.689,285.203 v 3.529 h 1.408 v 0.997 h -2.585 v -4.526 z"
   id="path7691" /><rect
   style="fill:#ffffff"
   height="4.526"
   width="1.176"
   y="296.383"
   x="31.995001"
   id="rect7695" /><path
   inkscape:connector-curvature="0"
   style="fill:#ffffff;fill-rule:nonzero"
   d="m 34.12,300.909 v -4.526 h 1.177 l 2.173,2.769 v -2.769 h 1.168 v 4.526 H 37.47 l -2.173,-2.765 v 2.765 z"
   id="path7697" /><path
   inkscape:connector-curvature="0"
   style="fill:#ffffff;fill-rule:nonzero"
   d="m 40.391,296.383 1.092,2.757 1.097,-2.757 h 1.28 l -1.908,4.526 h -0.937 l -1.901,-4.526 z"
   id="path7699" /><path
   inkscape:connector-curvature="0"
   style="fill:#ffffff;fill-rule:nonzero"
   d="m 46.906,297.379 h -1.397 v 0.757 h 1.321 v 0.996 h -1.321 v 0.78 h 1.397 v 0.997 h -2.573 v -4.526 h 2.573 z"
   id="path7701" /><path
   inkscape:connector-curvature="0"
   style="fill:#ffffff;fill-rule:nonzero"
   d="m 48.93,298.408 h 0.221 c 0.232,0 0.412,-0.048 0.536,-0.144 0.124,-0.096 0.184,-0.236 0.184,-0.416 0,-0.181 -0.06,-0.317 -0.184,-0.413 -0.124,-0.096 -0.304,-0.144 -0.536,-0.144 H 48.93 Z m 2.585,2.501 h -1.464 l -1.121,-1.741 v 1.741 h -1.176 v -4.526 h 1.829 c 0.252,0 0.472,0.04 0.66,0.112 0.188,0.076 0.344,0.176 0.464,0.304 0.124,0.128 0.216,0.276 0.276,0.444 0.064,0.168 0.092,0.348 0.092,0.541 0,0.344 -0.08,0.624 -0.248,0.836 -0.164,0.212 -0.408,0.36 -0.732,0.436 z"
   id="path7703" /><path
   inkscape:connector-curvature="0"
   style="fill:#ffffff;fill-rule:nonzero"
   d="m 54.493,297.543 c -0.128,-0.104 -0.256,-0.18 -0.384,-0.232 -0.128,-0.048 -0.253,-0.076 -0.373,-0.076 -0.152,0 -0.276,0.036 -0.372,0.108 -0.096,0.072 -0.144,0.168 -0.144,0.284 0,0.08 0.024,0.144 0.072,0.197 0.048,0.052 0.108,0.1 0.188,0.136 0.076,0.04 0.164,0.072 0.264,0.1 0.096,0.028 0.196,0.056 0.293,0.088 0.384,0.128 0.664,0.3 0.84,0.512 0.18,0.216 0.268,0.496 0.268,0.84 0,0.232 -0.04,0.44 -0.116,0.628 -0.08,0.189 -0.192,0.349 -0.344,0.485 -0.148,0.132 -0.332,0.236 -0.552,0.312 -0.217,0.072 -0.465,0.108 -0.741,0.108 -0.572,0 -1.1,-0.168 -1.588,-0.508 l 0.504,-0.949 c 0.176,0.156 0.348,0.272 0.52,0.348 0.172,0.076 0.344,0.116 0.512,0.116 0.192,0 0.332,-0.044 0.428,-0.132 0.092,-0.088 0.14,-0.188 0.14,-0.3 0,-0.068 -0.012,-0.128 -0.036,-0.18 -0.024,-0.048 -0.064,-0.096 -0.12,-0.136 -0.056,-0.044 -0.128,-0.08 -0.22,-0.116 -0.088,-0.036 -0.196,-0.076 -0.324,-0.12 -0.152,-0.048 -0.3,-0.104 -0.448,-0.16 -0.144,-0.06 -0.276,-0.136 -0.388,-0.232 -0.116,-0.096 -0.208,-0.216 -0.276,-0.36 -0.072,-0.148 -0.108,-0.332 -0.108,-0.557 0,-0.224 0.04,-0.428 0.112,-0.608 0.076,-0.184 0.18,-0.34 0.312,-0.468 0.136,-0.132 0.3,-0.232 0.492,-0.304 0.196,-0.072 0.412,-0.108 0.652,-0.108 0.224,0 0.457,0.032 0.701,0.092 0.244,0.064 0.48,0.152 0.704,0.272 z"
   id="path7705" /><path
   inkscape:connector-curvature="0"
   style="fill:#ffffff;fill-rule:nonzero"
   d="m 58.458,297.379 h -1.4 v 0.757 h 1.32 v 0.996 h -1.32 v 0.78 h 1.4 v 0.997 h -2.577 v -4.526 h 2.577 z"
   id="path7707" /><path
   inkscape:connector-curvature="0"
   style="fill:#1a0000;stroke:#350000;stroke-width:1px;stroke-miterlimit:1.41420996"
   d="m 143.249,319.674 c 0,-3.321 -2.697,-6.018 -6.018,-6.018 H 90.085 c -3.321,0 -6.018,2.697 -6.018,6.018 v 31.59 c 0,3.322 2.697,6.019 6.018,6.019 h 47.146 c 3.321,0 6.018,-2.697 6.018,-6.019 z"
   id="path7711" /><rect
   style="fill:#ffffff"
   height="6.0349998"
   width="1.569"
   y="349.57501"
   x="25.395"
   id="rect7715" /><path
   inkscape:connector-curvature="0"
   style="fill:#ffffff;fill-rule:nonzero"
   d="m 28.228,355.61 v -6.035 h 1.568 l 2.898,3.69 v -3.69 h 1.56 v 6.035 h -1.56 l -2.898,-3.69 v 3.69 z"
   id="path7717" /><path
   inkscape:connector-curvature="0"
   style="fill:#ffffff;fill-rule:nonzero"
   d="m 37.087,352.344 h 0.521 c 0.576,0 0.864,-0.252 0.864,-0.752 0,-0.5 -0.288,-0.752 -0.864,-0.752 h -0.521 z m 0,3.266 h -1.568 v -6.035 h 2.497 c 0.676,0 1.196,0.176 1.556,0.529 0.361,0.352 0.541,0.848 0.541,1.488 0,0.64 -0.18,1.137 -0.541,1.489 -0.36,0.352 -0.88,0.528 -1.556,0.528 h -0.929 z"
   id="path7719" /><path
   inkscape:connector-curvature="0"
   style="fill:#ffffff;fill-rule:nonzero"
   d="m 42.514,349.575 v 3.282 c 0,0.176 0.008,0.356 0.02,0.54 0.012,0.184 0.052,0.352 0.12,0.5 0.068,0.148 0.172,0.272 0.316,0.364 0.144,0.092 0.348,0.14 0.608,0.14 0.26,0 0.464,-0.048 0.604,-0.14 0.14,-0.092 0.248,-0.216 0.316,-0.364 0.069,-0.148 0.113,-0.316 0.125,-0.5 0.012,-0.184 0.02,-0.364 0.02,-0.54 v -3.282 h 1.56 v 3.498 c 0,0.94 -0.216,1.624 -0.644,2.057 -0.428,0.432 -1.089,0.648 -1.981,0.648 -0.892,0 -1.553,-0.216 -1.985,-0.648 -0.432,-0.433 -0.648,-1.117 -0.648,-2.057 v -3.498 z"
   id="path7721" /><path
   inkscape:connector-curvature="0"
   style="fill:#ffffff;fill-rule:nonzero"
   d="m 49.757,350.904 v 4.706 h -1.569 v -4.706 h -1.289 v -1.329 h 4.146 v 1.329 z"
   id="path7723" /><path
   inkscape:connector-curvature="0"
   style="fill:#ffffff;fill-rule:nonzero"
   d="m 98.235,352.593 c 0,0.24 0.044,0.464 0.136,0.664 0.088,0.204 0.212,0.38 0.368,0.528 0.152,0.152 0.332,0.264 0.54,0.348 0.204,0.084 0.42,0.124 0.653,0.124 0.228,0 0.444,-0.04 0.652,-0.124 0.204,-0.084 0.384,-0.196 0.54,-0.348 0.16,-0.148 0.284,-0.324 0.372,-0.528 0.092,-0.2 0.136,-0.424 0.136,-0.664 0,-0.241 -0.044,-0.461 -0.136,-0.665 -0.088,-0.2 -0.212,-0.376 -0.372,-0.528 -0.156,-0.148 -0.336,-0.264 -0.54,-0.348 -0.208,-0.08 -0.424,-0.124 -0.652,-0.124 -0.233,0 -0.449,0.044 -0.653,0.124 -0.208,0.084 -0.388,0.2 -0.54,0.348 -0.156,0.152 -0.28,0.328 -0.368,0.528 -0.092,0.204 -0.136,0.424 -0.136,0.665 z m -1.641,0 c 0,-0.449 0.084,-0.865 0.248,-1.253 0.164,-0.384 0.396,-0.72 0.689,-1.008 0.292,-0.289 0.644,-0.517 1.052,-0.677 0.408,-0.164 0.856,-0.244 1.349,-0.244 0.484,0 0.932,0.08 1.34,0.244 0.412,0.16 0.764,0.388 1.061,0.677 0.296,0.288 0.528,0.624 0.692,1.008 0.168,0.388 0.248,0.804 0.248,1.253 0,0.448 -0.08,0.868 -0.248,1.252 -0.164,0.388 -0.396,0.724 -0.692,1.012 -0.297,0.289 -0.649,0.513 -1.061,0.677 -0.408,0.164 -0.856,0.244 -1.34,0.244 -0.493,0 -0.941,-0.08 -1.349,-0.244 -0.408,-0.164 -0.76,-0.388 -1.052,-0.677 -0.293,-0.288 -0.525,-0.624 -0.689,-1.012 -0.164,-0.384 -0.248,-0.804 -0.248,-1.252 z"
   id="path7728" /><path
   inkscape:connector-curvature="0"
   style="fill:#ffffff;fill-rule:nonzero"
   d="m 105.834,349.579 v 3.278 c 0,0.176 0.008,0.356 0.02,0.54 0.012,0.184 0.052,0.352 0.12,0.5 0.068,0.148 0.172,0.272 0.316,0.364 0.144,0.092 0.348,0.14 0.608,0.14 0.261,0 0.465,-0.048 0.605,-0.14 0.14,-0.092 0.244,-0.216 0.316,-0.364 0.068,-0.148 0.108,-0.316 0.124,-0.5 0.012,-0.184 0.02,-0.364 0.02,-0.54 v -3.278 h 1.561 v 3.494 c 0,0.94 -0.217,1.624 -0.645,2.057 -0.432,0.432 -1.092,0.648 -1.981,0.648 -0.892,0 -1.552,-0.216 -1.984,-0.648 -0.433,-0.433 -0.649,-1.117 -0.649,-2.057 v -3.494 z"
   id="path7730" /><path
   inkscape:connector-curvature="0"
   style="fill:#ffffff;fill-rule:nonzero"
   d="m 113.073,350.904 v 4.706 h -1.569 v -4.706 h -1.284 v -1.325 h 4.142 v 1.325 z"
   id="path7732" /><path
   inkscape:connector-curvature="0"
   style="fill:#ffffff;fill-rule:nonzero"
   d="m 116.626,352.344 h 0.521 c 0.576,0 0.864,-0.248 0.864,-0.752 0,-0.5 -0.288,-0.752 -0.864,-0.752 h -0.521 z m 0,3.266 h -1.568 v -6.031 h 2.497 c 0.676,0 1.196,0.176 1.556,0.529 0.361,0.352 0.541,0.844 0.541,1.484 0,0.64 -0.18,1.137 -0.541,1.489 -0.36,0.352 -0.88,0.528 -1.556,0.528 h -0.929 z"
   id="path7734" /><path
   inkscape:connector-curvature="0"
   style="fill:#ffffff;fill-rule:nonzero"
   d="m 122.049,349.579 v 3.278 c 0,0.176 0.008,0.356 0.02,0.54 0.016,0.184 0.056,0.352 0.12,0.5 0.068,0.148 0.172,0.272 0.316,0.364 0.144,0.092 0.348,0.14 0.608,0.14 0.264,0 0.464,-0.048 0.604,-0.14 0.14,-0.092 0.249,-0.216 0.317,-0.364 0.068,-0.148 0.112,-0.316 0.124,-0.5 0.012,-0.184 0.02,-0.364 0.02,-0.54 v -3.278 h 1.56 v 3.494 c 0,0.94 -0.216,1.624 -0.644,2.057 -0.428,0.432 -1.088,0.648 -1.981,0.648 -0.888,0 -1.552,-0.216 -1.985,-0.648 -0.432,-0.433 -0.648,-1.117 -0.648,-2.057 v -3.494 z"
   id="path7736" /><path
   inkscape:connector-curvature="0"
   style="fill:#ffffff;fill-rule:nonzero"
   d="m 129.292,350.904 v 4.706 h -1.569 v -4.706 h -1.288 v -1.325 h 4.141 v 1.325 z"
   id="path7738" /><path
   inkscape:connector-curvature="0"
   style="fill:#8c8c8c;fill-rule:nonzero"
   d="m 22.714,315.474 v 3.529 h 1.412 V 320 h -2.589 v -4.526 z"
   id="path7743" /><path
   inkscape:connector-curvature="0"
   style="fill:#8c8c8c;fill-rule:nonzero"
   d="m 51.714,317.499 h 0.224 c 0.232,0 0.408,-0.048 0.532,-0.144 0.124,-0.096 0.188,-0.236 0.188,-0.416 0,-0.181 -0.064,-0.317 -0.188,-0.413 -0.124,-0.096 -0.3,-0.144 -0.532,-0.144 H 51.714 Z M 54.303,320 h -1.465 l -1.124,-1.741 V 320 h -1.177 v -4.526 h 1.833 c 0.252,0 0.472,0.04 0.66,0.112 0.188,0.076 0.34,0.176 0.464,0.304 0.12,0.128 0.213,0.276 0.277,0.444 0.06,0.168 0.092,0.348 0.092,0.541 0,0.344 -0.084,0.624 -0.249,0.836 -0.168,0.212 -0.412,0.36 -0.736,0.436 z"
   id="path7747" /><path
   inkscape:connector-curvature="0"
   style="fill:#8c8c8c;fill-rule:nonzero"
   d="m 99.714,315.474 v 3.529 h 1.412 V 320 h -2.589 v -4.526 z"
   id="path7751" /><path
   inkscape:connector-curvature="0"
   style="fill:#8c8c8c;fill-rule:nonzero"
   d="m 125.714,317.499 h 0.224 c 0.232,0 0.408,-0.048 0.532,-0.144 0.124,-0.096 0.188,-0.236 0.188,-0.416 0,-0.181 -0.064,-0.317 -0.188,-0.413 -0.124,-0.096 -0.3,-0.144 -0.532,-0.144 h -0.224 z m 2.589,2.501 h -1.465 l -1.124,-1.741 V 320 h -1.177 v -4.526 h 1.833 c 0.252,0 0.472,0.04 0.66,0.112 0.188,0.076 0.34,0.176 0.464,0.304 0.12,0.128 0.213,0.276 0.277,0.444 0.06,0.168 0.092,0.348 0.092,0.541 0,0.344 -0.084,0.624 -0.249,0.836 -0.168,0.212 -0.412,0.36 -0.736,0.436 z"
   id="path7755" /><path
   inkscape:connector-curvature="0"
   style="stroke:#0d0d0d;stroke-width:0.99000001px;stroke-linecap:round;stroke-linejoin:round;stroke-miterlimit:1.5"
   d="m 134.026,230.453 c 0,-1.354 -1.099,-2.452 -2.451,-2.452 H 18.477 c -1.353,0 -2.451,1.098 -2.451,2.452 v 25.095 c 0,1.354 1.098,2.452 2.451,2.452 h 113.098 c 1.352,0 2.451,-1.098 2.451,-2.452 z"
   id="path7759" /><path
   inkscape:connector-curvature="0"
   style="fill:none;stroke:#404040;stroke-width:0.5px;stroke-linecap:round;stroke-linejoin:round;stroke-miterlimit:1.5;stroke-opacity:0.46666703"
   d="M 17.533,229.188 H 132.826"
   id="path7763" /><path
   inkscape:connector-curvature="0"
   style="fill:none;stroke:#404040;stroke-width:0.5px;stroke-linecap:round;stroke-linejoin:round;stroke-miterlimit:1.5;stroke-opacity:0.46666703"
   d="M 17.533,256.812 H 132.826"
   id="path7767" /><path
   inkscape:connector-curvature="0"
   style="fill:none;stroke:#808080;stroke-width:0.99000001px;stroke-linecap:round;stroke-linejoin:round;stroke-miterlimit:1.5"
   d="m 133.302,231.126 c 0,-1.28 -1.04,-2.318 -2.319,-2.318 H 19.104 c -1.279,0 -2.319,1.038 -2.319,2.318 v 23.726 c 0,1.28 1.04,2.318 2.319,2.318 h 111.879 c 1.279,0 2.319,-1.038 2.319,-2.318 z"
   id="path7771" /><path
   inkscape:connector-curvature="0"
   style="fill:none;stroke:#cccccc;stroke-width:1px;stroke-linecap:round"
   d="m 140.904,78.662 c 2.737,-4.742 1.664,-10.824 -2.534,-14.346 -4.193,-3.521 -10.372,-3.521 -14.566,0 -4.197,3.522 -5.27,9.604 -2.533,14.346 l 9.816,-5.666 z"
   id="path7777" /><path
   inkscape:connector-curvature="0"
   style="fill:#cccccc;fill-rule:nonzero;stroke:#cccccc;stroke-width:1px;stroke-linecap:round"
   d="m 140.531,79.859 0.024,4.409"
   id="path7780" /><path
   inkscape:connector-curvature="0"
   style="fill:#cccccc;fill-rule:nonzero;stroke:#cccccc;stroke-width:1px;stroke-linecap:round"
   d="m 142.748,82.032 -4.41,0.02"
   id="path7783" /><path
   inkscape:connector-curvature="0"
   style="fill:#cccccc;fill-rule:nonzero;stroke:#cccccc;stroke-width:1px;stroke-linecap:round"
   d="m 124.429,81.908 -4.414,0.02"
   id="path7786" /><path
   inkscape:connector-curvature="0"
   style="fill:none;stroke:#cccccc;stroke-width:1px;stroke-linecap:round"
   d="M 131.087,73 131.063,59.69"
   id="path7789" /><path
   inkscape:connector-curvature="0"
   style="fill:none;stroke:#cccccc;stroke-width:1px;stroke-linecap:round"
   d="M 28.903,78.662 C 31.64,73.92 30.568,67.838 26.37,64.316 c -4.194,-3.521 -10.372,-3.521 -14.566,0 -4.198,3.522 -5.27,9.604 -2.533,14.346 l 9.816,-5.666 z"
   id="path7794" /><path
   inkscape:connector-curvature="0"
   style="fill:#cccccc;fill-rule:nonzero;stroke:#cccccc;stroke-width:1px;stroke-linecap:round"
   d="m 28.531,79.859 0.024,4.409"
   id="path7797" /><path
   inkscape:connector-curvature="0"
   style="fill:#cccccc;fill-rule:nonzero;stroke:#cccccc;stroke-width:1px;stroke-linecap:round"
   d="m 30.748,82.032 -4.41,0.02"
   id="path7800" /><path
   inkscape:connector-curvature="0"
   style="fill:#cccccc;fill-rule:nonzero;stroke:#cccccc;stroke-width:1px;stroke-linecap:round"
   d="m 12.428,81.908 -4.414,0.02"
   id="path7803" /><path
   inkscape:connector-curvature="0"
   style="fill:none;stroke:#cccccc;stroke-width:1px;stroke-linecap:round"
   d="M 19.087,73 19.063,59.69"
   id="path7806" /><g
   id="g34644">
      <g
   id="g34641">
        <path
   inkscape:connector-curvature="0"
   style="fill:#cccccc;fill-rule:nonzero;stroke:#cccccc;stroke-width:1px;stroke-linecap:round"
   d="m 61.531,213.859 0.024,4.41"
   id="path7809" />
        <path
   inkscape:connector-curvature="0"
   style="fill:#cccccc;fill-rule:nonzero;stroke:#cccccc;stroke-width:1px;stroke-linecap:round"
   d="m 63.748,216.032 -4.41,0.02"
   id="path7812" />
        <path
   inkscape:connector-curvature="0"
   style="fill:#cccccc;fill-rule:nonzero;stroke:#cccccc;stroke-width:1px;stroke-linecap:round"
   d="m 45.429,215.908 -4.414,0.02"
   id="path7815" />
        <path
   inkscape:connector-curvature="0"
   style="fill:none;stroke:#cccccc;stroke-width:1px;stroke-linecap:round"
   d="m 61.904,212.662 c 2.737,-4.742 1.664,-10.824 -2.533,-14.346 -4.194,-3.521 -10.373,-3.521 -14.567,0 -4.197,3.522 -5.27,9.604 -2.533,14.346 l 9.816,-5.666 z"
   id="path7818" />
      </g>
      <path
   inkscape:connector-curvature="0"
   style="fill:none;stroke:#cccccc;stroke-width:1px;stroke-linecap:round"
   d="M 52.087,207 52.063,193.69"
   id="path7821" />
    </g><g
   id="g34653">
      <g
   id="g34650">
        <path
   inkscape:connector-curvature="0"
   style="fill:none;stroke:#cccccc;stroke-width:1px;stroke-linecap:round"
   d="m 107.904,212.662 c 2.737,-4.742 1.664,-10.824 -2.534,-14.346 -4.193,-3.521 -10.372,-3.521 -14.566,0 -4.197,3.522 -5.27,9.604 -2.533,14.346 l 9.816,-5.666 z"
   id="path7826" />
        <path
   inkscape:connector-curvature="0"
   style="fill:#cccccc;fill-rule:nonzero;stroke:#cccccc;stroke-width:1px;stroke-linecap:round"
   d="m 108.044,214.064 0.024,4.41"
   id="path7832" />
        <path
   inkscape:connector-curvature="0"
   style="fill:#cccccc;fill-rule:nonzero;stroke:#cccccc;stroke-width:1px;stroke-linecap:round"
   d="m 110.261,216.237 -4.41,0.02"
   id="path7835" />
        <path
   inkscape:connector-curvature="0"
   style="fill:#cccccc;fill-rule:nonzero;stroke:#cccccc;stroke-width:1px;stroke-linecap:round"
   d="m 91.942,216.113 -4.414,0.02"
   id="path7838" />
      </g>
      <path
   inkscape:connector-curvature="0"
   style="fill:none;stroke:#cccccc;stroke-width:1px;stroke-linecap:round"
   d="M 98.087,207 98.063,193.69"
   id="path7829" />
    </g><path
   inkscape:connector-curvature="0"
   style="fill:#ffffff;fill-rule:nonzero"
   d="m 19.546,116.177 -0.616,-1.757 -0.612,1.757 z m 0.364,1.044 h -1.957 l -0.316,0.917 h -1.464 l 2.009,-5.278 h 1.5 l 2.009,5.278 h -1.465 z"
   id="path7843" /><path
   inkscape:connector-curvature="0"
   style="fill:#ffffff;fill-rule:nonzero"
   d="m 130.894,117.21 h 0.3 c 0.348,0 0.592,-0.044 0.744,-0.132 0.148,-0.088 0.224,-0.232 0.224,-0.428 0,-0.196 -0.076,-0.336 -0.224,-0.428 -0.152,-0.088 -0.396,-0.132 -0.744,-0.132 h -0.3 z m 0,-2.141 h 0.252 c 0.428,0 0.644,-0.172 0.644,-0.512 0,-0.34 -0.216,-0.512 -0.644,-0.512 h -0.252 z m -1.373,-2.072 h 2.045 c 0.484,0 0.852,0.116 1.105,0.352 0.252,0.232 0.38,0.568 0.38,1.004 0,0.268 -0.048,0.488 -0.144,0.664 -0.096,0.173 -0.24,0.321 -0.437,0.445 0.197,0.036 0.361,0.092 0.501,0.172 0.136,0.076 0.248,0.172 0.336,0.28 0.084,0.112 0.148,0.24 0.184,0.38 0.036,0.14 0.056,0.288 0.056,0.448 0,0.248 -0.044,0.468 -0.128,0.656 -0.088,0.193 -0.208,0.353 -0.364,0.485 -0.156,0.132 -0.348,0.228 -0.573,0.296 -0.224,0.064 -0.476,0.096 -0.756,0.096 h -2.205 z"
   id="path7848" /><path
   inkscape:connector-curvature="0"
   style="fill:none;stroke:#595959;stroke-width:1px;stroke-linecap:round;stroke-linejoin:round;stroke-miterlimit:1.5"
   d="m 55.462,232.044 v 21.387"
   id="path7853" />
</svg>