<?xml version="1.0" encoding="UTF-8" standalone="no"?>
<svg
   xmlns:dc="http://purl.org/dc/elements/1.1/"
   xmlns:cc="http://creativecommons.org/ns#"
   xmlns:rdf="http://www.w3.org/1999/02/22-rdf-syntax-ns#"
   xmlns:svg="http://www.w3.org/2000/svg"
   xmlns="http://www.w3.org/2000/svg"
   xmlns:sodipodi="http://sodipodi.sourceforge.net/DTD/sodipodi-0.dtd"
   xmlns:inkscape="http://www.inkscape.org/namespaces/inkscape"
   width="150px"
   height="380px"
   version="1.1"
   xml:space="preserve"
   style="fill-rule:evenodd;clip-rule:evenodd;stroke-linecap:round;"
   id="svg37196"
   sodipodi:docname="Lateralus.svg"
   inkscape:version="0.92.3 (2405546, 2018-03-11)"><metadata
   id="metadata37200"><rdf:RDF><cc:Work
       rdf:about=""><dc:format>image/svg+xml</dc:format><dc:type
         rdf:resource="http://purl.org/dc/dcmitype/StillImage" /><dc:title></dc:title></cc:Work></rdf:RDF></metadata><sodipodi:namedview
   pagecolor="#ffffff"
   bordercolor="#666666"
   borderopacity="1"
   objecttolerance="10"
   gridtolerance="10"
   guidetolerance="10"
   inkscape:pageopacity="0"
   inkscape:pageshadow="2"
   inkscape:window-width="1920"
   inkscape:window-height="1017"
   id="namedview37198"
   showgrid="false"
   inkscape:zoom="2.2105263"
   inkscape:cx="75"
   inkscape:cy="190"
   inkscape:window-x="1912"
   inkscape:window-y="-8"
   inkscape:window-maximized="1"
   inkscape:current-layer="svg37196" />
  <defs
   id="defs37049">
    <linearGradient
   id="_Linear1"
   x1="0"
   y1="0"
   x2="1"
   y2="0"
   gradientUnits="userSpaceOnUse"
   gradientTransform="matrix(150,-379.998,379.998,150,3.28145e-4,379.998)">
      <stop
   offset="0"
   style="stop-color:#1e0000;stop-opacity:1"
   id="stop37044" />
      <stop
   offset="1"
   style="stop-color:#2b0000;stop-opacity:1"
   id="stop37046" />
    </linearGradient>
  
    
    
    
    
    
    
    
    
    
    
    
    
    
    
    
    
    
    
    
    
    
    
    
    
    
    
    
    
    
    
    
    
    
    
    
    
    
    
    
    
    
    
    
    
    
    
    
    
    
    
    
    
    
    
    
    
    
    
    
    
    
    
    
    
    
    
    
    
    
    
    
    
    
    
    
    
    
    
    
    
    
    
    
    
    
    
    
    
    
    
    
    
    
    
    
    
    
    
    
    
    
    
    
    
    
    
    
    
    
    
    
    
    
    
    
    
    
    
    
    
    
    
    
    
    
    
    
    
    
    
    
    
    
    
    
    
    
    
    
  </defs>
  <rect
   style="fill:#1a1a1a"
   height="380"
   width="150"
   y="0"
   x="0"
   id="rect9931" /><rect
   style="fill:url(#_Linear1)"
   height="379.99799"
   width="150"
   y="0"
   x="0"
   id="rect10105" /><path
   inkscape:connector-curvature="0"
   style="fill:none;stroke:#cccccc;stroke-width:1px"
   d="m 126.904,77.593 c 2.737,-4.742 1.664,-10.824 -2.534,-14.346 -4.193,-3.521 -10.372,-3.521 -14.566,0 -4.197,3.522 -5.27,9.604 -2.533,14.346 l 9.816,-5.666 z"
   id="path10108" /><path
   inkscape:connector-curvature="0"
   style="fill:#cccccc;fill-rule:nonzero;stroke:#cccccc;stroke-width:1px"
   d="m 126.531,78.79 0.024,4.409"
   id="path10111" /><path
   inkscape:connector-curvature="0"
   style="fill:#cccccc;fill-rule:nonzero;stroke:#cccccc;stroke-width:1px"
   d="m 128.748,80.963 -4.41,0.02"
   id="path10114" /><path
   inkscape:connector-curvature="0"
   style="fill:#cccccc;fill-rule:nonzero;stroke:#cccccc;stroke-width:1px"
   d="m 110.429,80.839 -4.414,0.02"
   id="path10117" /><path
   inkscape:connector-curvature="0"
   style="fill:none;stroke:#cccccc;stroke-width:1px"
   d="m 117.087,71.931 -0.024,-13.31"
   id="path10120" /><path
   inkscape:connector-curvature="0"
   style="fill:#ffffff;fill-rule:nonzero"
   d="m 44.683,123.163 c -0.364,-0.444 -0.812,-0.664 -1.345,-0.664 -0.236,0 -0.452,0.044 -0.652,0.128 -0.2,0.084 -0.372,0.2 -0.516,0.348 -0.144,0.148 -0.256,0.32 -0.34,0.524 -0.084,0.204 -0.124,0.42 -0.124,0.657 0,0.24 0.04,0.46 0.124,0.664 0.084,0.204 0.196,0.38 0.344,0.528 0.148,0.148 0.32,0.268 0.516,0.352 0.196,0.084 0.412,0.128 0.64,0.128 0.501,0 0.953,-0.212 1.353,-0.64 v 1.857 l -0.16,0.056 c -0.24,0.084 -0.464,0.148 -0.672,0.188 -0.209,0.04 -0.413,0.06 -0.617,0.06 -0.416,0 -0.816,-0.08 -1.196,-0.236 -0.38,-0.156 -0.717,-0.38 -1.009,-0.665 -0.292,-0.284 -0.524,-0.624 -0.7,-1.016 -0.176,-0.392 -0.264,-0.82 -0.264,-1.285 0,-0.464 0.088,-0.888 0.26,-1.276 0.172,-0.388 0.404,-0.72 0.696,-1 0.292,-0.281 0.629,-0.501 1.013,-0.657 0.384,-0.156 0.788,-0.236 1.208,-0.236 0.24,0 0.476,0.024 0.709,0.076 0.232,0.052 0.476,0.128 0.732,0.236 z"
   id="path10123" /><path
   inkscape:connector-curvature="0"
   style="fill:#ffffff;fill-rule:nonzero"
   d="m 47.244,121.146 v 3.282 c 0,0.176 0.008,0.356 0.02,0.54 0.012,0.184 0.052,0.352 0.12,0.5 0.068,0.148 0.172,0.272 0.316,0.364 0.144,0.092 0.348,0.14 0.608,0.14 0.26,0 0.465,-0.048 0.605,-0.14 0.14,-0.092 0.248,-0.216 0.316,-0.364 0.068,-0.148 0.112,-0.316 0.124,-0.5 0.012,-0.184 0.02,-0.364 0.02,-0.54 v -3.282 h 1.56 v 3.498 c 0,0.94 -0.216,1.624 -0.644,2.057 -0.428,0.432 -1.088,0.648 -1.981,0.648 -0.892,0 -1.552,-0.216 -1.984,-0.648 -0.433,-0.433 -0.649,-1.117 -0.649,-2.057 v -3.498 z"
   id="path10125" /><path
   inkscape:connector-curvature="0"
   style="fill:#ffffff;fill-rule:nonzero"
   d="m 54.487,122.475 v 4.706 h -1.569 v -4.706 H 51.63 v -1.329 h 4.145 v 1.329 z"
   id="path10127" /><path
   inkscape:connector-curvature="0"
   style="fill:#ffffff;fill-rule:nonzero"
   d="m 57.784,124.164 c 0,0.24 0.044,0.46 0.136,0.664 0.092,0.204 0.212,0.38 0.369,0.528 0.156,0.148 0.336,0.264 0.54,0.348 0.204,0.084 0.424,0.124 0.652,0.124 0.228,0 0.448,-0.04 0.652,-0.124 0.204,-0.084 0.388,-0.2 0.545,-0.348 0.156,-0.148 0.28,-0.324 0.372,-0.528 0.092,-0.204 0.136,-0.424 0.136,-0.664 0,-0.241 -0.044,-0.461 -0.136,-0.665 -0.092,-0.204 -0.216,-0.38 -0.372,-0.528 -0.157,-0.148 -0.341,-0.264 -0.545,-0.348 -0.204,-0.084 -0.424,-0.124 -0.652,-0.124 -0.228,0 -0.448,0.04 -0.652,0.124 -0.204,0.084 -0.384,0.2 -0.54,0.348 -0.157,0.148 -0.277,0.324 -0.369,0.528 -0.092,0.204 -0.136,0.424 -0.136,0.665 z m -1.64,0 c 0,-0.449 0.084,-0.865 0.248,-1.253 0.164,-0.388 0.396,-0.724 0.688,-1.012 0.292,-0.289 0.644,-0.513 1.052,-0.677 0.409,-0.164 0.857,-0.244 1.349,-0.244 0.484,0 0.932,0.08 1.345,0.244 0.412,0.164 0.764,0.388 1.06,0.677 0.296,0.288 0.528,0.624 0.692,1.012 0.164,0.388 0.248,0.804 0.248,1.253 0,0.448 -0.084,0.864 -0.248,1.252 -0.164,0.388 -0.396,0.724 -0.692,1.012 -0.296,0.289 -0.648,0.513 -1.06,0.677 -0.413,0.164 -0.861,0.244 -1.345,0.244 -0.492,0 -0.94,-0.08 -1.349,-0.244 -0.408,-0.164 -0.76,-0.388 -1.052,-0.677 -0.292,-0.288 -0.524,-0.624 -0.688,-1.012 -0.164,-0.388 -0.248,-0.804 -0.248,-1.252 z"
   id="path10129" /><path
   inkscape:connector-curvature="0"
   style="fill:#ffffff;fill-rule:nonzero"
   d="m 67.276,122.475 h -1.889 v 1.008 h 1.721 v 1.329 h -1.721 v 2.369 h -1.568 v -6.035 h 3.457 z"
   id="path10131" /><path
   inkscape:connector-curvature="0"
   style="fill:#ffffff;fill-rule:nonzero"
   d="m 71.67,122.475 h -1.889 v 1.008 h 1.721 v 1.329 h -1.721 v 2.369 h -1.568 v -6.035 h 3.457 z"
   id="path10133" /><path
   inkscape:connector-curvature="0"
   style="fill:none;stroke:#cccccc;stroke-width:1px"
   d="m 126.904,77.593 c 2.737,-4.742 1.664,-10.824 -2.534,-14.346 -4.193,-3.521 -10.372,-3.521 -14.566,0 -4.197,3.522 -5.27,9.604 -2.533,14.346 l 9.816,-5.666 z"
   id="path10138" /><path
   inkscape:connector-curvature="0"
   style="fill:#cccccc;fill-rule:nonzero;stroke:#cccccc;stroke-width:1px"
   d="m 126.531,78.79 0.024,4.409"
   id="path10141" /><path
   inkscape:connector-curvature="0"
   style="fill:#cccccc;fill-rule:nonzero;stroke:#cccccc;stroke-width:1px"
   d="m 128.748,80.963 -4.41,0.02"
   id="path10144" /><path
   inkscape:connector-curvature="0"
   style="fill:#cccccc;fill-rule:nonzero;stroke:#cccccc;stroke-width:1px"
   d="m 110.429,80.839 -4.414,0.02"
   id="path10147" /><path
   inkscape:connector-curvature="0"
   style="fill:none;stroke:#cccccc;stroke-width:1px"
   d="m 117.087,71.931 -0.024,-13.31"
   id="path10150" /><path
   inkscape:connector-curvature="0"
   style="fill:none;stroke:#cccccc;stroke-width:1.5px"
   d="M 84.739,103.173 C 92.96,88.93 89.742,70.664 77.144,60.092 64.547,49.526 45.995,49.526 33.397,60.092 20.8,70.664 17.582,88.93 25.803,103.173"
   id="path10153" /><circle
   style="fill:none;stroke:#cccccc;stroke-width:1px;stroke-linecap:butt"
   r="3.7060001"
   cy="112.44"
   cx="26.173"
   id="circle10156" /><circle
   style="fill:#cccccc;stroke:#cccccc;stroke-width:1px;stroke-linecap:butt"
   r="3.7060001"
   cy="111.928"
   cx="84.952003"
   id="circle10159" /><path
   inkscape:connector-curvature="0"
   style="fill:none;stroke:#cccccc;stroke-width:1px"
   d="m 126.904,155.662 c 2.737,-4.742 1.664,-10.824 -2.534,-14.346 -4.193,-3.521 -10.372,-3.521 -14.566,0 -4.197,3.522 -5.27,9.604 -2.533,14.346 l 9.816,-5.666 z"
   id="path10162" /><path
   inkscape:connector-curvature="0"
   style="fill:#cccccc;fill-rule:nonzero;stroke:#cccccc;stroke-width:1px"
   d="m 126.531,156.859 0.024,4.409"
   id="path10165" /><path
   inkscape:connector-curvature="0"
   style="fill:#cccccc;fill-rule:nonzero;stroke:#cccccc;stroke-width:1px"
   d="m 128.748,159.032 -4.41,0.02"
   id="path10168" /><path
   inkscape:connector-curvature="0"
   style="fill:#cccccc;fill-rule:nonzero;stroke:#cccccc;stroke-width:1px"
   d="m 110.429,158.908 -4.414,0.02"
   id="path10171" /><path
   inkscape:connector-curvature="0"
   style="fill:none;stroke:#cccccc;stroke-width:1px"
   d="m 117.087,150 -0.024,-13.31"
   id="path10174" /><path
   inkscape:connector-curvature="0"
   style="fill:#ffffff;fill-rule:nonzero"
   d="m 30.66,191.739 h 0.296 c 0.308,0 0.548,-0.064 0.712,-0.192 0.164,-0.128 0.248,-0.312 0.248,-0.552 0,-0.24 -0.084,-0.424 -0.248,-0.552 -0.164,-0.128 -0.404,-0.192 -0.712,-0.192 H 30.66 Z m 3.449,3.338 h -1.953 l -1.496,-2.321 v 2.321 h -1.569 v -6.035 h 2.441 c 0.336,0 0.628,0.048 0.881,0.148 0.252,0.1 0.456,0.232 0.62,0.405 0.164,0.172 0.284,0.368 0.368,0.592 0.084,0.224 0.124,0.464 0.124,0.72 0,0.46 -0.112,0.832 -0.332,1.117 -0.22,0.284 -0.548,0.48 -0.981,0.58 z"
   id="path10177" /><path
   inkscape:connector-curvature="0"
   style="fill:#ffffff;fill-rule:nonzero"
   d="m 38.199,190.371 h -1.865 v 1.008 h 1.761 v 1.329 h -1.761 v 1.04 h 1.865 v 1.329 h -3.433 v -6.035 h 3.433 z"
   id="path10179" /><path
   inkscape:connector-curvature="0"
   style="fill:#ffffff;fill-rule:nonzero"
   d="m 42.641,190.587 c -0.172,-0.14 -0.34,-0.24 -0.512,-0.308 -0.173,-0.068 -0.337,-0.1 -0.497,-0.1 -0.204,0 -0.368,0.048 -0.496,0.144 -0.128,0.096 -0.192,0.22 -0.192,0.376 0,0.108 0.032,0.196 0.096,0.264 0.064,0.068 0.148,0.128 0.252,0.18 0.104,0.052 0.22,0.096 0.352,0.132 0.132,0.036 0.26,0.076 0.389,0.12 0.512,0.172 0.888,0.4 1.124,0.685 0.236,0.284 0.356,0.656 0.356,1.116 0,0.308 -0.052,0.588 -0.156,0.84 -0.104,0.252 -0.256,0.465 -0.456,0.645 -0.2,0.18 -0.444,0.316 -0.736,0.416 -0.293,0.1 -0.621,0.148 -0.989,0.148 -0.764,0 -1.468,-0.228 -2.121,-0.68 l 0.673,-1.265 c 0.236,0.208 0.468,0.364 0.696,0.464 0.228,0.1 0.456,0.152 0.68,0.152 0.256,0 0.448,-0.06 0.572,-0.176 0.124,-0.116 0.188,-0.252 0.188,-0.4 0,-0.092 -0.016,-0.168 -0.048,-0.236 -0.032,-0.068 -0.084,-0.128 -0.16,-0.184 -0.076,-0.056 -0.172,-0.108 -0.292,-0.156 -0.12,-0.048 -0.264,-0.1 -0.436,-0.16 -0.204,-0.064 -0.4,-0.136 -0.596,-0.212 -0.196,-0.076 -0.368,-0.18 -0.52,-0.308 -0.152,-0.128 -0.277,-0.289 -0.369,-0.485 -0.092,-0.196 -0.14,-0.44 -0.14,-0.74 0,-0.3 0.048,-0.568 0.148,-0.812 0.101,-0.244 0.237,-0.452 0.417,-0.625 0.18,-0.172 0.396,-0.308 0.656,-0.404 0.26,-0.096 0.548,-0.144 0.868,-0.144 0.3,0 0.613,0.04 0.937,0.124 0.324,0.084 0.636,0.204 0.936,0.364 z"
   id="path10181" /><path
   inkscape:connector-curvature="0"
   style="fill:#ffffff;fill-rule:nonzero"
   d="m 45.866,192.06 c 0,0.24 0.044,0.46 0.136,0.664 0.092,0.204 0.212,0.38 0.368,0.528 0.156,0.148 0.336,0.264 0.541,0.348 0.204,0.084 0.424,0.124 0.652,0.124 0.228,0 0.448,-0.04 0.652,-0.124 0.204,-0.084 0.388,-0.2 0.544,-0.348 0.156,-0.148 0.28,-0.324 0.372,-0.528 0.093,-0.204 0.137,-0.424 0.137,-0.664 0,-0.241 -0.044,-0.461 -0.137,-0.665 -0.092,-0.204 -0.216,-0.38 -0.372,-0.528 -0.156,-0.148 -0.34,-0.264 -0.544,-0.348 -0.204,-0.084 -0.424,-0.124 -0.652,-0.124 -0.228,0 -0.448,0.04 -0.652,0.124 -0.205,0.084 -0.385,0.2 -0.541,0.348 -0.156,0.148 -0.276,0.324 -0.368,0.528 -0.092,0.204 -0.136,0.424 -0.136,0.665 z m -1.641,0 c 0,-0.449 0.084,-0.865 0.249,-1.253 0.164,-0.388 0.396,-0.724 0.688,-1.012 0.292,-0.289 0.644,-0.513 1.052,-0.677 0.408,-0.164 0.857,-0.244 1.349,-0.244 0.484,0 0.932,0.08 1.344,0.244 0.413,0.164 0.765,0.388 1.061,0.677 0.296,0.288 0.528,0.624 0.692,1.012 0.164,0.388 0.248,0.804 0.248,1.253 0,0.448 -0.084,0.864 -0.248,1.252 -0.164,0.388 -0.396,0.724 -0.692,1.012 -0.296,0.289 -0.648,0.513 -1.061,0.677 -0.412,0.164 -0.86,0.244 -1.344,0.244 -0.492,0 -0.941,-0.08 -1.349,-0.244 -0.408,-0.164 -0.76,-0.388 -1.052,-0.677 -0.292,-0.288 -0.524,-0.624 -0.688,-1.012 -0.165,-0.388 -0.249,-0.804 -0.249,-1.252 z"
   id="path10183" /><path
   inkscape:connector-curvature="0"
   style="fill:#ffffff;fill-rule:nonzero"
   d="m 51.901,195.077 v -6.035 h 1.568 l 2.897,3.69 v -3.69 h 1.561 v 6.035 h -1.561 l -2.897,-3.69 v 3.69 z"
   id="path10185" /><path
   inkscape:connector-curvature="0"
   style="fill:#ffffff;fill-rule:nonzero"
   d="m 62.489,192.836 -0.704,-2.009 -0.705,2.009 z m 0.416,1.192 h -2.241 l -0.36,1.049 h -1.673 l 2.297,-6.035 h 1.713 l 2.297,6.035 h -1.673 z"
   id="path10187" /><path
   inkscape:connector-curvature="0"
   style="fill:#ffffff;fill-rule:nonzero"
   d="m 65.626,195.077 v -6.035 h 1.569 l 2.897,3.69 v -3.69 h 1.561 v 6.035 h -1.561 l -2.897,-3.69 v 3.69 z"
   id="path10189" /><path
   inkscape:connector-curvature="0"
   style="fill:#ffffff;fill-rule:nonzero"
   d="m 77.343,191.059 c -0.364,-0.444 -0.812,-0.664 -1.344,-0.664 -0.236,0 -0.453,0.044 -0.653,0.128 -0.2,0.084 -0.372,0.2 -0.516,0.348 -0.144,0.148 -0.256,0.32 -0.34,0.524 -0.084,0.204 -0.124,0.42 -0.124,0.657 0,0.24 0.04,0.46 0.124,0.664 0.084,0.204 0.196,0.38 0.344,0.528 0.148,0.148 0.32,0.268 0.516,0.352 0.196,0.084 0.413,0.128 0.641,0.128 0.5,0 0.952,-0.212 1.352,-0.64 v 1.857 l -0.16,0.056 c -0.24,0.084 -0.464,0.148 -0.672,0.188 -0.208,0.04 -0.412,0.06 -0.616,0.06 -0.417,0 -0.817,-0.08 -1.197,-0.236 -0.38,-0.156 -0.716,-0.38 -1.008,-0.665 -0.292,-0.284 -0.525,-0.624 -0.701,-1.016 -0.176,-0.392 -0.264,-0.82 -0.264,-1.285 0,-0.464 0.088,-0.888 0.26,-1.276 0.172,-0.388 0.405,-0.72 0.697,-1 0.292,-0.281 0.628,-0.501 1.012,-0.657 0.384,-0.156 0.788,-0.236 1.209,-0.236 0.24,0 0.476,0.024 0.708,0.076 0.232,0.052 0.476,0.128 0.732,0.236 z"
   id="path10191" /><path
   inkscape:connector-curvature="0"
   style="fill:#ffffff;fill-rule:nonzero"
   d="m 81.769,190.371 h -1.865 v 1.008 h 1.761 v 1.329 h -1.761 v 1.04 h 1.865 v 1.329 h -3.433 v -6.035 h 3.433 z"
   id="path10193" /><path
   inkscape:connector-curvature="0"
   style="fill:none;stroke:#cccccc;stroke-width:1px"
   d="m 126.904,155.662 c 2.737,-4.742 1.664,-10.824 -2.534,-14.346 -4.193,-3.521 -10.372,-3.521 -14.566,0 -4.197,3.522 -5.27,9.604 -2.533,14.346 l 9.816,-5.666 z"
   id="path10198" /><path
   inkscape:connector-curvature="0"
   style="fill:#cccccc;fill-rule:nonzero;stroke:#cccccc;stroke-width:1px"
   d="m 126.531,156.859 0.024,4.409"
   id="path10201" /><path
   inkscape:connector-curvature="0"
   style="fill:#cccccc;fill-rule:nonzero;stroke:#cccccc;stroke-width:1px"
   d="m 128.748,159.032 -4.41,0.02"
   id="path10204" /><path
   inkscape:connector-curvature="0"
   style="fill:#cccccc;fill-rule:nonzero;stroke:#cccccc;stroke-width:1px"
   d="m 110.429,158.908 -4.414,0.02"
   id="path10207" /><path
   inkscape:connector-curvature="0"
   style="fill:none;stroke:#cccccc;stroke-width:1px"
   d="m 117.087,150 -0.024,-13.31"
   id="path10210" /><path
   inkscape:connector-curvature="0"
   style="fill:none;stroke:#cccccc;stroke-width:1.5px"
   d="m 75.383,173.241 c 5.878,-10.184 3.577,-23.245 -5.431,-30.804 -9.007,-7.556 -22.273,-7.556 -31.281,0 -9.007,7.559 -11.308,20.62 -5.43,30.804"
   id="path10213" /><circle
   style="fill:none;stroke:#cccccc;stroke-width:1px;stroke-linecap:butt"
   r="3.7060001"
   cy="182.509"
   cx="36.173"
   id="circle10216" /><circle
   style="fill:#cccccc;stroke:#cccccc;stroke-width:1px;stroke-linecap:butt"
   r="3.7060001"
   cy="181.99699"
   cx="73.952003"
   id="circle10219" /><path
   inkscape:connector-curvature="0"
   style="fill:none;stroke:#cccccc;stroke-width:1.5px"
   d="m 75.383,242.241 c 5.878,-10.184 3.577,-23.245 -5.431,-30.804 -9.007,-7.556 -22.273,-7.556 -31.281,0 -9.007,7.559 -11.308,20.62 -5.43,30.804"
   id="path10224" /><circle
   style="fill:none;stroke:#cccccc;stroke-width:1px;stroke-linecap:butt"
   r="3.7060001"
   cy="251.509"
   cx="36.173"
   id="circle10227" /><circle
   style="fill:#cccccc;stroke:#cccccc;stroke-width:1px;stroke-linecap:butt"
   r="3.7060001"
   cy="250.99699"
   cx="73.952003"
   id="circle10230" /><rect
   style="fill:#ffffff"
   height="6.0349998"
   width="1.569"
   y="353.61301"
   x="104.164"
   id="rect10235" /><path
   inkscape:connector-curvature="0"
   style="fill:#ffffff;fill-rule:nonzero"
   d="m 106.997,359.648 v -6.035 h 1.569 l 2.897,3.69 v -3.69 h 1.561 v 6.035 h -1.561 l -2.897,-3.69 v 3.69 z"
   id="path10237" /><path
   inkscape:connector-curvature="0"
   style="fill:#ffffff;fill-rule:nonzero"
   d="m 115.857,356.382 h 0.52 c 0.577,0 0.865,-0.252 0.865,-0.752 0,-0.5 -0.288,-0.752 -0.865,-0.752 h -0.52 z m 0,3.266 h -1.569 v -6.035 h 2.498 c 0.676,0 1.196,0.176 1.556,0.529 0.36,0.352 0.54,0.848 0.54,1.488 0,0.64 -0.18,1.137 -0.54,1.489 -0.36,0.352 -0.88,0.528 -1.556,0.528 h -0.929 z"
   id="path10239" /><path
   inkscape:connector-curvature="0"
   style="fill:#ffffff;fill-rule:nonzero"
   d="m 121.283,353.613 v 3.282 c 0,0.176 0.008,0.356 0.02,0.54 0.012,0.184 0.052,0.352 0.12,0.5 0.068,0.148 0.172,0.272 0.317,0.364 0.144,0.092 0.348,0.14 0.608,0.14 0.26,0 0.464,-0.048 0.604,-0.14 0.14,-0.092 0.248,-0.216 0.316,-0.364 0.068,-0.148 0.112,-0.316 0.124,-0.5 0.012,-0.184 0.02,-0.364 0.02,-0.54 v -3.282 h 1.561 v 3.498 c 0,0.94 -0.216,1.624 -0.644,2.057 -0.429,0.432 -1.089,0.648 -1.981,0.648 -0.893,0 -1.553,-0.216 -1.985,-0.648 -0.432,-0.433 -0.648,-1.117 -0.648,-2.057 v -3.498 z"
   id="path10241" /><path
   inkscape:connector-curvature="0"
   style="fill:#ffffff;fill-rule:nonzero"
   d="m 128.526,354.942 v 4.706 h -1.568 v -4.706 h -1.289 v -1.329 h 4.146 v 1.329 z"
   id="path10243" /><path
   inkscape:connector-curvature="0"
   style="fill:#8c8c8c;fill-rule:nonzero"
   d="m 61.642,268.557 c 0,0.24 0.044,0.46 0.136,0.664 0.092,0.204 0.212,0.38 0.368,0.528 0.156,0.148 0.336,0.264 0.54,0.348 0.204,0.084 0.424,0.124 0.652,0.124 0.228,0 0.449,-0.04 0.653,-0.124 0.204,-0.084 0.388,-0.2 0.544,-0.348 0.156,-0.148 0.28,-0.324 0.372,-0.528 0.092,-0.204 0.136,-0.424 0.136,-0.664 0,-0.241 -0.044,-0.461 -0.136,-0.665 -0.092,-0.204 -0.216,-0.38 -0.372,-0.528 -0.156,-0.148 -0.34,-0.264 -0.544,-0.348 -0.204,-0.084 -0.425,-0.124 -0.653,-0.124 -0.228,0 -0.448,0.04 -0.652,0.124 -0.204,0.084 -0.384,0.2 -0.54,0.348 -0.156,0.148 -0.276,0.324 -0.368,0.528 -0.092,0.204 -0.136,0.424 -0.136,0.665 z m -1.641,0 c 0,-0.449 0.084,-0.865 0.248,-1.253 0.164,-0.388 0.396,-0.724 0.688,-1.012 0.292,-0.289 0.645,-0.513 1.053,-0.677 0.408,-0.164 0.856,-0.244 1.348,-0.244 0.485,0 0.933,0.08 1.345,0.244 0.412,0.164 0.764,0.388 1.06,0.677 0.296,0.288 0.529,0.624 0.693,1.012 0.164,0.388 0.248,0.804 0.248,1.253 0,0.448 -0.084,0.864 -0.248,1.252 -0.164,0.388 -0.397,0.724 -0.693,1.012 -0.296,0.289 -0.648,0.513 -1.06,0.677 -0.412,0.164 -0.86,0.244 -1.345,0.244 -0.492,0 -0.94,-0.08 -1.348,-0.244 -0.408,-0.164 -0.761,-0.388 -1.053,-0.677 -0.292,-0.288 -0.524,-0.624 -0.688,-1.012 -0.164,-0.388 -0.248,-0.804 -0.248,-1.252 z"
   id="path10248" /><path
   inkscape:connector-curvature="0"
   style="fill:#8c8c8c;fill-rule:nonzero"
   d="m 69.245,265.539 v 3.282 c 0,0.176 0.008,0.356 0.02,0.54 0.012,0.184 0.052,0.352 0.12,0.5 0.068,0.148 0.172,0.272 0.316,0.364 0.144,0.092 0.348,0.14 0.608,0.14 0.26,0 0.464,-0.048 0.604,-0.14 0.141,-0.092 0.249,-0.216 0.317,-0.364 0.068,-0.148 0.112,-0.316 0.124,-0.5 0.012,-0.184 0.02,-0.364 0.02,-0.54 v -3.282 h 1.56 v 3.498 c 0,0.94 -0.216,1.624 -0.644,2.057 -0.428,0.432 -1.088,0.648 -1.981,0.648 -0.892,0 -1.552,-0.216 -1.985,-0.648 -0.432,-0.433 -0.648,-1.117 -0.648,-2.057 v -3.498 z"
   id="path10250" /><path
   inkscape:connector-curvature="0"
   style="fill:#8c8c8c;fill-rule:nonzero"
   d="m 76.488,266.868 v 4.706 h -1.569 v -4.706 h -1.288 v -1.329 h 4.145 v 1.329 z"
   id="path10252" /><path
   inkscape:connector-curvature="0"
   style="fill:#8c8c8c;fill-rule:nonzero"
   d="m 80.041,268.308 h 0.52 c 0.577,0 0.865,-0.252 0.865,-0.752 0,-0.5 -0.288,-0.752 -0.865,-0.752 h -0.52 z m 0,3.266 h -1.568 v -6.035 h 2.497 c 0.676,0 1.196,0.176 1.556,0.529 0.36,0.352 0.541,0.848 0.541,1.488 0,0.64 -0.181,1.137 -0.541,1.489 -0.36,0.352 -0.88,0.528 -1.556,0.528 h -0.929 z"
   id="path10254" /><path
   inkscape:connector-curvature="0"
   style="fill:#8c8c8c;fill-rule:nonzero"
   d="m 85.468,265.539 v 3.282 c 0,0.176 0.008,0.356 0.02,0.54 0.012,0.184 0.052,0.352 0.12,0.5 0.068,0.148 0.172,0.272 0.316,0.364 0.144,0.092 0.348,0.14 0.608,0.14 0.26,0 0.464,-0.048 0.604,-0.14 0.14,-0.092 0.248,-0.216 0.316,-0.364 0.068,-0.148 0.112,-0.316 0.124,-0.5 0.012,-0.184 0.02,-0.364 0.02,-0.54 v -3.282 h 1.561 v 3.498 c 0,0.94 -0.216,1.624 -0.644,2.057 -0.428,0.432 -1.089,0.648 -1.981,0.648 -0.892,0 -1.553,-0.216 -1.985,-0.648 -0.432,-0.433 -0.648,-1.117 -0.648,-2.057 v -3.498 z"
   id="path10256" /><path
   inkscape:connector-curvature="0"
   style="fill:#8c8c8c;fill-rule:nonzero"
   d="m 92.711,266.868 v 4.706 h -1.569 v -4.706 h -1.289 v -1.329 h 4.146 v 1.329 z"
   id="path10258" /><path
   inkscape:connector-curvature="0"
   style="fill:#ffffff;fill-rule:nonzero"
   d="m 34.375,38.559 v -0.963 c -0.353,0.72 -0.911,1.08 -1.671,1.08 -0.615,0 -1.097,-0.226 -1.448,-0.676 -0.35,-0.45 -0.526,-1.069 -0.526,-1.857 0,-0.857 0.198,-1.539 0.594,-2.049 0.395,-0.509 0.926,-0.763 1.595,-0.763 0.533,0 1.019,0.211 1.456,0.633 v -2.756 h 1.383 v 7.351 z m 0,-3.775 c -0.332,-0.373 -0.687,-0.56 -1.066,-0.56 -0.339,0 -0.609,0.164 -0.81,0.49 -0.202,0.326 -0.303,0.763 -0.303,1.313 0,1.046 0.336,1.569 1.006,1.569 0.41,0 0.801,-0.263 1.173,-0.787 z"
   id="path10263" /><path
   inkscape:connector-curvature="0"
   style="fill:#ffffff;fill-rule:nonzero"
   d="m 37.475,38.559 v -5.112 h 1.379 v 5.112 z m 0,-5.972 v -1.151 h 1.379 v 1.151 z"
   id="path10265" /><path
   inkscape:connector-curvature="0"
   style="fill:#ffffff;fill-rule:nonzero"
   d="m 42.723,38.676 c -0.799,0 -1.432,-0.242 -1.902,-0.725 -0.471,-0.482 -0.706,-1.131 -0.706,-1.948 0,-0.826 0.237,-1.477 0.71,-1.955 0.474,-0.478 1.117,-0.717 1.931,-0.717 0.816,0 1.461,0.239 1.934,0.717 0.473,0.478 0.709,1.126 0.709,1.946 0,0.838 -0.237,1.495 -0.712,1.969 -0.475,0.475 -1.13,0.713 -1.964,0.713 z m 0.023,-0.862 c 0.791,0 1.187,-0.607 1.187,-1.82 0,-0.556 -0.105,-0.994 -0.315,-1.317 -0.209,-0.323 -0.497,-0.484 -0.862,-0.484 -0.364,0 -0.651,0.161 -0.86,0.484 -0.21,0.323 -0.314,0.764 -0.314,1.326 0,0.556 0.104,0.997 0.312,1.323 0.208,0.326 0.492,0.488 0.852,0.488 z"
   id="path10267" /><path
   inkscape:connector-curvature="0"
   style="fill:#ffffff;fill-rule:nonzero"
   d="m 49.883,38.559 v -0.963 c -0.355,0.72 -0.911,1.08 -1.672,1.08 -0.614,0 -1.096,-0.226 -1.448,-0.676 -0.35,-0.45 -0.525,-1.069 -0.525,-1.857 0,-0.857 0.197,-1.539 0.593,-2.049 0.396,-0.509 0.927,-0.763 1.594,-0.763 0.534,0 1.02,0.211 1.458,0.633 v -2.756 h 1.382 v 7.351 z m 0,-3.775 c -0.332,-0.373 -0.688,-0.56 -1.066,-0.56 -0.339,0 -0.609,0.164 -0.811,0.49 -0.201,0.326 -0.302,0.763 -0.302,1.313 0,1.046 0.335,1.569 1.005,1.569 0.41,0 0.801,-0.263 1.174,-0.787 z"
   id="path10269" /><path
   inkscape:connector-curvature="0"
   style="fill:#ffffff;fill-rule:nonzero"
   d="m 57.145,38.387 c -0.655,0.192 -1.276,0.289 -1.862,0.289 -0.853,0 -1.527,-0.243 -2.02,-0.727 -0.494,-0.484 -0.74,-1.145 -0.74,-1.983 0,-0.792 0.225,-1.428 0.676,-1.911 0.452,-0.483 1.048,-0.724 1.791,-0.724 0.748,0 1.293,0.236 1.639,0.707 0.344,0.472 0.516,1.219 0.516,2.239 h -3.17 c 0.092,0.976 0.628,1.463 1.606,1.463 0.462,0 0.984,-0.107 1.564,-0.321 z M 53.956,35.5 h 1.834 c 0,-0.872 -0.281,-1.307 -0.842,-1.307 -0.571,0 -0.902,0.435 -0.992,1.307 z"
   id="path10271" /><rect
   style="fill:#ffffff"
   height="7.3509998"
   width="1.3789999"
   y="31.208"
   x="61.712002"
   id="rect10273" /><path
   inkscape:connector-curvature="0"
   style="fill:#ffffff;fill-rule:nonzero"
   d="m 67.318,38.01 c -0.46,0.443 -0.952,0.666 -1.476,0.666 -0.447,0 -0.81,-0.137 -1.089,-0.41 -0.28,-0.273 -0.42,-0.627 -0.42,-1.062 0,-0.564 0.226,-1 0.678,-1.306 0.451,-0.306 1.098,-0.458 1.939,-0.458 h 0.368 v -0.466 c 0,-0.53 -0.303,-0.796 -0.908,-0.796 -0.537,0 -1.08,0.152 -1.63,0.456 v -0.949 c 0.624,-0.237 1.242,-0.354 1.853,-0.354 1.338,0 2.006,0.532 2.006,1.597 v 2.262 c 0,0.4 0.129,0.6 0.387,0.6 0.046,0 0.107,-0.005 0.182,-0.018 l 0.033,0.773 c -0.293,0.087 -0.55,0.131 -0.773,0.131 -0.566,0 -0.929,-0.223 -1.09,-0.666 z m 0,-0.74 v -1.039 h -0.326 c -0.892,0 -1.336,0.279 -1.336,0.838 0,0.19 0.064,0.349 0.192,0.478 0.13,0.128 0.288,0.193 0.478,0.193 0.323,0 0.653,-0.157 0.992,-0.47 z"
   id="path10275" /><path
   inkscape:connector-curvature="0"
   style="fill:#ffffff;fill-rule:nonzero"
   d="m 73.635,38.559 v -0.963 c -0.354,0.72 -0.911,1.08 -1.671,1.08 -0.615,0 -1.097,-0.226 -1.449,-0.676 -0.35,-0.45 -0.526,-1.069 -0.526,-1.857 0,-0.857 0.198,-1.539 0.594,-2.049 0.396,-0.509 0.928,-0.763 1.595,-0.763 0.533,0 1.019,0.211 1.457,0.633 v -2.756 h 1.382 v 7.351 z m 0,-3.775 c -0.332,-0.373 -0.688,-0.56 -1.067,-0.56 -0.337,0 -0.607,0.164 -0.81,0.49 -0.201,0.326 -0.301,0.763 -0.301,1.313 0,1.046 0.334,1.569 1.004,1.569 0.41,0 0.802,-0.263 1.174,-0.787 z"
   id="path10277" /><path
   inkscape:connector-curvature="0"
   style="fill:#ffffff;fill-rule:nonzero"
   d="m 79.952,38.559 v -0.963 c -0.353,0.72 -0.91,1.08 -1.67,1.08 -0.616,0 -1.098,-0.226 -1.449,-0.676 -0.35,-0.45 -0.526,-1.069 -0.526,-1.857 0,-0.857 0.198,-1.539 0.594,-2.049 0.396,-0.509 0.927,-0.763 1.594,-0.763 0.534,0 1.02,0.211 1.457,0.633 v -2.756 h 1.383 v 7.351 z m 0,-3.775 c -0.331,-0.373 -0.687,-0.56 -1.066,-0.56 -0.338,0 -0.608,0.164 -0.81,0.49 -0.201,0.326 -0.303,0.763 -0.303,1.313 0,1.046 0.336,1.569 1.006,1.569 0.41,0 0.801,-0.263 1.173,-0.787 z"
   id="path10279" /><path
   inkscape:connector-curvature="0"
   style="fill:#ffffff;fill-rule:nonzero"
   d="m 87.215,38.387 c -0.655,0.192 -1.275,0.289 -1.862,0.289 -0.853,0 -1.527,-0.243 -2.021,-0.727 -0.494,-0.484 -0.74,-1.145 -0.74,-1.983 0,-0.792 0.226,-1.428 0.677,-1.911 0.452,-0.483 1.049,-0.724 1.791,-0.724 0.747,0 1.294,0.236 1.639,0.707 0.344,0.472 0.516,1.219 0.516,2.239 h -3.171 c 0.094,0.976 0.629,1.463 1.607,1.463 0.462,0 0.983,-0.107 1.564,-0.321 z M 84.026,35.5 h 1.834 c 0,-0.872 -0.28,-1.307 -0.843,-1.307 -0.57,0 -0.901,0.435 -0.991,1.307 z"
   id="path10281" /><path
   inkscape:connector-curvature="0"
   style="fill:#ffffff;fill-rule:nonzero"
   d="m 88.639,38.559 v -5.112 h 1.379 v 0.964 c 0.357,-0.72 0.9,-1.08 1.629,-1.08 0.087,0 0.172,0.009 0.257,0.027 v 1.23 c -0.196,-0.071 -0.378,-0.107 -0.546,-0.107 -0.549,0 -0.996,0.278 -1.34,0.833 v 3.245 z"
   id="path10283" /><path
   inkscape:connector-curvature="0"
   style="fill:#ffffff;fill-rule:nonzero"
   d="m 96.26,38.559 v -4.251 h -0.703 v -0.861 h 0.703 v -0.353 c 0,-0.643 0.154,-1.137 0.459,-1.484 0.306,-0.345 0.741,-0.518 1.306,-0.518 0.348,0 0.717,0.063 1.108,0.19 v 0.941 c -0.384,-0.171 -0.67,-0.256 -0.857,-0.256 -0.424,0 -0.637,0.388 -0.637,1.164 v 0.316 h 3.217 v 5.112 h -1.378 v -4.251 h -1.839 v 4.251 z m 3.446,-5.972 v -1.151 h 1.15 v 1.151 z"
   id="path10285" /><rect
   style="fill:#ffffff"
   height="7.3509998"
   width="1.3789999"
   y="31.208"
   x="102.578"
   id="rect10287" /><path
   inkscape:connector-curvature="0"
   style="fill:#ffffff;fill-rule:nonzero"
   d="m 108.314,38.532 c -0.33,0.095 -0.588,0.144 -0.778,0.144 -1.195,0 -1.792,-0.559 -1.792,-1.676 v -2.692 h -0.573 v -0.861 h 0.573 v -0.86 l 1.378,-0.159 v 1.019 h 1.094 v 0.861 h -1.094 v 2.509 c 0,0.628 0.256,0.942 0.768,0.942 0.118,0 0.259,-0.023 0.424,-0.066 z"
   id="path10289" /><path
   inkscape:connector-curvature="0"
   style="fill:#ffffff;fill-rule:nonzero"
   d="m 113.705,38.387 c -0.655,0.192 -1.276,0.289 -1.863,0.289 -0.853,0 -1.526,-0.243 -2.02,-0.727 -0.493,-0.484 -0.74,-1.145 -0.74,-1.983 0,-0.792 0.226,-1.428 0.678,-1.911 0.451,-0.483 1.048,-0.724 1.789,-0.724 0.749,0 1.295,0.236 1.639,0.707 0.344,0.472 0.517,1.219 0.517,2.239 h -3.17 c 0.093,0.976 0.628,1.463 1.606,1.463 0.462,0 0.984,-0.107 1.564,-0.321 z M 110.516,35.5 h 1.834 c 0,-0.872 -0.281,-1.307 -0.842,-1.307 -0.572,0 -0.902,0.435 -0.992,1.307 z"
   id="path10291" /><path
   inkscape:connector-curvature="0"
   style="fill:#ffffff;fill-rule:nonzero"
   d="m 115.13,38.559 v -5.112 h 1.377 v 0.964 c 0.357,-0.72 0.9,-1.08 1.63,-1.08 0.087,0 0.172,0.009 0.256,0.027 v 1.23 c -0.196,-0.071 -0.377,-0.107 -0.545,-0.107 -0.549,0 -0.997,0.278 -1.341,0.833 v 3.245 z"
   id="path10293" /><g
   id="g37354"
   style="fill:#e3dbdb"><path
     id="path10298"
     d="m 41.148,17.71 v 7.396 h 2.956 v 2.089 H 38.682 V 17.71 Z"
     style="fill:#e3dbdb;fill-rule:nonzero"
     inkscape:connector-curvature="0" /><path
     id="path10300"
     d="m 50.923,23.672 -1.107,-3.157 -1.107,3.157 z m 0.654,1.875 h -3.522 l -0.566,1.648 H 44.86 l 3.609,-9.485 h 2.692 l 3.611,9.485 h -2.629 z"
     style="fill:#e3dbdb;fill-rule:nonzero"
     inkscape:connector-curvature="0" /><path
     id="path10302"
     d="m 59.037,19.797 v 7.398 H 56.571 V 19.797 H 54.545 V 17.71 h 6.517 v 2.087 z"
     style="fill:#e3dbdb;fill-rule:nonzero"
     inkscape:connector-curvature="0" /><path
     id="path10304"
     d="m 67.553,19.797 h -2.93 v 1.585 h 2.766 v 2.089 h -2.766 v 1.635 h 2.93 v 2.089 H 62.156 V 17.71 h 5.397 z"
     style="fill:#e3dbdb;fill-rule:nonzero"
     inkscape:connector-curvature="0" /><path
     id="path10306"
     d="m 71.792,21.948 h 0.467 c 0.486,0 0.859,-0.099 1.118,-0.301 0.26,-0.201 0.391,-0.491 0.391,-0.868 0,-0.377 -0.131,-0.666 -0.391,-0.868 C 73.118,19.71 72.745,19.61 72.259,19.61 h -0.467 z m 5.423,5.247 h -3.07 l -2.353,-3.648 v 3.648 H 69.327 V 17.71 h 3.837 c 0.528,0 0.99,0.078 1.384,0.232 0.393,0.156 0.718,0.368 0.975,0.635 0.256,0.269 0.448,0.58 0.578,0.931 0.131,0.353 0.195,0.73 0.195,1.133 0,0.721 -0.174,1.306 -0.522,1.755 -0.348,0.449 -0.862,0.753 -1.542,0.912 z"
     style="fill:#e3dbdb;fill-rule:nonzero"
     inkscape:connector-curvature="0" /><path
     id="path10308"
     d="m 83.404,23.672 -1.107,-3.157 -1.108,3.157 z m 0.654,1.875 h -3.523 l -0.566,1.648 H 77.34 l 3.611,-9.485 h 2.692 l 3.61,9.485 h -2.629 z"
     style="fill:#e3dbdb;fill-rule:nonzero"
     inkscape:connector-curvature="0" /><path
     id="path10310"
     d="m 90.8,17.71 v 7.396 h 2.957 v 2.089 H 88.335 V 17.71 Z"
     style="fill:#e3dbdb;fill-rule:nonzero"
     inkscape:connector-curvature="0" /><path
     id="path10312"
     d="m 97.317,17.71 v 5.157 c 0,0.278 0.011,0.56 0.031,0.849 0.021,0.29 0.084,0.551 0.189,0.787 0.105,0.235 0.27,0.425 0.497,0.573 0.226,0.146 0.545,0.22 0.956,0.22 0.412,0 0.727,-0.074 0.95,-0.22 0.222,-0.148 0.387,-0.338 0.497,-0.573 0.109,-0.236 0.174,-0.497 0.195,-0.787 0.02,-0.289 0.031,-0.571 0.031,-0.849 V 17.71 h 2.453 v 5.497 c 0,1.476 -0.338,2.553 -1.012,3.233 -0.675,0.679 -1.713,1.019 -3.114,1.019 -1.401,0 -2.44,-0.34 -3.119,-1.019 -0.679,-0.68 -1.019,-1.757 -1.019,-3.233 V 17.71 Z"
     style="fill:#e3dbdb;fill-rule:nonzero"
     inkscape:connector-curvature="0" /><path
     id="path10314"
     d="m 110.312,20.137 c -0.268,-0.217 -0.537,-0.38 -0.805,-0.483 -0.269,-0.106 -0.529,-0.158 -0.78,-0.158 -0.319,0 -0.579,0.075 -0.78,0.227 -0.201,0.15 -0.302,0.347 -0.302,0.591 0,0.168 0.051,0.305 0.151,0.414 0.101,0.11 0.233,0.204 0.396,0.284 0.164,0.08 0.348,0.149 0.555,0.208 0.205,0.059 0.407,0.121 0.61,0.188 0.804,0.269 1.393,0.627 1.767,1.076 0.373,0.449 0.559,1.033 0.559,1.754 0,0.488 -0.082,0.927 -0.245,1.321 -0.163,0.395 -0.403,0.733 -0.718,1.013 -0.314,0.281 -0.699,0.499 -1.157,0.655 -0.457,0.154 -0.975,0.232 -1.553,0.232 -1.199,0 -2.311,-0.356 -3.334,-1.069 l 1.056,-1.988 c 0.371,0.328 0.734,0.57 1.095,0.73 0.361,0.16 0.718,0.238 1.07,0.238 0.402,0 0.702,-0.092 0.899,-0.276 0.197,-0.185 0.296,-0.394 0.296,-0.63 0,-0.142 -0.026,-0.265 -0.075,-0.37 -0.051,-0.105 -0.135,-0.201 -0.252,-0.289 -0.117,-0.089 -0.27,-0.17 -0.459,-0.246 -0.189,-0.075 -0.417,-0.159 -0.686,-0.251 -0.319,-0.101 -0.632,-0.211 -0.937,-0.334 -0.306,-0.121 -0.579,-0.282 -0.817,-0.483 -0.24,-0.203 -0.433,-0.456 -0.58,-0.762 -0.146,-0.307 -0.22,-0.694 -0.22,-1.163 0,-0.47 0.078,-0.896 0.234,-1.277 0.154,-0.383 0.372,-0.709 0.653,-0.982 0.282,-0.272 0.625,-0.483 1.031,-0.635 0.408,-0.151 0.862,-0.227 1.366,-0.227 0.47,0 0.96,0.066 1.471,0.196 0.512,0.129 1.002,0.32 1.472,0.571 z"
     style="fill:#e3dbdb;fill-rule:nonzero"
     inkscape:connector-curvature="0" /></g><g
   id="g37360"
   style="fill:#e3dbdb"><path
     id="path42"
     d="m 62.952,363.5 h 2.673 l 2.49,8.317 2.574,-8.317 h 2.66 l -3.46,10.397 c -0.323,0.959 -0.903,1.438 -1.738,1.438 -0.847,0 -1.433,-0.484 -1.755,-1.453 z"
     style="fill:#e3dbdb;fill-rule:nonzero"
     inkscape:connector-curvature="0" /><path
     id="path44"
     d="M 73.55,372.292 V 363.5 h 2.507 v 8.709 c 0.044,0.312 0.334,0.468 0.869,0.468 h 1.705 c 0.513,0 0.797,-0.145 0.853,-0.435 l 0.017,-0.083 V 363.5 h 2.507 v 8.776 c 0,0.769 -0.083,1.315 -0.251,1.638 -0.445,0.858 -1.231,1.287 -2.357,1.287 h -3.243 c -1.159,0 -1.95,-0.44 -2.373,-1.321 -0.156,-0.323 -0.234,-0.852 -0.234,-1.588 z"
     style="fill:#e3dbdb;fill-rule:nonzero"
     inkscape:connector-curvature="0" /><path
     id="path46"
     d="M 83.161,372.343 V 363.5 h 2.508 v 8.642 c 0,0.357 0.211,0.535 0.635,0.535 h 4.463 l -0.016,2.524 h -4.664 c -0.167,0 -0.312,-0.006 -0.435,-0.017 -0.903,-0.077 -1.544,-0.342 -1.922,-0.794 -0.379,-0.451 -0.569,-1.133 -0.569,-2.047 z"
     style="fill:#e3dbdb;fill-rule:nonzero"
     inkscape:connector-curvature="0" /><path
     id="path48"
     d="M 90.851,366.024 V 363.5 h 7.522 v 2.524 h -2.524 v 9.177 h -2.508 v -9.177 z"
     style="fill:#e3dbdb;fill-rule:nonzero"
     inkscape:connector-curvature="0" /></g><path
   inkscape:connector-curvature="0"
   style="fill:#1a0000;stroke:#350000;stroke-width:1px;stroke-linecap:butt"
   d="m 145.039,279.557 c 0,-3.206 -2.603,-5.811 -5.81,-5.811 H 13.951 c -3.207,0 -5.81,2.605 -5.81,5.811 v 27.117 c 0,3.208 2.603,5.811 5.81,5.811 h 125.278 c 3.207,0 5.81,-2.603 5.81,-5.811 z"
   id="path10324" /><path
   inkscape:connector-curvature="0"
   style="fill:#757575;fill-rule:nonzero;stroke:#414c55;stroke-width:0.61000001px;stroke-linecap:butt;stroke-miterlimit:10"
   d="m 59.383,369.417 c 0,-4.509 -3.655,-8.164 -8.164,-8.164 -4.509,0 -8.165,3.655 -8.165,8.164 0,4.509 3.656,8.165 8.165,8.165 4.509,0 8.164,-3.656 8.164,-8.165 z"
   id="path4" /><path
   inkscape:connector-curvature="0"
   style="fill:#2b2b2b;fill-rule:nonzero"
   d="m 49.321,374.394 0.553,-0.891 -1.064,-2.393 -2.216,-2.284 0.46,3.101 0.597,1.28 0.833,1.264 z"
   id="polygon6" /><path
   inkscape:connector-curvature="0"
   style="fill:#262626;fill-rule:nonzero"
   d="m 53.048,374.401 -0.553,-0.89 1.064,-2.393 2.216,-2.285 -0.46,3.101 -0.597,1.281 -0.833,1.263 z"
   id="polygon8" /><path
   inkscape:connector-curvature="0"
   style="fill:#424242;fill-rule:nonzero"
   d="m 48.636,363.359 2.584,-0.66 v 13.447 l -1.349,-2.651 -1.061,-2.385 -1.022,-0.581 -2.052,-2.92 -0.057,-0.776 1.148,-2.067 z"
   id="polygon12" /><path
   inkscape:connector-curvature="0"
   style="fill:#333333;fill-rule:nonzero"
   d="m 53.801,363.364 -2.584,-0.661 v 13.448 l 1.35,-2.651 1.06,-2.385 1.023,-0.581 2.051,-2.921 0.058,-0.775 -1.149,-2.067 z"
   id="polygon14" /><path
   inkscape:connector-curvature="0"
   style="fill:#4c4c4c;fill-rule:nonzero"
   d="m 49.496,369.237 1.723,-1.684 v 1.229 l -1.723,1.719 v -1.264"
   id="polyline16" /><path
   inkscape:connector-curvature="0"
   style="fill:#5b5b5b;fill-rule:nonzero"
   d="m 51.22,368.781 -1.723,1.718 0.377,3.004 1.346,2.643 z"
   id="polygon18" /><path
   inkscape:connector-curvature="0"
   style="fill:#333333;fill-rule:nonzero"
   d="m 51.22,376.146 -1.346,-2.643 1.346,-0.635 z"
   id="polygon20" /><path
   inkscape:connector-curvature="0"
   style="fill:#ffffff;fill-rule:nonzero"
   d="m 49.497,370.499 v -1.263 l -1.249,-1.58 -1.477,-1.19 -10e-4,0.932 0.775,1.823 z"
   id="polygon22" /><path
   inkscape:connector-curvature="0"
   style="fill:#2d2d2d;fill-rule:nonzero"
   d="m 52.942,369.238 -1.722,-1.685 v 1.23 l 1.722,1.718 v -1.263"
   id="polyline24" /><path
   inkscape:connector-curvature="0"
   style="fill:#353535;fill-rule:nonzero"
   d="m 51.218,368.781 1.722,1.718 -0.376,3.004 -1.347,2.643 z"
   id="polygon26" /><path
   inkscape:connector-curvature="0"
   style="fill:#191919;fill-rule:nonzero"
   d="m 51.217,376.146 1.347,-2.643 -1.346,-0.635 z"
   id="polygon28" /><path
   inkscape:connector-curvature="0"
   style="fill:#ffffff;fill-rule:nonzero"
   d="m 52.94,370.499 v -1.263 l 1.249,-1.58 1.478,-1.19 10e-4,0.932 -0.775,1.823 z"
   id="polygon30" /><path
   inkscape:connector-curvature="0"
   style="fill:#383838;fill-rule:nonzero"
   d="m 48.652,363.338 2.566,4.215 -0.005,-4.87"
   id="polyline32" /><path
   inkscape:connector-curvature="0"
   style="fill:#2d2d2d;fill-rule:nonzero"
   d="m 53.785,363.338 -2.566,4.215 0.006,-4.869"
   id="polyline34" /><path
   inkscape:connector-curvature="0"
   style="fill:#333333;fill-rule:nonzero"
   d="m 48.811,371.111 0.688,-0.611 0.375,3.006 z"
   id="polygon36" /><path
   inkscape:connector-curvature="0"
   style="fill:#1c1c1c;fill-rule:nonzero"
   d="m 53.631,371.125 -0.688,-0.61 -0.375,3.006 z"
   id="polygon38" /><path
   inkscape:connector-curvature="0"
   style="fill:#ffffff;fill-rule:nonzero"
   d="m 123.082,308.925 h -4.858 l 1.497,-1.553 c 0.396,-0.412 0.704,-0.76 0.928,-1.044 0.224,-0.284 0.392,-0.529 0.5,-0.725 0.108,-0.196 0.176,-0.356 0.204,-0.48 0.028,-0.124 0.04,-0.228 0.04,-0.312 0,-0.092 -0.016,-0.18 -0.044,-0.264 -0.028,-0.084 -0.072,-0.16 -0.132,-0.228 -0.06,-0.068 -0.128,-0.12 -0.212,-0.16 -0.084,-0.04 -0.18,-0.06 -0.292,-0.06 -0.212,0 -0.38,0.068 -0.5,0.208 -0.12,0.14 -0.18,0.312 -0.18,0.52 0,0.06 0.008,0.144 0.024,0.256 h -1.713 c 0,-0.352 0.056,-0.672 0.172,-0.96 0.116,-0.288 0.276,-0.536 0.484,-0.744 0.208,-0.209 0.457,-0.369 0.741,-0.481 0.284,-0.112 0.6,-0.168 0.94,-0.168 0.336,0 0.648,0.052 0.932,0.16 0.285,0.108 0.533,0.256 0.741,0.448 0.208,0.193 0.372,0.421 0.488,0.685 0.116,0.264 0.176,0.552 0.176,0.86 0,0.332 -0.072,0.636 -0.212,0.917 -0.14,0.28 -0.368,0.568 -0.676,0.86 l -1.001,0.936 h 1.953 z"
   id="path10347" /><path
   inkscape:connector-curvature="0"
   style="fill:#ffffff;fill-rule:nonzero"
   d="m 126.604,306.484 v -2.377 l -1.385,2.377 z m 1.456,0 h 0.728 v 1.2 h -0.728 v 1.241 h -1.456 v -1.241 h -2.914 v -1.008 l 2.305,-3.786 h 2.065 z"
   id="path10349" /><path
   inkscape:connector-curvature="0"
   style="fill:#ffffff;fill-rule:nonzero"
   d="m 133.582,306.86 c 0,0.132 0.024,0.256 0.072,0.372 0.048,0.116 0.113,0.216 0.197,0.3 0.084,0.084 0.18,0.152 0.296,0.2 0.116,0.048 0.24,0.072 0.372,0.072 0.128,0 0.248,-0.024 0.364,-0.072 0.116,-0.048 0.212,-0.116 0.296,-0.2 0.084,-0.084 0.148,-0.184 0.2,-0.296 0.052,-0.112 0.076,-0.232 0.076,-0.36 0,-0.128 -0.024,-0.248 -0.076,-0.364 -0.052,-0.116 -0.116,-0.216 -0.2,-0.3 -0.084,-0.084 -0.18,-0.152 -0.296,-0.2 -0.116,-0.048 -0.236,-0.072 -0.364,-0.072 -0.128,0 -0.248,0.024 -0.364,0.072 -0.116,0.048 -0.212,0.116 -0.296,0.2 -0.084,0.084 -0.149,0.184 -0.201,0.292 -0.052,0.108 -0.076,0.228 -0.076,0.356 z m 1.825,-4.578 h 1.457 v 6.643 h -1.457 v -0.456 c -0.308,0.388 -0.728,0.584 -1.256,0.584 -0.3,0 -0.573,-0.056 -0.825,-0.168 -0.252,-0.112 -0.468,-0.268 -0.656,-0.464 -0.188,-0.196 -0.332,-0.429 -0.436,-0.697 -0.104,-0.268 -0.156,-0.556 -0.156,-0.864 0,-0.292 0.048,-0.572 0.148,-0.836 0.1,-0.265 0.24,-0.497 0.42,-0.693 0.18,-0.196 0.4,-0.352 0.652,-0.468 0.252,-0.116 0.533,-0.172 0.837,-0.172 0.512,0 0.936,0.18 1.272,0.536 z"
   id="path10351" /><path
   inkscape:connector-curvature="0"
   style="fill:#ffffff;fill-rule:nonzero"
   d="m 139.553,307.708 h 0.344 c 0.396,0 0.676,-0.052 0.848,-0.152 0.173,-0.1 0.257,-0.264 0.257,-0.488 0,-0.224 -0.084,-0.388 -0.257,-0.488 -0.172,-0.1 -0.452,-0.152 -0.848,-0.152 h -0.344 z m 0,-2.449 h 0.288 c 0.492,0 0.736,-0.196 0.736,-0.584 0,-0.388 -0.244,-0.584 -0.736,-0.584 h -0.288 z m -1.569,-2.369 h 2.337 c 0.556,0 0.977,0.132 1.265,0.4 0.288,0.269 0.432,0.653 0.432,1.153 0,0.304 -0.056,0.556 -0.164,0.756 -0.108,0.2 -0.276,0.368 -0.5,0.508 0.224,0.044 0.416,0.109 0.572,0.197 0.156,0.088 0.284,0.196 0.384,0.324 0.1,0.128 0.168,0.272 0.212,0.432 0.044,0.16 0.064,0.332 0.064,0.512 0,0.284 -0.048,0.532 -0.148,0.752 -0.1,0.22 -0.236,0.405 -0.416,0.553 -0.18,0.148 -0.396,0.26 -0.652,0.336 -0.256,0.076 -0.545,0.112 -0.865,0.112 h -2.521 z"
   id="path10353" /><path
   inkscape:connector-curvature="0"
   style="fill:#ffffff;fill-rule:nonzero"
   d="m 84.941,304.219 h -0.88 v -1.329 h 2.449 v 6.035 h -1.569 z"
   id="path10358" /><path
   inkscape:connector-curvature="0"
   style="fill:#ffffff;fill-rule:nonzero"
   d="m 89.791,307.1 c 0,0.1 0.02,0.196 0.056,0.288 0.036,0.092 0.088,0.168 0.152,0.236 0.065,0.068 0.141,0.12 0.229,0.16 0.088,0.04 0.184,0.06 0.284,0.06 0.096,0 0.188,-0.02 0.276,-0.06 0.088,-0.04 0.164,-0.092 0.232,-0.16 0.068,-0.068 0.12,-0.144 0.156,-0.232 0.036,-0.088 0.056,-0.184 0.056,-0.284 0,-0.204 -0.072,-0.376 -0.212,-0.516 -0.14,-0.14 -0.312,-0.212 -0.508,-0.212 -0.204,0 -0.372,0.072 -0.513,0.212 -0.14,0.14 -0.208,0.312 -0.208,0.508 z m 0.056,-2.673 c 0,0.188 0.064,0.344 0.192,0.476 0.129,0.132 0.285,0.196 0.473,0.196 0.096,0 0.184,-0.02 0.264,-0.056 0.08,-0.036 0.148,-0.088 0.208,-0.148 0.06,-0.06 0.104,-0.132 0.14,-0.212 0.036,-0.08 0.052,-0.164 0.052,-0.248 0,-0.18 -0.064,-0.336 -0.192,-0.468 -0.128,-0.132 -0.284,-0.196 -0.472,-0.196 -0.188,0 -0.344,0.064 -0.473,0.192 -0.128,0.128 -0.192,0.284 -0.192,0.464 z m -0.448,1.312 c -0.628,-0.26 -0.944,-0.704 -0.944,-1.328 0,-0.256 0.052,-0.488 0.152,-0.692 0.1,-0.204 0.24,-0.385 0.42,-0.533 0.18,-0.148 0.396,-0.264 0.648,-0.344 0.252,-0.08 0.533,-0.12 0.837,-0.12 0.304,0 0.584,0.04 0.836,0.12 0.252,0.08 0.468,0.196 0.648,0.344 0.18,0.148 0.32,0.329 0.42,0.533 0.101,0.204 0.153,0.436 0.153,0.692 0,0.16 -0.016,0.304 -0.048,0.428 -0.032,0.124 -0.089,0.24 -0.165,0.344 -0.076,0.104 -0.18,0.2 -0.304,0.292 -0.124,0.092 -0.28,0.18 -0.468,0.264 0.82,0.321 1.233,0.837 1.233,1.553 0,0.256 -0.056,0.492 -0.172,0.712 -0.116,0.221 -0.277,0.409 -0.481,0.569 -0.204,0.16 -0.448,0.284 -0.728,0.376 -0.28,0.092 -0.588,0.136 -0.924,0.136 -0.324,0 -0.629,-0.044 -0.909,-0.132 -0.28,-0.088 -0.524,-0.212 -0.732,-0.372 -0.208,-0.16 -0.372,-0.348 -0.488,-0.569 -0.116,-0.22 -0.176,-0.46 -0.176,-0.72 0,-0.732 0.396,-1.248 1.192,-1.553 z"
   id="path10360" /><path
   inkscape:connector-curvature="0"
   style="fill:#ffffff;fill-rule:nonzero"
   d="m 97.795,306.86 c 0,0.132 0.024,0.256 0.072,0.372 0.048,0.116 0.112,0.216 0.196,0.3 0.084,0.084 0.18,0.152 0.296,0.2 0.116,0.048 0.24,0.072 0.372,0.072 0.128,0 0.248,-0.024 0.364,-0.072 0.116,-0.048 0.212,-0.116 0.296,-0.2 0.084,-0.084 0.148,-0.184 0.2,-0.296 0.052,-0.112 0.076,-0.232 0.076,-0.36 0,-0.128 -0.024,-0.248 -0.076,-0.364 -0.052,-0.116 -0.116,-0.216 -0.2,-0.3 -0.084,-0.084 -0.18,-0.152 -0.296,-0.2 -0.116,-0.048 -0.236,-0.072 -0.364,-0.072 -0.128,0 -0.248,0.024 -0.364,0.072 -0.116,0.048 -0.212,0.116 -0.296,0.2 -0.084,0.084 -0.148,0.184 -0.2,0.292 -0.052,0.108 -0.076,0.228 -0.076,0.356 z m 1.824,-4.578 h 1.457 v 6.643 h -1.457 v -0.456 c -0.308,0.388 -0.728,0.584 -1.256,0.584 -0.3,0 -0.572,-0.056 -0.824,-0.168 -0.252,-0.112 -0.469,-0.268 -0.657,-0.464 -0.188,-0.196 -0.332,-0.429 -0.436,-0.697 -0.104,-0.268 -0.156,-0.556 -0.156,-0.864 0,-0.292 0.048,-0.572 0.148,-0.836 0.1,-0.265 0.24,-0.497 0.42,-0.693 0.18,-0.196 0.4,-0.352 0.653,-0.468 0.252,-0.116 0.532,-0.172 0.836,-0.172 0.512,0 0.936,0.18 1.272,0.536 z"
   id="path10362" /><path
   inkscape:connector-curvature="0"
   style="fill:#ffffff;fill-rule:nonzero"
   d="m 103.765,307.708 h 0.344 c 0.397,0 0.677,-0.052 0.849,-0.152 0.172,-0.1 0.256,-0.264 0.256,-0.488 0,-0.224 -0.084,-0.388 -0.256,-0.488 -0.172,-0.1 -0.453,-0.152 -0.849,-0.152 h -0.344 z m 0,-2.449 h 0.288 c 0.493,0 0.737,-0.196 0.737,-0.584 0,-0.388 -0.244,-0.584 -0.737,-0.584 h -0.288 z m -1.568,-2.369 h 2.337 c 0.556,0 0.976,0.132 1.264,0.4 0.288,0.269 0.432,0.653 0.432,1.153 0,0.304 -0.056,0.556 -0.164,0.756 -0.108,0.2 -0.276,0.368 -0.5,0.508 0.224,0.044 0.416,0.109 0.572,0.197 0.156,0.088 0.284,0.196 0.384,0.324 0.1,0.128 0.168,0.272 0.212,0.432 0.044,0.16 0.064,0.332 0.064,0.512 0,0.284 -0.048,0.532 -0.148,0.752 -0.1,0.22 -0.236,0.405 -0.416,0.553 -0.18,0.148 -0.396,0.26 -0.652,0.336 -0.256,0.076 -0.544,0.112 -0.864,0.112 h -2.521 z"
   id="path10364" /><path
   inkscape:connector-curvature="0"
   style="fill:#ffffff;fill-rule:nonzero"
   d="m 47.631,304.219 h -0.88 V 302.89 H 49.2 v 6.035 h -1.569 z"
   id="path10369" /><path
   inkscape:connector-curvature="0"
   style="fill:#ffffff;fill-rule:nonzero"
   d="m 55.491,308.925 h -4.858 l 1.496,-1.553 c 0.396,-0.412 0.704,-0.76 0.929,-1.044 0.224,-0.284 0.392,-0.529 0.5,-0.725 0.108,-0.196 0.176,-0.356 0.204,-0.48 0.028,-0.124 0.04,-0.228 0.04,-0.312 0,-0.092 -0.016,-0.18 -0.044,-0.264 -0.028,-0.084 -0.072,-0.16 -0.132,-0.228 -0.06,-0.068 -0.128,-0.12 -0.212,-0.16 -0.084,-0.04 -0.18,-0.06 -0.292,-0.06 -0.213,0 -0.381,0.068 -0.501,0.208 -0.12,0.14 -0.18,0.312 -0.18,0.52 0,0.06 0.008,0.144 0.024,0.256 h -1.712 c 0,-0.352 0.056,-0.672 0.172,-0.96 0.116,-0.288 0.276,-0.536 0.484,-0.744 0.208,-0.209 0.456,-0.369 0.74,-0.481 0.284,-0.112 0.6,-0.168 0.941,-0.168 0.336,0 0.648,0.052 0.932,0.16 0.284,0.108 0.532,0.256 0.74,0.448 0.208,0.193 0.372,0.421 0.488,0.685 0.117,0.264 0.177,0.552 0.177,0.86 0,0.332 -0.073,0.636 -0.213,0.917 -0.14,0.28 -0.368,0.568 -0.676,0.86 l -1,0.936 h 1.953 z"
   id="path10371" /><path
   inkscape:connector-curvature="0"
   style="fill:#ffffff;fill-rule:nonzero"
   d="m 60.413,306.86 c 0,0.132 0.024,0.256 0.072,0.372 0.048,0.116 0.112,0.216 0.196,0.3 0.084,0.084 0.18,0.152 0.296,0.2 0.116,0.048 0.24,0.072 0.372,0.072 0.128,0 0.248,-0.024 0.364,-0.072 0.116,-0.048 0.212,-0.116 0.296,-0.2 0.084,-0.084 0.148,-0.184 0.2,-0.296 0.052,-0.112 0.076,-0.232 0.076,-0.36 0,-0.128 -0.024,-0.248 -0.076,-0.364 -0.052,-0.116 -0.116,-0.216 -0.2,-0.3 -0.084,-0.084 -0.18,-0.152 -0.296,-0.2 -0.116,-0.048 -0.236,-0.072 -0.364,-0.072 -0.128,0 -0.248,0.024 -0.364,0.072 -0.116,0.048 -0.212,0.116 -0.296,0.2 -0.084,0.084 -0.148,0.184 -0.2,0.292 -0.052,0.108 -0.076,0.228 -0.076,0.356 z m 1.824,-4.578 h 1.457 v 6.643 h -1.457 v -0.456 c -0.308,0.388 -0.728,0.584 -1.256,0.584 -0.3,0 -0.572,-0.056 -0.825,-0.168 -0.252,-0.112 -0.468,-0.268 -0.656,-0.464 -0.188,-0.196 -0.332,-0.429 -0.436,-0.697 -0.104,-0.268 -0.156,-0.556 -0.156,-0.864 0,-0.292 0.048,-0.572 0.148,-0.836 0.1,-0.265 0.24,-0.497 0.42,-0.693 0.18,-0.196 0.4,-0.352 0.652,-0.468 0.253,-0.116 0.533,-0.172 0.837,-0.172 0.512,0 0.936,0.18 1.272,0.536 z"
   id="path10373" /><path
   inkscape:connector-curvature="0"
   style="fill:#ffffff;fill-rule:nonzero"
   d="m 66.383,307.708 h 0.344 c 0.396,0 0.676,-0.052 0.849,-0.152 0.172,-0.1 0.256,-0.264 0.256,-0.488 0,-0.224 -0.084,-0.388 -0.256,-0.488 -0.173,-0.1 -0.453,-0.152 -0.849,-0.152 h -0.344 z m 0,-2.449 h 0.288 c 0.492,0 0.736,-0.196 0.736,-0.584 0,-0.388 -0.244,-0.584 -0.736,-0.584 h -0.288 z m -1.569,-2.369 h 2.337 c 0.557,0 0.977,0.132 1.265,0.4 0.288,0.269 0.432,0.653 0.432,1.153 0,0.304 -0.056,0.556 -0.164,0.756 -0.108,0.2 -0.276,0.368 -0.5,0.508 0.224,0.044 0.416,0.109 0.572,0.197 0.156,0.088 0.284,0.196 0.384,0.324 0.1,0.128 0.168,0.272 0.212,0.432 0.044,0.16 0.064,0.332 0.064,0.512 0,0.284 -0.048,0.532 -0.148,0.752 -0.1,0.22 -0.236,0.405 -0.416,0.553 -0.18,0.148 -0.396,0.26 -0.652,0.336 -0.256,0.076 -0.544,0.112 -0.865,0.112 h -2.521 z"
   id="path10375" /><path
   inkscape:connector-curvature="0"
   style="fill:#ffffff;fill-rule:nonzero"
   d="m 15.935,302.89 -1.713,1.969 h 0.032 c 0.148,-0.092 0.272,-0.144 0.368,-0.164 0.096,-0.02 0.18,-0.028 0.256,-0.028 0.292,0 0.565,0.056 0.809,0.168 0.244,0.112 0.46,0.264 0.64,0.46 0.18,0.196 0.324,0.424 0.424,0.685 0.1,0.26 0.152,0.54 0.152,0.84 0,0.32 -0.06,0.616 -0.176,0.892 -0.116,0.276 -0.288,0.517 -0.508,0.721 -0.22,0.204 -0.488,0.368 -0.804,0.484 -0.317,0.116 -0.669,0.176 -1.065,0.176 -0.4,0 -0.756,-0.06 -1.072,-0.176 -0.316,-0.116 -0.585,-0.276 -0.805,-0.48 -0.22,-0.204 -0.392,-0.441 -0.508,-0.709 -0.116,-0.268 -0.176,-0.556 -0.176,-0.86 0,-0.34 0.076,-0.712 0.228,-1.108 0.152,-0.397 0.384,-0.789 0.7,-1.173 l 1.401,-1.697 z m -2.593,3.962 c 0,0.14 0.028,0.268 0.08,0.388 0.052,0.12 0.124,0.224 0.216,0.316 0.092,0.092 0.196,0.164 0.316,0.216 0.12,0.052 0.248,0.08 0.388,0.08 0.14,0 0.268,-0.028 0.388,-0.08 0.12,-0.052 0.224,-0.124 0.316,-0.216 0.092,-0.092 0.164,-0.196 0.217,-0.316 0.052,-0.12 0.08,-0.248 0.08,-0.388 0,-0.14 -0.028,-0.268 -0.08,-0.388 -0.053,-0.12 -0.125,-0.224 -0.217,-0.316 -0.092,-0.092 -0.196,-0.164 -0.316,-0.216 -0.12,-0.052 -0.248,-0.08 -0.388,-0.08 -0.14,0 -0.268,0.028 -0.388,0.08 -0.12,0.052 -0.224,0.124 -0.316,0.216 -0.092,0.092 -0.164,0.196 -0.216,0.316 -0.052,0.12 -0.08,0.248 -0.08,0.388 z"
   id="path10380" /><path
   inkscape:connector-curvature="0"
   style="fill:#ffffff;fill-rule:nonzero"
   d="m 21.625,306.86 c 0,0.132 0.024,0.256 0.072,0.372 0.048,0.116 0.112,0.216 0.196,0.3 0.084,0.084 0.18,0.152 0.296,0.2 0.116,0.048 0.24,0.072 0.373,0.072 0.128,0 0.248,-0.024 0.364,-0.072 0.116,-0.048 0.212,-0.116 0.296,-0.2 0.084,-0.084 0.148,-0.184 0.2,-0.296 0.052,-0.112 0.076,-0.232 0.076,-0.36 0,-0.128 -0.024,-0.248 -0.076,-0.364 -0.052,-0.116 -0.116,-0.216 -0.2,-0.3 -0.084,-0.084 -0.18,-0.152 -0.296,-0.2 -0.116,-0.048 -0.236,-0.072 -0.364,-0.072 -0.129,0 -0.249,0.024 -0.365,0.072 -0.116,0.048 -0.212,0.116 -0.296,0.2 -0.084,0.084 -0.148,0.184 -0.2,0.292 -0.052,0.108 -0.076,0.228 -0.076,0.356 z m 1.825,-4.578 h 1.457 v 6.643 H 23.45 v -0.456 c -0.308,0.388 -0.728,0.584 -1.257,0.584 -0.3,0 -0.572,-0.056 -0.824,-0.168 -0.252,-0.112 -0.468,-0.268 -0.656,-0.464 -0.188,-0.196 -0.332,-0.429 -0.436,-0.697 -0.104,-0.268 -0.156,-0.556 -0.156,-0.864 0,-0.292 0.048,-0.572 0.148,-0.836 0.1,-0.265 0.24,-0.497 0.42,-0.693 0.18,-0.196 0.4,-0.352 0.652,-0.468 0.252,-0.116 0.532,-0.172 0.836,-0.172 0.513,0 0.937,0.18 1.273,0.536 z"
   id="path10382" /><path
   inkscape:connector-curvature="0"
   style="fill:#ffffff;fill-rule:nonzero"
   d="m 27.596,307.708 h 0.344 c 0.396,0 0.676,-0.052 0.848,-0.152 0.172,-0.1 0.256,-0.264 0.256,-0.488 0,-0.224 -0.084,-0.388 -0.256,-0.488 -0.172,-0.1 -0.452,-0.152 -0.848,-0.152 h -0.344 z m 0,-2.449 h 0.288 c 0.492,0 0.736,-0.196 0.736,-0.584 0,-0.388 -0.244,-0.584 -0.736,-0.584 h -0.288 z m -1.569,-2.369 h 2.337 c 0.556,0 0.976,0.132 1.264,0.4 0.289,0.269 0.433,0.653 0.433,1.153 0,0.304 -0.056,0.556 -0.164,0.756 -0.108,0.2 -0.277,0.368 -0.501,0.508 0.224,0.044 0.417,0.109 0.573,0.197 0.156,0.088 0.284,0.196 0.384,0.324 0.1,0.128 0.168,0.272 0.212,0.432 0.044,0.16 0.064,0.332 0.064,0.512 0,0.284 -0.048,0.532 -0.148,0.752 -0.1,0.22 -0.236,0.405 -0.416,0.553 -0.18,0.148 -0.397,0.26 -0.653,0.336 -0.256,0.076 -0.544,0.112 -0.864,0.112 h -2.521 z"
   id="path10384" /><path
   inkscape:connector-curvature="0"
   style="fill:#ffffff;fill-rule:nonzero"
   d="m 43.66,262.748 h 0.36 c 0.272,0 0.516,-0.044 0.728,-0.128 0.212,-0.084 0.392,-0.204 0.54,-0.352 0.149,-0.148 0.261,-0.328 0.337,-0.532 0.076,-0.204 0.116,-0.432 0.116,-0.676 0,-0.241 -0.04,-0.465 -0.12,-0.673 -0.08,-0.208 -0.192,-0.388 -0.341,-0.536 -0.148,-0.148 -0.328,-0.268 -0.54,-0.352 -0.212,-0.084 -0.452,-0.128 -0.72,-0.128 h -0.36 z m -1.569,-4.706 h 2.321 c 0.412,0 0.796,0.084 1.157,0.248 0.36,0.164 0.676,0.385 0.944,0.661 0.268,0.276 0.48,0.596 0.636,0.96 0.156,0.364 0.232,0.748 0.232,1.149 0,0.396 -0.076,0.776 -0.228,1.14 -0.152,0.364 -0.364,0.688 -0.632,0.964 -0.268,0.277 -0.584,0.501 -0.944,0.665 -0.361,0.164 -0.749,0.248 -1.165,0.248 h -2.321 z"
   id="path10389" /><path
   inkscape:connector-curvature="0"
   style="fill:#ffffff;fill-rule:nonzero"
   d="m 49.95,260.739 h 0.297 c 0.308,0 0.548,-0.064 0.712,-0.192 0.164,-0.128 0.248,-0.312 0.248,-0.552 0,-0.24 -0.084,-0.424 -0.248,-0.552 -0.164,-0.128 -0.404,-0.192 -0.712,-0.192 H 49.95 Z m 3.45,3.338 h -1.953 l -1.497,-2.321 v 2.321 h -1.568 v -6.035 h 2.441 c 0.336,0 0.628,0.048 0.88,0.148 0.252,0.1 0.456,0.232 0.62,0.405 0.164,0.172 0.285,0.368 0.369,0.592 0.084,0.224 0.124,0.464 0.124,0.72 0,0.46 -0.112,0.832 -0.333,1.117 -0.22,0.284 -0.548,0.48 -0.98,0.58 z"
   id="path10391" /><rect
   style="fill:#ffffff"
   height="6.0349998"
   width="1.569"
   y="258.04199"
   x="54.056"
   id="rect10393" /><path
   inkscape:connector-curvature="0"
   style="fill:#ffffff;fill-rule:nonzero"
   d="m 57.962,258.042 1.456,3.674 1.465,-3.674 h 1.705 l -2.545,6.035 h -1.249 l -2.537,-6.035 z"
   id="path10395" /><path
   inkscape:connector-curvature="0"
   style="fill:#ffffff;fill-rule:nonzero"
   d="m 66.653,259.371 h -1.864 v 1.008 h 1.76 v 1.329 h -1.76 v 1.04 h 1.864 v 1.329 H 63.22 v -6.035 h 3.433 z"
   id="path10397" /><path
   inkscape:connector-curvature="0"
   style="fill:none;stroke:#cccccc;stroke-width:1px"
   d="m 126.904,224.662 c 2.737,-4.742 1.664,-10.824 -2.534,-14.346 -4.193,-3.521 -10.372,-3.521 -14.566,0 -4.197,3.522 -5.27,9.604 -2.533,14.346 l 9.816,-5.666 z"
   id="path10402" /><path
   inkscape:connector-curvature="0"
   style="fill:#cccccc;fill-rule:nonzero;stroke:#cccccc;stroke-width:1px"
   d="m 126.531,225.859 0.024,4.409"
   id="path10405" /><path
   inkscape:connector-curvature="0"
   style="fill:#cccccc;fill-rule:nonzero;stroke:#cccccc;stroke-width:1px"
   d="m 128.748,228.032 -4.41,0.02"
   id="path10408" /><path
   inkscape:connector-curvature="0"
   style="fill:#cccccc;fill-rule:nonzero;stroke:#cccccc;stroke-width:1px"
   d="m 110.429,227.908 -4.414,0.02"
   id="path10411" /><path
   inkscape:connector-curvature="0"
   style="fill:none;stroke:#cccccc;stroke-width:1px"
   d="m 117.087,219 -0.024,-13.31"
   id="path10414" /><path
   inkscape:connector-curvature="0"
   style="fill:#ffffff;fill-rule:nonzero"
   d="m 53.132,343.738 v 3.53 h -1.176 v -3.53 h -0.965 v -0.996 h 3.11 v 0.996 z"
   id="path10417" /><path
   inkscape:connector-curvature="0"
   style="fill:#ffffff;fill-rule:nonzero"
   d="m 55.797,344.491 h 1.697 v -1.749 h 1.177 v 4.526 h -1.177 v -1.865 h -1.697 v 1.865 h -1.176 v -4.526 h 1.176 z"
   id="path10419" /><path
   inkscape:connector-curvature="0"
   style="fill:#808080;fill-rule:nonzero"
   d="m 35.697,357.809 0.768,-4.526 h 1.165 l 0.908,2.413 0.9,-2.413 h 1.161 l 0.768,4.526 h -1.168 l -0.388,-2.605 -1.069,2.605 h -0.468 l -1.016,-2.605 -0.389,2.605 z"
   id="path10423" /><path
   inkscape:connector-curvature="0"
   style="fill:#808080;fill-rule:nonzero"
   d="m 43.14,355.548 c 0,0.18 0.032,0.344 0.1,0.496 0.068,0.152 0.16,0.284 0.276,0.396 0.116,0.112 0.252,0.2 0.404,0.26 0.156,0.064 0.32,0.096 0.493,0.096 0.172,0 0.332,-0.032 0.488,-0.096 0.152,-0.06 0.288,-0.148 0.408,-0.26 0.116,-0.112 0.208,-0.244 0.276,-0.396 0.068,-0.152 0.104,-0.316 0.104,-0.496 0,-0.18 -0.036,-0.348 -0.104,-0.5 -0.068,-0.152 -0.16,-0.284 -0.276,-0.397 -0.12,-0.112 -0.256,-0.196 -0.408,-0.26 -0.156,-0.06 -0.316,-0.092 -0.488,-0.092 -0.173,0 -0.337,0.032 -0.493,0.092 -0.152,0.064 -0.288,0.148 -0.404,0.26 -0.116,0.113 -0.208,0.245 -0.276,0.397 -0.068,0.152 -0.1,0.32 -0.1,0.5 z m -1.233,0 c 0,-0.336 0.065,-0.648 0.189,-0.941 0.124,-0.288 0.296,-0.544 0.516,-0.76 0.22,-0.216 0.48,-0.384 0.788,-0.504 0.304,-0.124 0.644,-0.184 1.013,-0.184 0.364,0 0.696,0.06 1.004,0.184 0.308,0.12 0.576,0.288 0.796,0.504 0.224,0.216 0.396,0.472 0.52,0.76 0.125,0.293 0.185,0.605 0.185,0.941 0,0.336 -0.06,0.648 -0.185,0.936 -0.124,0.292 -0.296,0.544 -0.52,0.761 -0.22,0.216 -0.488,0.384 -0.796,0.508 -0.308,0.12 -0.64,0.18 -1.004,0.18 -0.369,0 -0.709,-0.06 -1.013,-0.18 -0.308,-0.124 -0.568,-0.292 -0.788,-0.508 -0.22,-0.217 -0.392,-0.469 -0.516,-0.761 -0.124,-0.288 -0.189,-0.6 -0.189,-0.936 z"
   id="path10425" /><path
   inkscape:connector-curvature="0"
   style="fill:#808080;fill-rule:nonzero"
   d="m 48.838,356.812 h 0.272 c 0.205,0 0.385,-0.032 0.545,-0.096 0.16,-0.064 0.296,-0.152 0.404,-0.264 0.112,-0.112 0.196,-0.244 0.252,-0.4 0.06,-0.152 0.088,-0.32 0.088,-0.504 0,-0.18 -0.032,-0.348 -0.092,-0.504 -0.06,-0.156 -0.144,-0.292 -0.252,-0.404 -0.112,-0.113 -0.244,-0.201 -0.404,-0.265 -0.16,-0.064 -0.34,-0.096 -0.541,-0.096 h -0.272 z m -1.176,-3.529 h 1.741 c 0.308,0 0.596,0.064 0.868,0.188 0.268,0.124 0.504,0.288 0.708,0.496 0.2,0.204 0.36,0.444 0.476,0.721 0.116,0.272 0.173,0.56 0.173,0.86 0,0.296 -0.056,0.58 -0.169,0.852 -0.116,0.276 -0.272,0.516 -0.476,0.725 -0.2,0.208 -0.436,0.376 -0.708,0.5 -0.268,0.124 -0.56,0.184 -0.872,0.184 h -1.741 z"
   id="path10427" /><path
   inkscape:connector-curvature="0"
   style="fill:#808080;fill-rule:nonzero"
   d="m 54.953,354.279 h -1.397 v 0.757 h 1.317 v 0.996 h -1.317 v 0.78 h 1.397 v 0.997 H 52.38 v -4.526 h 2.573 z"
   id="path10429" /><path
   inkscape:connector-curvature="0"
   style="fill:#808080;fill-rule:nonzero"
   d="m 56.974,353.283 v 3.529 h 1.412 v 0.997 h -2.589 v -4.526 z"
   id="path10431" /><path
   inkscape:connector-curvature="0"
   style="fill:#ffffff;fill-rule:nonzero"
   d="m 52.422,334.472 h 0.272 c 0.204,0 0.384,-0.032 0.544,-0.096 0.16,-0.064 0.296,-0.152 0.405,-0.264 0.112,-0.112 0.196,-0.244 0.252,-0.4 0.06,-0.152 0.088,-0.32 0.088,-0.504 0,-0.18 -0.028,-0.348 -0.088,-0.504 -0.06,-0.156 -0.148,-0.292 -0.256,-0.404 -0.113,-0.113 -0.245,-0.201 -0.405,-0.265 -0.16,-0.064 -0.34,-0.096 -0.54,-0.096 h -0.272 z m -1.176,-3.529 h 1.74 c 0.308,0 0.597,0.064 0.869,0.188 0.268,0.124 0.504,0.288 0.708,0.496 0.2,0.204 0.36,0.444 0.476,0.721 0.116,0.272 0.176,0.56 0.176,0.86 0,0.296 -0.06,0.58 -0.172,0.852 -0.116,0.276 -0.272,0.516 -0.476,0.725 -0.2,0.208 -0.436,0.376 -0.708,0.5 -0.268,0.124 -0.561,0.184 -0.873,0.184 h -1.74 z"
   id="path10435" /><path
   inkscape:connector-curvature="0"
   style="fill:#ffffff;fill-rule:nonzero"
   d="M 58.557,331.939 H 57.14 v 0.757 h 1.289 v 0.996 H 57.14 v 1.777 h -1.177 v -4.526 h 2.594 z"
   id="path10437" /><g
   id="g37193">
      <path
   inkscape:connector-curvature="0"
   style="fill:#c8c8c8"
   d="m 35.674,350.339 2.32,-2.422 h 6.953 l 2.395,2.422 z"
   id="path1066" />
      <path
   inkscape:connector-curvature="0"
   style="fill:#5a5a5a"
   d="m 35.661,325.967 2.32,2.473 0.013,19.477 -2.32,2.422 z"
   id="path1060" />
      <path
   inkscape:connector-curvature="0"
   style="fill:#5a5a5a"
   d="m 44.934,328.44 2.395,-2.473 0.013,24.372 -2.395,-2.422 z"
   id="path1064" />
      <path
   inkscape:connector-curvature="0"
   style="fill:#141414"
   d="m 46.019,328.985 c 0,-0.911 -0.74,-1.65 -1.65,-1.65 h -5.7 c -0.911,0 -1.65,0.739 -1.65,1.65 v 17.7 c 0,0.911 0.739,1.65 1.65,1.65 h 5.7 c 0.91,0 1.65,-0.739 1.65,-1.65 z"
   id="path887" />
    </g>
</svg>