<?xml version="1.0" encoding="UTF-8" standalone="no"?>
<svg
   xmlns:serif="http://www.serif.com/"
   xmlns:dc="http://purl.org/dc/elements/1.1/"
   xmlns:cc="http://creativecommons.org/ns#"
   xmlns:rdf="http://www.w3.org/1999/02/22-rdf-syntax-ns#"
   xmlns:svg="http://www.w3.org/2000/svg"
   xmlns="http://www.w3.org/2000/svg"
   xmlns:xlink="http://www.w3.org/1999/xlink"
   xmlns:sodipodi="http://sodipodi.sourceforge.net/DTD/sodipodi-0.dtd"
   xmlns:inkscape="http://www.inkscape.org/namespaces/inkscape"
   width="90px"
   height="380px"
   version="1.1"
   xml:space="preserve"
   style="fill-rule:evenodd;clip-rule:evenodd;stroke-linecap:round;"
   id="svg200"
   sodipodi:docname="Basal.svg"
   inkscape:version="0.92.3 (2405546, 2018-03-11)"><metadata
   id="metadata204"><rdf:RDF><cc:Work
       rdf:about=""><dc:format>image/svg+xml</dc:format><dc:type
         rdf:resource="http://purl.org/dc/dcmitype/StillImage" /><dc:title></dc:title></cc:Work></rdf:RDF></metadata><sodipodi:namedview
   pagecolor="#ffffff"
   bordercolor="#666666"
   borderopacity="1"
   objecttolerance="10"
   gridtolerance="10"
   guidetolerance="10"
   inkscape:pageopacity="0"
   inkscape:pageshadow="2"
   inkscape:window-width="1920"
   inkscape:window-height="1017"
   id="namedview202"
   showgrid="false"
   inkscape:zoom="1.4142136"
   inkscape:cx="-110.9126"
   inkscape:cy="222.34409"
   inkscape:window-x="1912"
   inkscape:window-y="-8"
   inkscape:window-maximized="1"
   inkscape:current-layer="layer2" />
  <defs
   id="defs17">
    <linearGradient
   id="_Linear1"
   x1="0"
   y1="0"
   x2="1"
   y2="0"
   gradientUnits="userSpaceOnUse"
   gradientTransform="matrix(89.7114,-379.998,227.268,150,0.288584,379.998)">
      <stop
   offset="0"
   style="stop-color:#060606;stop-opacity:1"
   id="stop2" />
      <stop
   offset="1"
   style="stop-color:#343434;stop-opacity:1"
   id="stop4" />
    </linearGradient>
    <linearGradient
   id="_Linear2"
   x1="0"
   y1="0"
   x2="1"
   y2="0"
   gradientUnits="userSpaceOnUse"
   gradientTransform="matrix(0,-89,28.8261,0,77.6522,197)">
      <stop
   offset="0"
   style="stop-color:rgb(156,156,156);stop-opacity:1"
   id="stop7" />
      <stop
   offset="1"
   style="stop-color:rgb(36,36,36);stop-opacity:1"
   id="stop9" />
    </linearGradient>
    <linearGradient
   id="_Linear3"
   x1="0"
   y1="0"
   x2="1"
   y2="0"
   gradientUnits="userSpaceOnUse"
   gradientTransform="matrix(0,-89,28.8261,0,77.6522,297)">
      <stop
   offset="0"
   style="stop-color:rgb(156,156,156);stop-opacity:1"
   id="stop12" />
      <stop
   offset="1"
   style="stop-color:rgb(36,36,36);stop-opacity:1"
   id="stop14" />
    </linearGradient>
  
    
    
    
    
    
    
    
    
    
    
    
    
    
    
    
    
    
    
    
    
    
    
  <linearGradient
   inkscape:collect="always"
   xlink:href="#_Linear1"
   id="linearGradient1268"
   x1="115.28374"
   y1="382.27512"
   x2="204.99474"
   y2="2.2771235"
   gradientUnits="userSpaceOnUse"
   gradientTransform="matrix(1.0035695,0,0,1.0001873,-115.65531,-2.1769144)" />
      
      
      
      
      
      
      
      
      
      
      
      
      
      
      
      
      
      
      
      
      
    </defs>
  
<g
   inkscape:groupmode="layer"
   id="layer1"
   inkscape:label="Layer 1"><rect
     style="clip-rule:evenodd;fill:url(#linearGradient1268);fill-opacity:1.0;fill-rule:evenodd;stroke-width:1.00187695;stroke-linecap:round"
     height="380.06915"
     width="90.031219"
     y="0.10063551"
     x="0.039938305"
     id="rect2024" /></g><g
   inkscape:groupmode="layer"
   id="layer2"
   inkscape:label="Layer 2"><path
     inkscape:connector-curvature="0"
     id="path21"
     style="fill-rule:evenodd;clip-rule:evenodd;stroke-linecap:round;fill:url(#_Linear2)"
     d="M 85,123.6 C 85,114.99 78.01,108 69.4,108 H 22.6 C 13.99,108 7,114.99 7,123.6 v 57.8 c 0,8.61 6.99,15.6 15.6,15.6 h 46.8 c 8.61,0 15.6,-6.99 15.6,-15.6 z" /><path
     inkscape:connector-curvature="0"
     id="path23"
     style="fill-rule:evenodd;clip-rule:evenodd;stroke-linecap:round;fill:#2b3939;fill-opacity:1"
     d="m 84.435,124.158 c 0,-8.485 -6.889,-15.374 -15.374,-15.374 H 22.939 c -8.485,0 -15.374,6.889 -15.374,15.374 v 56.684 c 0,8.485 6.889,15.374 15.374,15.374 h 46.122 c 8.485,0 15.374,-6.889 15.374,-15.374 z" /><g
     style="fill-rule:evenodd;clip-rule:evenodd;stroke-linecap:round"
     id="text9293-4">
      <path
   inkscape:connector-curvature="0"
   id="path25"
   style="fill:#ffffff;fill-rule:nonzero"
   d="m 63.476,99.477 c 0,0.21 0.04,0.404 0.119,0.581 0.079,0.178 0.187,0.332 0.322,0.462 0.135,0.131 0.293,0.233 0.472,0.305 0.18,0.072 0.37,0.108 0.571,0.108 0.201,0 0.391,-0.036 0.57,-0.108 0.18,-0.072 0.339,-0.174 0.476,-0.305 0.138,-0.13 0.247,-0.284 0.326,-0.462 0.079,-0.177 0.119,-0.371 0.119,-0.581 0,-0.21 -0.04,-0.403 -0.119,-0.581 -0.079,-0.177 -0.188,-0.331 -0.326,-0.462 -0.137,-0.13 -0.296,-0.232 -0.476,-0.304 -0.179,-0.072 -0.369,-0.109 -0.57,-0.109 -0.201,0 -0.391,0.037 -0.571,0.109 -0.179,0.072 -0.337,0.174 -0.472,0.304 -0.135,0.131 -0.243,0.285 -0.322,0.462 -0.079,0.178 -0.119,0.371 -0.119,0.581 z m -1.435,0 c 0,-0.392 0.072,-0.757 0.217,-1.095 0.145,-0.338 0.345,-0.634 0.602,-0.886 0.257,-0.252 0.563,-0.449 0.92,-0.591 0.357,-0.142 0.751,-0.214 1.18,-0.214 0.425,0 0.817,0.072 1.176,0.214 0.359,0.142 0.668,0.339 0.927,0.591 0.259,0.252 0.461,0.548 0.606,0.886 0.145,0.338 0.217,0.703 0.217,1.095 0,0.392 -0.072,0.758 -0.217,1.096 -0.145,0.338 -0.347,0.633 -0.606,0.885 -0.259,0.252 -0.568,0.45 -0.927,0.592 -0.359,0.142 -0.751,0.213 -1.176,0.213 -0.429,0 -0.823,-0.071 -1.18,-0.213 -0.357,-0.142 -0.663,-0.34 -0.92,-0.592 -0.257,-0.252 -0.457,-0.547 -0.602,-0.885 -0.145,-0.338 -0.217,-0.704 -0.217,-1.096 z" />
      <path
   inkscape:connector-curvature="0"
   id="path27"
   style="fill:#ffffff;fill-rule:nonzero"
   d="m 72.555,98.602 c -0.317,-0.387 -0.709,-0.581 -1.176,-0.581 -0.205,0 -0.396,0.038 -0.571,0.112 -0.175,0.075 -0.325,0.177 -0.451,0.305 -0.126,0.128 -0.225,0.281 -0.298,0.458 -0.072,0.178 -0.108,0.369 -0.108,0.574 0,0.21 0.036,0.404 0.108,0.581 0.073,0.178 0.173,0.332 0.301,0.462 0.129,0.131 0.279,0.234 0.452,0.308 0.173,0.075 0.359,0.112 0.56,0.112 0.439,0 0.833,-0.186 1.183,-0.56 v 1.624 l -0.14,0.049 c -0.21,0.075 -0.406,0.13 -0.588,0.165 -0.182,0.035 -0.362,0.052 -0.539,0.052 -0.364,0 -0.713,-0.068 -1.047,-0.206 -0.333,-0.138 -0.627,-0.331 -0.882,-0.581 -0.254,-0.25 -0.458,-0.546 -0.612,-0.889 -0.154,-0.343 -0.231,-0.718 -0.231,-1.124 0,-0.406 0.076,-0.778 0.227,-1.116 0.152,-0.338 0.355,-0.63 0.609,-0.875 0.255,-0.245 0.55,-0.436 0.886,-0.574 0.336,-0.138 0.688,-0.207 1.057,-0.207 0.21,0 0.416,0.023 0.619,0.067 0.203,0.044 0.417,0.113 0.641,0.206 z" />
      <path
   inkscape:connector-curvature="0"
   id="path29"
   style="fill:#ffffff;fill-rule:nonzero"
   d="m 75.425,98 v 4.116 H 74.053 V 98 h -1.127 v -1.162 h 3.626 V 98 Z" />
    </g><g
     style="fill-rule:evenodd;clip-rule:evenodd;stroke-linecap:round"
     id="g42">
      <path
   inkscape:connector-curvature="0"
   style="fill:none;stroke:#cccccc;stroke-width:1.5px"
   d="m 83.989,88.593 c 4.17,-7.222 2.537,-16.486 -3.852,-21.847 -6.389,-5.361 -15.795,-5.361 -22.184,0 -6.389,5.361 -8.022,14.625 -3.852,21.847"
   id="path8216-1" />
      <path
   inkscape:connector-curvature="0"
   style="fill:none;stroke:#cccccc;stroke-width:1.5px"
   d="m 63.872,65.747 -1.366,-3.81"
   id="path9948" />
      <path
   inkscape:connector-curvature="0"
   style="fill:none;stroke:#cccccc;stroke-width:1.5px"
   d="m 74.213,65.747 1.493,-3.86"
   serif:id="path9948"
   id="path99481" />
      <path
   inkscape:connector-curvature="0"
   style="fill:none;stroke:#cccccc;stroke-width:1.5px"
   d="m 82.707,73.3 3.621,-1.741"
   serif:id="path9948"
   id="path99482" />
      <path
   inkscape:connector-curvature="0"
   style="fill:none;stroke:#cccccc;stroke-width:1.5px"
   d="m 83.297,85.093 3.717,1.34"
   serif:id="path9948"
   id="path99483" />
      <path
   inkscape:connector-curvature="0"
   style="fill:none;stroke:#cccccc;stroke-width:1.5px"
   d="m 55.418,73.559 -3.719,-1.86"
   serif:id="path9948"
   id="path99484" />
      <path
   inkscape:connector-curvature="0"
   style="fill:none;stroke:#cccccc;stroke-width:1.5px"
   d="m 54.767,84.958 -3.764,1.378"
   serif:id="path9948"
   id="path99485" />
      <path
   inkscape:connector-curvature="0"
   style="fill:#cccccc;fill-rule:nonzero;stroke:#cccccc;stroke-width:1.5px"
   d="m 83.425,90.411 0.037,6.718"
   id="path9630" />
      <path
   inkscape:connector-curvature="0"
   style="fill:#cccccc;fill-rule:nonzero;stroke:#cccccc;stroke-width:1.5px"
   d="m 86.802,93.722 -6.718,0.031"
   id="path9630-1" />
      <path
   inkscape:connector-curvature="0"
   style="fill:#cccccc;fill-rule:nonzero;stroke:#cccccc;stroke-width:1.5px"
   d="m 58.905,93.531 -6.719,0.031"
   id="path9630-1-6" />
    </g><g
     style="fill-rule:evenodd;clip-rule:evenodd;stroke-linecap:round"
     serif:id="text9293-4"
     id="text9293-41">
      <path
   inkscape:connector-curvature="0"
   id="path44"
   style="fill:#ffffff;fill-rule:nonzero"
   d="m 15.839,98.463 v 4.116 H 14.467 V 98.463 H 13.34 v -1.162 h 3.626 v 1.162 z" />
      <path
   inkscape:connector-curvature="0"
   id="path46"
   style="fill:#ffffff;fill-rule:nonzero"
   d="m 18.947,97.301 v 2.87 c 0,0.154 0.006,0.312 0.018,0.473 0.011,0.161 0.046,0.307 0.104,0.437 0.059,0.131 0.151,0.237 0.277,0.319 0.126,0.082 0.303,0.122 0.532,0.122 0.229,0 0.405,-0.04 0.529,-0.122 0.123,-0.082 0.215,-0.188 0.276,-0.319 0.061,-0.13 0.097,-0.276 0.108,-0.437 0.012,-0.161 0.018,-0.319 0.018,-0.473 v -2.87 h 1.365 v 3.059 c 0,0.822 -0.188,1.421 -0.563,1.799 -0.376,0.378 -0.954,0.567 -1.733,0.567 -0.779,0 -1.358,-0.189 -1.736,-0.567 -0.378,-0.378 -0.567,-0.977 -0.567,-1.799 v -3.059 z" />
      <path
   inkscape:connector-curvature="0"
   id="path48"
   style="fill:#ffffff;fill-rule:nonzero"
   d="m 23.28,102.579 v -5.278 h 1.372 l 2.534,3.227 v -3.227 h 1.365 v 5.278 h -1.365 l -2.534,-3.227 v 3.227 z" />
      <path
   inkscape:connector-curvature="0"
   id="path50"
   style="fill:#ffffff;fill-rule:nonzero"
   d="m 32.66,98.463 h -1.631 v 0.882 h 1.54 v 1.162 h -1.54 v 0.91 h 1.631 v 1.162 h -3.003 v -5.278 h 3.003 z" />
    </g><g
     style="fill-rule:evenodd;clip-rule:evenodd;stroke-linecap:round"
     serif:id="text9293-4"
     id="text9293-42">
      <path
   inkscape:connector-curvature="0"
   id="path53"
   style="fill:#ffffff;fill-rule:nonzero"
   d="m 34.722,166.713 0.896,-5.278 h 1.358 l 1.057,2.814 1.05,-2.814 h 1.358 l 0.896,5.278 h -1.365 l -0.455,-3.038 -1.246,3.038 h -0.546 l -1.183,-3.038 -0.455,3.038 z" />
      <path
   inkscape:connector-curvature="0"
   id="path55"
   style="fill:#ffffff;fill-rule:nonzero"
   d="m 43.402,164.074 c 0,0.21 0.039,0.404 0.119,0.581 0.079,0.177 0.186,0.331 0.322,0.462 0.135,0.131 0.292,0.232 0.472,0.305 0.18,0.072 0.37,0.108 0.571,0.108 0.2,0 0.39,-0.036 0.57,-0.108 0.18,-0.073 0.338,-0.174 0.476,-0.305 0.138,-0.131 0.246,-0.285 0.326,-0.462 0.079,-0.177 0.119,-0.371 0.119,-0.581 0,-0.21 -0.04,-0.404 -0.119,-0.581 -0.08,-0.177 -0.188,-0.331 -0.326,-0.462 -0.138,-0.131 -0.296,-0.232 -0.476,-0.304 -0.18,-0.073 -0.37,-0.109 -0.57,-0.109 -0.201,0 -0.391,0.036 -0.571,0.109 -0.18,0.072 -0.337,0.173 -0.472,0.304 -0.136,0.131 -0.243,0.285 -0.322,0.462 -0.08,0.177 -0.119,0.371 -0.119,0.581 z m -1.435,0 c 0,-0.392 0.072,-0.757 0.217,-1.095 0.144,-0.339 0.345,-0.634 0.602,-0.886 0.256,-0.252 0.563,-0.449 0.92,-0.591 0.357,-0.143 0.75,-0.214 1.18,-0.214 0.424,0 0.816,0.071 1.176,0.214 0.359,0.142 0.668,0.339 0.927,0.591 0.259,0.252 0.461,0.547 0.606,0.886 0.144,0.338 0.217,0.703 0.217,1.095 0,0.392 -0.073,0.757 -0.217,1.096 -0.145,0.338 -0.347,0.633 -0.606,0.885 -0.259,0.252 -0.568,0.449 -0.927,0.592 -0.36,0.142 -0.752,0.213 -1.176,0.213 -0.43,0 -0.823,-0.071 -1.18,-0.213 -0.357,-0.143 -0.664,-0.34 -0.92,-0.592 -0.257,-0.252 -0.458,-0.547 -0.602,-0.885 -0.145,-0.339 -0.217,-0.704 -0.217,-1.096 z" />
      <path
   inkscape:connector-curvature="0"
   id="path57"
   style="fill:#ffffff;fill-rule:nonzero"
   d="m 50.052,165.551 h 0.315 c 0.238,0 0.45,-0.037 0.637,-0.112 0.186,-0.075 0.344,-0.177 0.472,-0.308 0.128,-0.131 0.226,-0.286 0.294,-0.465 0.068,-0.18 0.102,-0.377 0.102,-0.592 0,-0.21 -0.035,-0.406 -0.105,-0.588 -0.07,-0.182 -0.17,-0.338 -0.298,-0.469 -0.128,-0.131 -0.286,-0.233 -0.472,-0.308 -0.187,-0.075 -0.397,-0.112 -0.63,-0.112 h -0.315 z m -1.372,-4.116 h 2.03 c 0.359,0 0.696,0.072 1.011,0.217 0.315,0.145 0.59,0.337 0.826,0.578 0.236,0.24 0.421,0.52 0.557,0.84 0.135,0.319 0.203,0.654 0.203,1.004 0,0.345 -0.067,0.678 -0.2,0.998 -0.133,0.319 -0.317,0.6 -0.553,0.843 -0.236,0.243 -0.511,0.436 -0.826,0.581 -0.315,0.145 -0.654,0.217 -1.018,0.217 h -2.03 z" />
      <path
   inkscape:connector-curvature="0"
   id="path59"
   style="fill:#ffffff;fill-rule:nonzero"
   d="m 55.484,162.597 h -0.77 v -1.162 h 2.142 v 5.278 h -1.372 z" />
    </g><g
     style="fill-rule:evenodd;clip-rule:evenodd;stroke-linecap:round"
     id="g67">
      <path
   inkscape:connector-curvature="0"
   style="fill:none;stroke:#cccccc;stroke-width:1px"
   d="m 73.648,187.83 c 2.739,-4.743 1.666,-10.827 -2.529,-14.347 -4.196,-3.521 -10.374,-3.521 -14.569,0 -4.196,3.52 -5.269,9.604 -2.53,14.347 l 9.814,-5.666 z"
   id="path8216-1-5-0-2" />
      <path
   inkscape:connector-curvature="0"
   style="fill:#cccccc;fill-rule:nonzero;stroke:#cccccc;stroke-width:1px"
   d="m 73.278,189.024 0.024,4.412"
   id="path9630-2-6-1" />
      <path
   inkscape:connector-curvature="0"
   style="fill:#cccccc;fill-rule:nonzero;stroke:#cccccc;stroke-width:1px"
   d="m 75.496,191.198 -4.413,0.02"
   id="path9630-1-1-4-7" />
      <path
   inkscape:connector-curvature="0"
   style="fill:#cccccc;fill-rule:nonzero;stroke:#cccccc;stroke-width:1px"
   d="m 57.175,191.073 -4.412,0.02"
   id="path9630-1-6-9-9-2" />
      <path
   inkscape:connector-curvature="0"
   style="fill:none;stroke:#cccccc;stroke-width:1px"
   d="M 63.834,182.166 63.811,168.858"
   id="path9948-9-9-4" />
    </g><g
     style="fill-rule:evenodd;clip-rule:evenodd;stroke-linecap:round"
     id="text7967-9-5">
      <g
   id="g101"
   transform="matrix(1.05877,0,0,1.05877,7.75829,37.7142)">
        <path
   inkscape:connector-curvature="0"
   id="path69"
   style="fill:#ffffff;fill-rule:nonzero"
   d="m 18.171,-0.154 v -0.954 c 0.645,0.27 1.196,0.404 1.653,0.404 0.534,0 0.8,-0.181 0.8,-0.545 0,-0.234 -0.219,-0.439 -0.659,-0.615 l -0.44,-0.176 c -0.478,-0.194 -0.819,-0.402 -1.024,-0.625 -0.205,-0.222 -0.308,-0.498 -0.308,-0.826 0,-0.458 0.174,-0.813 0.523,-1.067 0.349,-0.253 0.837,-0.38 1.464,-0.38 0.393,0 0.861,0.057 1.403,0.172 v 0.914 c -0.522,-0.182 -0.954,-0.272 -1.297,-0.272 -0.539,0 -0.809,0.167 -0.809,0.501 0,0.22 0.199,0.406 0.598,0.558 l 0.378,0.145 c 0.566,0.214 0.959,0.431 1.181,0.651 0.221,0.22 0.332,0.503 0.332,0.849 0,0.454 -0.189,0.823 -0.565,1.106 -0.377,0.282 -0.867,0.424 -1.471,0.424 -0.581,0 -1.167,-0.088 -1.759,-0.264 z" />
        <path
   inkscape:connector-curvature="0"
   id="path71"
   style="fill:#ffffff;fill-rule:nonzero"
   d="m 23.39,0 v -4.828 h 1.249 v 0.91 c 0.381,-0.68 0.923,-1.02 1.627,-1.02 0.363,0 0.662,0.089 0.897,0.268 0.234,0.179 0.378,0.43 0.431,0.752 0.451,-0.68 0.997,-1.02 1.636,-1.02 0.882,0 1.323,0.487 1.323,1.46 V 0 h -1.249 v -3.052 c 0,-0.571 -0.19,-0.857 -0.571,-0.857 -0.39,0 -0.77,0.281 -1.139,0.844 V 0 h -1.249 v -3.052 c 0,-0.574 -0.192,-0.861 -0.576,-0.861 -0.384,0 -0.761,0.282 -1.13,0.848 V 0 Z" />
        <path
   inkscape:connector-curvature="0"
   id="path73"
   style="fill:#ffffff;fill-rule:nonzero"
   d="m 34.15,0.11 c -0.753,0 -1.352,-0.228 -1.796,-0.684 -0.444,-0.456 -0.666,-1.069 -0.666,-1.84 0,-0.78 0.223,-1.395 0.67,-1.847 0.447,-0.451 1.055,-0.677 1.823,-0.677 0.771,0 1.38,0.226 1.827,0.677 0.447,0.452 0.67,1.064 0.67,1.838 0,0.792 -0.224,1.412 -0.673,1.86 -0.448,0.449 -1.067,0.673 -1.855,0.673 z m 0.022,-0.814 c 0.747,0 1.121,-0.573 1.121,-1.719 0,-0.525 -0.099,-0.939 -0.297,-1.244 -0.198,-0.305 -0.469,-0.457 -0.815,-0.457 -0.343,0 -0.614,0.152 -0.812,0.457 -0.197,0.305 -0.296,0.722 -0.296,1.253 0,0.525 0.098,0.941 0.294,1.249 0.197,0.308 0.465,0.461 0.805,0.461 z" />
        <path
   inkscape:connector-curvature="0"
   id="path75"
   style="fill:#ffffff;fill-rule:nonzero"
   d="m 39.901,0.11 c -0.753,0 -1.352,-0.228 -1.796,-0.684 -0.444,-0.456 -0.666,-1.069 -0.666,-1.84 0,-0.78 0.223,-1.395 0.67,-1.847 0.447,-0.451 1.055,-0.677 1.823,-0.677 0.771,0 1.38,0.226 1.827,0.677 0.447,0.452 0.671,1.064 0.671,1.838 0,0.792 -0.225,1.412 -0.673,1.86 -0.449,0.449 -1.067,0.673 -1.856,0.673 z m 0.022,-0.814 c 0.748,0 1.122,-0.573 1.122,-1.719 0,-0.525 -0.099,-0.939 -0.297,-1.244 -0.198,-0.305 -0.47,-0.457 -0.816,-0.457 -0.343,0 -0.613,0.152 -0.811,0.457 -0.198,0.305 -0.297,0.722 -0.297,1.253 0,0.525 0.098,0.941 0.295,1.249 0.196,0.308 0.464,0.461 0.804,0.461 z" />
        <path
   inkscape:connector-curvature="0"
   id="path77"
   style="fill:#ffffff;fill-rule:nonzero"
   d="m 46.114,-0.026 c -0.31,0.09 -0.555,0.136 -0.734,0.136 -1.129,0 -1.693,-0.528 -1.693,-1.583 v -2.542 h -0.541 v -0.813 h 0.541 v -0.813 l 1.302,-0.15 v 0.963 h 1.033 v 0.813 h -1.033 v 2.37 c 0,0.593 0.242,0.889 0.725,0.889 0.112,0 0.245,-0.021 0.4,-0.062 z" />
        <path
   inkscape:connector-curvature="0"
   id="path79"
   style="fill:#ffffff;fill-rule:nonzero"
   d="m 47.275,0 v -6.943 h 1.302 v 3.025 c 0.425,-0.68 0.973,-1.02 1.644,-1.02 0.431,0 0.771,0.136 1.02,0.409 0.249,0.273 0.374,0.645 0.374,1.117 V 0 h -1.301 v -3.091 c 0,-0.548 -0.182,-0.822 -0.546,-0.822 -0.413,0 -0.81,0.291 -1.191,0.875 V 0 Z" />
        <path
   inkscape:connector-curvature="0"
   id="path81"
   style="fill:#ffffff;fill-rule:nonzero"
   d="m 16.166,11.366 c -0.754,0 -1.352,-0.227 -1.796,-0.683 -0.444,-0.456 -0.667,-1.07 -0.667,-1.84 0,-0.78 0.224,-1.396 0.671,-1.847 0.447,-0.452 1.055,-0.677 1.823,-0.677 0.771,0 1.38,0.225 1.827,0.677 0.447,0.451 0.67,1.064 0.67,1.838 0,0.791 -0.224,1.411 -0.673,1.86 -0.448,0.448 -1.067,0.672 -1.855,0.672 z m 0.022,-0.813 c 0.747,0 1.121,-0.573 1.121,-1.719 0,-0.525 -0.099,-0.94 -0.297,-1.245 -0.198,-0.305 -0.469,-0.457 -0.815,-0.457 -0.343,0 -0.614,0.152 -0.812,0.457 -0.197,0.305 -0.296,0.723 -0.296,1.254 0,0.524 0.098,0.94 0.294,1.248 0.197,0.308 0.465,0.462 0.805,0.462 z" />
        <path
   inkscape:connector-curvature="0"
   id="path83"
   style="fill:#ffffff;fill-rule:nonzero"
   d="m 19.763,11.103 v -0.955 c 0.645,0.27 1.196,0.405 1.653,0.405 0.533,0 0.8,-0.182 0.8,-0.545 0,-0.235 -0.22,-0.44 -0.659,-0.616 L 21.117,9.216 C 20.639,9.023 20.298,8.815 20.092,8.592 19.887,8.369 19.785,8.094 19.785,7.765 c 0,-0.457 0.174,-0.812 0.523,-1.066 0.349,-0.254 0.837,-0.38 1.464,-0.38 0.393,0 0.86,0.057 1.403,0.171 V 7.405 C 22.653,7.223 22.221,7.132 21.878,7.132 c -0.54,0 -0.809,0.167 -0.809,0.501 0,0.22 0.199,0.406 0.598,0.559 l 0.378,0.145 c 0.566,0.214 0.959,0.431 1.18,0.651 0.222,0.219 0.332,0.502 0.332,0.848 0,0.455 -0.188,0.823 -0.565,1.106 -0.376,0.283 -0.867,0.424 -1.471,0.424 -0.58,0 -1.166,-0.087 -1.758,-0.263 z" />
        <path
   inkscape:connector-curvature="0"
   id="path85"
   style="fill:#ffffff;fill-rule:nonzero"
   d="m 28.544,11.151 c -0.54,0.144 -1.04,0.215 -1.5,0.215 -0.771,0 -1.38,-0.226 -1.827,-0.679 -0.447,-0.453 -0.67,-1.069 -0.67,-1.849 0,-0.788 0.23,-1.405 0.69,-1.851 0.46,-0.446 1.096,-0.668 1.908,-0.668 0.393,0 0.846,0.063 1.359,0.189 v 0.941 c -0.533,-0.173 -0.96,-0.26 -1.28,-0.26 -0.389,0 -0.703,0.15 -0.94,0.449 -0.238,0.299 -0.357,0.696 -0.357,1.191 0,0.507 0.129,0.913 0.385,1.218 0.257,0.305 0.599,0.458 1.027,0.458 0.39,0 0.791,-0.085 1.205,-0.255 z" />
        <path
   inkscape:connector-curvature="0"
   id="path87"
   style="fill:#ffffff;fill-rule:nonzero"
   d="M 29.775,11.257 V 6.429 h 1.301 v 4.828 z m 0,-5.642 V 4.529 h 1.301 v 1.086 z" />
        <rect
   id="rect89"
   style="fill:#ffffff;fill-rule:nonzero"
   height="6.9429998"
   width="1.302"
   y="4.3140001"
   x="32.702999" />
        <rect
   id="rect91"
   style="fill:#ffffff;fill-rule:nonzero"
   height="6.9429998"
   width="1.302"
   y="4.3140001"
   x="35.632" />
        <path
   inkscape:connector-curvature="0"
   id="path93"
   style="fill:#ffffff;fill-rule:nonzero"
   d="m 40.926,10.738 c -0.434,0.419 -0.899,0.628 -1.394,0.628 -0.422,0 -0.765,-0.129 -1.029,-0.386 -0.264,-0.258 -0.396,-0.593 -0.396,-1.003 0,-0.534 0.214,-0.945 0.64,-1.233 0.427,-0.289 1.037,-0.434 1.831,-0.434 h 0.348 V 7.871 c 0,-0.501 -0.286,-0.752 -0.858,-0.752 -0.507,0 -1.02,0.144 -1.539,0.431 V 6.653 c 0.59,-0.223 1.173,-0.334 1.75,-0.334 1.264,0 1.896,0.502 1.896,1.508 v 2.137 c 0,0.378 0.121,0.567 0.365,0.567 0.043,0 0.101,-0.006 0.171,-0.018 l 0.031,0.73 c -0.276,0.082 -0.519,0.123 -0.73,0.123 -0.534,0 -0.877,-0.209 -1.029,-0.628 z m 0,-0.699 V 9.058 h -0.308 c -0.841,0 -1.262,0.264 -1.262,0.791 0,0.179 0.061,0.329 0.183,0.451 0.121,0.122 0.271,0.183 0.45,0.183 0.305,0 0.617,-0.148 0.937,-0.444 z" />
        <path
   inkscape:connector-curvature="0"
   id="path95"
   style="fill:#ffffff;fill-rule:nonzero"
   d="m 46.343,11.23 c -0.311,0.091 -0.556,0.136 -0.734,0.136 -1.129,0 -1.693,-0.527 -1.693,-1.583 V 7.242 H 43.375 V 6.429 h 0.541 V 5.615 l 1.301,-0.149 v 0.963 h 1.034 v 0.813 h -1.034 v 2.37 c 0,0.592 0.242,0.888 0.726,0.888 0.111,0 0.245,-0.02 0.4,-0.061 z" />
        <path
   inkscape:connector-curvature="0"
   id="path97"
   style="fill:#ffffff;fill-rule:nonzero"
   d="m 49.531,11.366 c -0.753,0 -1.352,-0.227 -1.796,-0.683 -0.444,-0.456 -0.666,-1.07 -0.666,-1.84 0,-0.78 0.223,-1.396 0.67,-1.847 0.447,-0.452 1.055,-0.677 1.823,-0.677 0.771,0 1.38,0.225 1.827,0.677 0.447,0.451 0.67,1.064 0.67,1.838 0,0.791 -0.224,1.411 -0.673,1.86 -0.448,0.448 -1.067,0.672 -1.855,0.672 z m 0.022,-0.813 c 0.747,0 1.121,-0.573 1.121,-1.719 0,-0.525 -0.099,-0.94 -0.297,-1.245 -0.198,-0.305 -0.469,-0.457 -0.815,-0.457 -0.343,0 -0.614,0.152 -0.812,0.457 -0.197,0.305 -0.296,0.723 -0.296,1.254 0,0.524 0.098,0.94 0.294,1.248 0.197,0.308 0.465,0.462 0.805,0.462 z" />
        <path
   inkscape:connector-curvature="0"
   id="path99"
   style="fill:#ffffff;fill-rule:nonzero"
   d="M 53.255,11.257 V 6.429 h 1.302 v 0.91 c 0.337,-0.68 0.85,-1.02 1.539,-1.02 0.082,0 0.162,0.008 0.242,0.026 V 7.506 C 56.153,7.438 55.981,7.405 55.823,7.405 c -0.519,0 -0.941,0.262 -1.266,0.787 v 3.065 z" />
      </g>
    </g><g
     style="clip-rule:evenodd;fill:#6a9696;fill-rule:evenodd;stroke-linecap:round;fill-opacity:1"
     id="g114"
     transform="translate(-1.4088983,-1.0063559)">
      <path
   inkscape:connector-curvature="0"
   id="path104"
   style="fill:#6a9696;fill-rule:nonzero;fill-opacity:1"
   d="m 28.078,24.283 h 0.541 c 0.62,0 1.065,-0.08 1.333,-0.239 0.269,-0.16 0.403,-0.415 0.403,-0.768 0,-0.352 -0.134,-0.608 -0.403,-0.767 C 29.684,22.35 29.239,22.27 28.619,22.27 h -0.541 z m 0,-3.85 h 0.453 c 0.771,0 1.157,-0.306 1.157,-0.918 0,-0.612 -0.386,-0.918 -1.157,-0.918 H 28.078 Z M 25.612,16.71 h 3.674 c 0.872,0 1.534,0.209 1.987,0.629 0.453,0.419 0.68,1.023 0.68,1.811 0,0.478 -0.086,0.875 -0.258,1.189 -0.172,0.315 -0.434,0.581 -0.787,0.799 0.353,0.067 0.652,0.17 0.9,0.308 0.247,0.138 0.449,0.308 0.604,0.51 0.155,0.201 0.266,0.427 0.333,0.679 0.067,0.251 0.101,0.52 0.101,0.805 0,0.444 -0.078,0.839 -0.233,1.183 -0.155,0.343 -0.373,0.633 -0.654,0.868 -0.281,0.234 -0.623,0.41 -1.025,0.528 -0.403,0.117 -0.856,0.176 -1.359,0.176 h -3.963 z" />
      <path
   inkscape:connector-curvature="0"
   id="path106"
   style="fill:#6a9696;fill-rule:nonzero;fill-opacity:1"
   d="m 39.337,22.673 -1.107,-3.158 -1.107,3.158 z m 0.654,1.874 h -3.522 l -0.566,1.648 h -2.63 l 3.611,-9.485 h 2.692 l 3.61,9.485 h -2.629 z" />
      <path
   inkscape:connector-curvature="0"
   id="path108"
   style="fill:#6a9696;fill-rule:nonzero;fill-opacity:1"
   d="m 49.476,19.138 c -0.268,-0.218 -0.536,-0.38 -0.805,-0.485 -0.268,-0.104 -0.528,-0.157 -0.78,-0.157 -0.319,0 -0.578,0.076 -0.78,0.227 -0.201,0.151 -0.302,0.348 -0.302,0.591 0,0.168 0.051,0.306 0.151,0.415 0.101,0.109 0.233,0.203 0.397,0.283 0.163,0.08 0.348,0.149 0.553,0.208 0.206,0.058 0.409,0.121 0.61,0.188 0.805,0.269 1.394,0.627 1.768,1.076 0.373,0.449 0.559,1.033 0.559,1.755 0,0.486 -0.081,0.926 -0.245,1.321 -0.163,0.394 -0.402,0.731 -0.717,1.012 -0.314,0.281 -0.7,0.499 -1.157,0.654 -0.457,0.156 -0.975,0.233 -1.554,0.233 -1.199,0 -2.31,-0.356 -3.334,-1.069 l 1.057,-1.988 c 0.369,0.327 0.734,0.571 1.095,0.73 0.36,0.159 0.717,0.239 1.069,0.239 0.402,0 0.702,-0.092 0.899,-0.277 0.197,-0.184 0.296,-0.394 0.296,-0.629 0,-0.142 -0.025,-0.266 -0.075,-0.371 C 48.13,22.989 48.046,22.893 47.929,22.805 47.812,22.717 47.658,22.635 47.47,22.559 47.281,22.484 47.053,22.4 46.784,22.308 46.465,22.207 46.153,22.096 45.847,21.974 45.541,21.853 45.268,21.691 45.029,21.49 44.79,21.289 44.597,21.035 44.451,20.729 44.304,20.423 44.23,20.035 44.23,19.565 c 0,-0.469 0.078,-0.895 0.233,-1.276 0.155,-0.382 0.373,-0.709 0.654,-0.982 0.281,-0.272 0.625,-0.484 1.032,-0.635 0.407,-0.151 0.862,-0.226 1.365,-0.226 0.469,0 0.96,0.065 1.472,0.195 0.511,0.13 1.002,0.32 1.471,0.572 z" />
      <path
   inkscape:connector-curvature="0"
   id="path110"
   style="fill:#6a9696;fill-rule:nonzero;fill-opacity:1"
   d="m 57.376,22.673 -1.107,-3.158 -1.107,3.158 z m 0.655,1.874 h -3.523 l -0.566,1.648 h -2.629 l 3.61,-9.485 h 2.692 l 3.611,9.485 h -2.629 z" />
      <path
   inkscape:connector-curvature="0"
   id="path112"
   style="fill:#6a9696;fill-rule:nonzero;fill-opacity:1"
   d="m 64.773,16.71 v 7.397 h 2.957 v 2.088 H 62.308 V 16.71 Z" />
    </g><g
     style="fill-rule:evenodd;clip-rule:evenodd;stroke-linecap:round"
     id="g119">
      <path
   inkscape:connector-curvature="0"
   style="fill:none;stroke:#cccccc;stroke-width:1.5px;stroke-linejoin:miter"
   d="m 67.071,147.79 c 5.878,-10.185 3.577,-23.246 -5.431,-30.805 -9.007,-7.555 -22.273,-7.555 -31.28,0 -9.008,7.559 -11.309,20.62 -5.431,30.805"
   id="path1274" />
      <circle
   style="fill:none;stroke:#cccccc;stroke-width:1px;stroke-linecap:butt;stroke-linejoin:miter"
   r="3.7060001"
   cy="157.058"
   cx="27.861"
   id="circle1277" />
      <circle
   style="fill:#cccccc;stroke:#cccccc;stroke-width:1px;stroke-linecap:butt;stroke-linejoin:miter"
   r="3.7060001"
   cy="156.545"
   cx="65.639999"
   id="circle1280" />
    </g><path
     inkscape:connector-curvature="0"
     id="path121"
     style="fill-rule:evenodd;clip-rule:evenodd;stroke-linecap:butt;stroke:#3b5858;stroke-width:1px;stroke-linejoin:round;stroke-miterlimit:1.5;fill:#111717;fill-opacity:1;stroke-opacity:1"
     d="m 79.321,317.522 c 0,-4.116 -3.342,-7.458 -7.458,-7.458 H 56.947 c -4.117,0 -7.459,3.342 -7.459,7.458 v 20.903 c 0,4.116 3.342,7.458 7.459,7.458 h 14.916 c 4.116,0 7.458,-3.342 7.458,-7.458 z" /><g
     style="fill-rule:evenodd;clip-rule:evenodd;stroke-linecap:round"
     serif:id="text9293-4"
     id="text9293-43">
      <path
   inkscape:connector-curvature="0"
   id="path123"
   style="fill:#ffffff;fill-rule:nonzero"
   d="m 15.403,339.394 1.274,3.213 1.281,-3.213 h 1.491 l -2.226,5.278 h -1.092 l -2.219,-5.278 z" />
      <path
   inkscape:connector-curvature="0"
   id="path125"
   style="fill:#ffffff;fill-rule:nonzero"
   d="m 22.319,338.862 h 1.001 l -2.884,7.021 h -0.994 z" />
      <path
   inkscape:connector-curvature="0"
   id="path127"
   style="fill:#ffffff;fill-rule:nonzero"
   d="m 24.874,342.033 c 0,0.21 0.04,0.404 0.119,0.581 0.08,0.178 0.187,0.332 0.322,0.462 0.136,0.131 0.293,0.232 0.473,0.305 0.18,0.072 0.37,0.108 0.57,0.108 0.201,0 0.391,-0.036 0.571,-0.108 0.18,-0.073 0.338,-0.174 0.476,-0.305 0.138,-0.13 0.246,-0.284 0.325,-0.462 0.08,-0.177 0.119,-0.371 0.119,-0.581 0,-0.21 -0.039,-0.403 -0.119,-0.581 -0.079,-0.177 -0.187,-0.331 -0.325,-0.462 -0.138,-0.13 -0.296,-0.232 -0.476,-0.304 -0.18,-0.073 -0.37,-0.109 -0.571,-0.109 -0.2,0 -0.39,0.036 -0.57,0.109 -0.18,0.072 -0.337,0.174 -0.473,0.304 -0.135,0.131 -0.242,0.285 -0.322,0.462 -0.079,0.178 -0.119,0.371 -0.119,0.581 z m -1.435,0 c 0,-0.392 0.073,-0.757 0.217,-1.095 0.145,-0.339 0.346,-0.634 0.602,-0.886 0.257,-0.252 0.564,-0.449 0.921,-0.591 0.357,-0.143 0.75,-0.214 1.179,-0.214 0.425,0 0.817,0.071 1.176,0.214 0.36,0.142 0.669,0.339 0.928,0.591 0.259,0.252 0.461,0.547 0.605,0.886 0.145,0.338 0.217,0.703 0.217,1.095 0,0.392 -0.072,0.757 -0.217,1.096 -0.144,0.338 -0.346,0.633 -0.605,0.885 -0.259,0.252 -0.568,0.449 -0.928,0.592 -0.359,0.142 -0.751,0.213 -1.176,0.213 -0.429,0 -0.822,-0.071 -1.179,-0.213 -0.357,-0.143 -0.664,-0.34 -0.921,-0.592 -0.256,-0.252 -0.457,-0.547 -0.602,-0.885 -0.144,-0.339 -0.217,-0.704 -0.217,-1.096 z" />
      <path
   inkscape:connector-curvature="0"
   id="path129"
   style="fill:#ffffff;fill-rule:nonzero"
   d="m 33.953,341.158 c -0.317,-0.387 -0.709,-0.581 -1.176,-0.581 -0.205,0 -0.395,0.038 -0.57,0.112 -0.175,0.075 -0.326,0.176 -0.452,0.305 -0.126,0.128 -0.225,0.281 -0.297,0.458 -0.072,0.178 -0.109,0.369 -0.109,0.574 0,0.21 0.037,0.404 0.109,0.581 0.072,0.178 0.173,0.332 0.301,0.462 0.128,0.131 0.279,0.234 0.451,0.308 0.173,0.075 0.36,0.112 0.56,0.112 0.439,0 0.833,-0.186 1.183,-0.56 v 1.624 l -0.14,0.049 c -0.21,0.075 -0.406,0.13 -0.588,0.165 -0.182,0.035 -0.361,0.052 -0.539,0.052 -0.364,0 -0.712,-0.069 -1.046,-0.206 -0.334,-0.138 -0.628,-0.332 -0.882,-0.581 -0.254,-0.25 -0.459,-0.546 -0.613,-0.889 -0.154,-0.343 -0.231,-0.718 -0.231,-1.124 0,-0.406 0.076,-0.778 0.228,-1.116 0.152,-0.339 0.355,-0.63 0.609,-0.875 0.254,-0.245 0.549,-0.437 0.885,-0.574 0.336,-0.138 0.689,-0.207 1.057,-0.207 0.21,0 0.417,0.022 0.62,0.067 0.203,0.044 0.416,0.113 0.64,0.206 z" />
      <path
   inkscape:connector-curvature="0"
   id="path131"
   style="fill:#ffffff;fill-rule:nonzero"
   d="m 36.823,340.556 v 4.116 h -1.372 v -4.116 h -1.127 v -1.162 h 3.626 v 1.162 z" />
    </g><g
     style="fill-rule:evenodd;clip-rule:evenodd;stroke-linecap:round"
     serif:id="text9293-4"
     id="text9293-44">
      <path
   inkscape:connector-curvature="0"
   id="path134"
   style="fill:#ffffff;fill-rule:nonzero"
   d="m 58.162,342.097 c 0,0.21 0.039,0.404 0.119,0.581 0.079,0.178 0.186,0.332 0.322,0.462 0.135,0.131 0.292,0.232 0.472,0.305 0.18,0.072 0.37,0.108 0.571,0.108 0.2,0 0.39,-0.036 0.57,-0.108 0.18,-0.073 0.338,-0.174 0.476,-0.305 0.138,-0.13 0.246,-0.284 0.326,-0.462 0.079,-0.177 0.119,-0.371 0.119,-0.581 0,-0.21 -0.04,-0.403 -0.119,-0.581 -0.08,-0.177 -0.188,-0.331 -0.326,-0.462 -0.138,-0.13 -0.296,-0.232 -0.476,-0.304 -0.18,-0.073 -0.37,-0.109 -0.57,-0.109 -0.201,0 -0.391,0.036 -0.571,0.109 -0.18,0.072 -0.337,0.174 -0.472,0.304 -0.136,0.131 -0.243,0.285 -0.322,0.462 -0.08,0.178 -0.119,0.371 -0.119,0.581 z m -1.435,0 c 0,-0.392 0.072,-0.757 0.217,-1.095 0.144,-0.339 0.345,-0.634 0.602,-0.886 0.256,-0.252 0.563,-0.449 0.92,-0.591 0.357,-0.143 0.75,-0.214 1.18,-0.214 0.424,0 0.816,0.071 1.176,0.214 0.359,0.142 0.668,0.339 0.927,0.591 0.259,0.252 0.461,0.547 0.606,0.886 0.144,0.338 0.217,0.703 0.217,1.095 0,0.392 -0.073,0.757 -0.217,1.096 -0.145,0.338 -0.347,0.633 -0.606,0.885 -0.259,0.252 -0.568,0.449 -0.927,0.592 -0.36,0.142 -0.752,0.213 -1.176,0.213 -0.43,0 -0.823,-0.071 -1.18,-0.213 -0.357,-0.143 -0.664,-0.34 -0.92,-0.592 -0.257,-0.252 -0.458,-0.547 -0.602,-0.885 -0.145,-0.339 -0.217,-0.704 -0.217,-1.096 z" />
      <path
   inkscape:connector-curvature="0"
   id="path136"
   style="fill:#ffffff;fill-rule:nonzero"
   d="m 64.812,339.458 v 2.87 c 0,0.154 0.005,0.312 0.017,0.473 0.012,0.161 0.047,0.307 0.105,0.437 0.058,0.131 0.151,0.237 0.277,0.319 0.126,0.081 0.303,0.122 0.532,0.122 0.228,0 0.404,-0.041 0.528,-0.122 0.124,-0.082 0.216,-0.188 0.277,-0.319 0.06,-0.13 0.096,-0.276 0.108,-0.437 0.012,-0.161 0.018,-0.319 0.018,-0.473 v -2.87 h 1.365 v 3.059 c 0,0.822 -0.188,1.421 -0.564,1.799 -0.376,0.378 -0.953,0.567 -1.732,0.567 -0.78,0 -1.358,-0.189 -1.736,-0.567 -0.378,-0.378 -0.567,-0.977 -0.567,-1.799 v -3.059 z" />
      <path
   inkscape:connector-curvature="0"
   id="path138"
   style="fill:#ffffff;fill-rule:nonzero"
   d="m 71.147,340.62 v 4.116 h -1.372 v -4.116 h -1.127 v -1.162 h 3.626 v 1.162 z" />
    </g><path
     id="path42"
     d="m 33.395,368.094 h 1.751 l 1.632,5.451 1.687,-5.451 h 1.743 l -2.268,6.814 c -0.212,0.628 -0.591,0.942 -1.139,0.942 -0.555,0 -0.938,-0.317 -1.15,-0.952 z"
     style="clip-rule:evenodd;fill:#6a9696;fill-rule:nonzero;stroke-linecap:round;fill-opacity:1"
     inkscape:connector-curvature="0" /><path
     id="path142"
     d="m 40.339,373.856 v -5.762 h 1.643 v 5.707 c 0.029,0.205 0.219,0.307 0.57,0.307 h 1.117 c 0.336,0 0.522,-0.095 0.559,-0.285 l 0.011,-0.054 v -5.675 h 1.643 v 5.751 c 0,0.504 -0.055,0.862 -0.165,1.074 -0.292,0.562 -0.806,0.843 -1.544,0.843 h -2.125 c -0.76,0 -1.278,-0.288 -1.556,-0.865 -0.102,-0.212 -0.153,-0.559 -0.153,-1.041 z"
     style="clip-rule:evenodd;fill:#6a9696;fill-rule:nonzero;stroke-linecap:round;fill-opacity:1"
     inkscape:connector-curvature="0" /><path
     id="path144"
     d="m 46.638,373.889 v -5.794 h 1.643 v 5.663 c 0,0.233 0.138,0.35 0.416,0.35 h 2.925 l -0.011,1.654 h -3.057 c -0.109,0 -0.204,-0.004 -0.284,-0.011 -0.592,-0.051 -1.012,-0.224 -1.26,-0.52 -0.248,-0.296 -0.372,-0.743 -0.372,-1.342 z"
     style="clip-rule:evenodd;fill:#6a9696;fill-rule:nonzero;stroke-linecap:round;fill-opacity:1"
     inkscape:connector-curvature="0" /><path
     id="path146"
     d="m 51.676,369.748 v -1.654 h 4.929 v 1.654 h -1.654 v 6.014 h -1.643 v -6.014 z"
     style="clip-rule:evenodd;fill:#6a9696;fill-rule:nonzero;stroke-linecap:round;fill-opacity:1"
     inkscape:connector-curvature="0" /><path
     id="path4"
     d="m 53.383,358.417 c 0,-4.509 -3.655,-8.164 -8.164,-8.164 -4.509,0 -8.165,3.655 -8.165,8.164 0,4.509 3.655,8.165 8.165,8.165 4.509,0 8.164,-3.656 8.164,-8.165 z"
     style="clip-rule:evenodd;fill:#757575;fill-rule:nonzero;stroke:#414c55;stroke-width:0.61000001px;stroke-linecap:butt;stroke-linejoin:miter;stroke-miterlimit:10"
     inkscape:connector-curvature="0" /><path
     id="polygon6"
     d="m 43.321,363.394 0.553,-0.891 -1.064,-2.393 -2.216,-2.284 0.46,3.101 0.597,1.28 0.833,1.264 z"
     style="clip-rule:evenodd;fill:#2b2b2b;fill-rule:nonzero;stroke-linecap:round"
     inkscape:connector-curvature="0" /><path
     id="polygon8"
     d="m 47.048,363.401 -0.553,-0.89 1.064,-2.393 2.216,-2.285 -0.46,3.101 -0.597,1.281 -0.833,1.263 z"
     style="clip-rule:evenodd;fill:#262626;fill-rule:nonzero;stroke-linecap:round"
     inkscape:connector-curvature="0" /><path
     id="polygon12"
     d="m 42.636,352.359 2.584,-0.66 v 13.447 l -1.349,-2.651 -1.061,-2.385 -1.022,-0.581 -2.052,-2.92 -0.057,-0.776 1.148,-2.067 z"
     style="clip-rule:evenodd;fill:#424242;fill-rule:nonzero;stroke-linecap:round"
     inkscape:connector-curvature="0" /><path
     id="polygon14"
     d="m 47.801,352.364 -2.584,-0.661 v 13.448 l 1.35,-2.651 1.06,-2.385 1.023,-0.581 2.051,-2.921 0.058,-0.775 -1.149,-2.067 z"
     style="clip-rule:evenodd;fill:#333333;fill-rule:nonzero;stroke-linecap:round"
     inkscape:connector-curvature="0" /><path
     id="polyline16"
     d="m 43.496,358.237 1.723,-1.684 v 1.229 l -1.723,1.719 v -1.264"
     style="clip-rule:evenodd;fill:#4c4c4c;fill-rule:nonzero;stroke-linecap:round"
     inkscape:connector-curvature="0" /><path
     id="polygon18"
     d="m 45.22,357.781 -1.723,1.718 0.377,3.004 1.346,2.643 z"
     style="clip-rule:evenodd;fill:#5b5b5b;fill-rule:nonzero;stroke-linecap:round"
     inkscape:connector-curvature="0" /><path
     id="polygon20"
     d="m 45.22,365.146 -1.346,-2.643 1.346,-0.635 z"
     style="clip-rule:evenodd;fill:#333333;fill-rule:nonzero;stroke-linecap:round"
     inkscape:connector-curvature="0" /><path
     id="polygon22"
     d="m 43.497,359.499 v -1.263 l -1.249,-1.58 -1.477,-1.19 -10e-4,0.932 0.775,1.823 z"
     style="clip-rule:evenodd;fill:#ffffff;fill-rule:nonzero;stroke-linecap:round"
     inkscape:connector-curvature="0" /><path
     id="polyline24"
     d="m 46.942,358.238 -1.722,-1.685 v 1.23 l 1.722,1.718 v -1.263"
     style="clip-rule:evenodd;fill:#2d2d2d;fill-rule:nonzero;stroke-linecap:round"
     inkscape:connector-curvature="0" /><path
     id="polygon26"
     d="m 45.218,357.781 1.722,1.718 -0.376,3.004 -1.347,2.643 z"
     style="clip-rule:evenodd;fill:#353535;fill-rule:nonzero;stroke-linecap:round"
     inkscape:connector-curvature="0" /><path
     id="polygon28"
     d="m 45.217,365.146 1.347,-2.643 -1.346,-0.635 z"
     style="clip-rule:evenodd;fill:#191919;fill-rule:nonzero;stroke-linecap:round"
     inkscape:connector-curvature="0" /><path
     id="polygon30"
     d="m 46.94,359.499 v -1.263 l 1.249,-1.58 1.478,-1.19 10e-4,0.932 -0.775,1.823 z"
     style="clip-rule:evenodd;fill:#ffffff;fill-rule:nonzero;stroke-linecap:round"
     inkscape:connector-curvature="0" /><path
     id="polyline32"
     d="m 42.652,352.338 2.566,4.215 -0.005,-4.87"
     style="clip-rule:evenodd;fill:#383838;fill-rule:nonzero;stroke-linecap:round"
     inkscape:connector-curvature="0" /><path
     id="polyline34"
     d="m 47.785,352.338 -2.566,4.215 0.006,-4.869"
     style="clip-rule:evenodd;fill:#2d2d2d;fill-rule:nonzero;stroke-linecap:round"
     inkscape:connector-curvature="0" /><path
     id="polygon36"
     d="m 42.811,360.111 0.688,-0.611 0.375,3.006 z"
     style="clip-rule:evenodd;fill:#333333;fill-rule:nonzero;stroke-linecap:round"
     inkscape:connector-curvature="0" /><path
     id="polygon38"
     d="m 47.631,360.125 -0.688,-0.61 -0.375,3.006 z"
     style="clip-rule:evenodd;fill:#1c1c1c;fill-rule:nonzero;stroke-linecap:round"
     inkscape:connector-curvature="0" /><g
     style="fill-rule:evenodd;clip-rule:evenodd;stroke-linecap:round"
     id="g172">
      <path
   inkscape:connector-curvature="0"
   style="fill:none;stroke:#cccccc;stroke-width:1.5px"
   d="m 37.687,88.765 c 4.17,-7.222 2.537,-16.486 -3.852,-21.847 -6.389,-5.361 -15.795,-5.361 -22.184,0 -6.389,5.361 -8.023,14.625 -3.853,21.847"
   serif:id="path8216-1"
   id="path8216-11" />
      <path
   inkscape:connector-curvature="0"
   style="fill:#cccccc;fill-rule:nonzero;stroke:#cccccc;stroke-width:1.5px"
   d="m 37.122,90.583 0.037,6.718"
   serif:id="path9630"
   id="path96301" />
      <path
   inkscape:connector-curvature="0"
   style="fill:#cccccc;fill-rule:nonzero;stroke:#cccccc;stroke-width:1.5px"
   d="m 40.5,93.894 -6.719,0.031"
   serif:id="path9630-1"
   id="path9630-11" />
      <path
   inkscape:connector-curvature="0"
   style="fill:#cccccc;fill-rule:nonzero;stroke:#cccccc;stroke-width:1.5px"
   d="M 12.603,93.703 5.884,93.734"
   serif:id="path9630-1-6"
   id="path9630-1-61" />
      <path
   inkscape:connector-curvature="0"
   style="fill:none;stroke:#cccccc;stroke-width:1.5px"
   d="M 22.708,65.906 V 59.785"
   serif:id="path9948"
   id="path99486" />
    </g><path
     inkscape:connector-curvature="0"
     id="path174"
     style="fill-rule:evenodd;clip-rule:evenodd;stroke-linecap:round;fill:url(#_Linear3)"
     d="M 85,223.6 C 85,214.99 78.01,208 69.4,208 H 22.6 C 13.99,208 7,214.99 7,223.6 v 57.8 c 0,8.61 6.99,15.6 15.6,15.6 h 46.8 c 8.61,0 15.6,-6.99 15.6,-15.6 z" /><path
     inkscape:connector-curvature="0"
     id="path176"
     style="fill-rule:evenodd;clip-rule:evenodd;stroke-linecap:round;fill:#2b3939;fill-opacity:1"
     d="m 84.435,224.158 c 0,-8.485 -6.889,-15.374 -15.374,-15.374 H 22.939 c -8.485,0 -15.374,6.889 -15.374,15.374 v 56.684 c 0,8.485 6.889,15.374 15.374,15.374 h 46.122 c 8.485,0 15.374,-6.889 15.374,-15.374 z" /><g
     style="fill-rule:evenodd;clip-rule:evenodd;stroke-linecap:round"
     serif:id="text9293-4"
     id="text9293-45">
      <path
   inkscape:connector-curvature="0"
   id="path178"
   style="fill:#ffffff;fill-rule:nonzero"
   d="m 34.722,266.713 0.896,-5.278 h 1.358 l 1.057,2.814 1.05,-2.814 h 1.358 l 0.896,5.278 h -1.365 l -0.455,-3.038 -1.246,3.038 h -0.546 l -1.183,-3.038 -0.455,3.038 z" />
      <path
   inkscape:connector-curvature="0"
   id="path180"
   style="fill:#ffffff;fill-rule:nonzero"
   d="m 43.402,264.074 c 0,0.21 0.039,0.404 0.119,0.581 0.079,0.177 0.186,0.331 0.322,0.462 0.135,0.131 0.292,0.232 0.472,0.305 0.18,0.072 0.37,0.108 0.571,0.108 0.2,0 0.39,-0.036 0.57,-0.108 0.18,-0.073 0.338,-0.174 0.476,-0.305 0.138,-0.131 0.246,-0.285 0.326,-0.462 0.079,-0.177 0.119,-0.371 0.119,-0.581 0,-0.21 -0.04,-0.404 -0.119,-0.581 -0.08,-0.177 -0.188,-0.331 -0.326,-0.462 -0.138,-0.131 -0.296,-0.232 -0.476,-0.304 -0.18,-0.073 -0.37,-0.109 -0.57,-0.109 -0.201,0 -0.391,0.036 -0.571,0.109 -0.18,0.072 -0.337,0.173 -0.472,0.304 -0.136,0.131 -0.243,0.285 -0.322,0.462 -0.08,0.177 -0.119,0.371 -0.119,0.581 z m -1.435,0 c 0,-0.392 0.072,-0.757 0.217,-1.095 0.144,-0.339 0.345,-0.634 0.602,-0.886 0.256,-0.252 0.563,-0.449 0.92,-0.591 0.357,-0.143 0.75,-0.214 1.18,-0.214 0.424,0 0.816,0.071 1.176,0.214 0.359,0.142 0.668,0.339 0.927,0.591 0.259,0.252 0.461,0.547 0.606,0.886 0.144,0.338 0.217,0.703 0.217,1.095 0,0.392 -0.073,0.757 -0.217,1.096 -0.145,0.338 -0.347,0.633 -0.606,0.885 -0.259,0.252 -0.568,0.449 -0.927,0.592 -0.36,0.142 -0.752,0.213 -1.176,0.213 -0.43,0 -0.823,-0.071 -1.18,-0.213 -0.357,-0.143 -0.664,-0.34 -0.92,-0.592 -0.257,-0.252 -0.458,-0.547 -0.602,-0.885 -0.145,-0.339 -0.217,-0.704 -0.217,-1.096 z" />
      <path
   inkscape:connector-curvature="0"
   id="path182"
   style="fill:#ffffff;fill-rule:nonzero"
   d="m 50.052,265.551 h 0.315 c 0.238,0 0.45,-0.037 0.637,-0.112 0.186,-0.075 0.344,-0.177 0.472,-0.308 0.128,-0.131 0.226,-0.286 0.294,-0.465 0.068,-0.18 0.102,-0.377 0.102,-0.592 0,-0.21 -0.035,-0.406 -0.105,-0.588 -0.07,-0.182 -0.17,-0.338 -0.298,-0.469 -0.128,-0.131 -0.286,-0.233 -0.472,-0.308 -0.187,-0.075 -0.397,-0.112 -0.63,-0.112 h -0.315 z m -1.372,-4.116 h 2.03 c 0.359,0 0.696,0.072 1.011,0.217 0.315,0.145 0.59,0.337 0.826,0.578 0.236,0.24 0.421,0.52 0.557,0.84 0.135,0.319 0.203,0.654 0.203,1.004 0,0.345 -0.067,0.678 -0.2,0.998 -0.133,0.319 -0.317,0.6 -0.553,0.843 -0.236,0.243 -0.511,0.436 -0.826,0.581 -0.315,0.145 -0.654,0.217 -1.018,0.217 h -2.03 z" />
      <path
   inkscape:connector-curvature="0"
   id="path184"
   style="fill:#ffffff;fill-rule:nonzero"
   d="m 58.074,266.713 h -4.249 l 1.309,-1.358 c 0.345,-0.359 0.616,-0.664 0.812,-0.913 0.196,-0.25 0.341,-0.461 0.437,-0.634 0.096,-0.173 0.155,-0.313 0.179,-0.42 0.023,-0.107 0.035,-0.198 0.035,-0.273 0,-0.079 -0.013,-0.156 -0.039,-0.231 -0.026,-0.075 -0.064,-0.141 -0.115,-0.199 -0.052,-0.059 -0.114,-0.105 -0.186,-0.14 -0.072,-0.035 -0.157,-0.053 -0.255,-0.053 -0.187,0 -0.333,0.061 -0.438,0.182 -0.105,0.121 -0.157,0.273 -0.157,0.455 0,0.051 0.007,0.126 0.021,0.224 H 53.93 c 0,-0.308 0.05,-0.588 0.15,-0.84 0.1,-0.252 0.242,-0.469 0.424,-0.651 0.182,-0.182 0.397,-0.322 0.647,-0.42 0.25,-0.098 0.524,-0.147 0.823,-0.147 0.294,0 0.565,0.047 0.815,0.14 0.25,0.093 0.466,0.224 0.648,0.392 0.182,0.168 0.324,0.368 0.427,0.599 0.102,0.231 0.154,0.481 0.154,0.752 0,0.289 -0.062,0.557 -0.186,0.802 -0.124,0.245 -0.321,0.495 -0.591,0.752 l -0.875,0.819 h 1.708 z" />
    </g><g
     style="fill-rule:evenodd;clip-rule:evenodd;stroke-linecap:round"
     id="g192">
      <path
   inkscape:connector-curvature="0"
   style="fill:none;stroke:#cccccc;stroke-width:1px"
   d="m 73.648,287.83 c 2.739,-4.743 1.666,-10.827 -2.529,-14.347 -4.196,-3.521 -10.374,-3.521 -14.569,0 -4.196,3.52 -5.269,9.604 -2.53,14.347 l 9.814,-5.666 z"
   serif:id="path8216-1-5-0-2"
   id="path8216-1-5-0-21" />
      <path
   inkscape:connector-curvature="0"
   style="fill:#cccccc;fill-rule:nonzero;stroke:#cccccc;stroke-width:1px"
   d="m 73.278,289.024 0.024,4.412"
   serif:id="path9630-2-6-1"
   id="path9630-2-6-11" />
      <path
   inkscape:connector-curvature="0"
   style="fill:#cccccc;fill-rule:nonzero;stroke:#cccccc;stroke-width:1px"
   d="m 75.496,291.198 -4.413,0.02"
   serif:id="path9630-1-1-4-7"
   id="path9630-1-1-4-71" />
      <path
   inkscape:connector-curvature="0"
   style="fill:#cccccc;fill-rule:nonzero;stroke:#cccccc;stroke-width:1px"
   d="m 57.175,291.073 -4.412,0.02"
   serif:id="path9630-1-6-9-9-2"
   id="path9630-1-6-9-9-21" />
      <path
   inkscape:connector-curvature="0"
   style="fill:none;stroke:#cccccc;stroke-width:1px"
   d="M 63.834,282.166 63.811,268.858"
   serif:id="path9948-9-9-4"
   id="path9948-9-9-41" />
    </g><g
     style="fill-rule:evenodd;clip-rule:evenodd;stroke-linecap:round"
     id="g197">
      <path
   inkscape:connector-curvature="0"
   style="fill:none;stroke:#cccccc;stroke-width:1.5px;stroke-linejoin:miter"
   d="m 67.071,247.79 c 5.878,-10.185 3.577,-23.246 -5.431,-30.805 -9.007,-7.555 -22.273,-7.555 -31.28,0 -9.008,7.559 -11.309,20.62 -5.431,30.805"
   serif:id="path1274"
   id="path12741" />
      <circle
   style="fill:none;stroke:#cccccc;stroke-width:1px;stroke-linecap:butt;stroke-linejoin:miter"
   r="3.7060001"
   cy="257.05701"
   cx="27.861"
   serif:id="circle1277"
   id="circle12771" />
      <circle
   style="fill:#cccccc;stroke:#cccccc;stroke-width:1px;stroke-linecap:butt;stroke-linejoin:miter"
   r="3.7060001"
   cy="256.54501"
   cx="65.639999"
   serif:id="circle1280"
   id="circle12801" />
    </g></g></svg>