<svg width="13px" height="25px" version="1.1" xmlns="http://www.w3.org/2000/svg" xmlns:xlink="http://www.w3.org/1999/xlink" xml:space="preserve" xmlns:serif="http://www.serif.com/" style="fill-rule:evenodd;clip-rule:evenodd;stroke-linecap:round;stroke-linejoin:round;stroke-miterlimit:1.5;">
  <path id="path1066" d="M0.674,25.004l2.32,-2.422l6.953,0l2.395,2.422l-11.668,0Z" style="fill:rgb(200,200,200);"/>
  <path id="path1060" d="M0.661,0.632l2.32,2.473l0.013,19.477l-2.32,2.422l-0.013,-24.372Z" style="fill:rgb(90,90,90);"/>
  <path id="path1064" d="M9.934,3.105l2.395,-2.473l0.013,24.372l-2.395,-2.422l-0.013,-19.477Z" style="fill:rgb(90,90,90);"/>
  <path id="path1062" d="M0.661,0.632l11.668,0l-2.395,2.473l-6.953,0l-2.32,-2.473Z" style="fill:rgb(64,64,64);"/>
  <path id="path887" d="M11.019,3.65c0,-0.911 -0.74,-1.65 -1.65,-1.65l-5.7,0c-0.911,0 -1.65,0.739 -1.65,1.65l0,17.7c0,0.911 0.739,1.65 1.65,1.65l5.7,0c0.91,0 1.65,-0.739 1.65,-1.65l0,-17.7Z" style="fill:rgb(20,20,20);"/>
  <g id="g941">
    <path id="path893" d="M11.886,14.634c0,-0.546 -0.444,-0.989 -0.99,-0.989l-8.755,0c-0.546,0 -0.99,0.443 -0.99,0.989l0,8.754c0,0.546 0.444,0.99 0.99,0.99l8.755,0c0.546,0 0.99,-0.444 0.99,-0.99l0,-8.754Z" style="fill:rgb(51,51,51);stroke:black;stroke-width:0.7px;"/>
    <path id="path897" d="M11.625,14.9c0,-0.512 -0.416,-0.929 -0.929,-0.929l-8.334,0c-0.513,0 -0.929,0.417 -0.929,0.929l0,8.212c0,0.512 0.416,0.929 0.929,0.929l8.334,0c0.513,0 0.929,-0.417 0.929,-0.929l0,-8.212Z" style="fill:none;stroke:rgb(115,115,115);stroke-width:0.3px;"/>
    <path id="path901" d="M12.203,14.388c0,-0.579 -0.47,-1.049 -1.049,-1.049l-9.275,0c-0.578,0 -1.048,0.47 -1.048,1.049l0,9.281c0,0.579 0.47,1.049 1.048,1.049l9.275,0c0.579,0 1.049,-0.47 1.049,-1.049l0,-9.281Z" style="fill:none;stroke:rgb(204,204,204);stroke-width:0.8px;"/>
    <path id="path905" d="M11.434,14.912c0,-0.07 -0.057,-0.126 -0.126,-0.126l-9.616,0c-0.069,0 -0.126,0.056 -0.126,0.126l0,0.174c0,0.07 0.057,0.127 0.126,0.127l9.616,0c0.069,0 0.126,-0.057 0.126,-0.127l0,-0.174Z" style="fill:rgb(1,1,1);"/>
    <path id="path909" d="M11.434,23.145c0,-0.07 -0.057,-0.126 -0.126,-0.126l-9.616,0c-0.069,0 -0.126,0.056 -0.126,0.126l0,0.174c0,0.07 0.057,0.127 0.126,0.127l9.616,0c0.069,0 0.126,-0.057 0.126,-0.127l0,-0.174Z" style="fill:rgb(1,1,1);"/>
    <path id="path913" d="M11.434,21.773c0,-0.07 -0.057,-0.127 -0.126,-0.127l-9.616,0c-0.069,0 -0.126,0.057 -0.126,0.127l0,0.174c0,0.07 0.057,0.126 0.126,0.126l9.616,0c0.069,0 0.126,-0.056 0.126,-0.126l0,-0.174Z" style="fill:rgb(1,1,1);"/>
    <path id="path917" d="M11.434,20.401c0,-0.07 -0.057,-0.127 -0.126,-0.127l-9.616,0c-0.069,0 -0.126,0.057 -0.126,0.127l0,0.174c0,0.07 0.057,0.126 0.126,0.126l9.616,0c0.069,0 0.126,-0.056 0.126,-0.126l0,-0.174Z" style="fill:rgb(1,1,1);"/>
    <path id="path921" d="M11.434,19.029c0,-0.07 -0.057,-0.127 -0.126,-0.127l-9.616,0c-0.069,0 -0.126,0.057 -0.126,0.127l0,0.174c0,0.069 0.057,0.126 0.126,0.126l9.616,0c0.069,0 0.126,-0.057 0.126,-0.126l0,-0.174Z" style="fill:rgb(1,1,1);"/>
    <path id="path925" d="M11.434,17.656c0,-0.069 -0.057,-0.126 -0.126,-0.126l-9.616,0c-0.069,0 -0.126,0.057 -0.126,0.126l0,0.175c0,0.069 0.057,0.126 0.126,0.126l9.616,0c0.069,0 0.126,-0.057 0.126,-0.126l0,-0.175Z" style="fill:rgb(1,1,1);"/>
    <path id="path929" d="M11.434,16.284c0,-0.07 -0.057,-0.126 -0.126,-0.126l-9.616,0c-0.069,0 -0.126,0.056 -0.126,0.126l0,0.174c0,0.07 0.057,0.127 0.126,0.127l9.616,0c0.069,0 0.126,-0.057 0.126,-0.127l0,-0.174Z" style="fill:rgb(1,1,1);"/>
    <path id="path933" d="M8.808,17.39c0,-0.19 -0.154,-0.344 -0.344,-0.344l-4.145,0c-0.19,0 -0.345,0.154 -0.345,0.344l0,3.044c0,0.19 0.155,0.344 0.345,0.344l4.145,0c0.19,0 0.344,-0.154 0.344,-0.344l0,-3.044Z" style="fill:none;stroke:rgb(128,128,128);stroke-width:0.3px;"/>
    <rect id="rect937" x="4.419" y="17.466" width="4" height="2.808" style="fill:white;stroke:black;stroke-width:0.7px;"/>
  </g>
</svg>