<?xml version="1.0" encoding="UTF-8" standalone="no"?>
<svg
   xmlns:dc="http://purl.org/dc/elements/1.1/"
   xmlns:cc="http://creativecommons.org/ns#"
   xmlns:rdf="http://www.w3.org/1999/02/22-rdf-syntax-ns#"
   xmlns:svg="http://www.w3.org/2000/svg"
   xmlns="http://www.w3.org/2000/svg"
   xmlns:sodipodi="http://sodipodi.sourceforge.net/DTD/sodipodi-0.dtd"
   xmlns:inkscape="http://www.inkscape.org/namespaces/inkscape"
   width="150px"
   height="380px"
   version="1.1"
   xml:space="preserve"
   style="fill-rule:evenodd;clip-rule:evenodd;stroke-linejoin:round;stroke-miterlimit:1.41421;"
   id="svg4127"
   sodipodi:docname="Caudal.svg"
   inkscape:version="0.92.3 (2405546, 2018-03-11)"><metadata
   id="metadata4131"><rdf:RDF><cc:Work
       rdf:about=""><dc:format>image/svg+xml</dc:format><dc:type
         rdf:resource="http://purl.org/dc/dcmitype/StillImage" /><dc:title></dc:title></cc:Work></rdf:RDF></metadata><sodipodi:namedview
   pagecolor="#ffffff"
   bordercolor="#666666"
   borderopacity="1"
   objecttolerance="10"
   gridtolerance="10"
   guidetolerance="10"
   inkscape:pageopacity="0"
   inkscape:pageshadow="2"
   inkscape:window-width="1920"
   inkscape:window-height="1017"
   id="namedview4129"
   showgrid="false"
   inkscape:zoom="2.2105263"
   inkscape:cx="1.4880947"
   inkscape:cy="190"
   inkscape:window-x="1912"
   inkscape:window-y="-8"
   inkscape:window-maximized="1"
   inkscape:current-layer="svg4127" />
  <defs
   id="defs4014">
    <linearGradient
   id="_Linear1"
   x1="0"
   y1="0"
   x2="1"
   y2="0"
   gradientUnits="userSpaceOnUse"
   gradientTransform="matrix(150,-379.998,379.998,150,2.52945e-4,379.999)">
      <stop
   offset="0"
   style="stop-color:#0b0019;stop-opacity:1"
   id="stop4004" />
      <stop
   offset="1"
   style="stop-color:#170028;stop-opacity:1"
   id="stop4006" />
    </linearGradient>
    <linearGradient
   id="_Linear2"
   x1="0"
   y1="0"
   x2="1"
   y2="0"
   gradientUnits="userSpaceOnUse"
   gradientTransform="matrix(0,-55.8438,55.8438,0,141.178,258.844)">
      <stop
   offset="0"
   style="stop-color:rgb(155,155,155);stop-opacity:1"
   id="stop4009" />
      <stop
   offset="1"
   style="stop-color:rgb(36,36,36);stop-opacity:0.984314"
   id="stop4011" />
    </linearGradient>
  
    
    
    
    
    
    
    
    
    
    
    
    
    
    
    
    
    
    
    
    
    
    
    
    
    
    
    
    
    
    
    
    
    
    
    
    
    
    
    
    
    
    
    
    
    
    
    
    
    
    
    
    
    
    
    
    
    
    
    
    
    
    
    
    
    
    
    
    
    
    
    
    
    
    
    
    
    
    
    
    
    
    
    
    
    
    
    
    
    
    
    
    
    
    
  </defs>
  <rect
   style="fill:url(#_Linear1);stroke:#1a1a1a;stroke-width:0.98000002px"
   height="379.99799"
   width="150"
   y="0"
   x="0"
   id="rect9931" /><path
   inkscape:connector-curvature="0"
   style="fill:url(#_Linear2)"
   d="m 141.178,208 c 0,-2.76 -2.24,-5 -5,-5 H 13.629 c -2.76,0 -5,2.24 -5,5 v 45.844 c 0,2.759 2.24,5 5,5 h 122.549 c 2.76,0 5,-2.241 5,-5 z"
   id="rect6361" /><path
   inkscape:connector-curvature="0"
   style="fill:#08000f"
   d="m 139.609,210 c 0,-2.76 -2.24,-5 -5,-5 H 15.132 c -2.76,0 -5,2.24 -5,5 v 42.398 c 0,2.76 2.24,5 5,5 h 119.477 c 2.76,0 5,-2.24 5,-5 z"
   id="rect6361-7" /><path
   inkscape:connector-curvature="0"
   style="fill:#0a0014;stroke:#3b0067;stroke-width:1px"
   d="m 138.603,271.106 c 0,-2.961 -2.405,-5.367 -5.368,-5.367 H 11.208 c -2.963,0 -5.368,2.406 -5.368,5.367 v 75.487 c 0,2.963 2.405,5.367 5.368,5.367 h 122.027 c 2.963,0 5.368,-2.404 5.368,-5.367 z"
   id="path2021" /><g
   id="g4255"
   style="fill:#e0d6e8"><path
     id="path42"
     d="m 64.952,363.601 h 2.673 l 2.49,8.317 2.574,-8.317 h 2.66 l -3.46,10.397 c -0.323,0.959 -0.903,1.438 -1.738,1.438 -0.847,0 -1.433,-0.484 -1.755,-1.452 z"
     style="fill:#e0d6e8;fill-rule:nonzero"
     inkscape:connector-curvature="0" /><path
     id="path44"
     d="m 75.55,372.394 v -8.793 h 2.507 v 8.709 c 0.044,0.312 0.334,0.468 0.869,0.468 h 1.705 c 0.513,0 0.797,-0.145 0.853,-0.435 l 0.017,-0.083 v -8.659 h 2.507 v 8.776 c 0,0.769 -0.083,1.315 -0.251,1.638 -0.445,0.858 -1.231,1.287 -2.357,1.287 h -3.243 c -1.159,0 -1.95,-0.44 -2.373,-1.32 -0.156,-0.323 -0.234,-0.853 -0.234,-1.588 z"
     style="fill:#e0d6e8;fill-rule:nonzero"
     inkscape:connector-curvature="0" /><path
     id="path46"
     d="m 85.161,372.444 v -8.843 h 2.508 v 8.642 c 0,0.357 0.211,0.535 0.635,0.535 h 4.463 l -0.016,2.524 h -4.664 c -0.167,0 -0.312,-0.005 -0.435,-0.016 -0.903,-0.078 -1.544,-0.343 -1.922,-0.794 -0.379,-0.452 -0.569,-1.134 -0.569,-2.048 z"
     style="fill:#e0d6e8;fill-rule:nonzero"
     inkscape:connector-curvature="0" /><path
     id="path48"
     d="m 92.851,366.125 v -2.524 h 7.522 v 2.524 h -2.524 v 9.177 h -2.508 v -9.177 z"
     style="fill:#e0d6e8;fill-rule:nonzero"
     inkscape:connector-curvature="0" /></g><path
   inkscape:connector-curvature="0"
   style="fill:#757575;fill-rule:nonzero;stroke:#414c55;stroke-width:0.61000001px;stroke-linejoin:miter;stroke-miterlimit:10"
   d="m 61.383,369.518 c 0,-4.509 -3.655,-8.164 -8.164,-8.164 -4.509,0 -8.165,3.655 -8.165,8.164 0,4.51 3.655,8.165 8.165,8.165 4.509,0 8.164,-3.655 8.164,-8.165 z"
   id="path4" /><g
   id="g40">
      <path
   inkscape:connector-curvature="0"
   style="fill:#2b2b2b;fill-rule:nonzero;stroke:#414c55;stroke-width:0.04px"
   d="m 51.321,374.495 0.553,-0.89 -1.064,-2.394 -2.216,-2.284 0.46,3.101 0.597,1.28 0.833,1.264 z"
   id="polygon6" />
      <path
   inkscape:connector-curvature="0"
   style="fill:#262626;fill-rule:nonzero;stroke:#414c55;stroke-width:0.04px"
   d="m 55.048,374.502 -0.553,-0.89 1.064,-2.393 2.216,-2.284 -0.46,3.101 -0.597,1.28 -0.833,1.263 z"
   id="polygon8" />
      <path
   inkscape:connector-curvature="0"
   style="fill:#424242;fill-rule:nonzero;stroke:#414c55;stroke-width:0.04px"
   d="m 50.636,363.46 2.584,-0.66 v 13.447 l -1.349,-2.651 -1.061,-2.385 -1.022,-0.581 -2.052,-2.92 -0.057,-0.775 1.148,-2.068 z"
   id="polygon12" />
      <path
   inkscape:connector-curvature="0"
   style="fill:#333333;fill-rule:nonzero;stroke:#414c55;stroke-width:0.04px"
   d="m 55.801,363.465 -2.584,-0.66 v 13.447 l 1.35,-2.651 1.06,-2.385 1.023,-0.581 2.051,-2.92 0.058,-0.776 -1.149,-2.067 z"
   id="polygon14" />
      <path
   inkscape:connector-curvature="0"
   style="fill:#4c4c4c;fill-rule:nonzero;stroke:#414c55;stroke-width:0.04px"
   d="m 51.496,369.338 1.723,-1.684 v 1.229 l -1.723,1.719 v -1.264"
   id="polyline16" />
      <path
   inkscape:connector-curvature="0"
   style="fill:#5b5b5b;fill-rule:nonzero;stroke:#414c55;stroke-width:0.04px"
   d="m 53.22,368.882 -1.723,1.718 0.377,3.005 1.346,2.642 z"
   id="polygon18" />
      <path
   inkscape:connector-curvature="0"
   style="fill:#333333;fill-rule:nonzero;stroke:#414c55;stroke-width:0.04px"
   d="m 53.22,376.247 -1.346,-2.642 1.346,-0.635 z"
   id="polygon20" />
      <path
   inkscape:connector-curvature="0"
   style="fill:#ffffff;fill-rule:nonzero;stroke:#414c55;stroke-width:0.04px"
   d="m 51.497,370.6 v -1.263 l -1.249,-1.579 -1.477,-1.191 -10e-4,0.932 0.775,1.823 z"
   id="polygon22" />
      <path
   inkscape:connector-curvature="0"
   style="fill:#2d2d2d;fill-rule:nonzero;stroke:#414c55;stroke-width:0.04px"
   d="m 54.942,369.339 -1.723,-1.685 v 1.23 l 1.723,1.718 v -1.263"
   id="polyline24" />
      <path
   inkscape:connector-curvature="0"
   style="fill:#353535;fill-rule:nonzero;stroke:#414c55;stroke-width:0.04px"
   d="m 53.218,368.882 1.722,1.718 -0.376,3.005 -1.347,2.642 z"
   id="polygon26" />
      <path
   inkscape:connector-curvature="0"
   style="fill:#191919;fill-rule:nonzero;stroke:#414c55;stroke-width:0.04px"
   d="m 53.217,376.247 1.347,-2.642 -1.346,-0.635 z"
   id="polygon28" />
      <path
   inkscape:connector-curvature="0"
   style="fill:#ffffff;fill-rule:nonzero;stroke:#414c55;stroke-width:0.04px"
   d="m 54.94,370.6 v -1.263 l 1.249,-1.579 1.478,-1.191 10e-4,0.932 -0.775,1.823 z"
   id="polygon30" />
      <path
   inkscape:connector-curvature="0"
   style="fill:#383838;fill-rule:nonzero;stroke:#414c55;stroke-width:0.04px"
   d="m 50.652,363.439 2.566,4.215 -0.005,-4.869"
   id="polyline32" />
      <path
   inkscape:connector-curvature="0"
   style="fill:#2d2d2d;fill-rule:nonzero;stroke:#414c55;stroke-width:0.04px"
   d="m 55.785,363.439 -2.566,4.215 0.006,-4.869"
   id="polyline34" />
      <path
   inkscape:connector-curvature="0"
   style="fill:#333333;fill-rule:nonzero;stroke:#414c55;stroke-width:0.04px"
   d="m 50.811,371.212 0.688,-0.61 0.375,3.006 z"
   id="polygon36" />
      <path
   inkscape:connector-curvature="0"
   style="fill:#1c1c1c;fill-rule:nonzero;stroke:#414c55;stroke-width:0.04px"
   d="m 55.631,371.226 -0.688,-0.61 -0.375,3.006 z"
   id="polygon38" />
    </g><path
   inkscape:connector-curvature="0"
   style="fill:#ffffff;fill-rule:nonzero"
   d="m 14.232,37.714 v -5.112 h 1.323 v 0.964 c 0.403,-0.72 0.978,-1.08 1.722,-1.08 0.386,0 0.702,0.094 0.95,0.284 0.249,0.189 0.4,0.455 0.456,0.796 0.478,-0.72 1.056,-1.08 1.733,-1.08 0.933,0 1.4,0.516 1.4,1.546 v 3.682 h -1.321 v -3.231 c 0,-0.605 -0.202,-0.908 -0.606,-0.908 -0.413,0 -0.815,0.298 -1.206,0.894 v 3.245 h -1.322 v -3.231 c 0,-0.608 -0.203,-0.912 -0.61,-0.912 -0.406,0 -0.804,0.299 -1.196,0.898 v 3.245 z"
   id="path2050" /><path
   inkscape:connector-curvature="0"
   style="fill:#ffffff;fill-rule:nonzero"
   d="m 27.641,37.542 c -0.655,0.192 -1.276,0.289 -1.863,0.289 -0.853,0 -1.526,-0.243 -2.02,-0.727 -0.493,-0.484 -0.74,-1.145 -0.74,-1.983 0,-0.792 0.226,-1.428 0.678,-1.911 0.451,-0.483 1.048,-0.724 1.789,-0.724 0.749,0 1.295,0.236 1.639,0.707 0.344,0.472 0.517,1.219 0.517,2.24 h -3.17 c 0.093,0.975 0.628,1.462 1.606,1.462 0.461,0 0.983,-0.107 1.564,-0.321 z m -3.189,-2.887 h 1.833 c 0,-0.872 -0.28,-1.307 -0.841,-1.307 -0.572,0 -0.902,0.435 -0.992,1.307 z"
   id="path2052" /><path
   inkscape:connector-curvature="0"
   style="fill:#ffffff;fill-rule:nonzero"
   d="m 32.836,37.602 c -0.571,0.152 -1.1,0.229 -1.587,0.229 -0.816,0 -1.461,-0.241 -1.934,-0.719 -0.474,-0.48 -0.711,-1.133 -0.711,-1.958 0,-0.835 0.244,-1.489 0.732,-1.961 0.487,-0.471 1.16,-0.707 2.02,-0.707 0.416,0 0.896,0.067 1.439,0.2 v 0.996 c -0.566,-0.183 -1.017,-0.274 -1.355,-0.274 -0.413,0 -0.745,0.158 -0.997,0.475 -0.251,0.316 -0.377,0.736 -0.377,1.262 0,0.536 0.136,0.966 0.408,1.289 0.271,0.323 0.633,0.484 1.086,0.484 0.413,0 0.839,-0.09 1.276,-0.27 z"
   id="path2054" /><path
   inkscape:connector-curvature="0"
   style="fill:#ffffff;fill-rule:nonzero"
   d="m 34.139,37.714 v -7.351 h 1.379 v 3.203 c 0.45,-0.72 1.03,-1.08 1.741,-1.08 0.456,0 0.816,0.144 1.081,0.433 0.263,0.289 0.394,0.683 0.394,1.183 v 3.612 h -1.377 v -3.272 c 0,-0.581 -0.193,-0.871 -0.577,-0.871 -0.438,0 -0.859,0.308 -1.262,0.927 v 3.216 z"
   id="path2056" /><path
   inkscape:connector-curvature="0"
   style="fill:#ffffff;fill-rule:nonzero"
   d="m 42.906,37.165 c -0.46,0.443 -0.951,0.666 -1.476,0.666 -0.447,0 -0.81,-0.137 -1.089,-0.41 -0.28,-0.273 -0.419,-0.627 -0.419,-1.062 0,-0.564 0.226,-1 0.677,-1.305 0.452,-0.306 1.098,-0.459 1.94,-0.459 h 0.367 v -0.466 c 0,-0.53 -0.303,-0.796 -0.907,-0.796 -0.538,0 -1.08,0.152 -1.63,0.456 V 32.84 c 0.624,-0.236 1.241,-0.354 1.853,-0.354 1.337,0 2.006,0.533 2.006,1.597 v 2.262 c 0,0.4 0.129,0.601 0.387,0.601 0.046,0 0.107,-0.006 0.181,-0.018 l 0.033,0.772 c -0.293,0.087 -0.55,0.131 -0.773,0.131 -0.565,0 -0.928,-0.223 -1.09,-0.666 z m 0,-0.74 V 35.386 H 42.58 c -0.891,0 -1.336,0.279 -1.336,0.839 0,0.189 0.064,0.348 0.193,0.477 0.129,0.128 0.288,0.193 0.477,0.193 0.323,0 0.654,-0.157 0.992,-0.47 z"
   id="path2058" /><path
   inkscape:connector-curvature="0"
   style="fill:#ffffff;fill-rule:nonzero"
   d="m 46.007,37.714 v -5.112 h 1.378 v 0.964 c 0.45,-0.72 1.03,-1.08 1.741,-1.08 0.456,0 0.817,0.144 1.08,0.433 0.264,0.289 0.395,0.683 0.395,1.183 v 3.612 h -1.377 v -3.272 c 0,-0.581 -0.193,-0.871 -0.577,-0.871 -0.439,0 -0.859,0.308 -1.262,0.927 v 3.216 z"
   id="path2060" /><path
   inkscape:connector-curvature="0"
   style="fill:#ffffff;fill-rule:nonzero"
   d="m 52.269,37.714 v -5.112 h 1.377 v 5.112 z m 0,-5.972 v -1.151 h 1.377 v 1.151 z"
   id="path2062" /><path
   inkscape:connector-curvature="0"
   style="fill:#ffffff;fill-rule:nonzero"
   d="m 59.14,37.602 c -0.572,0.152 -1.101,0.229 -1.588,0.229 -0.816,0 -1.461,-0.241 -1.934,-0.719 -0.474,-0.48 -0.71,-1.133 -0.71,-1.958 0,-0.835 0.244,-1.489 0.731,-1.961 0.487,-0.471 1.16,-0.707 2.02,-0.707 0.416,0 0.896,0.067 1.439,0.2 v 0.996 c -0.565,-0.183 -1.017,-0.274 -1.354,-0.274 -0.413,0 -0.746,0.158 -0.997,0.475 -0.252,0.316 -0.378,0.736 -0.378,1.262 0,0.536 0.137,0.966 0.408,1.289 0.272,0.323 0.634,0.484 1.087,0.484 0.413,0 0.838,-0.09 1.276,-0.27 z"
   id="path2064" /><path
   inkscape:connector-curvature="0"
   style="fill:#ffffff;fill-rule:nonzero"
   d="m 62.947,37.165 c -0.458,0.443 -0.95,0.666 -1.474,0.666 -0.448,0 -0.81,-0.137 -1.09,-0.41 -0.279,-0.273 -0.419,-0.627 -0.419,-1.062 0,-0.564 0.225,-1 0.677,-1.305 0.451,-0.306 1.098,-0.459 1.939,-0.459 h 0.367 v -0.466 c 0,-0.53 -0.301,-0.796 -0.907,-0.796 -0.537,0 -1.08,0.152 -1.629,0.456 V 32.84 c 0.623,-0.236 1.242,-0.354 1.852,-0.354 1.339,0 2.007,0.533 2.007,1.597 v 2.262 c 0,0.4 0.129,0.601 0.386,0.601 0.047,0 0.107,-0.006 0.182,-0.018 L 64.87,37.7 c -0.291,0.087 -0.548,0.131 -0.772,0.131 -0.565,0 -0.928,-0.223 -1.089,-0.666 z m 0,-0.74 v -1.039 h -0.325 c -0.891,0 -1.336,0.279 -1.336,0.839 0,0.189 0.065,0.348 0.193,0.477 0.129,0.128 0.288,0.193 0.477,0.193 0.323,0 0.654,-0.157 0.991,-0.47 z"
   id="path2066" /><rect
   style="fill:#ffffff"
   height="7.3509998"
   width="1.3789999"
   y="30.363001"
   x="66.049004"
   id="rect2068" /><path
   inkscape:connector-curvature="0"
   style="fill:#ffffff;fill-rule:nonzero"
   d="m 76.062,37.602 c -0.57,0.152 -1.1,0.229 -1.587,0.229 -0.816,0 -1.461,-0.241 -1.934,-0.719 -0.473,-0.48 -0.71,-1.133 -0.71,-1.958 0,-0.835 0.243,-1.489 0.73,-1.961 0.488,-0.471 1.162,-0.707 2.021,-0.707 0.416,0 0.895,0.067 1.438,0.2 v 0.996 c -0.564,-0.183 -1.016,-0.274 -1.354,-0.274 -0.413,0 -0.745,0.158 -0.996,0.475 -0.252,0.316 -0.377,0.736 -0.377,1.262 0,0.536 0.135,0.966 0.407,1.289 0.271,0.323 0.633,0.484 1.087,0.484 0.413,0 0.838,-0.09 1.275,-0.27 z"
   id="path2070" /><path
   inkscape:connector-curvature="0"
   style="fill:#ffffff;fill-rule:nonzero"
   d="m 77.366,37.714 v -7.351 h 1.378 v 3.203 c 0.45,-0.72 1.03,-1.08 1.741,-1.08 0.456,0 0.816,0.144 1.08,0.433 0.265,0.289 0.396,0.683 0.396,1.183 v 3.612 h -1.378 v -3.272 c 0,-0.581 -0.192,-0.871 -0.578,-0.871 -0.437,0 -0.857,0.308 -1.261,0.927 v 3.216 z"
   id="path2072" /><path
   inkscape:connector-curvature="0"
   style="fill:#ffffff;fill-rule:nonzero"
   d="m 86.132,37.165 c -0.459,0.443 -0.951,0.666 -1.476,0.666 -0.446,0 -0.809,-0.137 -1.089,-0.41 -0.28,-0.273 -0.419,-0.627 -0.419,-1.062 0,-0.564 0.226,-1 0.677,-1.305 0.452,-0.306 1.098,-0.459 1.94,-0.459 h 0.367 v -0.466 c 0,-0.53 -0.302,-0.796 -0.908,-0.796 -0.537,0 -1.08,0.152 -1.628,0.456 V 32.84 c 0.623,-0.236 1.24,-0.354 1.852,-0.354 1.338,0 2.007,0.533 2.007,1.597 v 2.262 c 0,0.4 0.128,0.601 0.386,0.601 0.047,0 0.107,-0.006 0.181,-0.018 l 0.033,0.772 c -0.292,0.087 -0.549,0.131 -0.773,0.131 -0.565,0 -0.927,-0.223 -1.089,-0.666 z m 0,-0.74 v -1.039 h -0.326 c -0.89,0 -1.336,0.279 -1.336,0.839 0,0.189 0.065,0.348 0.194,0.477 0.128,0.128 0.288,0.193 0.476,0.193 0.323,0 0.654,-0.157 0.992,-0.47 z"
   id="path2074" /><path
   inkscape:connector-curvature="0"
   style="fill:#ffffff;fill-rule:nonzero"
   d="m 91.379,37.831 c -0.798,0 -1.432,-0.242 -1.902,-0.725 -0.47,-0.482 -0.705,-1.131 -0.705,-1.948 0,-0.826 0.237,-1.477 0.71,-1.955 0.474,-0.478 1.116,-0.717 1.929,-0.717 0.817,0 1.462,0.239 1.935,0.717 0.473,0.478 0.71,1.126 0.71,1.946 0,0.838 -0.238,1.495 -0.712,1.969 -0.476,0.476 -1.13,0.713 -1.965,0.713 z m 0.023,-0.862 c 0.792,0 1.188,-0.607 1.188,-1.82 0,-0.556 -0.105,-0.994 -0.315,-1.317 -0.209,-0.323 -0.497,-0.484 -0.864,-0.484 -0.363,0 -0.649,0.161 -0.858,0.484 -0.21,0.323 -0.315,0.764 -0.315,1.326 0,0.556 0.104,0.997 0.313,1.323 0.207,0.326 0.491,0.488 0.851,0.488 z"
   id="path2076" /><path
   inkscape:connector-curvature="0"
   style="fill:#ffffff;fill-rule:nonzero"
   d="m 95.187,37.551 v -1.01 c 0.683,0.286 1.266,0.428 1.751,0.428 0.565,0 0.847,-0.192 0.847,-0.577 0,-0.248 -0.233,-0.465 -0.699,-0.651 l -0.464,-0.187 c -0.506,-0.205 -0.869,-0.425 -1.086,-0.661 -0.217,-0.235 -0.326,-0.528 -0.326,-0.875 0,-0.485 0.186,-0.861 0.554,-1.13 0.37,-0.268 0.886,-0.402 1.551,-0.402 0.415,0 0.911,0.06 1.485,0.182 v 0.968 c -0.552,-0.193 -1.011,-0.288 -1.374,-0.288 -0.57,0 -0.856,0.177 -0.856,0.53 0,0.233 0.21,0.43 0.633,0.591 l 0.4,0.154 c 0.599,0.226 1.017,0.456 1.251,0.689 0.234,0.233 0.351,0.532 0.351,0.899 0,0.48 -0.199,0.871 -0.598,1.171 -0.399,0.298 -0.918,0.449 -1.558,0.449 -0.614,0 -1.235,-0.094 -1.862,-0.28 z"
   id="path2078" /><path
   inkscape:connector-curvature="0"
   style="fill:#ffffff;fill-rule:nonzero"
   d="m 103.721,37.551 v -1.01 c 0.683,0.286 1.266,0.428 1.75,0.428 0.565,0 0.848,-0.192 0.848,-0.577 0,-0.248 -0.233,-0.465 -0.699,-0.651 l -0.466,-0.187 c -0.505,-0.205 -0.867,-0.425 -1.084,-0.661 -0.217,-0.235 -0.326,-0.528 -0.326,-0.875 0,-0.485 0.184,-0.861 0.554,-1.13 0.369,-0.268 0.886,-0.402 1.551,-0.402 0.415,0 0.91,0.06 1.484,0.182 v 0.968 c -0.552,-0.193 -1.01,-0.288 -1.373,-0.288 -0.571,0 -0.857,0.177 -0.857,0.53 0,0.233 0.211,0.43 0.634,0.591 l 0.4,0.154 c 0.599,0.226 1.015,0.456 1.25,0.689 0.234,0.233 0.352,0.532 0.352,0.899 0,0.48 -0.2,0.871 -0.598,1.171 -0.4,0.298 -0.918,0.449 -1.558,0.449 -0.615,0 -1.236,-0.094 -1.862,-0.28 z"
   id="path2080" /><path
   inkscape:connector-curvature="0"
   style="fill:#ffffff;fill-rule:nonzero"
   d="m 111.393,37.831 c -0.798,0 -1.432,-0.242 -1.902,-0.725 -0.47,-0.482 -0.705,-1.131 -0.705,-1.948 0,-0.826 0.237,-1.477 0.71,-1.955 0.474,-0.478 1.116,-0.717 1.929,-0.717 0.817,0 1.461,0.239 1.935,0.717 0.473,0.478 0.71,1.126 0.71,1.946 0,0.838 -0.237,1.495 -0.712,1.969 -0.475,0.476 -1.13,0.713 -1.965,0.713 z m 0.023,-0.862 c 0.792,0 1.188,-0.607 1.188,-1.82 0,-0.556 -0.105,-0.994 -0.315,-1.317 -0.209,-0.323 -0.497,-0.484 -0.864,-0.484 -0.363,0 -0.649,0.161 -0.858,0.484 -0.21,0.323 -0.315,0.764 -0.315,1.326 0,0.556 0.104,0.997 0.313,1.323 0.207,0.326 0.491,0.488 0.851,0.488 z"
   id="path2082" /><path
   inkscape:connector-curvature="0"
   style="fill:#ffffff;fill-rule:nonzero"
   d="m 118.497,37.714 v -0.963 c -0.447,0.72 -1.027,1.08 -1.741,1.08 -0.456,0 -0.816,-0.144 -1.08,-0.433 -0.263,-0.289 -0.396,-0.683 -0.396,-1.183 v -3.613 h 1.379 v 3.273 c 0,0.58 0.194,0.87 0.581,0.87 0.435,0 0.853,-0.308 1.257,-0.926 v -3.217 h 1.378 v 5.112 z"
   id="path2084" /><path
   inkscape:connector-curvature="0"
   style="fill:#ffffff;fill-rule:nonzero"
   d="m 121.598,37.714 v -5.112 h 1.377 v 0.964 c 0.357,-0.72 0.9,-1.08 1.63,-1.08 0.087,0 0.172,0.01 0.256,0.028 v 1.229 c -0.195,-0.071 -0.377,-0.107 -0.544,-0.107 -0.55,0 -0.996,0.278 -1.342,0.833 v 3.245 z"
   id="path2086" /><path
   inkscape:connector-curvature="0"
   style="fill:#ffffff;fill-rule:nonzero"
   d="m 129.703,37.602 c -0.571,0.152 -1.1,0.229 -1.587,0.229 -0.817,0 -1.461,-0.241 -1.935,-0.719 -0.473,-0.48 -0.71,-1.133 -0.71,-1.958 0,-0.835 0.244,-1.489 0.732,-1.961 0.487,-0.471 1.16,-0.707 2.02,-0.707 0.416,0 0.895,0.067 1.439,0.2 v 0.996 c -0.566,-0.183 -1.017,-0.274 -1.356,-0.274 -0.413,0 -0.745,0.158 -0.996,0.475 -0.251,0.316 -0.377,0.736 -0.377,1.262 0,0.536 0.136,0.966 0.408,1.289 0.271,0.323 0.633,0.484 1.086,0.484 0.413,0 0.839,-0.09 1.276,-0.27 z"
   id="path2088" /><path
   inkscape:connector-curvature="0"
   style="fill:#ffffff;fill-rule:nonzero"
   d="m 135.168,37.542 c -0.654,0.192 -1.274,0.289 -1.862,0.289 -0.853,0 -1.527,-0.243 -2.02,-0.727 -0.494,-0.484 -0.74,-1.145 -0.74,-1.983 0,-0.792 0.225,-1.428 0.677,-1.911 0.451,-0.483 1.048,-0.724 1.79,-0.724 0.748,0 1.294,0.236 1.639,0.707 0.345,0.472 0.516,1.219 0.516,2.24 h -3.17 c 0.093,0.975 0.629,1.462 1.606,1.462 0.463,0 0.984,-0.107 1.564,-0.321 z m -3.189,-2.887 h 1.835 c 0,-0.872 -0.282,-1.307 -0.843,-1.307 -0.57,0 -0.902,0.435 -0.992,1.307 z"
   id="path2090" /><g
   id="g4249"
   style="fill:#e0d6e8"><path
     id="path2095"
     d="m 57.514,19.88 c -0.57,-0.696 -1.275,-1.044 -2.114,-1.044 -0.369,0 -0.711,0.067 -1.026,0.201 -0.314,0.135 -0.584,0.317 -0.811,0.548 -0.226,0.23 -0.405,0.504 -0.534,0.823 -0.13,0.319 -0.196,0.663 -0.196,1.032 0,0.377 0.066,0.725 0.196,1.044 0.129,0.319 0.31,0.596 0.541,0.83 0.23,0.234 0.501,0.42 0.811,0.554 0.31,0.133 0.646,0.201 1.007,0.201 0.787,0 1.496,-0.335 2.126,-1.007 v 2.919 l -0.252,0.089 c -0.378,0.133 -0.73,0.232 -1.058,0.295 -0.326,0.063 -0.65,0.094 -0.968,0.094 -0.654,0 -1.281,-0.124 -1.881,-0.371 -0.599,-0.247 -1.128,-0.595 -1.585,-1.044 -0.456,-0.449 -0.824,-0.981 -1.1,-1.598 -0.277,-0.617 -0.415,-1.289 -0.415,-2.019 0,-0.729 0.136,-1.399 0.409,-2.006 0.273,-0.609 0.638,-1.132 1.094,-1.573 0.457,-0.44 0.987,-0.783 1.591,-1.031 0.604,-0.248 1.237,-0.372 1.9,-0.372 0.377,0 0.749,0.04 1.114,0.12 0.363,0.08 0.747,0.204 1.151,0.372 z"
     style="fill:#e0d6e8;fill-rule:nonzero"
     inkscape:connector-curvature="0" /><path
     id="path2097"
     d="m 64.457,22.672 -1.107,-3.157 -1.107,3.157 z m 0.654,1.875 h -3.522 l -0.566,1.648 h -2.629 l 3.611,-9.485 h 2.692 l 3.609,9.485 h -2.629 z"
     style="fill:#e0d6e8;fill-rule:nonzero"
     inkscape:connector-curvature="0" /><path
     id="path2099"
     d="m 71.591,16.71 v 5.158 c 0,0.277 0.009,0.559 0.03,0.848 0.022,0.29 0.084,0.551 0.189,0.787 0.106,0.235 0.271,0.425 0.497,0.573 0.227,0.146 0.545,0.22 0.957,0.22 0.41,0 0.727,-0.074 0.949,-0.22 0.223,-0.148 0.388,-0.338 0.497,-0.573 0.109,-0.236 0.175,-0.497 0.195,-0.787 0.021,-0.289 0.031,-0.571 0.031,-0.848 V 16.71 h 2.454 v 5.497 c 0,1.476 -0.338,2.554 -1.014,3.233 -0.675,0.679 -1.713,1.019 -3.112,1.019 -1.402,0 -2.442,-0.34 -3.121,-1.019 -0.679,-0.679 -1.019,-1.757 -1.019,-3.233 V 16.71 Z"
     style="fill:#e0d6e8;fill-rule:nonzero"
     inkscape:connector-curvature="0" /><path
     id="path2101"
     d="m 81.842,24.107 h 0.567 c 0.427,0 0.809,-0.067 1.145,-0.202 0.336,-0.134 0.618,-0.318 0.848,-0.554 0.231,-0.234 0.408,-0.512 0.529,-0.836 0.121,-0.322 0.183,-0.677 0.183,-1.063 0,-0.377 -0.063,-0.73 -0.189,-1.056 C 84.799,20.068 84.621,19.787 84.39,19.553 84.16,19.318 83.876,19.133 83.541,19 83.205,18.865 82.828,18.798 82.409,18.798 H 81.842 Z M 79.377,16.71 h 3.648 c 0.646,0 1.252,0.13 1.818,0.389 0.566,0.261 1.061,0.606 1.484,1.039 0.424,0.432 0.758,0.935 1,1.509 0.244,0.574 0.365,1.176 0.365,1.805 0,0.621 -0.12,1.219 -0.358,1.793 -0.24,0.574 -0.57,1.08 -0.994,1.516 -0.423,0.436 -0.919,0.784 -1.485,1.044 -0.566,0.259 -1.176,0.39 -1.83,0.39 h -3.648 z"
     style="fill:#e0d6e8;fill-rule:nonzero"
     inkscape:connector-curvature="0" /><path
     id="path2103"
     d="m 94.02,22.672 -1.107,-3.157 -1.106,3.157 z m 0.654,1.875 h -3.523 l -0.566,1.648 h -2.629 l 3.611,-9.485 h 2.692 l 3.61,9.485 H 95.24 Z"
     style="fill:#e0d6e8;fill-rule:nonzero"
     inkscape:connector-curvature="0" /><path
     id="path2105"
     d="m 101.416,16.71 v 7.397 h 2.957 v 2.088 H 98.951 V 16.71 Z"
     style="fill:#e0d6e8;fill-rule:nonzero"
     inkscape:connector-curvature="0" /></g><path
   inkscape:connector-curvature="0"
   style="fill:#ffffff;fill-rule:nonzero"
   d="m 21.82,225.876 h 1.981 v -2.037 h 1.373 v 5.278 H 23.801 V 226.94 H 21.82 v 2.177 h -1.372 v -5.278 h 1.372 z"
   id="path2110" /><rect
   style="fill:#ffffff"
   height="5.2779999"
   width="1.373"
   y="223.839"
   x="26.278"
   id="rect2112" /><path
   inkscape:connector-curvature="0"
   style="fill:#ffffff;fill-rule:nonzero"
   d="m 30.76,224.999 v 4.118 h -1.373 v -4.118 h -1.128 v -1.16 h 3.629 v 1.16 z"
   id="path2114" /><path
   inkscape:connector-curvature="0"
   style="fill:#ffffff;fill-rule:nonzero"
   d="m 27.494,271.156 -0.616,-1.757 -0.613,1.757 z m 0.364,1.045 h -1.957 l -0.316,0.916 H 24.12 l 2.009,-5.278 h 1.501 l 2.009,5.278 h -1.465 z"
   id="path2118" /><path
   inkscape:connector-curvature="0"
   style="fill:#ffffff;fill-rule:nonzero"
   d="m 57.997,272.053 h 0.3 c 0.348,0 0.593,-0.044 0.745,-0.132 0.148,-0.089 0.224,-0.233 0.224,-0.429 0,-0.196 -0.076,-0.336 -0.224,-0.428 -0.152,-0.088 -0.397,-0.132 -0.745,-0.132 h -0.3 z m 0,-2.141 h 0.252 c 0.428,0 0.645,-0.172 0.645,-0.513 0,-0.34 -0.217,-0.512 -0.645,-0.512 h -0.252 z m -1.372,-2.073 h 2.044 c 0.485,0 0.853,0.116 1.105,0.352 0.252,0.232 0.38,0.568 0.38,1.004 0,0.268 -0.048,0.489 -0.144,0.665 -0.096,0.172 -0.24,0.32 -0.436,0.444 0.196,0.036 0.36,0.092 0.5,0.172 0.136,0.076 0.248,0.172 0.336,0.28 0.084,0.112 0.148,0.24 0.184,0.38 0.036,0.14 0.056,0.288 0.056,0.448 0,0.248 -0.044,0.469 -0.128,0.657 -0.088,0.192 -0.208,0.352 -0.364,0.484 -0.156,0.132 -0.348,0.228 -0.572,0.296 -0.224,0.064 -0.476,0.096 -0.756,0.096 h -2.205 z"
   id="path2122" /><path
   inkscape:connector-curvature="0"
   style="fill:#ffffff;fill-rule:nonzero"
   d="m 92.426,269.604 c -0.316,-0.389 -0.708,-0.581 -1.176,-0.581 -0.204,0 -0.396,0.036 -0.569,0.112 -0.176,0.072 -0.328,0.176 -0.452,0.304 -0.128,0.129 -0.224,0.281 -0.3,0.457 -0.072,0.18 -0.108,0.368 -0.108,0.576 0,0.208 0.036,0.404 0.108,0.58 0.076,0.176 0.176,0.332 0.304,0.46 0.128,0.132 0.276,0.236 0.448,0.308 0.177,0.076 0.361,0.113 0.561,0.113 0.44,0 0.836,-0.185 1.184,-0.561 v 1.625 l -0.14,0.052 c -0.208,0.072 -0.404,0.128 -0.588,0.164 -0.18,0.032 -0.36,0.052 -0.54,0.052 -0.364,0 -0.713,-0.068 -1.045,-0.208 -0.332,-0.136 -0.628,-0.332 -0.88,-0.58 -0.256,-0.248 -0.46,-0.548 -0.616,-0.889 -0.152,-0.344 -0.228,-0.72 -0.228,-1.124 0,-0.404 0.076,-0.776 0.228,-1.117 0.148,-0.34 0.352,-0.628 0.608,-0.876 0.252,-0.244 0.548,-0.436 0.884,-0.572 0.336,-0.136 0.689,-0.208 1.057,-0.208 0.212,0 0.416,0.024 0.62,0.068 0.204,0.044 0.416,0.112 0.64,0.208 z"
   id="path2126" /><path
   inkscape:connector-curvature="0"
   style="fill:#ffffff;fill-rule:nonzero"
   d="m 121.997,272.009 h 0.316 c 0.236,0 0.448,-0.04 0.636,-0.113 0.188,-0.076 0.344,-0.18 0.472,-0.308 0.128,-0.132 0.228,-0.288 0.293,-0.468 0.068,-0.18 0.104,-0.376 0.104,-0.588 0,-0.212 -0.036,-0.408 -0.104,-0.588 -0.073,-0.184 -0.173,-0.34 -0.301,-0.473 -0.128,-0.128 -0.284,-0.232 -0.472,-0.308 -0.184,-0.072 -0.396,-0.112 -0.628,-0.112 h -0.316 z m -1.373,-4.118 h 2.029 c 0.36,0 0.7,0.072 1.012,0.216 0.317,0.144 0.593,0.34 0.829,0.58 0.236,0.24 0.42,0.52 0.556,0.84 0.136,0.317 0.2,0.653 0.2,1.005 0,0.344 -0.064,0.676 -0.196,0.996 -0.136,0.32 -0.32,0.601 -0.556,0.845 -0.232,0.24 -0.508,0.436 -0.825,0.58 -0.316,0.144 -0.656,0.216 -1.02,0.216 h -2.029 z"
   id="path2130" /><path
   inkscape:connector-curvature="0"
   style="fill:#ffffff;fill-rule:nonzero"
   d="M 9.444,286.304 7.8,283.839 h 1.692 l 0.717,1.364 0.88,-1.364 h 1.693 l -1.741,2.465 1.965,2.813 h -1.673 l -1.056,-1.721 -1.237,1.721 H 7.379 Z"
   id="path2134" /><path
   inkscape:connector-curvature="0"
   style="fill:#ffffff;fill-rule:nonzero"
   d="m 9.522,311.629 -1.737,-3.101 h 1.469 l 0.961,1.84 0.932,-1.84 h 1.456 l -2.885,5.382 h -1.42 z"
   id="path2138" /><path
   inkscape:connector-curvature="0"
   style="fill:#ffffff;fill-rule:nonzero"
   d="m 52.82,226.2 h 0.26 c 0.269,0 0.477,-0.056 0.621,-0.168 0.148,-0.112 0.22,-0.276 0.22,-0.484 0,-0.213 -0.072,-0.373 -0.22,-0.485 -0.144,-0.112 -0.352,-0.168 -0.621,-0.168 h -0.26 z m 3.018,2.917 h -1.709 l -1.309,-2.029 v 2.029 h -1.372 v -5.278 h 2.137 c 0.292,0 0.548,0.044 0.768,0.128 0.22,0.088 0.4,0.204 0.544,0.356 0.14,0.148 0.248,0.32 0.32,0.516 0.072,0.196 0.108,0.408 0.108,0.632 0,0.401 -0.096,0.725 -0.288,0.977 -0.196,0.248 -0.48,0.416 -0.86,0.504 z"
   id="path2142" /><path
   inkscape:connector-curvature="0"
   style="fill:#ffffff;fill-rule:nonzero"
   d="m 59.415,224.999 h -1.633 v 0.885 h 1.541 v 1.16 h -1.541 v 0.913 h 1.633 v 1.16 H 56.41 v -5.278 h 3.005 z"
   id="path2144" /><path
   inkscape:connector-curvature="0"
   style="fill:#ffffff;fill-rule:nonzero"
   d="m 61.34,223.839 1.272,3.213 1.281,-3.213 h 1.493 l -2.225,5.278 h -1.093 l -2.221,-5.278 z"
   id="path2146" /><path
   inkscape:connector-curvature="0"
   style="fill:#ffffff;fill-rule:nonzero"
   d="m 82.345,225.191 c -0.148,-0.124 -0.296,-0.212 -0.448,-0.272 -0.148,-0.056 -0.292,-0.088 -0.432,-0.088 -0.177,0 -0.321,0.044 -0.433,0.128 -0.112,0.084 -0.168,0.192 -0.168,0.328 0,0.092 0.028,0.172 0.084,0.233 0.056,0.06 0.128,0.112 0.22,0.156 0.088,0.044 0.193,0.084 0.309,0.116 0.112,0.032 0.224,0.068 0.336,0.104 0.448,0.152 0.776,0.352 0.984,0.6 0.208,0.248 0.312,0.576 0.312,0.976 0,0.272 -0.044,0.517 -0.136,0.737 -0.092,0.216 -0.224,0.404 -0.4,0.56 -0.172,0.156 -0.388,0.28 -0.644,0.364 -0.252,0.088 -0.54,0.132 -0.865,0.132 -0.664,0 -1.284,-0.2 -1.852,-0.596 l 0.588,-1.105 c 0.204,0.18 0.408,0.316 0.608,0.405 0.2,0.088 0.4,0.132 0.596,0.132 0.224,0 0.389,-0.048 0.501,-0.152 0.108,-0.105 0.164,-0.221 0.164,-0.353 0,-0.076 -0.016,-0.148 -0.044,-0.204 -0.028,-0.06 -0.072,-0.112 -0.14,-0.16 -0.064,-0.052 -0.148,-0.096 -0.257,-0.14 -0.104,-0.04 -0.232,-0.088 -0.38,-0.14 -0.176,-0.056 -0.352,-0.116 -0.52,-0.184 -0.172,-0.068 -0.324,-0.156 -0.456,-0.268 -0.132,-0.112 -0.24,-0.252 -0.32,-0.424 -0.084,-0.172 -0.124,-0.388 -0.124,-0.649 0,-0.26 0.044,-0.496 0.128,-0.708 0.088,-0.212 0.208,-0.396 0.364,-0.548 0.156,-0.152 0.348,-0.268 0.576,-0.352 0.224,-0.084 0.48,-0.128 0.76,-0.128 0.261,0 0.533,0.036 0.817,0.108 0.284,0.076 0.56,0.18 0.82,0.32 z"
   id="path2150" /><path
   inkscape:connector-curvature="0"
   style="fill:#ffffff;fill-rule:nonzero"
   d="m 86.006,224.999 v 4.118 h -1.372 v -4.118 h -1.125 v -1.16 h 3.626 v 1.16 z"
   id="path2152" /><path
   inkscape:connector-curvature="0"
   style="fill:#ffffff;fill-rule:nonzero"
   d="m 88.892,226.48 c 0,0.208 0.04,0.4 0.12,0.58 0.08,0.176 0.184,0.332 0.32,0.46 0.136,0.132 0.292,0.232 0.472,0.304 0.18,0.072 0.372,0.109 0.572,0.109 0.2,0 0.388,-0.037 0.568,-0.109 0.181,-0.072 0.341,-0.172 0.477,-0.304 0.14,-0.128 0.248,-0.284 0.328,-0.46 0.076,-0.18 0.116,-0.372 0.116,-0.58 0,-0.212 -0.04,-0.404 -0.116,-0.584 -0.08,-0.176 -0.188,-0.328 -0.328,-0.461 -0.136,-0.132 -0.296,-0.232 -0.477,-0.304 -0.18,-0.072 -0.368,-0.108 -0.568,-0.108 -0.2,0 -0.392,0.036 -0.572,0.108 -0.18,0.072 -0.336,0.172 -0.472,0.304 -0.136,0.133 -0.24,0.285 -0.32,0.461 -0.08,0.18 -0.12,0.372 -0.12,0.584 z m -1.437,0 c 0,-0.392 0.072,-0.76 0.22,-1.097 0.144,-0.34 0.344,-0.636 0.6,-0.888 0.256,-0.248 0.565,-0.448 0.921,-0.588 0.356,-0.144 0.752,-0.216 1.18,-0.216 0.424,0 0.817,0.072 1.177,0.216 0.356,0.14 0.668,0.34 0.924,0.588 0.26,0.252 0.464,0.548 0.608,0.888 0.144,0.337 0.216,0.705 0.216,1.097 0,0.388 -0.072,0.756 -0.216,1.092 -0.144,0.341 -0.348,0.637 -0.608,0.889 -0.256,0.252 -0.568,0.448 -0.924,0.588 -0.36,0.144 -0.753,0.216 -1.177,0.216 -0.428,0 -0.824,-0.072 -1.18,-0.216 -0.356,-0.14 -0.665,-0.336 -0.921,-0.588 -0.256,-0.252 -0.456,-0.548 -0.6,-0.889 -0.148,-0.336 -0.22,-0.704 -0.22,-1.092 z"
   id="path2154" /><path
   inkscape:connector-curvature="0"
   style="fill:#ffffff;fill-rule:nonzero"
   d="m 95.542,226.2 h 0.257 c 0.272,0 0.48,-0.056 0.624,-0.168 0.144,-0.112 0.216,-0.276 0.216,-0.484 0,-0.213 -0.072,-0.373 -0.216,-0.485 -0.144,-0.112 -0.352,-0.168 -0.624,-0.168 h -0.257 z m 3.018,2.917 h -1.709 l -1.309,-2.029 v 2.029 H 94.17 v -5.278 h 2.133 c 0.296,0 0.552,0.044 0.772,0.128 0.22,0.088 0.4,0.204 0.54,0.356 0.144,0.148 0.252,0.32 0.324,0.516 0.072,0.196 0.108,0.408 0.108,0.632 0,0.401 -0.096,0.725 -0.292,0.977 -0.192,0.248 -0.476,0.416 -0.856,0.504 z"
   id="path2156" /><path
   inkscape:connector-curvature="0"
   style="fill:#ffffff;fill-rule:nonzero"
   d="m 102.137,224.999 h -1.633 v 0.885 h 1.541 v 1.16 h -1.541 v 0.913 h 1.633 v 1.16 h -3.005 v -5.278 h 3.005 z"
   id="path2158" /><path
   inkscape:connector-curvature="0"
   style="fill:#ffffff;fill-rule:nonzero"
   d="m 110.821,226.2 h 0.26 c 0.268,0 0.476,-0.056 0.62,-0.168 0.148,-0.112 0.22,-0.276 0.22,-0.484 0,-0.213 -0.072,-0.373 -0.22,-0.485 -0.144,-0.112 -0.352,-0.168 -0.62,-0.168 h -0.26 z m 3.017,2.917 h -1.709 l -1.308,-2.029 v 2.029 h -1.373 v -5.278 h 2.137 c 0.292,0 0.548,0.044 0.768,0.128 0.221,0.088 0.401,0.204 0.545,0.356 0.14,0.148 0.248,0.32 0.32,0.516 0.072,0.196 0.108,0.408 0.108,0.632 0,0.401 -0.096,0.725 -0.288,0.977 -0.196,0.248 -0.48,0.416 -0.861,0.504 z"
   id="path2162" /><path
   inkscape:connector-curvature="0"
   style="fill:#ffffff;fill-rule:nonzero"
   d="m 117.416,224.999 h -1.633 v 0.885 h 1.54 v 1.16 h -1.54 v 0.913 h 1.633 v 1.16 h -3.006 v -5.278 h 3.006 z"
   id="path2164" /><path
   inkscape:connector-curvature="0"
   style="fill:#ffffff;fill-rule:nonzero"
   d="m 122.202,225.604 c -0.317,-0.389 -0.709,-0.581 -1.177,-0.581 -0.204,0 -0.392,0.036 -0.568,0.112 -0.176,0.072 -0.324,0.176 -0.452,0.304 -0.124,0.129 -0.224,0.281 -0.297,0.457 -0.072,0.18 -0.108,0.368 -0.108,0.576 0,0.208 0.036,0.404 0.108,0.58 0.073,0.176 0.173,0.332 0.301,0.46 0.128,0.132 0.28,0.236 0.452,0.308 0.172,0.076 0.36,0.113 0.56,0.113 0.436,0 0.832,-0.185 1.181,-0.561 v 1.625 l -0.141,0.052 c -0.208,0.072 -0.404,0.128 -0.588,0.164 -0.18,0.032 -0.36,0.052 -0.536,0.052 -0.364,0 -0.712,-0.068 -1.048,-0.208 -0.333,-0.136 -0.629,-0.332 -0.881,-0.58 -0.256,-0.248 -0.46,-0.548 -0.612,-0.889 -0.156,-0.344 -0.232,-0.72 -0.232,-1.124 0,-0.404 0.076,-0.776 0.228,-1.117 0.152,-0.34 0.356,-0.628 0.608,-0.876 0.256,-0.244 0.548,-0.436 0.885,-0.572 0.336,-0.136 0.688,-0.208 1.06,-0.208 0.208,0 0.416,0.024 0.616,0.068 0.204,0.044 0.416,0.112 0.641,0.208 z"
   id="path2166" /><path
   inkscape:connector-curvature="0"
   style="fill:#ffffff;fill-rule:nonzero"
   d="m 126.067,227.156 -0.616,-1.757 -0.616,1.757 z m 0.364,1.045 h -1.961 l -0.316,0.916 h -1.46 l 2.009,-5.278 h 1.496 l 2.009,5.278 h -1.461 z"
   id="path2168" /><path
   inkscape:connector-curvature="0"
   style="fill:#ffffff;fill-rule:nonzero"
   d="m 130.185,223.839 v 4.118 h 1.645 v 1.16 h -3.018 v -5.278 z"
   id="path2170" /><path
   inkscape:connector-curvature="0"
   style="fill:#ffffff;fill-rule:nonzero"
   d="m 133.906,223.839 v 4.118 h 1.645 v 1.16 h -3.017 v -5.278 z"
   id="path2172" /><path
   inkscape:connector-curvature="0"
   style="fill:#ffffff;fill-rule:nonzero"
   d="m 34.528,115.045 c -0.172,-0.14 -0.34,-0.24 -0.512,-0.308 -0.172,-0.068 -0.337,-0.1 -0.497,-0.1 -0.204,0 -0.368,0.048 -0.496,0.144 -0.128,0.096 -0.192,0.22 -0.192,0.376 0,0.108 0.032,0.196 0.096,0.264 0.064,0.068 0.148,0.128 0.252,0.18 0.104,0.052 0.22,0.096 0.352,0.132 0.132,0.036 0.261,0.076 0.389,0.12 0.512,0.173 0.888,0.401 1.124,0.685 0.236,0.284 0.356,0.656 0.356,1.116 0,0.308 -0.052,0.588 -0.156,0.841 -0.104,0.252 -0.256,0.464 -0.456,0.644 -0.2,0.18 -0.444,0.316 -0.736,0.416 -0.292,0.1 -0.621,0.148 -0.989,0.148 -0.764,0 -1.468,-0.228 -2.121,-0.68 l 0.673,-1.265 c 0.236,0.208 0.468,0.364 0.696,0.464 0.228,0.1 0.456,0.153 0.68,0.153 0.256,0 0.448,-0.061 0.572,-0.177 0.124,-0.116 0.189,-0.252 0.189,-0.4 0,-0.092 -0.016,-0.168 -0.049,-0.236 -0.032,-0.068 -0.084,-0.128 -0.16,-0.184 -0.076,-0.056 -0.172,-0.108 -0.292,-0.156 -0.12,-0.048 -0.264,-0.1 -0.436,-0.16 -0.204,-0.064 -0.4,-0.136 -0.596,-0.212 -0.196,-0.076 -0.368,-0.18 -0.52,-0.308 -0.152,-0.128 -0.276,-0.288 -0.368,-0.484 -0.093,-0.197 -0.141,-0.441 -0.141,-0.741 0,-0.3 0.048,-0.568 0.149,-0.812 0.1,-0.244 0.236,-0.452 0.416,-0.624 0.18,-0.172 0.396,-0.308 0.656,-0.405 0.26,-0.096 0.548,-0.144 0.868,-0.144 0.3,0 0.613,0.04 0.937,0.124 0.324,0.085 0.636,0.205 0.936,0.365 z"
   id="path2176" /><path
   inkscape:connector-curvature="0"
   style="fill:#ffffff;fill-rule:nonzero"
   d="m 37.953,116.27 h 0.52 c 0.577,0 0.865,-0.252 0.865,-0.753 0,-0.5 -0.288,-0.752 -0.865,-0.752 h -0.52 z m 0,3.265 H 36.385 V 113.5 h 2.497 c 0.676,0 1.196,0.177 1.556,0.529 0.36,0.352 0.541,0.848 0.541,1.488 0,0.641 -0.181,1.137 -0.541,1.489 -0.36,0.352 -0.88,0.528 -1.556,0.528 h -0.929 z"
   id="path2178" /><path
   inkscape:connector-curvature="0"
   style="fill:#ffffff;fill-rule:nonzero"
   d="M 45.244,114.829 H 43.38 v 1.008 h 1.76 v 1.329 h -1.76 v 1.04 h 1.864 v 1.329 H 41.811 V 113.5 h 3.433 z"
   id="path2180" /><path
   inkscape:connector-curvature="0"
   style="fill:#ffffff;fill-rule:nonzero"
   d="m 49.806,114.829 h -1.865 v 1.008 h 1.761 v 1.329 h -1.761 v 1.04 h 1.865 v 1.329 H 46.373 V 113.5 h 3.433 z"
   id="path2182" /><path
   inkscape:connector-curvature="0"
   style="fill:#ffffff;fill-rule:nonzero"
   d="m 52.503,118.206 h 0.36 c 0.273,0 0.517,-0.044 0.729,-0.128 0.212,-0.084 0.392,-0.204 0.54,-0.352 0.148,-0.148 0.26,-0.328 0.336,-0.532 0.076,-0.204 0.116,-0.432 0.116,-0.676 0,-0.24 -0.04,-0.464 -0.12,-0.673 -0.08,-0.208 -0.192,-0.388 -0.34,-0.536 -0.148,-0.148 -0.328,-0.268 -0.54,-0.352 -0.212,-0.084 -0.452,-0.128 -0.721,-0.128 h -0.36 z M 50.935,113.5 h 2.321 c 0.412,0 0.796,0.085 1.156,0.249 0.36,0.164 0.676,0.384 0.944,0.66 0.269,0.276 0.481,0.596 0.637,0.96 0.156,0.364 0.232,0.749 0.232,1.149 0,0.396 -0.076,0.776 -0.228,1.14 -0.152,0.364 -0.364,0.689 -0.633,0.965 -0.268,0.276 -0.584,0.5 -0.944,0.664 -0.36,0.164 -0.748,0.248 -1.164,0.248 h -2.321 z"
   id="path2184" /><path
   inkscape:connector-curvature="0"
   style="fill:none;stroke:#cccccc;stroke-width:1.5px;stroke-linecap:round;stroke-linejoin:miter;stroke-miterlimit:4"
   d="m 65.14,98.544 c 5.878,-10.185 3.577,-23.246 -5.431,-30.805 -9.007,-7.555 -22.273,-7.555 -31.281,0 -9.007,7.559 -11.308,20.62 -5.43,30.805"
   id="path2189" /><circle
   style="fill:none;stroke:#cccccc;stroke-width:1px;stroke-linejoin:miter;stroke-miterlimit:4"
   r="3.7060001"
   cy="107.811"
   cx="25.93"
   id="circle2192" /><circle
   style="fill:#cccccc;stroke:#cccccc;stroke-width:1px;stroke-linejoin:miter;stroke-miterlimit:4"
   r="3.7060001"
   cy="107.299"
   cx="63.709"
   id="circle2195" /><path
   inkscape:connector-curvature="0"
   style="fill:#ffffff;fill-rule:nonzero"
   d="M 31.035,176.644 H 29.17 v 1.008 h 1.761 v 1.329 H 29.17 v 1.04 h 1.865 v 1.329 h -3.433 v -6.035 h 3.433 z"
   id="path2199" /><path
   inkscape:connector-curvature="0"
   style="fill:#ffffff;fill-rule:nonzero"
   d="m 32.164,181.35 v -6.035 h 1.568 l 2.898,3.69 v -3.69 h 1.56 v 6.035 h -1.56 l -2.898,-3.69 v 3.69 z"
   id="path2201" /><path
   inkscape:connector-curvature="0"
   style="fill:#ffffff;fill-rule:nonzero"
   d="m 42.888,176.644 h -1.865 v 1.008 h 1.761 v 1.329 h -1.761 v 1.04 h 1.865 v 1.329 h -3.433 v -6.035 h 3.433 z"
   id="path2203" /><path
   inkscape:connector-curvature="0"
   style="fill:#ffffff;fill-rule:nonzero"
   d="m 45.585,178.013 h 0.296 c 0.308,0 0.549,-0.064 0.713,-0.192 0.164,-0.129 0.248,-0.313 0.248,-0.553 0,-0.24 -0.084,-0.424 -0.248,-0.552 -0.164,-0.128 -0.405,-0.192 -0.713,-0.192 h -0.296 z m 3.45,3.337 h -1.953 l -1.497,-2.321 v 2.321 h -1.568 v -6.035 h 2.441 c 0.336,0 0.628,0.049 0.88,0.149 0.252,0.1 0.456,0.232 0.62,0.404 0.164,0.172 0.284,0.368 0.368,0.592 0.084,0.224 0.124,0.464 0.124,0.72 0,0.46 -0.112,0.833 -0.332,1.117 -0.22,0.284 -0.548,0.48 -0.98,0.58 z"
   id="path2205" /><path
   inkscape:connector-curvature="0"
   style="fill:#ffffff;fill-rule:nonzero"
   d="m 52.548,177.973 h 3.113 c 0,0.32 -0.012,0.612 -0.04,0.872 -0.028,0.26 -0.08,0.504 -0.16,0.728 -0.112,0.316 -0.264,0.593 -0.456,0.837 -0.192,0.244 -0.416,0.444 -0.676,0.608 -0.26,0.164 -0.544,0.288 -0.853,0.372 -0.308,0.084 -0.636,0.128 -0.976,0.128 -0.468,0 -0.896,-0.076 -1.284,-0.232 -0.389,-0.156 -0.721,-0.372 -0.997,-0.652 -0.276,-0.28 -0.492,-0.617 -0.648,-1.009 -0.156,-0.392 -0.232,-0.824 -0.232,-1.3 0,-0.468 0.076,-0.901 0.228,-1.293 0.152,-0.392 0.368,-0.728 0.648,-1.004 0.28,-0.276 0.616,-0.492 1.013,-0.648 0.396,-0.157 0.836,-0.233 1.32,-0.233 0.628,0 1.181,0.136 1.657,0.409 0.476,0.272 0.852,0.692 1.128,1.264 l -1.488,0.616 c -0.14,-0.332 -0.32,-0.568 -0.541,-0.712 -0.22,-0.144 -0.472,-0.216 -0.756,-0.216 -0.236,0 -0.448,0.044 -0.64,0.132 -0.192,0.088 -0.356,0.212 -0.492,0.376 -0.136,0.164 -0.244,0.36 -0.32,0.588 -0.077,0.229 -0.117,0.485 -0.117,0.769 0,0.256 0.032,0.492 0.101,0.712 0.068,0.22 0.168,0.408 0.3,0.568 0.132,0.16 0.3,0.284 0.496,0.372 0.196,0.088 0.428,0.133 0.688,0.133 0.156,0 0.304,-0.017 0.448,-0.053 0.144,-0.036 0.272,-0.092 0.388,-0.168 0.117,-0.076 0.209,-0.176 0.285,-0.3 0.076,-0.124 0.124,-0.272 0.152,-0.448 h -1.289 z"
   id="path2207" /><path
   inkscape:connector-curvature="0"
   style="fill:#ffffff;fill-rule:nonzero"
   d="m 57.71,178.453 -2.201,-3.138 h 1.873 l 1.121,1.649 1.112,-1.649 h 1.873 l -2.209,3.138 v 2.897 H 57.71 Z"
   id="path2209" /><path
   inkscape:connector-curvature="0"
   style="fill:none;stroke:#cccccc;stroke-width:1px;stroke-linecap:round;stroke-linejoin:miter;stroke-miterlimit:4"
   d="m 98.904,92.593 c 2.737,-4.742 1.664,-10.824 -2.533,-14.346 -4.194,-3.521 -10.373,-3.521 -14.567,0 -4.197,3.522 -5.27,9.604 -2.533,14.346 l 9.816,-5.666 z"
   id="path2214" /><path
   inkscape:connector-curvature="0"
   style="fill:#cccccc;fill-rule:nonzero;stroke:#cccccc;stroke-width:1px;stroke-linecap:round;stroke-linejoin:miter;stroke-miterlimit:4"
   d="m 98.531,93.79 0.024,4.41"
   id="path2217" /><path
   inkscape:connector-curvature="0"
   style="fill:#cccccc;fill-rule:nonzero;stroke:#cccccc;stroke-width:1px;stroke-linecap:round;stroke-linejoin:miter;stroke-miterlimit:4"
   d="m 100.748,95.963 -4.41,0.02"
   id="path2220" /><path
   inkscape:connector-curvature="0"
   style="fill:#cccccc;fill-rule:nonzero;stroke:#cccccc;stroke-width:1px;stroke-linecap:round;stroke-linejoin:miter;stroke-miterlimit:4"
   d="m 82.429,95.839 -4.414,0.02"
   id="path2223" /><path
   inkscape:connector-curvature="0"
   style="fill:#cccccc;fill-rule:nonzero;stroke:#cccccc;stroke-width:1px;stroke-linecap:round;stroke-linejoin:miter;stroke-miterlimit:4"
   d="m 98.531,93.79 0.024,4.41"
   id="path2226" /><path
   inkscape:connector-curvature="0"
   style="fill:#cccccc;fill-rule:nonzero;stroke:#cccccc;stroke-width:1px;stroke-linecap:round;stroke-linejoin:miter;stroke-miterlimit:4"
   d="m 100.748,95.963 -4.41,0.02"
   id="path2229" /><path
   inkscape:connector-curvature="0"
   style="fill:#cccccc;fill-rule:nonzero;stroke:#cccccc;stroke-width:1px;stroke-linecap:round;stroke-linejoin:miter;stroke-miterlimit:4"
   d="m 82.429,95.839 -4.414,0.02"
   id="path2232" /><path
   inkscape:connector-curvature="0"
   style="fill:none;stroke:#cccccc;stroke-width:1px;stroke-linecap:round;stroke-linejoin:miter;stroke-miterlimit:4"
   d="M 89.087,86.927 89.063,73.618"
   id="path2235" /><path
   inkscape:connector-curvature="0"
   style="fill:none;stroke:#cccccc;stroke-width:1px;stroke-linecap:round;stroke-linejoin:miter;stroke-miterlimit:4"
   d="m 98.904,155.593 c 2.737,-4.742 1.664,-10.824 -2.533,-14.346 -4.194,-3.521 -10.373,-3.521 -14.567,0 -4.197,3.522 -5.27,9.604 -2.533,14.346 l 9.816,-5.666 z"
   id="path2240" /><path
   inkscape:connector-curvature="0"
   style="fill:#cccccc;fill-rule:nonzero;stroke:#cccccc;stroke-width:1px;stroke-linecap:round;stroke-linejoin:miter;stroke-miterlimit:4"
   d="m 98.531,156.79 0.024,4.41"
   id="path2243" /><path
   inkscape:connector-curvature="0"
   style="fill:#cccccc;fill-rule:nonzero;stroke:#cccccc;stroke-width:1px;stroke-linecap:round;stroke-linejoin:miter;stroke-miterlimit:4"
   d="m 100.748,158.963 -4.41,0.02"
   id="path2246" /><path
   inkscape:connector-curvature="0"
   style="fill:#cccccc;fill-rule:nonzero;stroke:#cccccc;stroke-width:1px;stroke-linecap:round;stroke-linejoin:miter;stroke-miterlimit:4"
   d="m 82.429,158.839 -4.414,0.02"
   id="path2249" /><path
   inkscape:connector-curvature="0"
   style="fill:none;stroke:#cccccc;stroke-width:1px;stroke-linecap:round;stroke-linejoin:miter;stroke-miterlimit:4"
   d="m 89.087,149.931 -0.024,-13.31"
   id="path2252" /><path
   inkscape:connector-curvature="0"
   style="fill:none;stroke:#cccccc;stroke-width:1.5px;stroke-linecap:round;stroke-linejoin:miter;stroke-miterlimit:4"
   d="m 64.433,161.18 c 5.718,-9.906 3.48,-22.61 -5.286,-29.963 -8.761,-7.353 -21.661,-7.353 -30.422,0 -8.762,7.353 -11.004,20.057 -5.282,29.963"
   id="path2261" /><path
   inkscape:connector-curvature="0"
   style="fill:#cccccc;fill-rule:nonzero;stroke:#cccccc;stroke-width:1.5px;stroke-linecap:round;stroke-linejoin:miter;stroke-miterlimit:4"
   d="m 63.658,163.671 0.051,9.217"
   id="path9630" /><path
   inkscape:connector-curvature="0"
   style="fill:#cccccc;fill-rule:nonzero;stroke:#cccccc;stroke-width:1.5px;stroke-linecap:round;stroke-linejoin:miter;stroke-miterlimit:4"
   d="m 68.29,168.213 -9.213,0.043"
   id="path9630-1" /><path
   inkscape:connector-curvature="0"
   style="fill:#cccccc;fill-rule:nonzero;stroke:#cccccc;stroke-width:1.5px;stroke-linecap:round;stroke-linejoin:miter;stroke-miterlimit:4"
   d="m 30.029,167.953 -9.213,0.042"
   id="path9630-1-6" /><path
   inkscape:connector-curvature="0"
   style="fill:none;stroke:#cccccc;stroke-width:1.5px;stroke-linecap:round;stroke-linejoin:miter;stroke-miterlimit:4"
   d="M 43.936,149.351 43.889,123.004"
   id="path9948" /><path
   inkscape:connector-curvature="0"
   style="fill:none;stroke:#ffffff;stroke-width:1.10000002px;stroke-miterlimit:1.5"
   d="m 9.373,331.866 -2.434,6.276 5.931,-1.938"
   id="path2270" /><path
   inkscape:connector-curvature="0"
   style="fill:none;stroke:#ffffff;stroke-width:1.10000002px;stroke-miterlimit:1.5"
   d="m 8.666,334.228 c 1.075,0.44 1.824,1.188 1.956,2.521"
   id="path2274" />
</svg>