<?xml version="1.0" encoding="UTF-8" standalone="no"?>
<svg
   xmlns:serif="http://www.serif.com/"
   xmlns:dc="http://purl.org/dc/elements/1.1/"
   xmlns:cc="http://creativecommons.org/ns#"
   xmlns:rdf="http://www.w3.org/1999/02/22-rdf-syntax-ns#"
   xmlns:svg="http://www.w3.org/2000/svg"
   xmlns="http://www.w3.org/2000/svg"
   xmlns:sodipodi="http://sodipodi.sourceforge.net/DTD/sodipodi-0.dtd"
   xmlns:inkscape="http://www.inkscape.org/namespaces/inkscape"
   width="150px"
   height="380px"
   version="1.1"
   xml:space="preserve"
   style="fill-rule:evenodd;clip-rule:evenodd;"
   id="svg36432"
   sodipodi:docname="Julste.svg"
   inkscape:version="0.92.3 (2405546, 2018-03-11)"><metadata
   id="metadata36436"><rdf:RDF><cc:Work
       rdf:about=""><dc:format>image/svg+xml</dc:format><dc:type
         rdf:resource="http://purl.org/dc/dcmitype/StillImage" /><dc:title></dc:title></cc:Work></rdf:RDF></metadata><sodipodi:namedview
   pagecolor="#ffffff"
   bordercolor="#666666"
   borderopacity="1"
   objecttolerance="10"
   gridtolerance="10"
   guidetolerance="10"
   inkscape:pageopacity="0"
   inkscape:pageshadow="2"
   inkscape:window-width="1920"
   inkscape:window-height="1017"
   id="namedview36434"
   showgrid="false"
   inkscape:zoom="2.2105263"
   inkscape:cx="75"
   inkscape:cy="190"
   inkscape:window-x="1912"
   inkscape:window-y="-8"
   inkscape:window-maximized="1"
   inkscape:current-layer="svg36432" />
  <defs
   id="defs36260">
    <linearGradient
   id="_Linear1"
   x1="0"
   y1="0"
   x2="1"
   y2="0"
   gradientUnits="userSpaceOnUse"
   gradientTransform="matrix(150,-379.998,379.998,150,3.28145e-4,379.998)">
      <stop
   offset="0"
   style="stop-color:#0b0019;stop-opacity:1"
   id="stop36255" />
      <stop
   offset="1"
   style="stop-color:#170028;stop-opacity:1"
   id="stop36257" />
    </linearGradient>
  
    
    
    
    
    
    
    
    
    
    
    
    
    
    
    
    
    
    
    
    
    
    
    
    
    
    
    
    
    
    
    
    
    
    
    
    
    
    
    
    
    
    
    
    
    
    
    
    
    
    
    
    
    
    
    
    
    
    
    
    
    
    
    
    
    
    
    
    
    
    
    
    
    
    
    
    
    
    
    
    
    
    
    
    
    
    
    
    
    
    
    
    
    
    
    
    
    
    
    
    
    
    
    
    
    
    
    
    
    
    
    
    
    
    
    
    
    
    
    
    
    
    
    
    
    
    
    
    
    
    
    
    
    
  </defs>
  <rect
   style="fill:#1a1a1a"
   height="380"
   width="150"
   y="0"
   x="0"
   id="rect9931" /><rect
   style="fill:url(#_Linear1)"
   height="379.99799"
   width="150"
   y="0"
   x="0"
   id="rect9010" /><path
   inkscape:connector-curvature="0"
   style="fill:#0a0014;stroke:#3b0067;stroke-width:1px"
   d="m 143.354,326.966 c 0,-3.359 -2.728,-6.088 -6.087,-6.088 h -28.569 c -3.36,0 -6.087,2.729 -6.087,6.088 v 28.41 c 0,3.361 2.727,6.088 6.087,6.088 h 28.569 c 3.359,0 6.087,-2.727 6.087,-6.088 z"
   id="path9013" /><path
   inkscape:connector-curvature="0"
   style="fill:none;stroke:#cccccc;stroke-width:1px;stroke-linecap:round"
   d="m 126.904,62.593 c 2.737,-4.742 1.664,-10.824 -2.534,-14.346 -4.193,-3.521 -10.372,-3.521 -14.566,0 -4.197,3.522 -5.27,9.604 -2.533,14.346 l 9.816,-5.666 z"
   id="path9017" /><path
   inkscape:connector-curvature="0"
   style="fill:#cccccc;fill-rule:nonzero;stroke:#cccccc;stroke-width:1px;stroke-linecap:round"
   d="m 126.531,63.79 0.024,4.409"
   id="path9020" /><path
   inkscape:connector-curvature="0"
   style="fill:#cccccc;fill-rule:nonzero;stroke:#cccccc;stroke-width:1px;stroke-linecap:round"
   d="m 128.748,65.963 -4.41,0.02"
   id="path9023" /><path
   inkscape:connector-curvature="0"
   style="fill:#cccccc;fill-rule:nonzero;stroke:#cccccc;stroke-width:1px;stroke-linecap:round"
   d="m 110.429,65.839 -4.414,0.02"
   id="path9026" /><path
   inkscape:connector-curvature="0"
   style="fill:none;stroke:#cccccc;stroke-width:1px;stroke-linecap:round"
   d="m 117.087,56.931 -0.024,-13.31"
   id="path9029" /><path
   inkscape:connector-curvature="0"
   style="fill:#ffffff;fill-rule:nonzero"
   d="m 40.906,96.843 h 0.296 c 0.308,0 0.548,-0.064 0.712,-0.192 0.164,-0.128 0.248,-0.312 0.248,-0.552 0,-0.24 -0.084,-0.424 -0.248,-0.552 -0.164,-0.128 -0.404,-0.192 -0.712,-0.192 h -0.296 z m 3.449,3.338 H 42.402 L 40.906,97.86 v 2.321 h -1.569 v -6.035 h 2.441 c 0.336,0 0.628,0.048 0.88,0.148 0.253,0.1 0.457,0.232 0.621,0.405 0.164,0.172 0.284,0.368 0.368,0.592 0.084,0.224 0.124,0.464 0.124,0.72 0,0.46 -0.112,0.832 -0.332,1.117 -0.22,0.284 -0.548,0.48 -0.981,0.58 z"
   id="path9032" /><path
   inkscape:connector-curvature="0"
   style="fill:#ffffff;fill-rule:nonzero"
   d="m 48.293,97.94 -0.705,-2.009 -0.704,2.009 z m 0.416,1.192 h -2.241 l -0.36,1.049 h -1.673 l 2.297,-6.035 h 1.713 l 2.297,6.035 h -1.673 z"
   id="path9034" /><path
   inkscape:connector-curvature="0"
   style="fill:#ffffff;fill-rule:nonzero"
   d="m 51.43,100.181 v -6.035 h 1.569 l 2.897,3.69 v -3.69 h 1.561 v 6.035 h -1.561 l -2.897,-3.69 v 3.69 z"
   id="path9036" /><path
   inkscape:connector-curvature="0"
   style="fill:#ffffff;fill-rule:nonzero"
   d="m 61.77,96.803 h 3.114 c 0,0.321 -0.012,0.613 -0.04,0.873 -0.028,0.26 -0.08,0.504 -0.16,0.728 -0.112,0.316 -0.265,0.592 -0.457,0.836 -0.192,0.245 -0.416,0.445 -0.676,0.609 -0.26,0.164 -0.544,0.288 -0.852,0.372 -0.308,0.084 -0.637,0.128 -0.977,0.128 -0.468,0 -0.896,-0.076 -1.284,-0.232 -0.388,-0.156 -0.72,-0.372 -0.997,-0.652 -0.276,-0.281 -0.492,-0.617 -0.648,-1.009 -0.156,-0.392 -0.232,-0.824 -0.232,-1.3 0,-0.469 0.076,-0.901 0.228,-1.293 0.152,-0.392 0.368,-0.728 0.648,-1.004 0.281,-0.277 0.617,-0.493 1.013,-0.649 0.396,-0.156 0.836,-0.232 1.32,-0.232 0.629,0 1.181,0.136 1.657,0.408 0.476,0.273 0.852,0.693 1.129,1.265 l -1.489,0.616 c -0.14,-0.332 -0.32,-0.568 -0.54,-0.712 -0.22,-0.144 -0.473,-0.216 -0.757,-0.216 -0.236,0 -0.448,0.044 -0.64,0.132 -0.192,0.088 -0.356,0.212 -0.492,0.376 -0.136,0.164 -0.244,0.36 -0.32,0.588 -0.076,0.228 -0.116,0.484 -0.116,0.769 0,0.256 0.032,0.492 0.1,0.712 0.068,0.22 0.168,0.408 0.3,0.568 0.132,0.16 0.3,0.284 0.496,0.372 0.196,0.088 0.428,0.132 0.688,0.132 0.156,0 0.305,-0.016 0.449,-0.052 0.144,-0.036 0.272,-0.092 0.388,-0.168 0.116,-0.076 0.208,-0.176 0.284,-0.3 0.076,-0.124 0.124,-0.272 0.152,-0.448 H 61.77 Z"
   id="path9038" /><path
   inkscape:connector-curvature="0"
   style="fill:#ffffff;fill-rule:nonzero"
   d="m 69.309,95.475 h -1.864 v 1.008 h 1.76 v 1.329 h -1.76 v 1.04 h 1.864 v 1.329 h -3.433 v -6.035 h 3.433 z"
   id="path9040" /><path
   inkscape:connector-curvature="0"
   style="fill:none;stroke:#cccccc;stroke-width:1px;stroke-linecap:round"
   d="m 126.904,62.593 c 2.737,-4.742 1.664,-10.824 -2.534,-14.346 -4.193,-3.521 -10.372,-3.521 -14.566,0 -4.197,3.522 -5.27,9.604 -2.533,14.346 l 9.816,-5.666 z"
   id="path9045" /><path
   inkscape:connector-curvature="0"
   style="fill:#cccccc;fill-rule:nonzero;stroke:#cccccc;stroke-width:1px;stroke-linecap:round"
   d="m 126.531,63.79 0.024,4.409"
   id="path9048" /><path
   inkscape:connector-curvature="0"
   style="fill:#cccccc;fill-rule:nonzero;stroke:#cccccc;stroke-width:1px;stroke-linecap:round"
   d="m 128.748,65.963 -4.41,0.02"
   id="path9051" /><path
   inkscape:connector-curvature="0"
   style="fill:#cccccc;fill-rule:nonzero;stroke:#cccccc;stroke-width:1px;stroke-linecap:round"
   d="m 110.429,65.839 -4.414,0.02"
   id="path9054" /><path
   inkscape:connector-curvature="0"
   style="fill:none;stroke:#cccccc;stroke-width:1px;stroke-linecap:round"
   d="m 117.087,56.931 -0.024,-13.31"
   id="path9057" /><path
   inkscape:connector-curvature="0"
   style="fill:none;stroke:#cccccc;stroke-width:1px;stroke-linecap:round"
   d="m 126.904,184.662 c 2.737,-4.742 1.664,-10.824 -2.534,-14.346 -4.193,-3.521 -10.372,-3.521 -14.566,0 -4.197,3.522 -5.27,9.604 -2.533,14.346 l 9.816,-5.666 z"
   id="path9060" /><path
   inkscape:connector-curvature="0"
   style="fill:#cccccc;fill-rule:nonzero;stroke:#cccccc;stroke-width:1px;stroke-linecap:round"
   d="m 126.531,185.859 0.024,4.409"
   id="path9063" /><path
   inkscape:connector-curvature="0"
   style="fill:#cccccc;fill-rule:nonzero;stroke:#cccccc;stroke-width:1px;stroke-linecap:round"
   d="m 128.748,188.032 -4.41,0.02"
   id="path9066" /><path
   inkscape:connector-curvature="0"
   style="fill:#cccccc;fill-rule:nonzero;stroke:#cccccc;stroke-width:1px;stroke-linecap:round"
   d="m 110.429,187.908 -4.414,0.02"
   id="path9069" /><path
   inkscape:connector-curvature="0"
   style="fill:none;stroke:#cccccc;stroke-width:1px;stroke-linecap:round"
   d="m 117.087,179 -0.024,-13.31"
   id="path9072" /><path
   inkscape:connector-curvature="0"
   style="fill:#ffffff;fill-rule:nonzero"
   d="m 29.94,220.476 h 0.296 c 0.308,0 0.548,-0.064 0.712,-0.192 0.164,-0.128 0.249,-0.312 0.249,-0.552 0,-0.24 -0.085,-0.424 -0.249,-0.552 -0.164,-0.128 -0.404,-0.192 -0.712,-0.192 H 29.94 Z m 3.449,3.338 h -1.952 l -1.497,-2.321 v 2.321 h -1.569 v -6.035 h 2.441 c 0.337,0 0.629,0.048 0.881,0.148 0.252,0.1 0.456,0.232 0.62,0.405 0.164,0.172 0.284,0.368 0.368,0.592 0.084,0.224 0.124,0.464 0.124,0.72 0,0.46 -0.112,0.832 -0.332,1.117 -0.22,0.284 -0.548,0.48 -0.98,0.58 z"
   id="path9075" /><path
   inkscape:connector-curvature="0"
   style="fill:#ffffff;fill-rule:nonzero"
   d="m 37.479,219.108 h -1.865 v 1.008 h 1.761 v 1.329 h -1.761 v 1.04 h 1.865 v 1.329 h -3.433 v -6.035 h 3.433 z"
   id="path9077" /><path
   inkscape:connector-curvature="0"
   style="fill:#ffffff;fill-rule:nonzero"
   d="m 41.921,219.324 c -0.172,-0.14 -0.34,-0.24 -0.512,-0.308 -0.172,-0.068 -0.336,-0.1 -0.496,-0.1 -0.205,0 -0.369,0.048 -0.497,0.144 -0.128,0.096 -0.192,0.22 -0.192,0.376 0,0.108 0.032,0.196 0.096,0.264 0.064,0.068 0.148,0.128 0.252,0.18 0.104,0.052 0.221,0.096 0.353,0.132 0.132,0.036 0.26,0.076 0.388,0.12 0.512,0.172 0.888,0.4 1.124,0.685 0.236,0.284 0.356,0.656 0.356,1.116 0,0.308 -0.052,0.588 -0.156,0.84 -0.104,0.252 -0.256,0.465 -0.456,0.645 -0.2,0.18 -0.444,0.316 -0.736,0.416 -0.292,0.1 -0.62,0.148 -0.989,0.148 -0.764,0 -1.468,-0.228 -2.121,-0.68 l 0.673,-1.265 c 0.236,0.208 0.468,0.364 0.696,0.464 0.228,0.1 0.456,0.152 0.68,0.152 0.256,0 0.449,-0.06 0.573,-0.176 0.124,-0.116 0.188,-0.252 0.188,-0.4 0,-0.092 -0.016,-0.168 -0.048,-0.236 -0.032,-0.068 -0.084,-0.128 -0.16,-0.184 -0.076,-0.056 -0.172,-0.108 -0.293,-0.156 -0.12,-0.048 -0.264,-0.1 -0.436,-0.16 -0.204,-0.064 -0.4,-0.136 -0.596,-0.212 -0.196,-0.076 -0.368,-0.18 -0.52,-0.308 -0.152,-0.128 -0.276,-0.289 -0.368,-0.485 -0.092,-0.196 -0.14,-0.44 -0.14,-0.74 0,-0.3 0.048,-0.568 0.148,-0.812 0.1,-0.244 0.236,-0.452 0.416,-0.625 0.18,-0.172 0.396,-0.308 0.656,-0.404 0.26,-0.096 0.548,-0.144 0.868,-0.144 0.301,0 0.613,0.04 0.937,0.124 0.324,0.084 0.636,0.204 0.936,0.364 z"
   id="path9079" /><path
   inkscape:connector-curvature="0"
   style="fill:#ffffff;fill-rule:nonzero"
   d="m 45.146,220.797 c 0,0.24 0.044,0.46 0.136,0.664 0.092,0.204 0.212,0.38 0.369,0.528 0.156,0.148 0.336,0.264 0.54,0.348 0.204,0.084 0.424,0.124 0.652,0.124 0.228,0 0.448,-0.04 0.652,-0.124 0.204,-0.084 0.388,-0.2 0.545,-0.348 0.156,-0.148 0.28,-0.324 0.372,-0.528 0.092,-0.204 0.136,-0.424 0.136,-0.664 0,-0.241 -0.044,-0.461 -0.136,-0.665 -0.092,-0.204 -0.216,-0.38 -0.372,-0.528 -0.157,-0.148 -0.341,-0.264 -0.545,-0.348 -0.204,-0.084 -0.424,-0.124 -0.652,-0.124 -0.228,0 -0.448,0.04 -0.652,0.124 -0.204,0.084 -0.384,0.2 -0.54,0.348 -0.157,0.148 -0.277,0.324 -0.369,0.528 -0.092,0.204 -0.136,0.424 -0.136,0.665 z m -1.64,0 c 0,-0.449 0.084,-0.865 0.248,-1.253 0.164,-0.388 0.396,-0.724 0.688,-1.012 0.292,-0.289 0.644,-0.513 1.052,-0.677 0.409,-0.164 0.857,-0.244 1.349,-0.244 0.484,0 0.932,0.08 1.345,0.244 0.412,0.164 0.764,0.388 1.06,0.677 0.296,0.288 0.528,0.624 0.692,1.012 0.164,0.388 0.248,0.804 0.248,1.253 0,0.448 -0.084,0.864 -0.248,1.252 -0.164,0.388 -0.396,0.724 -0.692,1.012 -0.296,0.289 -0.648,0.513 -1.06,0.677 -0.413,0.164 -0.861,0.244 -1.345,0.244 -0.492,0 -0.94,-0.08 -1.349,-0.244 -0.408,-0.164 -0.76,-0.388 -1.052,-0.677 -0.292,-0.288 -0.524,-0.624 -0.688,-1.012 -0.164,-0.388 -0.248,-0.804 -0.248,-1.252 z"
   id="path9081" /><path
   inkscape:connector-curvature="0"
   style="fill:#ffffff;fill-rule:nonzero"
   d="m 51.181,223.814 v -6.035 h 1.568 l 2.898,3.69 v -3.69 h 1.56 v 6.035 h -1.56 l -2.898,-3.69 v 3.69 z"
   id="path9083" /><path
   inkscape:connector-curvature="0"
   style="fill:#ffffff;fill-rule:nonzero"
   d="m 61.769,221.573 -0.704,-2.009 -0.704,2.009 z m 0.416,1.192 h -2.241 l -0.36,1.049 h -1.672 l 2.297,-6.035 h 1.712 l 2.297,6.035 h -1.672 z"
   id="path9085" /><path
   inkscape:connector-curvature="0"
   style="fill:#ffffff;fill-rule:nonzero"
   d="m 64.907,223.814 v -6.035 h 1.568 l 2.897,3.69 v -3.69 h 1.561 v 6.035 h -1.561 l -2.897,-3.69 v 3.69 z"
   id="path9087" /><path
   inkscape:connector-curvature="0"
   style="fill:#ffffff;fill-rule:nonzero"
   d="m 76.623,219.796 c -0.364,-0.444 -0.812,-0.664 -1.344,-0.664 -0.236,0 -0.452,0.044 -0.652,0.128 -0.201,0.084 -0.373,0.2 -0.517,0.348 -0.144,0.148 -0.256,0.32 -0.34,0.524 -0.084,0.204 -0.124,0.42 -0.124,0.657 0,0.24 0.04,0.46 0.124,0.664 0.084,0.204 0.196,0.38 0.344,0.528 0.148,0.148 0.32,0.268 0.517,0.352 0.196,0.084 0.412,0.128 0.64,0.128 0.5,0 0.952,-0.212 1.352,-0.64 v 1.857 l -0.16,0.056 c -0.24,0.084 -0.464,0.148 -0.672,0.188 -0.208,0.04 -0.412,0.06 -0.616,0.06 -0.416,0 -0.817,-0.08 -1.197,-0.236 -0.38,-0.156 -0.716,-0.38 -1.008,-0.665 -0.292,-0.284 -0.524,-0.624 -0.7,-1.016 -0.177,-0.392 -0.265,-0.82 -0.265,-1.284 0,-0.465 0.088,-0.889 0.261,-1.277 0.172,-0.388 0.404,-0.72 0.696,-1 0.292,-0.281 0.628,-0.501 1.012,-0.657 0.384,-0.156 0.789,-0.236 1.209,-0.236 0.24,0 0.476,0.024 0.708,0.076 0.232,0.052 0.476,0.128 0.732,0.236 z"
   id="path9089" /><path
   inkscape:connector-curvature="0"
   style="fill:#ffffff;fill-rule:nonzero"
   d="m 81.049,219.108 h -1.865 v 1.008 h 1.761 v 1.329 h -1.761 v 1.04 h 1.865 v 1.329 h -3.433 v -6.035 h 3.433 z"
   id="path9091" /><path
   inkscape:connector-curvature="0"
   style="fill:none;stroke:#cccccc;stroke-width:1px;stroke-linecap:round"
   d="m 126.904,184.662 c 2.737,-4.742 1.664,-10.824 -2.534,-14.346 -4.193,-3.521 -10.372,-3.521 -14.566,0 -4.197,3.522 -5.27,9.604 -2.533,14.346 l 9.816,-5.666 z"
   id="path9096" /><path
   inkscape:connector-curvature="0"
   style="fill:#cccccc;fill-rule:nonzero;stroke:#cccccc;stroke-width:1px;stroke-linecap:round"
   d="m 126.531,185.859 0.024,4.409"
   id="path9099" /><path
   inkscape:connector-curvature="0"
   style="fill:#cccccc;fill-rule:nonzero;stroke:#cccccc;stroke-width:1px;stroke-linecap:round"
   d="m 128.748,188.032 -4.41,0.02"
   id="path9102" /><path
   inkscape:connector-curvature="0"
   style="fill:#cccccc;fill-rule:nonzero;stroke:#cccccc;stroke-width:1px;stroke-linecap:round"
   d="m 110.429,187.908 -4.414,0.02"
   id="path9105" /><path
   inkscape:connector-curvature="0"
   style="fill:none;stroke:#cccccc;stroke-width:1px;stroke-linecap:round"
   d="m 117.087,179 -0.024,-13.31"
   id="path9108" /><path
   inkscape:connector-curvature="0"
   style="fill:none;stroke:#cccccc;stroke-width:1.5px;stroke-linecap:round"
   d="m 75.087,202.846 c 5.878,-10.184 3.577,-23.245 -5.431,-30.805 -9.007,-7.555 -22.273,-7.555 -31.281,0 -9.007,7.56 -11.308,20.621 -5.43,30.805"
   id="path9111" /><circle
   style="fill:none;stroke:#cccccc;stroke-width:1px"
   r="3.7060001"
   cy="211.603"
   cx="35.876999"
   id="circle9114" /><circle
   style="fill:#cccccc;stroke:#cccccc;stroke-width:1px"
   r="3.7060001"
   cy="211.60201"
   cx="73.655998"
   id="circle9117" /><path
   inkscape:connector-curvature="0"
   style="fill:none;stroke:#cccccc;stroke-width:1.5px;stroke-linecap:round"
   d="m 75.383,263.846 c 5.878,-10.184 3.577,-23.245 -5.431,-30.804 -9.007,-7.556 -22.273,-7.556 -31.281,0 -9.007,7.559 -11.308,20.62 -5.43,30.804"
   id="path9122" /><circle
   style="fill:none;stroke:#cccccc;stroke-width:1px"
   r="3.7060001"
   cy="272.603"
   cx="36.173"
   id="circle9125" /><circle
   style="fill:#cccccc;stroke:#cccccc;stroke-width:1px"
   r="3.7060001"
   cy="272.60199"
   cx="73.952003"
   id="circle9128" /><rect
   style="fill:#ffffff"
   height="6.0349998"
   width="1.569"
   y="353.61301"
   x="63.164001"
   id="rect9133" /><path
   inkscape:connector-curvature="0"
   style="fill:#ffffff;fill-rule:nonzero"
   d="m 65.997,359.648 v -6.035 h 1.569 l 2.897,3.69 v -3.69 h 1.561 v 6.035 h -1.561 l -2.897,-3.69 v 3.69 z"
   id="path9135" /><path
   inkscape:connector-curvature="0"
   style="fill:#ffffff;fill-rule:nonzero"
   d="m 74.857,356.382 h 0.52 c 0.577,0 0.865,-0.252 0.865,-0.752 0,-0.5 -0.288,-0.752 -0.865,-0.752 h -0.52 z m 0,3.266 h -1.569 v -6.035 h 2.497 c 0.677,0 1.197,0.176 1.557,0.529 0.36,0.352 0.54,0.848 0.54,1.488 0,0.64 -0.18,1.137 -0.54,1.489 -0.36,0.352 -0.88,0.528 -1.557,0.528 h -0.928 z"
   id="path9137" /><path
   inkscape:connector-curvature="0"
   style="fill:#ffffff;fill-rule:nonzero"
   d="m 80.283,353.613 v 3.282 c 0,0.176 0.008,0.356 0.02,0.54 0.012,0.184 0.052,0.352 0.12,0.5 0.068,0.148 0.172,0.272 0.317,0.364 0.144,0.092 0.348,0.14 0.608,0.14 0.26,0 0.464,-0.048 0.604,-0.14 0.14,-0.092 0.248,-0.216 0.316,-0.364 0.068,-0.148 0.112,-0.316 0.124,-0.5 0.012,-0.184 0.02,-0.364 0.02,-0.54 v -3.282 h 1.561 v 3.498 c 0,0.94 -0.216,1.624 -0.644,2.057 -0.429,0.432 -1.089,0.648 -1.981,0.648 -0.893,0 -1.553,-0.216 -1.985,-0.648 -0.432,-0.433 -0.648,-1.117 -0.648,-2.057 v -3.498 z"
   id="path9139" /><path
   inkscape:connector-curvature="0"
   style="fill:#ffffff;fill-rule:nonzero"
   d="m 87.526,354.942 v 4.706 h -1.568 v -4.706 h -1.289 v -1.329 h 4.146 v 1.329 z"
   id="path9141" /><path
   inkscape:connector-curvature="0"
   style="fill:#ffffff;fill-rule:nonzero"
   d="m 107.533,356.631 c 0,0.24 0.044,0.46 0.136,0.664 0.092,0.204 0.212,0.38 0.368,0.528 0.156,0.148 0.336,0.264 0.54,0.348 0.204,0.084 0.424,0.124 0.653,0.124 0.228,0 0.448,-0.04 0.652,-0.124 0.204,-0.084 0.388,-0.2 0.544,-0.348 0.156,-0.148 0.28,-0.324 0.372,-0.528 0.092,-0.204 0.136,-0.424 0.136,-0.664 0,-0.241 -0.044,-0.461 -0.136,-0.665 -0.092,-0.204 -0.216,-0.38 -0.372,-0.528 -0.156,-0.148 -0.34,-0.264 -0.544,-0.348 -0.204,-0.084 -0.424,-0.124 -0.652,-0.124 -0.229,0 -0.449,0.04 -0.653,0.124 -0.204,0.084 -0.384,0.2 -0.54,0.348 -0.156,0.148 -0.276,0.324 -0.368,0.528 -0.092,0.204 -0.136,0.424 -0.136,0.665 z m -1.641,0 c 0,-0.449 0.084,-0.865 0.248,-1.253 0.164,-0.388 0.396,-0.724 0.689,-1.012 0.292,-0.289 0.644,-0.513 1.052,-0.677 0.408,-0.164 0.856,-0.244 1.349,-0.244 0.484,0 0.932,0.08 1.344,0.244 0.412,0.164 0.764,0.388 1.061,0.677 0.296,0.288 0.528,0.624 0.692,1.012 0.164,0.388 0.248,0.804 0.248,1.253 0,0.448 -0.084,0.864 -0.248,1.252 -0.164,0.388 -0.396,0.724 -0.692,1.012 -0.297,0.289 -0.649,0.513 -1.061,0.677 -0.412,0.164 -0.86,0.244 -1.344,0.244 -0.493,0 -0.941,-0.08 -1.349,-0.244 -0.408,-0.164 -0.76,-0.388 -1.052,-0.677 -0.293,-0.288 -0.525,-0.624 -0.689,-1.012 -0.164,-0.388 -0.248,-0.804 -0.248,-1.252 z"
   id="path9146" /><path
   inkscape:connector-curvature="0"
   style="fill:#ffffff;fill-rule:nonzero"
   d="m 115.136,353.613 v 3.282 c 0,0.176 0.008,0.356 0.02,0.54 0.012,0.184 0.052,0.352 0.12,0.5 0.068,0.148 0.172,0.272 0.316,0.364 0.144,0.092 0.348,0.14 0.608,0.14 0.261,0 0.465,-0.048 0.605,-0.14 0.14,-0.092 0.248,-0.216 0.316,-0.364 0.068,-0.148 0.112,-0.316 0.124,-0.5 0.012,-0.184 0.02,-0.364 0.02,-0.54 v -3.282 h 1.561 v 3.498 c 0,0.94 -0.217,1.624 -0.645,2.057 -0.428,0.432 -1.088,0.648 -1.981,0.648 -0.892,0 -1.552,-0.216 -1.984,-0.648 -0.433,-0.433 -0.649,-1.117 -0.649,-2.057 v -3.498 z"
   id="path9148" /><path
   inkscape:connector-curvature="0"
   style="fill:#ffffff;fill-rule:nonzero"
   d="m 122.379,354.942 v 4.706 h -1.569 v -4.706 h -1.288 v -1.329 h 4.146 v 1.329 z"
   id="path9150" /><path
   inkscape:connector-curvature="0"
   style="fill:#ffffff;fill-rule:nonzero"
   d="m 125.932,356.382 h 0.521 c 0.576,0 0.864,-0.252 0.864,-0.752 0,-0.5 -0.288,-0.752 -0.864,-0.752 h -0.521 z m 0,3.266 h -1.568 v -6.035 h 2.497 c 0.676,0 1.196,0.176 1.556,0.529 0.361,0.352 0.541,0.848 0.541,1.488 0,0.64 -0.18,1.137 -0.541,1.489 -0.36,0.352 -0.88,0.528 -1.556,0.528 h -0.929 z"
   id="path9152" /><path
   inkscape:connector-curvature="0"
   style="fill:#ffffff;fill-rule:nonzero"
   d="m 131.359,353.613 v 3.282 c 0,0.176 0.008,0.356 0.02,0.54 0.012,0.184 0.052,0.352 0.12,0.5 0.068,0.148 0.172,0.272 0.316,0.364 0.144,0.092 0.348,0.14 0.608,0.14 0.26,0 0.464,-0.048 0.604,-0.14 0.14,-0.092 0.249,-0.216 0.317,-0.364 0.068,-0.148 0.112,-0.316 0.124,-0.5 0.012,-0.184 0.02,-0.364 0.02,-0.54 v -3.282 h 1.56 v 3.498 c 0,0.94 -0.216,1.624 -0.644,2.057 -0.428,0.432 -1.088,0.648 -1.981,0.648 -0.892,0 -1.552,-0.216 -1.985,-0.648 -0.432,-0.433 -0.648,-1.117 -0.648,-2.057 v -3.498 z"
   id="path9154" /><path
   inkscape:connector-curvature="0"
   style="fill:#ffffff;fill-rule:nonzero"
   d="m 138.602,354.942 v 4.706 h -1.569 v -4.706 h -1.288 v -1.329 h 4.145 v 1.329 z"
   id="path9156" /><path
   inkscape:connector-curvature="0"
   style="fill:#ffffff;fill-rule:nonzero"
   d="m 19.101,356.27 h 3.114 c 0,0.321 -0.012,0.613 -0.04,0.873 -0.028,0.26 -0.08,0.504 -0.16,0.728 -0.112,0.316 -0.264,0.592 -0.457,0.836 -0.192,0.245 -0.416,0.445 -0.676,0.609 -0.26,0.164 -0.544,0.288 -0.852,0.372 -0.308,0.084 -0.636,0.128 -0.977,0.128 -0.468,0 -0.896,-0.076 -1.284,-0.232 -0.388,-0.156 -0.72,-0.372 -0.996,-0.652 -0.277,-0.281 -0.493,-0.617 -0.649,-1.009 -0.156,-0.392 -0.232,-0.824 -0.232,-1.3 0,-0.469 0.076,-0.901 0.228,-1.293 0.152,-0.392 0.368,-0.728 0.649,-1.004 0.28,-0.277 0.616,-0.493 1.012,-0.649 0.396,-0.156 0.836,-0.232 1.32,-0.232 0.629,0 1.181,0.136 1.657,0.408 0.476,0.273 0.853,0.693 1.129,1.265 l -1.489,0.616 c -0.14,-0.332 -0.32,-0.568 -0.54,-0.712 -0.22,-0.144 -0.472,-0.216 -0.757,-0.216 -0.236,0 -0.448,0.044 -0.64,0.132 -0.192,0.088 -0.356,0.212 -0.492,0.376 -0.136,0.164 -0.244,0.36 -0.32,0.588 -0.076,0.228 -0.116,0.484 -0.116,0.769 0,0.256 0.032,0.492 0.1,0.712 0.068,0.22 0.168,0.408 0.3,0.568 0.132,0.16 0.3,0.284 0.496,0.372 0.196,0.088 0.428,0.132 0.688,0.132 0.157,0 0.305,-0.016 0.449,-0.052 0.144,-0.036 0.272,-0.092 0.388,-0.168 0.116,-0.076 0.208,-0.176 0.284,-0.3 0.076,-0.124 0.124,-0.272 0.152,-0.448 h -1.289 z"
   id="path9161" /><path
   inkscape:connector-curvature="0"
   style="fill:#ffffff;fill-rule:nonzero"
   d="m 26.264,357.407 -0.704,-2.009 -0.704,2.009 z m 0.417,1.192 H 24.44 l -0.36,1.049 h -1.673 l 2.297,-6.035 h 1.713 l 2.296,6.035 h -1.672 z"
   id="path9163" /><path
   inkscape:connector-curvature="0"
   style="fill:#ffffff;fill-rule:nonzero"
   d="m 31.427,354.942 v 4.706 h -1.569 v -4.706 h -1.289 v -1.329 h 4.146 v 1.329 z"
   id="path9165" /><path
   inkscape:connector-curvature="0"
   style="fill:#ffffff;fill-rule:nonzero"
   d="M 36.845,354.942 H 34.98 v 1.008 h 1.761 v 1.329 H 34.98 v 1.04 h 1.865 v 1.329 h -3.434 v -6.035 h 3.434 z"
   id="path9167" /><g
   id="g36595"
   style="fill:#e0d6e8"><path
     id="path9197"
     d="m 58.349,17.71 v 6.579 c 0,0.277 -0.014,0.532 -0.044,0.767 -0.029,0.236 -0.077,0.437 -0.144,0.605 -0.109,0.267 -0.258,0.512 -0.447,0.735 -0.188,0.222 -0.409,0.411 -0.661,0.566 -0.251,0.156 -0.53,0.277 -0.836,0.365 -0.306,0.088 -0.626,0.132 -0.962,0.132 -1.015,0 -1.84,-0.465 -2.478,-1.396 l 1.61,-1.648 c 0.042,0.285 0.134,0.512 0.277,0.679 0.142,0.168 0.318,0.252 0.529,0.252 0.46,0 0.691,-0.365 0.691,-1.095 V 17.71 Z"
     style="fill:#e0d6e8;fill-rule:nonzero"
     inkscape:connector-curvature="0" /><path
     id="path9199"
     d="m 62.815,17.71 v 5.157 c 0,0.278 0.011,0.56 0.032,0.849 0.02,0.29 0.084,0.551 0.188,0.787 0.105,0.235 0.27,0.425 0.498,0.573 0.227,0.146 0.545,0.22 0.955,0.22 0.412,0 0.729,-0.074 0.95,-0.22 0.222,-0.148 0.389,-0.338 0.497,-0.573 0.109,-0.236 0.174,-0.497 0.195,-0.787 0.022,-0.289 0.031,-0.571 0.031,-0.849 V 17.71 h 2.453 v 5.497 c 0,1.476 -0.337,2.553 -1.012,3.233 -0.675,0.679 -1.713,1.019 -3.114,1.019 -1.4,0 -2.44,-0.34 -3.119,-1.019 -0.68,-0.68 -1.019,-1.757 -1.019,-3.233 V 17.71 Z"
     style="fill:#e0d6e8;fill-rule:nonzero"
     inkscape:connector-curvature="0" /><path
     id="path9201"
     d="m 73.068,17.71 v 7.396 h 2.956 v 2.089 H 70.603 V 17.71 Z"
     style="fill:#e0d6e8;fill-rule:nonzero"
     inkscape:connector-curvature="0" /><path
     id="path9203"
     d="m 82.654,20.137 c -0.269,-0.217 -0.537,-0.38 -0.806,-0.483 -0.267,-0.106 -0.527,-0.158 -0.779,-0.158 -0.319,0 -0.579,0.075 -0.78,0.227 -0.201,0.15 -0.303,0.347 -0.303,0.591 0,0.168 0.051,0.305 0.152,0.414 0.1,0.11 0.232,0.204 0.396,0.284 0.164,0.08 0.349,0.149 0.554,0.208 0.205,0.059 0.409,0.121 0.61,0.188 0.804,0.269 1.394,0.627 1.767,1.076 0.373,0.449 0.56,1.033 0.56,1.754 0,0.488 -0.082,0.927 -0.245,1.321 -0.164,0.395 -0.403,0.733 -0.717,1.013 -0.314,0.281 -0.701,0.499 -1.157,0.655 -0.457,0.154 -0.975,0.232 -1.555,0.232 -1.198,0 -2.309,-0.356 -3.334,-1.069 l 1.058,-1.988 c 0.369,0.328 0.734,0.57 1.095,0.73 0.359,0.16 0.716,0.238 1.068,0.238 0.404,0 0.703,-0.092 0.9,-0.276 0.198,-0.185 0.296,-0.394 0.296,-0.63 0,-0.142 -0.025,-0.265 -0.076,-0.37 -0.05,-0.105 -0.134,-0.201 -0.252,-0.289 -0.117,-0.089 -0.27,-0.17 -0.459,-0.246 -0.188,-0.075 -0.417,-0.159 -0.685,-0.251 -0.319,-0.101 -0.631,-0.211 -0.937,-0.334 -0.307,-0.121 -0.58,-0.282 -0.818,-0.483 -0.239,-0.203 -0.432,-0.456 -0.578,-0.762 -0.148,-0.307 -0.221,-0.694 -0.221,-1.163 0,-0.47 0.077,-0.896 0.233,-1.277 0.154,-0.383 0.373,-0.709 0.654,-0.982 0.281,-0.272 0.624,-0.483 1.032,-0.635 0.406,-0.151 0.862,-0.227 1.364,-0.227 0.47,0 0.96,0.066 1.472,0.196 0.511,0.129 1.003,0.32 1.471,0.571 z"
     style="fill:#e0d6e8;fill-rule:nonzero"
     inkscape:connector-curvature="0" /><path
     id="path9205"
     d="m 89.233,19.797 v 7.398 H 86.767 V 19.797 H 84.743 V 17.71 h 6.515 v 2.087 z"
     style="fill:#e0d6e8;fill-rule:nonzero"
     inkscape:connector-curvature="0" /><path
     id="path9207"
     d="m 97.75,19.797 h -2.931 v 1.585 h 2.767 v 2.089 h -2.767 v 1.635 h 2.931 v 2.089 H 92.353 V 17.71 h 5.397 z"
     style="fill:#e0d6e8;fill-rule:nonzero"
     inkscape:connector-curvature="0" /></g><g
   id="g36601"
   style="fill:#e0d6e8"><path
     id="path42"
     d="m 62.952,363.5 h 2.673 l 2.49,8.317 2.574,-8.317 h 2.66 l -3.46,10.397 c -0.323,0.959 -0.903,1.438 -1.738,1.438 -0.847,0 -1.433,-0.484 -1.755,-1.453 z"
     style="fill:#e0d6e8;fill-rule:nonzero"
     inkscape:connector-curvature="0" /><path
     id="path44"
     d="M 73.55,372.292 V 363.5 h 2.507 v 8.709 c 0.044,0.312 0.334,0.468 0.869,0.468 h 1.705 c 0.513,0 0.797,-0.145 0.853,-0.435 l 0.017,-0.083 V 363.5 h 2.507 v 8.776 c 0,0.769 -0.083,1.315 -0.251,1.638 -0.445,0.858 -1.231,1.287 -2.357,1.287 h -3.243 c -1.159,0 -1.95,-0.44 -2.373,-1.321 -0.156,-0.323 -0.234,-0.852 -0.234,-1.588 z"
     style="fill:#e0d6e8;fill-rule:nonzero"
     inkscape:connector-curvature="0" /><path
     id="path46"
     d="M 83.161,372.343 V 363.5 h 2.508 v 8.642 c 0,0.357 0.211,0.535 0.635,0.535 h 4.463 l -0.016,2.524 h -4.664 c -0.167,0 -0.312,-0.006 -0.435,-0.017 -0.903,-0.077 -1.544,-0.342 -1.922,-0.794 -0.379,-0.451 -0.569,-1.133 -0.569,-2.047 z"
     style="fill:#e0d6e8;fill-rule:nonzero"
     inkscape:connector-curvature="0" /><path
     id="path48"
     d="M 90.851,366.024 V 363.5 h 7.522 v 2.524 h -2.524 v 9.177 h -2.508 v -9.177 z"
     style="fill:#e0d6e8;fill-rule:nonzero"
     inkscape:connector-curvature="0" /></g><path
   inkscape:connector-curvature="0"
   style="fill:#757575;fill-rule:nonzero;stroke:#414c55;stroke-width:0.61000001px;stroke-miterlimit:10"
   d="m 59.383,369.417 c 0,-4.509 -3.655,-8.164 -8.164,-8.164 -4.509,0 -8.165,3.655 -8.165,8.164 0,4.509 3.656,8.165 8.165,8.165 4.509,0 8.164,-3.656 8.164,-8.165 z"
   id="path4" /><path
   inkscape:connector-curvature="0"
   style="fill:#2b2b2b;fill-rule:nonzero"
   d="m 49.321,374.394 0.553,-0.891 -1.064,-2.393 -2.216,-2.284 0.46,3.101 0.597,1.28 0.833,1.264 z"
   id="polygon6" /><path
   inkscape:connector-curvature="0"
   style="fill:#262626;fill-rule:nonzero"
   d="m 53.048,374.401 -0.553,-0.89 1.064,-2.393 2.216,-2.285 -0.46,3.101 -0.597,1.281 -0.833,1.263 z"
   id="polygon8" /><path
   inkscape:connector-curvature="0"
   style="fill:#424242;fill-rule:nonzero"
   d="m 48.636,363.359 2.584,-0.66 v 13.447 l -1.349,-2.651 -1.061,-2.385 -1.022,-0.581 -2.052,-2.92 -0.057,-0.776 1.148,-2.067 z"
   id="polygon12" /><path
   inkscape:connector-curvature="0"
   style="fill:#333333;fill-rule:nonzero"
   d="m 53.801,363.364 -2.584,-0.661 v 13.448 l 1.35,-2.651 1.06,-2.385 1.023,-0.581 2.051,-2.921 0.058,-0.775 -1.149,-2.067 z"
   id="polygon14" /><path
   inkscape:connector-curvature="0"
   style="fill:#4c4c4c;fill-rule:nonzero"
   d="m 49.496,369.237 1.723,-1.684 v 1.229 l -1.723,1.718 v -1.263"
   id="polyline16" /><path
   inkscape:connector-curvature="0"
   style="fill:#5b5b5b;fill-rule:nonzero"
   d="m 51.22,368.781 -1.723,1.718 0.377,3.004 1.346,2.643 z"
   id="polygon18" /><path
   inkscape:connector-curvature="0"
   style="fill:#333333;fill-rule:nonzero"
   d="m 51.22,376.146 -1.346,-2.643 1.346,-0.635 z"
   id="polygon20" /><path
   inkscape:connector-curvature="0"
   style="fill:#ffffff;fill-rule:nonzero"
   d="m 49.497,370.499 v -1.263 l -1.249,-1.58 -1.477,-1.19 -10e-4,0.932 0.775,1.823 z"
   id="polygon22" /><path
   inkscape:connector-curvature="0"
   style="fill:#2d2d2d;fill-rule:nonzero"
   d="m 52.942,369.238 -1.722,-1.685 v 1.23 l 1.722,1.718 v -1.263"
   id="polyline24" /><path
   inkscape:connector-curvature="0"
   style="fill:#353535;fill-rule:nonzero"
   d="m 51.218,368.781 1.722,1.718 -0.376,3.004 -1.347,2.643 z"
   id="polygon26" /><path
   inkscape:connector-curvature="0"
   style="fill:#191919;fill-rule:nonzero"
   d="m 51.217,376.146 1.347,-2.643 -1.346,-0.635 z"
   id="polygon28" /><path
   inkscape:connector-curvature="0"
   style="fill:#ffffff;fill-rule:nonzero"
   d="m 52.94,370.499 v -1.263 l 1.249,-1.58 1.478,-1.19 10e-4,0.932 -0.775,1.823 z"
   id="polygon30" /><path
   inkscape:connector-curvature="0"
   style="fill:#383838;fill-rule:nonzero"
   d="m 48.652,363.338 2.566,4.215 -0.005,-4.87"
   id="polyline32" /><path
   inkscape:connector-curvature="0"
   style="fill:#2d2d2d;fill-rule:nonzero"
   d="m 53.785,363.338 -2.566,4.215 0.006,-4.869"
   id="polyline34" /><path
   inkscape:connector-curvature="0"
   style="fill:#333333;fill-rule:nonzero"
   d="m 48.811,371.111 0.688,-0.611 0.375,3.006 z"
   id="polygon36" /><path
   inkscape:connector-curvature="0"
   style="fill:#1c1c1c;fill-rule:nonzero"
   d="m 53.631,371.125 -0.688,-0.61 -0.375,3.006 z"
   id="polygon38" /><path
   inkscape:connector-curvature="0"
   style="fill:#ffffff;fill-rule:nonzero"
   d="m 32.822,280.355 c -0.172,-0.14 -0.34,-0.24 -0.512,-0.308 -0.172,-0.068 -0.336,-0.1 -0.496,-0.1 -0.204,0 -0.368,0.048 -0.496,0.144 -0.129,0.096 -0.193,0.22 -0.193,0.376 0,0.108 0.032,0.196 0.096,0.264 0.064,0.068 0.149,0.128 0.253,0.18 0.104,0.052 0.22,0.096 0.352,0.132 0.132,0.036 0.26,0.076 0.388,0.12 0.512,0.172 0.888,0.4 1.124,0.685 0.236,0.284 0.356,0.656 0.356,1.116 0,0.308 -0.052,0.588 -0.156,0.84 -0.104,0.252 -0.256,0.465 -0.456,0.645 -0.2,0.18 -0.444,0.316 -0.736,0.416 -0.292,0.1 -0.62,0.148 -0.988,0.148 -0.765,0 -1.469,-0.228 -2.121,-0.68 l 0.672,-1.265 c 0.236,0.208 0.468,0.364 0.696,0.464 0.228,0.1 0.456,0.152 0.68,0.152 0.257,0 0.449,-0.06 0.573,-0.176 0.124,-0.116 0.188,-0.252 0.188,-0.4 0,-0.092 -0.016,-0.168 -0.048,-0.236 -0.032,-0.068 -0.084,-0.128 -0.16,-0.184 -0.076,-0.056 -0.172,-0.108 -0.292,-0.156 -0.12,-0.048 -0.265,-0.1 -0.437,-0.16 -0.204,-0.064 -0.4,-0.136 -0.596,-0.212 -0.196,-0.076 -0.368,-0.18 -0.52,-0.308 -0.152,-0.128 -0.276,-0.289 -0.368,-0.485 -0.092,-0.196 -0.14,-0.44 -0.14,-0.74 0,-0.3 0.048,-0.568 0.148,-0.812 0.1,-0.244 0.236,-0.452 0.416,-0.625 0.18,-0.172 0.396,-0.308 0.656,-0.404 0.26,-0.096 0.548,-0.144 0.869,-0.144 0.3,0 0.612,0.04 0.936,0.124 0.324,0.084 0.636,0.204 0.936,0.364 z"
   id="path9236" /><path
   inkscape:connector-curvature="0"
   style="fill:#ffffff;fill-rule:nonzero"
   d="m 36.248,281.139 h 2.264 v -2.329 h 1.569 v 6.035 h -1.569 v -2.489 h -2.264 v 2.489 h -1.569 v -6.035 h 1.569 z"
   id="path9238" /><path
   inkscape:connector-curvature="0"
   style="fill:#ffffff;fill-rule:nonzero"
   d="m 44.627,282.604 -0.704,-2.009 -0.705,2.009 z m 0.416,1.192 h -2.241 l -0.36,1.049 h -1.673 l 2.297,-6.035 h 1.713 l 2.297,6.035 h -1.673 z"
   id="path9240" /><path
   inkscape:connector-curvature="0"
   style="fill:#ffffff;fill-rule:nonzero"
   d="m 49.333,281.507 h 0.296 c 0.308,0 0.548,-0.064 0.712,-0.192 0.164,-0.128 0.249,-0.312 0.249,-0.552 0,-0.24 -0.085,-0.424 -0.249,-0.552 -0.164,-0.128 -0.404,-0.192 -0.712,-0.192 h -0.296 z m 3.449,3.338 H 50.83 l -1.497,-2.321 v 2.321 h -1.569 v -6.035 h 2.441 c 0.336,0 0.629,0.048 0.881,0.148 0.252,0.1 0.456,0.232 0.62,0.405 0.164,0.172 0.284,0.368 0.368,0.592 0.084,0.224 0.124,0.464 0.124,0.72 0,0.46 -0.112,0.832 -0.332,1.117 -0.22,0.284 -0.548,0.48 -0.98,0.58 z"
   id="path9242" /><path
   inkscape:connector-curvature="0"
   style="fill:#ffffff;fill-rule:nonzero"
   d="m 55.007,281.579 h 0.521 c 0.576,0 0.864,-0.252 0.864,-0.752 0,-0.5 -0.288,-0.752 -0.864,-0.752 h -0.521 z m 0,3.266 h -1.568 v -6.035 h 2.497 c 0.676,0 1.196,0.176 1.556,0.529 0.361,0.352 0.541,0.848 0.541,1.488 0,0.64 -0.18,1.137 -0.541,1.489 -0.36,0.352 -0.88,0.528 -1.556,0.528 h -0.929 z"
   id="path9244" /><path
   inkscape:connector-curvature="0"
   style="fill:#ffffff;fill-rule:nonzero"
   d="m 58.865,284.845 v -6.035 h 1.569 l 2.897,3.69 v -3.69 h 1.56 v 6.035 h -1.56 l -2.897,-3.69 v 3.69 z"
   id="path9246" /><path
   inkscape:connector-curvature="0"
   style="fill:#ffffff;fill-rule:nonzero"
   d="m 69.589,280.139 h -1.864 v 1.008 h 1.76 v 1.329 h -1.76 v 1.04 h 1.864 v 1.329 h -3.433 v -6.035 h 3.433 z"
   id="path9248" /><path
   inkscape:connector-curvature="0"
   style="fill:#ffffff;fill-rule:nonzero"
   d="m 74.031,280.355 c -0.172,-0.14 -0.34,-0.24 -0.512,-0.308 -0.172,-0.068 -0.336,-0.1 -0.496,-0.1 -0.204,0 -0.368,0.048 -0.496,0.144 -0.128,0.096 -0.192,0.22 -0.192,0.376 0,0.108 0.032,0.196 0.096,0.264 0.064,0.068 0.148,0.128 0.252,0.18 0.104,0.052 0.22,0.096 0.352,0.132 0.132,0.036 0.26,0.076 0.388,0.12 0.512,0.172 0.888,0.4 1.124,0.685 0.237,0.284 0.357,0.656 0.357,1.116 0,0.308 -0.052,0.588 -0.156,0.84 -0.105,0.252 -0.257,0.465 -0.457,0.645 -0.2,0.18 -0.444,0.316 -0.736,0.416 -0.292,0.1 -0.62,0.148 -0.988,0.148 -0.765,0 -1.469,-0.228 -2.121,-0.68 l 0.672,-1.265 c 0.236,0.208 0.468,0.364 0.696,0.464 0.228,0.1 0.457,0.152 0.681,0.152 0.256,0 0.448,-0.06 0.572,-0.176 0.124,-0.116 0.188,-0.252 0.188,-0.4 0,-0.092 -0.016,-0.168 -0.048,-0.236 -0.032,-0.068 -0.084,-0.128 -0.16,-0.184 -0.076,-0.056 -0.172,-0.108 -0.292,-0.156 -0.12,-0.048 -0.264,-0.1 -0.436,-0.16 -0.205,-0.064 -0.401,-0.136 -0.597,-0.212 -0.196,-0.076 -0.368,-0.18 -0.52,-0.308 -0.152,-0.128 -0.276,-0.289 -0.368,-0.485 -0.092,-0.196 -0.14,-0.44 -0.14,-0.74 0,-0.3 0.048,-0.568 0.148,-0.812 0.1,-0.244 0.236,-0.452 0.416,-0.625 0.18,-0.172 0.396,-0.308 0.656,-0.404 0.26,-0.096 0.549,-0.144 0.869,-0.144 0.3,0 0.612,0.04 0.936,0.124 0.324,0.084 0.636,0.204 0.936,0.364 z"
   id="path9250" /><path
   inkscape:connector-curvature="0"
   style="fill:#ffffff;fill-rule:nonzero"
   d="m 79.201,280.355 c -0.172,-0.14 -0.34,-0.24 -0.512,-0.308 -0.172,-0.068 -0.336,-0.1 -0.496,-0.1 -0.204,0 -0.368,0.048 -0.496,0.144 -0.128,0.096 -0.192,0.22 -0.192,0.376 0,0.108 0.032,0.196 0.096,0.264 0.064,0.068 0.148,0.128 0.252,0.18 0.104,0.052 0.22,0.096 0.352,0.132 0.132,0.036 0.26,0.076 0.388,0.12 0.512,0.172 0.888,0.4 1.125,0.685 0.236,0.284 0.356,0.656 0.356,1.116 0,0.308 -0.052,0.588 -0.156,0.84 -0.104,0.252 -0.256,0.465 -0.457,0.645 -0.2,0.18 -0.444,0.316 -0.736,0.416 -0.292,0.1 -0.62,0.148 -0.988,0.148 -0.765,0 -1.469,-0.228 -2.121,-0.68 l 0.672,-1.265 c 0.236,0.208 0.468,0.364 0.696,0.464 0.229,0.1 0.457,0.152 0.681,0.152 0.256,0 0.448,-0.06 0.572,-0.176 0.124,-0.116 0.188,-0.252 0.188,-0.4 0,-0.092 -0.016,-0.168 -0.048,-0.236 -0.032,-0.068 -0.084,-0.128 -0.16,-0.184 -0.076,-0.056 -0.172,-0.108 -0.292,-0.156 -0.12,-0.048 -0.264,-0.1 -0.436,-0.16 -0.204,-0.064 -0.401,-0.136 -0.597,-0.212 -0.196,-0.076 -0.368,-0.18 -0.52,-0.308 -0.152,-0.128 -0.276,-0.289 -0.368,-0.485 -0.092,-0.196 -0.14,-0.44 -0.14,-0.74 0,-0.3 0.048,-0.568 0.148,-0.812 0.1,-0.244 0.236,-0.452 0.416,-0.625 0.18,-0.172 0.396,-0.308 0.656,-0.404 0.261,-0.096 0.549,-0.144 0.869,-0.144 0.3,0 0.612,0.04 0.936,0.124 0.324,0.084 0.637,0.204 0.937,0.364 z"
   id="path9252" /><path
   inkscape:connector-curvature="0"
   style="fill:none;stroke:#cccccc;stroke-width:1px;stroke-linecap:round"
   d="m 126.904,247.662 c 2.737,-4.742 1.664,-10.824 -2.534,-14.346 -4.193,-3.521 -10.372,-3.521 -14.566,0 -4.197,3.522 -5.27,9.604 -2.533,14.346 l 9.816,-5.666 z"
   id="path9257" /><path
   inkscape:connector-curvature="0"
   style="fill:#cccccc;fill-rule:nonzero;stroke:#cccccc;stroke-width:1px;stroke-linecap:round"
   d="m 126.531,248.859 0.024,4.409"
   id="path9260" /><path
   inkscape:connector-curvature="0"
   style="fill:#cccccc;fill-rule:nonzero;stroke:#cccccc;stroke-width:1px;stroke-linecap:round"
   d="m 128.748,251.032 -4.41,0.02"
   id="path9263" /><path
   inkscape:connector-curvature="0"
   style="fill:#cccccc;fill-rule:nonzero;stroke:#cccccc;stroke-width:1px;stroke-linecap:round"
   d="m 126.531,248.859 0.024,4.409"
   id="path9266" /><path
   inkscape:connector-curvature="0"
   style="fill:#cccccc;fill-rule:nonzero;stroke:#cccccc;stroke-width:1px;stroke-linecap:round"
   d="m 128.748,251.032 -4.41,0.02"
   id="path9269" /><path
   inkscape:connector-curvature="0"
   style="fill:#cccccc;fill-rule:nonzero;stroke:#cccccc;stroke-width:1px;stroke-linecap:round"
   d="m 110.429,250.908 -4.414,0.02"
   id="path9272" /><path
   inkscape:connector-curvature="0"
   style="fill:none;stroke:#cccccc;stroke-width:1px;stroke-linecap:round"
   d="m 117.087,242 -0.024,-13.31"
   id="path9275" /><path
   inkscape:connector-curvature="0"
   style="fill:#ffffff;fill-rule:nonzero"
   d="m 63.926,297.886 1.093,2.757 1.1,-2.757 h 1.277 l -1.909,4.526 h -0.936 l -1.901,-4.526 z"
   id="path9278" /><path
   inkscape:connector-curvature="0"
   style="fill:#ffffff;fill-rule:nonzero"
   d="m 70.913,299.399 c -0.272,-0.333 -0.608,-0.497 -1.008,-0.497 -0.176,0 -0.34,0.032 -0.488,0.096 -0.152,0.064 -0.28,0.152 -0.389,0.26 -0.108,0.113 -0.192,0.241 -0.256,0.393 -0.06,0.152 -0.092,0.316 -0.092,0.492 0,0.18 0.032,0.348 0.092,0.5 0.064,0.152 0.148,0.284 0.26,0.396 0.109,0.112 0.237,0.2 0.385,0.264 0.148,0.064 0.308,0.096 0.48,0.096 0.376,0 0.716,-0.16 1.016,-0.48 v 1.393 l -0.12,0.04 c -0.18,0.064 -0.348,0.112 -0.504,0.14 -0.156,0.032 -0.312,0.044 -0.464,0.044 -0.312,0 -0.608,-0.056 -0.897,-0.176 -0.284,-0.116 -0.536,-0.284 -0.756,-0.497 -0.216,-0.216 -0.392,-0.468 -0.524,-0.764 -0.132,-0.292 -0.196,-0.612 -0.196,-0.96 0,-0.348 0.064,-0.669 0.192,-0.957 0.132,-0.292 0.304,-0.54 0.524,-0.752 0.216,-0.208 0.468,-0.372 0.756,-0.492 0.289,-0.116 0.593,-0.176 0.909,-0.176 0.18,0 0.356,0.02 0.528,0.056 0.176,0.04 0.36,0.096 0.552,0.176 z"
   id="path9280" /><path
   inkscape:connector-curvature="0"
   style="fill:#ffffff;fill-rule:nonzero"
   d="m 74.223,300.731 -0.529,-1.505 -0.528,1.505 z m 0.312,0.896 h -1.681 l -0.268,0.785 h -1.253 l 1.721,-4.526 h 1.285 l 1.72,4.526 h -1.252 z"
   id="path9282" /><path
   inkscape:connector-curvature="0"
   style="fill:#ffffff;fill-rule:nonzero"
   d="m 64.299,308.886 v 3.529 h 1.412 v 0.997 h -2.589 v -4.526 z"
   id="path9286" /><path
   inkscape:connector-curvature="0"
   style="fill:#ffffff;fill-rule:nonzero"
   d="m 67.252,311.151 c 0,0.18 0.036,0.344 0.104,0.496 0.068,0.152 0.156,0.284 0.272,0.396 0.116,0.112 0.252,0.2 0.408,0.26 0.152,0.064 0.316,0.096 0.488,0.096 0.172,0 0.336,-0.032 0.488,-0.096 0.157,-0.06 0.293,-0.148 0.409,-0.26 0.12,-0.112 0.212,-0.244 0.28,-0.396 0.068,-0.152 0.1,-0.316 0.1,-0.496 0,-0.18 -0.032,-0.348 -0.1,-0.5 -0.068,-0.152 -0.16,-0.284 -0.28,-0.397 -0.116,-0.112 -0.252,-0.196 -0.409,-0.26 -0.152,-0.06 -0.316,-0.092 -0.488,-0.092 -0.172,0 -0.336,0.032 -0.488,0.092 -0.156,0.064 -0.292,0.148 -0.408,0.26 -0.116,0.113 -0.204,0.245 -0.272,0.397 -0.068,0.152 -0.104,0.32 -0.104,0.5 z m -1.229,0 c 0,-0.336 0.06,-0.648 0.184,-0.941 0.124,-0.288 0.296,-0.544 0.517,-0.76 0.22,-0.216 0.484,-0.384 0.788,-0.504 0.308,-0.124 0.644,-0.184 1.012,-0.184 0.364,0 0.701,0.06 1.009,0.184 0.308,0.12 0.572,0.288 0.792,0.504 0.224,0.216 0.396,0.472 0.52,0.76 0.124,0.293 0.188,0.605 0.188,0.941 0,0.336 -0.064,0.648 -0.188,0.936 -0.124,0.292 -0.296,0.544 -0.52,0.761 -0.22,0.216 -0.484,0.384 -0.792,0.508 -0.308,0.12 -0.645,0.18 -1.009,0.18 -0.368,0 -0.704,-0.06 -1.012,-0.18 -0.304,-0.124 -0.568,-0.292 -0.788,-0.508 -0.221,-0.217 -0.393,-0.469 -0.517,-0.761 -0.124,-0.288 -0.184,-0.6 -0.184,-0.936 z"
   id="path9288" /><path
   inkscape:connector-curvature="0"
   style="fill:#ffffff;fill-rule:nonzero"
   d="m 72.458,308.886 0.78,2.925 0.961,-2.925 h 0.936 l 0.96,2.925 0.781,-2.925 h 1.228 l -1.348,4.526 h -1.201 l -0.888,-2.621 -0.889,2.621 h -1.2 l -1.349,-4.526 z"
   id="path9290" /><path
   inkscape:connector-curvature="0"
   style="fill:#ffffff;fill-rule:nonzero"
   d="m 79.757,310.963 h 0.388 c 0.432,0 0.648,-0.188 0.648,-0.564 0,-0.377 -0.216,-0.565 -0.648,-0.565 h -0.388 z m 0,2.449 H 78.58 v -4.526 h 1.873 c 0.508,0 0.897,0.132 1.165,0.396 0.272,0.264 0.404,0.636 0.404,1.117 0,0.48 -0.132,0.852 -0.404,1.116 -0.268,0.264 -0.657,0.396 -1.165,0.396 h -0.696 z"
   id="path9292" /><path
   inkscape:connector-curvature="0"
   style="fill:#ffffff;fill-rule:nonzero"
   d="m 84.855,311.731 -0.528,-1.505 -0.528,1.505 z m 0.312,0.896 h -1.681 l -0.268,0.785 h -1.256 l 1.725,-4.526 h 1.284 l 1.721,4.526 h -1.253 z"
   id="path9294" /><path
   inkscape:connector-curvature="0"
   style="fill:#ffffff;fill-rule:nonzero"
   d="m 89.693,310.046 c -0.128,-0.104 -0.256,-0.18 -0.384,-0.232 -0.128,-0.048 -0.252,-0.076 -0.372,-0.076 -0.152,0 -0.276,0.036 -0.372,0.108 -0.096,0.072 -0.144,0.168 -0.144,0.284 0,0.08 0.024,0.145 0.072,0.197 0.048,0.052 0.112,0.1 0.188,0.136 0.08,0.04 0.168,0.072 0.264,0.1 0.1,0.028 0.196,0.056 0.292,0.088 0.384,0.128 0.664,0.3 0.84,0.512 0.18,0.216 0.268,0.496 0.268,0.84 0,0.232 -0.04,0.44 -0.116,0.628 -0.08,0.189 -0.192,0.349 -0.344,0.485 -0.148,0.132 -0.332,0.236 -0.552,0.312 -0.216,0.072 -0.464,0.108 -0.74,0.108 -0.573,0 -1.101,-0.168 -1.589,-0.508 l 0.504,-0.949 c 0.176,0.156 0.348,0.272 0.52,0.348 0.172,0.076 0.345,0.116 0.513,0.116 0.192,0 0.336,-0.044 0.428,-0.132 0.096,-0.088 0.14,-0.188 0.14,-0.3 0,-0.068 -0.012,-0.128 -0.036,-0.18 -0.024,-0.048 -0.064,-0.096 -0.12,-0.136 -0.056,-0.044 -0.128,-0.08 -0.216,-0.116 -0.092,-0.036 -0.2,-0.076 -0.328,-0.12 -0.153,-0.048 -0.301,-0.104 -0.449,-0.16 -0.144,-0.06 -0.276,-0.136 -0.388,-0.232 -0.116,-0.096 -0.208,-0.216 -0.276,-0.36 -0.072,-0.148 -0.108,-0.332 -0.108,-0.557 0,-0.224 0.04,-0.428 0.112,-0.608 0.076,-0.184 0.18,-0.34 0.312,-0.468 0.136,-0.132 0.3,-0.232 0.492,-0.304 0.196,-0.072 0.413,-0.108 0.653,-0.108 0.224,0 0.456,0.032 0.7,0.092 0.244,0.064 0.48,0.152 0.704,0.272 z"
   id="path9296" /><path
   inkscape:connector-curvature="0"
   style="fill:#ffffff;fill-rule:nonzero"
   d="m 93.567,310.046 c -0.128,-0.104 -0.256,-0.18 -0.385,-0.232 -0.128,-0.048 -0.252,-0.076 -0.372,-0.076 -0.152,0 -0.276,0.036 -0.372,0.108 -0.096,0.072 -0.144,0.168 -0.144,0.284 0,0.08 0.024,0.145 0.072,0.197 0.048,0.052 0.112,0.1 0.192,0.136 0.076,0.04 0.164,0.072 0.264,0.1 0.096,0.028 0.192,0.056 0.288,0.088 0.385,0.128 0.669,0.3 0.845,0.512 0.176,0.216 0.268,0.496 0.268,0.84 0,0.232 -0.04,0.44 -0.12,0.628 -0.076,0.189 -0.188,0.349 -0.34,0.485 -0.148,0.132 -0.332,0.236 -0.552,0.312 -0.217,0.072 -0.465,0.108 -0.741,0.108 -0.572,0 -1.1,-0.168 -1.588,-0.508 l 0.504,-0.949 c 0.176,0.156 0.348,0.272 0.52,0.348 0.172,0.076 0.34,0.116 0.508,0.116 0.192,0 0.336,-0.044 0.432,-0.132 0.092,-0.088 0.14,-0.188 0.14,-0.3 0,-0.068 -0.012,-0.128 -0.036,-0.18 -0.024,-0.048 -0.064,-0.096 -0.12,-0.136 -0.056,-0.044 -0.128,-0.08 -0.22,-0.116 -0.088,-0.036 -0.2,-0.076 -0.328,-0.12 -0.152,-0.048 -0.3,-0.104 -0.444,-0.16 -0.148,-0.06 -0.276,-0.136 -0.392,-0.232 -0.112,-0.096 -0.204,-0.216 -0.276,-0.36 -0.068,-0.148 -0.104,-0.332 -0.104,-0.557 0,-0.224 0.036,-0.428 0.112,-0.608 0.072,-0.184 0.176,-0.34 0.312,-0.468 0.132,-0.132 0.296,-0.232 0.492,-0.304 0.192,-0.072 0.408,-0.108 0.648,-0.108 0.224,0 0.46,0.032 0.705,0.092 0.244,0.064 0.476,0.152 0.7,0.272 z"
   id="path9298" /><path
   inkscape:connector-curvature="0"
   style="fill:none;stroke:#cccccc;stroke-width:1.5px;stroke-linecap:round"
   d="m 74.643,80.169 c 5.718,-9.906 3.48,-22.611 -5.286,-29.963 -8.761,-7.353 -21.66,-7.353 -30.422,0 -8.762,7.352 -11.004,20.057 -5.282,29.963"
   id="path9302" /><path
   inkscape:connector-curvature="0"
   style="fill:#cccccc;fill-rule:nonzero;stroke:#cccccc;stroke-width:1.5px;stroke-linecap:round"
   d="m 73.869,82.66 0.05,9.217"
   id="path9630" /><path
   inkscape:connector-curvature="0"
   style="fill:#cccccc;fill-rule:nonzero;stroke:#cccccc;stroke-width:1.5px;stroke-linecap:round"
   d="m 78.5,87.202 -9.213,0.043"
   id="path9630-1" /><path
   inkscape:connector-curvature="0"
   style="fill:#cccccc;fill-rule:nonzero;stroke:#cccccc;stroke-width:1.5px;stroke-linecap:round"
   d="m 40.239,86.941 -9.213,0.043"
   id="path9630-1-6" /><path
   inkscape:connector-curvature="0"
   style="fill:none;stroke:#cccccc;stroke-width:1.5px;stroke-linecap:round"
   d="M 54.146,68.34 54.099,41.993"
   id="path9948" /><path
   inkscape:connector-curvature="0"
   style="fill:#ffffff;fill-rule:nonzero"
   d="m 40.706,159.164 c 0,0.24 0.044,0.46 0.136,0.664 0.092,0.204 0.212,0.38 0.368,0.528 0.156,0.148 0.336,0.264 0.54,0.348 0.204,0.084 0.424,0.124 0.652,0.124 0.228,0 0.449,-0.04 0.653,-0.124 0.204,-0.084 0.388,-0.2 0.544,-0.348 0.156,-0.148 0.28,-0.324 0.372,-0.528 0.092,-0.204 0.136,-0.424 0.136,-0.664 0,-0.241 -0.044,-0.461 -0.136,-0.665 -0.092,-0.204 -0.216,-0.38 -0.372,-0.528 -0.156,-0.148 -0.34,-0.264 -0.544,-0.348 -0.204,-0.084 -0.425,-0.124 -0.653,-0.124 -0.228,0 -0.448,0.04 -0.652,0.124 -0.204,0.084 -0.384,0.2 -0.54,0.348 -0.156,0.148 -0.276,0.324 -0.368,0.528 -0.092,0.204 -0.136,0.424 -0.136,0.665 z m -1.641,0 c 0,-0.449 0.084,-0.865 0.248,-1.253 0.164,-0.388 0.396,-0.724 0.688,-1.012 0.292,-0.289 0.645,-0.513 1.053,-0.677 0.408,-0.164 0.856,-0.244 1.348,-0.244 0.485,0 0.933,0.08 1.345,0.244 0.412,0.164 0.764,0.388 1.06,0.677 0.296,0.288 0.529,0.624 0.693,1.012 0.164,0.388 0.248,0.804 0.248,1.253 0,0.448 -0.084,0.864 -0.248,1.252 -0.164,0.388 -0.397,0.724 -0.693,1.012 -0.296,0.289 -0.648,0.513 -1.06,0.677 -0.412,0.164 -0.86,0.244 -1.345,0.244 -0.492,0 -0.94,-0.08 -1.348,-0.244 -0.408,-0.164 -0.761,-0.388 -1.053,-0.677 -0.292,-0.288 -0.524,-0.624 -0.688,-1.012 -0.164,-0.388 -0.248,-0.804 -0.248,-1.252 z"
   id="path9311" /><path
   inkscape:connector-curvature="0"
   style="fill:#ffffff;fill-rule:nonzero"
   d="m 50.198,157.475 h -1.889 v 1.008 h 1.72 v 1.329 h -1.72 v 2.369 H 46.74 v -6.035 h 3.458 z"
   id="path9313" /><path
   inkscape:connector-curvature="0"
   style="fill:#ffffff;fill-rule:nonzero"
   d="m 54.591,157.475 h -1.888 v 1.008 h 1.72 v 1.329 h -1.72 v 2.369 h -1.569 v -6.035 h 3.457 z"
   id="path9315" /><path
   inkscape:connector-curvature="0"
   style="fill:#ffffff;fill-rule:nonzero"
   d="m 58.841,157.691 c -0.172,-0.14 -0.34,-0.24 -0.512,-0.308 -0.172,-0.068 -0.336,-0.1 -0.496,-0.1 -0.204,0 -0.368,0.048 -0.496,0.144 -0.129,0.096 -0.193,0.22 -0.193,0.376 0,0.108 0.032,0.196 0.096,0.264 0.065,0.068 0.149,0.128 0.253,0.18 0.104,0.052 0.22,0.096 0.352,0.132 0.132,0.036 0.26,0.076 0.388,0.12 0.512,0.172 0.888,0.4 1.124,0.685 0.236,0.284 0.357,0.656 0.357,1.116 0,0.308 -0.053,0.588 -0.157,0.84 -0.104,0.252 -0.256,0.465 -0.456,0.645 -0.2,0.18 -0.444,0.316 -0.736,0.416 -0.292,0.1 -0.62,0.148 -0.988,0.148 -0.765,0 -1.469,-0.228 -2.121,-0.68 l 0.672,-1.265 c 0.236,0.208 0.468,0.364 0.696,0.464 0.228,0.1 0.456,0.152 0.681,0.152 0.256,0 0.448,-0.06 0.572,-0.176 0.124,-0.116 0.188,-0.252 0.188,-0.4 0,-0.092 -0.016,-0.168 -0.048,-0.236 -0.032,-0.068 -0.084,-0.128 -0.16,-0.184 -0.076,-0.056 -0.172,-0.108 -0.292,-0.156 -0.12,-0.048 -0.264,-0.1 -0.437,-0.16 -0.204,-0.064 -0.4,-0.136 -0.596,-0.212 -0.196,-0.076 -0.368,-0.18 -0.52,-0.308 -0.152,-0.128 -0.276,-0.289 -0.368,-0.485 -0.092,-0.196 -0.14,-0.44 -0.14,-0.74 0,-0.3 0.048,-0.568 0.148,-0.812 0.1,-0.244 0.236,-0.452 0.416,-0.625 0.18,-0.172 0.396,-0.308 0.656,-0.404 0.26,-0.096 0.549,-0.144 0.869,-0.144 0.3,0 0.612,0.04 0.936,0.124 0.324,0.084 0.636,0.204 0.936,0.364 z"
   id="path9317" /><path
   inkscape:connector-curvature="0"
   style="fill:#ffffff;fill-rule:nonzero"
   d="m 64.131,157.475 h -1.864 v 1.008 h 1.76 v 1.329 h -1.76 v 1.04 h 1.864 v 1.329 h -3.433 v -6.035 h 3.433 z"
   id="path9319" /><path
   inkscape:connector-curvature="0"
   style="fill:#ffffff;fill-rule:nonzero"
   d="m 67.549,157.475 v 4.706 H 65.98 v -4.706 h -1.288 v -1.329 h 4.145 v 1.329 z"
   id="path9321" /><path
   inkscape:connector-curvature="0"
   style="fill:none;stroke:#cccccc;stroke-width:1px;stroke-linecap:round"
   d="m 126.904,124.593 c 2.737,-4.742 1.664,-10.824 -2.534,-14.346 -4.193,-3.521 -10.372,-3.521 -14.566,0 -4.197,3.522 -5.27,9.604 -2.533,14.346 l 9.816,-5.666 z"
   id="path9326" /><path
   inkscape:connector-curvature="0"
   style="fill:#cccccc;fill-rule:nonzero;stroke:#cccccc;stroke-width:1px;stroke-linecap:round"
   d="m 126.531,125.79 0.024,4.409"
   id="path9329" /><path
   inkscape:connector-curvature="0"
   style="fill:#cccccc;fill-rule:nonzero;stroke:#cccccc;stroke-width:1px;stroke-linecap:round"
   d="m 128.748,127.963 -4.41,0.02"
   id="path9332" /><path
   inkscape:connector-curvature="0"
   style="fill:#cccccc;fill-rule:nonzero;stroke:#cccccc;stroke-width:1px;stroke-linecap:round"
   d="m 110.429,127.839 -4.414,0.02"
   id="path9335" /><path
   inkscape:connector-curvature="0"
   style="fill:none;stroke:#cccccc;stroke-width:1px;stroke-linecap:round"
   d="m 117.087,118.931 -0.024,-13.31"
   id="path9338" /><path
   inkscape:connector-curvature="0"
   style="fill:none;stroke:#cccccc;stroke-width:1.5px;stroke-linecap:round"
   d="m 74.643,142.169 c 5.718,-9.906 3.48,-22.611 -5.286,-29.963 -8.761,-7.353 -21.66,-7.353 -30.422,0 -8.762,7.352 -11.004,20.057 -5.282,29.963"
   id="path9341" /><path
   inkscape:connector-curvature="0"
   style="fill:#cccccc;fill-rule:nonzero;stroke:#cccccc;stroke-width:2.05999994px"
   d="m 73.869,144.66 0.05,9.217"
   serif:id="path9630"
   id="path96301" /><path
   inkscape:connector-curvature="0"
   style="fill:#cccccc;fill-rule:nonzero;stroke:#cccccc;stroke-width:1.5px;stroke-linecap:round"
   d="m 78.5,149.202 -9.213,0.043"
   serif:id="path9630-1"
   id="path9630-11" /><path
   inkscape:connector-curvature="0"
   style="fill:#cccccc;fill-rule:nonzero;stroke:#cccccc;stroke-width:1.5px;stroke-linecap:round"
   d="m 40.239,148.941 -9.213,0.043"
   serif:id="path9630-1-6"
   id="path9630-1-61" /><path
   inkscape:connector-curvature="0"
   style="fill:none;stroke:#cccccc;stroke-width:1.5px;stroke-linecap:round"
   d="M 54.146,130.34 54.099,103.993"
   serif:id="path9948"
   id="path99481" /><g
   id="text7967-9-5">
      <g
   id="g36428"
   transform="matrix(1.05877,0,0,1.05877,22.3716,37.7142)">
        <path
   inkscape:connector-curvature="0"
   id="path36394"
   style="fill:#ffffff;fill-rule:nonzero"
   d="m 0.686,-0.154 v -0.954 c 0.645,0.27 1.196,0.404 1.653,0.404 0.534,0 0.801,-0.181 0.801,-0.545 0,-0.234 -0.22,-0.439 -0.66,-0.615 L 2.04,-2.04 C 1.562,-2.234 1.221,-2.442 1.016,-2.665 0.811,-2.887 0.708,-3.163 0.708,-3.491 c 0,-0.458 0.174,-0.813 0.523,-1.067 0.349,-0.253 0.837,-0.38 1.464,-0.38 0.393,0 0.861,0.057 1.403,0.172 v 0.914 C 3.576,-4.034 3.144,-4.124 2.801,-4.124 c -0.539,0 -0.809,0.167 -0.809,0.501 0,0.22 0.199,0.406 0.598,0.558 l 0.378,0.145 c 0.566,0.214 0.959,0.431 1.181,0.651 0.221,0.22 0.332,0.503 0.332,0.849 0,0.454 -0.189,0.823 -0.565,1.106 C 3.539,-0.032 3.049,0.11 2.445,0.11 1.864,0.11 1.278,0.022 0.686,-0.154 Z" />
        <path
   inkscape:connector-curvature="0"
   id="path36396"
   style="fill:#ffffff;fill-rule:nonzero"
   d="M 5.905,0 V -4.828 H 7.207 V 0 Z m 0,-5.641 v -1.087 h 1.302 v 1.087 z" />
        <path
   inkscape:connector-curvature="0"
   id="path36398"
   style="fill:#ffffff;fill-rule:nonzero"
   d="m 8.834,0 v -4.828 h 1.248 v 0.91 c 0.382,-0.68 0.924,-1.02 1.627,-1.02 0.364,0 0.663,0.089 0.897,0.268 0.235,0.179 0.379,0.43 0.431,0.752 0.452,-0.68 0.997,-1.02 1.636,-1.02 0.882,0 1.324,0.487 1.324,1.46 V 0 h -1.249 v -3.052 c 0,-0.571 -0.191,-0.857 -0.572,-0.857 -0.39,0 -0.769,0.281 -1.139,0.844 V 0 h -1.248 v -3.052 c 0,-0.574 -0.192,-0.861 -0.576,-0.861 -0.384,0 -0.761,0.282 -1.131,0.848 V 0 Z" />
        <path
   inkscape:connector-curvature="0"
   id="path36400"
   style="fill:#ffffff;fill-rule:nonzero"
   d="m 17.566,1.737 v -6.565 h 1.302 v 0.91 c 0.334,-0.68 0.86,-1.02 1.578,-1.02 0.581,0 1.037,0.213 1.37,0.638 0.333,0.425 0.499,1.01 0.499,1.754 0,0.809 -0.187,1.454 -0.563,1.935 -0.375,0.481 -0.878,0.721 -1.508,0.721 -0.507,0 -0.966,-0.199 -1.376,-0.598 v 2.225 z m 1.302,-2.999 c 0.316,0.352 0.654,0.528 1.011,0.528 0.32,0 0.575,-0.155 0.765,-0.464 0.191,-0.309 0.286,-0.722 0.286,-1.238 0,-0.988 -0.318,-1.482 -0.954,-1.482 -0.384,0 -0.753,0.248 -1.108,0.743 z" />
        <rect
   id="rect36402"
   style="fill:#ffffff;fill-rule:nonzero"
   height="6.9429998"
   width="1.302"
   y="-6.9429998"
   x="23.533001" />
        <path
   inkscape:connector-curvature="0"
   id="path36404"
   style="fill:#ffffff;fill-rule:nonzero"
   d="m 30.393,-0.163 c -0.619,0.182 -1.205,0.273 -1.759,0.273 -0.806,0 -1.442,-0.229 -1.909,-0.686 -0.466,-0.457 -0.699,-1.082 -0.699,-1.873 0,-0.748 0.214,-1.349 0.64,-1.805 0.427,-0.456 0.99,-0.684 1.691,-0.684 0.706,0 1.222,0.223 1.548,0.668 0.325,0.446 0.488,1.151 0.488,2.115 h -2.995 c 0.088,0.921 0.594,1.381 1.517,1.381 0.437,0 0.929,-0.101 1.478,-0.303 z m -3.012,-2.726 h 1.732 c 0,-0.824 -0.265,-1.235 -0.796,-1.235 -0.539,0 -0.851,0.411 -0.936,1.235 z" />
        <rect
   id="rect36406"
   style="fill:#ffffff;fill-rule:nonzero"
   height="6.9429998"
   width="1.302"
   y="-6.9429998"
   x="34.706001" />
        <path
   inkscape:connector-curvature="0"
   id="path36408"
   style="fill:#ffffff;fill-rule:nonzero"
   d="m 40.112,0.11 c -0.753,0 -1.352,-0.228 -1.796,-0.684 -0.444,-0.456 -0.666,-1.069 -0.666,-1.84 0,-0.78 0.223,-1.395 0.67,-1.847 0.447,-0.451 1.055,-0.677 1.823,-0.677 0.771,0 1.38,0.226 1.827,0.677 0.447,0.452 0.67,1.064 0.67,1.838 0,0.792 -0.224,1.412 -0.673,1.86 C 41.519,-0.114 40.9,0.11 40.112,0.11 Z m 0.022,-0.814 c 0.747,0 1.121,-0.573 1.121,-1.719 0,-0.525 -0.099,-0.939 -0.297,-1.244 -0.198,-0.305 -0.469,-0.457 -0.815,-0.457 -0.343,0 -0.614,0.152 -0.812,0.457 -0.197,0.305 -0.296,0.722 -0.296,1.253 0,0.525 0.098,0.941 0.294,1.249 0.197,0.308 0.465,0.461 0.805,0.461 z" />
        <path
   inkscape:connector-curvature="0"
   id="path36410"
   style="fill:#ffffff;fill-rule:nonzero"
   d="m 44.689,0 -1.341,-4.828 h 1.209 l 0.95,3.381 1.011,-3.381 h 1.126 l 0.91,3.399 1.025,-3.399 h 0.906 L 49.051,0 H 47.802 L 46.923,-3.311 45.938,0 Z" />
        <path
   inkscape:connector-curvature="0"
   id="path36412"
   style="fill:#ffffff;fill-rule:nonzero"
   d="m 54.844,1.737 v -6.565 h 1.302 v 0.91 c 0.334,-0.68 0.86,-1.02 1.578,-1.02 0.581,0 1.037,0.213 1.37,0.638 0.333,0.425 0.499,1.01 0.499,1.754 0,0.809 -0.188,1.454 -0.563,1.935 -0.375,0.481 -0.878,0.721 -1.508,0.721 -0.507,0 -0.966,-0.199 -1.376,-0.598 v 2.225 z m 1.302,-2.999 c 0.316,0.352 0.653,0.528 1.011,0.528 0.319,0 0.574,-0.155 0.765,-0.464 0.191,-0.309 0.286,-0.722 0.286,-1.238 0,-0.988 -0.318,-1.482 -0.954,-1.482 -0.384,0 -0.754,0.248 -1.108,0.743 z" />
        <path
   inkscape:connector-curvature="0"
   id="path36414"
   style="fill:#ffffff;fill-rule:nonzero"
   d="M 63.176,-0.519 C 62.743,-0.1 62.278,0.11 61.783,0.11 c -0.423,0 -0.765,-0.129 -1.029,-0.387 -0.264,-0.258 -0.396,-0.592 -0.396,-1.003 0,-0.533 0.213,-0.944 0.64,-1.233 0.426,-0.289 1.037,-0.433 1.831,-0.433 h 0.347 v -0.44 c 0,-0.501 -0.285,-0.752 -0.857,-0.752 -0.507,0 -1.02,0.144 -1.539,0.431 v -0.897 c 0.589,-0.223 1.173,-0.334 1.75,-0.334 1.264,0 1.895,0.503 1.895,1.508 v 2.137 c 0,0.378 0.122,0.567 0.365,0.567 0.044,0 0.101,-0.005 0.172,-0.017 l 0.03,0.73 c -0.275,0.082 -0.518,0.123 -0.729,0.123 -0.534,0 -0.877,-0.21 -1.029,-0.629 z m 0,-0.699 v -0.981 h -0.307 c -0.842,0 -1.262,0.264 -1.262,0.792 0,0.179 0.061,0.329 0.182,0.451 0.122,0.121 0.272,0.182 0.451,0.182 0.305,0 0.617,-0.148 0.936,-0.444 z" />
        <path
   inkscape:connector-curvature="0"
   id="path36416"
   style="fill:#ffffff;fill-rule:nonzero"
   d="m 65.977,-0.154 v -0.954 c 0.645,0.27 1.196,0.404 1.654,0.404 0.533,0 0.8,-0.181 0.8,-0.545 0,-0.234 -0.22,-0.439 -0.66,-0.615 L 67.332,-2.04 c -0.478,-0.194 -0.82,-0.402 -1.025,-0.625 -0.205,-0.222 -0.308,-0.498 -0.308,-0.826 0,-0.458 0.175,-0.813 0.524,-1.067 0.349,-0.253 0.837,-0.38 1.464,-0.38 0.393,0 0.86,0.057 1.403,0.172 v 0.914 c -0.522,-0.182 -0.955,-0.272 -1.298,-0.272 -0.539,0 -0.809,0.167 -0.809,0.501 0,0.22 0.2,0.406 0.598,0.558 l 0.379,0.145 c 0.565,0.214 0.959,0.431 1.18,0.651 0.221,0.22 0.332,0.503 0.332,0.849 0,0.454 -0.188,0.823 -0.565,1.106 -0.377,0.282 -0.867,0.424 -1.471,0.424 -0.58,0 -1.166,-0.088 -1.759,-0.264 z" />
        <path
   inkscape:connector-curvature="0"
   id="path36418"
   style="fill:#ffffff;fill-rule:nonzero"
   d="m 71.069,-0.154 v -0.954 c 0.645,0.27 1.196,0.404 1.654,0.404 0.533,0 0.8,-0.181 0.8,-0.545 0,-0.234 -0.22,-0.439 -0.66,-0.615 L 72.424,-2.04 c -0.478,-0.194 -0.82,-0.402 -1.025,-0.625 -0.205,-0.222 -0.308,-0.498 -0.308,-0.826 0,-0.458 0.175,-0.813 0.523,-1.067 0.349,-0.253 0.837,-0.38 1.465,-0.38 0.393,0 0.86,0.057 1.402,0.172 v 0.914 c -0.521,-0.182 -0.954,-0.272 -1.297,-0.272 -0.539,0 -0.809,0.167 -0.809,0.501 0,0.22 0.2,0.406 0.598,0.558 l 0.378,0.145 c 0.566,0.214 0.96,0.431 1.181,0.651 0.221,0.22 0.332,0.503 0.332,0.849 0,0.454 -0.188,0.823 -0.565,1.106 -0.377,0.282 -0.867,0.424 -1.471,0.424 -0.58,0 -1.167,-0.088 -1.759,-0.264 z" />
        <path
   inkscape:connector-curvature="0"
   id="path36420"
   style="fill:#ffffff;fill-rule:nonzero"
   d="m 79.292,1.499 0.105,-0.945 c 0.537,0.246 1.048,0.369 1.535,0.369 0.481,0 0.828,-0.102 1.042,-0.307 0.214,-0.206 0.321,-0.538 0.321,-0.999 V -1.042 C 81.978,-0.347 81.455,0 80.725,0 c -0.574,0 -1.03,-0.215 -1.367,-0.644 -0.337,-0.43 -0.506,-1.011 -0.506,-1.744 0,-0.771 0.189,-1.388 0.567,-1.853 0.378,-0.465 0.881,-0.697 1.508,-0.697 0.493,0 0.949,0.199 1.368,0.598 l 0.136,-0.488 h 1.17 v 3.685 c 0,0.736 -0.045,1.266 -0.134,1.592 -0.09,0.325 -0.263,0.602 -0.521,0.831 -0.434,0.375 -1.045,0.562 -1.834,0.562 -0.56,0 -1.167,-0.114 -1.82,-0.343 z m 3.003,-3.297 v -1.781 c -0.314,-0.355 -0.642,-0.532 -0.985,-0.532 -0.328,0 -0.589,0.149 -0.783,0.448 -0.193,0.299 -0.29,0.701 -0.29,1.205 0,0.944 0.304,1.416 0.91,1.416 0.42,0 0.802,-0.252 1.148,-0.756 z" />
        <path
   inkscape:connector-curvature="0"
   id="path36422"
   style="fill:#ffffff;fill-rule:nonzero"
   d="M 87.563,-0.519 C 87.129,-0.1 86.664,0.11 86.169,0.11 c -0.422,0 -0.765,-0.129 -1.029,-0.387 -0.264,-0.258 -0.396,-0.592 -0.396,-1.003 0,-0.533 0.213,-0.944 0.64,-1.233 0.426,-0.289 1.037,-0.433 1.831,-0.433 h 0.348 v -0.44 c 0,-0.501 -0.286,-0.752 -0.858,-0.752 -0.507,0 -1.02,0.144 -1.539,0.431 v -0.897 c 0.589,-0.223 1.173,-0.334 1.75,-0.334 1.264,0 1.895,0.503 1.895,1.508 v 2.137 c 0,0.378 0.122,0.567 0.365,0.567 0.044,0 0.102,-0.005 0.172,-0.017 l 0.031,0.73 C 89.103,0.069 88.86,0.11 88.649,0.11 88.115,0.11 87.772,-0.1 87.62,-0.519 Z m 0,-0.699 v -0.981 h -0.308 c -0.841,0 -1.262,0.264 -1.262,0.792 0,0.179 0.061,0.329 0.182,0.451 0.122,0.121 0.272,0.182 0.451,0.182 0.305,0 0.617,-0.148 0.937,-0.444 z" />
        <path
   inkscape:connector-curvature="0"
   id="path36424"
   style="fill:#ffffff;fill-rule:nonzero"
   d="m 92.98,-0.026 c -0.311,0.09 -0.556,0.136 -0.734,0.136 -1.129,0 -1.693,-0.528 -1.693,-1.583 v -2.542 h -0.541 v -0.813 h 0.541 v -0.813 l 1.301,-0.15 v 0.963 h 1.034 v 0.813 h -1.034 v 2.37 c 0,0.593 0.242,0.889 0.726,0.889 0.111,0 0.245,-0.021 0.4,-0.062 z" />
        <path
   inkscape:connector-curvature="0"
   id="path36426"
   style="fill:#ffffff;fill-rule:nonzero"
   d="m 98.072,-0.163 c -0.619,0.182 -1.205,0.273 -1.759,0.273 -0.806,0 -1.442,-0.229 -1.908,-0.686 -0.467,-0.457 -0.7,-1.082 -0.7,-1.873 0,-0.748 0.214,-1.349 0.64,-1.805 0.427,-0.456 0.99,-0.684 1.691,-0.684 0.706,0 1.222,0.223 1.548,0.668 0.325,0.446 0.488,1.151 0.488,2.115 h -2.995 c 0.088,0.921 0.594,1.381 1.517,1.381 0.437,0 0.93,-0.101 1.478,-0.303 z M 95.06,-2.889 h 1.732 c 0,-0.824 -0.265,-1.235 -0.796,-1.235 -0.539,0 -0.851,0.411 -0.936,1.235 z" />
      </g>
    </g>
</svg>