<?xml version="1.0" encoding="UTF-8" standalone="no"?>
<svg
   xmlns:dc="http://purl.org/dc/elements/1.1/"
   xmlns:cc="http://creativecommons.org/ns#"
   xmlns:rdf="http://www.w3.org/1999/02/22-rdf-syntax-ns#"
   xmlns:svg="http://www.w3.org/2000/svg"
   xmlns="http://www.w3.org/2000/svg"
   xmlns:sodipodi="http://sodipodi.sourceforge.net/DTD/sodipodi-0.dtd"
   xmlns:inkscape="http://www.inkscape.org/namespaces/inkscape"
   width="40px"
   height="40px"
   version="1.1"
   xml:space="preserve"
   style="fill-rule:evenodd;clip-rule:evenodd;stroke-linejoin:round;stroke-miterlimit:1.41421;"
   id="svg9"
   sodipodi:docname="Knob.svg"
   inkscape:version="0.92.3 (2405546, 2018-03-11)"><metadata
   id="metadata15"><rdf:RDF><cc:Work
       rdf:about=""><dc:format>image/svg+xml</dc:format><dc:type
         rdf:resource="http://purl.org/dc/dcmitype/StillImage" /><dc:title></dc:title></cc:Work></rdf:RDF></metadata><defs
   id="defs13">
    
    
    
    
    
    
  </defs><sodipodi:namedview
   pagecolor="#ffffff"
   bordercolor="#666666"
   borderopacity="1"
   objecttolerance="10"
   gridtolerance="10"
   guidetolerance="10"
   inkscape:pageopacity="0"
   inkscape:pageshadow="2"
   inkscape:window-width="1769"
   inkscape:window-height="846"
   id="namedview11"
   showgrid="false"
   inkscape:zoom="5.9"
   inkscape:cx="-21.355932"
   inkscape:cy="20"
   inkscape:window-x="0"
   inkscape:window-y="0"
   inkscape:window-maximized="0"
   inkscape:current-layer="svg9" />
  <ellipse
   style="fill:#6a6969"
   ry="18.552"
   rx="18.638"
   cy="20"
   cx="20.000999"
   id="circle866" /><path
   inkscape:connector-curvature="0"
   style="fill:#101010;stroke:#8c8c8c;stroke-width:0.80000001px"
   d="M 19.122,0.133 C 19.412,0.12 19.706,0.112 20,0.112 c 0.294,0 0.588,0.008 0.878,0.021 3.898,3.562 8.868,5.949 14.095,6.757 0.389,0.441 0.758,0.898 1.106,1.373 -0.373,5.256 0.857,10.611 3.483,15.187 -0.104,0.577 -0.236,1.142 -0.389,1.699 -4.362,2.989 -7.808,7.288 -9.763,12.186 -0.513,0.272 -1.039,0.528 -1.582,0.759 -5.065,-1.534 -10.591,-1.534 -15.656,0 C 11.629,37.863 11.103,37.607 10.59,37.335 8.635,32.437 5.189,28.138 0.827,25.149 0.674,24.592 0.542,24.027 0.438,23.45 3.064,18.874 4.294,13.519 3.921,8.263 4.269,7.788 4.638,7.331 5.027,6.89 10.254,6.082 15.224,3.695 19.122,0.133 Z"
   id="path870" /><ellipse
   style="fill:#141414;stroke:#808080;stroke-width:0.5px;stroke-linecap:round;stroke-miterlimit:1.5"
   ry="14.018"
   rx="14.083"
   cy="20"
   cx="20"
   id="circle874" /><circle
   style="fill:#0b0019"
   r="13.583"
   cy="20"
   cx="20.000999"
   id="path1471" /><circle
   style="fill:none;stroke:#191919;stroke-width:2.25999999px;stroke-linecap:round;stroke-miterlimit:1.5"
   r="11.512"
   cy="20"
   cx="20.000999"
   id="path1473" /><path
   inkscape:connector-curvature="0"
   style="fill:#ebebeb"
   d="m 21.606,3.029 c 0.259,0 0.469,0.305 0.469,0.68 l -0.667,2.038 v 9.938 c 0,0.921 -0.398,1.658 -1.408,1.668 -0.96,0.009 -1.408,-0.747 -1.408,-1.668 V 5.747 L 17.925,3.709 c 0,-0.375 0.21,-0.68 0.469,-0.68 0,0 0.689,-1.724 1.606,-1.743 0.787,-0.017 1.606,1.743 1.606,1.743 z"
   id="path894" />
</svg>