<?xml version="1.0" encoding="UTF-8" standalone="no"?>
<svg
   xmlns:serif="http://www.serif.com/"
   xmlns:dc="http://purl.org/dc/elements/1.1/"
   xmlns:cc="http://creativecommons.org/ns#"
   xmlns:rdf="http://www.w3.org/1999/02/22-rdf-syntax-ns#"
   xmlns:svg="http://www.w3.org/2000/svg"
   xmlns="http://www.w3.org/2000/svg"
   xmlns:sodipodi="http://sodipodi.sourceforge.net/DTD/sodipodi-0.dtd"
   xmlns:inkscape="http://www.inkscape.org/namespaces/inkscape"
   width="150px"
   height="380px"
   version="1.1"
   xml:space="preserve"
   style="fill-rule:evenodd;clip-rule:evenodd;stroke-linecap:round;"
   id="svg1067"
   sodipodi:docname="Rescomb.svg"
   inkscape:version="0.92.3 (2405546, 2018-03-11)"><metadata
   id="metadata1071"><rdf:RDF><cc:Work
       rdf:about=""><dc:format>image/svg+xml</dc:format><dc:type
         rdf:resource="http://purl.org/dc/dcmitype/StillImage" /><dc:title></dc:title></cc:Work></rdf:RDF></metadata><sodipodi:namedview
   pagecolor="#ffffff"
   bordercolor="#666666"
   borderopacity="1"
   objecttolerance="10"
   gridtolerance="10"
   guidetolerance="10"
   inkscape:pageopacity="0"
   inkscape:pageshadow="2"
   inkscape:window-width="1920"
   inkscape:window-height="1017"
   id="namedview1069"
   showgrid="false"
   inkscape:zoom="2.2105263"
   inkscape:cx="75"
   inkscape:cy="190"
   inkscape:window-x="1912"
   inkscape:window-y="-8"
   inkscape:window-maximized="1"
   inkscape:current-layer="svg1067" />
  <defs
   id="defs949">
    <linearGradient
   id="_Linear1"
   x1="0"
   y1="0"
   x2="1"
   y2="0"
   gradientUnits="userSpaceOnUse"
   gradientTransform="matrix(150,-379.998,379.998,150,3.28145e-4,379.998)">
      <stop
   offset="0"
   style="stop-color:#0b0019;stop-opacity:1"
   id="stop944" />
      <stop
   offset="1"
   style="stop-color:#170028;stop-opacity:1"
   id="stop946" />
    </linearGradient>
  
    
    
    
    
    
    
    
    
    
    
    
    
    
    
    
    
    
    
    
    
    
    
    
    
    
    
    
    
    
    
    
    
    
    
    
    
    
    
    
    
    
    
    
    
    
    
    
    
    
    
    
    
    
    
    
    
    
    
    
    
    
    
    
    
    
    
    
    
    
    
    
    
    
    
    
    
    
    
    
    
    
    
    
    
    
    
    
    
    
    
    
    
    
    
    
    
    
    
    
    
    
    
    
    
    
    
    
    
    
    
    
    
    
    
    
  </defs>
  <rect
   style="fill:url(#_Linear1)"
   height="379.99799"
   width="150"
   y="0"
   x="0"
   id="rect17999" /><g
   id="g1201"
   style="fill:#e0d6e8"><path
     id="path42"
     d="m 65.952,363.5 h 2.673 l 2.49,8.317 2.574,-8.317 h 2.66 l -3.46,10.397 c -0.323,0.959 -0.903,1.438 -1.738,1.438 -0.847,0 -1.433,-0.484 -1.755,-1.453 z"
     style="fill:#e0d6e8;fill-rule:nonzero"
     inkscape:connector-curvature="0" /><path
     id="path44"
     d="M 76.55,372.292 V 363.5 h 2.507 v 8.709 c 0.044,0.312 0.334,0.468 0.869,0.468 h 1.705 c 0.513,0 0.797,-0.145 0.853,-0.435 l 0.017,-0.083 V 363.5 h 2.507 v 8.776 c 0,0.769 -0.083,1.315 -0.251,1.638 -0.445,0.858 -1.231,1.287 -2.357,1.287 h -3.243 c -1.159,0 -1.95,-0.44 -2.373,-1.321 -0.156,-0.323 -0.234,-0.852 -0.234,-1.588 z"
     style="fill:#e0d6e8;fill-rule:nonzero"
     inkscape:connector-curvature="0" /><path
     id="path46"
     d="M 86.161,372.343 V 363.5 h 2.508 v 8.642 c 0,0.357 0.211,0.535 0.635,0.535 h 4.463 l -0.016,2.524 h -4.664 c -0.167,0 -0.312,-0.006 -0.435,-0.017 -0.903,-0.077 -1.544,-0.342 -1.922,-0.794 -0.379,-0.451 -0.569,-1.133 -0.569,-2.047 z"
     style="fill:#e0d6e8;fill-rule:nonzero"
     inkscape:connector-curvature="0" /><path
     id="path48"
     d="M 93.851,366.024 V 363.5 h 7.522 v 2.524 h -2.524 v 9.177 h -2.508 v -9.177 z"
     style="fill:#e0d6e8;fill-rule:nonzero"
     inkscape:connector-curvature="0" /></g><path
   inkscape:connector-curvature="0"
   style="fill:#ffffff;fill-rule:nonzero"
   d="m 39.626,127.475 v 4.706 h -1.569 v -4.706 h -1.288 v -1.329 h 4.146 v 1.329 z"
   id="path18007" /><path
   inkscape:connector-curvature="0"
   style="fill:#ffffff;fill-rule:nonzero"
   d="m 43.179,126.146 v 3.282 c 0,0.176 0.008,0.356 0.02,0.54 0.012,0.184 0.053,0.352 0.121,0.5 0.068,0.148 0.172,0.272 0.316,0.364 0.144,0.092 0.348,0.14 0.608,0.14 0.26,0 0.464,-0.048 0.604,-0.14 0.14,-0.092 0.248,-0.216 0.316,-0.364 0.068,-0.148 0.112,-0.316 0.124,-0.5 0.012,-0.184 0.02,-0.364 0.02,-0.54 v -3.282 h 1.561 v 3.498 c 0,0.94 -0.216,1.624 -0.644,2.057 -0.428,0.432 -1.089,0.648 -1.981,0.648 -0.892,0 -1.553,-0.216 -1.985,-0.648 -0.432,-0.433 -0.648,-1.117 -0.648,-2.057 v -3.498 z"
   id="path18009" /><path
   inkscape:connector-curvature="0"
   style="fill:#ffffff;fill-rule:nonzero"
   d="m 48.134,132.181 v -6.035 h 1.568 l 2.897,3.69 v -3.69 h 1.561 v 6.035 h -1.561 l -2.897,-3.69 v 3.69 z"
   id="path18011" /><path
   inkscape:connector-curvature="0"
   style="fill:#ffffff;fill-rule:nonzero"
   d="m 58.858,127.475 h -1.865 v 1.008 h 1.761 v 1.329 h -1.761 v 1.04 h 1.865 v 1.329 h -3.433 v -6.035 h 3.433 z"
   id="path18013" /><path
   inkscape:connector-curvature="0"
   style="fill:none;stroke:#cccccc;stroke-width:1.5px"
   d="m 70.343,109.847 c 5.718,-9.906 3.48,-22.611 -5.286,-29.963 -8.761,-7.353 -21.66,-7.353 -30.422,0 -8.762,7.352 -11.004,20.057 -5.282,29.963"
   id="path18018" /><path
   inkscape:connector-curvature="0"
   style="fill:#cccccc;fill-rule:nonzero;stroke:#cccccc;stroke-width:1.5px"
   d="m 69.569,112.338 0.05,9.217"
   id="path9630" /><path
   inkscape:connector-curvature="0"
   style="fill:#cccccc;fill-rule:nonzero;stroke:#cccccc;stroke-width:1.5px"
   d="m 74.2,116.88 -9.213,0.043"
   id="path9630-1" /><path
   inkscape:connector-curvature="0"
   style="fill:#cccccc;fill-rule:nonzero;stroke:#cccccc;stroke-width:1.5px"
   d="m 35.939,116.619 -9.213,0.043"
   id="path9630-1-6" /><path
   inkscape:connector-curvature="0"
   style="fill:none;stroke:#cccccc;stroke-width:1.5px"
   d="M 49.846,98.018 49.799,71.671"
   id="path9948" /><path
   inkscape:connector-curvature="0"
   style="fill:#ffffff;fill-rule:nonzero"
   d="m 100.41,116.146 1.456,3.674 1.465,-3.674 h 1.704 l -2.545,6.035 h -1.248 l -2.537,-6.035 z"
   id="path18027" /><path
   inkscape:connector-curvature="0"
   style="fill:#ffffff;fill-rule:nonzero"
   d="m 108.317,115.538 h 1.144 l -3.297,8.027 h -1.137 z"
   id="path18029" /><path
   inkscape:connector-curvature="0"
   style="fill:#ffffff;fill-rule:nonzero"
   d="m 111.238,119.164 c 0,0.24 0.044,0.46 0.136,0.664 0.092,0.204 0.212,0.38 0.368,0.528 0.156,0.148 0.336,0.264 0.54,0.348 0.205,0.084 0.425,0.124 0.653,0.124 0.228,0 0.448,-0.04 0.652,-0.124 0.204,-0.084 0.388,-0.2 0.544,-0.348 0.156,-0.148 0.28,-0.324 0.372,-0.528 0.092,-0.204 0.136,-0.424 0.136,-0.664 0,-0.241 -0.044,-0.461 -0.136,-0.665 -0.092,-0.204 -0.216,-0.38 -0.372,-0.528 -0.156,-0.148 -0.34,-0.264 -0.544,-0.348 -0.204,-0.084 -0.424,-0.124 -0.652,-0.124 -0.228,0 -0.448,0.04 -0.653,0.124 -0.204,0.084 -0.384,0.2 -0.54,0.348 -0.156,0.148 -0.276,0.324 -0.368,0.528 -0.092,0.204 -0.136,0.424 -0.136,0.665 z m -1.641,0 c 0,-0.449 0.084,-0.865 0.248,-1.253 0.164,-0.388 0.397,-0.724 0.689,-1.012 0.292,-0.289 0.644,-0.513 1.052,-0.677 0.408,-0.164 0.856,-0.244 1.349,-0.244 0.484,0 0.932,0.08 1.344,0.244 0.412,0.164 0.765,0.388 1.061,0.677 0.296,0.288 0.528,0.624 0.692,1.012 0.164,0.388 0.248,0.804 0.248,1.253 0,0.448 -0.084,0.864 -0.248,1.252 -0.164,0.388 -0.396,0.724 -0.692,1.012 -0.296,0.289 -0.649,0.513 -1.061,0.677 -0.412,0.164 -0.86,0.244 -1.344,0.244 -0.493,0 -0.941,-0.08 -1.349,-0.244 -0.408,-0.164 -0.76,-0.388 -1.052,-0.677 -0.292,-0.288 -0.525,-0.624 -0.689,-1.012 -0.164,-0.388 -0.248,-0.804 -0.248,-1.252 z"
   id="path18031" /><path
   inkscape:connector-curvature="0"
   style="fill:#ffffff;fill-rule:nonzero"
   d="m 121.618,118.163 c -0.364,-0.444 -0.812,-0.664 -1.344,-0.664 -0.236,0 -0.452,0.044 -0.653,0.128 -0.2,0.084 -0.372,0.2 -0.516,0.348 -0.144,0.148 -0.256,0.32 -0.34,0.524 -0.084,0.204 -0.124,0.42 -0.124,0.657 0,0.24 0.04,0.46 0.124,0.664 0.084,0.204 0.196,0.38 0.344,0.528 0.148,0.148 0.32,0.268 0.516,0.352 0.197,0.084 0.413,0.128 0.641,0.128 0.5,0 0.952,-0.212 1.352,-0.64 v 1.857 l -0.16,0.056 c -0.24,0.084 -0.464,0.148 -0.672,0.188 -0.208,0.04 -0.412,0.06 -0.616,0.06 -0.416,0 -0.817,-0.08 -1.197,-0.236 -0.38,-0.156 -0.716,-0.38 -1.008,-0.665 -0.292,-0.284 -0.524,-0.624 -0.701,-1.016 -0.176,-0.392 -0.264,-0.82 -0.264,-1.284 0,-0.465 0.088,-0.889 0.26,-1.277 0.173,-0.388 0.405,-0.72 0.697,-1 0.292,-0.281 0.628,-0.501 1.012,-0.657 0.384,-0.156 0.789,-0.236 1.209,-0.236 0.24,0 0.476,0.024 0.708,0.076 0.232,0.052 0.476,0.128 0.732,0.236 z"
   id="path18033" /><path
   inkscape:connector-curvature="0"
   style="fill:#ffffff;fill-rule:nonzero"
   d="m 124.9,117.475 v 4.706 h -1.569 v -4.706 h -1.289 v -1.329 h 4.146 v 1.329 z"
   id="path18035" /><path
   inkscape:connector-curvature="0"
   style="fill:none;stroke:#cccccc;stroke-width:1px"
   d="m 121.64,172.767 c 2.737,-4.742 1.664,-10.824 -2.534,-14.346 -4.193,-3.521 -10.372,-3.521 -14.566,0 -4.197,3.522 -5.27,9.604 -2.533,14.346 l 9.816,-5.666 z"
   id="path18040" /><path
   inkscape:connector-curvature="0"
   style="fill:#cccccc;fill-rule:nonzero;stroke:#cccccc;stroke-width:1px"
   d="m 121.267,173.964 0.024,4.41"
   id="path18043" /><path
   inkscape:connector-curvature="0"
   style="fill:#cccccc;fill-rule:nonzero;stroke:#cccccc;stroke-width:1px"
   d="m 123.484,176.137 -4.41,0.02"
   id="path18046" /><path
   inkscape:connector-curvature="0"
   style="fill:#cccccc;fill-rule:nonzero;stroke:#cccccc;stroke-width:1px"
   d="m 105.165,176.013 -4.414,0.02"
   id="path18049" /><path
   inkscape:connector-curvature="0"
   style="fill:none;stroke:#cccccc;stroke-width:1px"
   d="m 111.823,167.105 -0.024,-13.31"
   id="path18052" /><path
   inkscape:connector-curvature="0"
   style="fill:none;stroke:#cccccc;stroke-width:1px"
   d="m 121.64,172.767 c 2.737,-4.742 1.664,-10.824 -2.534,-14.346 -4.193,-3.521 -10.372,-3.521 -14.566,0 -4.197,3.522 -5.27,9.604 -2.533,14.346 l 9.816,-5.666 z"
   id="path18055" /><path
   inkscape:connector-curvature="0"
   style="fill:#cccccc;fill-rule:nonzero;stroke:#cccccc;stroke-width:1px"
   d="m 121.267,173.964 0.024,4.41"
   id="path18058" /><path
   inkscape:connector-curvature="0"
   style="fill:#cccccc;fill-rule:nonzero;stroke:#cccccc;stroke-width:1px"
   d="m 123.484,176.137 -4.41,0.02"
   id="path18061" /><path
   inkscape:connector-curvature="0"
   style="fill:#cccccc;fill-rule:nonzero;stroke:#cccccc;stroke-width:1px"
   d="m 105.165,176.013 -4.414,0.02"
   id="path18064" /><path
   inkscape:connector-curvature="0"
   style="fill:none;stroke:#cccccc;stroke-width:1px"
   d="m 111.823,167.105 -0.024,-13.31"
   id="path18067" /><path
   inkscape:connector-curvature="0"
   style="fill:#ffffff;fill-rule:nonzero"
   d="m 40.681,208.337 c -0.364,-0.444 -0.812,-0.664 -1.344,-0.664 -0.236,0 -0.453,0.044 -0.653,0.128 -0.2,0.084 -0.372,0.2 -0.516,0.348 -0.144,0.148 -0.256,0.32 -0.34,0.524 -0.084,0.204 -0.124,0.42 -0.124,0.657 0,0.24 0.04,0.46 0.124,0.664 0.084,0.204 0.196,0.38 0.344,0.528 0.148,0.148 0.32,0.268 0.516,0.352 0.196,0.084 0.413,0.128 0.641,0.128 0.5,0 0.952,-0.212 1.352,-0.64 v 1.857 l -0.16,0.056 c -0.24,0.084 -0.464,0.148 -0.672,0.188 -0.208,0.04 -0.412,0.06 -0.616,0.06 -0.417,0 -0.817,-0.08 -1.197,-0.236 -0.38,-0.156 -0.716,-0.38 -1.008,-0.665 -0.292,-0.284 -0.525,-0.624 -0.701,-1.016 -0.176,-0.392 -0.264,-0.82 -0.264,-1.284 0,-0.465 0.088,-0.889 0.26,-1.277 0.172,-0.388 0.405,-0.72 0.697,-1 0.292,-0.281 0.628,-0.501 1.012,-0.657 0.384,-0.156 0.788,-0.236 1.209,-0.236 0.24,0 0.476,0.024 0.708,0.076 0.232,0.052 0.476,0.128 0.732,0.236 z"
   id="path18072" /><path
   inkscape:connector-curvature="0"
   style="fill:#ffffff;fill-rule:nonzero"
   d="m 43.13,209.338 c 0,0.24 0.044,0.46 0.136,0.664 0.092,0.204 0.212,0.38 0.368,0.528 0.156,0.148 0.337,0.264 0.541,0.348 0.204,0.084 0.424,0.124 0.652,0.124 0.228,0 0.448,-0.04 0.652,-0.124 0.204,-0.084 0.388,-0.2 0.544,-0.348 0.156,-0.148 0.28,-0.324 0.373,-0.528 0.092,-0.204 0.136,-0.424 0.136,-0.664 0,-0.241 -0.044,-0.461 -0.136,-0.665 -0.093,-0.204 -0.217,-0.38 -0.373,-0.528 -0.156,-0.148 -0.34,-0.264 -0.544,-0.348 -0.204,-0.084 -0.424,-0.124 -0.652,-0.124 -0.228,0 -0.448,0.04 -0.652,0.124 -0.204,0.084 -0.385,0.2 -0.541,0.348 -0.156,0.148 -0.276,0.324 -0.368,0.528 -0.092,0.204 -0.136,0.424 -0.136,0.665 z m -1.64,0 c 0,-0.449 0.084,-0.865 0.248,-1.253 0.164,-0.388 0.396,-0.724 0.688,-1.012 0.292,-0.289 0.644,-0.513 1.052,-0.677 0.408,-0.164 0.857,-0.244 1.349,-0.244 0.484,0 0.932,0.08 1.344,0.244 0.413,0.164 0.765,0.388 1.061,0.677 0.296,0.288 0.528,0.624 0.692,1.012 0.164,0.388 0.248,0.804 0.248,1.253 0,0.448 -0.084,0.864 -0.248,1.252 -0.164,0.388 -0.396,0.724 -0.692,1.012 -0.296,0.289 -0.648,0.513 -1.061,0.677 -0.412,0.164 -0.86,0.244 -1.344,0.244 -0.492,0 -0.941,-0.08 -1.349,-0.244 -0.408,-0.164 -0.76,-0.388 -1.052,-0.677 -0.292,-0.288 -0.524,-0.624 -0.688,-1.012 -0.164,-0.388 -0.248,-0.804 -0.248,-1.252 z"
   id="path18074" /><path
   inkscape:connector-curvature="0"
   style="fill:#ffffff;fill-rule:nonzero"
   d="m 48.893,212.355 1.024,-6.035 h 1.553 l 1.208,3.218 1.201,-3.218 h 1.552 l 1.025,6.035 h -1.561 l -0.52,-3.474 -1.425,3.474 h -0.624 l -1.353,-3.474 -0.52,3.474 z"
   id="path18076" /><path
   inkscape:connector-curvature="0"
   style="fill:#ffffff;fill-rule:nonzero"
   d="m 59.017,211.138 h 0.344 c 0.396,0 0.676,-0.052 0.848,-0.152 0.172,-0.1 0.256,-0.264 0.256,-0.488 0,-0.224 -0.084,-0.388 -0.256,-0.488 -0.172,-0.1 -0.452,-0.152 -0.848,-0.152 h -0.344 z m 0,-2.449 h 0.288 c 0.492,0 0.736,-0.196 0.736,-0.584 0,-0.388 -0.244,-0.584 -0.736,-0.584 h -0.288 z m -1.569,-2.369 h 2.337 c 0.556,0 0.976,0.132 1.265,0.4 0.288,0.269 0.432,0.653 0.432,1.153 0,0.304 -0.056,0.556 -0.164,0.756 -0.108,0.2 -0.276,0.368 -0.5,0.508 0.224,0.044 0.416,0.109 0.572,0.197 0.156,0.088 0.284,0.196 0.384,0.324 0.1,0.128 0.168,0.272 0.212,0.432 0.044,0.16 0.064,0.332 0.064,0.512 0,0.284 -0.048,0.532 -0.148,0.752 -0.1,0.22 -0.236,0.405 -0.416,0.553 -0.18,0.148 -0.396,0.26 -0.652,0.336 -0.257,0.076 -0.545,0.112 -0.865,0.112 h -2.521 z"
   id="path18078" /><path
   inkscape:connector-curvature="0"
   style="fill:none;stroke:#cccccc;stroke-width:1px"
   d="m 121.64,252.941 c 2.737,-4.742 1.664,-10.824 -2.534,-14.346 -4.193,-3.521 -10.372,-3.521 -14.566,0 -4.197,3.522 -5.27,9.604 -2.533,14.346 l 9.816,-5.666 z"
   id="path18083" /><path
   inkscape:connector-curvature="0"
   style="fill:#cccccc;fill-rule:nonzero;stroke:#cccccc;stroke-width:1px"
   d="m 121.267,254.138 0.024,4.41"
   id="path18086" /><path
   inkscape:connector-curvature="0"
   style="fill:#cccccc;fill-rule:nonzero;stroke:#cccccc;stroke-width:1px"
   d="m 123.484,256.311 -4.41,0.02"
   id="path18089" /><path
   inkscape:connector-curvature="0"
   style="fill:#cccccc;fill-rule:nonzero;stroke:#cccccc;stroke-width:1px"
   d="m 105.165,256.187 -4.414,0.02"
   id="path18092" /><path
   inkscape:connector-curvature="0"
   style="fill:none;stroke:#cccccc;stroke-width:1px"
   d="m 111.823,247.279 -0.024,-13.31"
   id="path18095" /><path
   inkscape:connector-curvature="0"
   style="fill:#cccccc;fill-rule:nonzero;stroke:#cccccc;stroke-width:1px"
   d="m 121.267,254.138 0.024,4.41"
   id="path18098" /><path
   inkscape:connector-curvature="0"
   style="fill:#cccccc;fill-rule:nonzero;stroke:#cccccc;stroke-width:1px"
   d="m 123.484,256.311 -4.41,0.02"
   id="path18101" /><path
   inkscape:connector-curvature="0"
   style="fill:#cccccc;fill-rule:nonzero;stroke:#cccccc;stroke-width:1px"
   d="m 105.165,256.187 -4.414,0.02"
   id="path18104" /><path
   inkscape:connector-curvature="0"
   style="fill:none;stroke:#cccccc;stroke-width:1px"
   d="m 111.823,247.279 -0.024,-13.31"
   id="path18107" /><path
   inkscape:connector-curvature="0"
   style="fill:#ffffff;fill-rule:nonzero"
   d="m 32.346,287.823 h -1.889 v 1.008 h 1.721 v 1.329 h -1.721 v 2.369 h -1.568 v -6.035 h 3.457 z"
   id="path18112" /><path
   inkscape:connector-curvature="0"
   style="fill:#ffffff;fill-rule:nonzero"
   d="m 36.716,287.823 h -1.865 v 1.008 h 1.761 v 1.329 h -1.761 v 1.04 h 1.865 v 1.329 h -3.434 v -6.035 h 3.434 z"
   id="path18114" /><path
   inkscape:connector-curvature="0"
   style="fill:#ffffff;fill-rule:nonzero"
   d="m 41.278,287.823 h -1.865 v 1.008 h 1.761 v 1.329 h -1.761 v 1.04 h 1.865 v 1.329 h -3.434 v -6.035 h 3.434 z"
   id="path18116" /><path
   inkscape:connector-curvature="0"
   style="fill:#ffffff;fill-rule:nonzero"
   d="m 43.975,291.2 h 0.36 c 0.272,0 0.516,-0.044 0.728,-0.128 0.212,-0.084 0.392,-0.204 0.54,-0.352 0.149,-0.148 0.261,-0.328 0.337,-0.532 0.076,-0.204 0.116,-0.432 0.116,-0.676 0,-0.241 -0.04,-0.465 -0.12,-0.673 -0.08,-0.208 -0.192,-0.388 -0.341,-0.536 -0.148,-0.148 -0.328,-0.268 -0.54,-0.352 -0.212,-0.084 -0.452,-0.128 -0.72,-0.128 h -0.36 z m -1.569,-4.706 h 2.321 c 0.412,0 0.796,0.084 1.157,0.248 0.36,0.164 0.676,0.385 0.944,0.661 0.268,0.276 0.48,0.596 0.636,0.96 0.156,0.364 0.232,0.748 0.232,1.149 0,0.396 -0.076,0.776 -0.228,1.14 -0.152,0.364 -0.364,0.688 -0.632,0.964 -0.268,0.277 -0.584,0.501 -0.944,0.665 -0.361,0.164 -0.749,0.248 -1.165,0.248 h -2.321 z"
   id="path18118" /><path
   inkscape:connector-curvature="0"
   style="fill:#ffffff;fill-rule:nonzero"
   d="m 50.265,291.312 h 0.345 c 0.396,0 0.676,-0.052 0.848,-0.152 0.172,-0.1 0.256,-0.264 0.256,-0.488 0,-0.224 -0.084,-0.388 -0.256,-0.488 -0.172,-0.1 -0.452,-0.152 -0.848,-0.152 h -0.345 z m 0,-2.449 h 0.289 c 0.492,0 0.736,-0.196 0.736,-0.584 0,-0.388 -0.244,-0.584 -0.736,-0.584 h -0.289 z m -1.568,-2.369 h 2.337 c 0.556,0 0.976,0.132 1.264,0.4 0.288,0.269 0.432,0.653 0.432,1.153 0,0.304 -0.056,0.556 -0.164,0.756 -0.108,0.2 -0.276,0.368 -0.5,0.508 0.224,0.044 0.416,0.109 0.572,0.197 0.156,0.088 0.285,0.196 0.385,0.324 0.1,0.128 0.168,0.272 0.212,0.432 0.044,0.16 0.064,0.332 0.064,0.512 0,0.284 -0.048,0.532 -0.148,0.752 -0.1,0.22 -0.236,0.405 -0.417,0.553 -0.18,0.148 -0.396,0.26 -0.652,0.336 -0.256,0.076 -0.544,0.112 -0.864,0.112 h -2.521 z"
   id="path18120" /><path
   inkscape:connector-curvature="0"
   style="fill:#ffffff;fill-rule:nonzero"
   d="m 57.428,290.288 -0.704,-2.009 -0.704,2.009 z m 0.417,1.192 h -2.241 l -0.361,1.049 h -1.672 l 2.297,-6.035 h 1.712 l 2.297,6.035 h -1.672 z"
   id="path18122" /><path
   inkscape:connector-curvature="0"
   style="fill:#ffffff;fill-rule:nonzero"
   d="m 64.687,288.511 c -0.364,-0.444 -0.812,-0.664 -1.344,-0.664 -0.236,0 -0.452,0.044 -0.652,0.128 -0.2,0.084 -0.373,0.2 -0.517,0.348 -0.144,0.148 -0.256,0.32 -0.34,0.524 -0.084,0.204 -0.124,0.42 -0.124,0.657 0,0.24 0.04,0.46 0.124,0.664 0.084,0.204 0.196,0.38 0.344,0.528 0.148,0.148 0.321,0.268 0.517,0.352 0.196,0.084 0.412,0.128 0.64,0.128 0.5,0 0.952,-0.212 1.352,-0.64 v 1.857 l -0.16,0.056 c -0.24,0.084 -0.464,0.148 -0.672,0.188 -0.208,0.04 -0.412,0.06 -0.616,0.06 -0.416,0 -0.817,-0.08 -1.197,-0.236 -0.38,-0.156 -0.716,-0.38 -1.008,-0.665 -0.292,-0.284 -0.524,-0.624 -0.7,-1.016 -0.176,-0.392 -0.265,-0.82 -0.265,-1.284 0,-0.465 0.089,-0.889 0.261,-1.277 0.172,-0.388 0.404,-0.72 0.696,-1 0.292,-0.281 0.628,-0.501 1.012,-0.657 0.384,-0.156 0.789,-0.236 1.209,-0.236 0.24,0 0.476,0.024 0.708,0.076 0.232,0.052 0.476,0.128 0.732,0.236 z"
   id="path18124" /><path
   inkscape:connector-curvature="0"
   style="fill:#ffffff;fill-rule:nonzero"
   d="m 67.505,288.983 1.912,-2.489 h 1.937 l -2.393,2.857 2.617,3.178 h -2.033 l -2.04,-2.617 v 2.617 h -1.569 v -6.035 h 1.569 z"
   id="path18126" /><path
   inkscape:connector-curvature="0"
   style="fill:none;stroke:#cccccc;stroke-width:1.5px;stroke-linecap:butt"
   d="m 71.583,270.519 c 5.878,-10.184 3.577,-23.245 -5.431,-30.804 -9.007,-7.556 -22.273,-7.556 -31.281,0 -9.007,7.559 -11.308,20.62 -5.43,30.804"
   id="path18131" /><circle
   style="fill:none;stroke:#cccccc;stroke-width:1px;stroke-linecap:butt"
   r="3.7060001"
   cy="278.78699"
   cx="30.173"
   id="circle18134" /><circle
   style="fill:#cccccc;stroke:#cccccc;stroke-width:1px;stroke-linecap:butt"
   r="3.7060001"
   cy="279.27499"
   cx="71.952003"
   id="circle18137" /><path
   inkscape:connector-curvature="0"
   style="fill:none;stroke:#cccccc;stroke-width:1.5px"
   d="m 70.343,190.847 c 5.718,-9.906 3.48,-22.611 -5.286,-29.963 -8.761,-7.353 -21.66,-7.353 -30.422,0 -8.762,7.352 -11.004,20.057 -5.282,29.963"
   id="path18140" /><path
   inkscape:connector-curvature="0"
   style="fill:#cccccc;fill-rule:nonzero;stroke:#cccccc;stroke-width:1.5px"
   d="m 69.569,193.338 0.05,9.217"
   serif:id="path9630"
   id="path96301" /><path
   inkscape:connector-curvature="0"
   style="fill:#cccccc;fill-rule:nonzero;stroke:#cccccc;stroke-width:1.5px"
   d="m 74.2,197.88 -9.213,0.043"
   serif:id="path9630-1"
   id="path9630-11" /><path
   inkscape:connector-curvature="0"
   style="fill:#cccccc;fill-rule:nonzero;stroke:#cccccc;stroke-width:1.5px"
   d="m 35.939,197.619 -9.213,0.043"
   serif:id="path9630-1-6"
   id="path9630-1-61" /><path
   inkscape:connector-curvature="0"
   style="fill:none;stroke:#cccccc;stroke-width:1.5px"
   d="M 49.846,179.018 49.799,152.671"
   serif:id="path9948"
   id="path99481" /><path
   inkscape:connector-curvature="0"
   style="fill:#757575;fill-rule:nonzero;stroke:#414c55;stroke-width:0.61000001px;stroke-linecap:butt;stroke-miterlimit:10"
   d="m 62.383,369.417 c 0,-4.509 -3.655,-8.164 -8.164,-8.164 -4.509,0 -8.165,3.655 -8.165,8.164 0,4.509 3.656,8.165 8.165,8.165 4.509,0 8.164,-3.656 8.164,-8.165 z"
   id="path4" /><path
   inkscape:connector-curvature="0"
   style="fill:#2b2b2b;fill-rule:nonzero"
   d="m 52.321,374.394 0.553,-0.891 -1.064,-2.393 -2.216,-2.284 0.46,3.101 0.597,1.28 0.833,1.264 z"
   id="polygon6" /><path
   inkscape:connector-curvature="0"
   style="fill:#262626;fill-rule:nonzero"
   d="m 56.048,374.401 -0.553,-0.89 1.064,-2.393 2.216,-2.285 -0.46,3.101 -0.597,1.281 -0.833,1.263 z"
   id="polygon8" /><path
   inkscape:connector-curvature="0"
   style="fill:#424242;fill-rule:nonzero"
   d="m 51.636,363.359 2.584,-0.66 v 13.447 l -1.349,-2.651 -1.061,-2.385 -1.022,-0.581 -2.052,-2.92 -0.057,-0.776 1.148,-2.067 z"
   id="polygon12" /><path
   inkscape:connector-curvature="0"
   style="fill:#333333;fill-rule:nonzero"
   d="m 56.801,363.364 -2.584,-0.661 v 13.448 l 1.35,-2.651 1.06,-2.385 1.023,-0.581 2.051,-2.921 0.058,-0.775 -1.149,-2.067 z"
   id="polygon14" /><path
   inkscape:connector-curvature="0"
   style="fill:#4c4c4c;fill-rule:nonzero"
   d="m 52.496,369.237 1.723,-1.684 v 1.229 l -1.723,1.718 v -1.263"
   id="polyline16" /><path
   inkscape:connector-curvature="0"
   style="fill:#5b5b5b;fill-rule:nonzero"
   d="m 54.22,368.781 -1.723,1.718 0.377,3.004 1.346,2.643 z"
   id="polygon18" /><path
   inkscape:connector-curvature="0"
   style="fill:#333333;fill-rule:nonzero"
   d="m 54.22,376.146 -1.346,-2.643 1.346,-0.635 z"
   id="polygon20" /><path
   inkscape:connector-curvature="0"
   style="fill:#ffffff;fill-rule:nonzero"
   d="m 52.497,370.499 v -1.263 l -1.249,-1.58 -1.477,-1.19 -10e-4,0.932 0.775,1.823 z"
   id="polygon22" /><path
   inkscape:connector-curvature="0"
   style="fill:#2d2d2d;fill-rule:nonzero"
   d="m 55.942,369.238 -1.722,-1.685 v 1.23 l 1.722,1.718 v -1.263"
   id="polyline24" /><path
   inkscape:connector-curvature="0"
   style="fill:#353535;fill-rule:nonzero"
   d="m 54.218,368.781 1.722,1.718 -0.376,3.004 -1.347,2.643 z"
   id="polygon26" /><path
   inkscape:connector-curvature="0"
   style="fill:#191919;fill-rule:nonzero"
   d="m 54.217,376.146 1.347,-2.643 -1.346,-0.635 z"
   id="polygon28" /><path
   inkscape:connector-curvature="0"
   style="fill:#ffffff;fill-rule:nonzero"
   d="m 55.94,370.499 v -1.263 l 1.249,-1.58 1.478,-1.19 10e-4,0.932 -0.775,1.823 z"
   id="polygon30" /><path
   inkscape:connector-curvature="0"
   style="fill:#383838;fill-rule:nonzero"
   d="m 51.652,363.338 2.566,4.215 -0.005,-4.87"
   id="polyline32" /><path
   inkscape:connector-curvature="0"
   style="fill:#2d2d2d;fill-rule:nonzero"
   d="m 56.785,363.338 -2.566,4.215 0.006,-4.869"
   id="polyline34" /><path
   inkscape:connector-curvature="0"
   style="fill:#333333;fill-rule:nonzero"
   d="m 51.811,371.111 0.688,-0.611 0.375,3.006 z"
   id="polygon36" /><path
   inkscape:connector-curvature="0"
   style="fill:#1c1c1c;fill-rule:nonzero"
   d="m 56.631,371.125 -0.688,-0.61 -0.375,3.006 z"
   id="polygon38" /><path
   inkscape:connector-curvature="0"
   style="fill:#ffffff;fill-rule:nonzero"
   d="m 25.158,38.559 v -5.112 h 1.378 v 0.964 c 0.357,-0.72 0.9,-1.08 1.63,-1.08 0.087,0 0.172,0.009 0.256,0.027 v 1.23 c -0.196,-0.071 -0.377,-0.107 -0.545,-0.107 -0.55,0 -0.997,0.278 -1.341,0.833 v 3.245 z"
   id="path18168" /><path
   inkscape:connector-curvature="0"
   style="fill:#ffffff;fill-rule:nonzero"
   d="m 33.654,38.387 c -0.654,0.192 -1.275,0.289 -1.862,0.289 -0.853,0 -1.527,-0.243 -2.02,-0.727 -0.493,-0.484 -0.74,-1.145 -0.74,-1.983 0,-0.792 0.225,-1.428 0.677,-1.911 0.451,-0.483 1.049,-0.724 1.79,-0.724 0.748,0 1.295,0.236 1.639,0.707 0.344,0.472 0.516,1.219 0.516,2.239 h -3.17 c 0.094,0.976 0.628,1.463 1.607,1.463 0.461,0 0.983,-0.107 1.563,-0.321 z M 30.465,35.5 H 32.3 c 0,-0.872 -0.281,-1.307 -0.843,-1.307 -0.571,0 -0.902,0.435 -0.992,1.307 z"
   id="path18170" /><path
   inkscape:connector-curvature="0"
   style="fill:#ffffff;fill-rule:nonzero"
   d="m 34.944,38.396 v -1.01 c 0.683,0.286 1.266,0.428 1.75,0.428 0.566,0 0.848,-0.192 0.848,-0.577 0,-0.248 -0.233,-0.465 -0.699,-0.651 l -0.465,-0.187 c -0.505,-0.205 -0.868,-0.425 -1.085,-0.662 -0.217,-0.235 -0.326,-0.527 -0.326,-0.874 0,-0.485 0.186,-0.861 0.554,-1.13 0.37,-0.268 0.886,-0.402 1.551,-0.402 0.415,0 0.911,0.06 1.485,0.182 v 0.968 c -0.553,-0.193 -1.011,-0.288 -1.374,-0.288 -0.57,0 -0.856,0.177 -0.856,0.53 0,0.233 0.21,0.43 0.633,0.591 l 0.4,0.153 c 0.599,0.227 1.015,0.457 1.251,0.69 0.233,0.233 0.351,0.532 0.351,0.899 0,0.48 -0.2,0.871 -0.598,1.171 -0.399,0.298 -0.918,0.449 -1.558,0.449 -0.614,0 -1.235,-0.094 -1.862,-0.28 z"
   id="path18172" /><path
   inkscape:connector-curvature="0"
   style="fill:#ffffff;fill-rule:nonzero"
   d="m 42.616,38.676 c -0.797,0 -1.432,-0.242 -1.902,-0.725 -0.47,-0.482 -0.705,-1.131 -0.705,-1.948 0,-0.826 0.237,-1.477 0.711,-1.955 0.473,-0.478 1.116,-0.717 1.929,-0.717 0.816,0 1.461,0.239 1.934,0.717 0.473,0.478 0.71,1.126 0.71,1.946 0,0.838 -0.237,1.495 -0.712,1.969 -0.474,0.475 -1.13,0.713 -1.965,0.713 z m 0.023,-0.862 c 0.792,0 1.188,-0.607 1.188,-1.82 0,-0.556 -0.105,-0.994 -0.314,-1.317 -0.21,-0.323 -0.498,-0.484 -0.864,-0.484 -0.363,0 -0.649,0.161 -0.859,0.484 -0.21,0.323 -0.314,0.764 -0.314,1.326 0,0.556 0.103,0.997 0.312,1.323 0.207,0.326 0.491,0.488 0.851,0.488 z"
   id="path18174" /><path
   inkscape:connector-curvature="0"
   style="fill:#ffffff;fill-rule:nonzero"
   d="m 46.56,38.559 v -5.112 h 1.377 v 0.964 c 0.45,-0.72 1.031,-1.08 1.742,-1.08 0.456,0 0.816,0.144 1.08,0.433 0.263,0.289 0.396,0.683 0.396,1.183 v 3.612 h -1.379 v -3.273 c 0,-0.58 -0.192,-0.87 -0.577,-0.87 -0.437,0 -0.858,0.308 -1.262,0.927 v 3.216 z"
   id="path18176" /><path
   inkscape:connector-curvature="0"
   style="fill:#ffffff;fill-rule:nonzero"
   d="m 55.326,38.01 c -0.459,0.443 -0.951,0.666 -1.476,0.666 -0.446,0 -0.81,-0.137 -1.089,-0.41 -0.28,-0.273 -0.419,-0.627 -0.419,-1.062 0,-0.564 0.225,-1 0.677,-1.306 0.451,-0.306 1.098,-0.458 1.939,-0.458 h 0.368 v -0.466 c 0,-0.53 -0.302,-0.796 -0.908,-0.796 -0.537,0 -1.08,0.152 -1.629,0.456 v -0.949 c 0.623,-0.237 1.241,-0.354 1.852,-0.354 1.339,0 2.007,0.532 2.007,1.597 v 2.262 c 0,0.4 0.129,0.6 0.386,0.6 0.047,0 0.107,-0.005 0.182,-0.018 l 0.033,0.773 c -0.292,0.087 -0.549,0.131 -0.773,0.131 -0.565,0 -0.928,-0.223 -1.089,-0.666 z m 0,-0.74 V 36.231 H 55 c -0.891,0 -1.336,0.279 -1.336,0.838 0,0.19 0.065,0.349 0.193,0.478 0.129,0.128 0.288,0.193 0.477,0.193 0.323,0 0.654,-0.157 0.992,-0.47 z"
   id="path18178" /><path
   inkscape:connector-curvature="0"
   style="fill:#ffffff;fill-rule:nonzero"
   d="m 58.426,38.559 v -5.112 h 1.379 v 0.964 c 0.45,-0.72 1.03,-1.08 1.741,-1.08 0.456,0 0.816,0.144 1.08,0.433 0.263,0.289 0.396,0.683 0.396,1.183 v 3.612 h -1.379 v -3.273 c 0,-0.58 -0.192,-0.87 -0.577,-0.87 -0.437,0 -0.858,0.308 -1.261,0.927 v 3.216 z"
   id="path18180" /><path
   inkscape:connector-curvature="0"
   style="fill:#ffffff;fill-rule:nonzero"
   d="m 67.323,38.532 c -0.329,0.095 -0.588,0.144 -0.778,0.144 -1.194,0 -1.791,-0.559 -1.791,-1.676 v -2.692 h -0.573 v -0.861 h 0.573 v -0.86 l 1.377,-0.159 v 1.019 h 1.094 v 0.861 h -1.094 v 2.509 c 0,0.628 0.256,0.942 0.769,0.942 0.117,0 0.258,-0.023 0.423,-0.066 z"
   id="path18182" /><path
   inkscape:connector-curvature="0"
   style="fill:#ffffff;fill-rule:nonzero"
   d="m 75.465,38.447 c -0.57,0.152 -1.1,0.229 -1.587,0.229 -0.816,0 -1.461,-0.241 -1.934,-0.719 -0.474,-0.48 -0.711,-1.133 -0.711,-1.958 0,-0.835 0.244,-1.489 0.732,-1.961 0.487,-0.471 1.16,-0.707 2.02,-0.707 0.416,0 0.896,0.067 1.439,0.2 v 0.996 c -0.565,-0.183 -1.016,-0.274 -1.355,-0.274 -0.413,0 -0.745,0.158 -0.997,0.474 -0.251,0.317 -0.377,0.737 -0.377,1.262 0,0.537 0.136,0.967 0.408,1.29 0.271,0.323 0.633,0.484 1.086,0.484 0.413,0 0.839,-0.09 1.276,-0.27 z"
   id="path18184" /><path
   inkscape:connector-curvature="0"
   style="fill:#ffffff;fill-rule:nonzero"
   d="m 78.916,38.676 c -0.799,0 -1.433,-0.242 -1.903,-0.725 -0.47,-0.482 -0.705,-1.131 -0.705,-1.948 0,-0.826 0.237,-1.477 0.71,-1.955 0.474,-0.478 1.116,-0.717 1.93,-0.717 0.816,0 1.461,0.239 1.934,0.717 0.473,0.478 0.71,1.126 0.71,1.946 0,0.838 -0.237,1.495 -0.712,1.969 -0.475,0.475 -1.13,0.713 -1.964,0.713 z m 0.022,-0.862 c 0.792,0 1.188,-0.607 1.188,-1.82 0,-0.556 -0.105,-0.994 -0.315,-1.317 -0.209,-0.323 -0.497,-0.484 -0.863,-0.484 -0.364,0 -0.649,0.161 -0.859,0.484 -0.21,0.323 -0.315,0.764 -0.315,1.326 0,0.556 0.104,0.997 0.313,1.323 0.207,0.326 0.491,0.488 0.851,0.488 z"
   id="path18186" /><path
   inkscape:connector-curvature="0"
   style="fill:#ffffff;fill-rule:nonzero"
   d="m 82.859,38.559 v -5.112 h 1.322 v 0.964 c 0.403,-0.72 0.977,-1.08 1.723,-1.08 0.384,0 0.701,0.094 0.949,0.284 0.248,0.189 0.401,0.455 0.456,0.796 0.478,-0.72 1.055,-1.08 1.732,-1.08 0.934,0 1.402,0.516 1.402,1.546 v 3.682 H 89.12 v -3.231 c 0,-0.605 -0.202,-0.908 -0.605,-0.908 -0.413,0 -0.815,0.298 -1.206,0.894 v 3.245 h -1.322 v -3.231 c 0,-0.608 -0.203,-0.912 -0.61,-0.912 -0.406,0 -0.805,0.299 -1.196,0.898 v 3.245 z"
   id="path18188" /><path
   inkscape:connector-curvature="0"
   style="fill:#ffffff;fill-rule:nonzero"
   d="m 92.104,38.559 v -7.351 h 1.378 v 3.203 c 0.354,-0.72 0.911,-1.08 1.672,-1.08 0.614,0 1.097,0.225 1.45,0.675 0.352,0.45 0.528,1.07 0.528,1.857 0,0.854 -0.198,1.536 -0.596,2.047 -0.397,0.51 -0.928,0.766 -1.592,0.766 -0.571,0 -1.058,-0.211 -1.462,-0.634 l -0.256,0.517 z m 1.378,-1.336 c 0.336,0.373 0.693,0.559 1.071,0.559 0.339,0 0.609,-0.164 0.81,-0.491 0.202,-0.327 0.303,-0.765 0.303,-1.311 0,-1.046 -0.337,-1.569 -1.011,-1.569 -0.406,0 -0.797,0.262 -1.173,0.787 z"
   id="path18190" /><path
   inkscape:connector-curvature="0"
   style="fill:#ffffff;fill-rule:nonzero"
   d="m 101.709,38.559 v -4.251 h -0.703 v -0.861 h 0.703 v -0.353 c 0,-0.643 0.152,-1.137 0.458,-1.484 0.305,-0.345 0.742,-0.518 1.306,-0.518 0.347,0 0.717,0.063 1.108,0.19 v 0.941 c -0.385,-0.171 -0.671,-0.256 -0.856,-0.256 -0.426,0 -0.639,0.388 -0.639,1.164 v 0.316 h 3.218 v 5.112 h -1.378 v -4.251 h -1.84 v 4.251 z m 3.444,-5.972 v -1.151 h 1.151 v 1.151 z"
   id="path18192" /><rect
   style="fill:#ffffff"
   height="7.3509998"
   width="1.3789999"
   y="31.208"
   x="108.026"
   id="rect18194" /><path
   inkscape:connector-curvature="0"
   style="fill:#ffffff;fill-rule:nonzero"
   d="m 113.762,38.532 c -0.329,0.095 -0.589,0.144 -0.778,0.144 -1.194,0 -1.793,-0.559 -1.793,-1.676 v -2.692 h -0.571 v -0.861 h 0.571 v -0.86 l 1.379,-0.159 v 1.019 h 1.094 v 0.861 h -1.094 v 2.509 c 0,0.628 0.256,0.942 0.767,0.942 0.119,0 0.26,-0.023 0.425,-0.066 z"
   id="path18196" /><path
   inkscape:connector-curvature="0"
   style="fill:#ffffff;fill-rule:nonzero"
   d="m 119.152,38.387 c -0.654,0.192 -1.275,0.289 -1.861,0.289 -0.855,0 -1.528,-0.243 -2.021,-0.727 -0.494,-0.484 -0.74,-1.145 -0.74,-1.983 0,-0.792 0.225,-1.428 0.677,-1.911 0.451,-0.483 1.048,-0.724 1.791,-0.724 0.747,0 1.293,0.236 1.638,0.707 0.345,0.472 0.516,1.219 0.516,2.239 h -3.17 c 0.093,0.976 0.629,1.463 1.606,1.463 0.463,0 0.984,-0.107 1.564,-0.321 z M 115.963,35.5 h 1.835 c 0,-0.872 -0.281,-1.307 -0.843,-1.307 -0.57,0 -0.902,0.435 -0.992,1.307 z"
   id="path18198" /><path
   inkscape:connector-curvature="0"
   style="fill:#ffffff;fill-rule:nonzero"
   d="m 120.577,38.559 v -5.112 h 1.378 v 0.964 c 0.358,-0.72 0.901,-1.08 1.629,-1.08 0.088,0 0.173,0.009 0.256,0.027 v 1.23 c -0.194,-0.071 -0.376,-0.107 -0.544,-0.107 -0.549,0 -0.996,0.278 -1.341,0.833 v 3.245 z"
   id="path18200" /><g
   id="g1195"
   style="fill:#e0d6e8"><path
     id="path18209"
     d="m 45.148,21.948 h 0.466 c 0.486,0 0.859,-0.099 1.119,-0.301 0.261,-0.201 0.39,-0.491 0.39,-0.868 0,-0.377 -0.129,-0.666 -0.39,-0.868 C 46.473,19.71 46.1,19.61 45.614,19.61 h -0.466 z m 5.422,5.247 h -3.069 l -2.353,-3.648 v 3.648 H 42.682 V 17.71 h 3.837 c 0.529,0 0.99,0.078 1.384,0.232 0.395,0.156 0.72,0.368 0.975,0.635 0.256,0.269 0.449,0.58 0.578,0.931 0.131,0.353 0.196,0.73 0.196,1.133 0,0.721 -0.174,1.306 -0.522,1.755 -0.349,0.449 -0.862,0.753 -1.541,0.912 z"
     style="fill:#e0d6e8;fill-rule:nonzero"
     inkscape:connector-curvature="0" /><path
     id="path18211"
     d="m 56.998,19.797 h -2.931 v 1.585 h 2.768 v 2.089 h -2.768 v 1.635 h 2.931 v 2.089 H 51.602 V 17.71 h 5.396 z"
     style="fill:#e0d6e8;fill-rule:nonzero"
     inkscape:connector-curvature="0" /><path
     id="path18213"
     d="m 63.98,20.137 c -0.268,-0.217 -0.537,-0.38 -0.805,-0.483 -0.269,-0.106 -0.529,-0.158 -0.78,-0.158 -0.319,0 -0.578,0.075 -0.78,0.227 -0.201,0.15 -0.302,0.347 -0.302,0.591 0,0.168 0.051,0.305 0.151,0.414 0.101,0.11 0.233,0.204 0.397,0.284 0.163,0.08 0.347,0.149 0.552,0.208 0.207,0.059 0.409,0.121 0.612,0.188 0.804,0.269 1.393,0.627 1.767,1.076 0.373,0.449 0.559,1.033 0.559,1.754 0,0.488 -0.082,0.927 -0.245,1.321 -0.163,0.395 -0.403,0.733 -0.717,1.013 -0.315,0.281 -0.7,0.499 -1.158,0.655 -0.457,0.154 -0.975,0.232 -1.553,0.232 -1.199,0 -2.311,-0.356 -3.334,-1.069 L 59.4,24.402 c 0.369,0.328 0.734,0.57 1.095,0.73 0.361,0.16 0.717,0.238 1.07,0.238 0.402,0 0.702,-0.092 0.899,-0.276 0.197,-0.185 0.296,-0.394 0.296,-0.63 0,-0.142 -0.026,-0.265 -0.075,-0.37 -0.051,-0.105 -0.135,-0.201 -0.252,-0.289 -0.118,-0.089 -0.27,-0.17 -0.459,-0.246 -0.189,-0.075 -0.417,-0.159 -0.686,-0.251 -0.319,-0.101 -0.632,-0.211 -0.937,-0.334 -0.306,-0.121 -0.579,-0.282 -0.817,-0.483 -0.24,-0.203 -0.433,-0.456 -0.58,-0.762 -0.146,-0.307 -0.219,-0.694 -0.219,-1.163 0,-0.47 0.077,-0.896 0.233,-1.277 0.154,-0.383 0.373,-0.709 0.654,-0.982 0.281,-0.272 0.624,-0.483 1.03,-0.635 0.408,-0.151 0.862,-0.227 1.366,-0.227 0.47,0 0.96,0.066 1.471,0.196 0.512,0.129 1.002,0.32 1.472,0.571 z"
     style="fill:#e0d6e8;fill-rule:nonzero"
     inkscape:connector-curvature="0" /><path
     id="path18215"
     d="m 73.729,20.88 c -0.57,-0.696 -1.274,-1.044 -2.113,-1.044 -0.369,0 -0.71,0.067 -1.025,0.201 -0.314,0.135 -0.586,0.317 -0.812,0.548 -0.227,0.23 -0.404,0.504 -0.534,0.823 -0.131,0.319 -0.195,0.663 -0.195,1.032 0,0.377 0.064,0.725 0.195,1.044 0.13,0.318 0.31,0.596 0.54,0.83 0.231,0.234 0.501,0.42 0.812,0.554 0.31,0.133 0.646,0.201 1.007,0.201 0.788,0 1.497,-0.335 2.125,-1.007 v 2.918 l -0.251,0.09 c -0.377,0.133 -0.73,0.231 -1.057,0.295 -0.327,0.063 -0.65,0.094 -0.968,0.094 -0.655,0 -1.281,-0.124 -1.881,-0.371 -0.6,-0.247 -1.128,-0.595 -1.585,-1.044 -0.458,-0.449 -0.824,-0.982 -1.101,-1.598 -0.277,-0.617 -0.416,-1.289 -0.416,-2.019 0,-0.729 0.137,-1.399 0.409,-2.006 0.273,-0.609 0.638,-1.132 1.095,-1.573 0.457,-0.44 0.988,-0.783 1.592,-1.031 0.603,-0.248 1.237,-0.372 1.899,-0.372 0.377,0 0.749,0.04 1.113,0.12 0.365,0.08 0.749,0.204 1.151,0.372 z"
     style="fill:#e0d6e8;fill-rule:nonzero"
     inkscape:connector-curvature="0" /><path
     id="path18217"
     d="m 77.579,22.452 c 0,0.378 0.071,0.726 0.214,1.044 0.142,0.318 0.336,0.596 0.578,0.831 0.244,0.235 0.526,0.417 0.85,0.546 0.322,0.131 0.664,0.196 1.025,0.196 0.36,0 0.702,-0.065 1.025,-0.196 0.323,-0.129 0.608,-0.311 0.856,-0.546 0.246,-0.235 0.442,-0.513 0.585,-0.831 0.142,-0.318 0.213,-0.666 0.213,-1.044 0,-0.377 -0.071,-0.725 -0.213,-1.044 -0.143,-0.319 -0.339,-0.596 -0.585,-0.83 -0.248,-0.234 -0.533,-0.417 -0.856,-0.547 -0.323,-0.13 -0.665,-0.195 -1.025,-0.195 -0.361,0 -0.703,0.065 -1.025,0.195 -0.324,0.13 -0.606,0.313 -0.85,0.547 -0.242,0.234 -0.436,0.511 -0.578,0.83 -0.143,0.319 -0.214,0.667 -0.214,1.044 z m -2.579,0 c 0,-0.705 0.13,-1.36 0.39,-1.969 0.26,-0.607 0.621,-1.138 1.082,-1.591 0.461,-0.453 1.012,-0.807 1.654,-1.063 0.642,-0.256 1.348,-0.384 2.12,-0.384 0.764,0 1.468,0.128 2.113,0.384 0.646,0.256 1.201,0.61 1.667,1.063 0.465,0.453 0.829,0.984 1.089,1.591 0.259,0.609 0.39,1.264 0.39,1.969 0,0.705 -0.131,1.361 -0.39,1.969 -0.26,0.608 -0.624,1.138 -1.089,1.591 -0.466,0.453 -1.021,0.807 -1.667,1.063 -0.645,0.256 -1.349,0.384 -2.113,0.384 -0.772,0 -1.478,-0.128 -2.12,-0.384 -0.642,-0.256 -1.193,-0.61 -1.654,-1.063 C 76.011,25.559 75.65,25.029 75.39,24.421 75.13,23.813 75,23.157 75,22.452 Z"
     style="fill:#e0d6e8;fill-rule:nonzero"
     inkscape:connector-curvature="0" /><path
     id="path18219"
     d="m 86.637,27.195 1.61,-9.485 h 2.44 l 1.9,5.056 1.887,-5.056 h 2.44 l 1.61,9.485 h -2.453 l -0.818,-5.46 -2.239,5.46 h -0.981 l -2.126,-5.46 -0.818,5.46 z"
     style="fill:#e0d6e8;fill-rule:nonzero"
     inkscape:connector-curvature="0" /><path
     id="path18221"
     d="m 102.549,25.282 h 0.542 c 0.62,0 1.065,-0.078 1.334,-0.238 0.267,-0.16 0.402,-0.416 0.402,-0.767 0,-0.353 -0.135,-0.609 -0.402,-0.768 -0.269,-0.159 -0.714,-0.239 -1.334,-0.239 h -0.542 z m 0,-3.849 h 0.453 c 0.773,0 1.158,-0.306 1.158,-0.918 0,-0.612 -0.385,-0.919 -1.158,-0.919 h -0.453 z m -2.465,-3.723 h 3.673 c 0.873,0 1.535,0.209 1.988,0.629 0.452,0.42 0.679,1.023 0.679,1.811 0,0.479 -0.085,0.874 -0.257,1.188 -0.172,0.316 -0.434,0.581 -0.786,0.8 0.352,0.068 0.651,0.17 0.899,0.309 0.248,0.137 0.449,0.307 0.603,0.508 0.156,0.202 0.267,0.428 0.333,0.68 0.068,0.251 0.102,0.519 0.102,0.805 0,0.444 -0.078,0.838 -0.233,1.182 -0.155,0.345 -0.373,0.634 -0.654,0.868 -0.281,0.235 -0.622,0.412 -1.026,0.529 -0.402,0.117 -0.855,0.176 -1.359,0.176 h -3.962 z"
     style="fill:#e0d6e8;fill-rule:nonzero"
     inkscape:connector-curvature="0" /></g><path
   inkscape:connector-curvature="0"
   style="fill:#0a0014;stroke:#3b0067;stroke-width:1.05999994px;stroke-linecap:butt"
   d="m 143.249,319.323 c 0,-3.321 -2.697,-6.018 -6.018,-6.018 H 90.085 c -3.321,0 -6.018,2.697 -6.018,6.018 v 31.59 c 0,3.322 2.697,6.018 6.018,6.018 h 47.146 c 3.321,0 6.018,-2.696 6.018,-6.018 z"
   id="path3131" /><rect
   style="fill:#ffffff"
   height="6.0349998"
   width="1.569"
   y="349.57501"
   x="25.395"
   id="rect3135" /><path
   inkscape:connector-curvature="0"
   style="fill:#ffffff;fill-rule:nonzero"
   d="m 28.228,355.61 v -6.035 h 1.568 l 2.898,3.69 v -3.69 h 1.56 v 6.035 h -1.56 l -2.898,-3.69 v 3.69 z"
   id="path3137" /><path
   inkscape:connector-curvature="0"
   style="fill:#ffffff;fill-rule:nonzero"
   d="m 37.087,352.344 h 0.521 c 0.576,0 0.864,-0.252 0.864,-0.752 0,-0.5 -0.288,-0.752 -0.864,-0.752 h -0.521 z m 0,3.266 h -1.568 v -6.035 h 2.497 c 0.676,0 1.196,0.176 1.556,0.529 0.361,0.352 0.541,0.848 0.541,1.488 0,0.64 -0.18,1.137 -0.541,1.489 -0.36,0.352 -0.88,0.528 -1.556,0.528 h -0.929 z"
   id="path3139" /><path
   inkscape:connector-curvature="0"
   style="fill:#ffffff;fill-rule:nonzero"
   d="m 42.514,349.575 v 3.282 c 0,0.176 0.008,0.356 0.02,0.54 0.012,0.184 0.052,0.352 0.12,0.5 0.068,0.148 0.172,0.272 0.316,0.364 0.144,0.092 0.348,0.14 0.608,0.14 0.26,0 0.464,-0.048 0.604,-0.14 0.14,-0.092 0.248,-0.216 0.316,-0.364 0.069,-0.148 0.113,-0.316 0.125,-0.5 0.012,-0.184 0.02,-0.364 0.02,-0.54 v -3.282 h 1.56 v 3.498 c 0,0.94 -0.216,1.624 -0.644,2.057 -0.428,0.432 -1.089,0.648 -1.981,0.648 -0.892,0 -1.553,-0.216 -1.985,-0.648 -0.432,-0.433 -0.648,-1.117 -0.648,-2.057 v -3.498 z"
   id="path3141" /><path
   inkscape:connector-curvature="0"
   style="fill:#ffffff;fill-rule:nonzero"
   d="m 49.757,350.904 v 4.706 h -1.569 v -4.706 h -1.289 v -1.329 h 4.146 v 1.329 z"
   id="path3143" /><path
   inkscape:connector-curvature="0"
   style="fill:#ffffff;fill-rule:nonzero"
   d="m 98.235,352.593 c 0,0.24 0.044,0.464 0.136,0.664 0.088,0.204 0.212,0.38 0.368,0.528 0.152,0.152 0.332,0.264 0.54,0.348 0.204,0.084 0.42,0.124 0.653,0.124 0.228,0 0.444,-0.04 0.652,-0.124 0.204,-0.084 0.384,-0.196 0.54,-0.348 0.16,-0.148 0.284,-0.324 0.372,-0.528 0.092,-0.2 0.136,-0.424 0.136,-0.664 0,-0.241 -0.044,-0.461 -0.136,-0.665 -0.088,-0.2 -0.212,-0.376 -0.372,-0.528 -0.156,-0.148 -0.336,-0.264 -0.54,-0.348 -0.208,-0.08 -0.424,-0.124 -0.652,-0.124 -0.233,0 -0.449,0.044 -0.653,0.124 -0.208,0.084 -0.388,0.2 -0.54,0.348 -0.156,0.152 -0.28,0.328 -0.368,0.528 -0.092,0.204 -0.136,0.424 -0.136,0.665 z m -1.641,0 c 0,-0.449 0.084,-0.865 0.248,-1.253 0.164,-0.384 0.396,-0.72 0.689,-1.008 0.292,-0.289 0.644,-0.517 1.052,-0.677 0.408,-0.164 0.856,-0.244 1.349,-0.244 0.484,0 0.932,0.08 1.34,0.244 0.412,0.16 0.764,0.388 1.061,0.677 0.296,0.288 0.528,0.624 0.692,1.008 0.168,0.388 0.248,0.804 0.248,1.253 0,0.448 -0.08,0.868 -0.248,1.252 -0.164,0.388 -0.396,0.724 -0.692,1.012 -0.297,0.289 -0.649,0.513 -1.061,0.677 -0.408,0.164 -0.856,0.244 -1.34,0.244 -0.493,0 -0.941,-0.08 -1.349,-0.244 -0.408,-0.164 -0.76,-0.388 -1.052,-0.677 -0.293,-0.288 -0.525,-0.624 -0.689,-1.012 -0.164,-0.384 -0.248,-0.804 -0.248,-1.252 z"
   id="path3148" /><path
   inkscape:connector-curvature="0"
   style="fill:#ffffff;fill-rule:nonzero"
   d="m 105.834,349.579 v 3.278 c 0,0.176 0.008,0.356 0.02,0.54 0.012,0.184 0.052,0.352 0.12,0.5 0.068,0.148 0.172,0.272 0.316,0.364 0.144,0.092 0.348,0.14 0.608,0.14 0.261,0 0.465,-0.048 0.605,-0.14 0.14,-0.092 0.244,-0.216 0.316,-0.364 0.068,-0.148 0.108,-0.316 0.124,-0.5 0.012,-0.184 0.02,-0.364 0.02,-0.54 v -3.278 h 1.561 v 3.494 c 0,0.94 -0.217,1.624 -0.645,2.057 -0.432,0.432 -1.092,0.648 -1.981,0.648 -0.892,0 -1.552,-0.216 -1.984,-0.648 -0.433,-0.433 -0.649,-1.117 -0.649,-2.057 v -3.494 z"
   id="path3150" /><path
   inkscape:connector-curvature="0"
   style="fill:#ffffff;fill-rule:nonzero"
   d="m 113.073,350.904 v 4.706 h -1.569 v -4.706 h -1.284 v -1.325 h 4.142 v 1.325 z"
   id="path3152" /><path
   inkscape:connector-curvature="0"
   style="fill:#ffffff;fill-rule:nonzero"
   d="m 116.626,352.344 h 0.521 c 0.576,0 0.864,-0.248 0.864,-0.752 0,-0.5 -0.288,-0.752 -0.864,-0.752 h -0.521 z m 0,3.266 h -1.568 v -6.031 h 2.497 c 0.676,0 1.196,0.176 1.556,0.529 0.361,0.352 0.541,0.844 0.541,1.484 0,0.64 -0.18,1.137 -0.541,1.489 -0.36,0.352 -0.88,0.528 -1.556,0.528 h -0.929 z"
   id="path3154" /><path
   inkscape:connector-curvature="0"
   style="fill:#ffffff;fill-rule:nonzero"
   d="m 122.049,349.579 v 3.278 c 0,0.176 0.008,0.356 0.02,0.54 0.016,0.184 0.056,0.352 0.12,0.5 0.068,0.148 0.172,0.272 0.316,0.364 0.144,0.092 0.348,0.14 0.608,0.14 0.264,0 0.464,-0.048 0.604,-0.14 0.14,-0.092 0.249,-0.216 0.317,-0.364 0.068,-0.148 0.112,-0.316 0.124,-0.5 0.012,-0.184 0.02,-0.364 0.02,-0.54 v -3.278 h 1.56 v 3.494 c 0,0.94 -0.216,1.624 -0.644,2.057 -0.428,0.432 -1.088,0.648 -1.981,0.648 -0.888,0 -1.552,-0.216 -1.985,-0.648 -0.432,-0.433 -0.648,-1.117 -0.648,-2.057 v -3.494 z"
   id="path3156" /><path
   inkscape:connector-curvature="0"
   style="fill:#ffffff;fill-rule:nonzero"
   d="m 129.292,350.904 v 4.706 h -1.569 v -4.706 h -1.288 v -1.325 h 4.141 v 1.325 z"
   id="path3158" /><path
   inkscape:connector-curvature="0"
   style="fill:#8c8c8c;fill-rule:nonzero"
   d="m 22.714,315.474 v 3.529 h 1.412 V 320 h -2.589 v -4.526 z"
   id="path3163" /><path
   inkscape:connector-curvature="0"
   style="fill:#8c8c8c;fill-rule:nonzero"
   d="m 51.714,317.499 h 0.224 c 0.232,0 0.408,-0.048 0.532,-0.144 0.124,-0.096 0.188,-0.236 0.188,-0.416 0,-0.181 -0.064,-0.317 -0.188,-0.413 -0.124,-0.096 -0.3,-0.144 -0.532,-0.144 H 51.714 Z M 54.303,320 h -1.465 l -1.124,-1.741 V 320 h -1.177 v -4.526 h 1.833 c 0.252,0 0.472,0.04 0.66,0.112 0.188,0.076 0.34,0.176 0.464,0.304 0.12,0.128 0.213,0.276 0.277,0.444 0.06,0.168 0.092,0.348 0.092,0.541 0,0.344 -0.084,0.624 -0.249,0.836 -0.168,0.212 -0.412,0.36 -0.736,0.436 z"
   id="path3167" /><path
   inkscape:connector-curvature="0"
   style="fill:#8c8c8c;fill-rule:nonzero"
   d="m 99.714,315.474 v 3.529 h 1.412 V 320 h -2.589 v -4.526 z"
   id="path3171" /><path
   inkscape:connector-curvature="0"
   style="fill:#8c8c8c;fill-rule:nonzero"
   d="m 125.714,317.499 h 0.224 c 0.232,0 0.408,-0.048 0.532,-0.144 0.124,-0.096 0.188,-0.236 0.188,-0.416 0,-0.181 -0.064,-0.317 -0.188,-0.413 -0.124,-0.096 -0.3,-0.144 -0.532,-0.144 h -0.224 z m 2.589,2.501 h -1.465 l -1.124,-1.741 V 320 h -1.177 v -4.526 h 1.833 c 0.252,0 0.472,0.04 0.66,0.112 0.188,0.076 0.34,0.176 0.464,0.304 0.12,0.128 0.213,0.276 0.277,0.444 0.06,0.168 0.092,0.348 0.092,0.541 0,0.344 -0.084,0.624 -0.249,0.836 -0.168,0.212 -0.412,0.36 -0.736,0.436 z"
   id="path3175" />
</svg>