<?xml version="1.0" encoding="UTF-8" standalone="no"?>
<svg
   xmlns:dc="http://purl.org/dc/elements/1.1/"
   xmlns:cc="http://creativecommons.org/ns#"
   xmlns:rdf="http://www.w3.org/1999/02/22-rdf-syntax-ns#"
   xmlns:svg="http://www.w3.org/2000/svg"
   xmlns="http://www.w3.org/2000/svg"
   xmlns:sodipodi="http://sodipodi.sourceforge.net/DTD/sodipodi-0.dtd"
   xmlns:inkscape="http://www.inkscape.org/namespaces/inkscape"
   width="150px"
   height="380px"
   version="1.1"
   xml:space="preserve"
   style="fill-rule:evenodd;clip-rule:evenodd;"
   id="svg1109"
   sodipodi:docname="Tangents.svg"
   inkscape:version="0.92.3 (2405546, 2018-03-11)"><metadata
   id="metadata1113"><rdf:RDF><cc:Work
       rdf:about=""><dc:format>image/svg+xml</dc:format><dc:type
         rdf:resource="http://purl.org/dc/dcmitype/StillImage" /><dc:title /></cc:Work></rdf:RDF></metadata><sodipodi:namedview
   pagecolor="#ffffff"
   bordercolor="#666666"
   borderopacity="1"
   objecttolerance="10"
   gridtolerance="10"
   guidetolerance="10"
   inkscape:pageopacity="0"
   inkscape:pageshadow="2"
   inkscape:window-width="1920"
   inkscape:window-height="1017"
   id="namedview1111"
   showgrid="false"
   inkscape:zoom="8.8421052"
   inkscape:cx="120.21753"
   inkscape:cy="152.9173"
   inkscape:window-x="1912"
   inkscape:window-y="-8"
   inkscape:window-maximized="1"
   inkscape:current-layer="svg1109" />
  <defs
   id="defs970">
    <linearGradient
   id="_Linear1"
   x1="0"
   y1="0"
   x2="1"
   y2="0"
   gradientUnits="userSpaceOnUse"
   gradientTransform="matrix(150,-379.998,379.998,150,3.28145e-4,379.998)">
      <stop
   offset="0"
   style="stop-color:#0b0019;stop-opacity:1"
   id="stop965" />
      <stop
   offset="1"
   style="stop-color:#170028;stop-opacity:1"
   id="stop967" />
    </linearGradient>
  
    
    
    
    
    
    
    
    
    
    
    
    
    
    
    
    
    
    
    
    
    
    
    
    
    
    
    
    
    
    
    
    
    
    
    
    
    
    
    
    
    
    
    
    
    
    
    
    
    
    
    
    
    
    
    
    
    
    
    
    
    
    
    
    
    
    
    
    
    
    
    
    
    
    
    
    
    
    
    
    
    
    
    
    
    
    
    
    
    
    
    
    
    
    
    
    
    
    
    
    
    
    
    
    
    
    
    
    
    
    
    
    
    
    
    
    
    
    
    
    
    
    
    
    
    
    
    
    
    
    
    
  </defs>
  <rect
   style="fill:url(#_Linear1)"
   height="379.99799"
   width="150"
   y="0"
   x="0"
   id="rect23233" /><path
   inkscape:connector-curvature="0"
   style="fill:#0a0014;stroke:#3b0067;stroke-width:1px"
   d="m 136.359,277.779 c 0,-2.887 -2.343,-5.231 -5.231,-5.231 h -27.453 c -2.887,0 -5.231,2.344 -5.231,5.231 v 28.923 c 0,2.886 2.344,5.23 5.231,5.23 h 27.453 c 2.888,0 5.231,-2.344 5.231,-5.23 z"
   id="path23236" /><path
   inkscape:connector-curvature="0"
   style="fill:none;stroke:#cccccc;stroke-width:1px;stroke-linecap:round"
   d="m 126.904,77.593 c 2.737,-4.742 1.664,-10.824 -2.534,-14.346 -4.193,-3.521 -10.372,-3.521 -14.566,0 -4.197,3.522 -5.27,9.604 -2.533,14.346 l 9.816,-5.666 z"
   id="path23240" /><path
   inkscape:connector-curvature="0"
   style="fill:#cccccc;fill-rule:nonzero;stroke:#cccccc;stroke-width:1px;stroke-linecap:round"
   d="m 126.531,78.79 0.024,4.409"
   id="path23243" /><path
   inkscape:connector-curvature="0"
   style="fill:#cccccc;fill-rule:nonzero;stroke:#cccccc;stroke-width:1px;stroke-linecap:round"
   d="m 128.748,80.963 -4.41,0.02"
   id="path23246" /><path
   inkscape:connector-curvature="0"
   style="fill:#cccccc;fill-rule:nonzero;stroke:#cccccc;stroke-width:1px;stroke-linecap:round"
   d="m 110.429,80.839 -4.414,0.02"
   id="path23249" /><path
   inkscape:connector-curvature="0"
   style="fill:none;stroke:#cccccc;stroke-width:1px;stroke-linecap:round"
   d="m 117.087,71.931 -0.024,-13.31"
   id="path23252" /><path
   inkscape:connector-curvature="0"
   style="fill:#ffffff;fill-rule:nonzero"
   d="m 44.683,123.163 c -0.364,-0.444 -0.812,-0.664 -1.345,-0.664 -0.236,0 -0.452,0.044 -0.652,0.128 -0.2,0.084 -0.372,0.2 -0.516,0.348 -0.144,0.148 -0.256,0.32 -0.34,0.524 -0.084,0.204 -0.124,0.42 -0.124,0.657 0,0.24 0.04,0.46 0.124,0.664 0.084,0.204 0.196,0.38 0.344,0.528 0.148,0.148 0.32,0.268 0.516,0.352 0.196,0.084 0.412,0.128 0.64,0.128 0.501,0 0.953,-0.212 1.353,-0.64 v 1.857 l -0.16,0.056 c -0.24,0.084 -0.464,0.148 -0.672,0.188 -0.209,0.04 -0.413,0.06 -0.617,0.06 -0.416,0 -0.816,-0.08 -1.196,-0.236 -0.38,-0.156 -0.717,-0.38 -1.009,-0.665 -0.292,-0.284 -0.524,-0.624 -0.7,-1.016 -0.176,-0.392 -0.264,-0.82 -0.264,-1.284 0,-0.465 0.088,-0.889 0.26,-1.277 0.172,-0.388 0.404,-0.72 0.696,-1 0.292,-0.281 0.629,-0.501 1.013,-0.657 0.384,-0.156 0.788,-0.236 1.208,-0.236 0.24,0 0.476,0.024 0.709,0.076 0.232,0.052 0.476,0.128 0.732,0.236 z"
   id="path23255" /><path
   inkscape:connector-curvature="0"
   style="fill:#ffffff;fill-rule:nonzero"
   d="m 47.244,121.146 v 3.282 c 0,0.176 0.008,0.356 0.02,0.54 0.012,0.184 0.052,0.352 0.12,0.5 0.068,0.148 0.172,0.272 0.316,0.364 0.144,0.092 0.348,0.14 0.608,0.14 0.26,0 0.465,-0.048 0.605,-0.14 0.14,-0.092 0.248,-0.216 0.316,-0.364 0.068,-0.148 0.112,-0.316 0.124,-0.5 0.012,-0.184 0.02,-0.364 0.02,-0.54 v -3.282 h 1.56 v 3.498 c 0,0.94 -0.216,1.624 -0.644,2.057 -0.428,0.432 -1.088,0.648 -1.981,0.648 -0.892,0 -1.552,-0.216 -1.984,-0.648 -0.433,-0.433 -0.649,-1.117 -0.649,-2.057 v -3.498 z"
   id="path23257" /><path
   inkscape:connector-curvature="0"
   style="fill:#ffffff;fill-rule:nonzero"
   d="m 54.487,122.475 v 4.706 h -1.569 v -4.706 H 51.63 v -1.329 h 4.145 v 1.329 z"
   id="path23259" /><path
   inkscape:connector-curvature="0"
   style="fill:#ffffff;fill-rule:nonzero"
   d="m 57.784,124.164 c 0,0.24 0.044,0.46 0.136,0.664 0.092,0.204 0.212,0.38 0.369,0.528 0.156,0.148 0.336,0.264 0.54,0.348 0.204,0.084 0.424,0.124 0.652,0.124 0.228,0 0.448,-0.04 0.652,-0.124 0.204,-0.084 0.388,-0.2 0.545,-0.348 0.156,-0.148 0.28,-0.324 0.372,-0.528 0.092,-0.204 0.136,-0.424 0.136,-0.664 0,-0.241 -0.044,-0.461 -0.136,-0.665 -0.092,-0.204 -0.216,-0.38 -0.372,-0.528 -0.157,-0.148 -0.341,-0.264 -0.545,-0.348 -0.204,-0.084 -0.424,-0.124 -0.652,-0.124 -0.228,0 -0.448,0.04 -0.652,0.124 -0.204,0.084 -0.384,0.2 -0.54,0.348 -0.157,0.148 -0.277,0.324 -0.369,0.528 -0.092,0.204 -0.136,0.424 -0.136,0.665 z m -1.64,0 c 0,-0.449 0.084,-0.865 0.248,-1.253 0.164,-0.388 0.396,-0.724 0.688,-1.012 0.292,-0.289 0.644,-0.513 1.052,-0.677 0.409,-0.164 0.857,-0.244 1.349,-0.244 0.484,0 0.932,0.08 1.345,0.244 0.412,0.164 0.764,0.388 1.06,0.677 0.296,0.288 0.528,0.624 0.692,1.012 0.164,0.388 0.248,0.804 0.248,1.253 0,0.448 -0.084,0.864 -0.248,1.252 -0.164,0.388 -0.396,0.724 -0.692,1.012 -0.296,0.289 -0.648,0.513 -1.06,0.677 -0.413,0.164 -0.861,0.244 -1.345,0.244 -0.492,0 -0.94,-0.08 -1.349,-0.244 -0.408,-0.164 -0.76,-0.388 -1.052,-0.677 -0.292,-0.288 -0.524,-0.624 -0.688,-1.012 -0.164,-0.388 -0.248,-0.804 -0.248,-1.252 z"
   id="path23261" /><path
   inkscape:connector-curvature="0"
   style="fill:#ffffff;fill-rule:nonzero"
   d="m 67.276,122.475 h -1.889 v 1.008 h 1.721 v 1.329 h -1.721 v 2.369 h -1.568 v -6.035 h 3.457 z"
   id="path23263" /><path
   inkscape:connector-curvature="0"
   style="fill:#ffffff;fill-rule:nonzero"
   d="m 71.67,122.475 h -1.889 v 1.008 h 1.721 v 1.329 h -1.721 v 2.369 h -1.568 v -6.035 h 3.457 z"
   id="path23265" /><path
   inkscape:connector-curvature="0"
   style="fill:none;stroke:#cccccc;stroke-width:1px;stroke-linecap:round"
   d="m 126.904,77.593 c 2.737,-4.742 1.664,-10.824 -2.534,-14.346 -4.193,-3.521 -10.372,-3.521 -14.566,0 -4.197,3.522 -5.27,9.604 -2.533,14.346 l 9.816,-5.666 z"
   id="path23270" /><path
   inkscape:connector-curvature="0"
   style="fill:#cccccc;fill-rule:nonzero;stroke:#cccccc;stroke-width:1px;stroke-linecap:round"
   d="m 126.531,78.79 0.024,4.409"
   id="path23273" /><path
   inkscape:connector-curvature="0"
   style="fill:#cccccc;fill-rule:nonzero;stroke:#cccccc;stroke-width:1px;stroke-linecap:round"
   d="m 128.748,80.963 -4.41,0.02"
   id="path23276" /><path
   inkscape:connector-curvature="0"
   style="fill:#cccccc;fill-rule:nonzero;stroke:#cccccc;stroke-width:1px;stroke-linecap:round"
   d="m 110.429,80.839 -4.414,0.02"
   id="path23279" /><path
   inkscape:connector-curvature="0"
   style="fill:none;stroke:#cccccc;stroke-width:1px;stroke-linecap:round"
   d="m 117.087,71.931 -0.024,-13.31"
   id="path23282" /><path
   inkscape:connector-curvature="0"
   style="fill:none;stroke:#cccccc;stroke-width:1.5px;stroke-linecap:round"
   d="M 84.739,103.173 C 92.96,88.93 89.742,70.664 77.144,60.092 64.547,49.526 45.995,49.526 33.397,60.092 20.8,70.664 17.582,88.93 25.803,103.173"
   id="path23285" /><circle
   style="fill:none;stroke:#cccccc;stroke-width:1px"
   r="3.7060001"
   cy="112.44"
   cx="26.173"
   id="circle23288" /><circle
   style="fill:#cccccc;stroke:#cccccc;stroke-width:1px"
   r="3.7060001"
   cy="111.928"
   cx="84.952003"
   id="circle23291" /><path
   inkscape:connector-curvature="0"
   style="fill:none;stroke:#cccccc;stroke-width:1px;stroke-linecap:round"
   d="m 126.904,155.662 c 2.737,-4.742 1.664,-10.824 -2.534,-14.346 -4.193,-3.521 -10.372,-3.521 -14.566,0 -4.197,3.522 -5.27,9.604 -2.533,14.346 l 9.816,-5.666 z"
   id="path23294" /><path
   inkscape:connector-curvature="0"
   style="fill:#cccccc;fill-rule:nonzero;stroke:#cccccc;stroke-width:1px;stroke-linecap:round"
   d="m 126.531,156.859 0.024,4.409"
   id="path23297" /><path
   inkscape:connector-curvature="0"
   style="fill:#cccccc;fill-rule:nonzero;stroke:#cccccc;stroke-width:1px;stroke-linecap:round"
   d="m 128.748,159.032 -4.41,0.02"
   id="path23300" /><path
   inkscape:connector-curvature="0"
   style="fill:#cccccc;fill-rule:nonzero;stroke:#cccccc;stroke-width:1px;stroke-linecap:round"
   d="m 110.429,158.908 -4.414,0.02"
   id="path23303" /><path
   inkscape:connector-curvature="0"
   style="fill:none;stroke:#cccccc;stroke-width:1px;stroke-linecap:round"
   d="m 117.087,150 -0.024,-13.31"
   id="path23306" /><path
   inkscape:connector-curvature="0"
   style="fill:#ffffff;fill-rule:nonzero"
   d="m 30.66,191.739 h 0.296 c 0.308,0 0.548,-0.064 0.712,-0.192 0.164,-0.128 0.248,-0.312 0.248,-0.552 0,-0.24 -0.084,-0.424 -0.248,-0.552 -0.164,-0.128 -0.404,-0.192 -0.712,-0.192 H 30.66 Z m 3.449,3.338 h -1.953 l -1.496,-2.321 v 2.321 h -1.569 v -6.035 h 2.441 c 0.336,0 0.628,0.048 0.881,0.148 0.252,0.1 0.456,0.232 0.62,0.405 0.164,0.172 0.284,0.368 0.368,0.592 0.084,0.224 0.124,0.464 0.124,0.72 0,0.46 -0.112,0.832 -0.332,1.117 -0.22,0.284 -0.548,0.48 -0.981,0.58 z"
   id="path23309" /><path
   inkscape:connector-curvature="0"
   style="fill:#ffffff;fill-rule:nonzero"
   d="m 38.199,190.371 h -1.865 v 1.008 h 1.761 v 1.329 h -1.761 v 1.04 h 1.865 v 1.329 h -3.433 v -6.035 h 3.433 z"
   id="path23311" /><path
   inkscape:connector-curvature="0"
   style="fill:#ffffff;fill-rule:nonzero"
   d="m 42.641,190.587 c -0.172,-0.14 -0.34,-0.24 -0.512,-0.308 -0.173,-0.068 -0.337,-0.1 -0.497,-0.1 -0.204,0 -0.368,0.048 -0.496,0.144 -0.128,0.096 -0.192,0.22 -0.192,0.376 0,0.108 0.032,0.196 0.096,0.264 0.064,0.068 0.148,0.128 0.252,0.18 0.104,0.052 0.22,0.096 0.352,0.132 0.132,0.036 0.26,0.076 0.389,0.12 0.512,0.172 0.888,0.4 1.124,0.685 0.236,0.284 0.356,0.656 0.356,1.116 0,0.308 -0.052,0.588 -0.156,0.84 -0.104,0.252 -0.256,0.465 -0.456,0.645 -0.2,0.18 -0.444,0.316 -0.736,0.416 -0.293,0.1 -0.621,0.148 -0.989,0.148 -0.764,0 -1.468,-0.228 -2.121,-0.68 l 0.673,-1.265 c 0.236,0.208 0.468,0.364 0.696,0.464 0.228,0.1 0.456,0.152 0.68,0.152 0.256,0 0.448,-0.06 0.572,-0.176 0.124,-0.116 0.188,-0.252 0.188,-0.4 0,-0.092 -0.016,-0.168 -0.048,-0.236 -0.032,-0.068 -0.084,-0.128 -0.16,-0.184 -0.076,-0.056 -0.172,-0.108 -0.292,-0.156 -0.12,-0.048 -0.264,-0.1 -0.436,-0.16 -0.204,-0.064 -0.4,-0.136 -0.596,-0.212 -0.196,-0.076 -0.368,-0.18 -0.52,-0.308 -0.152,-0.128 -0.277,-0.289 -0.369,-0.485 -0.092,-0.196 -0.14,-0.44 -0.14,-0.74 0,-0.3 0.048,-0.568 0.148,-0.812 0.101,-0.244 0.237,-0.452 0.417,-0.625 0.18,-0.172 0.396,-0.308 0.656,-0.404 0.26,-0.096 0.548,-0.144 0.868,-0.144 0.3,0 0.613,0.04 0.937,0.124 0.324,0.084 0.636,0.204 0.936,0.364 z"
   id="path23313" /><path
   inkscape:connector-curvature="0"
   style="fill:#ffffff;fill-rule:nonzero"
   d="m 45.866,192.06 c 0,0.24 0.044,0.46 0.136,0.664 0.092,0.204 0.212,0.38 0.368,0.528 0.156,0.148 0.336,0.264 0.541,0.348 0.204,0.084 0.424,0.124 0.652,0.124 0.228,0 0.448,-0.04 0.652,-0.124 0.204,-0.084 0.388,-0.2 0.544,-0.348 0.156,-0.148 0.28,-0.324 0.372,-0.528 0.093,-0.204 0.137,-0.424 0.137,-0.664 0,-0.241 -0.044,-0.461 -0.137,-0.665 -0.092,-0.204 -0.216,-0.38 -0.372,-0.528 -0.156,-0.148 -0.34,-0.264 -0.544,-0.348 -0.204,-0.084 -0.424,-0.124 -0.652,-0.124 -0.228,0 -0.448,0.04 -0.652,0.124 -0.205,0.084 -0.385,0.2 -0.541,0.348 -0.156,0.148 -0.276,0.324 -0.368,0.528 -0.092,0.204 -0.136,0.424 -0.136,0.665 z m -1.641,0 c 0,-0.449 0.084,-0.865 0.249,-1.253 0.164,-0.388 0.396,-0.724 0.688,-1.012 0.292,-0.289 0.644,-0.513 1.052,-0.677 0.408,-0.164 0.857,-0.244 1.349,-0.244 0.484,0 0.932,0.08 1.344,0.244 0.413,0.164 0.765,0.388 1.061,0.677 0.296,0.288 0.528,0.624 0.692,1.012 0.164,0.388 0.248,0.804 0.248,1.253 0,0.448 -0.084,0.864 -0.248,1.252 -0.164,0.388 -0.396,0.724 -0.692,1.012 -0.296,0.289 -0.648,0.513 -1.061,0.677 -0.412,0.164 -0.86,0.244 -1.344,0.244 -0.492,0 -0.941,-0.08 -1.349,-0.244 -0.408,-0.164 -0.76,-0.388 -1.052,-0.677 -0.292,-0.288 -0.524,-0.624 -0.688,-1.012 -0.165,-0.388 -0.249,-0.804 -0.249,-1.252 z"
   id="path23315" /><path
   inkscape:connector-curvature="0"
   style="fill:#ffffff;fill-rule:nonzero"
   d="m 51.901,195.077 v -6.035 h 1.568 l 2.897,3.69 v -3.69 h 1.561 v 6.035 h -1.561 l -2.897,-3.69 v 3.69 z"
   id="path23317" /><path
   inkscape:connector-curvature="0"
   style="fill:#ffffff;fill-rule:nonzero"
   d="m 62.489,192.836 -0.704,-2.009 -0.705,2.009 z m 0.416,1.192 h -2.241 l -0.36,1.049 h -1.673 l 2.297,-6.035 h 1.713 l 2.297,6.035 h -1.673 z"
   id="path23319" /><path
   inkscape:connector-curvature="0"
   style="fill:#ffffff;fill-rule:nonzero"
   d="m 65.626,195.077 v -6.035 h 1.569 l 2.897,3.69 v -3.69 h 1.561 v 6.035 h -1.561 l -2.897,-3.69 v 3.69 z"
   id="path23321" /><path
   inkscape:connector-curvature="0"
   style="fill:#ffffff;fill-rule:nonzero"
   d="m 77.343,191.059 c -0.364,-0.444 -0.812,-0.664 -1.344,-0.664 -0.236,0 -0.453,0.044 -0.653,0.128 -0.2,0.084 -0.372,0.2 -0.516,0.348 -0.144,0.148 -0.256,0.32 -0.34,0.524 -0.084,0.204 -0.124,0.42 -0.124,0.657 0,0.24 0.04,0.46 0.124,0.664 0.084,0.204 0.196,0.38 0.344,0.528 0.148,0.148 0.32,0.268 0.516,0.352 0.196,0.084 0.413,0.128 0.641,0.128 0.5,0 0.952,-0.212 1.352,-0.64 v 1.857 l -0.16,0.056 c -0.24,0.084 -0.464,0.148 -0.672,0.188 -0.208,0.04 -0.412,0.06 -0.616,0.06 -0.417,0 -0.817,-0.08 -1.197,-0.236 -0.38,-0.156 -0.716,-0.38 -1.008,-0.665 -0.292,-0.284 -0.525,-0.624 -0.701,-1.016 -0.176,-0.392 -0.264,-0.82 -0.264,-1.284 0,-0.465 0.088,-0.889 0.26,-1.277 0.172,-0.388 0.405,-0.72 0.697,-1 0.292,-0.281 0.628,-0.501 1.012,-0.657 0.384,-0.156 0.788,-0.236 1.209,-0.236 0.24,0 0.476,0.024 0.708,0.076 0.232,0.052 0.476,0.128 0.732,0.236 z"
   id="path23323" /><path
   inkscape:connector-curvature="0"
   style="fill:#ffffff;fill-rule:nonzero"
   d="m 81.769,190.371 h -1.865 v 1.008 h 1.761 v 1.329 h -1.761 v 1.04 h 1.865 v 1.329 h -3.433 v -6.035 h 3.433 z"
   id="path23325" /><path
   inkscape:connector-curvature="0"
   style="fill:none;stroke:#cccccc;stroke-width:1px;stroke-linecap:round"
   d="m 126.904,155.662 c 2.737,-4.742 1.664,-10.824 -2.534,-14.346 -4.193,-3.521 -10.372,-3.521 -14.566,0 -4.197,3.522 -5.27,9.604 -2.533,14.346 l 9.816,-5.666 z"
   id="path23330" /><path
   inkscape:connector-curvature="0"
   style="fill:#cccccc;fill-rule:nonzero;stroke:#cccccc;stroke-width:1px;stroke-linecap:round"
   d="m 126.531,156.859 0.024,4.409"
   id="path23333" /><path
   inkscape:connector-curvature="0"
   style="fill:#cccccc;fill-rule:nonzero;stroke:#cccccc;stroke-width:1px;stroke-linecap:round"
   d="m 128.748,159.032 -4.41,0.02"
   id="path23336" /><path
   inkscape:connector-curvature="0"
   style="fill:#cccccc;fill-rule:nonzero;stroke:#cccccc;stroke-width:1px;stroke-linecap:round"
   d="m 110.429,158.908 -4.414,0.02"
   id="path23339" /><path
   inkscape:connector-curvature="0"
   style="fill:none;stroke:#cccccc;stroke-width:1px;stroke-linecap:round"
   d="m 117.087,150 -0.024,-13.31"
   id="path23342" /><path
   inkscape:connector-curvature="0"
   style="fill:none;stroke:#cccccc;stroke-width:1.5px;stroke-linecap:round"
   d="m 75.383,173.241 c 5.878,-10.184 3.577,-23.245 -5.431,-30.804 -9.007,-7.556 -22.273,-7.556 -31.281,0 -9.007,7.559 -11.308,20.62 -5.43,30.804"
   id="path23345" /><circle
   style="fill:none;stroke:#cccccc;stroke-width:1px"
   r="3.7060001"
   cy="182.509"
   cx="36.173"
   id="circle23348" /><circle
   style="fill:#cccccc;stroke:#cccccc;stroke-width:1px"
   r="3.7060001"
   cy="181.99699"
   cx="73.952003"
   id="circle23351" /><path
   inkscape:connector-curvature="0"
   style="fill:none;stroke:#cccccc;stroke-width:1.5px;stroke-linecap:round"
   d="m 75.383,242.241 c 5.878,-10.184 3.577,-23.245 -5.431,-30.804 -9.007,-7.556 -22.273,-7.556 -31.281,0 -9.007,7.559 -11.308,20.62 -5.43,30.804"
   id="path23356" /><circle
   style="fill:none;stroke:#cccccc;stroke-width:1px"
   r="3.7060001"
   cy="251.509"
   cx="36.173"
   id="circle23359" /><circle
   style="fill:#cccccc;stroke:#cccccc;stroke-width:1px"
   r="3.7060001"
   cy="250.99699"
   cx="73.952003"
   id="circle23362" /><path
   inkscape:connector-curvature="0"
   style="fill:#ffffff;fill-rule:nonzero"
   d="m 101.642,305.631 c 0,0.24 0.044,0.46 0.136,0.664 0.092,0.204 0.212,0.38 0.368,0.528 0.156,0.148 0.336,0.264 0.54,0.348 0.204,0.084 0.424,0.124 0.652,0.124 0.228,0 0.449,-0.04 0.653,-0.124 0.204,-0.084 0.388,-0.2 0.544,-0.348 0.156,-0.148 0.28,-0.324 0.372,-0.528 0.092,-0.204 0.136,-0.424 0.136,-0.664 0,-0.241 -0.044,-0.461 -0.136,-0.665 -0.092,-0.204 -0.216,-0.38 -0.372,-0.528 -0.156,-0.148 -0.34,-0.264 -0.544,-0.348 -0.204,-0.084 -0.425,-0.124 -0.653,-0.124 -0.228,0 -0.448,0.04 -0.652,0.124 -0.204,0.084 -0.384,0.2 -0.54,0.348 -0.156,0.148 -0.276,0.324 -0.368,0.528 -0.092,0.204 -0.136,0.424 -0.136,0.665 z m -1.641,0 c 0,-0.449 0.084,-0.865 0.248,-1.253 0.164,-0.388 0.396,-0.724 0.688,-1.012 0.292,-0.289 0.645,-0.513 1.053,-0.677 0.408,-0.164 0.856,-0.244 1.348,-0.244 0.485,0 0.933,0.08 1.345,0.244 0.412,0.164 0.764,0.388 1.06,0.677 0.296,0.288 0.529,0.624 0.693,1.012 0.164,0.388 0.248,0.804 0.248,1.253 0,0.448 -0.084,0.864 -0.248,1.252 -0.164,0.388 -0.397,0.724 -0.693,1.012 -0.296,0.289 -0.648,0.513 -1.06,0.677 -0.412,0.164 -0.86,0.244 -1.345,0.244 -0.492,0 -0.94,-0.08 -1.348,-0.244 -0.408,-0.164 -0.761,-0.388 -1.053,-0.677 -0.292,-0.288 -0.524,-0.624 -0.688,-1.012 -0.164,-0.388 -0.248,-0.804 -0.248,-1.252 z"
   id="path23367" /><path
   inkscape:connector-curvature="0"
   style="fill:#ffffff;fill-rule:nonzero"
   d="m 109.245,302.613 v 3.282 c 0,0.176 0.008,0.356 0.02,0.54 0.012,0.184 0.052,0.352 0.12,0.5 0.068,0.148 0.172,0.272 0.316,0.364 0.144,0.092 0.348,0.14 0.608,0.14 0.26,0 0.464,-0.048 0.604,-0.14 0.141,-0.092 0.249,-0.216 0.317,-0.364 0.068,-0.148 0.112,-0.316 0.124,-0.5 0.012,-0.184 0.02,-0.364 0.02,-0.54 v -3.282 h 1.56 v 3.498 c 0,0.94 -0.216,1.624 -0.644,2.057 -0.428,0.432 -1.088,0.648 -1.981,0.648 -0.892,0 -1.552,-0.216 -1.985,-0.648 -0.432,-0.433 -0.648,-1.117 -0.648,-2.057 v -3.498 z"
   id="path23369" /><path
   inkscape:connector-curvature="0"
   style="fill:#ffffff;fill-rule:nonzero"
   d="m 116.488,303.942 v 4.706 h -1.569 v -4.706 h -1.288 v -1.329 h 4.145 v 1.329 z"
   id="path23371" /><path
   inkscape:connector-curvature="0"
   style="fill:#ffffff;fill-rule:nonzero"
   d="m 120.041,305.382 h 0.52 c 0.577,0 0.865,-0.252 0.865,-0.752 0,-0.5 -0.288,-0.752 -0.865,-0.752 h -0.52 z m 0,3.266 h -1.568 v -6.035 h 2.497 c 0.676,0 1.196,0.176 1.556,0.529 0.36,0.352 0.541,0.848 0.541,1.488 0,0.64 -0.181,1.137 -0.541,1.489 -0.36,0.352 -0.88,0.528 -1.556,0.528 h -0.929 z"
   id="path23373" /><path
   inkscape:connector-curvature="0"
   style="fill:#ffffff;fill-rule:nonzero"
   d="m 125.468,302.613 v 3.282 c 0,0.176 0.008,0.356 0.02,0.54 0.012,0.184 0.052,0.352 0.12,0.5 0.068,0.148 0.172,0.272 0.316,0.364 0.144,0.092 0.348,0.14 0.608,0.14 0.26,0 0.464,-0.048 0.604,-0.14 0.14,-0.092 0.248,-0.216 0.316,-0.364 0.068,-0.148 0.112,-0.316 0.124,-0.5 0.012,-0.184 0.02,-0.364 0.02,-0.54 v -3.282 h 1.561 v 3.498 c 0,0.94 -0.216,1.624 -0.644,2.057 -0.428,0.432 -1.089,0.648 -1.981,0.648 -0.892,0 -1.553,-0.216 -1.985,-0.648 -0.432,-0.433 -0.648,-1.117 -0.648,-2.057 v -3.498 z"
   id="path23375" /><path
   inkscape:connector-curvature="0"
   style="fill:#ffffff;fill-rule:nonzero"
   d="m 132.711,303.942 v 4.706 h -1.569 v -4.706 h -1.289 v -1.329 h 4.146 v 1.329 z"
   id="path23377" /><path
   inkscape:connector-curvature="0"
   style="fill:#ffffff;fill-rule:nonzero"
   d="m 30.132,352.613 v 4.706 h 1.881 v 1.329 h -3.449 v -6.035 z"
   id="path23382" /><path
   inkscape:connector-curvature="0"
   style="fill:#ffffff;fill-rule:nonzero"
   d="m 34.39,355.382 h 0.52 c 0.577,0 0.865,-0.252 0.865,-0.752 0,-0.5 -0.288,-0.752 -0.865,-0.752 h -0.52 z m 0,3.266 h -1.568 v -6.035 h 2.497 c 0.676,0 1.196,0.176 1.556,0.529 0.36,0.352 0.54,0.848 0.54,1.488 0,0.64 -0.18,1.137 -0.54,1.489 -0.36,0.352 -0.88,0.528 -1.556,0.528 H 34.39 Z"
   id="path23384" /><path
   inkscape:connector-curvature="0"
   style="fill:#ffffff;fill-rule:nonzero"
   d="m 113.733,354.942 h 2.265 v -2.329 h 1.569 v 6.035 h -1.569 v -2.489 h -2.265 v 2.489 h -1.569 v -6.035 h 1.569 z"
   id="path23389" /><path
   inkscape:connector-curvature="0"
   style="fill:#ffffff;fill-rule:nonzero"
   d="m 120.4,355.382 h 0.52 c 0.576,0 0.864,-0.252 0.864,-0.752 0,-0.5 -0.288,-0.752 -0.864,-0.752 h -0.52 z m 0,3.266 h -1.569 v -6.035 h 2.497 c 0.676,0 1.197,0.176 1.557,0.529 0.36,0.352 0.54,0.848 0.54,1.488 0,0.64 -0.18,1.137 -0.54,1.489 -0.36,0.352 -0.881,0.528 -1.557,0.528 H 120.4 Z"
   id="path23391" /><path
   inkscape:connector-curvature="0"
   style="fill:#ffffff;fill-rule:nonzero"
   d="m 71.503,357.431 h 0.344 c 0.396,0 0.676,-0.052 0.848,-0.152 0.172,-0.1 0.256,-0.264 0.256,-0.488 0,-0.224 -0.084,-0.388 -0.256,-0.488 -0.172,-0.1 -0.452,-0.152 -0.848,-0.152 h -0.344 z m 0,-2.449 h 0.288 c 0.492,0 0.736,-0.196 0.736,-0.584 0,-0.388 -0.244,-0.584 -0.736,-0.584 h -0.288 z m -1.569,-2.369 h 2.337 c 0.556,0 0.976,0.132 1.264,0.4 0.288,0.269 0.433,0.653 0.433,1.153 0,0.304 -0.056,0.556 -0.165,0.756 -0.108,0.2 -0.276,0.368 -0.5,0.508 0.224,0.044 0.416,0.109 0.572,0.197 0.157,0.088 0.285,0.196 0.385,0.324 0.1,0.128 0.168,0.272 0.212,0.432 0.044,0.16 0.064,0.332 0.064,0.512 0,0.284 -0.048,0.532 -0.148,0.752 -0.1,0.22 -0.236,0.405 -0.416,0.553 -0.181,0.148 -0.397,0.26 -0.653,0.336 -0.256,0.076 -0.544,0.112 -0.864,0.112 h -2.521 z"
   id="path23396" /><path
   inkscape:connector-curvature="0"
   style="fill:#ffffff;fill-rule:nonzero"
   d="m 77.041,355.382 h 0.52 c 0.576,0 0.864,-0.252 0.864,-0.752 0,-0.5 -0.288,-0.752 -0.864,-0.752 h -0.52 z m 0,3.266 h -1.569 v -6.035 h 2.497 c 0.676,0 1.197,0.176 1.557,0.529 0.36,0.352 0.54,0.848 0.54,1.488 0,0.64 -0.18,1.137 -0.54,1.489 -0.36,0.352 -0.881,0.528 -1.557,0.528 h -0.928 z"
   id="path23398" /><rect
   style="fill:#808080"
   height="6.0349998"
   width="1.569"
   y="316.539"
   x="60.174999"
   id="rect23403" /><path
   inkscape:connector-curvature="0"
   style="fill:#808080;fill-rule:nonzero"
   d="m 63.008,322.574 v -6.035 h 1.569 l 2.897,3.69 v -3.69 h 1.56 v 6.035 h -1.56 l -2.897,-3.69 v 3.69 z"
   id="path23405" /><path
   inkscape:connector-curvature="0"
   style="fill:#808080;fill-rule:nonzero"
   d="m 71.868,319.308 h 0.52 c 0.576,0 0.864,-0.252 0.864,-0.752 0,-0.5 -0.288,-0.752 -0.864,-0.752 h -0.52 z m 0,3.266 h -1.569 v -6.035 h 2.497 c 0.676,0 1.196,0.176 1.557,0.529 0.36,0.352 0.54,0.848 0.54,1.488 0,0.64 -0.18,1.137 -0.54,1.489 -0.361,0.352 -0.881,0.528 -1.557,0.528 h -0.928 z"
   id="path23407" /><path
   inkscape:connector-curvature="0"
   style="fill:#808080;fill-rule:nonzero"
   d="m 77.294,316.539 v 3.282 c 0,0.176 0.008,0.356 0.02,0.54 0.012,0.184 0.052,0.352 0.12,0.5 0.068,0.148 0.172,0.272 0.316,0.364 0.144,0.092 0.348,0.14 0.608,0.14 0.26,0 0.464,-0.048 0.604,-0.14 0.141,-0.092 0.249,-0.216 0.317,-0.364 0.068,-0.148 0.112,-0.316 0.124,-0.5 0.012,-0.184 0.02,-0.364 0.02,-0.54 v -3.282 h 1.56 v 3.498 c 0,0.94 -0.216,1.624 -0.644,2.057 -0.428,0.432 -1.088,0.648 -1.981,0.648 -0.892,0 -1.552,-0.216 -1.985,-0.648 -0.432,-0.433 -0.648,-1.117 -0.648,-2.057 v -3.498 z"
   id="path23409" /><path
   inkscape:connector-curvature="0"
   style="fill:#808080;fill-rule:nonzero"
   d="m 84.537,317.868 v 4.706 h -1.569 v -4.706 H 81.68 v -1.329 h 4.145 v 1.329 z"
   id="path23411" /><path
   inkscape:connector-curvature="0"
   style="fill:#808080;fill-rule:nonzero"
   d="m 89.843,318.084 c -0.172,-0.14 -0.34,-0.24 -0.512,-0.308 -0.172,-0.068 -0.336,-0.1 -0.496,-0.1 -0.205,0 -0.369,0.048 -0.497,0.144 -0.128,0.096 -0.192,0.22 -0.192,0.376 0,0.108 0.032,0.196 0.096,0.264 0.064,0.068 0.148,0.128 0.252,0.18 0.104,0.052 0.221,0.096 0.353,0.132 0.132,0.036 0.26,0.076 0.388,0.12 0.512,0.172 0.888,0.4 1.124,0.685 0.236,0.284 0.356,0.656 0.356,1.116 0,0.308 -0.052,0.588 -0.156,0.84 -0.104,0.252 -0.256,0.465 -0.456,0.645 -0.2,0.18 -0.444,0.316 -0.736,0.416 -0.292,0.1 -0.62,0.148 -0.989,0.148 -0.764,0 -1.468,-0.228 -2.12,-0.68 l 0.672,-1.265 c 0.236,0.208 0.468,0.364 0.696,0.464 0.228,0.1 0.456,0.152 0.68,0.152 0.256,0 0.449,-0.06 0.573,-0.176 0.124,-0.116 0.188,-0.252 0.188,-0.4 0,-0.092 -0.016,-0.168 -0.048,-0.236 -0.032,-0.068 -0.084,-0.128 -0.16,-0.184 -0.076,-0.056 -0.172,-0.108 -0.293,-0.156 -0.12,-0.048 -0.264,-0.1 -0.436,-0.16 -0.204,-0.064 -0.4,-0.136 -0.596,-0.212 -0.196,-0.076 -0.368,-0.18 -0.52,-0.308 -0.152,-0.128 -0.276,-0.289 -0.368,-0.485 -0.092,-0.196 -0.14,-0.44 -0.14,-0.74 0,-0.3 0.048,-0.568 0.148,-0.812 0.1,-0.244 0.236,-0.452 0.416,-0.625 0.18,-0.172 0.396,-0.308 0.656,-0.404 0.26,-0.096 0.548,-0.144 0.868,-0.144 0.301,0 0.613,0.04 0.937,0.124 0.324,0.084 0.636,0.204 0.936,0.364 z"
   id="path23413" /><path
   inkscape:connector-curvature="0"
   style="fill:#ffffff;fill-rule:nonzero"
   d="m 27.023,38.396 v -1.01 c 0.683,0.286 1.267,0.428 1.75,0.428 0.566,0 0.849,-0.192 0.849,-0.577 0,-0.248 -0.233,-0.465 -0.699,-0.651 l -0.466,-0.187 c -0.506,-0.205 -0.867,-0.425 -1.084,-0.662 -0.217,-0.235 -0.326,-0.527 -0.326,-0.874 0,-0.485 0.184,-0.861 0.553,-1.13 0.37,-0.268 0.887,-0.402 1.55,-0.402 0.416,0 0.912,0.06 1.486,0.182 v 0.968 c -0.553,-0.193 -1.01,-0.288 -1.373,-0.288 -0.571,0 -0.857,0.177 -0.857,0.53 0,0.233 0.211,0.43 0.633,0.591 l 0.4,0.153 c 0.6,0.227 1.016,0.457 1.251,0.69 0.234,0.233 0.351,0.532 0.351,0.899 0,0.48 -0.2,0.871 -0.598,1.171 -0.399,0.298 -0.918,0.449 -1.557,0.449 -0.615,0 -1.236,-0.094 -1.863,-0.28 z"
   id="path23418" /><path
   inkscape:connector-curvature="0"
   style="fill:#ffffff;fill-rule:nonzero"
   d="m 35.184,38.532 c -0.329,0.095 -0.587,0.144 -0.777,0.144 -1.195,0 -1.792,-0.559 -1.792,-1.676 v -2.692 h -0.573 v -0.861 h 0.573 v -0.86 l 1.377,-0.159 v 1.019 h 1.095 v 0.861 h -1.095 v 2.509 c 0,0.628 0.256,0.942 0.769,0.942 0.117,0 0.259,-0.023 0.423,-0.066 z"
   id="path23420" /><path
   inkscape:connector-curvature="0"
   style="fill:#ffffff;fill-rule:nonzero"
   d="m 40.576,38.387 c -0.656,0.192 -1.276,0.289 -1.863,0.289 -0.853,0 -1.527,-0.243 -2.02,-0.727 -0.493,-0.484 -0.74,-1.145 -0.74,-1.983 0,-0.792 0.226,-1.428 0.677,-1.911 0.452,-0.483 1.048,-0.724 1.79,-0.724 0.747,0 1.294,0.236 1.639,0.707 0.344,0.472 0.517,1.219 0.517,2.239 h -3.171 c 0.093,0.976 0.628,1.463 1.606,1.463 0.462,0 0.984,-0.107 1.565,-0.321 z M 37.387,35.5 h 1.833 c 0,-0.872 -0.28,-1.307 -0.842,-1.307 -0.571,0 -0.901,0.435 -0.991,1.307 z"
   id="path23422" /><path
   inkscape:connector-curvature="0"
   style="fill:#ffffff;fill-rule:nonzero"
   d="m 42,38.559 v -5.112 h 1.378 v 5.112 z m 0,-5.972 v -1.151 h 1.378 v 1.151 z"
   id="path23424" /><path
   inkscape:connector-curvature="0"
   style="fill:#ffffff;fill-rule:nonzero"
   d="m 45.101,38.559 v -5.112 h 1.377 v 0.964 c 0.45,-0.72 1.031,-1.08 1.742,-1.08 0.456,0 0.816,0.144 1.08,0.433 0.263,0.289 0.396,0.683 0.396,1.183 v 3.612 h -1.379 v -3.273 c 0,-0.58 -0.192,-0.87 -0.577,-0.87 -0.437,0 -0.858,0.308 -1.262,0.927 v 3.216 z"
   id="path23426" /><path
   inkscape:connector-curvature="0"
   style="fill:#ffffff;fill-rule:nonzero"
   d="m 55.524,38.387 c -0.655,0.192 -1.275,0.289 -1.862,0.289 -0.853,0 -1.527,-0.243 -2.02,-0.727 -0.494,-0.484 -0.74,-1.145 -0.74,-1.983 0,-0.792 0.225,-1.428 0.676,-1.911 0.452,-0.483 1.048,-0.724 1.791,-0.724 0.747,0 1.294,0.236 1.639,0.707 0.344,0.472 0.516,1.219 0.516,2.239 h -3.171 c 0.094,0.976 0.629,1.463 1.606,1.463 0.463,0 0.985,-0.107 1.565,-0.321 z M 52.335,35.5 h 1.834 c 0,-0.872 -0.28,-1.307 -0.843,-1.307 -0.57,0 -0.901,0.435 -0.991,1.307 z"
   id="path23428" /><path
   inkscape:connector-curvature="0"
   style="fill:#ffffff;fill-rule:nonzero"
   d="m 56.948,38.559 v -5.112 h 1.379 v 0.964 c 0.357,-0.72 0.9,-1.08 1.629,-1.08 0.087,0 0.173,0.009 0.257,0.027 v 1.23 c -0.196,-0.071 -0.377,-0.107 -0.546,-0.107 -0.549,0 -0.996,0.278 -1.34,0.833 v 3.245 z"
   id="path23430" /><rect
   style="fill:#ffffff"
   height="0.861"
   width="4.2509999"
   y="35.169998"
   x="61.339001"
   id="rect23432" /><path
   inkscape:connector-curvature="0"
   style="fill:#ffffff;fill-rule:nonzero"
   d="m 67.372,40.398 v -6.951 h 1.379 v 0.964 c 0.353,-0.72 0.91,-1.08 1.67,-1.08 0.615,0 1.098,0.225 1.451,0.675 0.352,0.45 0.528,1.07 0.528,1.857 0,0.857 -0.198,1.54 -0.596,2.049 -0.397,0.509 -0.93,0.764 -1.597,0.764 -0.536,0 -1.022,-0.211 -1.456,-0.634 v 2.356 z m 1.379,-3.175 c 0.335,0.373 0.692,0.559 1.07,0.559 0.339,0 0.609,-0.164 0.81,-0.491 0.202,-0.327 0.303,-0.765 0.303,-1.311 0,-1.046 -0.337,-1.569 -1.01,-1.569 -0.407,0 -0.798,0.262 -1.173,0.787 z"
   id="path23434" /><path
   inkscape:connector-curvature="0"
   style="fill:#ffffff;fill-rule:nonzero"
   d="m 76.195,38.01 c -0.46,0.443 -0.952,0.666 -1.476,0.666 -0.447,0 -0.81,-0.137 -1.09,-0.41 -0.279,-0.273 -0.419,-0.627 -0.419,-1.062 0,-0.564 0.227,-1 0.678,-1.306 0.452,-0.306 1.098,-0.458 1.938,-0.458 h 0.369 v -0.466 c 0,-0.53 -0.303,-0.796 -0.909,-0.796 -0.537,0 -1.08,0.152 -1.629,0.456 v -0.949 c 0.625,-0.237 1.242,-0.354 1.853,-0.354 1.338,0 2.007,0.532 2.007,1.597 v 2.262 c 0,0.4 0.128,0.6 0.387,0.6 0.046,0 0.107,-0.005 0.181,-0.018 l 0.032,0.773 c -0.292,0.087 -0.549,0.131 -0.772,0.131 -0.566,0 -0.929,-0.223 -1.09,-0.666 z m 0,-0.74 v -1.039 h -0.326 c -0.891,0 -1.337,0.279 -1.337,0.838 0,0.19 0.065,0.349 0.194,0.478 0.128,0.128 0.287,0.193 0.477,0.193 0.323,0 0.653,-0.157 0.992,-0.47 z"
   id="path23436" /><path
   inkscape:connector-curvature="0"
   style="fill:#ffffff;fill-rule:nonzero"
   d="m 79.295,38.559 v -5.112 h 1.378 v 0.964 c 0.357,-0.72 0.9,-1.08 1.63,-1.08 0.087,0 0.172,0.009 0.256,0.027 v 1.23 c -0.196,-0.071 -0.377,-0.107 -0.545,-0.107 -0.55,0 -0.997,0.278 -1.341,0.833 v 3.245 z"
   id="path23438" /><path
   inkscape:connector-curvature="0"
   style="fill:#ffffff;fill-rule:nonzero"
   d="m 83.629,38.559 v -7.351 h 1.379 v 4.623 h 0.088 l 1.82,-2.384 h 1.145 l -1.68,2.189 2.207,2.923 h -1.676 l -1.816,-2.556 h -0.088 v 2.556 z"
   id="path23440" /><path
   inkscape:connector-curvature="0"
   style="fill:#ffffff;fill-rule:nonzero"
   d="m 93.825,38.387 c -0.655,0.192 -1.275,0.289 -1.862,0.289 -0.853,0 -1.527,-0.243 -2.021,-0.727 -0.494,-0.484 -0.74,-1.145 -0.74,-1.983 0,-0.792 0.226,-1.428 0.677,-1.911 0.452,-0.483 1.048,-0.724 1.791,-0.724 0.747,0 1.294,0.236 1.639,0.707 0.344,0.472 0.516,1.219 0.516,2.239 h -3.171 c 0.094,0.976 0.629,1.463 1.606,1.463 0.463,0 0.984,-0.107 1.565,-0.321 z M 90.636,35.5 h 1.834 c 0,-0.872 -0.28,-1.307 -0.843,-1.307 -0.57,0 -0.901,0.435 -0.991,1.307 z"
   id="path23442" /><path
   inkscape:connector-curvature="0"
   style="fill:#ffffff;fill-rule:nonzero"
   d="m 95.249,38.559 v -5.112 h 1.379 v 0.964 c 0.357,-0.72 0.9,-1.08 1.629,-1.08 0.087,0 0.172,0.009 0.256,0.027 v 1.23 c -0.195,-0.071 -0.377,-0.107 -0.545,-0.107 -0.549,0 -0.996,0.278 -1.34,0.833 v 3.245 z"
   id="path23444" /><path
   inkscape:connector-curvature="0"
   style="fill:#ffffff;fill-rule:nonzero"
   d="m 102.87,38.559 v -4.251 h -0.703 v -0.861 h 0.703 v -0.353 c 0,-0.643 0.153,-1.137 0.459,-1.484 0.306,-0.345 0.741,-0.518 1.306,-0.518 0.348,0 0.717,0.063 1.108,0.19 v 0.941 c -0.384,-0.171 -0.67,-0.256 -0.857,-0.256 -0.425,0 -0.637,0.388 -0.637,1.164 v 0.316 h 3.216 v 5.112 h -1.378 v -4.251 h -1.838 v 4.251 z m 3.446,-5.972 v -1.151 h 1.149 v 1.151 z"
   id="path23446" /><rect
   style="fill:#ffffff"
   height="7.3509998"
   width="1.3789999"
   y="31.208"
   x="109.188"
   id="rect23448" /><path
   inkscape:connector-curvature="0"
   style="fill:#ffffff;fill-rule:nonzero"
   d="m 114.923,38.532 c -0.329,0.095 -0.587,0.144 -0.777,0.144 -1.195,0 -1.792,-0.559 -1.792,-1.676 v -2.692 h -0.573 v -0.861 h 0.573 v -0.86 l 1.377,-0.159 v 1.019 h 1.095 v 0.861 h -1.095 v 2.509 c 0,0.628 0.257,0.942 0.769,0.942 0.117,0 0.259,-0.023 0.423,-0.066 z"
   id="path23450" /><path
   inkscape:connector-curvature="0"
   style="fill:#ffffff;fill-rule:nonzero"
   d="m 120.315,38.387 c -0.656,0.192 -1.276,0.289 -1.863,0.289 -0.853,0 -1.526,-0.243 -2.02,-0.727 -0.493,-0.484 -0.74,-1.145 -0.74,-1.983 0,-0.792 0.226,-1.428 0.677,-1.911 0.452,-0.483 1.049,-0.724 1.79,-0.724 0.749,0 1.295,0.236 1.639,0.707 0.344,0.472 0.517,1.219 0.517,2.239 h -3.17 c 0.092,0.976 0.628,1.463 1.606,1.463 0.462,0 0.984,-0.107 1.564,-0.321 z M 117.126,35.5 h 1.833 c 0,-0.872 -0.28,-1.307 -0.841,-1.307 -0.572,0 -0.902,0.435 -0.992,1.307 z"
   id="path23452" /><path
   inkscape:connector-curvature="0"
   style="fill:#ffffff;fill-rule:nonzero"
   d="m 121.739,38.559 v -5.112 h 1.378 v 0.964 c 0.357,-0.72 0.9,-1.08 1.63,-1.08 0.087,0 0.172,0.009 0.256,0.027 v 1.23 c -0.196,-0.071 -0.377,-0.107 -0.545,-0.107 -0.549,0 -0.997,0.278 -1.341,0.833 v 3.245 z"
   id="path23454" /><g
   id="g1258"
   style="fill:#e0d6e8"><path
     id="path23459"
     d="m 43.28,19.797 v 7.398 H 40.814 V 19.797 H 38.79 V 17.71 h 6.516 v 2.087 z"
     style="fill:#e0d6e8;fill-rule:nonzero"
     inkscape:connector-curvature="0" /><path
     id="path23461"
     d="m 51.118,23.672 -1.108,-3.157 -1.107,3.157 z m 0.654,1.875 h -3.523 l -0.566,1.648 h -2.629 l 3.611,-9.485 h 2.691 l 3.611,9.485 h -2.629 z"
     style="fill:#e0d6e8;fill-rule:nonzero"
     inkscape:connector-curvature="0" /><path
     id="path23463"
     d="M 56.049,27.195 V 17.71 h 2.465 l 4.554,5.799 V 17.71 h 2.453 v 9.485 h -2.453 l -4.554,-5.799 v 5.799 z"
     style="fill:#e0d6e8;fill-rule:nonzero"
     inkscape:connector-curvature="0" /><path
     id="path23465"
     d="m 72.302,21.886 h 4.894 c 0,0.503 -0.022,0.96 -0.063,1.372 -0.042,0.41 -0.126,0.792 -0.252,1.144 -0.177,0.495 -0.415,0.934 -0.717,1.314 -0.302,0.383 -0.656,0.701 -1.063,0.957 -0.407,0.256 -0.853,0.45 -1.34,0.585 -0.486,0.134 -0.998,0.201 -1.535,0.201 -0.738,0 -1.41,-0.122 -2.019,-0.365 -0.607,-0.243 -1.129,-0.585 -1.566,-1.025 -0.436,-0.44 -0.775,-0.969 -1.019,-1.585 -0.243,-0.616 -0.365,-1.298 -0.365,-2.044 0,-0.738 0.12,-1.416 0.36,-2.033 0.238,-0.615 0.578,-1.141 1.018,-1.578 0.44,-0.435 0.97,-0.775 1.591,-1.019 0.62,-0.242 1.313,-0.365 2.076,-0.365 0.99,0 1.857,0.215 2.604,0.642 0.746,0.428 1.337,1.09 1.774,1.987 l -2.34,0.969 c -0.218,-0.52 -0.501,-0.893 -0.85,-1.119 -0.347,-0.226 -0.744,-0.34 -1.188,-0.34 -0.369,0 -0.704,0.07 -1.007,0.208 -0.302,0.139 -0.559,0.336 -0.774,0.591 -0.213,0.256 -0.38,0.564 -0.502,0.925 -0.122,0.361 -0.182,0.763 -0.182,1.207 0,0.403 0.052,0.776 0.157,1.12 0.104,0.343 0.261,0.642 0.472,0.893 0.209,0.252 0.468,0.447 0.779,0.585 0.31,0.139 0.671,0.208 1.083,0.208 0.242,0 0.478,-0.028 0.704,-0.083 0.227,-0.054 0.429,-0.142 0.61,-0.263 0.18,-0.122 0.329,-0.279 0.446,-0.472 0.118,-0.193 0.197,-0.427 0.239,-0.704 h -2.025 z"
     style="fill:#e0d6e8;fill-rule:nonzero"
     inkscape:connector-curvature="0" /><path
     id="path23467"
     d="m 84.152,19.797 h -2.931 v 1.585 h 2.768 v 2.089 h -2.768 v 1.635 h 2.931 v 2.089 H 78.755 V 17.71 h 5.397 z"
     style="fill:#e0d6e8;fill-rule:nonzero"
     inkscape:connector-curvature="0" /><path
     id="path23469"
     d="M 85.926,27.195 V 17.71 h 2.466 l 4.554,5.799 V 17.71 h 2.453 v 9.485 h -2.453 l -4.554,-5.799 v 5.799 z"
     style="fill:#e0d6e8;fill-rule:nonzero"
     inkscape:connector-curvature="0" /><path
     id="path23471"
     d="m 100.984,19.797 v 7.398 H 98.518 V 19.797 H 96.493 V 17.71 h 6.517 v 2.087 z"
     style="fill:#e0d6e8;fill-rule:nonzero"
     inkscape:connector-curvature="0" /><path
     id="path23473"
     d="m 109.324,20.137 c -0.267,-0.217 -0.536,-0.38 -0.804,-0.483 -0.269,-0.106 -0.529,-0.158 -0.781,-0.158 -0.318,0 -0.578,0.075 -0.78,0.227 -0.201,0.15 -0.301,0.347 -0.301,0.591 0,0.168 0.05,0.305 0.15,0.414 0.102,0.11 0.233,0.204 0.397,0.284 0.163,0.08 0.348,0.149 0.553,0.208 0.205,0.059 0.409,0.121 0.61,0.188 0.806,0.269 1.395,0.627 1.767,1.076 0.373,0.449 0.561,1.033 0.561,1.754 0,0.488 -0.082,0.927 -0.246,1.321 -0.163,0.395 -0.402,0.733 -0.717,1.013 -0.314,0.281 -0.7,0.499 -1.157,0.655 -0.457,0.154 -0.975,0.232 -1.553,0.232 -1.2,0 -2.311,-0.356 -3.334,-1.069 l 1.056,-1.988 c 0.369,0.328 0.734,0.57 1.095,0.73 0.361,0.16 0.717,0.238 1.07,0.238 0.402,0 0.701,-0.092 0.899,-0.276 0.197,-0.185 0.295,-0.394 0.295,-0.63 0,-0.142 -0.025,-0.265 -0.076,-0.37 -0.05,-0.105 -0.133,-0.201 -0.251,-0.289 -0.118,-0.089 -0.271,-0.17 -0.459,-0.246 -0.189,-0.075 -0.418,-0.159 -0.685,-0.251 -0.319,-0.101 -0.632,-0.211 -0.938,-0.334 -0.307,-0.121 -0.578,-0.282 -0.818,-0.483 -0.238,-0.203 -0.432,-0.456 -0.578,-0.762 -0.147,-0.307 -0.22,-0.694 -0.22,-1.163 0,-0.47 0.077,-0.896 0.232,-1.277 0.156,-0.383 0.374,-0.709 0.654,-0.982 0.281,-0.272 0.626,-0.483 1.032,-0.635 0.406,-0.151 0.862,-0.227 1.365,-0.227 0.469,0 0.961,0.066 1.472,0.196 0.512,0.129 1.002,0.32 1.472,0.571 z"
     style="fill:#e0d6e8;fill-rule:nonzero"
     inkscape:connector-curvature="0" /></g><g
   id="g1264"
   style="fill:#e0d6e8"><path
     id="path42"
     d="m 62.952,363.5 h 2.673 l 2.49,8.317 2.574,-8.317 h 2.66 l -3.46,10.397 c -0.323,0.959 -0.903,1.438 -1.738,1.438 -0.847,0 -1.433,-0.484 -1.755,-1.453 z"
     style="fill:#e0d6e8;fill-rule:nonzero"
     inkscape:connector-curvature="0" /><path
     id="path44"
     d="M 73.55,372.292 V 363.5 h 2.507 v 8.709 c 0.044,0.312 0.334,0.468 0.869,0.468 h 1.705 c 0.513,0 0.797,-0.145 0.853,-0.435 l 0.017,-0.083 V 363.5 h 2.507 v 8.776 c 0,0.769 -0.083,1.315 -0.251,1.638 -0.445,0.858 -1.231,1.287 -2.357,1.287 h -3.243 c -1.159,0 -1.95,-0.44 -2.373,-1.321 -0.156,-0.323 -0.234,-0.852 -0.234,-1.588 z"
     style="fill:#e0d6e8;fill-rule:nonzero"
     inkscape:connector-curvature="0" /><path
     id="path46"
     d="M 83.161,372.343 V 363.5 h 2.508 v 8.642 c 0,0.357 0.211,0.535 0.635,0.535 h 4.463 l -0.016,2.524 h -4.664 c -0.167,0 -0.312,-0.006 -0.435,-0.017 -0.903,-0.077 -1.544,-0.342 -1.922,-0.794 -0.379,-0.451 -0.569,-1.133 -0.569,-2.047 z"
     style="fill:#e0d6e8;fill-rule:nonzero"
     inkscape:connector-curvature="0" /><path
     id="path48"
     d="M 90.851,366.024 V 363.5 h 7.522 v 2.524 h -2.524 v 9.177 h -2.508 v -9.177 z"
     style="fill:#e0d6e8;fill-rule:nonzero"
     inkscape:connector-curvature="0" /></g><path
   inkscape:connector-curvature="0"
   style="fill:#757575;fill-rule:nonzero;stroke:#414c55;stroke-width:0.61000001px;stroke-miterlimit:10"
   d="m 59.383,369.417 c 0,-4.509 -3.655,-8.164 -8.164,-8.164 -4.509,0 -8.165,3.655 -8.165,8.164 0,4.509 3.656,8.165 8.165,8.165 4.509,0 8.164,-3.656 8.164,-8.165 z"
   id="path4" /><path
   inkscape:connector-curvature="0"
   style="fill:#2b2b2b;fill-rule:nonzero"
   d="m 49.321,374.394 0.553,-0.891 -1.064,-2.393 -2.216,-2.284 0.46,3.101 0.597,1.28 0.833,1.264 z"
   id="polygon6" /><path
   inkscape:connector-curvature="0"
   style="fill:#262626;fill-rule:nonzero"
   d="m 53.048,374.401 -0.553,-0.89 1.064,-2.393 2.216,-2.285 -0.46,3.101 -0.597,1.281 -0.833,1.263 z"
   id="polygon8" /><path
   inkscape:connector-curvature="0"
   style="fill:#424242;fill-rule:nonzero"
   d="m 48.636,363.359 2.584,-0.66 v 13.447 l -1.349,-2.651 -1.061,-2.385 -1.022,-0.581 -2.052,-2.92 -0.057,-0.776 1.148,-2.067 z"
   id="polygon12" /><path
   inkscape:connector-curvature="0"
   style="fill:#333333;fill-rule:nonzero"
   d="m 53.801,363.364 -2.584,-0.661 v 13.448 l 1.35,-2.651 1.06,-2.385 1.023,-0.581 2.051,-2.921 0.058,-0.775 -1.149,-2.067 z"
   id="polygon14" /><path
   inkscape:connector-curvature="0"
   style="fill:#4c4c4c;fill-rule:nonzero"
   d="m 49.496,369.237 1.723,-1.684 v 1.229 l -1.723,1.718 v -1.263"
   id="polyline16" /><path
   inkscape:connector-curvature="0"
   style="fill:#5b5b5b;fill-rule:nonzero"
   d="m 51.22,368.781 -1.723,1.718 0.377,3.004 1.346,2.643 z"
   id="polygon18" /><path
   inkscape:connector-curvature="0"
   style="fill:#333333;fill-rule:nonzero"
   d="m 51.22,376.146 -1.346,-2.643 1.346,-0.635 z"
   id="polygon20" /><path
   inkscape:connector-curvature="0"
   style="fill:#ffffff;fill-rule:nonzero"
   d="m 49.497,370.499 v -1.263 l -1.249,-1.58 -1.477,-1.19 -10e-4,0.932 0.775,1.823 z"
   id="polygon22" /><path
   inkscape:connector-curvature="0"
   style="fill:#2d2d2d;fill-rule:nonzero"
   d="m 52.942,369.238 -1.722,-1.685 v 1.23 l 1.722,1.718 v -1.263"
   id="polyline24" /><path
   inkscape:connector-curvature="0"
   style="fill:#353535;fill-rule:nonzero"
   d="m 51.218,368.781 1.722,1.718 -0.376,3.004 -1.347,2.643 z"
   id="polygon26" /><path
   inkscape:connector-curvature="0"
   style="fill:#191919;fill-rule:nonzero"
   d="m 51.217,376.146 1.347,-2.643 -1.346,-0.635 z"
   id="polygon28" /><path
   inkscape:connector-curvature="0"
   style="fill:#ffffff;fill-rule:nonzero"
   d="m 52.94,370.499 v -1.263 l 1.249,-1.58 1.478,-1.19 10e-4,0.932 -0.775,1.823 z"
   id="polygon30" /><path
   inkscape:connector-curvature="0"
   style="fill:#383838;fill-rule:nonzero"
   d="m 48.652,363.338 2.566,4.215 -0.005,-4.87"
   id="polyline32" /><path
   inkscape:connector-curvature="0"
   style="fill:#2d2d2d;fill-rule:nonzero"
   d="m 53.785,363.338 -2.566,4.215 0.006,-4.869"
   id="polyline34" /><path
   inkscape:connector-curvature="0"
   style="fill:#333333;fill-rule:nonzero"
   d="m 48.811,371.111 0.688,-0.611 0.375,3.006 z"
   id="polygon36" /><path
   inkscape:connector-curvature="0"
   style="fill:#1c1c1c;fill-rule:nonzero"
   d="m 53.631,371.125 -0.688,-0.61 -0.375,3.006 z"
   id="polygon38" /><path
   inkscape:connector-curvature="0"
   style="fill:none;stroke:#cccccc;stroke-width:1px;stroke-linecap:round"
   d="m 126.904,224.662 c 2.737,-4.742 1.664,-10.824 -2.534,-14.346 -4.193,-3.521 -10.372,-3.521 -14.566,0 -4.197,3.522 -5.27,9.604 -2.533,14.346 l 9.816,-5.666 z"
   id="path23502" /><path
   inkscape:connector-curvature="0"
   style="fill:none;stroke:#cccccc;stroke-width:1px;stroke-linecap:round"
   d="m 117.087,219 -0.024,-13.31"
   id="path23505" /><path
   inkscape:connector-curvature="0"
   style="fill:#ffffff;fill-rule:nonzero"
   d="m 43.66,262.748 h 0.36 c 0.272,0 0.516,-0.044 0.728,-0.128 0.212,-0.084 0.392,-0.204 0.54,-0.352 0.149,-0.148 0.261,-0.328 0.337,-0.532 0.076,-0.204 0.116,-0.432 0.116,-0.676 0,-0.241 -0.04,-0.465 -0.12,-0.673 -0.08,-0.208 -0.192,-0.388 -0.341,-0.536 -0.148,-0.148 -0.328,-0.268 -0.54,-0.352 -0.212,-0.084 -0.452,-0.128 -0.72,-0.128 h -0.36 z m -1.569,-4.706 h 2.321 c 0.412,0 0.796,0.084 1.157,0.248 0.36,0.164 0.676,0.385 0.944,0.661 0.268,0.276 0.48,0.596 0.636,0.96 0.156,0.364 0.232,0.748 0.232,1.149 0,0.396 -0.076,0.776 -0.228,1.14 -0.152,0.364 -0.364,0.688 -0.632,0.964 -0.268,0.277 -0.584,0.501 -0.944,0.665 -0.361,0.164 -0.749,0.248 -1.165,0.248 h -2.321 z"
   id="path23508" /><path
   inkscape:connector-curvature="0"
   style="fill:#ffffff;fill-rule:nonzero"
   d="m 49.95,260.739 h 0.297 c 0.308,0 0.548,-0.064 0.712,-0.192 0.164,-0.128 0.248,-0.312 0.248,-0.552 0,-0.24 -0.084,-0.424 -0.248,-0.552 -0.164,-0.128 -0.404,-0.192 -0.712,-0.192 H 49.95 Z m 3.45,3.338 h -1.953 l -1.497,-2.321 v 2.321 h -1.568 v -6.035 h 2.441 c 0.336,0 0.628,0.048 0.88,0.148 0.252,0.1 0.456,0.232 0.62,0.405 0.164,0.172 0.285,0.368 0.369,0.592 0.084,0.224 0.124,0.464 0.124,0.72 0,0.46 -0.112,0.832 -0.333,1.117 -0.22,0.284 -0.548,0.48 -0.98,0.58 z"
   id="path23510" /><rect
   style="fill:#ffffff"
   height="6.0349998"
   width="1.569"
   y="258.04199"
   x="54.056"
   id="rect23512" /><path
   inkscape:connector-curvature="0"
   style="fill:#ffffff;fill-rule:nonzero"
   d="m 57.962,258.042 1.456,3.674 1.465,-3.674 h 1.705 l -2.545,6.035 h -1.249 l -2.537,-6.035 z"
   id="path23514" /><path
   inkscape:connector-curvature="0"
   style="fill:#ffffff;fill-rule:nonzero"
   d="m 66.653,259.371 h -1.864 v 1.008 h 1.76 v 1.329 h -1.76 v 1.04 h 1.864 v 1.329 H 63.22 v -6.035 h 3.433 z"
   id="path23516" /><path
   inkscape:connector-curvature="0"
   style="fill:#ffffff;fill-rule:nonzero"
   d="m 41.211,296.268 0.769,-4.526 h 1.164 l 0.909,2.413 0.9,-2.413 h 1.16 l 0.769,4.526 h -1.169 l -0.388,-2.605 -1.068,2.605 h -0.469 l -1.016,-2.605 -0.388,2.605 z"
   id="path23521" /><path
   inkscape:connector-curvature="0"
   style="fill:#ffffff;fill-rule:nonzero"
   d="m 50.111,292.902 c -0.128,-0.104 -0.256,-0.18 -0.384,-0.232 -0.128,-0.048 -0.252,-0.076 -0.372,-0.076 -0.152,0 -0.276,0.036 -0.372,0.108 -0.096,0.072 -0.144,0.168 -0.144,0.284 0,0.08 0.024,0.145 0.072,0.197 0.048,0.052 0.112,0.1 0.188,0.136 0.08,0.04 0.168,0.072 0.264,0.1 0.1,0.028 0.196,0.056 0.292,0.088 0.384,0.128 0.664,0.3 0.844,0.512 0.176,0.216 0.264,0.496 0.264,0.84 0,0.232 -0.036,0.44 -0.116,0.628 -0.076,0.189 -0.192,0.349 -0.34,0.485 -0.152,0.132 -0.336,0.236 -0.552,0.312 -0.22,0.072 -0.464,0.108 -0.74,0.108 -0.573,0 -1.105,-0.168 -1.593,-0.508 l 0.504,-0.949 c 0.176,0.156 0.352,0.272 0.524,0.348 0.172,0.076 0.341,0.116 0.509,0.116 0.192,0 0.336,-0.044 0.428,-0.132 0.096,-0.088 0.144,-0.188 0.144,-0.3 0,-0.068 -0.012,-0.128 -0.036,-0.18 -0.024,-0.048 -0.064,-0.096 -0.12,-0.136 -0.056,-0.044 -0.132,-0.08 -0.22,-0.116 -0.092,-0.036 -0.2,-0.076 -0.328,-0.12 -0.152,-0.048 -0.301,-0.104 -0.449,-0.16 -0.144,-0.06 -0.272,-0.136 -0.388,-0.232 -0.112,-0.096 -0.204,-0.216 -0.276,-0.36 -0.068,-0.148 -0.104,-0.332 -0.104,-0.557 0,-0.224 0.036,-0.428 0.112,-0.608 0.072,-0.184 0.176,-0.34 0.312,-0.468 0.132,-0.132 0.296,-0.232 0.488,-0.304 0.197,-0.072 0.413,-0.108 0.653,-0.108 0.224,0 0.46,0.032 0.704,0.092 0.244,0.064 0.476,0.152 0.7,0.272 z"
   id="path23523" /><path
   inkscape:connector-curvature="0"
   style="fill:#737373;fill-rule:nonzero"
   d="m 26.588,318.737 0.769,-4.526 h 1.164 l 0.908,2.413 0.901,-2.413 h 1.16 l 0.769,4.526 H 31.09 l -0.388,-2.605 -1.069,2.605 h -0.468 l -1.016,-2.605 -0.388,2.605 z"
   id="path23527" /><path
   inkscape:connector-curvature="0"
   style="fill:#737373;fill-rule:nonzero"
   d="m 34.031,316.476 c 0,0.18 0.032,0.344 0.1,0.496 0.068,0.152 0.16,0.284 0.276,0.396 0.117,0.112 0.253,0.2 0.405,0.26 0.156,0.064 0.32,0.096 0.492,0.096 0.172,0 0.332,-0.032 0.488,-0.096 0.152,-0.06 0.288,-0.148 0.408,-0.26 0.116,-0.112 0.208,-0.244 0.276,-0.396 0.068,-0.152 0.104,-0.316 0.104,-0.496 0,-0.18 -0.036,-0.348 -0.104,-0.5 -0.068,-0.152 -0.16,-0.284 -0.276,-0.397 -0.12,-0.112 -0.256,-0.196 -0.408,-0.26 -0.156,-0.06 -0.316,-0.092 -0.488,-0.092 -0.172,0 -0.336,0.032 -0.492,0.092 -0.152,0.064 -0.288,0.148 -0.405,0.26 -0.116,0.113 -0.208,0.245 -0.276,0.397 -0.068,0.152 -0.1,0.32 -0.1,0.5 z m -1.232,0 c 0,-0.336 0.064,-0.648 0.188,-0.941 0.124,-0.288 0.296,-0.544 0.516,-0.76 0.22,-0.216 0.48,-0.384 0.788,-0.504 0.305,-0.124 0.645,-0.184 1.013,-0.184 0.364,0 0.696,0.06 1.004,0.184 0.308,0.12 0.576,0.288 0.797,0.504 0.224,0.216 0.396,0.472 0.52,0.76 0.124,0.293 0.184,0.605 0.184,0.941 0,0.336 -0.06,0.648 -0.184,0.936 -0.124,0.292 -0.296,0.544 -0.52,0.761 -0.221,0.216 -0.489,0.384 -0.797,0.508 -0.308,0.12 -0.64,0.18 -1.004,0.18 -0.368,0 -0.708,-0.06 -1.013,-0.18 -0.308,-0.124 -0.568,-0.292 -0.788,-0.508 -0.22,-0.217 -0.392,-0.469 -0.516,-0.761 -0.124,-0.288 -0.188,-0.6 -0.188,-0.936 z"
   id="path23529" /><path
   inkscape:connector-curvature="0"
   style="fill:#737373;fill-rule:nonzero"
   d="m 39.73,317.74 h 0.272 c 0.204,0 0.384,-0.032 0.544,-0.096 0.16,-0.064 0.296,-0.152 0.404,-0.264 0.112,-0.112 0.196,-0.244 0.252,-0.4 0.06,-0.152 0.088,-0.32 0.088,-0.504 0,-0.18 -0.032,-0.348 -0.092,-0.504 -0.06,-0.156 -0.144,-0.292 -0.252,-0.404 -0.112,-0.113 -0.244,-0.201 -0.404,-0.265 -0.16,-0.064 -0.34,-0.096 -0.54,-0.096 H 39.73 Z m -1.177,-3.529 h 1.741 c 0.308,0 0.596,0.064 0.868,0.188 0.268,0.124 0.504,0.288 0.709,0.496 0.2,0.204 0.36,0.444 0.476,0.721 0.116,0.272 0.172,0.56 0.172,0.86 0,0.296 -0.056,0.58 -0.168,0.852 -0.116,0.276 -0.272,0.516 -0.476,0.725 -0.201,0.208 -0.437,0.376 -0.709,0.5 -0.268,0.124 -0.56,0.184 -0.872,0.184 h -1.741 z"
   id="path23531" /><path
   inkscape:connector-curvature="0"
   style="fill:#737373;fill-rule:nonzero"
   d="m 45.844,315.207 h -1.396 v 0.757 h 1.316 v 0.996 h -1.316 v 0.78 h 1.396 v 0.997 h -2.573 v -4.526 h 2.573 z"
   id="path23533" /><path
   inkscape:connector-curvature="0"
   style="fill:#737373;fill-rule:nonzero"
   d="m 47.865,314.211 v 3.529 h 1.413 v 0.997 h -2.589 v -4.526 z"
   id="path23535" /><path
   inkscape:connector-curvature="0"
   style="fill:#ffffff;fill-rule:nonzero"
   d="m 42.338,282.296 -1.649,-2.353 h 1.405 l 0.84,1.236 0.833,-1.236 h 1.404 l -1.657,2.353 v 2.173 h -1.176 z"
   id="path23539" /><path
   inkscape:connector-curvature="0"
   style="fill:#ffffff;fill-rule:nonzero"
   d="m 46.76,279.943 v 2.461 c 0,0.132 0.008,0.268 0.016,0.404 0.012,0.14 0.04,0.264 0.092,0.376 0.048,0.112 0.128,0.204 0.236,0.272 0.108,0.072 0.26,0.108 0.456,0.108 0.196,0 0.348,-0.036 0.452,-0.108 0.104,-0.068 0.184,-0.16 0.236,-0.272 0.052,-0.112 0.084,-0.236 0.092,-0.376 0.012,-0.136 0.016,-0.272 0.016,-0.404 v -2.461 h 1.173 v 2.625 c 0,0.704 -0.164,1.217 -0.484,1.541 -0.324,0.324 -0.817,0.484 -1.485,0.484 -0.668,0 -1.164,-0.16 -1.488,-0.484 -0.325,-0.324 -0.485,-0.837 -0.485,-1.541 v -2.625 z"
   id="path23541" /><path
   inkscape:connector-curvature="0"
   style="fill:#ffffff;fill-rule:nonzero"
   d="m 42.712,305.76 -1.409,-2.113 h 1.453 l 0.612,1.172 0.757,-1.172 h 1.452 l -1.496,2.113 1.684,2.413 h -1.432 l -0.905,-1.477 -1.064,1.477 h -1.421 z"
   id="path23545" /><path
   inkscape:connector-curvature="0"
   style="fill:#ffffff;fill-rule:nonzero"
   d="m 47.538,305.76 -1.413,-2.113 h 1.453 l 0.612,1.172 0.757,-1.172 h 1.452 l -1.492,2.113 1.684,2.413 h -1.432 l -0.909,-1.477 -1.06,1.477 h -1.425 z"
   id="path23547" /><g
   id="g1106">
      <path
   inkscape:connector-curvature="0"
   style="fill:#5a5a5a"
   d="m 26.166,275.714 2.32,2.474 v 30.663 l -2.32,2.422 z"
   id="path1060" />
      <path
   inkscape:connector-curvature="0"
   style="fill:#5a5a5a"
   d="m 35.439,278.188 2.395,-2.474 v 35.559 l -2.395,-2.422 v -30.664 z"
   id="path1064" />
      <path
   inkscape:connector-curvature="0"
   style="fill:#c8c8c8"
   d="m 26.166,311.273 2.32,-2.422 h 6.953 l 2.395,2.422 z"
   id="path1066" />
      <path
   inkscape:connector-curvature="0"
   style="fill:#141414"
   d="m 35.823,278.567 c 0,-0.921 -0.628,-1.669 -1.401,-1.669 h -4.84 c -0.773,0 -1.401,0.748 -1.401,1.669 v 29.176 c 0,0.921 0.628,1.669 1.401,1.669 h 4.84 c 0.773,0 1.401,-0.748 1.401,-1.669 z"
   id="path2589" />
    </g>
<path
   inkscape:connector-curvature="0"
   style="clip-rule:evenodd;fill:#cccccc;fill-rule:nonzero;stroke:#cccccc;stroke-width:1px;stroke-linecap:round"
   d="m 126.08998,226.24788 0.024,4.409"
   id="path23297-3" /><path
   inkscape:connector-curvature="0"
   style="clip-rule:evenodd;fill:#cccccc;fill-rule:nonzero;stroke:#cccccc;stroke-width:1px;stroke-linecap:round"
   d="m 128.30698,228.42088 -4.41,0.02"
   id="path23300-2" /><path
   inkscape:connector-curvature="0"
   style="clip-rule:evenodd;fill:#cccccc;fill-rule:nonzero;stroke:#cccccc;stroke-width:1px;stroke-linecap:round"
   d="m 109.98798,228.29688 -4.414,0.02"
   id="path23303-7" /><path
   inkscape:connector-curvature="0"
   style="clip-rule:evenodd;fill:#cccccc;fill-rule:nonzero;stroke:#cccccc;stroke-width:1px;stroke-linecap:round"
   d="m 126.08998,226.24788 0.024,4.409"
   id="path23333-1" /><path
   inkscape:connector-curvature="0"
   style="clip-rule:evenodd;fill:#cccccc;fill-rule:nonzero;stroke:#cccccc;stroke-width:1px;stroke-linecap:round"
   d="m 128.30698,228.42088 -4.41,0.02"
   id="path23336-3" /><path
   inkscape:connector-curvature="0"
   style="clip-rule:evenodd;fill:#cccccc;fill-rule:nonzero;stroke:#cccccc;stroke-width:1px;stroke-linecap:round"
   d="m 109.98798,228.29688 -4.414,0.02"
   id="path23339-3" /></svg>