<?xml version="1.0" encoding="UTF-8" standalone="no"?>
<svg
   xmlns:dc="http://purl.org/dc/elements/1.1/"
   xmlns:cc="http://creativecommons.org/ns#"
   xmlns:rdf="http://www.w3.org/1999/02/22-rdf-syntax-ns#"
   xmlns:svg="http://www.w3.org/2000/svg"
   xmlns="http://www.w3.org/2000/svg"
   xmlns:xlink="http://www.w3.org/1999/xlink"
   xmlns:sodipodi="http://sodipodi.sourceforge.net/DTD/sodipodi-0.dtd"
   xmlns:inkscape="http://www.inkscape.org/namespaces/inkscape"
   width="60px"
   height="380px"
   version="1.1"
   xml:space="preserve"
   style="fill-rule:evenodd;clip-rule:evenodd;"
   id="svg8549"
   sodipodi:docname="UtilSend.svg"
   inkscape:version="0.92.3 (2405546, 2018-03-11)">
  <defs
   id="defs8553">
    <linearGradient
   inkscape:collect="always"
   id="linearGradient8817">
      <stop
   style="stop-color:#0b0019;stop-opacity:1"
   offset="0"
   id="stop8813" />
      <stop
   style="stop-color:#170028;stop-opacity:1"
   offset="1"
   id="stop8815" />
    </linearGradient>
    <linearGradient
   inkscape:collect="always"
   xlink:href="#linearGradient8817"
   id="linearGradient8819"
   x1="0.00015104213"
   y1="379.99832"
   x2="59.999996"
   y2="-0.00014301452"
   gradientUnits="userSpaceOnUse" />
  </defs>
  <metadata
   id="metadata8555">
    <rdf:RDF>
      <cc:Work
   rdf:about="">
        <dc:format>image/svg+xml</dc:format>
        <dc:type
   rdf:resource="http://purl.org/dc/dcmitype/StillImage" />
      <dc:title></dc:title></cc:Work>
    </rdf:RDF>
  </metadata>
  <sodipodi:namedview
   pagecolor="#ffffff"
   bordercolor="#666666"
   borderopacity="1"
   objecttolerance="10"
   gridtolerance="10"
   guidetolerance="10"
   inkscape:pageopacity="0"
   inkscape:pageshadow="2"
   inkscape:window-width="1920"
   inkscape:window-height="1017"
   id="namedview8551"
   showgrid="false"
   inkscape:zoom="1.5798254"
   inkscape:cx="-115.65067"
   inkscape:cy="195.03987"
   inkscape:window-x="1912"
   inkscape:window-y="-8"
   inkscape:window-maximized="1"
   inkscape:current-layer="svg8549" />
  <rect
   x="0.00015104213"
   y="-0.00014301452"
   width="59.999844"
   height="379.99847"
   style="fill:url(#linearGradient8819);stroke-width:2.39449477;fill-opacity:1"
   id="rect8352" />
  <path
   d="m 25.903052,130.66217 c 2.737136,-4.74196 1.664691,-10.82449 -2.533051,-14.34595 -4.193739,-3.52146 -10.372302,-3.52146 -14.566042,0 -4.1977413,3.52146 -5.2701862,9.60399 -2.5330507,14.34595 l 9.8160717,-5.66635 z"
   style="fill:none;stroke:#cccccc;stroke-width:1.04043162px"
   id="path8355"
   inkscape:connector-curvature="0" />
  <path
   d="m 25.530898,132.85867 0.02401,4.40983"
   style="fill:#cccccc;fill-rule:nonzero;stroke:#cccccc;stroke-width:1.04043162px"
   id="path8358"
   inkscape:connector-curvature="0" />
  <path
   d="m 27.747817,135.03157 -4.409829,0.02"
   style="fill:#cccccc;fill-rule:nonzero;stroke:#cccccc;stroke-width:1.04043162px"
   id="path8361"
   inkscape:connector-curvature="0" />
  <path
   d="m 9.428218,134.90752 -4.413831,0.02"
   style="fill:#cccccc;fill-rule:nonzero;stroke:#cccccc;stroke-width:1.04043162px"
   id="path8364"
   inkscape:connector-curvature="0" />
  <path
   d="M 16.08698,124.99982 16.06297,111.6903"
   style="fill:none;stroke:#cccccc;stroke-width:1.16048133px"
   id="path8367"
   inkscape:connector-curvature="0" />
  <path
   d="m 25.903052,130.66217 c 2.737136,-4.74196 1.664691,-10.82449 -2.533051,-14.34595 -4.193739,-3.52146 -10.372302,-3.52146 -14.566042,0 -4.1977413,3.52146 -5.2701862,9.60399 -2.5330507,14.34595 l 9.8160717,-5.66635 z"
   style="fill:none;stroke:#cccccc;stroke-width:1;stroke-miterlimit:4;stroke-dasharray:none;stroke-linecap:round"
   id="path8370"
   inkscape:connector-curvature="0" />
  <path
   d="m 25.530898,132.85867 0.02401,4.40983"
   style="fill:#cccccc;fill-rule:nonzero;stroke:#cccccc;stroke-width:1;stroke-miterlimit:4;stroke-dasharray:none;stroke-linecap:round"
   id="path8373"
   inkscape:connector-curvature="0" />
  <path
   d="m 27.747817,135.03157 -4.409829,0.02"
   style="fill:#cccccc;fill-rule:nonzero;stroke:#cccccc;stroke-width:1;stroke-miterlimit:4;stroke-dasharray:none;stroke-linecap:round"
   id="path8376"
   inkscape:connector-curvature="0" />
  <path
   d="m 9.428218,134.90752 -4.413831,0.02"
   style="fill:#cccccc;fill-rule:nonzero;stroke:#cccccc;stroke-width:1;stroke-miterlimit:4;stroke-dasharray:none;stroke-linecap:round"
   id="path8379"
   inkscape:connector-curvature="0" />
  <path
   d="m 58.000112,155.74966 c 0,-1.51786 -1.232232,-2.75019 -2.750005,-2.75019 H 5.7500113 c -1.517773,0 -2.7500053,1.23233 -2.7500053,2.75019 v 81.919 c 0,1.51786 1.2322323,2.75019 2.7500053,2.75019 H 55.250107 c 1.517773,0 2.750005,-1.23233 2.750005,-2.75019 z"
   style="fill:none;stroke:#4d4d4d;stroke-width:1.06593776px;stroke-linecap:round;stroke-linejoin:round;stroke-miterlimit:1.5"
   id="path8382"
   inkscape:connector-curvature="0" />
  <path
   d="m 58.000112,251.74966 c 0,-1.51786 -1.232232,-2.75019 -2.750005,-2.75019 H 5.7500113 c -1.517773,0 -2.7500053,1.23233 -2.7500053,2.75019 v 81.919 c 0,1.51786 1.2322323,2.75019 2.7500053,2.75019 H 55.250107 c 1.517773,0 2.750005,-1.23233 2.750005,-2.75019 z"
   style="fill:none;stroke:#4d4d4d;stroke-width:1.06593776px;stroke-linecap:round;stroke-linejoin:round;stroke-miterlimit:1.5"
   id="path8386"
   inkscape:connector-curvature="0" />
  <path
   d="M 16.08698,124.99982 16.06297,111.6903"
   style="fill:none;stroke:#cccccc;stroke-width:1;stroke-miterlimit:4;stroke-dasharray:none;stroke-linecap:round"
   id="path8390"
   inkscape:connector-curvature="0" />
  <rect
   id="rect8393"
   style="fill:#ffffff;fill-rule:nonzero;stroke-width:4.00165987"
   height="6.0345035"
   width="1.5686507"
   y="292.59628"
   x="18.729662" />
  <path
   inkscape:connector-curvature="0"
   id="path8395"
   style="fill:#ffffff;fill-rule:nonzero;stroke-width:4.00165987"
   d="m 21.562838,298.6308 v -6.0345 h 1.56865 l 2.897202,3.68953 v -3.68953 h 1.560648 v 6.0345 H 26.02869 l -2.897202,-3.68953 v 3.68953 z" />
  <path
   inkscape:connector-curvature="0"
   id="path8397"
   style="fill:#ffffff;fill-rule:nonzero;stroke-width:4.00165987"
   d="m 30.422513,295.36545 h 0.520216 c 0.576239,0 0.864358,-0.25211 0.864358,-0.75232 0,-0.5002 -0.288119,-0.75231 -0.864358,-0.75231 h -0.520216 z m 0,3.26535 h -1.568651 v -6.0345 h 2.497036 c 0.67628,0 1.196496,0.17607 1.556646,0.52822 0.360149,0.35214 0.540224,0.84835 0.540224,1.48861 0,0.64027 -0.180075,1.13647 -0.540224,1.48862 -0.36015,0.35215 -0.880366,0.52822 -1.556646,0.52822 h -0.928385 z" />
  <path
   inkscape:connector-curvature="0"
   id="path8399"
   style="fill:#ffffff;fill-rule:nonzero;stroke-width:4.00165987"
   d="m 35.848764,292.5963 v 3.28136 c 0,0.17607 0.008,0.35615 0.02001,0.54022 0.01201,0.18408 0.05202,0.35215 0.12005,0.50021 0.06803,0.14806 0.172071,0.27211 0.316131,0.36415 0.14406,0.092 0.348144,0.14006 0.608252,0.14006 0.260108,0 0.464193,-0.048 0.604251,-0.14006 0.140058,-0.092 0.248103,-0.21609 0.316131,-0.36415 0.06803,-0.14806 0.112047,-0.31613 0.124052,-0.50021 0.01201,-0.18407 0.02001,-0.36415 0.02001,-0.54022 v -3.28136 h 1.560647 v 3.49745 c 0,0.94039 -0.216089,1.62467 -0.644267,2.05685 -0.428178,0.43218 -1.088451,0.64827 -1.980822,0.64827 -0.89237,0 -1.552644,-0.21609 -1.984823,-0.64827 -0.432179,-0.43218 -0.648269,-1.11646 -0.648269,-2.05685 v -3.49745 z" />
  <path
   inkscape:connector-curvature="0"
   id="path8401"
   style="fill:#ffffff;fill-rule:nonzero;stroke-width:4.00165987"
   d="m 43.091768,293.92485 v 4.70595 h -1.56865 v -4.70595 h -1.288535 v -1.32855 h 4.14572 v 1.32855 z" />
  
  
  
  <g
   id="g1640"
   style="fill:#e0d6e8"><path
     d="m 18.89005,25.383356 c -0.267716,-0.217103 -0.536764,-0.379597 -0.80448,-0.483487 -0.269048,-0.105222 -0.528772,-0.157167 -0.780505,-0.157167 -0.318329,0 -0.578054,0.07459 -0.779173,0.226427 -0.20112,0.150507 -0.302346,0.347631 -0.302346,0.591372 0,0.167822 0.05061,0.30501 0.150507,0.414227 0.101226,0.109218 0.233086,0.203784 0.396912,0.283699 0.163826,0.07992 0.347631,0.149175 0.552747,0.20778 0.206447,0.0586 0.408899,0.121205 0.611351,0.187801 0.80448,0.269047 1.393188,0.627334 1.767458,1.076191 0.372937,0.448857 0.559406,1.03357 0.559406,1.754139 0,0.487482 -0.08258,0.927016 -0.245073,1.321264 -0.163826,0.394249 -0.403572,0.732556 -0.717905,1.012259 -0.314333,0.281036 -0.699258,0.49947 -1.157439,0.655305 -0.456848,0.154503 -0.974965,0.231754 -1.553018,0.231754 -1.198728,0 -2.310881,-0.355622 -3.333796,-1.0682 l 1.056213,-1.988556 c 0.368941,0.327652 0.733887,0.570062 1.094838,0.729892 0.36095,0.15983 0.716573,0.238414 1.069532,0.238414 0.402239,0 0.701921,-0.0919 0.899046,-0.275708 0.197124,-0.185137 0.295686,-0.394248 0.295686,-0.629998 0,-0.142515 -0.02531,-0.265052 -0.07459,-0.370274 -0.05061,-0.105221 -0.134524,-0.20112 -0.251733,-0.289026 -0.11854,-0.08924 -0.270379,-0.170486 -0.459512,-0.246406 -0.189133,-0.07459 -0.416891,-0.158498 -0.685939,-0.250401 -0.318329,-0.101225 -0.63133,-0.211775 -0.937671,-0.334311 -0.30501,-0.121205 -0.578054,-0.282368 -0.816467,-0.483487 -0.239746,-0.202452 -0.432874,-0.455517 -0.579386,-0.761859 -0.146511,-0.306341 -0.219766,-0.69393 -0.219766,-1.162766 0,-0.470168 0.07725,-0.896382 0.233086,-1.277311 0.154502,-0.382261 0.372937,-0.708582 0.653972,-0.981625 0.281035,-0.271712 0.624671,-0.483487 1.030906,-0.635326 0.407568,-0.150507 0.861753,-0.226426 1.365218,-0.226426 0.470168,0 0.960315,0.06526 1.471772,0.195792 0.511457,0.129196 1.001604,0.319661 1.471772,0.571394 z"
     style="fill:#e0d6e8;fill-rule:nonzero;stroke-width:1.33192003;fill-opacity:1"
     id="path8406"
     inkscape:connector-curvature="0" /><path
     d="m 27.205226,25.043716 h -2.930224 v 1.584985 h 2.76773 v 2.088451 h -2.76773 v 1.635597 h 2.930224 V 32.4412 h -5.395608 v -9.484602 h 5.395608 z"
     style="fill:#e0d6e8;fill-rule:nonzero;stroke-width:1.33192003;fill-opacity:1"
     id="path8408"
     inkscape:connector-curvature="0" /><path
     d="m 28.979344,32.4412 v -9.484602 h 2.465383 l 4.553835,5.799179 v -5.799179 h 2.453397 V 32.4412 h -2.453397 l -4.553835,-5.79918 v 5.79918 z"
     style="fill:#e0d6e8;fill-rule:nonzero;stroke-width:1.33192003;fill-opacity:1"
     id="path8410"
     inkscape:connector-curvature="0" /><path
     d="m 42.905899,30.352749 h 0.566066 c 0.427546,0 0.808475,-0.0666 1.144119,-0.201119 0.335644,-0.134524 0.619343,-0.318329 0.849765,-0.554079 0.230422,-0.234418 0.406236,-0.512789 0.527441,-0.836446 0.122536,-0.322325 0.182473,-0.676615 0.182473,-1.062872 0,-0.376933 -0.0626,-0.729892 -0.187801,-1.056213 -0.126532,-0.327652 -0.30501,-0.608687 -0.535432,-0.843105 -0.230422,-0.234418 -0.512789,-0.419555 -0.848433,-0.552747 -0.335644,-0.134524 -0.713909,-0.202452 -1.132132,-0.202452 h -0.566066 z m -2.466716,-7.396151 h 3.648129 c 0.645981,0 1.252005,0.129196 1.818071,0.38892 0.566066,0.261057 1.06154,0.606024 1.485091,1.038898 0.42355,0.431542 0.75653,0.935008 1.000272,1.509065 0.242409,0.574058 0.364946,1.176086 0.364946,1.804752 0,0.620675 -0.119873,1.218707 -0.359619,1.792764 -0.238413,0.574058 -0.570061,1.080187 -0.993612,1.515725 -0.423551,0.43687 -0.917693,0.784501 -1.483759,1.044225 -0.566066,0.259725 -1.176085,0.390253 -1.83139,0.390253 h -3.648129 z"
     style="fill:#e0d6e8;fill-rule:nonzero;stroke-width:1.33192003;fill-opacity:1"
     id="path8412"
     inkscape:connector-curvature="0" /></g>
  <path
   inkscape:connector-curvature="0"
   id="path8417"
   style="fill:none;stroke:#cccccc;stroke-width:1.5;stroke-miterlimit:4;stroke-dasharray:none;stroke-linecap:round"
   d="m 50.143115,86.846809 c 5.717818,-9.905954 3.479734,-22.610487 -5.28577,-29.963079 -8.761613,-7.352593 -21.660761,-7.352593 -30.422373,0 C 5.6733592,64.236322 3.4313829,76.940855 9.1530933,86.846809" />
  <path
   id="path9630"
   d="m 49.368544,89.337894 0.0506,9.217014"
   style="fill:#cccccc;stroke:#cccccc;stroke-width:1.5;stroke-miterlimit:4;stroke-dasharray:none;stroke-linecap:round"
   inkscape:connector-curvature="0" />
  <path
   id="path9630-1"
   d="m 54.000404,93.880231 -9.213121,0.04282"
   style="fill:#cccccc;stroke:#cccccc;stroke-width:1.5;stroke-miterlimit:4;stroke-dasharray:none;stroke-linecap:round"
   inkscape:connector-curvature="0" />
  <path
   id="path9630-1-6"
   d="m 15.738899,93.619446 -9.2131217,0.04282"
   style="fill:#cccccc;stroke:#cccccc;stroke-width:1.5;stroke-miterlimit:4;stroke-dasharray:none;stroke-linecap:round"
   inkscape:connector-curvature="0" />
  <path
   id="path9948"
   d="M 29.646158,75.018049 29.59945,48.670935"
   style="fill:none;stroke:#cccccc;stroke-width:1.5;stroke-miterlimit:4;stroke-dasharray:none;stroke-linecap:round"
   inkscape:connector-curvature="0" />
  <path
   inkscape:connector-curvature="0"
   id="path8426"
   style="fill:#ffffff;fill-rule:nonzero;stroke-width:4.00165987"
   d="m 17.876213,107.9643 h 0.344143 c 0.396164,0 0.67628,-0.052 0.848352,-0.15207 0.172071,-0.10004 0.256106,-0.26411 0.256106,-0.4882 0,-0.22409 -0.08404,-0.38816 -0.256106,-0.4882 -0.172072,-0.10004 -0.452188,-0.15207 -0.848352,-0.15207 h -0.344143 z m 0,-2.44902 h 0.28812 c 0.492204,0 0.736305,-0.19608 0.736305,-0.58424 0,-0.38816 -0.244101,-0.58425 -0.736305,-0.58425 h -0.28812 z m -1.568651,-2.36898 h 2.33697 c 0.55623,0 0.976405,0.13205 1.264524,0.40016 0.28812,0.26811 0.43218,0.65227 0.43218,1.15248 0,0.30413 -0.05602,0.55623 -0.164068,0.75631 -0.108045,0.20009 -0.276115,0.36816 -0.500208,0.50822 0.224093,0.044 0.416173,0.10804 0.572237,0.19608 0.156065,0.088 0.284118,0.19608 0.38416,0.32413 0.100041,0.12805 0.168069,0.27211 0.212088,0.43218 0.04402,0.16007 0.06403,0.33214 0.06403,0.51221 0,0.28412 -0.04802,0.53222 -0.148061,0.75232 -0.100042,0.22009 -0.236098,0.40416 -0.416173,0.55222 -0.180074,0.14807 -0.396164,0.26011 -0.65227,0.33614 -0.256107,0.076 -0.544226,0.11205 -0.864359,0.11205 h -2.521046 z" />
  <path
   inkscape:connector-curvature="0"
   id="path8428"
   style="fill:#ffffff;fill-rule:nonzero;stroke-width:4.00165987"
   d="m 23.41451,103.1463 v 4.70595 h 1.880781 v 1.32855 H 21.84586 v -6.0345 z" />
  <path
   inkscape:connector-curvature="0"
   id="path8430"
   style="fill:#ffffff;fill-rule:nonzero;stroke-width:4.00165987"
   d="m 29.53705,104.47485 h -1.864773 v 1.00842 h 1.76073 v 1.32855 h -1.76073 v 1.04043 h 1.864773 v 1.32855 h -3.433424 v -6.0345 h 3.433424 z" />
  <path
   inkscape:connector-curvature="0"
   id="path8432"
   style="fill:#ffffff;fill-rule:nonzero;stroke-width:4.00165987"
   d="m 30.665518,109.1808 v -6.0345 h 1.568651 l 2.897202,3.68953 v -3.68953 h 1.560647 v 6.0345 h -1.560647 l -2.897202,-3.68953 v 3.68953 z" />
  <path
   inkscape:connector-curvature="0"
   id="path8434"
   style="fill:#ffffff;fill-rule:nonzero;stroke-width:4.00165987"
   d="m 39.525194,107.85225 h 0.360149 c 0.272113,0 0.516214,-0.044 0.728302,-0.12805 0.212088,-0.084 0.392163,-0.20409 0.540224,-0.35215 0.148062,-0.14806 0.260108,-0.32814 0.33614,-0.53222 0.07603,-0.20409 0.116048,-0.43218 0.116048,-0.67628 0,-0.2401 -0.04002,-0.46419 -0.12005,-0.67228 -0.08003,-0.20809 -0.19208,-0.38816 -0.340141,-0.53622 -0.148062,-0.14806 -0.328136,-0.26811 -0.540224,-0.35215 -0.212088,-0.084 -0.452188,-0.12805 -0.720299,-0.12805 h -0.360149 z m -1.568651,-4.70595 h 2.320963 c 0.412171,0 0.79633,0.084 1.156479,0.2481 0.36015,0.16407 0.676281,0.38416 0.944392,0.66027 0.268111,0.27612 0.480199,0.59625 0.636264,0.9604 0.156065,0.36415 0.232096,0.74831 0.232096,1.14848 0,0.39616 -0.07603,0.77632 -0.228094,1.14047 -0.152063,0.36415 -0.364151,0.68829 -0.632262,0.9644 -0.268112,0.27612 -0.584243,0.50021 -0.944392,0.66428 -0.36015,0.16407 -0.748311,0.2481 -1.164483,0.2481 h -2.320963 z" />
  <path
   d="m 57.070181,251.23794 c 0,-0.72108 -0.585419,-1.30734 -1.306076,-1.30734 H 4.9975812 c -0.7206576,0 -1.306076,0.58626 -1.306076,1.30734 v 38.92399 c 0,0.72109 0.5854184,1.30614 1.306076,1.30614 H 55.764105 c 0.720657,0 1.306076,-0.58505 1.306076,-1.30614 z"
   id="path8439"
   inkscape:connector-curvature="0"
   style="fill:#0a0014;fill-opacity:1;stroke:#3b0067;stroke-width:1;stroke-miterlimit:4;stroke-dasharray:none;stroke-opacity:1" />
  <path
   d="m 57.070181,155.23794 c 0,-0.72108 -0.585419,-1.30734 -1.306076,-1.30734 H 4.9975812 c -0.7206576,0 -1.306076,0.58626 -1.306076,1.30734 v 38.92399 c 0,0.72109 0.5854184,1.30614 1.306076,1.30614 H 55.764105 c 0.720657,0 1.306076,-0.58505 1.306076,-1.30614 z"
   id="path8443"
   inkscape:connector-curvature="0"
   style="fill:#0a0014;fill-opacity:1;stroke:#3b0067;stroke-width:1;stroke-miterlimit:4;stroke-dasharray:none;stroke-opacity:1" />
  
  
  
  <g
   id="g1646"
   style="fill:#e0d6e8"><path
     inkscape:connector-curvature="0"
     style="fill:#e0d6e8;fill-rule:nonzero;stroke-width:0.0626855;fill-opacity:1"
     d="m 18.394489,356.09446 h 1.751935 l 1.631452,5.45019 1.68693,-5.45019 h 1.743033 l -2.267585,6.81328 c -0.211877,0.62818 -0.591501,0.94198 -1.139184,0.94198 -0.555017,0 -0.938465,-0.31713 -1.149966,-0.95163 z"
     id="path42" /><path
     inkscape:connector-curvature="0"
     style="fill:#e0d6e8;fill-rule:nonzero;stroke-width:0.0626855;fill-opacity:1"
     d="m 25.339102,361.8562 v -5.76174 h 1.64305 v 5.70695 c 0.02909,0.20454 0.219086,0.30672 0.569623,0.30672 h 1.117306 c 0.335807,0 0.522045,-0.0948 0.558654,-0.28478 l 0.01097,-0.0548 v -5.6741 h 1.643049 v 5.75077 c 0,0.50386 -0.05472,0.86173 -0.164299,1.07348 -0.292114,0.56242 -0.80695,0.84344 -1.544508,0.84344 h -2.125038 c -0.759623,0 -1.278032,-0.28842 -1.555478,-0.86538 -0.102303,-0.21168 -0.153329,-0.55859 -0.153329,-1.04057 z"
     id="path44" /><path
     inkscape:connector-curvature="0"
     style="fill:#e0d6e8;fill-rule:nonzero;stroke-width:0.0626855;fill-opacity:1"
     d="m 31.637553,361.88911 v -5.79459 h 1.643113 v 5.66313 c 0,0.23382 0.138597,0.35054 0.416231,0.35054 h 2.924718 l -0.01097,1.65408 h -3.056169 c -0.109512,0 -0.204543,-0.004 -0.28478,-0.011 -0.591563,-0.051 -1.011556,-0.22454 -1.259728,-0.52029 -0.24836,-0.29587 -0.372415,-0.74307 -0.372415,-1.3419 z"
     id="path46" /><path
     inkscape:connector-curvature="0"
     style="fill:#e0d6e8;fill-rule:nonzero;stroke-width:0.0626855;fill-opacity:1"
     d="m 36.676214,357.74848 v -1.65402 h 4.929274 v 1.65402 h -1.65402 v 6.01373 h -1.643112 v -6.01373 z"
     id="path48" /></g>
  <path
   id="path4"
   d="m 38.383465,346.41724 c 0,-4.50925 -3.655481,-8.1647 -8.164802,-8.1647 -4.50914,0 -8.164658,3.65545 -8.164658,8.1647 0,4.50921 3.655482,8.16469 8.164658,8.16469 4.509321,0 8.164802,-3.65548 8.164802,-8.16469 z"
   style="fill:#757575;fill-rule:nonzero;stroke:#414c55;stroke-width:0.61073178px;stroke-miterlimit:10;stroke-opacity:1"
   inkscape:connector-curvature="0" />
  <path
   inkscape:connector-curvature="0"
   style="fill:#2b2b2b;fill-rule:nonzero;stroke-width:0.0359254"
   d="m 28.320581,351.39363 0.552927,-0.89027 -1.063176,-2.39314 -2.216166,-2.28424 0.459414,3.10115 0.597404,1.2801 0.832714,1.26335 z"
   id="polygon6" />
  <path
   inkscape:connector-curvature="0"
   style="fill:#262626;fill-rule:nonzero;stroke-width:0.0359254"
   d="m 32.0482,351.40099 -0.552964,-0.89034 1.063284,-2.39306 2.216059,-2.28421 -0.459378,3.10112 -0.59744,1.28005 -0.832571,1.26343 z"
   id="polygon8" />
  <path
   inkscape:connector-curvature="0"
   style="fill:#424242;fill-rule:nonzero;stroke-width:0.0359254"
   d="m 27.636058,340.35896 2.58433,-0.66042 v 13.44771 l -1.349646,-2.65126 -1.06041,-2.38477 -1.022832,-0.58109 -2.05152,-2.92055 -0.05741,-0.77527 1.148571,-2.0674 z"
   id="polygon12" />
  <path
   inkscape:connector-curvature="0"
   style="fill:#333333;fill-rule:nonzero;stroke-width:0.0359254"
   d="m 32.801376,340.36377 -2.584186,-0.66038 v 13.44778 l 1.349502,-2.65133 1.060446,-2.38469 1.022904,-0.5812 2.051376,-2.92056 0.05745,-0.77523 -1.148499,-2.0674 z"
   id="polygon14" />
  <path
   inkscape:connector-curvature="0"
   style="fill:#4c4c4c;fill-rule:nonzero;stroke-width:0.0359254"
   d="m 28.49604,346.23704 1.722982,-1.68444 v 1.22969 l -1.722982,1.71821 v -1.26346"
   id="polyline16" />
  <path
   inkscape:connector-curvature="0"
   style="fill:#5b5b5b;fill-rule:nonzero;stroke-width:0.0359254"
   d="m 30.22028,345.78089 -1.722875,1.71821 0.376103,3.00426 1.34688,2.64289 z"
   id="polygon18" />
  <path
   inkscape:connector-curvature="0"
   style="fill:#333333;fill-rule:nonzero;stroke-width:0.0359254"
   d="m 30.220388,353.14625 -1.34688,-2.64289 1.346664,-0.63487 z"
   id="polygon20" />
  <path
   inkscape:connector-curvature="0"
   style="fill:#ffffff;fill-rule:nonzero;stroke-width:0.0359254"
   d="m 28.497405,347.4991 v -1.26346 l -1.248982,-1.57921 -1.477217,-1.19017 -0.0015,0.93169 0.775342,1.82328 z"
   id="polygon22" />
  <path
   inkscape:connector-curvature="0"
   style="fill:#2d2d2d;fill-rule:nonzero;stroke-width:0.0359254"
   d="m 31.942364,346.23772 -1.722874,-1.68443 v 1.22969 l 1.722874,1.71817 v -1.26343"
   id="polyline24" />
  <path
   inkscape:connector-curvature="0"
   style="fill:#353535;fill-rule:nonzero;stroke-width:0.0359254"
   d="m 30.217514,345.78089 1.722766,1.71821 -0.376103,3.00426 -1.346771,2.64289 z"
   id="polygon26" />
  <path
   inkscape:connector-curvature="0"
   style="fill:#191919;fill-rule:nonzero;stroke-width:0.0359254"
   d="m 30.217406,353.14625 1.346771,-2.64289 -1.346556,-0.63487 z"
   id="polygon28" />
  <path
   inkscape:connector-curvature="0"
   style="fill:#ffffff;fill-rule:nonzero;stroke-width:0.0359254"
   d="m 31.94028,347.4991 v -1.26343 l 1.248947,-1.57921 1.477324,-1.1902 0.0015,0.93172 -0.775198,1.82332 z"
   id="polygon30" />
  <path
   inkscape:connector-curvature="0"
   style="fill:#383838;fill-rule:nonzero;stroke-width:0.0359254"
   d="m 27.65226,340.33776 2.565972,4.2151 -0.0055,-4.86955"
   id="polyline32" />
  <path
   inkscape:connector-curvature="0"
   style="fill:#2d2d2d;fill-rule:nonzero;stroke-width:0.0359254"
   d="m 32.784994,340.3382 -2.565972,4.21509 0.0055,-4.86951"
   id="polyline34" />
  <path
   inkscape:connector-curvature="0"
   style="fill:#333333;fill-rule:nonzero;stroke-width:0.0359254"
   d="m 27.810907,348.11051 0.68772,-0.61008 0.375349,3.00602 z"
   id="polygon36" />
  <path
   inkscape:connector-curvature="0"
   style="fill:#1c1c1c;fill-rule:nonzero;stroke-width:0.0359254"
   d="m 32.630659,348.12528 -0.687756,-0.61009 -0.375349,3.00606 z"
   id="polygon38" />
  <path
   d="m 15.69217,285.139 v 4.116 h 1.645 v 1.162 h -3.017 v -5.278 z"
   style="fill:#808080;fill-rule:nonzero"
   id="path8471"
   inkscape:connector-curvature="0" />
  <path
   d="m 44.624,287.498 h 0.259 c 0.271,0 0.479,-0.056 0.623,-0.168 0.145,-0.112 0.217,-0.273 0.217,-0.483 0,-0.21 -0.072,-0.371 -0.217,-0.483 -0.144,-0.112 -0.352,-0.168 -0.623,-0.168 h -0.259 z m 3.017,2.919 h -1.708 l -1.309,-2.03 v 2.03 h -1.372 v -5.278 h 2.135 c 0.294,0 0.551,0.043 0.77,0.13 0.22,0.086 0.401,0.204 0.543,0.353 0.142,0.149 0.25,0.322 0.322,0.518 0.072,0.196 0.108,0.406 0.108,0.63 0,0.401 -0.096,0.727 -0.29,0.977 -0.194,0.249 -0.48,0.418 -0.858,0.507 z"
   style="fill:#808080;fill-rule:nonzero"
   id="path8475"
   inkscape:connector-curvature="0" />
  <path
   d="m 15.69217,232.13896 v 4.116 h 1.645 v 1.162 h -3.017 v -5.278 z"
   style="fill:#8c8c8c;fill-rule:nonzero"
   id="path8479"
   inkscape:connector-curvature="0" />
  <path
   d="m 44.624,234.49796 h 0.259 c 0.271,0 0.479,-0.056 0.623,-0.168 0.145,-0.112 0.217,-0.273 0.217,-0.483 0,-0.21 -0.072,-0.371 -0.217,-0.483 -0.144,-0.112 -0.352,-0.168 -0.623,-0.168 h -0.259 z m 3.017,2.919 h -1.708 l -1.309,-2.03 v 2.03 h -1.372 v -5.278 h 2.135 c 0.294,0 0.551,0.043 0.77,0.13 0.22,0.086 0.401,0.204 0.543,0.353 0.142,0.149 0.25,0.322 0.322,0.518 0.072,0.196 0.108,0.406 0.108,0.63 0,0.401 -0.096,0.727 -0.29,0.977 -0.194,0.249 -0.48,0.418 -0.858,0.507 z"
   style="fill:#8c8c8c;fill-rule:nonzero"
   id="path8483"
   inkscape:connector-curvature="0" />
  <path
   d="m 15.69217,189.8511 v 3.56068 h 1.645 v 1.00522 h -3.017 v -4.5659 z"
   style="fill:#8c8c8c;fill-rule:nonzero;stroke-width:0.93009716"
   id="path8487"
   inkscape:connector-curvature="0" />
  <path
   d="m 44.624,191.89183 h 0.259 c 0.271,0 0.479,-0.0485 0.623,-0.14533 0.145,-0.0969 0.217,-0.23617 0.217,-0.41784 0,-0.18167 -0.072,-0.32094 -0.217,-0.41783 -0.144,-0.0969 -0.352,-0.14534 -0.623,-0.14534 h -0.259 z m 3.017,2.52517 h -1.708 l -1.309,-1.75611 v 1.75611 h -1.372 v -4.5659 h 2.135 c 0.294,0 0.551,0.0372 0.77,0.11246 0.22,0.0744 0.401,0.17648 0.543,0.30538 0.142,0.1289 0.25,0.27855 0.322,0.44811 0.072,0.16956 0.108,0.35122 0.108,0.545 0,0.3469 -0.096,0.62891 -0.29,0.84518 -0.194,0.21541 -0.48,0.36161 -0.858,0.4386 z"
   style="fill:#8c8c8c;fill-rule:nonzero;stroke-width:0.93009716"
   id="path8491"
   inkscape:connector-curvature="0" />
  <path
   d="m 15.69217,325.139 v 4.116 h 1.645 v 1.162 h -3.017 v -5.278 z"
   style="fill:#8c8c8c;fill-rule:nonzero"
   id="path8495"
   inkscape:connector-curvature="0" />
  <path
   d="m 44.624,327.498 h 0.259 c 0.271,0 0.479,-0.056 0.623,-0.168 0.145,-0.112 0.217,-0.273 0.217,-0.483 0,-0.21 -0.072,-0.371 -0.217,-0.483 -0.144,-0.112 -0.352,-0.168 -0.623,-0.168 h -0.259 z m 3.017,2.919 h -1.708 l -1.309,-2.03 v 2.03 h -1.372 v -5.278 h 2.135 c 0.294,0 0.551,0.043 0.77,0.13 0.22,0.086 0.401,0.204 0.543,0.353 0.142,0.149 0.25,0.322 0.322,0.518 0.072,0.196 0.108,0.406 0.108,0.63 0,0.401 -0.096,0.727 -0.29,0.977 -0.194,0.249 -0.48,0.418 -0.858,0.507 z"
   style="fill:#8c8c8c;fill-rule:nonzero"
   id="path8499"
   inkscape:connector-curvature="0" />
  <path
   d="m 58.000112,45.750118 c 0,-1.517564 -1.232232,-2.750188 -2.750005,-2.750188 H 5.7500113 c -1.517773,0 -2.7500053,1.232624 -2.7500053,2.750188 v 92.919042 c 0,1.51757 1.2322323,2.75019 2.7500053,2.75019 H 55.250107 c 1.517773,0 2.750005,-1.23262 2.750005,-2.75019 z"
   style="fill:none;stroke:#4d4d4d;stroke-width:1.01401341px;stroke-linecap:round;stroke-linejoin:round;stroke-miterlimit:1.5"
   id="path8503"
   inkscape:connector-curvature="0" />
  <path
   inkscape:connector-curvature="0"
   id="path8507"
   style="fill:#ffffff;fill-rule:nonzero;stroke-width:4.00165987"
   d="m 14.64163,255.78155 c 0,0.2401 0.04402,0.46019 0.136056,0.66427 0.09204,0.20409 0.212088,0.38016 0.368153,0.52822 0.156065,0.14806 0.33614,0.26411 0.540224,0.34815 0.204085,0.084 0.424176,0.12405 0.652271,0.12405 0.228094,0 0.448186,-0.04 0.65227,-0.12405 0.204085,-0.084 0.388161,-0.20009 0.544226,-0.34815 0.156065,-0.14806 0.280116,-0.32413 0.372155,-0.52822 0.09204,-0.20408 0.136056,-0.42417 0.136056,-0.66427 0,-0.2401 -0.04402,-0.46019 -0.136056,-0.66428 -0.09204,-0.20408 -0.21609,-0.38015 -0.372155,-0.52822 -0.156065,-0.14806 -0.340141,-0.26411 -0.544226,-0.34814 -0.204084,-0.084 -0.424176,-0.12405 -0.65227,-0.12405 -0.228095,0 -0.448186,0.04 -0.652271,0.12405 -0.204084,0.084 -0.384159,0.20008 -0.540224,0.34814 -0.156065,0.14807 -0.276114,0.32414 -0.368153,0.52822 -0.09204,0.20409 -0.136056,0.42418 -0.136056,0.66428 z m -1.640681,0 c 0,-0.44819 0.08404,-0.86436 0.248103,-1.25252 0.164068,-0.38816 0.396165,-0.7243 0.688286,-1.01242 0.292121,-0.28812 0.644267,-0.51221 1.052436,-0.67628 0.40817,-0.16407 0.856356,-0.2441 1.34856,-0.2441 0.484201,0 0.932387,0.08 1.344558,0.2441 0.412171,0.16407 0.764317,0.38816 1.060439,0.67628 0.296123,0.28812 0.52822,0.62426 0.692288,1.01242 0.164068,0.38816 0.248103,0.80433 0.248103,1.25252 0,0.44818 -0.08404,0.86436 -0.248103,1.25252 -0.164068,0.38816 -0.396165,0.7243 -0.692288,1.01242 -0.296122,0.28812 -0.648268,0.51221 -1.060439,0.67628 -0.412171,0.16407 -0.860357,0.2441 -1.344558,0.2441 -0.492204,0 -0.94039,-0.08 -1.34856,-0.2441 -0.408169,-0.16407 -0.760315,-0.38816 -1.052436,-0.67628 -0.292121,-0.28812 -0.524218,-0.62426 -0.688286,-1.01242 -0.164068,-0.38816 -0.248103,-0.80434 -0.248103,-1.25252 z" />
  <path
   inkscape:connector-curvature="0"
   id="path8509"
   style="fill:#ffffff;fill-rule:nonzero;stroke-width:4.00165987"
   d="m 22.244784,252.7643 v 3.28136 c 0,0.17607 0.008,0.35615 0.02001,0.54022 0.012,0.18408 0.05202,0.35215 0.12005,0.50021 0.06803,0.14806 0.172071,0.27211 0.316131,0.36415 0.14406,0.092 0.348145,0.14006 0.608253,0.14006 0.260107,0 0.464192,-0.048 0.60425,-0.14006 0.140058,-0.092 0.248103,-0.21609 0.316131,-0.36415 0.06803,-0.14806 0.112047,-0.31613 0.124052,-0.50021 0.012,-0.18407 0.02001,-0.36415 0.02001,-0.54022 v -3.28136 h 1.560648 v 3.49745 c 0,0.94039 -0.21609,1.62467 -0.644268,2.05685 -0.428177,0.43218 -1.088451,0.64827 -1.980821,0.64827 -0.892371,0 -1.552645,-0.21609 -1.984824,-0.64827 -0.432179,-0.43218 -0.648269,-1.11646 -0.648269,-2.05685 v -3.49745 z" />
  <path
   inkscape:connector-curvature="0"
   id="path8511"
   style="fill:#ffffff;fill-rule:nonzero;stroke-width:4.00165987"
   d="m 29.487789,254.09285 v 4.70595 h -1.568651 v -4.70595 h -1.288535 v -1.32855 h 4.14572 v 1.32855 z" />
  <path
   inkscape:connector-curvature="0"
   id="path8513"
   style="fill:#ffffff;fill-rule:nonzero;stroke-width:4.00165987"
   d="m 33.041263,255.53345 h 0.520215 c 0.57624,0 0.864359,-0.25211 0.864359,-0.75232 0,-0.5002 -0.288119,-0.75231 -0.864359,-0.75231 h -0.520215 z m 0,3.26535 h -1.568651 v -6.0345 h 2.497036 c 0.67628,0 1.196496,0.17607 1.556646,0.52822 0.360149,0.35214 0.540224,0.84835 0.540224,1.48861 0,0.64027 -0.180075,1.13647 -0.540224,1.48862 -0.36015,0.35215 -0.880366,0.52822 -1.556646,0.52822 h -0.928385 z" />
  <path
   inkscape:connector-curvature="0"
   id="path8515"
   style="fill:#ffffff;fill-rule:nonzero;stroke-width:4.00165987"
   d="m 38.467514,252.7643 v 3.28136 c 0,0.17607 0.008,0.35615 0.02001,0.54022 0.01201,0.18408 0.05202,0.35215 0.12005,0.50021 0.06803,0.14806 0.172071,0.27211 0.316131,0.36415 0.14406,0.092 0.348144,0.14006 0.608252,0.14006 0.260108,0 0.464193,-0.048 0.604251,-0.14006 0.140058,-0.092 0.248103,-0.21609 0.316131,-0.36415 0.06803,-0.14806 0.112046,-0.31613 0.124051,-0.50021 0.01201,-0.18407 0.02001,-0.36415 0.02001,-0.54022 v -3.28136 h 1.560647 v 3.49745 c 0,0.94039 -0.216089,1.62467 -0.644267,2.05685 -0.428178,0.43218 -1.088452,0.64827 -1.980822,0.64827 -0.89237,0 -1.552644,-0.21609 -1.984823,-0.64827 -0.432179,-0.43218 -0.648269,-1.11646 -0.648269,-2.05685 v -3.49745 z" />
  <path
   inkscape:connector-curvature="0"
   id="path8517"
   style="fill:#ffffff;fill-rule:nonzero;stroke-width:4.00165987"
   d="m 45.710518,254.09285 v 4.70595 h -1.56865 v -4.70595 h -1.288535 v -1.32855 h 4.14572 v 1.32855 z" />
  <path
   inkscape:connector-curvature="0"
   id="path8522"
   style="fill:#ffffff;fill-rule:nonzero;stroke-width:4.00165987"
   d="m 22.435407,158.30894 c -0.172072,-0.14006 -0.340141,-0.2401 -0.512213,-0.30813 -0.172071,-0.068 -0.336139,-0.10004 -0.496206,-0.10004 -0.204084,0 -0.368152,0.048 -0.496205,0.14406 -0.128054,0.096 -0.19208,0.22009 -0.19208,0.37615 0,0.10805 0.03201,0.19609 0.09604,0.26411 0.06403,0.068 0.148061,0.12806 0.252104,0.18008 0.104044,0.052 0.220092,0.096 0.352146,0.13205 0.132055,0.036 0.260108,0.076 0.388161,0.12005 0.512213,0.17207 0.888369,0.40017 1.124467,0.68429 0.236098,0.28411 0.356148,0.65627 0.356148,1.11646 0,0.30813 -0.05202,0.58824 -0.156065,0.84035 -0.104043,0.2521 -0.256106,0.46419 -0.456189,0.64427 -0.200083,0.18007 -0.444185,0.31613 -0.736306,0.41617 -0.292121,0.10004 -0.620257,0.14806 -0.98841,0.14806 -0.764317,0 -1.468609,-0.22809 -2.12088,-0.68028 l 0.672279,-1.26453 c 0.236098,0.20809 0.468194,0.36415 0.696289,0.4642 0.228095,0.10004 0.456189,0.15206 0.680282,0.15206 0.256107,0 0.448186,-0.06 0.572238,-0.17607 0.124051,-0.11605 0.188078,-0.25211 0.188078,-0.40017 0,-0.092 -0.01601,-0.16807 -0.04802,-0.2361 -0.03201,-0.068 -0.08404,-0.12805 -0.160067,-0.18407 -0.07603,-0.056 -0.172071,-0.10805 -0.292121,-0.15607 -0.12005,-0.048 -0.264109,-0.10004 -0.436181,-0.16007 -0.204084,-0.064 -0.400166,-0.13605 -0.596247,-0.21208 -0.196081,-0.076 -0.368153,-0.18008 -0.520216,-0.30813 -0.152063,-0.12805 -0.276114,-0.28812 -0.368153,-0.4842 -0.09204,-0.19608 -0.140058,-0.44019 -0.140058,-0.74031 0,-0.30012 0.04802,-0.56824 0.148062,-0.81234 0.100041,-0.2441 0.236098,-0.45218 0.416172,-0.62426 0.180075,-0.17207 0.396165,-0.30812 0.656273,-0.40416 0.260108,-0.096 0.548227,-0.14406 0.86836,-0.14406 0.300124,0 0.612254,0.04 0.936388,0.12405 0.324135,0.084 0.636264,0.20408 0.936389,0.36415 z" />
  <path
   inkscape:connector-curvature="0"
   id="path8524"
   style="fill:#ffffff;fill-rule:nonzero;stroke-width:4.00165987"
   d="m 27.725601,158.09285 h -1.864773 v 1.00842 h 1.76073 v 1.32855 h -1.76073 v 1.04043 h 1.864773 v 1.32855 h -3.433424 v -6.0345 h 3.433424 z" />
  <path
   inkscape:connector-curvature="0"
   id="path8526"
   style="fill:#ffffff;fill-rule:nonzero;stroke-width:4.00165987"
   d="m 28.854069,162.7988 v -6.0345 h 1.568651 l 2.897202,3.68953 v -3.68953 h 1.560647 v 6.0345 h -1.560647 l -2.897202,-3.68953 v 3.68953 z" />
  <path
   inkscape:connector-curvature="0"
   id="path8528"
   style="fill:#ffffff;fill-rule:nonzero;stroke-width:4.00165987"
   d="m 37.713745,161.47025 h 0.360149 c 0.272113,0 0.516214,-0.044 0.728302,-0.12805 0.212088,-0.084 0.392163,-0.20409 0.540224,-0.35215 0.148062,-0.14806 0.260108,-0.32814 0.33614,-0.53222 0.07603,-0.20409 0.116048,-0.43218 0.116048,-0.67628 0,-0.2401 -0.04002,-0.46419 -0.12005,-0.67228 -0.08003,-0.20809 -0.19208,-0.38816 -0.340141,-0.53622 -0.148061,-0.14806 -0.328136,-0.26811 -0.540224,-0.35215 -0.212088,-0.084 -0.452188,-0.12805 -0.720299,-0.12805 h -0.360149 z m -1.568651,-4.70595 h 2.320963 c 0.412171,0 0.79633,0.084 1.156479,0.2481 0.36015,0.16407 0.676281,0.38416 0.944392,0.66027 0.268111,0.27612 0.480199,0.59625 0.636264,0.9604 0.156065,0.36415 0.232096,0.74831 0.232096,1.14848 0,0.39616 -0.07603,0.77632 -0.228094,1.14047 -0.152063,0.36415 -0.364151,0.68829 -0.632262,0.9644 -0.268112,0.27612 -0.584243,0.50021 -0.944392,0.66428 -0.36015,0.16407 -0.748311,0.2481 -1.164483,0.2481 h -2.320963 z" />
  <path
   inkscape:connector-curvature="0"
   id="path8533"
   style="fill:#ffffff;fill-rule:nonzero;stroke-width:4.00165987"
   d="m 14.661783,201.46142 h 0.296123 c 0.308128,0 0.548227,-0.064 0.712295,-0.19208 0.164068,-0.12806 0.248103,-0.31213 0.248103,-0.55223 0,-0.2401 -0.08403,-0.42418 -0.248103,-0.55223 -0.164068,-0.12806 -0.404167,-0.19208 -0.712295,-0.19208 h -0.296123 z m 3.449431,3.33738 h -1.95281 l -1.496621,-2.32096 v 2.32096 h -1.568651 v -6.0345 h 2.441013 c 0.336139,0 0.62826,0.048 0.880365,0.14806 0.252105,0.10004 0.456189,0.23209 0.620257,0.40417 0.164068,0.17207 0.284118,0.36815 0.368153,0.59224 0.08403,0.22409 0.124052,0.46419 0.124052,0.7203 0,0.46019 -0.112047,0.83235 -0.332138,1.11646 -0.220092,0.28412 -0.548228,0.4802 -0.980407,0.58024 z" />
  <path
   inkscape:connector-curvature="0"
   id="path8535"
   style="fill:#ffffff;fill-rule:nonzero;stroke-width:4.00165987"
   d="m 22.20091,200.09285 h -1.864773 v 1.00842 h 1.76073 v 1.32855 h -1.76073 v 1.04043 h 1.864773 v 1.32855 h -3.433424 v -6.0345 h 3.433424 z" />
  <path
   inkscape:connector-curvature="0"
   id="path8537"
   style="fill:#ffffff;fill-rule:nonzero;stroke-width:4.00165987"
   d="m 25.618328,200.09285 v 4.70595 h -1.568651 v -4.70595 h -1.288534 v -1.32855 h 4.14572 v 1.32855 z" />
  <path
   inkscape:connector-curvature="0"
   id="path8539"
   style="fill:#ffffff;fill-rule:nonzero;stroke-width:4.00165987"
   d="m 29.171802,198.7643 v 3.28136 c 0,0.17607 0.008,0.35615 0.02001,0.54022 0.012,0.18408 0.05202,0.35215 0.12005,0.50021 0.06803,0.14806 0.172072,0.27211 0.316131,0.36415 0.14406,0.092 0.348145,0.14006 0.608253,0.14006 0.260108,0 0.464192,-0.048 0.60425,-0.14006 0.140058,-0.092 0.248103,-0.21609 0.316132,-0.36415 0.06803,-0.14806 0.112046,-0.31613 0.124051,-0.50021 0.012,-0.18407 0.02001,-0.36415 0.02001,-0.54022 v -3.28136 h 1.560648 v 3.49745 c 0,0.94039 -0.21609,1.62467 -0.644268,2.05685 -0.428177,0.43218 -1.088451,0.64827 -1.980821,0.64827 -0.89237,0 -1.552644,-0.21609 -1.984824,-0.64827 -0.432179,-0.43218 -0.648269,-1.11646 -0.648269,-2.05685 v -3.49745 z" />
  <path
   inkscape:connector-curvature="0"
   id="path8541"
   style="fill:#ffffff;fill-rule:nonzero;stroke-width:4.00165987"
   d="m 35.694508,201.46142 h 0.296123 c 0.308128,0 0.548227,-0.064 0.712295,-0.19208 0.164068,-0.12806 0.248103,-0.31213 0.248103,-0.55223 0,-0.2401 -0.08404,-0.42418 -0.248103,-0.55223 -0.164068,-0.12806 -0.404167,-0.19208 -0.712295,-0.19208 h -0.296123 z m 3.449431,3.33738 h -1.95281 l -1.496621,-2.32096 v 2.32096 h -1.568651 v -6.0345 h 2.441013 c 0.336139,0 0.62826,0.048 0.880365,0.14806 0.252105,0.10004 0.456189,0.23209 0.620257,0.40417 0.164068,0.17207 0.284118,0.36815 0.368153,0.59224 0.08404,0.22409 0.124052,0.46419 0.124052,0.7203 0,0.46019 -0.112047,0.83235 -0.332138,1.11646 -0.220092,0.28412 -0.548228,0.4802 -0.980407,0.58024 z" />
  <path
   inkscape:connector-curvature="0"
   id="path8543"
   style="fill:#ffffff;fill-rule:nonzero;stroke-width:4.00165987"
   d="m 39.800211,204.7988 v -6.0345 h 1.568651 l 2.897202,3.68953 v -3.68953 h 1.560647 v 6.0345 h -1.560647 l -2.897202,-3.68953 v 3.68953 z" />
</svg>