<?xml version="1.0" encoding="UTF-8" standalone="no"?>
<svg
   xmlns:dc="http://purl.org/dc/elements/1.1/"
   xmlns:cc="http://creativecommons.org/ns#"
   xmlns:rdf="http://www.w3.org/1999/02/22-rdf-syntax-ns#"
   xmlns:svg="http://www.w3.org/2000/svg"
   xmlns="http://www.w3.org/2000/svg"
   xmlns:xlink="http://www.w3.org/1999/xlink"
   xmlns:sodipodi="http://sodipodi.sourceforge.net/DTD/sodipodi-0.dtd"
   xmlns:inkscape="http://www.inkscape.org/namespaces/inkscape"
   width="150px"
   height="380px"
   version="1.1"
   xml:space="preserve"
   style="fill-rule:evenodd;clip-rule:evenodd;"
   id="svg13582"
   sodipodi:docname="Vortex.svg"
   inkscape:version="0.92.3 (2405546, 2018-03-11)">
  <defs
   id="defs13586">
    <linearGradient
   inkscape:collect="always"
   id="linearGradient13967">
      <stop
   style="stop-color:#0b0019;stop-opacity:1"
   offset="0"
   id="stop13963" />
      <stop
   style="stop-color:#170028;stop-opacity:1"
   offset="1"
   id="stop13965" />
    </linearGradient>
    <linearGradient
   inkscape:collect="always"
   xlink:href="#linearGradient13967"
   id="linearGradient13969"
   x1="0.00032814531"
   y1="379.99832"
   x2="150.00034"
   y2="-0.00014301452"
   gradientUnits="userSpaceOnUse" />
  </defs>
  <metadata
   id="metadata13588">
    <rdf:RDF>
      <cc:Work
   rdf:about="">
        <dc:format>image/svg+xml</dc:format>
        <dc:type
   rdf:resource="http://purl.org/dc/dcmitype/StillImage" />
      <dc:title></dc:title></cc:Work>
    </rdf:RDF>
  </metadata>
  <sodipodi:namedview
   pagecolor="#ffffff"
   bordercolor="#666666"
   borderopacity="1"
   objecttolerance="10"
   gridtolerance="10"
   guidetolerance="10"
   inkscape:pageopacity="0"
   inkscape:pageshadow="2"
   inkscape:window-width="1920"
   inkscape:window-height="1017"
   id="namedview13584"
   showgrid="false"
   inkscape:zoom="1.5798254"
   inkscape:cx="12.07275"
   inkscape:cy="223.94964"
   inkscape:window-x="1912"
   inkscape:window-y="-8"
   inkscape:window-maximized="1"
   inkscape:current-layer="svg13582" />
  <rect
   x="0.00032814531"
   y="-0.00014301452"
   width="150"
   height="379.99847"
   style="fill:url(#linearGradient13969);stroke-width:3.78603339;fill-opacity:1"
   id="rect13307" />
  <path
   d="m 126.90355,77.593173 c 2.73714,-4.741967 1.66469,-10.824491 -2.53305,-14.345951 -4.19374,-3.521461 -10.3723,-3.521461 -14.56604,0 -4.19774,3.52146 -5.27019,9.603984 -2.53305,14.345951 l 9.81607,-5.666351 z"
   style="fill:none;stroke:#cccccc;stroke-width:1;stroke-miterlimit:4;stroke-dasharray:none;stroke-linecap:round"
   id="path13310"
   inkscape:connector-curvature="0" />
  <path
   d="m 126.5314,78.789669 0.024,4.409829"
   style="fill:#cccccc;fill-rule:nonzero;stroke:#cccccc;stroke-width:1;stroke-miterlimit:4;stroke-dasharray:none;stroke-linecap:round"
   id="path13313"
   inkscape:connector-curvature="0" />
  <path
   d="m 128.74832,80.96257 -4.40983,0.02001"
   style="fill:#cccccc;fill-rule:nonzero;stroke:#cccccc;stroke-width:1;stroke-miterlimit:4;stroke-dasharray:none;stroke-linecap:round"
   id="path13316"
   inkscape:connector-curvature="0" />
  <path
   d="m 110.42872,80.838519 -4.41383,0.02001"
   style="fill:#cccccc;fill-rule:nonzero;stroke:#cccccc;stroke-width:1;stroke-miterlimit:4;stroke-dasharray:none;stroke-linecap:round"
   id="path13319"
   inkscape:connector-curvature="0" />
  <path
   d="m 117.08748,71.930824 -0.024,-13.309521"
   style="fill:none;stroke:#cccccc;stroke-width:1;stroke-miterlimit:4;stroke-dasharray:none;stroke-linecap:round"
   id="path13322"
   inkscape:connector-curvature="0" />
  <path
   inkscape:connector-curvature="0"
   id="path13325"
   style="fill:#ffffff;fill-rule:nonzero;stroke-width:4.00165987"
   d="m 44.682865,123.16313 c -0.364151,-0.44418 -0.812337,-0.66427 -1.344558,-0.66427 -0.236098,0 -0.452187,0.044 -0.65227,0.12805 -0.200083,0.084 -0.372155,0.20008 -0.516214,0.34815 -0.14406,0.14806 -0.256107,0.32013 -0.340142,0.52421 -0.08403,0.20409 -0.124051,0.42018 -0.124051,0.65628 0,0.24009 0.04002,0.46019 0.124051,0.66427 0.08404,0.20409 0.196082,0.38016 0.344143,0.52822 0.148062,0.14806 0.320133,0.26811 0.516214,0.35215 0.196082,0.084 0.412171,0.12805 0.640266,0.12805 0.500207,0 0.952395,-0.21209 1.352561,-0.64027 v 1.85677 l -0.160066,0.056 c -0.2401,0.084 -0.464193,0.14806 -0.672279,0.18807 -0.208087,0.04 -0.412171,0.06 -0.616256,0.06 -0.416173,0 -0.816339,-0.08 -1.196496,-0.2361 -0.380158,-0.15606 -0.716297,-0.38016 -1.008419,-0.66427 -0.292121,-0.28412 -0.524217,-0.62426 -0.70029,-1.01643 -0.176073,-0.39216 -0.26411,-0.82034 -0.26411,-1.28453 0,-0.46419 0.08804,-0.88837 0.260108,-1.27653 0.172072,-0.38816 0.404168,-0.7203 0.696289,-1.00041 0.292121,-0.28012 0.628261,-0.50021 1.01242,-0.65628 0.384159,-0.15606 0.788327,-0.23609 1.208501,-0.23609 0.2401,0 0.476198,0.024 0.708294,0.076 0.232097,0.052 0.476198,0.12805 0.732304,0.2361 z" />
  <path
   inkscape:connector-curvature="0"
   id="path13327"
   style="fill:#ffffff;fill-rule:nonzero;stroke-width:4.00165987"
   d="m 47.243927,121.1463 v 3.28136 c 0,0.17607 0.008,0.35615 0.02001,0.54022 0.01201,0.18408 0.05202,0.35215 0.12005,0.50021 0.06803,0.14806 0.172071,0.27211 0.316131,0.36415 0.144059,0.092 0.348144,0.14006 0.608252,0.14006 0.260108,0 0.464193,-0.048 0.604251,-0.14006 0.140058,-0.092 0.248103,-0.21609 0.316131,-0.36415 0.06803,-0.14806 0.112046,-0.31613 0.124051,-0.50021 0.01201,-0.18407 0.02001,-0.36415 0.02001,-0.54022 v -3.28136 h 1.560647 v 3.49745 c 0,0.94039 -0.21609,1.62467 -0.644267,2.05685 -0.428178,0.43218 -1.088452,0.64827 -1.980822,0.64827 -0.89237,0 -1.552644,-0.21609 -1.984823,-0.64827 -0.43218,-0.43218 -0.648269,-1.11646 -0.648269,-2.05685 v -3.49745 z" />
  <path
   inkscape:connector-curvature="0"
   id="path13329"
   style="fill:#ffffff;fill-rule:nonzero;stroke-width:4.00165987"
   d="m 54.486932,122.47485 v 4.70595 h -1.568651 v -4.70595 h -1.288534 v -1.32855 h 4.14572 v 1.32855 z" />
  <path
   inkscape:connector-curvature="0"
   id="path13331"
   style="fill:#ffffff;fill-rule:nonzero;stroke-width:4.00165987"
   d="m 57.7843,124.16355 c 0,0.2401 0.04402,0.46019 0.136056,0.66427 0.09204,0.20409 0.212088,0.38016 0.368153,0.52822 0.156065,0.14806 0.336139,0.26411 0.540224,0.34815 0.204085,0.084 0.424176,0.12405 0.652271,0.12405 0.228094,0 0.448186,-0.04 0.65227,-0.12405 0.204085,-0.084 0.388161,-0.20009 0.544226,-0.34815 0.156065,-0.14806 0.280116,-0.32413 0.372154,-0.52822 0.09204,-0.20408 0.136057,-0.42417 0.136057,-0.66427 0,-0.2401 -0.04402,-0.46019 -0.136057,-0.66428 -0.09204,-0.20408 -0.216089,-0.38015 -0.372154,-0.52822 -0.156065,-0.14806 -0.340141,-0.26411 -0.544226,-0.34814 -0.204084,-0.084 -0.424176,-0.12405 -0.65227,-0.12405 -0.228095,0 -0.448186,0.04 -0.652271,0.12405 -0.204085,0.084 -0.384159,0.20008 -0.540224,0.34814 -0.156065,0.14807 -0.276115,0.32414 -0.368153,0.52822 -0.09204,0.20409 -0.136056,0.42418 -0.136056,0.66428 z m -1.640681,0 c 0,-0.44819 0.08404,-0.86436 0.248103,-1.25252 0.164068,-0.38816 0.396165,-0.7243 0.688286,-1.01242 0.292121,-0.28812 0.644267,-0.51221 1.052436,-0.67628 0.40817,-0.16407 0.856356,-0.2441 1.34856,-0.2441 0.484201,0 0.932386,0.08 1.344557,0.2441 0.412171,0.16407 0.764318,0.38816 1.06044,0.67628 0.296123,0.28812 0.528219,0.62426 0.692288,1.01242 0.164068,0.38816 0.248102,0.80433 0.248102,1.25252 0,0.44818 -0.08403,0.86436 -0.248102,1.25252 -0.164069,0.38816 -0.396165,0.7243 -0.692288,1.01242 -0.296122,0.28812 -0.648269,0.51221 -1.06044,0.67628 -0.412171,0.16407 -0.860356,0.2441 -1.344557,0.2441 -0.492204,0 -0.94039,-0.08 -1.34856,-0.2441 -0.408169,-0.16407 -0.760315,-0.38816 -1.052436,-0.67628 -0.292121,-0.28812 -0.524218,-0.62426 -0.688286,-1.01242 -0.164068,-0.38816 -0.248103,-0.80434 -0.248103,-1.25252 z" />
  <path
   inkscape:connector-curvature="0"
   id="path13333"
   style="fill:#ffffff;fill-rule:nonzero;stroke-width:4.00165987"
   d="m 67.276237,122.47485 h -1.888783 v 1.00842 h 1.720714 v 1.32855 h -1.720714 v 2.36898 h -1.568651 v -6.0345 h 3.457434 z" />
  <path
   inkscape:connector-curvature="0"
   id="path13335"
   style="fill:#ffffff;fill-rule:nonzero;stroke-width:4.00165987"
   d="m 71.67006,122.47485 h -1.888783 v 1.00842 h 1.720713 v 1.32855 h -1.720713 v 2.36898 h -1.568651 v -6.0345 h 3.457434 z" />
  <path
   d="m 126.90355,77.593173 c 2.73714,-4.741967 1.66469,-10.824491 -2.53305,-14.345951 -4.19374,-3.521461 -10.3723,-3.521461 -14.56604,0 -4.19774,3.52146 -5.27019,9.603984 -2.53305,14.345951 l 9.81607,-5.666351 z"
   style="fill:none;stroke:#cccccc;stroke-width:1;stroke-miterlimit:4;stroke-dasharray:none;stroke-linecap:round"
   id="path13340"
   inkscape:connector-curvature="0" />
  <path
   d="m 126.5314,78.789669 0.024,4.409829"
   style="fill:#cccccc;fill-rule:nonzero;stroke:#cccccc;stroke-width:1;stroke-miterlimit:4;stroke-dasharray:none;stroke-linecap:round"
   id="path13343"
   inkscape:connector-curvature="0" />
  <path
   d="m 128.74832,80.96257 -4.40983,0.02001"
   style="fill:#cccccc;fill-rule:nonzero;stroke:#cccccc;stroke-width:1;stroke-miterlimit:4;stroke-dasharray:none;stroke-linecap:round"
   id="path13346"
   inkscape:connector-curvature="0" />
  <path
   d="m 110.42872,80.838519 -4.41383,0.02001"
   style="fill:#cccccc;fill-rule:nonzero;stroke:#cccccc;stroke-width:1;stroke-miterlimit:4;stroke-dasharray:none;stroke-linecap:round"
   id="path13349"
   inkscape:connector-curvature="0" />
  <path
   d="m 117.08748,71.930824 -0.024,-13.309521"
   style="fill:none;stroke:#cccccc;stroke-width:1;stroke-miterlimit:4;stroke-dasharray:none;stroke-linecap:round"
   id="path13352"
   inkscape:connector-curvature="0" />
  <path
   d="m 84.738783,103.17329 c 8.221111,-14.242842 5.003181,-32.509492 -7.594315,-43.081092 -12.597496,-10.566003 -31.149562,-10.566003 -43.747059,0 -12.597496,10.5716 -15.815426,28.83825 -7.594315,43.081092"
   style="fill:none;stroke:#cccccc;stroke-width:1.5;stroke-miterlimit:4;stroke-dasharray:none;stroke-linecap:round"
   id="path13355"
   inkscape:connector-curvature="0" />
  <circle
   cx="26.172579"
   cy="112.44025"
   r="3.7055371"
   style="fill:none;stroke:#cccccc;stroke-width:1;stroke-miterlimit:4;stroke-dasharray:none"
   id="circle13358" />
  <circle
   cx="84.952255"
   cy="111.92801"
   r="3.7055371"
   style="fill:#cccccc;stroke:#cccccc;stroke-width:1;stroke-miterlimit:4;stroke-dasharray:none"
   id="circle13361" />
  <path
   d="m 126.90355,155.66217 c 2.73714,-4.74196 1.66469,-10.82449 -2.53305,-14.34595 -4.19374,-3.52146 -10.3723,-3.52146 -14.56604,0 -4.19774,3.52146 -5.27019,9.60399 -2.53305,14.34595 l 9.81607,-5.66635 z"
   style="fill:none;stroke:#cccccc;stroke-width:1;stroke-miterlimit:4;stroke-dasharray:none;stroke-linecap:round"
   id="path13364"
   inkscape:connector-curvature="0" />
  <path
   d="m 126.5314,156.85867 0.024,4.40983"
   style="fill:#cccccc;fill-rule:nonzero;stroke:#cccccc;stroke-width:1;stroke-miterlimit:4;stroke-dasharray:none;stroke-linecap:round"
   id="path13367"
   inkscape:connector-curvature="0" />
  <path
   d="m 128.74832,159.03157 -4.40983,0.02"
   style="fill:#cccccc;fill-rule:nonzero;stroke:#cccccc;stroke-width:1;stroke-miterlimit:4;stroke-dasharray:none;stroke-linecap:round"
   id="path13370"
   inkscape:connector-curvature="0" />
  <path
   d="m 110.42872,158.90752 -4.41383,0.02"
   style="fill:#cccccc;fill-rule:nonzero;stroke:#cccccc;stroke-width:1;stroke-miterlimit:4;stroke-dasharray:none;stroke-linecap:round"
   id="path13373"
   inkscape:connector-curvature="0" />
  <path
   d="m 117.08748,149.99982 -0.024,-13.30952"
   style="fill:none;stroke:#cccccc;stroke-width:1;stroke-miterlimit:4;stroke-dasharray:none;stroke-linecap:round"
   id="path13376"
   inkscape:connector-curvature="0" />
  <path
   inkscape:connector-curvature="0"
   id="path13379"
   style="fill:#ffffff;fill-rule:nonzero;stroke-width:4.00165987"
   d="m 30.659813,191.73942 h 0.296123 c 0.308128,0 0.548227,-0.064 0.712295,-0.19208 0.164068,-0.12806 0.248103,-0.31213 0.248103,-0.55223 0,-0.2401 -0.08404,-0.42418 -0.248103,-0.55223 -0.164068,-0.12806 -0.404167,-0.19208 -0.712295,-0.19208 h -0.296123 z m 3.449431,3.33738 h -1.95281 l -1.496621,-2.32096 v 2.32096 h -1.568651 v -6.0345 h 2.441013 c 0.336139,0 0.62826,0.048 0.880365,0.14806 0.252105,0.10004 0.456189,0.23209 0.620257,0.40417 0.164068,0.17207 0.284118,0.36815 0.368153,0.59224 0.08404,0.22409 0.124052,0.46419 0.124052,0.7203 0,0.46019 -0.112047,0.83235 -0.332138,1.11646 -0.220092,0.28412 -0.548228,0.4802 -0.980407,0.58024 z" />
  <path
   inkscape:connector-curvature="0"
   id="path13381"
   style="fill:#ffffff;fill-rule:nonzero;stroke-width:4.00165987"
   d="m 38.19894,190.37085 h -1.864773 v 1.00842 h 1.76073 v 1.32855 h -1.76073 v 1.04043 h 1.864773 v 1.32855 h -3.433424 v -6.0345 h 3.433424 z" />
  <path
   inkscape:connector-curvature="0"
   id="path13383"
   style="fill:#ffffff;fill-rule:nonzero;stroke-width:4.00165987"
   d="m 42.640783,190.58694 c -0.172071,-0.14006 -0.340141,-0.2401 -0.512212,-0.30813 -0.172072,-0.068 -0.33614,-0.10004 -0.496206,-0.10004 -0.204085,0 -0.368153,0.048 -0.496206,0.14406 -0.128053,0.096 -0.19208,0.22009 -0.19208,0.37615 0,0.10805 0.03201,0.19609 0.09604,0.26411 0.06403,0.068 0.148061,0.12806 0.252105,0.18008 0.104043,0.052 0.220091,0.096 0.352146,0.13205 0.132054,0.036 0.260108,0.076 0.388161,0.12005 0.512212,0.17207 0.888368,0.40017 1.124466,0.68429 0.236098,0.28411 0.356148,0.65627 0.356148,1.11646 0,0.30813 -0.05202,0.58824 -0.156065,0.84035 -0.104043,0.2521 -0.256106,0.46419 -0.456189,0.64427 -0.200083,0.18007 -0.444184,0.31613 -0.736306,0.41617 -0.292121,0.10004 -0.620257,0.14806 -0.98841,0.14806 -0.764317,0 -1.468609,-0.22809 -2.120879,-0.68028 l 0.672279,-1.26453 c 0.236098,0.20809 0.468194,0.36415 0.696288,0.4642 0.228095,0.10004 0.45619,0.15206 0.680283,0.15206 0.256106,0 0.448186,-0.06 0.572237,-0.17607 0.124051,-0.11605 0.188078,-0.25211 0.188078,-0.40017 0,-0.092 -0.01601,-0.16807 -0.04802,-0.2361 -0.03201,-0.068 -0.08404,-0.12805 -0.160066,-0.18407 -0.07603,-0.056 -0.172072,-0.10805 -0.292121,-0.15607 -0.12005,-0.048 -0.26411,-0.10004 -0.436181,-0.16007 -0.204085,-0.064 -0.400166,-0.13605 -0.596248,-0.21208 -0.196081,-0.076 -0.368152,-0.18008 -0.520216,-0.30813 -0.152063,-0.12805 -0.276114,-0.28812 -0.368152,-0.4842 -0.09204,-0.19608 -0.140058,-0.44019 -0.140058,-0.74031 0,-0.30012 0.04802,-0.56824 0.148061,-0.81234 0.100042,-0.2441 0.236098,-0.45218 0.416173,-0.62426 0.180074,-0.17207 0.396164,-0.30812 0.656272,-0.40416 0.260108,-0.096 0.548227,-0.14406 0.86836,-0.14406 0.300125,0 0.612254,0.04 0.936389,0.12405 0.324134,0.084 0.636263,0.20408 0.936388,0.36415 z" />
  <path
   inkscape:connector-curvature="0"
   id="path13385"
   style="fill:#ffffff;fill-rule:nonzero;stroke-width:4.00165987"
   d="m 45.866121,192.05955 c 0,0.2401 0.04402,0.46019 0.136056,0.66427 0.09204,0.20409 0.212088,0.38016 0.368153,0.52822 0.156065,0.14806 0.33614,0.26411 0.540224,0.34815 0.204085,0.084 0.424176,0.12405 0.652271,0.12405 0.228094,0 0.448186,-0.04 0.65227,-0.12405 0.204085,-0.084 0.388161,-0.20009 0.544226,-0.34815 0.156065,-0.14806 0.280116,-0.32413 0.372155,-0.52822 0.09204,-0.20408 0.136056,-0.42417 0.136056,-0.66427 0,-0.2401 -0.04402,-0.46019 -0.136056,-0.66428 -0.09204,-0.20408 -0.21609,-0.38015 -0.372155,-0.52822 -0.156065,-0.14806 -0.340141,-0.26411 -0.544226,-0.34814 -0.204084,-0.084 -0.424176,-0.12405 -0.65227,-0.12405 -0.228095,0 -0.448186,0.04 -0.652271,0.12405 -0.204084,0.084 -0.384159,0.20008 -0.540224,0.34814 -0.156065,0.14807 -0.276114,0.32414 -0.368153,0.52822 -0.09204,0.20409 -0.136056,0.42418 -0.136056,0.66428 z m -1.640681,0 c 0,-0.44819 0.08404,-0.86436 0.248103,-1.25252 0.164068,-0.38816 0.396165,-0.7243 0.688286,-1.01242 0.292121,-0.28812 0.644267,-0.51221 1.052436,-0.67628 0.40817,-0.16407 0.856356,-0.2441 1.34856,-0.2441 0.484201,0 0.932387,0.08 1.344558,0.2441 0.412171,0.16407 0.764317,0.38816 1.060439,0.67628 0.296123,0.28812 0.52822,0.62426 0.692288,1.01242 0.164068,0.38816 0.248103,0.80433 0.248103,1.25252 0,0.44818 -0.08404,0.86436 -0.248103,1.25252 -0.164068,0.38816 -0.396165,0.7243 -0.692288,1.01242 -0.296122,0.28812 -0.648268,0.51221 -1.060439,0.67628 -0.412171,0.16407 -0.860357,0.2441 -1.344558,0.2441 -0.492204,0 -0.94039,-0.08 -1.34856,-0.2441 -0.408169,-0.16407 -0.760315,-0.38816 -1.052436,-0.67628 -0.292121,-0.28812 -0.524218,-0.62426 -0.688286,-1.01242 -0.164068,-0.38816 -0.248103,-0.80434 -0.248103,-1.25252 z" />
  <path
   inkscape:connector-curvature="0"
   id="path13387"
   style="fill:#ffffff;fill-rule:nonzero;stroke-width:4.00165987"
   d="m 51.900624,195.0768 v -6.0345 h 1.568651 l 2.897202,3.68953 v -3.68953 h 1.560647 v 6.0345 h -1.560647 l -2.897202,-3.68953 v 3.68953 z" />
  <path
   inkscape:connector-curvature="0"
   id="path13389"
   style="fill:#ffffff;fill-rule:nonzero;stroke-width:4.00165987"
   d="m 62.489017,192.83587 -0.704293,-2.00883 -0.704292,2.00883 z m 0.416172,1.1925 H 60.66426 l -0.36015,1.04843 h -1.672694 l 2.296953,-6.0345 h 1.712711 l 2.296953,6.0345 h -1.672694 z" />
  <path
   inkscape:connector-curvature="0"
   id="path13391"
   style="fill:#ffffff;fill-rule:nonzero;stroke-width:4.00165987"
   d="m 65.626318,195.0768 v -6.0345 h 1.568651 l 2.897202,3.68953 v -3.68953 h 1.560647 v 6.0345 h -1.560647 l -2.897202,-3.68953 v 3.68953 z" />
  <path
   inkscape:connector-curvature="0"
   id="path13393"
   style="fill:#ffffff;fill-rule:nonzero;stroke-width:4.00165987"
   d="m 77.343179,191.05913 c -0.364152,-0.44418 -0.812337,-0.66427 -1.344558,-0.66427 -0.236098,0 -0.452188,0.044 -0.652271,0.12805 -0.200083,0.084 -0.372154,0.20008 -0.516214,0.34815 -0.14406,0.14806 -0.256106,0.32013 -0.340141,0.52421 -0.08404,0.20409 -0.124051,0.42018 -0.124051,0.65628 0,0.24009 0.04002,0.46019 0.124051,0.66427 0.08404,0.20409 0.196081,0.38016 0.344143,0.52822 0.148061,0.14806 0.320133,0.26811 0.516214,0.35215 0.196081,0.084 0.412171,0.12805 0.640265,0.12805 0.500208,0 0.952396,-0.21209 1.352562,-0.64027 v 1.85677 l -0.160067,0.056 c -0.240099,0.084 -0.464192,0.14806 -0.672279,0.18807 -0.208086,0.04 -0.412171,0.06 -0.616255,0.06 -0.416173,0 -0.816339,-0.08 -1.196497,-0.2361 -0.380157,-0.15606 -0.716297,-0.38016 -1.008418,-0.66427 -0.292121,-0.28412 -0.524217,-0.62426 -0.700291,-1.01643 -0.176073,-0.39216 -0.264109,-0.82034 -0.264109,-1.28453 0,-0.46419 0.08804,-0.88837 0.260108,-1.27653 0.172071,-0.38816 0.404167,-0.7203 0.696289,-1.00041 0.292121,-0.28012 0.62826,-0.50021 1.01242,-0.65628 0.384159,-0.15606 0.788327,-0.23609 1.208501,-0.23609 0.2401,0 0.476197,0.024 0.708294,0.076 0.232096,0.052 0.476197,0.12805 0.732304,0.2361 z" />
  <path
   inkscape:connector-curvature="0"
   id="path13395"
   style="fill:#ffffff;fill-rule:nonzero;stroke-width:4.00165987"
   d="m 81.769015,190.37085 h -1.864774 v 1.00842 h 1.76073 v 1.32855 h -1.76073 v 1.04043 h 1.864774 v 1.32855 H 78.33559 v -6.0345 h 3.433425 z" />
  <path
   d="m 126.90355,155.66217 c 2.73714,-4.74196 1.66469,-10.82449 -2.53305,-14.34595 -4.19374,-3.52146 -10.3723,-3.52146 -14.56604,0 -4.19774,3.52146 -5.27019,9.60399 -2.53305,14.34595 l 9.81607,-5.66635 z"
   style="fill:none;stroke:#cccccc;stroke-width:1;stroke-miterlimit:4;stroke-dasharray:none;stroke-linecap:round"
   id="path13400"
   inkscape:connector-curvature="0" />
  <path
   d="m 126.5314,156.85867 0.024,4.40983"
   style="fill:#cccccc;fill-rule:nonzero;stroke:#cccccc;stroke-width:1;stroke-miterlimit:4;stroke-dasharray:none;stroke-linecap:round"
   id="path13403"
   inkscape:connector-curvature="0" />
  <path
   d="m 128.74832,159.03157 -4.40983,0.02"
   style="fill:#cccccc;fill-rule:nonzero;stroke:#cccccc;stroke-width:1;stroke-miterlimit:4;stroke-dasharray:none;stroke-linecap:round"
   id="path13406"
   inkscape:connector-curvature="0" />
  <path
   d="m 110.42872,158.90752 -4.41383,0.02"
   style="fill:#cccccc;fill-rule:nonzero;stroke:#cccccc;stroke-width:1;stroke-miterlimit:4;stroke-dasharray:none;stroke-linecap:round"
   id="path13409"
   inkscape:connector-curvature="0" />
  <path
   d="m 117.08748,149.99982 -0.024,-13.30952"
   style="fill:none;stroke:#cccccc;stroke-width:1;stroke-miterlimit:4;stroke-dasharray:none;stroke-linecap:round"
   id="path13412"
   inkscape:connector-curvature="0" />
  <path
   inkscape:connector-curvature="0"
   id="path13415"
   style="fill:none;stroke:#cccccc;stroke-width:1.5;stroke-miterlimit:4;stroke-dasharray:none;stroke-linecap:round"
   d="m 75.382657,173.24137 c 5.878438,-10.18422 3.577484,-23.24564 -5.430253,-30.80478 -9.007736,-7.55513 -22.273239,-7.55513 -31.280976,0 -9.007737,7.55914 -11.308691,20.62056 -5.430253,30.80478" />
  <circle
   id="circle13418"
   style="fill:none;stroke:#cccccc;stroke-width:1;stroke-miterlimit:4;stroke-dasharray:none"
   r="3.7055371"
   cy="182.50925"
   cx="36.172581" />
  <circle
   id="circle13421"
   style="fill:#cccccc;stroke:#cccccc;stroke-width:1;stroke-miterlimit:4;stroke-dasharray:none"
   r="3.7055371"
   cy="181.99701"
   cx="73.952255" />
  <path
   inkscape:connector-curvature="0"
   id="path13426"
   style="fill:none;stroke:#cccccc;stroke-width:1.5;stroke-miterlimit:4;stroke-dasharray:none;stroke-linecap:round"
   d="m 75.382657,243.24137 c 5.878438,-10.18422 3.577484,-23.24564 -5.430253,-30.80478 -9.007736,-7.55513 -22.273239,-7.55513 -31.280976,0 -9.007737,7.55914 -11.308691,20.62056 -5.430253,30.80478" />
  <circle
   id="circle13429"
   style="fill:none;stroke:#cccccc;stroke-width:1;stroke-miterlimit:4;stroke-dasharray:none"
   r="3.7055371"
   cy="252.50925"
   cx="36.172581" />
  <circle
   id="circle13432"
   style="fill:#cccccc;stroke:#cccccc;stroke-width:1;stroke-miterlimit:4;stroke-dasharray:none"
   r="3.7055371"
   cy="251.99701"
   cx="73.952255" />
  <rect
   id="rect13437"
   style="fill:#ffffff;fill-rule:nonzero;stroke-width:4.00165987"
   height="6.0345035"
   width="1.5686507"
   y="353.61331"
   x="62.164253" />
  <path
   inkscape:connector-curvature="0"
   id="path13439"
   style="fill:#ffffff;fill-rule:nonzero;stroke-width:4.00165987"
   d="m 64.997428,359.6478 v -6.0345 h 1.56865 l 2.897202,3.68953 v -3.68953 h 1.560648 v 6.0345 H 69.46328 l -2.897202,-3.68953 v 3.68953 z" />
  <path
   inkscape:connector-curvature="0"
   id="path13441"
   style="fill:#ffffff;fill-rule:nonzero;stroke-width:4.00165987"
   d="m 73.857103,356.38245 h 0.520216 c 0.576239,0 0.864358,-0.25211 0.864358,-0.75232 0,-0.5002 -0.288119,-0.75231 -0.864358,-0.75231 h -0.520216 z m 0,3.26535 h -1.568651 v -6.0345 h 2.497036 c 0.67628,0 1.196496,0.17607 1.556646,0.52822 0.360149,0.35214 0.540224,0.84835 0.540224,1.48861 0,0.64027 -0.180075,1.13647 -0.540224,1.48862 -0.36015,0.35215 -0.880366,0.52822 -1.556646,0.52822 h -0.928385 z" />
  <path
   inkscape:connector-curvature="0"
   id="path13443"
   style="fill:#ffffff;fill-rule:nonzero;stroke-width:4.00165987"
   d="m 79.283354,353.6133 v 3.28136 c 0,0.17607 0.008,0.35615 0.02001,0.54022 0.012,0.18408 0.05202,0.35215 0.12005,0.50021 0.06803,0.14806 0.172071,0.27211 0.316131,0.36415 0.14406,0.092 0.348144,0.14006 0.608252,0.14006 0.260108,0 0.464193,-0.048 0.604251,-0.14006 0.140058,-0.092 0.248103,-0.21609 0.316131,-0.36415 0.06803,-0.14806 0.112047,-0.31613 0.124052,-0.50021 0.01201,-0.18407 0.02001,-0.36415 0.02001,-0.54022 v -3.28136 h 1.560647 v 3.49745 c 0,0.94039 -0.216089,1.62467 -0.644267,2.05685 -0.428178,0.43218 -1.088451,0.64827 -1.980822,0.64827 -0.89237,0 -1.552644,-0.21609 -1.984823,-0.64827 -0.432179,-0.43218 -0.648269,-1.11646 -0.648269,-2.05685 v -3.49745 z" />
  <path
   inkscape:connector-curvature="0"
   id="path13445"
   style="fill:#ffffff;fill-rule:nonzero;stroke-width:4.00165987"
   d="m 86.526358,354.94185 v 4.70595 h -1.56865 v -4.70595 h -1.288535 v -1.32855 h 4.14572 v 1.32855 z" />
  <path
   inkscape:connector-curvature="0"
   id="path13450"
   style="fill:#4b4b4b;fill-rule:nonzero;stroke-width:4.00165987"
   d="m 64.64163,272.55655 c 0,0.2401 0.04402,0.46019 0.136056,0.66427 0.09204,0.20409 0.212088,0.38016 0.368153,0.52822 0.156065,0.14806 0.33614,0.26411 0.540224,0.34815 0.204085,0.084 0.424176,0.12405 0.652271,0.12405 0.228094,0 0.448186,-0.04 0.65227,-0.12405 0.204085,-0.084 0.388161,-0.20009 0.544226,-0.34815 0.156065,-0.14806 0.280116,-0.32413 0.372155,-0.52822 0.09204,-0.20408 0.136056,-0.42417 0.136056,-0.66427 0,-0.2401 -0.04402,-0.46019 -0.136056,-0.66428 -0.09204,-0.20408 -0.21609,-0.38015 -0.372155,-0.52822 -0.156065,-0.14806 -0.340141,-0.26411 -0.544226,-0.34814 -0.204084,-0.084 -0.424176,-0.12405 -0.65227,-0.12405 -0.228095,0 -0.448186,0.04 -0.652271,0.12405 -0.204084,0.084 -0.384159,0.20008 -0.540224,0.34814 -0.156065,0.14807 -0.276114,0.32414 -0.368153,0.52822 -0.09204,0.20409 -0.136056,0.42418 -0.136056,0.66428 z m -1.640681,0 c 0,-0.44819 0.08404,-0.86436 0.248103,-1.25252 0.164068,-0.38816 0.396165,-0.7243 0.688286,-1.01242 0.292121,-0.28812 0.644267,-0.51221 1.052436,-0.67628 0.40817,-0.16407 0.856356,-0.2441 1.34856,-0.2441 0.484201,0 0.932387,0.08 1.344558,0.2441 0.412171,0.16407 0.764317,0.38816 1.060439,0.67628 0.296123,0.28812 0.52822,0.62426 0.692288,1.01242 0.164068,0.38816 0.248103,0.80433 0.248103,1.25252 0,0.44818 -0.08404,0.86436 -0.248103,1.25252 -0.164068,0.38816 -0.396165,0.7243 -0.692288,1.01242 -0.296122,0.28812 -0.648268,0.51221 -1.060439,0.67628 -0.412171,0.16407 -0.860357,0.2441 -1.344558,0.2441 -0.492204,0 -0.94039,-0.08 -1.34856,-0.2441 -0.408169,-0.16407 -0.760315,-0.38816 -1.052436,-0.67628 -0.292121,-0.28812 -0.524218,-0.62426 -0.688286,-1.01242 -0.164068,-0.38816 -0.248103,-0.80434 -0.248103,-1.25252 z" />
  <path
   inkscape:connector-curvature="0"
   id="path13452"
   style="fill:#4b4b4b;fill-rule:nonzero;stroke-width:4.00165987"
   d="m 72.244784,269.5393 v 3.28136 c 0,0.17607 0.008,0.35615 0.02001,0.54022 0.01201,0.18408 0.05202,0.35215 0.12005,0.50021 0.06803,0.14806 0.172071,0.27211 0.316131,0.36415 0.14406,0.092 0.348145,0.14006 0.608253,0.14006 0.260107,0 0.464192,-0.048 0.60425,-0.14006 0.140058,-0.092 0.248103,-0.21609 0.316131,-0.36415 0.06803,-0.14806 0.112047,-0.31613 0.124052,-0.50021 0.01201,-0.18407 0.02001,-0.36415 0.02001,-0.54022 v -3.28136 h 1.560648 v 3.49745 c 0,0.94039 -0.21609,1.62467 -0.644268,2.05685 -0.428177,0.43218 -1.088451,0.64827 -1.980821,0.64827 -0.892371,0 -1.552645,-0.21609 -1.984824,-0.64827 -0.432179,-0.43218 -0.648269,-1.11646 -0.648269,-2.05685 v -3.49745 z" />
  <path
   inkscape:connector-curvature="0"
   id="path13454"
   style="fill:#4b4b4b;fill-rule:nonzero;stroke-width:4.00165987"
   d="m 79.487789,270.86785 v 4.70595 h -1.568651 v -4.70595 h -1.288535 v -1.32855 h 4.14572 v 1.32855 z" />
  <path
   inkscape:connector-curvature="0"
   id="path13456"
   style="fill:#4b4b4b;fill-rule:nonzero;stroke-width:4.00165987"
   d="m 83.041263,272.30845 h 0.520215 c 0.57624,0 0.864359,-0.25211 0.864359,-0.75232 0,-0.5002 -0.288119,-0.75231 -0.864359,-0.75231 h -0.520215 z m 0,3.26535 h -1.568651 v -6.0345 h 2.497036 c 0.67628,0 1.196496,0.17607 1.556646,0.52822 0.360149,0.35214 0.540224,0.84835 0.540224,1.48861 0,0.64027 -0.180075,1.13647 -0.540224,1.48862 -0.36015,0.35215 -0.880366,0.52822 -1.556646,0.52822 h -0.928385 z" />
  <path
   inkscape:connector-curvature="0"
   id="path13458"
   style="fill:#4b4b4b;fill-rule:nonzero;stroke-width:4.00165987"
   d="m 88.467514,269.5393 v 3.28136 c 0,0.17607 0.008,0.35615 0.02001,0.54022 0.01201,0.18408 0.05202,0.35215 0.12005,0.50021 0.06803,0.14806 0.172071,0.27211 0.316131,0.36415 0.14406,0.092 0.348144,0.14006 0.608252,0.14006 0.260108,0 0.464193,-0.048 0.604251,-0.14006 0.140058,-0.092 0.248103,-0.21609 0.316131,-0.36415 0.06803,-0.14806 0.112046,-0.31613 0.124051,-0.50021 0.01201,-0.18407 0.02001,-0.36415 0.02001,-0.54022 v -3.28136 h 1.560647 v 3.49745 c 0,0.94039 -0.216089,1.62467 -0.644267,2.05685 -0.428178,0.43218 -1.088452,0.64827 -1.980822,0.64827 -0.89237,0 -1.552644,-0.21609 -1.984823,-0.64827 -0.432179,-0.43218 -0.648269,-1.11646 -0.648269,-2.05685 v -3.49745 z" />
  <path
   inkscape:connector-curvature="0"
   id="path13460"
   style="fill:#4b4b4b;fill-rule:nonzero;stroke-width:4.00165987"
   d="m 95.710518,270.86785 v 4.70595 h -1.56865 v -4.70595 h -1.288535 v -1.32855 h 4.14572 v 1.32855 z" />
  <path
   inkscape:connector-curvature="0"
   id="path13465"
   style="fill:#ffffff;fill-rule:nonzero;stroke-width:1.05876994"
   d="m 45.15778,38.5591 v -5.111742 h 1.378519 v 0.963481 c 0.356805,-0.719963 0.899954,-1.079945 1.629447,-1.079945 0.08682,0 0.172579,0.0095 0.256222,0.02753 v 1.229232 c -0.195873,-0.07094 -0.376922,-0.106936 -0.545267,-0.106936 -0.549501,0 -0.996302,0.278456 -1.340402,0.833252 v 3.24513 z" />
  <path
   inkscape:connector-curvature="0"
   id="path13467"
   style="fill:#ffffff;fill-rule:nonzero;stroke-width:1.05876994"
   d="m 52.653872,38.5591 v -0.963481 c -0.446801,0.719964 -1.028066,1.079946 -1.741677,1.079946 -0.45633,0 -0.816312,-0.143993 -1.079945,-0.433037 -0.263634,-0.289044 -0.39598,-0.682907 -0.39598,-1.182646 v -3.612524 h 1.378518 v 3.272659 c 0,0.580205 0.193755,0.870308 0.582324,0.870308 0.434095,0 0.853368,-0.308102 1.25676,-0.926423 v -3.216544 h 1.377459 V 38.5591 Z" />
  <path
   inkscape:connector-curvature="0"
   id="path13469"
   style="fill:#ffffff;fill-rule:nonzero;stroke-width:1.05876994"
   d="m 55.619486,38.396049 v -1.010066 c 0.682907,0.285868 1.266289,0.427743 1.750147,0.427743 0.565383,0 0.847016,-0.191637 0.847016,-0.57703 0,-0.247752 -0.232929,-0.4648 -0.697729,-0.651143 l -0.465859,-0.186344 c -0.506092,-0.205401 -0.867133,-0.425625 -1.085239,-0.661731 -0.217048,-0.235047 -0.325043,-0.527268 -0.325043,-0.874544 0,-0.484917 0.184226,-0.86078 0.553737,-1.129708 0.369511,-0.267868 0.886191,-0.402332 1.550039,-0.402332 0.416097,0 0.911601,0.06035 1.485455,0.182108 v 0.967716 c -0.552678,-0.192696 -1.010067,-0.287985 -1.373225,-0.287985 -0.571736,0 -0.856545,0.176814 -0.856545,0.530443 0,0.23293 0.210695,0.429861 0.633144,0.590794 l 0.400216,0.153522 c 0.599263,0.226576 1.01536,0.456329 1.249348,0.689259 0.235047,0.232929 0.351512,0.532561 0.351512,0.898896 0,0.480681 -0.199049,0.871367 -0.598205,1.170999 -0.398098,0.298573 -0.917954,0.448919 -1.556392,0.448919 -0.615146,0 -1.235585,-0.09317 -1.862377,-0.279516 z" />
  <path
   inkscape:connector-curvature="0"
   id="path13471"
   style="fill:#ffffff;fill-rule:nonzero;stroke-width:1.05876994"
   d="m 61.010743,38.396049 v -1.010066 c 0.681848,0.285868 1.266289,0.427743 1.750147,0.427743 0.564324,0 0.847016,-0.191637 0.847016,-0.57703 0,-0.247752 -0.232929,-0.4648 -0.697729,-0.651143 l -0.465859,-0.186344 c -0.506092,-0.205401 -0.868192,-0.425625 -1.085239,-0.661731 -0.217048,-0.235047 -0.326102,-0.527268 -0.326102,-0.874544 0,-0.484917 0.185285,-0.86078 0.554796,-1.129708 0.369511,-0.267868 0.88619,-0.402332 1.550039,-0.402332 0.416097,0 0.910542,0.06035 1.485454,0.182108 v 0.967716 c -0.552677,-0.192696 -1.011125,-0.287985 -1.374283,-0.287985 -0.570677,0 -0.856545,0.176814 -0.856545,0.530443 0,0.23293 0.211754,0.429861 0.633145,0.590794 l 0.401273,0.153522 c 0.598205,0.226576 1.015361,0.456329 1.249349,0.689259 0.235047,0.232929 0.351512,0.532561 0.351512,0.898896 0,0.480681 -0.199049,0.871367 -0.598205,1.170999 -0.399157,0.298573 -0.917954,0.448919 -1.557451,0.448919 -0.614087,0 -1.234526,-0.09317 -1.861318,-0.279516 z" />
  <path
   inkscape:connector-curvature="0"
   id="path13473"
   style="fill:#ffffff;fill-rule:nonzero;stroke-width:1.05876994"
   d="m 66.536464,38.5591 v -5.111742 h 1.37746 V 38.5591 Z m 0,-5.972522 v -1.150883 h 1.37746 v 1.150883 z" />
  <path
   inkscape:connector-curvature="0"
   id="path13475"
   style="fill:#ffffff;fill-rule:nonzero;stroke-width:1.05876994"
   d="m 72.141592,38.009598 c -0.459506,0.443625 -0.951834,0.665967 -1.475925,0.665967 -0.446801,0 -0.809959,-0.136582 -1.089474,-0.409744 -0.279516,-0.273163 -0.419273,-0.626792 -0.419273,-1.061947 0,-0.564324 0.226576,-0.999478 0.677612,-1.305463 0.452095,-0.305985 1.097945,-0.458447 1.939667,-0.458447 h 0.367393 v -0.465859 c 0,-0.530444 -0.302808,-0.796195 -0.908424,-0.796195 -0.536797,0 -1.079946,0.152463 -1.628389,0.45633 v -0.949717 c 0.623616,-0.236106 1.240879,-0.353629 1.852848,-0.353629 1.337226,0 2.006369,0.532561 2.006369,1.596625 v 2.262591 c 0,0.400215 0.128111,0.600323 0.386451,0.600323 0.04659,0 0.106936,-0.0053 0.18105,-0.018 l 0.03282,0.772902 c -0.292221,0.08682 -0.549502,0.130229 -0.772903,0.130229 -0.565383,0 -0.927482,-0.222342 -1.089474,-0.665967 z m 0,-0.74008 v -1.038653 h -0.326101 c -0.890426,0 -1.336168,0.279515 -1.336168,0.838546 0,0.189519 0.06459,0.348335 0.193755,0.477505 0.128111,0.128111 0.287986,0.192696 0.476447,0.192696 0.322925,0 0.653261,-0.156698 0.992067,-0.470094 z" />
  <path
   inkscape:connector-curvature="0"
   id="path13477"
   style="fill:#ffffff;fill-rule:nonzero;stroke-width:1.05876994"
   d="m 75.241671,38.5591 v -5.111742 h 1.378518 v 0.963481 c 0.449978,-0.719963 1.030184,-1.079945 1.740618,-1.079945 0.45633,0 0.816312,0.143992 1.081004,0.433037 0.263634,0.289044 0.394922,0.682906 0.394922,1.182646 V 38.5591 h -1.37746 v -3.272658 c 0,-0.580206 -0.192696,-0.870309 -0.57703,-0.870309 -0.438331,0 -0.858662,0.308102 -1.262054,0.926424 V 38.5591 Z" />
  <path
   inkscape:connector-curvature="0"
   id="path13479"
   style="fill:#ffffff;fill-rule:nonzero;stroke-width:1.05876994"
   d="m 84.790717,38.5591 v -4.250962 h -0.703023 v -0.86078 h 0.703023 v -0.353629 c 0,-0.642673 0.152463,-1.137119 0.458448,-1.483337 0.305984,-0.345159 0.741139,-0.518797 1.305463,-0.518797 0.348336,0 0.716788,0.06353 1.108532,0.190579 v 0.941246 c -0.385392,-0.17152 -0.670201,-0.256222 -0.856545,-0.256222 -0.425625,0 -0.638438,0.38751 -0.638438,1.163588 v 0.316572 h 3.217602 V 38.5591 H 88.007261 V 34.308138 H 86.168177 V 38.5591 Z m 3.445238,-5.972522 v -1.150883 h 1.149824 v 1.150883 z m -0.772902,0.86078" />
  <rect
   id="rect13481"
   style="fill:#ffffff;fill-rule:nonzero;stroke-width:1.05876994"
   height="7.3510399"
   width="1.3785186"
   y="31.208059"
   x="91.108398" />
  <path
   inkscape:connector-curvature="0"
   id="path13483"
   style="fill:#ffffff;fill-rule:nonzero;stroke-width:1.05876994"
   d="m 96.843755,38.531572 c -0.329277,0.09529 -0.588676,0.143993 -0.778196,0.143993 -1.194292,0 -1.791439,-0.559031 -1.791439,-1.676033 v -2.691394 h -0.572794 v -0.86078 h 0.572794 v -0.86078 l 1.37746,-0.158815 v 1.019595 h 1.093709 v 0.86078 H 95.65158 v 2.509285 c 0,0.627851 0.256222,0.941247 0.768667,0.941247 0.117524,0 0.25834,-0.02223 0.423508,-0.06564 z" />
  <path
   inkscape:connector-curvature="0"
   id="path13485"
   style="fill:#ffffff;fill-rule:nonzero;stroke-width:1.05876994"
   d="m 102.23501,38.38652 c -0.65538,0.192697 -1.27582,0.289045 -1.86237,0.289045 -0.853373,0 -1.526751,-0.242459 -2.021196,-0.726317 -0.493387,-0.483857 -0.740081,-1.145589 -0.740081,-1.983076 0,-0.79196 0.226577,-1.42828 0.677613,-1.91108 0.452095,-0.482799 1.048182,-0.724198 1.790384,-0.724198 0.74749,0 1.29381,0.236105 1.63897,0.707258 0.3441,0.472212 0.51668,1.218644 0.51668,2.239299 h -3.171014 c 0.09317,0.975127 0.628909,1.462161 1.606154,1.462161 0.46268,0 0.9836,-0.106936 1.56486,-0.320807 z m -3.189013,-2.886207 h 1.833793 c 0,-0.872426 -0.28058,-1.30758 -0.84278,-1.30758 -0.570682,0 -0.901018,0.435154 -0.991013,1.30758 z" />
  <path
   inkscape:connector-curvature="0"
   id="path13487"
   style="fill:#ffffff;fill-rule:nonzero;stroke-width:1.05876994"
   d="m 103.65906,38.5591 v -5.111742 h 1.37852 v 0.963481 c 0.3568,-0.719963 0.89995,-1.079945 1.62944,-1.079945 0.0868,0 0.17152,0.0095 0.25517,0.02753 v 1.229232 c -0.19482,-0.07094 -0.37693,-0.106936 -0.54421,-0.106936 -0.5495,0 -0.9963,0.278456 -1.3404,0.833252 v 3.24513 z" />
  
  
  
  
  
  <g
   id="g3707"
   style="fill:#e0d6e8"><path
     d="m 51.368453,17.710298 2.289571,5.773873 2.301557,-5.773873 h 2.679823 L 54.638317,27.1949 H 52.676398 L 48.68863,17.710298 Z"
     style="fill:#e0d6e8;fill-rule:nonzero;stroke-width:1.33192003;fill-opacity:1"
     id="path13492"
     inkscape:connector-curvature="0" /><path
     d="m 61.344534,22.451933 c 0,0.378265 0.07059,0.725896 0.213107,1.044225 0.142515,0.318329 0.335644,0.595368 0.579385,0.831118 0.24241,0.234418 0.526109,0.416891 0.848433,0.546087 0.323657,0.130529 0.664628,0.195793 1.025579,0.195793 0.36095,0 0.701922,-0.06526 1.025578,-0.195793 0.322325,-0.129196 0.607356,-0.311669 0.855093,-0.546087 0.247737,-0.23575 0.442197,-0.512789 0.584713,-0.831118 0.142515,-0.318329 0.214439,-0.66596 0.214439,-1.044225 0,-0.376933 -0.07192,-0.724565 -0.214439,-1.044225 -0.142516,-0.318329 -0.336976,-0.595369 -0.584713,-0.829787 -0.247737,-0.234417 -0.532768,-0.416891 -0.855093,-0.547419 -0.323656,-0.129196 -0.664628,-0.19446 -1.025578,-0.19446 -0.360951,0 -0.701922,0.06526 -1.025579,0.19446 -0.322324,0.130528 -0.606023,0.313002 -0.848433,0.547419 -0.243741,0.234418 -0.43687,0.511458 -0.579385,0.829787 -0.142515,0.31966 -0.213107,0.667292 -0.213107,1.044225 z m -2.579929,0 c 0,-0.704586 0.130528,-1.35989 0.390252,-1.968578 0.259725,-0.607355 0.620675,-1.138791 1.081519,-1.591644 0.462177,-0.452853 1.013592,-0.807144 1.654245,-1.062872 0.641985,-0.255729 1.349235,-0.383593 2.120417,-0.383593 0.76319,0 1.467776,0.127864 2.113757,0.383593 0.644649,0.255728 1.201392,0.610019 1.666232,1.062872 0.466172,0.452853 0.828454,0.984289 1.088178,1.591644 0.259725,0.608688 0.390253,1.263992 0.390253,1.968578 0,0.704586 -0.130528,1.361222 -0.390253,1.968578 -0.259724,0.608687 -0.622006,1.138791 -1.088178,1.591644 -0.46484,0.452853 -1.021583,0.807144 -1.666232,1.062872 -0.645981,0.255729 -1.350567,0.383593 -2.113757,0.383593 -0.771182,0 -1.478432,-0.127864 -2.120417,-0.383593 -0.640653,-0.255728 -1.192068,-0.610019 -1.654245,-1.062872 -0.460844,-0.452853 -0.821794,-0.982957 -1.081519,-1.591644 -0.259724,-0.607356 -0.390252,-1.263992 -0.390252,-1.968578 z"
     style="fill:#e0d6e8;fill-rule:nonzero;stroke-width:1.33192003;fill-opacity:1"
     id="path13494"
     inkscape:connector-curvature="0" /><path
     d="m 73.29452,21.948467 h 0.466172 c 0.486151,0 0.859088,-0.09989 1.118813,-0.301014 0.259724,-0.20112 0.390252,-0.491478 0.390252,-0.868412 0,-0.376933 -0.130528,-0.66596 -0.390252,-0.868411 -0.259725,-0.20112 -0.632662,-0.301014 -1.118813,-0.301014 H 73.29452 Z M 78.716766,27.1949 H 75.646691 L 73.29452,23.546771 V 27.1949 h -2.465384 v -9.484602 h 3.837262 c 0.52744,0 0.989616,0.07725 1.383865,0.231754 0.394248,0.155834 0.719236,0.36761 0.974965,0.635326 0.255729,0.269047 0.447525,0.579385 0.578053,0.931012 0.130528,0.352958 0.194461,0.729892 0.194461,1.132132 0,0.7219 -0.17315,1.306613 -0.520781,1.75547 -0.348963,0.448857 -0.861752,0.752535 -1.541032,0.912365 z"
     style="fill:#e0d6e8;fill-rule:nonzero;stroke-width:1.33192003;fill-opacity:1"
     id="path13496"
     inkscape:connector-curvature="0" /><path
     d="M 83.358508,19.797416 V 27.1949 h -2.465384 v -7.397484 h -2.025851 v -2.087118 h 6.517085 v 2.087118 z"
     style="fill:#e0d6e8;fill-rule:nonzero;stroke-width:1.33192003;fill-opacity:1"
     id="path13498"
     inkscape:connector-curvature="0" /><path
     d="M 91.874804,19.797416 H 88.94458 v 1.584985 h 2.76773 v 2.088451 h -2.76773 v 1.635597 h 2.930224 V 27.1949 h -5.39694 v -9.484602 h 5.39694 z"
     style="fill:#e0d6e8;fill-rule:nonzero;stroke-width:1.33192003;fill-opacity:1"
     id="path13500"
     inkscape:connector-curvature="0" /><path
     d="m 96.366038,22.1376 -2.95553,-4.427302 h 3.043437 l 1.283971,2.452064 1.584985,-2.452064 h 3.043439 l -3.131346,4.427302 3.534916,5.0573 h -3.007476 l -1.899318,-3.09405 -2.22697,3.09405 h -2.980837 z"
     style="fill:#e0d6e8;fill-rule:nonzero;stroke-width:1.33192003;fill-opacity:1"
     id="path13502"
     inkscape:connector-curvature="0" /></g>
  <path
   d="m 57.303999,280.95222 c 0,-2.43119 -1.973437,-4.40467 -4.404499,-4.40467 H 29.782253 c -2.431062,0 -4.404499,1.97348 -4.404499,4.40467 v 30.57468 c 0,2.43118 1.973437,4.40466 4.404499,4.40466 H 52.8995 c 2.431062,0 4.404499,-1.97348 4.404499,-4.40466 z"
   id="path13507"
   inkscape:connector-curvature="0"
   style="fill:#0a0014;fill-opacity:1;stroke:#3b0067;stroke-width:1;stroke-miterlimit:4;stroke-dasharray:none;stroke-opacity:1" />
  <path
   d="m 132.09771,281.07549 c 0,-2.49853 -2.0287,-4.52794 -4.52784,-4.52794 h -23.76462 c -2.49915,0 -4.527848,2.02941 -4.527848,4.52794 v 30.32814 c 0,2.49966 2.028698,4.52793 4.527848,4.52793 h 23.76462 c 2.49914,0 4.52784,-2.02827 4.52784,-4.52793 z"
   id="path13511"
   inkscape:connector-curvature="0"
   style="fill:#0a0014;fill-opacity:1;stroke:#3b0067;stroke-width:1;stroke-miterlimit:4;stroke-dasharray:none;stroke-opacity:1" />
  
  
  
  <g
   id="g3713"
   style="fill:#e0d6e8"><path
     inkscape:connector-curvature="0"
     style="fill:#e0d6e8;fill-rule:nonzero;stroke-width:0.0956609;fill-opacity:1"
     d="m 62.951909,363.49974 h 2.67353 l 2.489671,8.31724 2.57433,-8.31724 h 2.659947 l -3.460437,10.39738 c -0.323334,0.95862 -0.902656,1.4375 -1.738445,1.4375 -0.846982,0 -1.43214,-0.48395 -1.7549,-1.45223 z"
     id="path42" /><path
     inkscape:connector-curvature="0"
     style="fill:#e0d6e8;fill-rule:nonzero;stroke-width:0.0956609;fill-opacity:1"
     d="m 73.549701,372.29241 v -8.79267 h 2.507368 v 8.70906 c 0.04439,0.31215 0.334335,0.46807 0.869271,0.46807 h 1.70506 c 0.512455,0 0.796664,-0.14464 0.85253,-0.43458 l 0.01674,-0.0836 v -8.65894 h 2.507368 v 8.77593 c 0,0.76892 -0.08351,1.31505 -0.250727,1.63819 -0.44578,0.85827 -1.231443,1.28712 -2.356989,1.28712 h -3.242904 c -1.159219,0 -1.950335,-0.44013 -2.37373,-1.3206 -0.156119,-0.32304 -0.233987,-0.85243 -0.233987,-1.58797 z"
     id="path44" /><path
     inkscape:connector-curvature="0"
     style="fill:#e0d6e8;fill-rule:nonzero;stroke-width:0.0956609;fill-opacity:1"
     d="m 83.161422,372.34263 v -8.84279 h 2.507463 v 8.64219 c 0,0.35682 0.211506,0.53494 0.635189,0.53494 h 4.46325 l -0.01674,2.5242 h -4.663851 c -0.16712,0 -0.312142,-0.006 -0.434588,-0.0167 -0.902751,-0.0778 -1.543679,-0.34265 -1.922401,-0.79398 -0.379008,-0.45152 -0.568321,-1.13397 -0.568321,-2.04782 z"
     id="path46" /><path
     inkscape:connector-curvature="0"
     style="fill:#e0d6e8;fill-rule:nonzero;stroke-width:0.0956609;fill-opacity:1"
     d="m 90.850645,366.02385 v -2.52411 h 7.522295 v 2.52411 h -2.524109 v 9.17723 h -2.507463 v -9.17723 z"
     id="path48" /></g>
  <path
   id="path4"
   d="m 59.383485,369.41724 c 0,-4.50925 -3.655481,-8.1647 -8.164802,-8.1647 -4.50914,0 -8.164658,3.65545 -8.164658,8.1647 0,4.50921 3.655482,8.16469 8.164658,8.16469 4.509321,0 8.164802,-3.65548 8.164802,-8.16469 z"
   style="fill:#757575;fill-rule:nonzero;stroke:#414c55;stroke-width:0.611;stroke-miterlimit:10;stroke-dasharray:none;stroke-opacity:1"
   inkscape:connector-curvature="0" />
  <path
   inkscape:connector-curvature="0"
   style="fill:#2b2b2b;fill-rule:nonzero;stroke-width:0.0359254"
   d="m 49.320601,374.39363 0.552927,-0.89027 -1.063176,-2.39314 -2.216166,-2.28424 0.459414,3.10115 0.597404,1.2801 0.832714,1.26335 z"
   id="polygon6" />
  <path
   inkscape:connector-curvature="0"
   style="fill:#262626;fill-rule:nonzero;stroke-width:0.0359254"
   d="m 53.04822,374.40099 -0.552964,-0.89034 1.063284,-2.39306 2.216059,-2.28421 -0.459378,3.10112 -0.59744,1.28005 -0.832571,1.26343 z"
   id="polygon8" />
  <path
   inkscape:connector-curvature="0"
   style="fill:#424242;fill-rule:nonzero;stroke-width:0.0359254"
   d="m 48.636078,363.35896 2.58433,-0.66042 v 13.44771 l -1.349646,-2.65126 -1.06041,-2.38477 -1.022832,-0.58109 -2.05152,-2.92055 -0.05741,-0.77527 1.148571,-2.0674 z"
   id="polygon12" />
  <path
   inkscape:connector-curvature="0"
   style="fill:#333333;fill-rule:nonzero;stroke-width:0.0359254"
   d="m 53.801396,363.36377 -2.584186,-0.66038 v 13.44778 l 1.349502,-2.65133 1.060446,-2.38469 1.022904,-0.5812 2.051376,-2.92056 0.05744,-0.77523 -1.148499,-2.0674 z"
   id="polygon14" />
  <path
   inkscape:connector-curvature="0"
   style="fill:#4c4c4c;fill-rule:nonzero;stroke-width:0.0359254"
   d="m 49.49606,369.23704 1.722982,-1.68444 v 1.22969 l -1.722982,1.71821 v -1.26346"
   id="polyline16" />
  <path
   inkscape:connector-curvature="0"
   style="fill:#5b5b5b;fill-rule:nonzero;stroke-width:0.0359254"
   d="m 51.2203,368.78089 -1.722875,1.71821 0.376103,3.00426 1.34688,2.64289 z"
   id="polygon18" />
  <path
   inkscape:connector-curvature="0"
   style="fill:#333333;fill-rule:nonzero;stroke-width:0.0359254"
   d="m 51.220408,376.14625 -1.34688,-2.64289 1.346664,-0.63487 z"
   id="polygon20" />
  <path
   inkscape:connector-curvature="0"
   style="fill:#ffffff;fill-rule:nonzero;stroke-width:0.0359254"
   d="m 49.497425,370.4991 v -1.26346 l -1.248982,-1.57921 -1.477217,-1.19017 -0.0015,0.93169 0.775342,1.82328 z"
   id="polygon22" />
  <path
   inkscape:connector-curvature="0"
   style="fill:#2d2d2d;fill-rule:nonzero;stroke-width:0.0359254"
   d="m 52.942384,369.23772 -1.722874,-1.68443 v 1.22969 l 1.722874,1.71817 v -1.26343"
   id="polyline24" />
  <path
   inkscape:connector-curvature="0"
   style="fill:#353535;fill-rule:nonzero;stroke-width:0.0359254"
   d="m 51.217534,368.78089 1.722766,1.71821 -0.376103,3.00426 -1.346771,2.64289 z"
   id="polygon26" />
  <path
   inkscape:connector-curvature="0"
   style="fill:#191919;fill-rule:nonzero;stroke-width:0.0359254"
   d="m 51.217426,376.14625 1.346771,-2.64289 -1.346556,-0.63487 z"
   id="polygon28" />
  <path
   inkscape:connector-curvature="0"
   style="fill:#ffffff;fill-rule:nonzero;stroke-width:0.0359254"
   d="m 52.9403,370.4991 v -1.26343 l 1.248947,-1.57921 1.477324,-1.1902 0.0015,0.93172 -0.775198,1.82332 z"
   id="polygon30" />
  <path
   inkscape:connector-curvature="0"
   style="fill:#383838;fill-rule:nonzero;stroke-width:0.0359254"
   d="m 48.65228,363.33776 2.565972,4.2151 -0.0055,-4.86955"
   id="polyline32" />
  <path
   inkscape:connector-curvature="0"
   style="fill:#2d2d2d;fill-rule:nonzero;stroke-width:0.0359254"
   d="m 53.785014,363.3382 -2.565972,4.21509 0.0055,-4.86951"
   id="polyline34" />
  <path
   inkscape:connector-curvature="0"
   style="fill:#333333;fill-rule:nonzero;stroke-width:0.0359254"
   d="m 48.810927,371.11051 0.68772,-0.61008 0.375349,3.00602 z"
   id="polygon36" />
  <path
   inkscape:connector-curvature="0"
   style="fill:#1c1c1c;fill-rule:nonzero;stroke-width:0.0359254"
   d="m 53.630679,371.12528 -0.687756,-0.61009 -0.375349,3.00606 z"
   id="polygon38" />
  <path
   inkscape:connector-curvature="0"
   id="path13539"
   style="fill:#ffffff;fill-rule:nonzero;stroke-width:4.00165987"
   d="m 112.20091,311.7083 h 0.34415 c 0.39616,0 0.67628,-0.052 0.84835,-0.15207 0.17207,-0.10004 0.2561,-0.26411 0.2561,-0.4882 0,-0.22409 -0.084,-0.38816 -0.2561,-0.4882 -0.17207,-0.10004 -0.45219,-0.15207 -0.84835,-0.15207 h -0.34415 z m 0,-2.44902 h 0.28812 c 0.49221,0 0.73631,-0.19608 0.73631,-0.58424 0,-0.38816 -0.2441,-0.58425 -0.73631,-0.58425 h -0.28812 z m -1.56865,-2.36898 h 2.33697 c 0.55623,0 0.97641,0.13205 1.26453,0.40016 0.28812,0.26811 0.43218,0.65227 0.43218,1.15248 0,0.30413 -0.056,0.55623 -0.16407,0.75631 -0.10805,0.20009 -0.27612,0.36816 -0.50021,0.50822 0.22409,0.044 0.41617,0.10804 0.57224,0.19608 0.15606,0.088 0.28412,0.19608 0.38416,0.32413 0.10004,0.12805 0.16807,0.27211 0.21208,0.43218 0.044,0.16007 0.064,0.33214 0.064,0.51221 0,0.28412 -0.048,0.53222 -0.14806,0.75232 -0.10004,0.22009 -0.2361,0.40416 -0.41617,0.55222 -0.18008,0.14807 -0.39617,0.26011 -0.65227,0.33614 -0.25611,0.076 -0.54423,0.11205 -0.86436,0.11205 h -2.52105 z" />
  <path
   inkscape:connector-curvature="0"
   id="path13541"
   style="fill:#ffffff;fill-rule:nonzero;stroke-width:4.00165987"
   d="m 117.73921,309.65945 h 0.52022 c 0.57624,0 0.86435,-0.25211 0.86435,-0.75232 0,-0.5002 -0.28811,-0.75231 -0.86435,-0.75231 h -0.52022 z m 0,3.26535 h -1.56865 v -6.0345 h 2.49704 c 0.67628,0 1.19649,0.17607 1.55664,0.52822 0.36015,0.35214 0.54023,0.84835 0.54023,1.48861 0,0.64027 -0.18008,1.13647 -0.54023,1.48862 -0.36015,0.35215 -0.88036,0.52822 -1.55664,0.52822 h -0.92839 z" />
  <path
   inkscape:connector-curvature="0"
   id="path13546"
   style="fill:#ffffff;fill-rule:nonzero;stroke-width:4.00165987"
   d="m 39.021413,306.8903 v 4.70595 h 1.88078 v 1.32855 h -3.449431 v -6.0345 z" />
  <path
   inkscape:connector-curvature="0"
   id="path13548"
   style="fill:#ffffff;fill-rule:nonzero;stroke-width:4.00165987"
   d="m 43.279179,309.65945 h 0.520216 c 0.576239,0 0.864359,-0.25211 0.864359,-0.75232 0,-0.5002 -0.28812,-0.75231 -0.864359,-0.75231 h -0.520216 z m 0,3.26535 h -1.56865 v -6.0345 h 2.497035 c 0.676281,0 1.196497,0.17607 1.556646,0.52822 0.36015,0.35214 0.540224,0.84835 0.540224,1.48861 0,0.64027 -0.180074,1.13647 -0.540224,1.48862 -0.360149,0.35215 -0.880365,0.52822 -1.556646,0.52822 h -0.928385 z" />
  <path
   inkscape:connector-curvature="0"
   id="path13553"
   style="fill:#ffffff;fill-rule:nonzero;stroke-width:4.00165987"
   d="m 43.659813,262.74825 h 0.360149 c 0.272113,0 0.516215,-0.044 0.728303,-0.12805 0.212087,-0.084 0.392162,-0.20409 0.540224,-0.35215 0.148061,-0.14806 0.260108,-0.32814 0.336139,-0.53222 0.07603,-0.20409 0.116048,-0.43218 0.116048,-0.67628 0,-0.2401 -0.04002,-0.46419 -0.12005,-0.67228 -0.08003,-0.20809 -0.192079,-0.38816 -0.340141,-0.53622 -0.148061,-0.14806 -0.328136,-0.26811 -0.540224,-0.35215 -0.212088,-0.084 -0.452187,-0.12805 -0.720299,-0.12805 h -0.360149 z m -1.568651,-4.70595 h 2.320963 c 0.412171,0 0.79633,0.084 1.15648,0.2481 0.360149,0.16407 0.67628,0.38416 0.944392,0.66027 0.268111,0.27612 0.480199,0.59625 0.636264,0.9604 0.156064,0.36415 0.232096,0.74831 0.232096,1.14848 0,0.39616 -0.07603,0.77632 -0.228095,1.14047 -0.152063,0.36415 -0.364151,0.68829 -0.632262,0.9644 -0.268111,0.27612 -0.584242,0.50021 -0.944392,0.66428 -0.360149,0.16407 -0.74831,0.2481 -1.164483,0.2481 h -2.320963 z" />
  <path
   inkscape:connector-curvature="0"
   id="path13555"
   style="fill:#ffffff;fill-rule:nonzero;stroke-width:4.00165987"
   d="m 49.950423,260.73942 h 0.296122 c 0.308128,0 0.548228,-0.064 0.712296,-0.19208 0.164068,-0.12806 0.248103,-0.31213 0.248103,-0.55223 0,-0.2401 -0.08404,-0.42418 -0.248103,-0.55223 -0.164068,-0.12806 -0.404168,-0.19208 -0.712296,-0.19208 h -0.296122 z m 3.44943,3.33738 h -1.95281 l -1.49662,-2.32096 v 2.32096 h -1.568651 v -6.0345 h 2.441012 c 0.33614,0 0.628261,0.048 0.880366,0.14806 0.252104,0.10004 0.456189,0.23209 0.620257,0.40417 0.164068,0.17207 0.284118,0.36815 0.368153,0.59224 0.08403,0.22409 0.124051,0.46419 0.124051,0.7203 0,0.46019 -0.112046,0.83235 -0.332138,1.11646 -0.220091,0.28412 -0.548227,0.4802 -0.980406,0.58024 z" />
  <rect
   id="rect13557"
   style="fill:#ffffff;fill-rule:nonzero;stroke-width:4.00165987"
   height="6.0345035"
   width="1.5686507"
   y="258.0423"
   x="54.056126" />
  <path
   inkscape:connector-curvature="0"
   id="path13559"
   style="fill:#ffffff;fill-rule:nonzero;stroke-width:4.00165987"
   d="m 57.961746,258.0423 1.456604,3.67352 1.464608,-3.67352 h 1.704707 l -2.545056,6.0345 h -1.248518 l -2.537052,-6.0345 z" />
  <path
   inkscape:connector-curvature="0"
   id="path13561"
   style="fill:#ffffff;fill-rule:nonzero;stroke-width:4.00165987"
   d="m 66.653351,259.37085 h -1.864773 v 1.00842 h 1.76073 v 1.32855 h -1.76073 v 1.04043 h 1.864773 v 1.32855 h -3.433424 v -6.0345 h 3.433424 z" />
  <path
   d="m 126.90355,224.66217 c 2.73714,-4.74196 1.66469,-10.82449 -2.53305,-14.34595 -4.19374,-3.52146 -10.3723,-3.52146 -14.56604,0 -4.19774,3.52146 -5.27019,9.60399 -2.53305,14.34595 l 9.81607,-5.66635 z"
   style="fill:none;stroke:#cccccc;stroke-width:1;stroke-miterlimit:4;stroke-dasharray:none;stroke-linecap:round"
   id="path13566"
   inkscape:connector-curvature="0" />
  <path
   d="m 126.5314,225.85867 0.024,4.40983"
   style="fill:#cccccc;fill-rule:nonzero;stroke:#cccccc;stroke-width:1;stroke-miterlimit:4;stroke-dasharray:none;stroke-linecap:round"
   id="path13569"
   inkscape:connector-curvature="0" />
  <path
   d="m 128.74832,228.03157 -4.40983,0.02"
   style="fill:#cccccc;fill-rule:nonzero;stroke:#cccccc;stroke-width:1;stroke-miterlimit:4;stroke-dasharray:none;stroke-linecap:round"
   id="path13572"
   inkscape:connector-curvature="0" />
  <path
   d="m 110.42872,227.90752 -4.41383,0.02"
   style="fill:#cccccc;fill-rule:nonzero;stroke:#cccccc;stroke-width:1;stroke-miterlimit:4;stroke-dasharray:none;stroke-linecap:round"
   id="path13575"
   inkscape:connector-curvature="0" />
  <path
   d="m 117.08748,218.99982 -0.024,-13.30952"
   style="fill:none;stroke:#cccccc;stroke-width:1;stroke-miterlimit:4;stroke-dasharray:none;stroke-linecap:round"
   id="path13578"
   inkscape:connector-curvature="0" />
</svg>