<?xml version="1.0" encoding="UTF-8" standalone="no"?>
<svg
   xmlns:dc="http://purl.org/dc/elements/1.1/"
   xmlns:cc="http://creativecommons.org/ns#"
   xmlns:rdf="http://www.w3.org/1999/02/22-rdf-syntax-ns#"
   xmlns:svg="http://www.w3.org/2000/svg"
   xmlns="http://www.w3.org/2000/svg"
   xmlns:sodipodi="http://sodipodi.sourceforge.net/DTD/sodipodi-0.dtd"
   xmlns:inkscape="http://www.inkscape.org/namespaces/inkscape"
   id="Layer_1"
   data-name="Layer 1"
   width="34.99998"
   height="35"
   viewBox="0 0 34.99998 35"
   version="1.1"
   sodipodi:docname="TMKnob.svg"
   inkscape:version="0.92.3 (2405546, 2018-03-11)">
  <metadata
     id="metadata4312">
    <rdf:RDF>
      <cc:Work
         rdf:about="">
        <dc:format>image/svg+xml</dc:format>
        <dc:type
           rdf:resource="http://purl.org/dc/dcmitype/StillImage" />
      </cc:Work>
    </rdf:RDF>
  </metadata>
  <defs
     id="defs4310" />
  <sodipodi:namedview
     pagecolor="#ffffff"
     bordercolor="#666666"
     borderopacity="1"
     objecttolerance="10"
     gridtolerance="10"
     guidetolerance="10"
     inkscape:pageopacity="0"
     inkscape:pageshadow="2"
     inkscape:window-width="1920"
     inkscape:window-height="1017"
     id="namedview4308"
     showgrid="false"
     inkscape:zoom="6.7428571"
     inkscape:cx="-6.5995864"
     inkscape:cy="17.5"
     inkscape:window-x="1912"
     inkscape:window-y="-8"
     inkscape:window-maximized="1"
     inkscape:current-layer="Layer_1" />
  <title
     id="title4302">TMKnob</title>
  <path
     id="SVGID"
     d="M 14.76917,0.01914 C 14.17586,0.06951 13.88777,0.7988 13.71754,1.03552 A 5.58216,5.58216 0 0 1 10.82154,3.28887 4.283,4.283 0 0 1 7.95776,3.5266 3.00688,3.00688 0 0 0 7.19422,3.38155 1.47012,1.47012 0 0 0 6.43572,3.82577 L 3.45709,6.79431 3.20728,7.07031 C 2.8245,7.52561 3.13576,8.24282 3.18411,8.53091 A 5.59954,5.59954 0 0 1 2.7278,12.17435 C 1.84237,14.21214 0.67238,14.324 0.23017,14.80444 A 1.47184,1.47184 0 0 0 0.00604,15.65461 L 0,19.85912 l 0.01864,0.3717 c 0.05137,0.5923 0.77966,0.88039 1.01688,1.04962 a 5.60944,5.60944 0 0 1 2.25436,2.899 c 0.81189,2.067 0.06648,2.97358 0.09267,3.62531 a 1.46806,1.46806 0 0 0 0.44322,0.76052 l 2.96753,2.97865 0.276,0.24679 c 0.4553,0.38479 1.17452,0.07253 1.46261,0.02418 a 5.59258,5.59258 0 0 1 3.64243,0.4553 c 2.03678,0.88845 2.1496,2.05693 2.63109,2.49813 a 1.46287,1.46287 0 0 0 0.85017,0.22362 L 19.8581,35 20.22879,34.97985 c 0.59431,-0.05037 0.8824,-0.77966 1.05163,-1.01638 a 5.59687,5.59687 0 0 1 2.899,-2.25335 4.27936,4.27936 0 0 1 2.85874,-0.23672 2.98421,2.98421 0 0 0 0.76556,0.144 1.46085,1.46085 0 0 0 0.75951,-0.44322 l 2.97962,-2.96955 0.2478,-0.274 c 0.38278,-0.45631 0.07253,-1.17452 0.02418,-1.46463 a 5.58665,5.58665 0 0 1 0.4553,-3.64042 c 0.88643,-2.0388 2.05693,-2.15061 2.49813,-2.63009 a 1.45087,1.45087 0 0 0 0.22362,-0.85017 L 35,15.13987 34.97985,14.76817 c -0.05037,-0.5923 -0.77966,-0.88039 -1.01537,-1.04962 a 5.59555,5.59555 0 0 1 -2.25637,-2.897 C 30.89622,8.75255 31.64364,7.84596 31.61544,7.19523 A 1.45,1.45 0 0 0 31.17222,6.43572 L 28.20467,3.4581 27.92867,3.20829 C 27.47538,2.82551 26.75616,3.13677 26.46807,3.18411 A 5.60008,5.60008 0 0 1 22.82564,2.72881 C 20.78684,1.84237 20.674,0.67188 20.19454,0.23067 A 1.46216,1.46216 0 0 0 19.34437,0.00805 L 15.13986,0 Z"
     style="fill:#000000;stroke:#999999"
     inkscape:connector-curvature="0" />
  <line
     x1="17.49999"
     y1="16.637739"
     x2="17.49999"
     y2="0.35054001"
     style="fill:none;stroke:#ffffff;stroke-width:2px;stroke-miterlimit:10"
     id="line4305" />
</svg>
