<?xml version="1.0" encoding="UTF-8" standalone="no"?>
<svg
   xmlns:dc="http://purl.org/dc/elements/1.1/"
   xmlns:cc="http://creativecommons.org/ns#"
   xmlns:rdf="http://www.w3.org/1999/02/22-rdf-syntax-ns#"
   xmlns:svg="http://www.w3.org/2000/svg"
   xmlns="http://www.w3.org/2000/svg"
   xmlns:xlink="http://www.w3.org/1999/xlink"
   xmlns:sodipodi="http://sodipodi.sourceforge.net/DTD/sodipodi-0.dtd"
   xmlns:inkscape="http://www.inkscape.org/namespaces/inkscape"
   id="Layer_1"
   data-name="Layer 1"
   width="270.00001"
   height="380.00001"
   viewBox="0 0 270.00001 380.00001"
   version="1.1"
   sodipodi:docname="TuringMachine.svg"
   inkscape:version="0.92.3 (2405546, 2018-03-11)">
  <metadata
     id="metadata8358">
    <rdf:RDF>
      <cc:Work
         rdf:about="">
        <dc:format>image/svg+xml</dc:format>
        <dc:type
           rdf:resource="http://purl.org/dc/dcmitype/StillImage" />
      </cc:Work>
    </rdf:RDF>
  </metadata>
  <defs
     id="defs8356">
    <linearGradient
       inkscape:collect="always"
       id="linearGradient10248">
      <stop
         style="stop-color:#e4e4e4;stop-opacity:0.33838382"
         offset="0"
         id="stop10244" />
      <stop
         style="stop-color:#2c2c2c;stop-opacity:0.4040404"
         offset="1"
         id="stop10246" />
    </linearGradient>
    <linearGradient
       inkscape:collect="always"
       id="linearGradient10240">
      <stop
         style="stop-color:#ffffff;stop-opacity:1"
         offset="0"
         id="stop10236" />
      <stop
         style="stop-color:#666666;stop-opacity:1"
         offset="1"
         id="stop10238" />
    </linearGradient>
    <linearGradient
       inkscape:collect="always"
       id="linearGradient10226">
      <stop
         style="stop-color:#ffffff;stop-opacity:1"
         offset="0"
         id="stop10222" />
      <stop
         style="stop-color:#666666;stop-opacity:1"
         offset="1"
         id="stop10224" />
    </linearGradient>
    <linearGradient
       inkscape:collect="always"
       id="linearGradient10218">
      <stop
         style="stop-color:#ffffff;stop-opacity:1"
         offset="0"
         id="stop10214" />
      <stop
         style="stop-color:#666666;stop-opacity:1"
         offset="1"
         id="stop10216" />
    </linearGradient>
    <linearGradient
       inkscape:collect="always"
       id="linearGradient10174">
      <stop
         style="stop-color:#000000;stop-opacity:1;"
         offset="0"
         id="stop10170" />
      <stop
         style="stop-color:#4d4d4d;stop-opacity:1"
         offset="1"
         id="stop10172" />
    </linearGradient>
    <linearGradient
       inkscape:collect="always"
       xlink:href="#linearGradient10174"
       id="linearGradient10176"
       x1="135.64368"
       y1="380.47931"
       x2="135.16437"
       y2="0.3894394"
       gradientUnits="userSpaceOnUse" />
    <linearGradient
       inkscape:collect="always"
       xlink:href="#linearGradient10218"
       id="linearGradient10220"
       x1="158.095"
       y1="349.45612"
       x2="158.17107"
       y2="312.89713"
       gradientUnits="userSpaceOnUse" />
    <linearGradient
       inkscape:collect="always"
       xlink:href="#linearGradient10226"
       id="linearGradient10228"
       x1="195.10068"
       y1="349.61148"
       x2="195.07765"
       y2="313.85574"
       gradientUnits="userSpaceOnUse" />
    <linearGradient
       inkscape:collect="always"
       xlink:href="#linearGradient10240"
       id="linearGradient10242"
       x1="236.80067"
       y1="349.61148"
       x2="236.7773"
       y2="313.37643"
       gradientUnits="userSpaceOnUse" />
    <linearGradient
       inkscape:collect="always"
       xlink:href="#linearGradient10248"
       id="linearGradient10250"
       x1="63.599998"
       y1="55.901001"
       x2="213.8"
       y2="169.701"
       gradientUnits="userSpaceOnUse" />
  </defs>
  <sodipodi:namedview
     pagecolor="#ffffff"
     bordercolor="#666666"
     borderopacity="1"
     objecttolerance="10"
     gridtolerance="10"
     guidetolerance="10"
     inkscape:pageopacity="0"
     inkscape:pageshadow="2"
     inkscape:window-width="1920"
     inkscape:window-height="1017"
     id="namedview8354"
     showgrid="false"
     inkscape:zoom="2.0863487"
     inkscape:cx="45.342246"
     inkscape:cy="207.30415"
     inkscape:window-x="1912"
     inkscape:window-y="-8"
     inkscape:window-maximized="1"
     inkscape:current-layer="Layer_1"
     showguides="false" />
  <title
     id="title8052">TuringMachine</title>
  <rect
     y="0"
     x="0"
     id="rect4"
     width="270"
     height="380"
     style="fill:url(#linearGradient10176);fill-opacity:1" />
  <path
     inkscape:connector-curvature="0"
     style="fill:none;stroke:#ffffff"
     d="M 62.3,171.6"
     id="path8" />
  <g
     id="g22"
     style="fill:#f2f2f2">
    <path
       inkscape:connector-curvature="0"
       style="fill:#f2f2f2"
       transform="translate(-0.6,-0.6)"
       d="m 86,245.001 h 3.1 v 0.8 h -4 v -6.3 H 86 Z"
       id="path10" />
    <path
       inkscape:connector-curvature="0"
       style="fill:#f2f2f2"
       transform="translate(-0.6,-0.6)"
       d="m 94.4,240.201 h -3.6 v 1.9 h 3.1 v 0.8 h -3.1 v 2.1 h 3.7 v 0.8 H 90 v -6.3 h 4.4 z"
       id="path12" />
    <path
       inkscape:connector-curvature="0"
       style="fill:#f2f2f2"
       transform="translate(-0.6,-0.6)"
       d="m 100.6,245.801 h -0.8 l -3.3,-4.9 v 4.9 h -0.8 v -6.3 h 0.8 l 3.3,4.9 v -4.9 h 0.8 z"
       id="path14" />
    <path
       inkscape:connector-curvature="0"
       style="fill:#f2f2f2"
       transform="translate(-0.6,-0.6)"
       d="m 107.9,245.801 h -0.8 v -0.8 a 2.69941,2.69941 0 0 1 -2.2,1 3.01377,3.01377 0 0 1 -3.1,-2.9 v 0 -0.2 a 3.07994,3.07994 0 0 1 2.9,-3.4 h 0.3 a 2.96405,2.96405 0 0 1 2.9,1.8 l -0.9,0.2 a 1.92505,1.92505 0 0 0 -2,-1.4 c -1.4,0 -2.3,1.1 -2.3,2.7 a 2.39094,2.39094 0 0 0 2,2.5 h 0.2 a 2.34176,2.34176 0 0 0 1.8,-0.8 1.67635,1.67635 0 0 0 0.3,-1.2 h -2.2 v -0.7 h 2.9 z"
       id="path16" />
    <path
       inkscape:connector-curvature="0"
       style="fill:#f2f2f2"
       transform="translate(-0.6,-0.6)"
       d="m 113.4,240.201 h -1.9 v 5.5 h -0.9 v -5.5 h -2 v -0.8 h 4.7 z"
       id="path18" />
    <path
       inkscape:connector-curvature="0"
       style="fill:#f2f2f2"
       transform="translate(-0.6,-0.6)"
       d="m 115,242.901 v 2.9 h -0.9 v -6.3 h 0.9 v 2.7 h 3.5 v -2.7 h 0.9 v 6.3 h -0.9 v -2.9 z"
       id="path20" />
  </g>
  <polyline
     style="fill:none;stroke:#f2f2f2;stroke-width:0.28349999px"
     points="80.6 199.8 100.8 212.2 71.4 212.2"
     id="polyline24" />
  <polyline
     style="fill:none;stroke:#f2f2f2;stroke-width:0.28349999px"
     points="100.8 189 100.8 212.2 89.4 191.9"
     id="polyline26" />
  <polyline
     style="fill:none;stroke:#f2f2f2;stroke-width:0.28349999px"
     points="122.2 200.4 100.8 212.2 113.6 191.6"
     id="polyline28" />
  <line
     style="fill:none;stroke:#f2f2f2;stroke-width:0.28349999px"
     y2="212.2"
     x2="100.8"
     y1="225.39999"
     x1="122.2"
     id="line30" />
  <line
     style="fill:none;stroke:#f2f2f2;stroke-width:0.28349999px"
     y2="212.2"
     x2="100.5"
     y1="212.2"
     x1="124.9"
     id="line32" />
  <path
     inkscape:connector-curvature="0"
     style="fill:#f2f2f2"
     d="m 75.4,210.6 h -4 v -0.7 c 0.7,-0.5 1.4,-1.1 2.1,-1.7 a 2.13825,2.13825 0 0 0 0.9,-1.8 0.95474,0.95474 0 0 0 -0.9,-1.1 h -0.2 a 0.90329,0.90329 0 0 0 -1.1,0.9 v 0.3 a 1.70179,1.70179 0 0 0 0.1,0.7 h -0.8 a 1.70179,1.70179 0 0 1 -0.1,-0.7 1.77405,1.77405 0 0 1 1.7,-1.8 h 0.2 a 1.88258,1.88258 0 0 1 2,1.7 v 0.2 a 3.33339,3.33339 0 0 1 -1.1,2.2 10.6255,10.6255 0 0 1 -1.1,0.9 l -0.2,0.1 -0.2,0.1 -0.2,0.1 h 2.9 z"
     id="path34" />
  <path
     inkscape:connector-curvature="0"
     style="fill:#f2f2f2"
     d="m 76.6,194.9 h 0.5 c 0.8,0 1.3,-0.4 1.3,-1 a 1.00208,1.00208 0 0 0 -1,-1 h -0.1 c -0.8,0 -1.2,0.4 -1.2,1.4 h -0.8 c 0.1,-1.4 0.7,-2.1 2,-2.1 a 1.78682,1.78682 0 0 1 2,1.5 v 0.2 a 1.45732,1.45732 0 0 1 -0.7,1.3 1.5509,1.5509 0 0 1 0.9,1.5 c 0,1.1 -0.8,1.8 -2.1,1.8 -1.4,0 -2.3,-0.8 -2.3,-1.9 v -0.2 h 0.8 a 1.26526,1.26526 0 0 0 1.4,1.4 c 0.8,0 1.3,-0.4 1.3,-1.1 0,-0.7 -0.4,-1 -1.2,-1 h -0.7 z"
     id="path36" />
  <path
     inkscape:connector-curvature="0"
     style="fill:#f2f2f2"
     d="m 83.8,187.6 v -0.7 l 2.9,-3.9 h 0.6 v 3.9 h 0.9 v 0.7 h -0.9 v 1.4 h -0.8 v -1.4 z m 2.7,-3.3 -1.9,2.6 h 1.9 z"
     id="path38" />
  <path
     inkscape:connector-curvature="0"
     style="fill:#f2f2f2"
     d="m 102.4,180.1 v 0.7 h -2.8 l -0.1,1.6 a 2.38931,2.38931 0 0 1 1.4,-0.5 1.92262,1.92262 0 0 1 1.9,2 v 0 0.1 a 2.13536,2.13536 0 0 1 -2.2,2.1 2.077,2.077 0 0 1 -2.1,-1.9 l 0.8,-0.1 c 0.2,0.9 0.6,1.3 1.3,1.3 a 1.32373,1.32373 0 0 0 1.3,-1.3 v -0.2 a 1.24431,1.24431 0 0 0 -1.1,-1.4 h -0.2 a 1.2994,1.2994 0 0 0 -1.2,0.8 h -0.8 l 0.3,-3.3 h 3.5 z"
     id="path40" />
  <path
     inkscape:connector-curvature="0"
     style="fill:#f2f2f2"
     d="m 118.2,184.6 c -0.2,-0.7 -0.5,-1 -1,-1 -0.9,0 -1.2,0.6 -1.4,2.1 a 1.68255,1.68255 0 0 1 1.5,-0.7 1.88008,1.88008 0 0 1 1.9,1.8 v 0.2 a 1.94747,1.94747 0 0 1 -1.9,2.1 h -0.1 c -1.4,0 -2.2,-1.1 -2.2,-3.1 0,-2 0.8,-3.1 2.2,-3.1 a 1.927,1.927 0 0 1 1.9,1.5 z m -2.3,2.5 a 1.40213,1.40213 0 0 0 1.2,1.4 v 0 a 1.24,1.24 0 0 0 1.2,-1.3 v -0.1 a 1.10875,1.10875 0 0 0 -1.1,-1.3 h -0.1 c -0.7,-0.1 -1.2,0.5 -1.2,1.3 z"
     id="path42" />
  <path
     inkscape:connector-curvature="0"
     style="fill:#f2f2f2"
     d="m 130.4,199.5 a 2.11734,2.11734 0 0 1 -2.4,1.8 2.02168,2.02168 0 0 1 -1.8,-1.8 1.8989,1.8989 0 0 1 0.8,-1.5 1.52489,1.52489 0 0 1 -0.7,-1.2 c 0,-1 0.8,-1.6 2,-1.6 1.2,0 2,0.6 2,1.6 a 1.21269,1.21269 0 0 1 -0.7,1.2 1.89892,1.89892 0 0 1 0.8,1.5 z m -3.5,0.1 a 1.31529,1.31529 0 1 0 1.5,-1.1 h -0.2 a 1.14622,1.14622 0 0 0 -1.3,1 v 0 z m 0.2,-2.8 q 0,0.9 1.2,0.9 c 0.7,0 1.2,-0.4 1.2,-0.9 q 0,-0.9 -1.2,-0.9 -1.2,0 -1.2,0.9 z"
     id="path44" />
  <g
     id="g50"
     style="fill:#f2f2f2">
    <path
       inkscape:connector-curvature="0"
       style="fill:#f2f2f2"
       transform="translate(-0.6,-0.6)"
       d="M 129.8,217.101 H 129 v -4.3 h -1.6 v -0.7 h 0.5 c 0.8,0 1.2,-0.3 1.3,-1 h 0.6 z"
       id="path46" />
    <path
       inkscape:connector-curvature="0"
       style="fill:#f2f2f2"
       transform="translate(-0.6,-0.6)"
       d="m 134.8,217.101 h -3.9 v -0.7 c 0.7,-0.5 1.4,-1.1 2.1,-1.7 a 2.13822,2.13822 0 0 0 0.9,-1.8 0.95473,0.95473 0 0 0 -0.9,-1.1 h -0.2 a 0.90328,0.90328 0 0 0 -1.1,0.9 v 0.3 a 1.70179,1.70179 0 0 0 0.1,0.7 H 131 a 1.70179,1.70179 0 0 1 -0.1,-0.7 1.77405,1.77405 0 0 1 1.7,-1.8 h 0.2 a 1.88258,1.88258 0 0 1 2,1.7 v 0.2 a 3.3334,3.3334 0 0 1 -1.1,2.2 10.62483,10.62483 0 0 1 -1.1,0.9 l -0.2,0.1 -0.2,0.1 -0.2,0.1 h 2.8 z"
       id="path48" />
  </g>
  <g
     id="g56"
     style="fill:#f2f2f2">
    <path
       inkscape:connector-curvature="0"
       style="fill:#f2f2f2"
       transform="translate(-0.6,-0.6)"
       d="m 127.2,232.501 h -0.8 v -4.3 h -1.6 v -0.7 h 0.5 c 0.8,0 1.2,-0.3 1.3,-1 h 0.6 z"
       id="path52" />
    <path
       inkscape:connector-curvature="0"
       style="fill:#f2f2f2"
       transform="translate(-0.6,-0.6)"
       d="m 131,228.001 c -0.2,-0.7 -0.5,-1 -1,-1 -0.9,0 -1.2,0.6 -1.4,2.1 a 1.68255,1.68255 0 0 1 1.5,-0.7 1.88008,1.88008 0 0 1 1.9,1.8 v 0.2 a 1.94746,1.94746 0 0 1 -1.9,2.1 H 130 c -1.4,0 -2.2,-1.1 -2.2,-3.1 0,-2 0.8,-3.1 2.2,-3.1 a 1.927,1.927 0 0 1 1.9,1.5 z m -2.3,2.5 a 1.40213,1.40213 0 0 0 1.2,1.4 v 0 a 1.24,1.24 0 0 0 1.2,-1.3 v -0.1 a 1.10875,1.10875 0 0 0 -1.1,-1.3 h -0.1 a 1.13469,1.13469 0 0 0 -1.2,1.3 z"
       id="path54" />
  </g>
  <g
     id="g68"
     style="fill:#f2f2f2">
    <path
       inkscape:connector-curvature="0"
       style="fill:#f2f2f2"
       transform="translate(-0.6,-0.6)"
       d="m 184.3,302.101 c 0,-0.9 -0.6,-1.3 -1.6,-1.3 -0.9,0 -1.4,0.4 -1.4,1 0,0.5 0.3,0.8 1.1,0.9 l 1.4,0.3 a 1.64864,1.64864 0 0 1 1.5,1.7 2.28322,2.28322 0 0 1 -2.5,2 2.61679,2.61679 0 0 1 -2.3,-1 2.84258,2.84258 0 0 1 -0.4,-1.2 l 0.9,-0.1 a 1.56055,1.56055 0 0 0 1.5,1.6 h 0.2 c 1,0 1.6,-0.5 1.6,-1.3 0,-0.5 -0.3,-0.8 -1,-1 l -1.1,-0.2 c -1.3,-0.3 -1.8,-0.8 -1.8,-1.6 0,-1.1 0.9,-1.8 2.3,-1.8 a 2.019,2.019 0 0 1 2.4,1.8 v 0.1 z"
       id="path58" />
    <path
       inkscape:connector-curvature="0"
       style="fill:#f2f2f2"
       transform="translate(-0.6,-0.6)"
       d="m 190.9,302.301 a 1.93621,1.93621 0 0 0 -2,-1.5 c -1.4,0 -2.2,1 -2.2,2.6 0,1.6 0.8,2.6 2.2,2.6 1,0 1.6,-0.5 2,-1.7 l 0.9,0.1 a 2.90993,2.90993 0 0 1 -3,2.3 2.99083,2.99083 0 0 1 -3.1,-2.8 v -0.4 a 2.90551,2.90551 0 0 1 2.7,-3.3 h 0.4 a 2.91269,2.91269 0 0 1 2.9,2 z"
       id="path60" />
    <path
       inkscape:connector-curvature="0"
       style="fill:#f2f2f2"
       transform="translate(-0.6,-0.6)"
       d="m 193.4,304.601 -0.7,1.9 h -0.9 l 2.4,-6.3 h 0.9 l 2.3,6.3 h -0.9 l -0.7,-1.9 z m 1.2,-3.3 -0.9,2.5 h 1.8 z"
       id="path62" />
    <path
       inkscape:connector-curvature="0"
       style="fill:#f2f2f2"
       transform="translate(-0.6,-0.6)"
       d="m 198.7,305.701 h 3.1 v 0.8 h -4 v -6.3 h 0.9 z"
       id="path64" />
    <path
       inkscape:connector-curvature="0"
       style="fill:#f2f2f2"
       transform="translate(-0.6,-0.6)"
       d="m 206.9,301.001 h -3.6 v 1.9 h 3.1 v 0.8 h -3.1 v 2.1 h 3.7 v 0.8 h -4.6 v -6.3 h 4.4 z"
       id="path66" />
  </g>
  <g
     id="g76">
    <path
       inkscape:connector-curvature="0"
       style="fill:#231f20"
       transform="translate(-0.6,-0.6)"
       d="m 193.4,347.001 a 3.15357,3.15357 0 0 1 -6.3,-0.3 3.18489,3.18489 0 0 1 3.2,-3 3.27216,3.27216 0 0 1 3.2,3.1 0.30965,0.30965 0 0 0 -0.1,0.2 z m -5.4,0 a 2.27706,2.27706 0 0 0 4.5,-0.7 2.24874,2.24874 0 0 0 -2.2,-1.9 2.20766,2.20766 0 0 0 -2.2,2.4 0.30973,0.30973 0 0 0 -0.1,0.2 z"
       id="path70" />
    <path
       inkscape:connector-curvature="0"
       style="fill:#231f20"
       transform="translate(-0.6,-0.6)"
       d="m 199.3,343.901 v 4.1 a 1.96377,1.96377 0 0 1 -0.5,1.5 2.28044,2.28044 0 0 1 -1.9,0.7 2.51756,2.51756 0 0 1 -2,-0.9 2.29586,2.29586 0 0 1 -0.4,-1.4 v -4.1 h 0.9 v 3.6 c 0,1 0.1,1.4 0.4,1.7 a 1.65608,1.65608 0 0 0 1.2,0.5 1.6125,1.6125 0 0 0 1.3,-0.6 4.01263,4.01263 0 0 0 0.3,-1.5 v -3.6 z"
       id="path72" />
    <path
       inkscape:connector-curvature="0"
       style="fill:#231f20"
       transform="translate(-0.6,-0.6)"
       d="m 204.8,344.701 h -1.9 v 5.5 H 202 v -5.5 h -2 v -0.8 h 4.7 v 0.8 z"
       id="path74" />
  </g>
  <g
     id="g8093"
     style="fill:#f2f2f2">
    <path
       inkscape:connector-curvature="0"
       style="fill:#f2f2f2"
       transform="translate(-0.6,-0.6)"
       d="m 119.8,345.901 a 1.93621,1.93621 0 0 0 -2,-1.5 c -1.4,0 -2.2,1 -2.2,2.6 0,1.6 0.8,2.6 2.2,2.6 1,0 1.6,-0.5 2,-1.7 l 0.9,0.1 a 2.90993,2.90993 0 0 1 -3,2.3 2.99082,2.99082 0 0 1 -3.1,-2.8 v -0.4 a 2.90551,2.90551 0 0 1 2.7,-3.3 h 0.4 a 2.9127,2.9127 0 0 1 2.9,2 z"
       id="path90" />
    <path
       inkscape:connector-curvature="0"
       style="fill:#f2f2f2"
       transform="translate(-0.6,-0.6)"
       d="m 123,350.201 -2.1,-6.3 h 0.9 l 1.7,5.1 1.7,-5.1 h 0.9 l -2.2,6.3 z"
       id="path92" />
  </g>
  <path
     inkscape:connector-curvature="0"
     style="fill:#231f20"
     d="m 122.9,304.701 1.7,-5.1"
     data-name="path92"
     id="path92-2" />
  <g
     id="g118"
     style="fill:#f2f2f2">
    <path
       inkscape:connector-curvature="0"
       style="fill:#f2f2f2"
       transform="translate(-0.6,-0.6)"
       d="m 184.9,211.401 -1.6,-5 -1.6,5 h -0.8 l -1.9,-6.3 h 0.9 l 1.5,4.9 1.6,-4.9 h 0.8 l 1.6,4.9 1.5,-4.9 h 0.9 l -2,6.3 z"
       id="path108" />
    <path
       inkscape:connector-curvature="0"
       style="fill:#f2f2f2"
       transform="translate(-0.6,-0.6)"
       d="m 189.2,211.401 h -0.9 v -6.3 h 2.7 c 1.4,0 2.2,0.7 2.2,1.8 a 1.56891,1.56891 0 0 1 -1.4,1.7 h -0.1 l 1.8,2.7 h -1 l -1.7,-2.6 h -1.7 z m 2,-3.4 c 0.8,0 1.2,-0.3 1.2,-1 a 1.07836,1.07836 0 0 0 -1.2,-1.1 h -1.9 v 2.2 h 1.9 z"
       id="path110" />
    <path
       inkscape:connector-curvature="0"
       style="fill:#f2f2f2"
       transform="translate(-0.6,-0.6)"
       d="m 195.4,211.401 h -0.9 v -6.3 h 0.9 z"
       id="path112" />
    <path
       inkscape:connector-curvature="0"
       style="fill:#f2f2f2"
       transform="translate(-0.6,-0.6)"
       d="M 200.9,205.801 H 199 v 5.5 h -0.9 v -5.5 h -2 v -0.8 h 4.7 z"
       id="path114" />
    <path
       inkscape:connector-curvature="0"
       style="fill:#f2f2f2"
       transform="translate(-0.6,-0.6)"
       d="m 206.1,205.801 h -3.6 v 1.9 h 3.1 v 0.8 h -3.1 v 2.1 h 3.7 v 0.8 h -4.6 v -6.3 h 4.4 z"
       id="path116" />
  </g>
  <g
     id="g154"
     style="fill:#cccccc">
    <path
       inkscape:connector-curvature="0"
       style="fill:#cccccc"
       transform="translate(-0.6,-0.6)"
       d="m 92.1,4.701 1.3,6.3 v 0 l 1.3,-6.3 h 2.7 v 8.9 h -1.7 v -7.1 0 l -1.6,7.1 h -1.4 l -1.6,-7.1 v 0 7.1 h -1.7 v -8.9 z"
       id="path120" />
    <path
       inkscape:connector-curvature="0"
       style="fill:#cccccc"
       transform="translate(-0.6,-0.6)"
       d="m 101.4,12.901 a 1.5755,1.5755 0 0 1 -0.7,0.7 3.553,3.553 0 0 1 -1,0.2 2.00986,2.00986 0 0 1 -1.3,-0.4 2.41,2.41 0 0 1 -0.4,-1.5 v -5 h 1.7 v 4.6 a 0.84375,0.84375 0 0 0 0.2,0.7 1.07214,1.07214 0 0 0 0.6,0.2 c 0.6,0 0.9,-0.4 0.9,-1.1 v -4.4 h 1.7 v 6.7 h -1.7 z"
       id="path122" />
    <path
       inkscape:connector-curvature="0"
       style="fill:#cccccc"
       transform="translate(-0.6,-0.6)"
       d="m 105.2,11.701 a 1.44533,1.44533 0 0 0 0.2,0.7 0.90783,0.90783 0 0 0 0.7,0.3 1.07215,1.07215 0 0 0 0.6,-0.2 c 0.2,-0.2 0.3,-0.4 0.2,-0.6 a 0.76385,0.76385 0 0 0 -0.2,-0.5 c -0.1,-0.1 -0.3,-0.2 -0.4,-0.3 l -1.2,-0.4 a 2.589,2.589 0 0 1 -1.1,-0.7 1.74583,1.74583 0 0 1 -0.4,-1.2 2.20188,2.20188 0 0 1 0.1,-0.8 c 0.1,-0.2 0.2,-0.5 0.4,-0.6 a 2.01,2.01 0 0 1 0.8,-0.4 4.25281,4.25281 0 0 1 1.1,-0.2 2.15532,2.15532 0 0 1 1.7,0.5 1.97433,1.97433 0 0 1 0.6,1.4 v 0.3 h -1.6 a 1.20247,1.20247 0 0 0 -0.2,-0.8 0.48093,0.48093 0 0 0 -0.6,-0.2 1.42132,1.42132 0 0 0 -0.6,0.2 0.36526,0.36526 0 0 0 -0.2,0.5 c 0,0.2 0.1,0.3 0.2,0.5 a 0.86433,0.86433 0 0 0 0.6,0.3 l 1,0.4 a 3.74542,3.74542 0 0 1 1.2,0.7 1.80371,1.80371 0 0 1 0.3,1.2 2.91989,2.91989 0 0 1 -0.2,0.9 1.79372,1.79372 0 0 1 -0.5,0.7 2.01,2.01 0 0 1 -0.8,0.4 3.40192,3.40192 0 0 1 -1,0.1 4.86857,4.86857 0 0 1 -1.2,-0.1 2.99408,2.99408 0 0 1 -0.8,-0.4 1.61177,1.61177 0 0 1 -0.4,-0.7 2.7686,2.7686 0 0 1 -0.1,-0.9 v -0.2 h 1.6 v 0.1 z"
       id="path124" />
    <path
       inkscape:connector-curvature="0"
       style="fill:#cccccc"
       transform="translate(-0.6,-0.6)"
       d="m 110.8,4.601 v 1.5 h -1.7 v -1.5 z m 0,2.3 v 6.7 h -1.7 v -6.7 z"
       id="path126" />
    <path
       inkscape:connector-curvature="0"
       style="fill:#cccccc"
       transform="translate(-0.6,-0.6)"
       d="m 114.8,8.901 c 0,-0.1 -0.1,-0.3 -0.1,-0.4 0,-0.1 -0.1,-0.2 -0.2,-0.3 -0.2,-0.1 -0.3,-0.2 -0.5,-0.2 a 0.76042,0.76042 0 0 0 -0.8,0.6 1.7018,1.7018 0 0 0 -0.1,0.7 v 2.1 c 0,0.2 0.1,0.5 0.1,0.7 0,0.2 0.1,0.3 0.3,0.4 a 0.74936,0.74936 0 0 0 0.5,0.1 0.54834,0.54834 0 0 0 0.6,-0.4 2.53672,2.53672 0 0 0 0.2,-1.2 h 1.7 a 2.95727,2.95727 0 0 1 -0.6,2 2.37215,2.37215 0 0 1 -2,0.7 1.978,1.978 0 0 1 -1.1,-0.2 1.55512,1.55512 0 0 1 -0.8,-0.6 3.69668,3.69668 0 0 1 -0.5,-1.1 9.85254,9.85254 0 0 1 -0.2,-1.7 8.80689,8.80689 0 0 1 0.2,-1.7 2.38378,2.38378 0 0 1 0.6,-1.1 1.45623,1.45623 0 0 1 0.9,-0.6 4.25281,4.25281 0 0 1 1.1,-0.2 2.40989,2.40989 0 0 1 1.8,0.7 3.07709,3.07709 0 0 1 0.6,1.9 h -1.7 c 0,0.1 0,-0.1 0,-0.2 z"
       id="path128" />
    <path
       inkscape:connector-curvature="0"
       style="fill:#cccccc"
       transform="translate(-0.6,-0.6)"
       d="m 123.7,6.201 h -2 v 7.5 h -1.8 v -7.5 h -2 v -1.5 h 5.7 z"
       id="path130" />
    <path
       inkscape:connector-curvature="0"
       style="fill:#cccccc"
       transform="translate(-0.6,-0.6)"
       d="m 125.9,4.701 v 2.9 0 a 1.80193,1.80193 0 0 1 1.6,-0.9 1.65587,1.65587 0 0 1 1.3,0.5 1.91293,1.91293 0 0 1 0.4,1.5 v 5 h -1.7 v -4.7 a 0.84375,0.84375 0 0 0 -0.2,-0.7 1.07214,1.07214 0 0 0 -0.6,-0.2 c -0.6,0 -0.9,0.4 -0.9,1.1 v 4.5 h -1.7 v -9 z"
       id="path132" />
    <path
       inkscape:connector-curvature="0"
       style="fill:#cccccc"
       transform="translate(-0.6,-0.6)"
       d="m 131.8,4.601 v 1.5 h -1.7 v -1.5 z m 0,2.3 v 6.7 h -1.7 v -6.7 z"
       id="path134" />
    <path
       inkscape:connector-curvature="0"
       style="fill:#cccccc"
       transform="translate(-0.6,-0.6)"
       d="m 134.3,6.901 v 0.8 0 a 1.57546,1.57546 0 0 1 0.7,-0.7 1.803,1.803 0 0 1 1,-0.2 1.65588,1.65588 0 0 1 1.3,0.5 1.91289,1.91289 0 0 1 0.4,1.5 v 5 H 136 v -4.8 a 0.84375,0.84375 0 0 0 -0.2,-0.7 1.07214,1.07214 0 0 0 -0.6,-0.2 c -0.6,0 -0.9,0.4 -0.9,1.1 v 4.5 h -1.7 v -6.8 z"
       id="path136" />
    <path
       inkscape:connector-curvature="0"
       style="fill:#cccccc"
       transform="translate(-0.6,-0.6)"
       d="m 143.7,13.301 a 2.95719,2.95719 0 0 1 -0.6,2 3.40807,3.40807 0 0 1 -2.2,0.7 2.61779,2.61779 0 0 1 -1.7,-0.5 1.61249,1.61249 0 0 1 -0.6,-1.3 h 1.7 a 0.54994,0.54994 0 0 0 0.3,0.5 0.36737,0.36737 0 0 0 0.3,0.1 c 0.1,0 0.2,0.1 0.3,0 a 0.77853,0.77853 0 0 0 0.7,-0.3 2.35335,2.35335 0 0 0 0.2,-0.8 v -0.9 0 l -0.6,0.6 a 1.88388,1.88388 0 0 1 -0.8,0.2 1.76315,1.76315 0 0 1 -1.5,-0.8 4.6783,4.6783 0 0 1 -0.5,-2.6 4.86835,4.86835 0 0 1 0.1,-1.2 2.01587,2.01587 0 0 1 0.3,-1.1 2.40661,2.40661 0 0 1 0.6,-0.8 2.01585,2.01585 0 0 1 1.1,-0.3 2.35352,2.35352 0 0 1 0.8,0.2 1.34441,1.34441 0 0 1 0.6,0.7 v 0 -0.8 h 1.7 z m -3.5,-2.1 c 0,0.2 0.1,0.4 0.1,0.6 0.1,0.1 0.1,0.3 0.3,0.4 0.1,0.1 0.3,0.2 0.4,0.1 a 0.90151,0.90151 0 0 0 0.5,-0.1 1.38047,1.38047 0 0 0 0.3,-0.4 c 0.1,-0.2 0.1,-0.4 0.2,-0.6 v -0.8 a 4.67829,4.67829 0 0 0 -0.2,-1.7 0.752,0.752 0 0 0 -0.7,-0.5 0.90151,0.90151 0 0 0 -0.5,0.1 1.38047,1.38047 0 0 0 -0.3,0.4 1.94934,1.94934 0 0 0 -0.1,0.8 z"
       id="path138" />
    <path
       inkscape:connector-curvature="0"
       style="fill:#cccccc"
       transform="translate(-0.6,-0.6)"
       d="m 148.7,4.701 1.3,6.3 v 0 l 1.3,-6.3 h 2.7 v 8.9 h -1.7 v -7.1 0 l -1.6,7.1 h -1.4 l -1.6,-7.1 v 0 7.1 H 146 v -8.9 z"
       id="path140" />
    <path
       inkscape:connector-curvature="0"
       style="fill:#cccccc"
       transform="translate(-0.6,-0.6)"
       d="m 154.7,8.801 a 2.2198,2.2198 0 0 1 0.5,-1.1 2.69562,2.69562 0 0 1 0.8,-0.7 2.53667,2.53667 0 0 1 1.2,-0.2 2.95351,2.95351 0 0 1 1.3,0.2 1.77879,1.77879 0 0 1 0.8,0.7 2.097,2.097 0 0 1 0.4,1.1 8.08247,8.08247 0 0 1 0.1,1.6 7.56822,7.56822 0 0 1 -0.1,1.5 2.2198,2.2198 0 0 1 -0.5,1.1 2.69562,2.69562 0 0 1 -0.8,0.7 2.53667,2.53667 0 0 1 -1.2,0.2 2.95351,2.95351 0 0 1 -1.3,-0.2 1.77879,1.77879 0 0 1 -0.8,-0.7 2.097,2.097 0 0 1 -0.4,-1.1 7.56823,7.56823 0 0 1 -0.1,-1.5 4.19378,4.19378 0 0 1 0.1,-1.6 z m 1.6,2.5 c 0,0.3 0.1,0.5 0.1,0.8 a 0.54994,0.54994 0 0 0 0.3,0.5 0.76387,0.76387 0 0 0 0.5,0.2 0.73044,0.73044 0 0 0 0.7,-0.6 5.53721,5.53721 0 0 0 0.2,-1.8 5.53721,5.53721 0 0 0 -0.2,-1.8 0.85786,0.85786 0 0 0 -0.7,-0.6 0.76387,0.76387 0 0 0 -0.5,0.2 2.1859,2.1859 0 0 0 -0.3,0.5 1.94934,1.94934 0 0 0 -0.1,0.8 z"
       id="path142" />
    <path
       inkscape:connector-curvature="0"
       style="fill:#cccccc"
       transform="translate(-0.6,-0.6)"
       d="m 163.9,13.001 a 4.34859,4.34859 0 0 1 -0.6,0.7 2.91991,2.91991 0 0 1 -0.9,0.2 2.08762,2.08762 0 0 1 -1.6,-0.8 5.02513,5.02513 0 0 1 -0.5,-2.7 5.02513,5.02513 0 0 1 0.5,-2.7 1.62313,1.62313 0 0 1 1.6,-0.8 1.88388,1.88388 0 0 1 0.8,0.2 c 0.2,0.2 0.5,0.4 0.6,0.6 v 0 -3 h 1.7 v 8.9 h -1.7 z m -1.7,-1 a 0.71548,0.71548 0 0 0 0.9,0.5 c 0.3,-0.1 0.5,-0.3 0.5,-0.5 a 8.8063,8.8063 0 0 0 0.2,-1.7 4.95381,4.95381 0 0 0 -0.2,-1.7 0.77913,0.77913 0 0 0 -1,-0.5 c -0.3,0.1 -0.5,0.3 -0.5,0.5 a 8.8063,8.8063 0 0 0 -0.2,1.7 c 0.1,0.6 0.2,1.1 0.3,1.7 z"
       id="path144" />
    <path
       inkscape:connector-curvature="0"
       style="fill:#cccccc"
       transform="translate(-0.6,-0.6)"
       d="m 169.6,12.901 a 1.57546,1.57546 0 0 1 -0.7,0.7 3.553,3.553 0 0 1 -1,0.2 2.00987,2.00987 0 0 1 -1.3,-0.4 1.792,1.792 0 0 1 -0.4,-1.4 v -5 h 1.7 v 4.6 a 0.84375,0.84375 0 0 0 0.2,0.7 1.07214,1.07214 0 0 0 0.6,0.2 c 0.6,0 0.9,-0.4 0.9,-1.1 v -4.5 h 1.7 v 6.7 h -1.7 z"
       id="path146" />
    <path
       inkscape:connector-curvature="0"
       style="fill:#cccccc"
       transform="translate(-0.6,-0.6)"
       d="m 173.7,4.701 v 8.9 H 172 v -8.9 z"
       id="path148" />
    <path
       inkscape:connector-curvature="0"
       style="fill:#cccccc"
       transform="translate(-0.6,-0.6)"
       d="m 174.4,8.801 a 3.5533,3.5533 0 0 1 0.2,-1 1.02419,1.02419 0 0 1 0.5,-0.6 2.01,2.01 0 0 1 0.8,-0.4 2.76857,2.76857 0 0 1 0.9,-0.1 6.151,6.151 0 0 1 1.3,0.1 1.532,1.532 0 0 1 1.1,1.1 2.485,2.485 0 0 1 0.1,0.8 v 4.2 a 1.42144,1.42144 0 0 0 0.2,0.6 h -1.7 a 0.36735,0.36735 0 0 1 -0.1,-0.3 c 0,-0.1 -0.1,-0.2 -0.1,-0.4 v 0 a 1.57551,1.57551 0 0 1 -0.7,0.7 3.553,3.553 0 0 1 -1,0.2 1.20247,1.20247 0 0 1 -0.8,-0.2 0.99841,0.99841 0 0 1 -0.5,-0.4 l -0.3,-0.6 a 1.70168,1.70168 0 0 1 -0.1,-0.7 1.94934,1.94934 0 0 1 0.1,-0.8 l 0.3,-0.6 a 0.99841,0.99841 0 0 1 0.5,-0.4 6.88963,6.88963 0 0 1 0.8,-0.3 l 1,-0.3 a 0.54994,0.54994 0 0 0 0.5,-0.3 0.76382,0.76382 0 0 0 0.2,-0.5 1.42144,1.42144 0 0 0 -0.2,-0.6 0.73473,0.73473 0 0 0 -0.6,-0.2 1.42141,1.42141 0 0 0 -0.6,0.2 1.51206,1.51206 0 0 0 -0.2,0.8 v 0.2 h -1.6 z m 2.8,1.7 c -0.1,0 -0.2,0.1 -0.4,0.1 -0.3,0 -0.5,0.2 -0.8,0.4 a 0.952,0.952 0 0 0 -0.2,0.7 0.952,0.952 0 0 0 0.2,0.7 0.54994,0.54994 0 0 0 0.5,0.3 0.75589,0.75589 0 0 0 0.4,-0.1 c 0.1,0 0.2,-0.1 0.3,-0.2 l 0.3,-0.3 a 0.74932,0.74932 0 0 0 0.1,-0.5 v -1.3 a 0.75814,0.75814 0 0 1 -0.4,0.2 z"
       id="path150" />
    <path
       inkscape:connector-curvature="0"
       style="fill:#cccccc"
       transform="translate(-0.6,-0.6)"
       d="m 181.9,6.901 v 0.9 0 a 5.54578,5.54578 0 0 1 0.6,-0.8 1.613,1.613 0 0 1 0.9,-0.3 h 0.4 v 1.7 h -0.6 a 0.90151,0.90151 0 0 0 -0.5,0.1 0.75805,0.75805 0 0 0 -0.4,0.2 1.38047,1.38047 0 0 0 -0.3,0.4 1.26827,1.26827 0 0 0 -0.1,0.6 v 4 h -1.7 v -6.8 z"
       id="path152" />
  </g>
  <g
     id="g282"
     style="stroke:#f2f2f2;fill-opacity:1;fill:url(#linearGradient10250)">
    <line
       style="fill:url(#linearGradient10250);stroke:#f2f2f2;stroke-width:0.28349999px;stroke-miterlimit:10;fill-opacity:1"
       y2="144.40102"
       x2="212.89999"
       y1="144.40102"
       x1="63.599998"
       id="line194" />
    <line
       style="fill:url(#linearGradient10250);stroke:#f2f2f2;stroke-width:0.28349999px;stroke-miterlimit:10;fill-opacity:1"
       y2="147.601"
       x2="213.00002"
       y1="147.601"
       x1="63.700001"
       id="line196" />
    <path
       inkscape:connector-curvature="0"
       style="fill:url(#linearGradient10250);stroke:#f2f2f2;stroke-width:0.28349999px;stroke-miterlimit:10;fill-opacity:1"
       transform="translate(-0.6,-0.6)"
       d="M 214.4,151.401"
       id="path198" />
    <path
       inkscape:connector-curvature="0"
       style="fill:url(#linearGradient10250);stroke:#f2f2f2;stroke-width:0.28349999px;stroke-miterlimit:10;fill-opacity:1"
       transform="translate(-0.6,-0.6)"
       d="M 135,151.401"
       id="path200" />
    <path
       inkscape:connector-curvature="0"
       style="fill:url(#linearGradient10250);stroke:#f2f2f2;stroke-width:0.28349999px;stroke-miterlimit:10;fill-opacity:1"
       transform="translate(-0.6,-0.6)"
       d="m 64.3,151.401 h 96.6 c 0,0 10.1,0 10.1,-3.2"
       id="path202" />
    <line
       style="fill:url(#linearGradient10250);stroke:#f2f2f2;stroke-width:0.28349999px;stroke-miterlimit:10;fill-opacity:1"
       y2="153.90102"
       x2="213.00002"
       y1="153.90102"
       x1="63.700001"
       id="line204" />
    <path
       inkscape:connector-curvature="0"
       style="fill:url(#linearGradient10250);stroke:#f2f2f2;stroke-width:0.28349999px;stroke-miterlimit:10;fill-opacity:1"
       transform="translate(-0.6,-0.6)"
       d="M 214.4,157.701"
       id="path206" />
    <path
       inkscape:connector-curvature="0"
       style="fill:url(#linearGradient10250);stroke:#f2f2f2;stroke-width:0.28349999px;stroke-miterlimit:10;fill-opacity:1"
       transform="translate(-0.6,-0.6)"
       d="M 135,157.701"
       id="path208" />
    <path
       inkscape:connector-curvature="0"
       style="fill:url(#linearGradient10250);stroke:#f2f2f2;stroke-width:0.28349999px;stroke-miterlimit:10;fill-opacity:1"
       transform="translate(-0.6,-0.6)"
       d="m 64.3,157.701 h 88.4 c 0,0 9.2,0.1 9.2,-3.2"
       id="path210" />
    <line
       style="fill:url(#linearGradient10250);stroke:#f2f2f2;stroke-width:0.28349999px;stroke-miterlimit:10;fill-opacity:1"
       y2="160.201"
       x2="213.10001"
       y1="160.201"
       x1="63.700001"
       id="line212" />
    <path
       inkscape:connector-curvature="0"
       style="fill:url(#linearGradient10250);stroke:#f2f2f2;stroke-width:0.28349999px;stroke-miterlimit:10;fill-opacity:1"
       transform="translate(-0.6,-0.6)"
       d="M 214.4,164.001"
       id="path214" />
    <path
       inkscape:connector-curvature="0"
       style="fill:url(#linearGradient10250);stroke:#f2f2f2;stroke-width:0.28349999px;stroke-miterlimit:10;fill-opacity:1"
       transform="translate(-0.6,-0.6)"
       d="M 135,164.001"
       id="path216" />
    <path
       inkscape:connector-curvature="0"
       style="fill:url(#linearGradient10250);stroke:#f2f2f2;stroke-width:0.28349999px;stroke-miterlimit:10;fill-opacity:1"
       transform="translate(-0.6,-0.6)"
       d="M 64.3,164.001 H 141 c 0,0 9,0.2 9,-3.2"
       id="path218" />
    <line
       style="fill:url(#linearGradient10250);stroke:#f2f2f2;stroke-width:0.28349999px;stroke-miterlimit:10;fill-opacity:1"
       y2="166.601"
       x2="213.10001"
       y1="166.601"
       x1="63.599998"
       id="line220" />
    <path
       inkscape:connector-curvature="0"
       style="fill:url(#linearGradient10250);stroke:#f2f2f2;stroke-width:0.28349999px;stroke-miterlimit:10;fill-opacity:1"
       transform="translate(-0.6,-0.6)"
       d="M 214.4,170.301"
       id="path222" />
    <path
       inkscape:connector-curvature="0"
       style="fill:url(#linearGradient10250);stroke:#f2f2f2;stroke-width:0.28349999px;stroke-miterlimit:10;fill-opacity:1"
       transform="translate(-0.6,-0.6)"
       d="m 64.2,170.301 h 60.5 c 0,0 10.7,0 10.8,-3.2"
       id="path224" />
    <g
       id="g280"
       style="stroke:#f2f2f2;fill-opacity:1;fill:url(#linearGradient10250)">
      <path
         inkscape:connector-curvature="0"
         style="fill:url(#linearGradient10250);stroke:#f2f2f2;stroke-width:0.28349999px;stroke-miterlimit:10;fill-opacity:1"
         transform="translate(-0.6,-0.6)"
         d="m 64.2,73.001 c 3.7,0 3.7,-0.2 7.5,-0.2 3.7,0 3.7,0.8 7.5,0.8 3.7,0 3.7,-1.2 7.5,-1.2 3.7,0 3.7,3.4 7.5,3.4 3.7,0 3.7,2.1 7.5,2.1 3.7,0 3.7,-4.4 7.5,-4.4 3.7,0 3.7,4.7 7.5,4.7 3.7,0 3.7,-0.5 7.5,-0.5 3.7,0 3.7,-3.8 7.5,-3.8 3.7,0 3.7,2.4 7.5,2.4 3.7,0 3.7,2.2 7.5,2.2 3.7,0 3.7,-4.3 7.5,-4.3 3.7,0 3.7,-2.1 7.5,-2.1 3.8,0 3.7,5.8 7.5,5.8 3.8,0 3.7,-5.4 7.5,-5.4 3.7,0 3.7,4.7 7.5,4.7 3.7,0 3.7,-0.9 7.5,-0.9 3.7,0 3.7,-3.3 7.5,-3.3 3.7,0 3.7,3.6 7.5,3.6 3.7,0 3.7,-1.6 7.5,-1.6"
         id="path226" />
      <path
         inkscape:connector-curvature="0"
         style="fill:url(#linearGradient10250);stroke:#f2f2f2;stroke-width:0.28349999px;stroke-miterlimit:10;fill-opacity:1"
         transform="translate(-0.6,-0.6)"
         d="m 64.2,75.801 c 3.7,0 3.7,2.6 7.5,2.6 3.7,0 3.7,-0.3 7.5,-0.3 3.7,0 3.7,2.9 7.5,2.9 3.7,0 3.7,0.8 7.5,0.8 3.7,0 3.7,-4.8 7.5,-4.8 3.7,0 3.7,1.5 7.5,1.5 3.7,0 3.7,-2.9 7.5,-2.9 3.7,0 3.7,5.1 7.5,5.1 3.7,0 3.7,-1.3 7.5,-1.3 3.7,0 3.7,-3.8 7.5,-3.8 3.7,0 3.7,3.6 7.5,3.6 3.7,0 3.7,-2 7.5,-2 3.7,0 3.7,0.8 7.5,0.8 3.8,0 3.7,-1.4 7.5,-1.4 3.8,0 3.7,4.7 7.5,4.7 3.7,0 3.7,-3.2 7.5,-3.2 3.7,0 3.7,1.5 7.5,1.5 3.7,0 3.7,0.2 7.5,0.2 3.7,0 3.7,-3.2 7.5,-3.2 3.7,0 3.7,-0.1 7.5,-0.1"
         id="path228" />
      <path
         inkscape:connector-curvature="0"
         style="fill:url(#linearGradient10250);stroke:#f2f2f2;stroke-width:0.28349999px;stroke-miterlimit:10;fill-opacity:1"
         transform="translate(-0.6,-0.6)"
         d="m 64.2,80.201 c 3.7,0 3.7,2.1 7.5,2.1 3.7,0 3.7,-3.1 7.5,-3.1 3.7,0 3.7,0.2 7.5,0.2 3.7,0 3.7,3.7 7.5,3.7 3.7,0 3.7,0.1 7.5,0.1 3.7,0 3.7,-0.8 7.5,-0.8 3.7,0 3.7,1.7 7.5,1.7 3.7,0 3.7,0.8 7.5,0.8 3.7,0 3.7,-5.5 7.5,-5.5 3.7,0 3.7,4.5 7.5,4.5 3.7,0 3.7,-0.9 7.5,-0.9 3.7,0 3.7,1.7 7.5,1.7 3.7,0 3.7,-5.2 7.5,-5.2 3.8,0 3.7,2.2 7.5,2.2 3.8,0 3.7,3 7.5,3 3.7,0 3.7,-3.7 7.5,-3.7 3.7,0 3.7,-1.6 7.5,-1.6 3.7,0 3.7,4.5 7.5,4.5 h 7.5 c 3.7,0 3.7,0.1 7.5,0.1"
         id="path230" />
      <path
         inkscape:connector-curvature="0"
         style="fill:url(#linearGradient10250);stroke:#f2f2f2;stroke-width:0.28349999px;stroke-miterlimit:10;fill-opacity:1"
         transform="translate(-0.6,-0.6)"
         d="m 64.2,83.301 c 3.7,0 3.7,-0.7 7.5,-0.7 3.7,0 3.7,4.6 7.5,4.6 3.7,0 3.7,-1.7 7.5,-1.7 3.7,0 3.7,2.1 7.5,2.1 3.7,0 3.7,-1.9 7.5,-1.9 3.7,0 3.7,0.2 7.5,0.2 3.7,0 3.7,-3.7 7.5,-3.7 3.7,0 3.7,3.3 7.5,3.3 3.7,0 3.7,0.6 7.5,0.6 3.7,0 3.7,1.4 7.5,1.4 3.7,0 3.7,-1.1 7.5,-1.1 3.7,0 3.7,0.3 7.5,0.3 3.7,0 3.7,-2.4 7.5,-2.4 3.8,0 3.7,-0.9 7.5,-0.9 3.8,0 3.7,4.2 7.5,4.2 3.7,0 3.7,-0.2 7.5,-0.2 3.7,0 3.7,-4.1 7.5,-4.1 3.7,0 3.7,4.6 7.5,4.6 3.7,0 3.7,-4.2 7.5,-4.2 3.7,0 3.7,4.1 7.5,4.1"
         id="path232" />
      <path
         inkscape:connector-curvature="0"
         style="fill:url(#linearGradient10250);stroke:#f2f2f2;stroke-width:0.28349999px;stroke-miterlimit:10;fill-opacity:1"
         transform="translate(-0.6,-0.6)"
         d="m 64.2,85.901 c 3.7,0 3.7,4.1 7.5,4.1 3.7,0 3.7,-2.9 7.5,-2.9 3.7,0 3.7,3.8 7.5,3.8 3.7,0 3.7,-2.2 7.5,-2.2 3.7,0 3.7,-2.4 7.5,-2.4 3.7,0 3.7,4.6 7.5,4.6 3.7,0 3.7,-3.3 7.5,-3.3 3.7,0 3.7,0.8 7.5,0.8 3.7,0 3.7,1.5 7.5,1.5 3.7,0 3.7,0.1 7.5,0.1 3.7,0 3.7,0.5 7.5,0.5 3.7,0 3.7,-1 7.5,-1 3.7,0 3.7,-3.9 7.5,-3.9 3.8,0 3.7,0.8 7.5,0.8 3.8,0 3.7,2.2 7.5,2.2 3.7,0 3.7,0.6 7.5,0.6 3.7,0 3.7,0.9 7.5,0.9 3.7,0 3.7,-0.7 7.5,-0.7 3.7,0 3.7,0.1 7.5,0.1 3.7,0 3.7,-2.9 7.5,-2.9"
         id="path234" />
      <path
         inkscape:connector-curvature="0"
         style="fill:url(#linearGradient10250);stroke:#f2f2f2;stroke-width:0.28349999px;stroke-miterlimit:10;fill-opacity:1"
         transform="translate(-0.6,-0.6)"
         d="m 64.2,92.301 c 3.7,0 3.7,0.4 7.5,0.4 3.7,0 3.7,-2.2 7.5,-2.2 3.7,0 3.7,2.5 7.5,2.5 3.7,0 3.7,-1.3 7.5,-1.3 3.7,0 3.7,-2 7.5,-2 3.7,0 3.7,3.7 7.5,3.7 3.7,0 3.7,-0.2 7.5,-0.2 3.7,0 3.7,-1.4 7.5,-1.4 3.7,0 3.7,-3 7.5,-3 3.7,0 3.7,2.1 7.5,2.1 3.7,0 3.7,0.3 7.5,0.3 3.7,0 3.7,2 7.5,2 3.7,0 3.7,0.2 7.5,0.2 3.8,0 3.7,-3.7 7.5,-3.7 3.8,0 3.7,-0.8 7.5,-0.8 3.7,0 3.7,4 7.5,4 3.7,0 3.7,-3.5 7.5,-3.5 3.7,0 3.7,4.2 7.5,4.2 3.7,0 3.7,-1.9 7.5,-1.9 3.7,0 3.7,-1.5 7.5,-1.5"
         id="path236" />
      <path
         inkscape:connector-curvature="0"
         style="fill:url(#linearGradient10250);stroke:#f2f2f2;stroke-width:0.28349999px;stroke-miterlimit:10;fill-opacity:1"
         transform="translate(-0.6,-0.6)"
         d="m 64.2,92.601 c 3.7,0 3.7,1.9 7.5,1.9 3.7,0 3.7,-0.8 7.5,-0.8 3.7,0 3.7,1.8 7.5,1.8 3.7,0 3.7,-1.2 7.5,-1.2 3.7,0 3.7,-1.6 7.5,-1.6 3.7,0 3.7,0.8 7.5,0.8 h 7.5 c 3.7,0 3.7,-0.9 7.5,-0.9 3.7,0 3.7,3.5 7.5,3.5 3.7,0 3.7,-2.2 7.5,-2.2 3.7,0 3.7,1.4 7.5,1.4 3.7,0 3.7,-3.1 7.5,-3.1 3.7,0 3.7,2.5 7.5,2.5 3.8,0 3.7,-1.4 7.5,-1.4 3.8,0 3.7,1.2 7.5,1.2 3.7,0 3.7,1 7.5,1 3.7,0 3.7,1.6 7.5,1.6 3.7,0 3.7,-3.5 7.5,-3.5 3.7,0 3.7,-0.7 7.5,-0.7 3.7,0 3.7,2.9 7.5,2.9"
         id="path238" />
      <path
         inkscape:connector-curvature="0"
         style="fill:url(#linearGradient10250);stroke:#f2f2f2;stroke-width:0.28349999px;stroke-miterlimit:10;fill-opacity:1"
         transform="translate(-0.6,-0.6)"
         d="m 64.2,95.801 c 3.7,0 3.7,3.4 7.5,3.4 3.7,0 3.7,-0.8 7.5,-0.8 3.7,0 3.7,-0.4 7.5,-0.4 3.7,0 3.7,-1.5 7.5,-1.5 3.7,0 3.7,-1.2 7.5,-1.2 3.7,0 3.7,3.2 7.5,3.2 3.7,0 3.7,-0.4 7.5,-0.4 3.7,0 3.7,-1 7.5,-1 3.7,0 3.7,-0.9 7.5,-0.9 3.7,0 3.7,2.7 7.5,2.7 3.7,0 3.7,-3.2 7.5,-3.2 3.7,0 3.7,2.3 7.5,2.3 3.7,0 3.7,-0.9 7.5,-0.9 3.8,0 3.7,-0.3 7.5,-0.3 3.8,0 3.7,1.2 7.5,1.2 3.7,0 3.7,-2.2 7.5,-2.2 3.7,0 3.7,3.7 7.5,3.7 3.7,0 3.7,0.1 7.5,0.1 3.7,0 3.7,-0.4 7.5,-0.4 3.7,0 3.7,-3.3 7.5,-3.3"
         id="path240" />
      <path
         inkscape:connector-curvature="0"
         style="fill:url(#linearGradient10250);stroke:#f2f2f2;stroke-width:0.28349999px;stroke-miterlimit:10;fill-opacity:1"
         transform="translate(-0.6,-0.6)"
         d="m 64.2,98.701 c 3.7,0 3.7,1 7.5,1 3.7,0 3.7,2.5 7.5,2.5 3.7,0 3.7,-2.9 7.5,-2.9 3.7,0 3.7,-0.2 7.5,-0.2 3.7,0 3.7,-0.1 7.5,-0.1 3.7,0 3.7,3.4 7.5,3.4 3.7,0 3.7,-3.5 7.5,-3.5 3.7,0 3.7,1.5 7.5,1.5 3.7,0 3.7,-0.5 7.5,-0.5 3.7,0 3.7,0.1 7.5,0.1 3.7,0 3.7,-1 7.5,-1 3.7,0 3.7,3.5 7.5,3.5 3.7,0 3.7,-3.9 7.5,-3.9 3.8,0 3.7,1.5 7.5,1.5 3.8,0 3.7,1.3 7.5,1.3 3.7,0 3.7,-2.6 7.5,-2.6 3.7,0 3.7,0.6 7.5,0.6 3.7,0 3.7,-0.3 7.5,-0.3 3.7,0 3.7,3.1 7.5,3.1 3.7,0 3.7,-2.1 7.5,-2.1"
         id="path242" />
      <path
         inkscape:connector-curvature="0"
         style="fill:url(#linearGradient10250);stroke:#f2f2f2;stroke-width:0.28349999px;stroke-miterlimit:10;fill-opacity:1"
         transform="translate(-0.6,-0.6)"
         d="m 64.2,105.101 c 3.7,0 3.7,-1.2 7.5,-1.2 3.7,0 3.7,-0.5 7.5,-0.5 3.7,0 3.7,-1.4 7.5,-1.4 3.7,0 3.7,2.5 7.5,2.5 3.7,0 3.7,-0.1 7.5,-0.1 3.7,0 3.7,-1.2 7.5,-1.2 3.7,0 3.7,1.8 7.5,1.8 h 7.5 c 3.7,0 3.7,0.9 7.5,0.9 3.7,0 3.7,-1.4 7.5,-1.4 h 7.5 c 3.7,0 3.7,-0.7 7.5,-0.7 3.7,0 3.7,0.8 7.5,0.8 3.8,0 3.7,-2.8 7.5,-2.8 3.8,0 3.7,3.7 7.5,3.7 3.7,0 3.7,-3 7.5,-3 3.7,0 3.7,0.7 7.5,0.7 3.7,0 3.7,-0.1 7.5,-0.1 3.7,0 3.7,-1 7.5,-1 3.7,0 3.7,0.7 7.5,0.7"
         id="path244" />
      <path
         inkscape:connector-curvature="0"
         style="fill:url(#linearGradient10250);stroke:#f2f2f2;stroke-width:0.28349999px;stroke-miterlimit:10;fill-opacity:1"
         transform="translate(-0.6,-0.6)"
         d="m 64.2,105.401 c 3.7,0 3.7,1.2 7.5,1.2 3.7,0 3.7,-1.2 7.5,-1.2 3.7,0 3.7,0.8 7.5,0.8 3.7,0 3.7,0.3 7.5,0.3 3.7,0 3.7,2.4 7.5,2.4 3.7,0 3.7,-2.1 7.5,-2.1 h 7.5 c 3.7,0 3.7,2 7.5,2 3.7,0 3.7,-1.5 7.5,-1.5 3.7,0 3.7,-0.4 7.5,-0.4 3.7,0 3.7,-1.2 7.5,-1.2 3.7,0 3.7,0.7 7.5,0.7 3.7,0 3.7,0.1 7.5,0.1 3.8,0 3.7,-0.8 7.5,-0.8 3.8,0 3.7,-0.2 7.5,-0.2 3.7,0 3.7,2 7.5,2 3.7,0 3.7,1 7.5,1 3.7,0 3.7,-2.8 7.5,-2.8 3.7,0 3.7,3.4 7.5,3.4 3.7,0 3.7,-1.5 7.5,-1.5"
         id="path246" />
      <path
         inkscape:connector-curvature="0"
         style="fill:url(#linearGradient10250);stroke:#f2f2f2;stroke-width:0.28349999px;stroke-miterlimit:10;fill-opacity:1"
         transform="translate(-0.6,-0.6)"
         d="m 64.2,111.701 c 3.7,0 3.7,-2.5 7.5,-2.5 3.7,0 3.7,2.2 7.5,2.2 3.7,0 3.7,-0.1 7.5,-0.1 3.7,0 3.7,-0.2 7.5,-0.2 3.7,0 3.7,-0.7 7.5,-0.7 3.7,0 3.7,-0.9 7.5,-0.9 3.7,0 3.7,1.4 7.5,1.4 3.7,0 3.7,-1.6 7.5,-1.6 3.7,0 3.7,1.2 7.5,1.2 3.7,0 3.7,-0.2 7.5,-0.2 3.7,0 3.7,1.8 7.5,1.8 3.7,0 3.7,-1.8 7.5,-1.8 3.7,0 3.7,-0.2 7.5,-0.2 3.8,0 3.7,1.1 7.5,1.1 3.8,0 3.7,-1.2 7.5,-1.2 3.7,0 3.7,-0.3 7.5,-0.3 3.7,0 3.7,-0.6 7.5,-0.6 3.7,0 3.7,1.6 7.5,1.6 3.7,0 3.7,0.9 7.5,0.9 3.7,0 3.7,-2.6 7.5,-2.6"
         id="path248" />
      <path
         inkscape:connector-curvature="0"
         style="fill:url(#linearGradient10250);stroke:#f2f2f2;stroke-width:0.28349999px;stroke-miterlimit:10;fill-opacity:1"
         transform="translate(-0.6,-0.6)"
         d="m 64.2,112.701 c 3.7,0 3.7,1.5 7.5,1.5 3.7,0 3.7,-1.8 7.5,-1.8 3.7,0 3.7,2.3 7.5,2.3 3.7,0 3.7,-1.4 7.5,-1.4 3.7,0 3.7,-1.5 7.5,-1.5 3.7,0 3.7,2.8 7.5,2.8 3.7,0 3.7,-1.5 7.5,-1.5 3.7,0 3.7,1.4 7.5,1.4 3.7,0 3.7,-1.8 7.5,-1.8 3.7,0 3.7,0.8 7.5,0.8 3.7,0 3.7,-1.3 7.5,-1.3 3.7,0 3.7,2.1 7.5,2.1 3.7,0 3.7,-0.2 7.5,-0.2 3.8,0 3.7,0.1 7.5,0.1 3.8,0 3.7,-0.9 7.5,-0.9 3.7,0 3.7,0.8 7.5,0.8 3.7,0 3.7,0.2 7.5,0.2 3.7,0 3.7,-2.1 7.5,-2.1 3.7,0 3.7,1.3 7.5,1.3 h 7.5"
         id="path250" />
      <path
         inkscape:connector-curvature="0"
         style="fill:url(#linearGradient10250);stroke:#f2f2f2;stroke-width:0.28349999px;stroke-miterlimit:10;fill-opacity:1"
         transform="translate(-0.6,-0.6)"
         d="m 64.2,117.901 c 3.7,0 3.7,-1.7 7.5,-1.7 3.7,0 3.7,-0.6 7.5,-0.6 3.7,0 3.7,1.4 7.5,1.4 3.7,0 3.7,1 7.5,1 3.7,0 3.7,-2.5 7.5,-2.5 3.7,0 3.7,-0.1 7.5,-0.1 3.7,0 3.7,2 7.5,2 3.7,0 3.7,-1 7.5,-1 3.7,0 3.7,-0.8 7.5,-0.8 3.7,0 3.7,0.9 7.5,0.9 3.7,0 3.7,-1 7.5,-1 3.7,0 3.7,1.3 7.5,1.3 3.7,0 3.7,-0.6 7.5,-0.6 3.8,0 3.7,0.4 7.5,0.4 3.8,0 3.7,1.3 7.5,1.3 3.7,0 3.7,-0.3 7.5,-0.3 3.7,0 3.7,-1.4 7.5,-1.4 3.7,0 3.7,-0.3 7.5,-0.3 3.7,0 3.7,-0.2 7.5,-0.2 3.7,0 3.7,-0.3 7.5,-0.3"
         id="path252" />
      <path
         inkscape:connector-curvature="0"
         style="fill:url(#linearGradient10250);stroke:#f2f2f2;stroke-width:0.28349999px;stroke-miterlimit:10;fill-opacity:1"
         transform="translate(-0.6,-0.6)"
         d="m 64.2,120.901 c 3.7,0 3.7,-1.6 7.5,-1.6 3.7,0 3.7,-0.6 7.5,-0.6 3.7,0 3.7,0.9 7.5,0.9 3.7,0 3.7,1 7.5,1 3.7,0 3.7,-1.3 7.5,-1.3 3.7,0 3.7,1.6 7.5,1.6 3.7,0 3.7,-1.4 7.5,-1.4 3.7,0 3.7,0.5 7.5,0.5 3.7,0 3.7,-1.3 7.5,-1.3 h 7.5 c 3.7,0 3.7,-0.3 7.5,-0.3 3.7,0 3.7,1.9 7.5,1.9 3.7,0 3.7,-0.6 7.5,-0.6 3.8,0 3.7,-0.5 7.5,-0.5 3.8,0 3.7,0.1 7.5,0.1 3.7,0 3.7,0.7 7.5,0.7 3.7,0 3.7,0.9 7.5,0.9 3.7,0 3.7,-1.1 7.5,-1.1 3.7,0 3.7,-1 7.5,-1 3.7,0 3.7,-0.2 7.5,-0.2"
         id="path254" />
      <path
         inkscape:connector-curvature="0"
         style="fill:url(#linearGradient10250);stroke:#f2f2f2;stroke-width:0.28349999px;stroke-miterlimit:10;fill-opacity:1"
         transform="translate(-0.6,-0.6)"
         d="m 64.2,121.801 c 3.7,0 3.7,0.4 7.5,0.4 h 7.5 c 3.7,0 3.7,1.7 7.5,1.7 3.7,0 3.7,-1.3 7.5,-1.3 h 7.5 c 3.7,0 3.7,-0.9 7.5,-0.9 3.7,0 3.7,1.8 7.5,1.8 3.7,0 3.7,-0.1 7.5,-0.1 3.7,0 3.7,-0.1 7.5,-0.1 3.7,0 3.7,-1.1 7.5,-1.1 3.7,0 3.7,1.3 7.5,1.3 3.7,0 3.7,-0.8 7.5,-0.8 3.7,0 3.7,0.8 7.5,0.8 3.8,0 3.7,-0.6 7.5,-0.6 3.8,0 3.7,-0.2 7.5,-0.2 3.7,0 3.7,0.3 7.5,0.3 3.7,0 3.7,-0.1 7.5,-0.1 3.7,0 3.7,0.3 7.5,0.3 3.7,0 3.7,-0.4 7.5,-0.4 3.7,0 3.7,0.8 7.5,0.8"
         id="path256" />
      <path
         inkscape:connector-curvature="0"
         style="fill:url(#linearGradient10250);stroke:#f2f2f2;stroke-width:0.28349999px;stroke-miterlimit:10;fill-opacity:1"
         transform="translate(-0.6,-0.6)"
         d="m 64.2,125.701 c 3.7,0 3.7,0.2 7.5,0.2 3.7,0 3.7,-0.9 7.5,-0.9 3.7,0 3.7,2 7.5,2 3.7,0 3.7,-1.3 7.5,-1.3 3.7,0 3.7,-0.7 7.5,-0.7 3.7,0 3.7,1.8 7.5,1.8 3.7,0 3.7,-1.7 7.5,-1.7 3.7,0 3.7,0.2 7.5,0.2 3.7,0 3.7,1.6 7.5,1.6 3.7,0 3.7,-0.7 7.5,-0.7 3.7,0 3.7,0.1 7.5,0.1 3.7,0 3.7,-1.1 7.5,-1.1 3.7,0 3.7,-0.1 7.5,-0.1 3.8,0 3.7,1.6 7.5,1.6 3.8,0 3.7,-1.8 7.5,-1.8 3.7,0 3.7,1.4 7.5,1.4 3.7,0 3.7,-1 7.5,-1 3.7,0 3.7,0.3 7.5,0.3 3.7,0 3.7,-0.1 7.5,-0.1 3.7,0 3.7,0.4 7.5,0.4"
         id="path258" />
      <path
         inkscape:connector-curvature="0"
         style="fill:url(#linearGradient10250);stroke:#f2f2f2;stroke-width:0.28349999px;stroke-miterlimit:10;fill-opacity:1"
         transform="translate(-0.6,-0.6)"
         d="m 64.2,128.401 c 3.7,0 3.7,1 7.5,1 3.7,0 3.7,-0.1 7.5,-0.1 3.7,0 3.7,-0.3 7.5,-0.3 3.7,0 3.7,-0.3 7.5,-0.3 3.7,0 3.7,-0.1 7.5,-0.1 3.7,0 3.7,1.5 7.5,1.5 3.7,0 3.7,-0.4 7.5,-0.4 h 7.5 c 3.7,0 3.7,0.3 7.5,0.3 3.7,0 3.7,-0.2 7.5,-0.2 3.7,0 3.7,-0.6 7.5,-0.6 3.7,0 3.7,-0.7 7.5,-0.7 3.7,0 3.7,1.2 7.5,1.2 3.8,0 3.7,-1 7.5,-1 3.8,0 3.7,0.3 7.5,0.3 3.7,0 3.7,1.2 7.5,1.2 3.7,0 3.7,-1.6 7.5,-1.6 3.7,0 3.7,0.1 7.5,0.1 3.7,0 3.7,0.9 7.5,0.9 3.7,0 3.7,0.1 7.5,0.1"
         id="path260" />
      <path
         inkscape:connector-curvature="0"
         style="fill:url(#linearGradient10250);stroke:#f2f2f2;stroke-width:0.28349999px;stroke-miterlimit:10;fill-opacity:1"
         transform="translate(-0.6,-0.6)"
         d="m 64.2,133.001 c 3.7,0 3.7,-0.8 7.5,-0.8 3.7,0 3.7,0.2 7.5,0.2 3.7,0 3.7,0.4 7.5,0.4 3.7,0 3.7,-0.2 7.5,-0.2 3.7,0 3.7,-0.7 7.5,-0.7 3.7,0 3.7,-0.2 7.5,-0.2 3.7,0 3.7,0.6 7.5,0.6 3.7,0 3.7,-0.1 7.5,-0.1 3.7,0 3.7,0.4 7.5,0.4 3.7,0 3.7,-0.9 7.5,-0.9 3.7,0 3.7,0.3 7.5,0.3 3.7,0 3.7,0.6 7.5,0.6 3.7,0 3.7,-0.8 7.5,-0.8 3.8,0 3.7,0.8 7.5,0.8 3.8,0 3.7,0.3 7.5,0.3 3.7,0 3.7,-1.4 7.5,-1.4 3.7,0 3.7,1.3 7.5,1.3 3.7,0 3.7,-0.7 7.5,-0.7 3.7,0 3.7,-0.6 7.5,-0.6 3.7,0 3.7,0.6 7.5,0.6"
         id="path262" />
      <path
         inkscape:connector-curvature="0"
         style="fill:url(#linearGradient10250);stroke:#f2f2f2;stroke-width:0.28349999px;stroke-miterlimit:10;fill-opacity:1"
         transform="translate(-0.6,-0.6)"
         d="m 64.2,135.001 c 3.7,0 3.7,0.1 7.5,0.1 3.7,0 3.7,0.6 7.5,0.6 3.7,0 3.7,-0.6 7.5,-0.6 3.7,0 3.7,0.1 7.5,0.1 3.7,0 3.7,0.7 7.5,0.7 3.7,0 3.7,-0.4 7.5,-0.4 3.7,0 3.7,0.3 7.5,0.3 3.7,0 3.7,-0.6 7.5,-0.6 3.7,0 3.7,0.8 7.5,0.8 3.7,0 3.7,-0.3 7.5,-0.3 3.7,0 3.7,-0.2 7.5,-0.2 3.7,0 3.7,0.1 7.5,0.1 3.7,0 3.7,-0.1 7.5,-0.1 3.8,0 3.7,0.3 7.5,0.3 3.8,0 3.7,-0.4 7.5,-0.4 3.7,0 3.7,-0.1 7.5,-0.1 3.7,0 3.7,0.5 7.5,0.5 3.7,0 3.7,0.1 7.5,0.1 3.7,0 3.7,-0.6 7.5,-0.6 3.7,0 3.7,-0.3 7.5,-0.3"
         id="path264" />
      <path
         inkscape:connector-curvature="0"
         style="fill:url(#linearGradient10250);stroke:#f2f2f2;stroke-width:0.28349999px;stroke-miterlimit:10;fill-opacity:1"
         transform="translate(-0.6,-0.6)"
         d="m 64.2,138.201 c 3.7,0 3.7,0.5 7.5,0.5 3.7,0 3.7,-0.5 7.5,-0.5 3.7,0 3.7,0.7 7.5,0.7 3.7,0 3.7,-0.5 7.5,-0.5 3.7,0 3.7,0.7 7.5,0.7 3.7,0 3.7,-0.7 7.5,-0.7 3.7,0 3.7,0.1 7.5,0.1 3.7,0 3.7,-0.1 7.5,-0.1 3.7,0 3.7,-0.1 7.5,-0.1 3.7,0 3.7,-0.1 7.5,-0.1 3.7,0 3.7,0.8 7.5,0.8 3.7,0 3.7,-0.1 7.5,-0.1 3.7,0 3.7,-0.1 7.5,-0.1 3.8,0 3.7,-0.5 7.5,-0.5 3.8,0 3.7,0.7 7.5,0.7 3.7,0 3.7,-0.5 7.5,-0.5 3.7,0 3.7,-0.1 7.5,-0.1 3.7,0 3.7,0.5 7.5,0.5 3.7,0 3.7,-0.2 7.5,-0.2 3.7,0 3.7,-0.2 7.5,-0.2"
         id="path266" />
      <path
         inkscape:connector-curvature="0"
         style="fill:url(#linearGradient10250);stroke:#f2f2f2;stroke-width:0.28349999px;stroke-miterlimit:10;fill-opacity:1"
         transform="translate(-0.6,-0.6)"
         d="m 64.2,141.901 c 3.7,0 3.7,-0.3 7.5,-0.3 h 7.5 c 3.7,0 3.7,0.2 7.5,0.2 3.7,0 3.7,-0.2 7.5,-0.2 3.7,0 3.7,0.2 7.5,0.2 3.7,0 3.7,0.1 7.5,0.1 3.7,0 3.7,-0.1 7.5,-0.1 3.7,0 3.7,-0.2 7.5,-0.2 3.7,0 3.7,0.4 7.5,0.4 3.7,0 3.7,0.1 7.5,0.1 3.7,0 3.7,-0.6 7.5,-0.6 3.7,0 3.7,0.6 7.5,0.6 3.7,0 3.7,-0.3 7.5,-0.3 3.8,0 3.7,0.2 7.5,0.2 3.8,0 3.7,-0.4 7.5,-0.4 h 7.5 c 3.7,0 3.7,0.3 7.5,0.3 3.7,0 3.7,-0.3 7.5,-0.3 3.7,0 3.7,0.4 7.5,0.4 h 7.5"
         id="path268" />
      <path
         inkscape:connector-curvature="0"
         style="fill:url(#linearGradient10250);stroke:#f2f2f2;stroke-width:0.28349999px;stroke-miterlimit:10;fill-opacity:1"
         transform="translate(-0.6,-0.6)"
         d="m 64.2,68.801 c 3.7,0 3.7,1.1 7.5,1.1 3.7,0 3.7,-1.1 7.5,-1.1 3.8,0 3.7,3.5 7.5,3.5 3.7,0 3.7,-5.1 7.5,-5.1 3.7,0 3.7,5.1 7.5,5.1 3.7,0 3.7,-5.1 7.5,-5.1 3.8,0 3.7,7.1 7.5,7.1 3.7,0 3.7,0.4 7.5,0.4 3.8,0 3.7,-7 7.5,-7 3.7,0 3.7,0.6 7.5,0.6 3.7,0 3.7,2.9 7.5,2.9 3.7,0 3.7,0.8 7.5,0.8 3.7,0 3.7,3.5 7.5,3.5 3.8,0 3.7,-3.6 7.5,-3.6 3.8,0 3.7,1.7 7.5,1.7 3.7,0 3.7,-1.1 7.5,-1.1 3.7,0 3.7,-2.5 7.5,-2.5 3.7,0 3.7,0.8 7.5,0.8 3.7,0 3.7,5.1 7.5,5.1 3.8,0 3.7,-3.1 7.5,-3.1"
         id="path270" />
      <path
         inkscape:connector-curvature="0"
         style="fill:url(#linearGradient10250);stroke:#f2f2f2;stroke-width:0.28349999px;stroke-miterlimit:10;fill-opacity:1"
         transform="translate(-0.6,-0.6)"
         d="m 64.2,71.101 c 3.7,0 3.7,-4.4 7.5,-4.4 3.7,0 3.7,6.3 7.5,6.3 3.8,0 3.7,-0.1 7.5,-0.1 3.7,0 3.7,-5.2 7.5,-5.2 3.7,0 3.7,-1.7 7.5,-1.7 3.7,0 3.7,2.5 7.5,2.5 3.8,0 3.7,0.3 7.5,0.3 3.7,0 3.7,-3.9 7.5,-3.9 3.8,0 3.7,4.1 7.5,4.1 3.7,0 3.7,-5.3 7.5,-5.3 3.7,0 3.7,2 7.5,2 3.7,0 3.7,4.7 7.5,4.7 3.7,0 3.7,0.3 7.5,0.3 3.8,0 3.7,1 7.5,1 3.8,0 3.7,-7.4 7.5,-7.4 3.7,0 3.7,2.9 7.5,2.9 3.7,0 3.7,-2.7 7.5,-2.7 3.7,0 3.7,5.9 7.5,5.9 3.7,0 3.7,-6.3 7.5,-6.3 3.8,0 3.7,3.6 7.5,3.6"
         id="path272" />
      <path
         inkscape:connector-curvature="0"
         style="fill:url(#linearGradient10250);stroke:#f2f2f2;stroke-width:0.28349999px;stroke-miterlimit:10;fill-opacity:1"
         transform="translate(-0.6,-0.6)"
         d="m 64.2,65.501 c 3.7,0 3.7,3.7 7.5,3.7 3.7,0 3.7,-7.2 7.5,-7.2 3.8,0 3.7,4.5 7.5,4.5 3.7,0 3.7,-1.7 7.5,-1.7 3.7,0 3.7,3.2 7.5,3.2 3.7,0 3.7,-2.4 7.5,-2.4 3.8,0 3.7,2 7.5,2 3.7,0 3.7,-0.7 7.5,-0.7 3.8,0 3.7,1.4 7.5,1.4 3.7,0 3.7,-1.4 7.5,-1.4 3.7,0 3.7,2.1 7.5,2.1 3.7,0 3.7,-8.8 7.5,-8.8 3.7,0 3.7,5.1 7.5,5.1 3.8,0 3.7,1.9 7.5,1.9 3.8,0 3.7,-0.3 7.5,-0.3 3.7,0 3.7,-3 7.5,-3 3.7,0 3.7,-4 7.5,-4 3.7,0 3.7,3.2 7.5,3.2 3.7,0 3.7,3 7.5,3 3.8,0 3.7,2.7 7.5,2.7"
         id="path274" />
      <path
         inkscape:connector-curvature="0"
         style="fill:url(#linearGradient10250);stroke:#f2f2f2;stroke-width:0.28349999px;stroke-miterlimit:10;fill-opacity:1"
         transform="translate(-0.6,-0.6)"
         d="m 64.2,63.701 c 3.7,0 3.7,-1.3 7.5,-1.3 3.7,0 3.7,-5.6 7.5,-5.6 3.8,0 3.6,10.2 7.4,10.2 3.7,0 3.7,-7.4 7.5,-7.4 3.7,0 3.7,-1.5 7.5,-1.5 3.7,0 3.7,1.5 7.5,1.5 3.8,0 3.7,2.8 7.5,2.8 3.7,0 3.7,4.6 7.5,4.6 3.8,0 3.7,-8 7.5,-8 3.7,0 3.7,5.1 7.5,5.1 3.7,0 3.7,-3.8 7.5,-3.8 3.7,0 3.7,-2.2 7.5,-2.2 3.7,0 3.7,4.1 7.5,4.1 3.8,0 3.7,-5 7.5,-5 3.8,0 3.7,8.6 7.5,8.6 3.7,0 3.7,-4.7 7.5,-4.7 3.7,0 3.7,-2.6 7.5,-2.6 3.7,0 3.7,5.3 7.5,5.3 3.7,0 3.7,-5.3 7.5,-5.3 3.8,0 3.7,6.2 7.5,6.2"
         id="path276" />
      <path
         inkscape:connector-curvature="0"
         style="fill:url(#linearGradient10250);stroke:#f2f2f2;stroke-width:0.28349999px;stroke-miterlimit:10;fill-opacity:1"
         transform="translate(-0.6,-0.6)"
         d="m 64.2,56.501 c 3.7,0 3.7,7.3 7.5,7.3 3.7,0 3.7,-3.4 7.5,-3.4 3.8,0 3.7,0.1 7.5,0.1 3.7,0 3.7,-4.1 7.5,-4.1 3.7,0 3.7,1.7 7.5,1.7 3.7,0 3.7,5 7.5,5 3.8,0 3.7,-6.8 7.5,-6.8 3.7,0 3.7,4 7.5,4 3.8,0 3.7,3.5 7.5,3.5 3.7,0 3.7,-6.3 7.5,-6.3 3.7,0 3.7,-0.2 7.5,-0.2 3.7,0 3.7,-1.2 7.5,-1.2 3.7,0 3.7,-1.7 7.5,-1.7 3.8,0 3.7,0.7 7.5,0.7 3.8,0 3.7,7 7.5,7 3.7,0 3.7,-0.7 7.5,-0.7 3.7,0 3.7,-7.3 7.5,-7.3 3.7,0 3.7,9.7 7.5,9.7 3.7,0 3.7,-3.6 7.5,-3.6 3.8,0 3.7,1.8 7.5,1.8"
         id="path278" />
    </g>
  </g>
  <polyline
     style="fill:none;stroke:#f2f2f2;stroke-width:0.49039999px"
     points="82.7 329.5 73.3 317.5 73.3 309.9"
     id="polyline284" />
  <polyline
     style="fill:none;stroke:#f2f2f2;stroke-width:0.49039999px"
     points="156.2 286.093 146.8 274.093 146.8 266.493"
     data-name="polyline284"
     id="polyline284-2" />
  <rect
     id="rect286"
     x="21.6"
     y="33.201012"
     width="8.3000002"
     height="10.5"
     style="fill:#f2f2f2" />
  <path
     id="path288"
     d="m 26.7,41.601 h -0.8 v -4.3 h -1.6 v -0.7 h 0.5 c 0.8,0 1.2,-0.3 1.3,-1 h 0.6 z"
     style="fill:#000000"
     inkscape:connector-curvature="0" />
  <polyline
     style="fill:none;stroke:#f2f2f2;stroke-width:0.28349999px"
     points="19.6 58.4 12.4 46 12.4 38.2"
     id="polyline292" />
  <rect
     id="rect294"
     x="45.299999"
     y="53.101009"
     width="13.7"
     height="10.5"
     style="fill:#f2f2f2" />
  <g
     id="g302"
     style="fill:#000000">
    <path
       id="path296"
       d="m 49.5,62.201 h -0.8 v -4.2 H 47 v -0.7 h 0.5 c 0.8,0 1.2,-0.3 1.3,-1 h 0.6 z"
       transform="translate(-0.6,-0.6)"
       style="fill:#000000"
       inkscape:connector-curvature="0" />
    <path
       id="path298"
       d="m 51.7,58.901 v -1.2 H 52 v 1.2 h 1.3 v 0.3 H 52 v 1.2 h -0.3 v -1.2 h -1.3 v -0.3 z"
       transform="translate(-0.6,-0.6)"
       style="fill:#000000"
       inkscape:connector-curvature="0" />
    <path
       id="path300"
       d="m 57.6,62.201 h -3.9 v -0.7 c 0.7,-0.5 1.4,-1.1 2.1,-1.7 a 2.13824,2.13824 0 0 0 0.9,-1.8 0.95474,0.95474 0 0 0 -0.9,-1.1 h -0.2 a 0.90329,0.90329 0 0 0 -1.1,0.9 v 0.3 a 1.70181,1.70181 0 0 0 0.1,0.7 h -0.8 a 1.70181,1.70181 0 0 1 -0.1,-0.7 1.774,1.774 0 0 1 1.7,-1.8 h 0.2 a 1.88259,1.88259 0 0 1 2,1.7 v 0 0.2 a 3.33338,3.33338 0 0 1 -1.1,2.2 10.628,10.628 0 0 1 -1.1,0.9 l -0.2,0.1 H 55 l -0.2,0.1 h 2.8 z"
       transform="translate(-0.6,-0.6)"
       style="fill:#000000"
       inkscape:connector-curvature="0" />
  </g>
  <polyline
     style="fill:none;stroke:#f2f2f2;stroke-width:0.28349999px"
     points="47.6 78.8 40 66.3 40 58.4"
     id="polyline306" />
  <polyline
     style="fill:none;stroke:#f2f2f2;stroke-width:0.28349999px"
     points="19.6 103.5 12.2 90.7 12.2 82.6"
     id="polyline308" />
  <polyline
     style="fill:none;stroke:#f2f2f2;stroke-width:0.28349999px"
     points="19.6 193.5 12.2 180.8 12.2 172.7"
     id="polyline310" />
  <polyline
     style="fill:none;stroke:#f2f2f2;stroke-width:0.28349999px"
     points="19.6 238.7 12.2 226.1 12.2 218.2"
     id="polyline312" />
  <polyline
     style="fill:none;stroke:#f2f2f2;stroke-width:0.28349999px"
     points="47.6 257 40.1 243.4 40.1 234.9"
     id="polyline314" />
  <rect
     id="rect316"
     x="21.5"
     y="77.30101"
     width="8.3000002"
     height="10.5"
     style="fill:#f2f2f2" />
  <path
     id="path318"
     d="m 27.7,85.701 h -3.9 v -0.7 c 0.7,-0.5 1.4,-1.1 2.1,-1.7 a 2.13824,2.13824 0 0 0 0.9,-1.8 0.95474,0.95474 0 0 0 -0.9,-1.1 h -0.2 a 0.90329,0.90329 0 0 0 -1.1,0.9 v 0.3 a 1.70176,1.70176 0 0 0 0.1,0.7 h -0.8 a 1.70176,1.70176 0 0 1 -0.1,-0.7 1.774,1.774 0 0 1 1.7,-1.8 h 0.2 a 1.88259,1.88259 0 0 1 2,1.7 v 0 0.2 a 3.33337,3.33337 0 0 1 -1.1,2.2 10.62733,10.62733 0 0 1 -1.1,0.9 l -0.2,0.1 -0.2,0.1 -0.2,0.1 h 2.8 z"
     style="fill:#000000"
     inkscape:connector-curvature="0" />
  <rect
     id="rect322"
     x="45.200001"
     y="98.201012"
     width="13.7"
     height="10.5"
     style="fill:#f2f2f2" />
  <g
     id="g330"
     style="fill:#000000">
    <path
       id="path324"
       d="m 50,107.301 h -3.9 v -0.7 c 0.7,-0.5 1.4,-1.1 2.1,-1.7 a 2.13825,2.13825 0 0 0 0.9,-1.8 0.95474,0.95474 0 0 0 -0.9,-1.1 H 48 a 0.90329,0.90329 0 0 0 -1.1,0.9 v 0.3 a 1.70179,1.70179 0 0 0 0.1,0.7 h -0.8 a 1.70179,1.70179 0 0 1 -0.1,-0.7 1.774,1.774 0 0 1 1.7,-1.8 H 48 a 1.88258,1.88258 0 0 1 2,1.7 v 0 0.2 a 3.33337,3.33337 0 0 1 -1.1,2.2 10.6275,10.6275 0 0 1 -1.1,0.9 l -0.2,0.1 -0.2,0.1 -0.2,0.1 H 50 Z"
       transform="translate(-0.6,-0.6)"
       style="fill:#000000"
       inkscape:connector-curvature="0" />
    <path
       id="path326"
       d="m 52.1,104.001 v -1.2 h 0.3 v 1.2 h 1.3 v 0.3 h -1.3 v 1.2 h -0.3 v -1.2 h -1.3 v -0.3 z"
       transform="translate(-0.6,-0.6)"
       style="fill:#000000"
       inkscape:connector-curvature="0" />
    <path
       id="path328"
       d="m 53.8,105.901 v -0.7 l 2.9,-3.9 h 0.6 v 3.9 h 0.9 v 0.7 h -0.9 v 1.4 h -0.8 v -1.4 z m 2.7,-3.3 -1.9,2.6 h 1.9 z"
       transform="translate(-0.6,-0.6)"
       style="fill:#000000"
       inkscape:connector-curvature="0" />
  </g>
  <polyline
     style="fill:none;stroke:#f2f2f2;stroke-width:0.28349999px"
     points="47.4 123.9 40 111.4 40 103.5"
     id="polyline334" />
  <rect
     id="rect336"
     x="21.4"
     y="122.40101"
     width="8.3000002"
     height="10.5"
     style="fill:#f2f2f2" />
  <path
     id="path338"
     d="m 25,127.401 h 0.5 c 0.8,0 1.3,-0.4 1.3,-1 a 1.00209,1.00209 0 0 0 -1,-1 h -0.1 c -0.8,0 -1.2,0.4 -1.2,1.4 h -0.8 c 0.1,-1.4 0.7,-2.1 2,-2.1 a 1.78682,1.78682 0 0 1 2,1.5 v 0.2 a 1.45732,1.45732 0 0 1 -0.7,1.3 1.5509,1.5509 0 0 1 0.9,1.5 c 0,1.1 -0.8,1.8 -2.1,1.8 -1.4,0 -2.3,-0.8 -2.3,-1.9 v -0.1 h 0.8 a 1.26526,1.26526 0 0 0 1.4,1.4 c 0.8,0 1.3,-0.4 1.3,-1.1 0,-0.7 -0.4,-1 -1.2,-1 h -0.7 z"
     style="fill:#000000"
     inkscape:connector-curvature="0" />
  <rect
     id="rect342"
     x="21.4"
     y="167.50101"
     width="8.3000002"
     height="10.5"
     style="fill:#f2f2f2" />
  <path
     id="path344"
     d="m 23.4,174.401 v -0.7 l 2.9,-3.9 h 0.6 v 3.9 h 0.9 v 0.7 h -0.9 v 1.4 h -0.8 v -1.4 z m 2.7,-3.2 -1.9,2.6 h 1.9 z"
     style="fill:#000000"
     inkscape:connector-curvature="0" />
  <rect
     id="rect348"
     x="21.5"
     y="212.90102"
     width="8.3000002"
     height="10.5"
     style="fill:#f2f2f2" />
  <path
     id="path350"
     d="m 27.5,215.401 v 0.7 h -2.8 l -0.1,1.6 a 2.3893,2.3893 0 0 1 1.4,-0.5 1.92262,1.92262 0 0 1 1.9,2 v 0 0.1 a 1.94746,1.94746 0 0 1 -1.9,2.1 h -0.2 a 1.94746,1.94746 0 0 1 -2.1,-1.9 l 0.8,-0.1 c 0.2,0.9 0.6,1.3 1.3,1.3 a 1.32372,1.32372 0 0 0 1.3,-1.3 v -0.2 a 1.24431,1.24431 0 0 0 -1.1,-1.4 h -0.2 a 1.29941,1.29941 0 0 0 -1.2,0.8 h -0.8 l 0.3,-3.3 z"
     style="fill:#000000"
     inkscape:connector-curvature="0" />
  <rect
     id="rect354"
     x="45.200001"
     y="229.601"
     width="13.7"
     height="10.5"
     style="fill:#f2f2f2" />
  <g
     id="g362"
     style="fill:#000000">
    <path
       id="path356"
       d="m 46.9,237.201 v -0.7 l 2.9,-3.9 h 0.6 v 3.9 h 0.9 v 0.7 h -0.9 v 1.4 h -0.8 v -1.4 z m 2.7,-3.2 -1.9,2.6 h 1.9 z"
       transform="translate(-0.6,-0.6)"
       style="fill:#000000"
       inkscape:connector-curvature="0" />
    <path
       id="path358"
       d="m 52.8,235.401 v -1.2 h 0.3 v 1.2 h 1.3 v 0.3 h -1.3 v 1.2 h -0.3 v -1.2 h -1.3 v -0.3 z"
       transform="translate(-0.6,-0.6)"
       style="fill:#000000"
       inkscape:connector-curvature="0" />
    <path
       id="path360"
       d="m 58.4,232.701 v 0.8 a 1.85389,1.85389 0 0 1 -0.2,0.7 l -0.5,0.8 a 19.98483,19.98483 0 0 0 -1,2.1 4.711,4.711 0 0 0 -0.4,1.7 h -1 c 0.1,-0.4 0.2,-0.8 0.3,-1.1 a 12.63868,12.63868 0 0 1 1.3,-2.6 l 0.6,-0.9 c 0.2,-0.3 0.2,-0.4 0.2,-0.5 v -0.1 h -2.3 v 1.2 h -0.7 v -1.9 h 3.7 z"
       transform="translate(-0.6,-0.6)"
       style="fill:#000000"
       inkscape:connector-curvature="0" />
  </g>
  <polyline
     style="fill:none;stroke:#f2f2f2;stroke-width:0.28349999px"
     points="47.6 304.2 40.1 291.6 40.1 283.7"
     id="polyline366" />
  <polyline
     style="fill:none;stroke:#f2f2f2;stroke-width:0.28349999px"
     points="19.6 283.7 12.2 270.9 12.2 262.9"
     id="polyline368" />
  <rect
     id="rect370"
     x="21.4"
     y="257.70099"
     width="8.3000002"
     height="10.5"
     style="fill:#f2f2f2" />
  <path
     id="path372"
     d="m 26.8,261.601 c -0.2,-0.7 -0.5,-1 -1,-1 -0.9,0 -1.2,0.6 -1.4,2.1 a 1.68255,1.68255 0 0 1 1.5,-0.7 1.88007,1.88007 0 0 1 1.9,1.8 v 0.2 a 1.94746,1.94746 0 0 1 -1.9,2.1 h -0.1 c -1.4,0 -2.2,-1.1 -2.2,-3.1 0,-2 0.8,-3.1 2.2,-3.1 a 1.91819,1.91819 0 0 1 1.9,1.6 z m -2.3,2.5 a 1.40213,1.40213 0 0 0 1.2,1.4 v 0 a 1.24,1.24 0 0 0 1.2,-1.3 v -0.1 a 1.10873,1.10873 0 0 0 -1.1,-1.3 h -0.1 a 1.24081,1.24081 0 0 0 -1.2,1.3 z"
     style="fill:#000000"
     inkscape:connector-curvature="0" />
  <rect
     id="rect376"
     x="45.299999"
     y="275.00101"
     width="14.1"
     height="15.79999"
     style="fill:#f2f2f2" />
  <g
     id="g390"
     style="fill:#000000">
    <path
       id="path378"
       d="m 50.4,282.801 h -0.8 v -4.3 H 48 v -0.7 h 0.5 c 0.8,0 1.2,-0.3 1.3,-1 h 0.6 z"
       transform="translate(-0.6,-0.6)"
       style="fill:#000000"
       inkscape:connector-curvature="0" />
    <path
       id="path380"
       d="m 52.6,279.701 v -1.4 H 53 v 1.4 h 1.5 v 0.3 H 53 v 1.4 h -0.3 v -1.4 h -1.5 v -0.3 z"
       transform="translate(-0.6,-0.6)"
       style="fill:#000000"
       inkscape:connector-curvature="0" />
    <path
       id="path382"
       d="m 58.6,282.801 h -3.9 v -0.7 c 0.7,-0.5 1.4,-1.1 2.1,-1.7 a 2.13824,2.13824 0 0 0 0.9,-1.8 0.95474,0.95474 0 0 0 -0.9,-1.1 h -0.2 a 0.90328,0.90328 0 0 0 -1.1,0.9 v 0.3 a 1.70186,1.70186 0 0 0 0.1,0.7 h -0.8 a 1.70186,1.70186 0 0 1 -0.1,-0.7 1.774,1.774 0 0 1 1.7,-1.8 h 0.2 a 1.88259,1.88259 0 0 1 2,1.7 v 0.2 a 3.33343,3.33343 0 0 1 -1.1,2.2 10.62748,10.62748 0 0 1 -1.1,0.9 l -0.2,0.1 H 56 l -0.2,0.1 h 2.8 z"
       transform="translate(-0.6,-0.6)"
       style="fill:#000000"
       inkscape:connector-curvature="0" />
    <path
       id="path384"
       d="m 46.6,288.201 v -0.7 l 2.9,-3.9 h 0.6 v 3.9 H 51 v 0.7 h -0.9 v 1.4 h -0.8 v -1.4 z m 2.7,-3.3 -1.9,2.6 h 1.9 z"
       transform="translate(-0.6,-0.6)"
       style="fill:#000000"
       inkscape:connector-curvature="0" />
    <path
       id="path386"
       d="m 52.4,286.401 v -1.4 h 0.3 v 1.4 h 1.5 v 0.3 h -1.5 v 1.4 h -0.3 v -1.4 h -1.5 v -0.3 z"
       transform="translate(-0.6,-0.6)"
       style="fill:#000000"
       inkscape:connector-curvature="0" />
    <path
       id="path388"
       d="m 58,283.701 v 0.8 a 1.854,1.854 0 0 1 -0.2,0.7 l -0.5,0.8 a 19.98628,19.98628 0 0 0 -1,2.1 4.711,4.711 0 0 0 -0.4,1.7 h -1 c 0.1,-0.4 0.2,-0.8 0.3,-1.1 a 12.63906,12.63906 0 0 1 1.3,-2.6 l 0.6,-0.9 c 0.2,-0.3 0.2,-0.4 0.2,-0.5 v -0.1 H 55 v 1.2 h -0.7 v -1.9 z"
       transform="translate(-0.6,-0.6)"
       style="fill:#000000"
       inkscape:connector-curvature="0" />
  </g>
  <polyline
     style="fill:none;stroke:#f2f2f2;stroke-width:0.28349999px"
     points="19.6 328.8 12.2 316.3 12.2 308.4"
     id="polyline394" />
  <rect
     id="rect396"
     x="21.4"
     y="302.70099"
     width="8.3000002"
     height="10.5"
     style="fill:#f2f2f2" />
  <path
     id="path398"
     d="m 27.6,305.201 v 0.8 a 1.854,1.854 0 0 1 -0.2,0.7 l -0.5,0.8 a 19.98666,19.98666 0 0 0 -1,2.1 4.711,4.711 0 0 0 -0.4,1.7 h -1 c 0.1,-0.4 0.2,-0.8 0.3,-1.1 a 12.63906,12.63906 0 0 1 1.3,-2.6 l 0.6,-0.9 c 0.2,-0.3 0.2,-0.4 0.2,-0.5 v -0.1 h -2.3 v 1.2 h -0.7 v -1.9 h 3.7 z"
     style="fill:#000000"
     inkscape:connector-curvature="0" />
  <polyline
     style="fill:none;stroke:#f2f2f2;stroke-width:0.28349999px"
     points="19.4 148.5 12.2 135.7 12.2 127.7"
     id="polyline402" />
  <path
     inkscape:connector-curvature="0"
     style="fill:none;stroke:#f2f2f2;stroke-width:0.28349999px"
     d="m 231.9,199.3 c 0,0 16.3,51.8 22.4,54.6 6.1,2.8 -19.6,40.2 -19.6,69.3"
     id="path404" />
  <path
     inkscape:connector-curvature="0"
     style="fill:none;stroke:#f2f2f2;stroke-width:0.28349999px"
     d="m 253.4,251.4 c 0,0 -0.2,38.9 -16.9,76.4"
     id="path406" />
  <path
     inkscape:connector-curvature="0"
     style="fill:none;stroke:#f2f2f2;stroke-width:0.28349999px"
     d="m 253.3,51 c 0,0 -11.8,18.7 -21.7,50.6 -9.9,31.9 22.7,50 22.7,50 0,0 9.4,30.6 -22.1,49 -31.5,18.4 41.9,55.1 20.7,52 -21.2,-3.1 -14.6,73.9 -15,74.4"
     id="path408" />
  <path
     inkscape:connector-curvature="0"
     style="fill:none;stroke:#f2f2f2;stroke-width:0.28349999px"
     d="m 255.7,149.7 c 0,0 -19.3,43.5 -21.6,53.7 -2.3,10.2 3.5,42.4 19.1,51.6 15.6,9.2 -16.8,70.7 -16.8,70.7 0,0 36.1,-39.4 18.3,-74.5 -17.7,-35 -41.7,-32.8 -24,-47.4 a 18.3936,18.3936 0 0 1 2.2,-1.7 c 17.2,-13.3 19.4,-51 19,-51.6 -22.1,-29.8 -36.3,-26 -20.7,-48.7"
     id="path410" />
  <rect
     style="fill:url(#linearGradient10220);fill-opacity:1"
     height="38.89999"
     width="27.39999"
     y="313"
     x="143.2"
     id="rect6" />
  <rect
     style="fill:url(#linearGradient10228);fill-opacity:1"
     height="38.89999"
     width="27.39999"
     y="313"
     x="180.29999"
     id="rect184" />
  <rect
     style="fill:url(#linearGradient10242);fill-opacity:1"
     height="38.89999"
     width="27.39999"
     y="312.79999"
     x="222.00002"
     id="rect412" />
  <g
     id="g432"
     style="fill:#f2f2f2">
    <path
       inkscape:connector-curvature="0"
       style="fill:#f2f2f2"
       transform="translate(-0.6,-0.6)"
       d="m 145.7,303.801 v 2.7 H 145 v -6.3 h 2.1 a 2.09042,2.09042 0 0 1 1.7,0.4 2.03516,2.03516 0 0 1 0.6,1.5 1.5026,1.5026 0 0 1 -1.4,1.7 l 1.6,2.7 h -0.9 l -1.6,-2.7 z m 0,-0.7 h 1.5 a 1.70167,1.70167 0 0 0 0.7,-0.1 0.82405,0.82405 0 0 0 0.7,-1 1.613,1.613 0 0 0 -0.3,-0.9 2.01573,2.01573 0 0 0 -1.1,-0.3 h -1.5 z"
       id="path422" />
    <path
       inkscape:connector-curvature="0"
       style="fill:#f2f2f2"
       transform="translate(-0.6,-0.6)"
       d="m 151.5,303.601 v 2.1 h 3.3 v 0.7 h -4.1 v -6.3 h 4 v 0.7 h -3.2 v 1.9 h 2.8 v 0.7 z"
       id="path424" />
    <path
       inkscape:connector-curvature="0"
       style="fill:#f2f2f2"
       transform="translate(-0.6,-0.6)"
       d="m 157.9,303.601 c -0.8,-0.2 -2.1,-0.5 -2.1,-1.8 a 1.65609,1.65609 0 0 1 0.5,-1.2 1.74056,1.74056 0 0 1 1.5,-0.5 1.96377,1.96377 0 0 1 1.5,0.5 2.12679,2.12679 0 0 1 0.7,1.5 l -0.8,0.1 a 1.23078,1.23078 0 0 0 -0.5,-1 1.92933,1.92933 0 0 0 -1,-0.3 c -0.7,0 -1.3,0.3 -1.3,1 0,0.7 0.6,0.9 1.1,1 l 0.6,0.2 0.9,0.3 a 1.78134,1.78134 0 0 1 1,1.6 1.95454,1.95454 0 0 1 -0.7,1.5 2.27633,2.27633 0 0 1 -1.6,0.4 2.22973,2.22973 0 0 1 -2.4,-2 v -0.2 l 0.8,-0.1 a 1.84508,1.84508 0 0 0 0.5,1.2 1.594,1.594 0 0 0 1.2,0.4 1.2443,1.2443 0 0 0 1.4,-1.1 v -0.2 c 0,-0.7 -0.5,-0.9 -1.1,-1.1 z"
       id="path426" />
    <path
       inkscape:connector-curvature="0"
       style="fill:#f2f2f2"
       transform="translate(-0.6,-0.6)"
       d="m 162.2,303.601 v 2.1 h 3.3 v 0.7 h -4.1 v -6.3 h 4 v 0.7 h -3.2 v 1.9 h 2.8 v 0.7 z"
       id="path428" />
    <path
       inkscape:connector-curvature="0"
       style="fill:#f2f2f2"
       transform="translate(-0.6,-0.6)"
       d="m 168.4,300.901 v 5.6 h -0.8 v -5.6 h -1.7 v -0.7 h 4.2 v 0.7 z"
       id="path430" />
  </g>
  <g
     id="g8264"
     style="fill:#ffffff">
    <path
       inkscape:connector-curvature="0"
       id="path8238"
       transform="translate(-0.6,-0.6)"
       d="m 100.5,20.5 v 4.7 h -0.9 v -4.7 h -1.9 v -0.6 h 4.7 v 0.6 z"
       style="fill:#ffffff" />
    <path
       inkscape:connector-curvature="0"
       id="path8240"
       transform="translate(-0.6,-0.6)"
       d="m 108,19.9 v 3.4 a 1.70181,1.70181 0 0 1 -0.1,0.7 2.32607,2.32607 0 0 1 -2.4,1.4 2.87851,2.87851 0 0 1 -2,-0.7 1.904,1.904 0 0 1 -0.4,-1.4 V 20 h 0.9 v 3.2 a 1.55819,1.55819 0 0 0 0.3,1.2 1.57423,1.57423 0 0 0 1.2,0.4 1.46357,1.46357 0 0 0 1.5,-0.9 1.94948,1.94948 0 0 0 0.1,-0.8 v -3.2 z"
       style="fill:#ffffff" />
    <path
       inkscape:connector-curvature="0"
       id="path8242"
       transform="translate(-0.6,-0.6)"
       d="m 110.6,22.9 v 2.3 h -0.8 v -5.3 h 2.4 a 3.44454,3.44454 0 0 1 1.9,0.3 1.30577,1.30577 0 0 1 0.7,1.2 c 0,1.2 -1.2,1.4 -1.5,1.5 l 1.8,2.3 h -1 l -1.7,-2.3 z m 0,-0.6 h 1.7 a 2.20186,2.20186 0 0 0 0.8,-0.1 0.86131,0.86131 0 0 0 0.8,-0.9 0.74017,0.74017 0 0 0 -0.4,-0.7 2.16545,2.16545 0 0 0 -1.2,-0.2 h -1.6 v 1.9 z"
       style="fill:#ffffff" />
    <path
       inkscape:connector-curvature="0"
       id="path8244"
       transform="translate(-0.6,-0.6)"
       d="m 116.9,19.9 v 5.3 H 116 v -5.3 z"
       style="fill:#ffffff" />
    <path
       inkscape:connector-curvature="0"
       id="path8246"
       transform="translate(-0.6,-0.6)"
       d="m 123.6,19.9 v 5.3 h -0.8 l -3.5,-4.3 0.1,4.3 h -0.8 v -5.3 h 0.8 l 3.4,4.3 v -4.3 z"
       style="fill:#ffffff" />
    <path
       inkscape:connector-curvature="0"
       id="path8248"
       transform="translate(-0.6,-0.6)"
       d="m 131.1,22.4 v 2.8 h -0.7 v -0.7 a 3.16792,3.16792 0 0 1 -2.3,0.9 c -2,0 -3.2,-1.2 -3.2,-2.7 0,-1.4 1,-2.9 3.3,-2.9 a 3.40806,3.40806 0 0 1 2.2,0.7 2.43122,2.43122 0 0 1 0.7,0.9 l -0.9,0.2 a 2.09186,2.09186 0 0 0 -0.4,-0.6 2.72674,2.72674 0 0 0 -1.6,-0.5 2.14826,2.14826 0 0 0 -2.4,2.2 2.11624,2.11624 0 0 0 2.3,2.2 c 0.8,0 2.2,-0.3 2.2,-1.7 h -2.2 v -0.6 h 3 z"
       style="fill:#ffffff" />
    <path
       inkscape:connector-curvature="0"
       id="path8250"
       transform="translate(-0.6,-0.6)"
       d="m 140.9,19.9 v 5.3 h -0.8 l 0.1,-4.5 -2,4.5 h -0.7 l -2,-4.4 0.1,4.4 h -0.8 v -5.3 h 1.1 l 2,4.4 2,-4.4 z"
       style="fill:#ffffff" />
    <path
       inkscape:connector-curvature="0"
       id="path8252"
       transform="translate(-0.6,-0.6)"
       d="m 145.6,23.6 h -2.4 l -0.7,1.6 h -0.9 l 2.4,-5.3 h 0.9 l 2.3,5.3 h -0.9 z m -0.2,-0.6 -0.9,-2.2 -1,2.2 z"
       style="fill:#ffffff" />
    <path
       inkscape:connector-curvature="0"
       id="path8254"
       transform="translate(-0.6,-0.6)"
       d="m 153.8,23.3 a 3.07128,3.07128 0 0 1 -3.1,2.1 2.76519,2.76519 0 0 1 -3.1,-2.8 c 0,-1.5 1,-2.8 3.2,-2.8 a 2.87624,2.87624 0 0 1 2.9,1.6 l -0.9,0.2 c -0.1,-0.2 -0.1,-0.4 -0.4,-0.6 a 2.4417,2.4417 0 0 0 -1.7,-0.6 2.06,2.06 0 0 0 -1.7,0.7 2.10379,2.10379 0 0 0 -0.5,1.5 2.07706,2.07706 0 0 0 2.3,2.2 1.94074,1.94074 0 0 0 2.1,-1.6 z"
       style="fill:#ffffff" />
    <path
       inkscape:connector-curvature="0"
       id="path8256"
       transform="translate(-0.6,-0.6)"
       d="m 159.1,22.7 h -3.5 v 2.4 h -0.8 v -5.3 h 0.8 v 2.3 h 3.5 v -2.3 h 0.9 v 5.3 h -0.9 z"
       style="fill:#ffffff" />
    <path
       inkscape:connector-curvature="0"
       id="path8258"
       transform="translate(-0.6,-0.6)"
       d="m 162.5,19.9 v 5.3 h -0.9 v -5.3 z"
       style="fill:#ffffff" />
    <path
       inkscape:connector-curvature="0"
       id="path8260"
       transform="translate(-0.6,-0.6)"
       d="m 169.1,19.9 v 5.3 h -0.8 l -3.5,-4.3 0.1,4.3 h -0.8 v -5.3 h 0.8 l 3.4,4.3 v -4.3 z"
       style="fill:#ffffff" />
    <path
       inkscape:connector-curvature="0"
       id="path8262"
       transform="translate(-0.6,-0.6)"
       d="m 171.7,22.8 v 1.8 h 3.7 v 0.6 h -4.5 v -5.3 h 4.4 v 0.6 h -3.6 v 1.6 h 3.1 v 0.6 h -3.1 z"
       style="fill:#ffffff" />
  </g>
  <circle
     id="circle8266"
     r="5.3000002"
     cy="365.39999"
     cx="121.8"
     style="fill:#f2f2f2" />
  <path
     inkscape:connector-curvature="0"
     id="path8268"
     style="fill:#000000"
     d="m 121.8,365.8 a 2.285,2.285 0 0 1 -1.2,-0.8 1.594,1.594 0 0 1 -0.4,-1.2 1.901,1.901 0 0 1 0.5,-1.3 1.65608,1.65608 0 0 1 1.2,-0.5 1.61306,1.61306 0 0 1 0.9,0.3 1.34437,1.34437 0 0 1 0.6,0.7 2.95851,2.95851 0 0 1 0.2,1 h -0.7 a 1.2223,1.2223 0 0 0 -0.3,-0.9 1.10088,1.10088 0 0 0 -1.9,0.8 0.90788,0.90788 0 0 0 0.3,0.7 1.93354,1.93354 0 0 0 0.9,0.5 9.292,9.292 0 0 1 1,0.5 1.79372,1.79372 0 0 1 0.5,0.7 2.38832,2.38832 0 0 1 0.2,0.9 1.901,1.901 0 0 1 -0.5,1.3 1.72756,1.72756 0 0 1 -1.3,0.5 1.92961,1.92961 0 0 1 -1,-0.3 2.33629,2.33629 0 0 1 -0.7,-0.7 1.64461,1.64461 0 0 1 -0.2,-1 h 0.7 a 1.06065,1.06065 0 0 0 1.2,1.2 1.13558,1.13558 0 0 0 0.8,-0.3 1.21662,1.21662 0 0 0 0,-1.6 c 0,-0.2 -0.4,-0.4 -0.8,-0.5 z" />
  <g
     style="fill:#f2f2f2"
     id="g8286">
    <path
       style="fill:#f2f2f2"
       d="m 131.8,363.4 h -1.6 v 5.9 h -0.7 v -5.9 h -1.6 v -0.7 h 3.8 v 0.7 z"
       transform="translate(-0.6,-0.6)"
       id="path8272"
       inkscape:connector-curvature="0" />
    <path
       style="fill:#f2f2f2"
       d="m 135.3,366.2 h -2.1 v 2.3 h 2.5 v 0.7 h -3.2 v -6.6 h 3.1 v 0.7 h -2.5 v 2.1 h 2.1 v 0.8 z"
       transform="translate(-0.6,-0.6)"
       id="path8274"
       inkscape:connector-curvature="0" />
    <path
       style="fill:#f2f2f2"
       d="m 137.1,368.6 h 2.4 v 0.7 h -3 v -6.6 h 0.7 v 5.9 z"
       transform="translate(-0.6,-0.6)"
       id="path8276"
       inkscape:connector-curvature="0" />
    <path
       style="fill:#f2f2f2"
       d="m 140.9,368.6 h 2.4 v 0.7 h -3 v -6.6 h 0.7 v 5.9 z"
       transform="translate(-0.6,-0.6)"
       id="path8278"
       inkscape:connector-curvature="0" />
    <path
       style="fill:#f2f2f2"
       d="m 146.8,367.6 h -2.1 l -0.5,1.7 h -0.7 l 1.9,-6.6 h 0.6 l 1.9,6.6 h -0.7 z m -1.9,-0.7 h 1.7 l -0.8,-3.1 z"
       transform="translate(-0.6,-0.6)"
       id="path8280"
       inkscape:connector-curvature="0" />
    <path
       style="fill:#f2f2f2"
       d="m 150.4,366.6 h -1.2 v 2.7 h -0.7 v -6.6 h 1.6 a 1.72756,1.72756 0 0 1 1.3,0.5 2.06994,2.06994 0 0 1 0.5,1.5 2.016,2.016 0 0 1 -0.3,1.1 2.33664,2.33664 0 0 1 -0.7,0.7 l 1.2,2.8 v 0.1 h -0.7 z m -1.1,-0.7 h 1 a 1.13557,1.13557 0 0 0 0.8,-0.3 1.5,1.5 0 0 0 0,-1.8 0.98425,0.98425 0 0 0 -0.8,-0.3 h -1 z"
       transform="translate(-0.6,-0.6)"
       id="path8282"
       inkscape:connector-curvature="0" />
    <path
       style="fill:#f2f2f2"
       d="m 155.7,366.2 h -2.1 v 2.3 h 2.5 v 0.7 h -3.2 v -6.6 h 3.1 v 0.7 h -2.5 v 2.1 h 2.1 v 0.8 z"
       transform="translate(-0.6,-0.6)"
       id="path8284"
       inkscape:connector-curvature="0" />
  </g>
  <g
     id="g8298"
     style="fill:#f2f2f2">
    <path
       inkscape:connector-curvature="0"
       id="path8290"
       transform="translate(-0.6,-0.6)"
       d="m 187.1,239.4 v 6.4 h -0.7 l 0.1,-5.3 -1.7,5.3 h -0.6 l -1.7,-5.3 0.1,5.3 h -0.7 v -6.4 h 0.9 l 1.7,5.2 1.7,-5.2 z"
       style="fill:#f2f2f2" />
    <path
       inkscape:connector-curvature="0"
       id="path8292"
       transform="translate(-0.6,-0.6)"
       d="m 191,245.9 c -1.7,0 -2.8,-1.4 -2.8,-3.4 0,-2.4 1.4,-3.4 2.8,-3.4 1.5,0 2.8,1.2 2.8,3.3 0,2 -1,3.5 -2.8,3.5 z m 0,-6 c -1.4,0 -2,1.2 -2,2.7 0,1.3 0.6,2.7 2,2.7 1.5,0 2,-1.4 2,-2.7 0,-1.6 -0.7,-2.7 -2,-2.7 z"
       style="fill:#f2f2f2" />
    <path
       inkscape:connector-curvature="0"
       id="path8294"
       transform="translate(-0.6,-0.6)"
       d="m 197.9,239.4 h 0.8 l -1.9,6.4 H 196 l -1.9,-6.4 h 0.8 l 1.5,5.3 z"
       style="fill:#f2f2f2" />
    <path
       inkscape:connector-curvature="0"
       id="path8296"
       transform="translate(-0.6,-0.6)"
       d="m 200.1,242.9 v 2.2 h 3.2 v 0.7 h -3.9 v -6.4 h 3.8 v 0.7 h -3.1 v 2 h 2.7 v 0.8 z"
       style="fill:#f2f2f2" />
  </g>
  <g
     id="g8310"
     style="fill:#000000">
    <path
       inkscape:connector-curvature="0"
       id="path8300"
       style="fill:#000000"
       transform="translate(-0.6,-0.6)"
       d="m 149.773,343.62426 v 6.43185 h -0.69348 l -3.15489,-5.23017 0.0645,5.23017 h -0.71729 v -6.43185 h 0.71729 l 3.12315,5.1559 -0.0327,-5.1559 z" />
    <path
       inkscape:connector-curvature="0"
       id="path8302"
       style="fill:#000000"
       transform="translate(-0.6,-0.6)"
       d="m 153.87435,350.22017 c -1.753,0 -2.8781,-1.37572 -2.8781,-3.38 0,-2.38783 1.47625,-3.38 2.9029,-3.38 1.61415,0 2.895,1.22052 2.895,3.31569 -3e-5,1.93224 -1.01099,3.44431 -2.9198,3.44431 z m 0.0248,-6.06824 c -1.45145,0 -2.07152,1.24823 -2.07152,2.69712 0,1.348 0.59526,2.69712 2.07945,2.69712 1.54967,0 2.06358,-1.44 2.05465,-2.76141 -0.008,-1.55753 -0.73315,-2.63283 -2.06258,-2.63283 z" />
    <path
       inkscape:connector-curvature="0"
       id="path8304"
       style="fill:#000000"
       transform="translate(-0.6,-0.6)"
       d="m 158.695,343.62426 v 6.43185 h -0.77384 v -6.43185 z" />
    <path
       inkscape:connector-curvature="0"
       id="path8306"
       style="fill:#000000"
       transform="translate(-0.6,-0.6)"
       d="m 162.04731,347.08628 c -0.83238,-0.19178 -2.05465,-0.50107 -2.05465,-1.83134 a 1.6801,1.6801 0 0 1 0.52978,-1.24823 2.14214,2.14214 0 0 1 1.54074,-0.54652 2.37294,2.37294 0 0 1 1.54967,0.47335 2.25412,2.25412 0 0 1 0.74209,1.51207 l -0.77483,0.0554 a 1.38993,1.38993 0 0 0 -0.4653,-1.06643 1.59029,1.59029 0 0 0 -1.02683,-0.30929 c -0.69348,0 -1.30462,0.31816 -1.30462,1.011 0,0.71058 0.63594,0.87465 1.133,1.00214 l 0.63594,0.1818 a 5.32772,5.32772 0 0 1 0.9048,0.28268 1.6858,1.6858 0 0 1 0.99508,1.60408 1.88876,1.88876 0 0 1 -0.73317,1.55752 2.581,2.581 0 0 1 -1.56554,0.45562 2.224,2.224 0 0 1 -2.43859,-2.21379 l 0.82345,-0.11862 a 1.76182,1.76182 0 0 0 0.4653,1.23937 1.645,1.645 0 0 0 1.1816,0.4279 1.27775,1.27775 0 0 0 1.43558,-1.28482 c 0,-0.74717 -0.52978,-0.94782 -1.09231,-1.0753 z" />
    <path
       inkscape:connector-curvature="0"
       id="path8308"
       style="fill:#000000"
       transform="translate(-0.6,-0.6)"
       d="m 166.40166,347.12286 v 2.18607 h 3.32653 v 0.74717 h -4.06862 v -6.43185 h 3.9714 v 0.756 h -3.2293 v 1.98543 h 2.80468 v 0.75714 z" />
  </g>
  <g
     id="g8318"
     style="fill:#000000">
    <path
       inkscape:connector-curvature="0"
       id="path8312"
       style="fill:#000000"
       transform="translate(-0.6,-0.6)"
       d="m 188.72027,350.22017 a 3.38023,3.38023 0 1 1 3.2597,-3.44147 3.14421,3.14421 0 0 1 -3.2597,3.44147 z m 0.0278,-6.06367 c -1.62115,0 -2.31258,1.24717 -2.31258,2.69525 0,1.34719 0.66446,2.69525 2.32128,2.69525 1.72987,0 2.30388,-1.43851 2.29432,-2.75874 -0.009,-1.55679 -0.81929,-2.63176 -2.30302,-2.63176 z" />
    <path
       inkscape:connector-curvature="0"
       id="path8314"
       style="fill:#000000"
       transform="translate(-0.6,-0.6)"
       d="m 198.18627,343.61989 v 4.10594 a 3.85047,3.85047 0 0 1 -0.0817,0.83754 2.25938,2.25938 0 0 1 -2.4039,1.64811 2.40255,2.40255 0 0 1 -1.97513,-0.8558 2.44375,2.44375 0 0 1 -0.4192,-1.74813 v -3.98766 h 0.86537 v 3.86937 a 2.1512,2.1512 0 0 0 0.32788,1.502 1.48652,1.48652 0 0 0 1.20108,0.501 1.46914,1.46914 0 0 0 1.5394,-1.0654 4.16159,4.16159 0 0 0 0.0817,-0.95582 v -3.85111 z" />
    <path
       inkscape:connector-curvature="0"
       id="path8316"
       style="fill:#000000"
       transform="translate(-0.6,-0.6)"
       d="m 201.77212,344.3748 v 5.68186 h -0.86537 v -5.68186 h -1.9299 v -0.75491 h 4.71648 v 0.75491 z" />
  </g>
  <g
     id="g8326"
     style="fill:#000000">
    <path
       inkscape:connector-curvature="0"
       id="path8320"
       style="fill:#000000"
       transform="translate(-0.6,-0.6)"
       d="m 230.42028,350.22017 a 3.38023,3.38023 0 1 1 3.2597,-3.44147 3.14421,3.14421 0 0 1 -3.2597,3.44147 z m 0.0278,-6.06367 c -1.62115,0 -2.31258,1.24717 -2.31258,2.69525 0,1.34719 0.66446,2.69525 2.32128,2.69525 1.72987,0 2.30388,-1.43851 2.29432,-2.75874 -0.009,-1.55679 -0.81928,-2.63176 -2.30302,-2.63176 z" />
    <path
       inkscape:connector-curvature="0"
       id="path8322"
       style="fill:#000000"
       transform="translate(-0.6,-0.6)"
       d="m 239.88628,343.61989 v 4.10594 a 3.85047,3.85047 0 0 1 -0.0817,0.83754 2.25938,2.25938 0 0 1 -2.4039,1.64811 2.40255,2.40255 0 0 1 -1.97513,-0.8558 2.44375,2.44375 0 0 1 -0.4192,-1.74813 v -3.98766 h 0.86537 v 3.86937 a 2.1512,2.1512 0 0 0 0.32788,1.502 1.48652,1.48652 0 0 0 1.20108,0.501 1.46914,1.46914 0 0 0 1.5394,-1.0654 4.16159,4.16159 0 0 0 0.0817,-0.95582 v -3.85111 z" />
    <path
       inkscape:connector-curvature="0"
       id="path8324"
       style="fill:#000000"
       transform="translate(-0.6,-0.6)"
       d="m 243.47213,344.3748 v 5.68186 h -0.86537 v -5.68186 h -1.9299 v -0.75491 h 4.71648 v 0.75491 z" />
  </g>
  <g
     id="g8336"
     style="fill:#f2f2f2">
    <path
       inkscape:connector-curvature="0"
       id="path8328"
       transform="translate(-0.6,-0.6)"
       d="m 114.25767,300.56925 v 6.19975 h -0.81653 l 0.11369,-5.19806 -1.95767,5.19806 h -0.64136 l -1.92335,-5.11941 0.088,5.11941 h -0.808 v -6.19978 h 1.06249 l 1.90548,5.08438 1.91477,-5.08438 z"
       style="fill:#f2f2f2" />
    <path
       inkscape:connector-curvature="0"
       id="path8330"
       transform="translate(-0.6,-0.6)"
       d="m 118.582,306.927 a 3.2605,3.2605 0 1 1 3.14386,-3.319 3.033,3.033 0 0 1 -3.14386,3.319 z m 0.0265,-5.848 c -1.563,0 -2.2308,1.20263 -2.2308,2.599 0,1.29987 0.64136,2.599 2.23938,2.599 1.6681,0 2.22151,-1.3871 2.21293,-2.66052 -0.009,-1.50139 -0.79008,-2.53748 -2.22151,-2.53748 z"
       style="fill:#f2f2f2" />
    <path
       inkscape:connector-curvature="0"
       id="path8332"
       transform="translate(-0.6,-0.6)"
       d="m 126.31331,300.56925 h 0.878 l -2.18647,6.19978 h -0.82511 l -2.08995,-6.19978 h 0.878 l 1.64236,5.1809 z"
       style="fill:#f2f2f2" />
    <path
       inkscape:connector-curvature="0"
       id="path8334"
       transform="translate(-0.6,-0.6)"
       d="m 128.78364,303.9412 v 2.1078 h 3.58216 v 0.72 h -4.38153 v -6.19978 h 4.27642 v 0.7293 h -3.47705 v 1.91406 h 3.02017 v 0.72859 z"
       style="fill:#f2f2f2" />
  </g>
  <g
     id="g8348"
     style="fill:#f2f2f2">
    <path
       inkscape:connector-curvature="0"
       id="path8338"
       transform="translate(-0.6,-0.6)"
       d="m 74.80381,348.01144 a 3.00706,3.00706 0 0 1 -3.07592,2.29644 3.11011,3.11011 0 0 1 0.1148,-6.21916 2.70667,2.70667 0 0 1 2.83731,1.81054 l -0.83961,0.16788 a 1.67264,1.67264 0 0 0 -0.3714,-0.662 2.10863,2.10863 0 0 0 -1.63531,-0.68791 2.20125,2.20125 0 0 0 -1.71485,0.7466 2.57,2.57 0 0 0 -0.52147,1.69248 2.20322,2.20322 0 0 0 2.22768,2.49777 1.96987,1.96987 0 0 0 2.06825,-1.743 z"
       style="fill:#f2f2f2" />
    <path
       inkscape:connector-curvature="0"
       id="path8340"
       transform="translate(-0.6,-0.6)"
       d="m 76.496,349.45277 h 3.023 v 0.70429 h -3.854 v -5.92571 h 0.831 z"
       style="fill:#f2f2f2" />
    <path
       inkscape:connector-curvature="0"
       id="path8342"
       transform="translate(-0.6,-0.6)"
       d="m 82.69462,350.30788 a 3.1099,3.1099 0 1 1 3.16482,-3.16793 2.93909,2.93909 0 0 1 -3.16482,3.16793 z m 0.02663,-5.58176 a 2.19687,2.19687 0 0 0 -2.24531,2.4807 2.25543,2.25543 0 1 0 4.48163,-0.0587 2.16844,2.16844 0 0 0 -2.23632,-2.42201 z"
       style="fill:#f2f2f2" />
    <path
       inkscape:connector-curvature="0"
       id="path8344"
       transform="translate(-0.6,-0.6)"
       d="m 93.04991,348.01144 a 3.00706,3.00706 0 0 1 -3.07592,2.29644 3.11011,3.11011 0 0 1 0.1148,-6.21916 2.70667,2.70667 0 0 1 2.83732,1.81054 l -0.83961,0.16788 a 1.67264,1.67264 0 0 0 -0.3714,-0.662 2.10863,2.10863 0 0 0 -1.63531,-0.68791 2.20125,2.20125 0 0 0 -1.71485,0.7466 2.57,2.57 0 0 0 -0.52147,1.69248 2.20322,2.20322 0 0 0 2.22768,2.49777 1.96987,1.96987 0 0 0 2.06825,-1.743 z"
       style="fill:#f2f2f2" />
    <path
       inkscape:connector-curvature="0"
       id="path8346"
       transform="translate(-0.6,-0.6)"
       d="m 95.61732,347.24846 -0.88387,0.84692 v 2.06168 h -0.831 v -5.91752 h 0.831 v 2.89154 l 2.96112,-2.89154 h 1.02531 l -2.52818,2.44795 2.63435,3.46957 h -1.00768 z"
       style="fill:#f2f2f2" />
  </g>
  <polyline
     points="22.4 295.8 22.4 266.2 52 266.2 52 295.8"
     style="fill:none"
     id="polyline8351" />
  <ellipse
     style="fill:#616161;fill-opacity:1;stroke:#2c5aa0;stroke-width:0;stroke-miterlimit:4;stroke-dasharray:none;stroke-opacity:0.98994978;paint-order:stroke fill markers"
     id="path1508"
     cx="193.40007"
     cy="285.33701"
     rx="11.743003"
     ry="11.743004" />
</svg>
