<?xml version="1.0" encoding="UTF-8" standalone="no"?>
<svg
   xmlns:dc="http://purl.org/dc/elements/1.1/"
   xmlns:cc="http://creativecommons.org/ns#"
   xmlns:rdf="http://www.w3.org/1999/02/22-rdf-syntax-ns#"
   xmlns:svg="http://www.w3.org/2000/svg"
   xmlns="http://www.w3.org/2000/svg"
   xmlns:sodipodi="http://sodipodi.sourceforge.net/DTD/sodipodi-0.dtd"
   xmlns:inkscape="http://www.inkscape.org/namespaces/inkscape"
   id="svg8"
   width="90"
   height="380"
   viewBox="0 0 90 380"
   version="1.1"
   sodipodi:docname="BlankPanel.svg"
   inkscape:version="0.92.3 (2405546, 2018-03-11)">
  <metadata
     id="metadata39">
    <rdf:RDF>
      <cc:Work
         rdf:about="">
        <dc:format>image/svg+xml</dc:format>
        <dc:type
           rdf:resource="http://purl.org/dc/dcmitype/StillImage" />
      </cc:Work>
    </rdf:RDF>
  </metadata>
  <defs
     id="defs37" />
  <sodipodi:namedview
     pagecolor="#ffffff"
     bordercolor="#666666"
     borderopacity="1"
     objecttolerance="10"
     gridtolerance="10"
     guidetolerance="10"
     inkscape:pageopacity="0"
     inkscape:pageshadow="2"
     inkscape:window-width="1920"
     inkscape:window-height="1017"
     id="namedview35"
     showgrid="false"
     inkscape:zoom="2.4842105"
     inkscape:cx="144.11497"
     inkscape:cy="205.57889"
     inkscape:window-x="1912"
     inkscape:window-y="-8"
     inkscape:window-maximized="1"
     inkscape:current-layer="svg8" />
  <title
     id="title2">BlankPanelBlue</title>
  <path
     inkscape:connector-curvature="0"
     style="fill:#000000"
     d="m 0,-2e-5 h 90 v 380 H 0 Z"
     id="rect817" />
  <path
     d="m 36.102,35.55672 a 3.12585,3.12585 0 0 0 1.68447,2.76572 l -8.25614,22.36 a 4.25969,4.25969 0 1 0 -0.17754,8.32829 l 0.0019,0.004 12.9686,26.95715 a 6.81549,6.81549 0 0 0 -2.51358,3.315 l -14.04316,-4.499 -0.0051,-0.0017 a 4.82172,4.82172 0 1 0 -0.285,0.91283 l 14.06017,4.49855 a 7.56182,7.56182 0 0 0 -0.14575,1.43889 6.92228,6.92228 0 0 0 12.96858,3.38783 l 11.82102,4.89969 0.0179,0.007 a 4.75055,4.75055 0 0 0 -0.05859,0.58131 4.8078,4.8078 0 0 0 3.09524,4.48624 l -8.1274,22.01192 a 4.83279,4.83279 0 1 0 0.91627,0.32251 l 8.1533,-22.08207 a 4.8111,4.8111 0 1 0 -3.76571,-6.26928 l -0.01245,-0.005 -11.62063,-4.82684 a 6.78,6.78 0 0 0 0.47348,-2.51358 6.93776,6.93776 0 0 0 -6.93965,-6.93965 6.826,6.826 0 0 0 -3.151,0.765 L 30.30188,68.74147 30.29599,68.72913 a 4.242,4.242 0 0 0 0.14864,-7.71851 L 38.70421,38.64117 A 3.13427,3.13427 0 1 0 36.102,35.55672 Z"
     transform="translate(0,-2e-5)"
     style="fill:#d4aa00"
     id="path6"
     inkscape:connector-curvature="0" />
  <rect
     x="6.3336601"
     y="5.49998"
     width="77.666351"
     height="366.92383"
     style="fill:none;stroke:#d4aa00;stroke-miterlimit:10"
     id="rect8" />
  <circle
     cx="30.799999"
     cy="355.29996"
     r="5.2999902"
     style="fill:#d4aa00"
     id="circle10" />
  <path
     d="m 30.8,355.69998 a 2.285,2.285 0 0 1 -1.2,-0.8 1.594,1.594 0 0 1 -0.4,-1.2 1.901,1.901 0 0 1 0.5,-1.3 1.65609,1.65609 0 0 1 1.2,-0.5 1.61285,1.61285 0 0 1 0.9,0.3 1.34454,1.34454 0 0 1 0.6,0.7 2.95843,2.95843 0 0 1 0.2,1 h -0.7 a 1.22229,1.22229 0 0 0 -0.3,-0.9 1.10088,1.10088 0 0 0 -1.9,0.8 0.90793,0.90793 0 0 0 0.3,0.7 1.93375,1.93375 0 0 0 0.9,0.5 9.29494,9.29494 0 0 1 1,0.5 1.79371,1.79371 0 0 1 0.5,0.7 2.38816,2.38816 0 0 1 0.2,0.9 1.901,1.901 0 0 1 -0.5,1.3 1.72763,1.72763 0 0 1 -1.3,0.5 1.92963,1.92963 0 0 1 -1,-0.3 2.33629,2.33629 0 0 1 -0.7,-0.7 1.64459,1.64459 0 0 1 -0.2,-1 h 0.7 a 1.06065,1.06065 0 0 0 1.2,1.2 1.1356,1.1356 0 0 0 0.8,-0.3 1.21662,1.21662 0 0 0 0,-1.6 c 0,-0.2 -0.4,-0.4 -0.8,-0.5 z"
     style="fill:#2b2200"
     id="path12"
     inkscape:connector-curvature="0" />
  <g
     id="g30"
     style="fill:#d4aa00">
    <path
       inkscape:connector-curvature="0"
       id="path16"
       style="fill:#d4aa00"
       transform="translate(0,-2e-5)"
       d="m 40.2,352.7 h -1.6 v 5.9 h -0.7 v -5.9 H 36.3 V 352 h 3.8 z" />
    <path
       inkscape:connector-curvature="0"
       id="path18"
       style="fill:#d4aa00"
       transform="translate(0,-2e-5)"
       d="m 43.7,355.5 h -2.1 v 2.3 h 2.5 v 0.7 h -3.2 v -6.6 H 44 v 0.7 h -2.5 v 2.1 h 2.1 z" />
    <path
       inkscape:connector-curvature="0"
       id="path20"
       style="fill:#d4aa00"
       transform="translate(0,-2e-5)"
       d="m 45.5,357.9 h 2.4 v 0.7 h -3 V 352 h 0.7 z" />
    <path
       inkscape:connector-curvature="0"
       id="path22"
       style="fill:#d4aa00"
       transform="translate(0,-2e-5)"
       d="m 49.3,357.9 h 2.4 v 0.7 h -3 V 352 h 0.7 z" />
    <path
       inkscape:connector-curvature="0"
       id="path24"
       style="fill:#d4aa00"
       transform="translate(0,-2e-5)"
       d="m 55.2,356.9 h -2.1 l -0.5,1.7 h -0.7 l 1.9,-6.6 h 0.6 l 1.9,6.6 h -0.7 z m -1.9,-0.7 H 55 l -0.8,-3.1 z" />
    <path
       inkscape:connector-curvature="0"
       id="path26"
       style="fill:#d4aa00"
       transform="translate(0,-2e-5)"
       d="m 58.8,355.9 h -1.2 v 2.7 H 56.9 V 352 h 1.6 a 1.72763,1.72763 0 0 1 1.3,0.5 2.06986,2.06986 0 0 1 0.5,1.5 2.016,2.016 0 0 1 -0.3,1.1 2.33691,2.33691 0 0 1 -0.7,0.7 l 1.2,2.8 v 0.1 h -0.7 z m -1.1,-0.7 h 1 a 1.1356,1.1356 0 0 0 0.8,-0.3 1.5,1.5 0 0 0 0,-1.8 0.98422,0.98422 0 0 0 -0.8,-0.3 h -1 z" />
    <path
       inkscape:connector-curvature="0"
       id="path28"
       style="fill:#d4aa00"
       transform="translate(0,-2e-5)"
       d="M 64.1,355.5 H 62 v 2.3 h 2.5 v 0.7 h -3.2 v -6.6 h 3.1 v 0.7 h -2.5 v 2.1 H 64 Z" />
  </g>
</svg>
