<?xml version="1.0" encoding="UTF-8" standalone="no"?>
<svg
   xmlns:dc="http://purl.org/dc/elements/1.1/"
   xmlns:cc="http://creativecommons.org/ns#"
   xmlns:rdf="http://www.w3.org/1999/02/22-rdf-syntax-ns#"
   xmlns:svg="http://www.w3.org/2000/svg"
   xmlns="http://www.w3.org/2000/svg"
   xmlns:sodipodi="http://sodipodi.sourceforge.net/DTD/sodipodi-0.dtd"
   xmlns:inkscape="http://www.inkscape.org/namespaces/inkscape"
   id="svg12484"
   width="16.00005"
   height="15.99795"
   viewBox="0 0 16.00005 15.99795"
   version="1.1"
   sodipodi:docname="WriteDelButton_1.svg"
   inkscape:version="0.92.3 (2405546, 2018-03-11)">
  <metadata
     id="metadata7199">
    <rdf:RDF>
      <cc:Work
         rdf:about="">
        <dc:format>image/svg+xml</dc:format>
        <dc:type
           rdf:resource="http://purl.org/dc/dcmitype/StillImage" />
      </cc:Work>
    </rdf:RDF>
  </metadata>
  <defs
     id="defs7197" />
  <sodipodi:namedview
     pagecolor="#ffffff"
     bordercolor="#666666"
     borderopacity="1"
     objecttolerance="10"
     gridtolerance="10"
     guidetolerance="10"
     inkscape:pageopacity="0"
     inkscape:pageshadow="2"
     inkscape:window-width="716"
     inkscape:window-height="480"
     id="namedview7195"
     showgrid="false"
     inkscape:zoom="14.75189"
     inkscape:cx="8.0000248"
     inkscape:cy="7.9989748"
     inkscape:window-x="0"
     inkscape:window-y="0"
     inkscape:window-maximized="0"
     inkscape:current-layer="svg12484" />
  <title
     id="title7184">WriteDelButton_1</title>
  <g
     id="layer1">
    <g
       id="g12476">
      <g
         id="g12468">
        <path
           id="path12466"
           d="M0,7.99957A8,8,0,1,1,8.00061,15.998,7.99985,7.99985,0,0,1,0,7.99957"
           style="fill: #212221" />
      </g>
      <circle
         id="circle12472"
         cx="8.00001"
         cy="8.41937"
         r="6.64197"
         style="fill: #676967" />
      <circle
         id="circle12474"
         cx="8.00001"
         cy="7.99899"
         r="6.64197"
         style="fill: #141514" />
    </g>
  </g>
  <path
     d="m 10.6426,7.53861 c 0,2.65137 -0.9834,4.11426 -2.71,4.11426 -1.52344,0 -2.55518,-1.42773 -2.5791,-4.00586 0,-2.61426 1.12744,-4.05371 2.71094,-4.05371 1.64261,0 2.57816,1.46338 2.57816,3.94531 z M 6.4092,7.65873 c 0,2.02734 0.62354,3.17871 1.583,3.17871 1.0791,0 1.59473,-1.25977 1.59473,-3.25 0,-1.91895 -0.49121,-3.17871 -1.583,-3.17871 -0.92334,0 -1.59473,1.12744 -1.59473,3.25 z"
     style="fill:#ffcc00"
     id="path7192"
     inkscape:connector-curvature="0" />
</svg>
