<svg xmlns:dc="http://purl.org/dc/elements/1.1/" xmlns:cc="http://creativecommons.org/ns#" xmlns:rdf="http://www.w3.org/1999/02/22-rdf-syntax-ns#" xmlns:svg="http://www.w3.org/2000/svg" xmlns="http://www.w3.org/2000/svg" xmlns:xlink="http://www.w3.org/1999/xlink" xmlns:sodipodi="http://sodipodi.sourceforge.net/DTD/sodipodi-0.dtd" xmlns:inkscape="http://www.inkscape.org/namespaces/inkscape" width="17px" height="16px" version="1.1" xml:space="preserve" style="fill-rule:evenodd;clip-rule:evenodd;stroke-linecap:round;stroke-linejoin:round;stroke-miterlimit:1.5;" id="svg17336" sodipodi:docname="Button_OFF.svg" inkscape:version="0.92.3 (2405546, 2018-03-11)">
  <defs id="defs17340">
    <linearGradient inkscape:collect="always" id="linearGradient19811">
      <stop style="stop-color:#000000;stop-opacity:1;" offset="0" id="stop19807"/>
      <stop style="stop-color:#dcdcdc;stop-opacity:1" offset="1" id="stop19809"/>
    </linearGradient>
    <linearGradient inkscape:collect="always" xlink:href="#linearGradient19811" id="linearGradient19813" x1="92.788002" y1="323.91599" x2="92.788002" y2="309.918" gradientUnits="userSpaceOnUse"/>
  </defs>
  <metadata id="metadata17342">
    <rdf:RDF>
      <cc:Work rdf:about="">
        <dc:format>image/svg+xml</dc:format>
        <dc:type rdf:resource="http://purl.org/dc/dcmitype/StillImage"/>
      </cc:Work>
    </rdf:RDF>
  </metadata>
  <sodipodi:namedview pagecolor="#ffffff" bordercolor="#666666" borderopacity="1" objecttolerance="10" gridtolerance="10" guidetolerance="10" inkscape:pageopacity="0" inkscape:pageshadow="2" inkscape:window-width="1920" inkscape:window-height="1018" id="namedview17338" showgrid="false" inkscape:snap-bbox="true" inkscape:bbox-nodes="true" inkscape:zoom="41.7193" inkscape:cx="7.413495" inkscape:cy="7.50479" inkscape:window-x="-8" inkscape:window-y="-8" inkscape:window-maximized="1" inkscape:current-layer="svg17336"/>
  <g id="g17320" transform="matrix(1.03804,0,0,1.04192,-79.7909,-322.2005)" style="stroke:none;fill:url(#linearGradient19813);fill-opacity:1">
    <path inkscape:connector-curvature="0" id="path17318" style="stroke:none;stroke-width:0.95999998px;fill:url(#linearGradient19813);fill-opacity:1" d="m 92.788,312.7 c 0,-1.536 -1.251,-2.782 -2.792,-2.782 h -9.881 c -1.541,0 -2.793,1.246 -2.793,2.782 v 8.433 c 0,1.536 1.252,2.783 2.793,2.783 h 9.881 c 1.541,0 2.792,-1.247 2.792,-2.783 z"/>
  </g>
  <g id="g17324" transform="matrix(1.02667,0,0,1.13251,-79.18387,-350.5082)">
    <path inkscape:connector-curvature="0" id="path17322" style="fill:#262626;stroke:#666666;stroke-width:0.79000002px" d="m 92.322,313.746 c 0,-1.541 -1.381,-2.792 -3.081,-2.792 h -7.626 c -1.7,0 -3.08,1.251 -3.08,2.792 v 5.586 c 0,1.541 1.38,2.792 3.08,2.792 h 7.626 c 1.7,0 3.081,-1.251 3.081,-2.792 z"/>
  </g>
  <g id="g17328" transform="matrix(0.925979,0,0,0.991131,-70.58174,-305.7543)">
    <path inkscape:connector-curvature="0" id="path17326" style="fill:#1a1a1a;stroke:#333333;stroke-width:0.88999999px" d="m 92.322,313.042 c 0,-1.153 -1.002,-2.088 -2.236,-2.088 H 80.77 c -1.234,0 -2.235,0.935 -2.235,2.088 v 6.994 c 0,1.153 1.001,2.088 2.235,2.088 h 9.316 c 1.234,0 2.236,-0.935 2.236,-2.088 z"/>
  </g>
</svg>