<?xml version="1.0" encoding="UTF-8" standalone="no"?>
<svg
   xmlns:dc="http://purl.org/dc/elements/1.1/"
   xmlns:cc="http://creativecommons.org/ns#"
   xmlns:rdf="http://www.w3.org/1999/02/22-rdf-syntax-ns#"
   xmlns:svg="http://www.w3.org/2000/svg"
   xmlns="http://www.w3.org/2000/svg"
   xmlns:sodipodi="http://sodipodi.sourceforge.net/DTD/sodipodi-0.dtd"
   xmlns:inkscape="http://www.inkscape.org/namespaces/inkscape"
   width="30px"
   height="30px"
   version="1.1"
   xml:space="preserve"
   style="fill-rule:evenodd;clip-rule:evenodd;stroke-linejoin:round;stroke-miterlimit:1.41421;"
   id="svg835"
   sodipodi:docname="KnobAlt.svg"
   inkscape:version="0.92.3 (2405546, 2018-03-11)"><metadata
   id="metadata841"><rdf:RDF><cc:Work
       rdf:about=""><dc:format>image/svg+xml</dc:format><dc:type
         rdf:resource="http://purl.org/dc/dcmitype/StillImage" /><dc:title /></cc:Work></rdf:RDF></metadata><defs
   id="defs839" /><sodipodi:namedview
   pagecolor="#ffffff"
   bordercolor="#666666"
   borderopacity="1"
   objecttolerance="10"
   gridtolerance="10"
   guidetolerance="10"
   inkscape:pageopacity="0"
   inkscape:pageshadow="2"
   inkscape:window-width="1920"
   inkscape:window-height="1057"
   id="namedview837"
   showgrid="false"
   inkscape:zoom="28"
   inkscape:cx="5.4999999"
   inkscape:cy="14.392858"
   inkscape:window-x="3832"
   inkscape:window-y="-8"
   inkscape:window-maximized="1"
   inkscape:current-layer="svg835" />
  <ellipse
   id="circle866"
   cx="14.966"
   cy="15"
   rx="13.722"
   ry="13.658"
   style="fill:rgb(106,105,105);" />
  <path
   id="path870"
   d="M14.319,0.373c0.213,-0.009 0.43,-0.015 0.646,-0.015c0.217,0 0.433,0.006 0.647,0.015c2.869,2.623 6.528,4.38 10.376,4.975c0.287,0.325 0.558,0.661 0.815,1.011c-0.275,3.869 0.631,7.812 2.564,11.181c-0.076,0.425 -0.174,0.841 -0.286,1.251c-3.211,2.2 -5.749,5.366 -7.188,8.972c-0.378,0.2 -0.765,0.388 -1.165,0.558c-3.729,-1.129 -7.797,-1.129 -11.526,0c-0.4,-0.17 -0.787,-0.358 -1.165,-0.558c-1.439,-3.606 -3.976,-6.772 -7.187,-8.972c-0.113,-0.41 -0.211,-0.826 -0.287,-1.251c1.933,-3.369 2.839,-7.312 2.564,-11.181c0.257,-0.35 0.528,-0.686 0.815,-1.011c3.848,-0.595 7.507,-2.352 10.377,-4.975Z"
   style="fill:rgb(16,16,16);stroke:rgb(140,140,140);stroke-width:0.8px;" />
  <ellipse
   id="circle874"
   cx="14.965"
   cy="15"
   rx="10.369"
   ry="10.321"
   style="fill:rgb(20,20,20);stroke:rgb(128,128,128);stroke-width:0.5px;stroke-linecap:round;stroke-miterlimit:1.5;" />
  <circle
   id="path1471"
   cx="14.966"
   cy="15"
   r="10"
   style="fill:#001900" />
  <circle
   id="path1473"
   cx="14.966"
   cy="15"
   r="8.117"
   style="fill:none;stroke:rgb(32,32,32);stroke-width:2.17px;stroke-linecap:round;stroke-miterlimit:1.5;" />
  <path
   id="path894"
   d="M16.147,2.534c0.191,0 0.346,0.229 0.346,0.511l-0.491,1.534l0,7.479c0,0.693 -0.293,1.248 -1.037,1.255c-0.707,0.007 -1.037,-0.562 -1.037,-1.255l0,-7.479l-0.491,-1.534c0,-0.282 0.155,-0.511 0.346,-0.511c0,0 0.507,-1.297 1.182,-1.312c0.579,-0.012 1.182,1.312 1.182,1.312Z"
   style="fill:rgb(235,235,235);" />
</svg>