<svg xmlns:dc="http://purl.org/dc/elements/1.1/" xmlns:cc="http://creativecommons.org/ns#" xmlns:rdf="http://www.w3.org/1999/02/22-rdf-syntax-ns#" xmlns:svg="http://www.w3.org/2000/svg" xmlns="http://www.w3.org/2000/svg" xmlns:sodipodi="http://sodipodi.sourceforge.net/DTD/sodipodi-0.dtd" xmlns:inkscape="http://www.inkscape.org/namespaces/inkscape" width="13px" height="25px" version="1.1" xml:space="preserve" style="fill-rule:evenodd;clip-rule:evenodd;stroke-linecap:round;stroke-linejoin:round;stroke-miterlimit:1.5;" id="svg943" sodipodi:docname="Select2_B.svg" inkscape:version="0.92.3 (2405546, 2018-03-11)">
  <defs id="defs947"/>
  <metadata id="metadata949">
    <rdf:RDF>
      <cc:Work rdf:about="">
        <dc:format>image/svg+xml</dc:format>
        <dc:type rdf:resource="http://purl.org/dc/dcmitype/StillImage"/>
        <dc:title/>
      </cc:Work>
    </rdf:RDF>
  </metadata>
  <sodipodi:namedview pagecolor="#ffffff" bordercolor="#666666" borderopacity="1" objecttolerance="10" gridtolerance="10" guidetolerance="10" inkscape:pageopacity="0" inkscape:pageshadow="2" inkscape:window-width="1920" inkscape:window-height="1018" id="namedview945" showgrid="false" inkscape:zoom="16.98" inkscape:cx="4.7544172" inkscape:cy="12.605165" inkscape:window-x="-8" inkscape:window-y="-8" inkscape:window-maximized="1" inkscape:current-layer="svg943"/>
  <path style="clip-rule:evenodd;fill:#c8c8c8;fill-opacity:1;fill-rule:evenodd;stroke:none;stroke-width:1px;stroke-linecap:butt;stroke-linejoin:miter;stroke-miterlimit:1.5;stroke-opacity:1" d="M 0.67367153,25.003833 2.993984,22.581561 h 6.953125 l 2.394532,2.422272 z" id="path1066" inkscape:connector-curvature="0"/>
  <path style="clip-rule:evenodd;fill:#5a5a5a;fill-opacity:1;fill-rule:evenodd;stroke:none;stroke-width:1px;stroke-linecap:butt;stroke-linejoin:miter;stroke-miterlimit:1.5;stroke-opacity:1" d="M 0.66075637,0.6315116 2.9810689,3.1048636 2.993984,22.581561 0.67367152,25.003833 Z" id="path1060" inkscape:connector-curvature="0" sodipodi:nodetypes="ccccc"/>
  <path style="clip-rule:evenodd;fill:#5a5a5a;fill-opacity:1;fill-rule:evenodd;stroke:none;stroke-width:1px;stroke-linecap:butt;stroke-linejoin:miter;stroke-miterlimit:1.5;stroke-opacity:1" d="M 9.934194,3.1048636 12.328725,0.6315116 12.34164,25.003833 9.947109,22.581561 Z" id="path1064" inkscape:connector-curvature="0" sodipodi:nodetypes="ccccc"/>
  <path style="clip-rule:evenodd;fill:#1e1e1e;fill-opacity:1;fill-rule:evenodd;stroke:none;stroke-width:1px;stroke-linecap:butt;stroke-linejoin:miter;stroke-miterlimit:1.5;stroke-opacity:1" d="M 0.66075637,0.6315116 H 12.328725 L 9.934194,3.1048636 H 2.9810689 Z" id="path1062" inkscape:connector-curvature="0"/>
  <g id="g889" transform="matrix(0.5,0,0,0.39622654,-0.981232,-8.3018959)">
    <path inkscape:connector-curvature="0" id="path887" style="fill:#141414" d="M 24,30.165 C 24,27.866 22.521,26 20.7,26 H 9.3 C 7.479,26 6,27.866 6,30.165 v 44.67 C 6,77.134 7.479,79 9.3,79 h 11.4 c 1.821,0 3.3,-1.866 3.3,-4.165 z"/>
  </g>
  <g transform="translate(0,1)" id="g941">
    <g transform="matrix(0.447299,0,0,0.447222,-0.19093,11.7503)" id="g895">
      <path d="M 27,4.213 C 27,2.992 26.008,2 24.787,2 H 5.213 C 3.992,2 3,2.992 3,4.213 V 23.787 C 3,25.008 3.992,26 5.213,26 H 24.787 C 26.008,26 27,25.008 27,23.787 Z" style="fill:#333333;stroke:#000000;stroke-width:1.57000005px" id="path893" inkscape:connector-curvature="0"/>
    </g>
    <g transform="matrix(0.424676,0,0,0.419544,0.158984,12.1324)" id="g899">
      <path d="M 27,4.213 C 27,2.992 26.02,2 24.813,2 H 5.187 C 3.98,2 3,2.992 3,4.213 V 23.787 C 3,25.008 3.98,26 5.187,26 H 24.813 C 26.02,26 27,25.008 27,23.787 Z" style="fill:none;stroke:#737373;stroke-width:0.70999998px" id="path897" inkscape:connector-curvature="0"/>
    </g>
    <g transform="matrix(0.473836,0,0,0.474124,-0.590973,11.3909)" id="g903">
      <path d="M 27,4.212 C 27,2.991 26.008,2 24.787,2 H 5.213 C 3.992,2 3,2.991 3,4.212 V 23.788 C 3,25.009 3.992,26 5.213,26 H 24.787 C 26.008,26 27,25.009 27,23.788 Z" style="fill:none;stroke:#cccccc;stroke-width:0.63px" id="path901" inkscape:connector-curvature="0"/>
    </g>
    <g transform="matrix(0.411186,0,0,0.0177872,0.332216,13.7501)" id="g907">
      <path d="M 27,9.104 C 27,5.183 26.862,2 26.693,2 H 3.307 C 3.138,2 3,5.183 3,9.104 v 9.792 C 3,22.817 3.138,26 3.307,26 H 26.693 C 26.862,26 27,22.817 27,18.896 Z" style="fill:#010101" id="path905" inkscape:connector-curvature="0"/>
    </g>
    <g transform="matrix(0.411186,0,0,0.0177872,0.332216,21.9831)" id="g911">
      <path d="M 27,9.104 C 27,5.183 26.862,2 26.693,2 H 3.307 C 3.138,2 3,5.183 3,9.104 v 9.792 C 3,22.817 3.138,26 3.307,26 H 26.693 C 26.862,26 27,22.817 27,18.896 Z" style="fill:#010101" id="path909" inkscape:connector-curvature="0"/>
    </g>
    <g transform="matrix(0.411186,0,0,0.0177872,0.332216,20.6109)" id="g915">
      <path d="M 27,9.104 C 27,5.183 26.862,2 26.693,2 H 3.307 C 3.138,2 3,5.183 3,9.104 v 9.792 C 3,22.817 3.138,26 3.307,26 H 26.693 C 26.862,26 27,22.817 27,18.896 Z" style="fill:#010101" id="path913" inkscape:connector-curvature="0"/>
    </g>
    <g transform="matrix(0.411186,0,0,0.0177872,0.332216,19.2388)" id="g919">
      <path d="M 27,9.104 C 27,5.183 26.862,2 26.693,2 H 3.307 C 3.138,2 3,5.183 3,9.104 v 9.792 C 3,22.817 3.138,26 3.307,26 H 26.693 C 26.862,26 27,22.817 27,18.896 Z" style="fill:#010101" id="path917" inkscape:connector-curvature="0"/>
    </g>
    <g transform="matrix(0.411186,0,0,0.0177872,0.332216,17.8666)" id="g923">
      <path d="M 27,9.104 C 27,5.183 26.862,2 26.693,2 H 3.307 C 3.138,2 3,5.183 3,9.104 v 9.792 C 3,22.817 3.138,26 3.307,26 H 26.693 C 26.862,26 27,22.817 27,18.896 Z" style="fill:#010101" id="path921" inkscape:connector-curvature="0"/>
    </g>
    <g transform="matrix(0.411186,0,0,0.0177872,0.332216,16.4944)" id="g927">
      <path d="M 27,9.104 C 27,5.183 26.862,2 26.693,2 H 3.307 C 3.138,2 3,5.183 3,9.104 v 9.792 C 3,22.817 3.138,26 3.307,26 H 26.693 C 26.862,26 27,22.817 27,18.896 Z" style="fill:#010101" id="path925" inkscape:connector-curvature="0"/>
    </g>
    <g transform="matrix(0.411186,0,0,0.0177872,0.332216,15.1223)" id="g931">
      <path d="M 27,9.104 C 27,5.183 26.862,2 26.693,2 H 3.307 C 3.138,2 3,5.183 3,9.104 v 9.792 C 3,22.817 3.138,26 3.307,26 H 26.693 C 26.862,26 27,22.817 27,18.896 Z" style="fill:#010101" id="path929" inkscape:connector-curvature="0"/>
    </g>
    <g transform="matrix(0.201407,0,0,0.155507,3.37008,15.7352)" id="g935">
      <path d="M 27,4.213 C 27,2.992 26.234,2 25.291,2 H 4.709 C 3.766,2 3,2.992 3,4.213 V 23.787 C 3,25.008 3.766,26 4.709,26 H 25.291 C 26.234,26 27,25.008 27,23.787 Z" style="fill:none;stroke:#808080;stroke-width:1.66999996px" id="path933" inkscape:connector-curvature="0"/>
    </g>
    <g transform="translate(-229.581,-117.534)" id="g939">
      <rect x="234" y="134" width="4" height="2.8080001" style="fill:#ffffff;stroke:#000000;stroke-width:0.69999999px" id="rect937"/>
    </g>
  </g>
</svg>