<svg xmlns:dc="http://purl.org/dc/elements/1.1/" xmlns:cc="http://creativecommons.org/ns#" xmlns:rdf="http://www.w3.org/1999/02/22-rdf-syntax-ns#" xmlns:svg="http://www.w3.org/2000/svg" xmlns="http://www.w3.org/2000/svg" xmlns:sodipodi="http://sodipodi.sourceforge.net/DTD/sodipodi-0.dtd" xmlns:inkscape="http://www.inkscape.org/namespaces/inkscape" width="13px" height="37px" version="1.1" xml:space="preserve" style="fill-rule:evenodd;clip-rule:evenodd;stroke-linecap:round;stroke-linejoin:round;stroke-miterlimit:1.5;" id="svg2645" sodipodi:docname="Select3_B.svg" inkscape:version="0.92.3 (2405546, 2018-03-11)">
  <defs id="defs2649"/>
  <metadata id="metadata2651">
    <rdf:RDF>
      <cc:Work rdf:about="">
        <dc:format>image/svg+xml</dc:format>
        <dc:type rdf:resource="http://purl.org/dc/dcmitype/StillImage"/>
        <dc:title/>
      </cc:Work>
    </rdf:RDF>
  </metadata>
  <sodipodi:namedview pagecolor="#ffffff" bordercolor="#666666" borderopacity="1" objecttolerance="10" gridtolerance="10" guidetolerance="10" inkscape:pageopacity="0" inkscape:pageshadow="2" inkscape:window-width="1920" inkscape:window-height="1018" id="namedview2647" showgrid="false" inkscape:zoom="16" inkscape:cx="6.3722173" inkscape:cy="15.523734" inkscape:window-x="-8" inkscape:window-y="-8" inkscape:window-maximized="1" inkscape:current-layer="svg2645" showguides="false" inkscape:guide-bbox="true" inkscape:snap-global="false">
    <sodipodi:guide position="7.3167576,36.285852" orientation="0,1" id="guide1044" inkscape:locked="false"/>
    <sodipodi:guide position="0.6640625,18.636719" orientation="1,0" id="guide1046" inkscape:locked="false"/>
    <sodipodi:guide position="12.332031,18.683594" orientation="1,0" id="guide1048" inkscape:locked="false"/>
    <sodipodi:guide position="6.7734375,0.7265625" orientation="0,1" id="guide1050" inkscape:locked="false"/>
    <sodipodi:guide position="2.984375,14.546875" orientation="1,0" id="guide1052" inkscape:locked="false"/>
    <sodipodi:guide position="9.9375,14.390625" orientation="1,0" id="guide1054" inkscape:locked="false"/>
    <sodipodi:guide position="6.2645241,3.1488349" orientation="0,1" id="guide1056" inkscape:locked="false"/>
    <sodipodi:guide position="7.65625,33.8125" orientation="0,1" id="guide1058" inkscape:locked="false"/>
  </sodipodi:namedview>
  <path style="fill:#5a5a5a;stroke:none;stroke-width:1px;stroke-linecap:butt;stroke-linejoin:miter;stroke-opacity:1;fill-opacity:1" d="M 0.6640625,0.714148 2.984375,3.1875 v 30.663665 l -2.3203125,2.422272 z" id="path1060" inkscape:connector-curvature="0"/>
  <path style="fill:#1e1e1e;stroke:none;stroke-width:1px;stroke-linecap:butt;stroke-linejoin:miter;stroke-opacity:1;fill-opacity:1" d="M 0.6640625,0.714148 H 12.332031 L 9.9375,3.1875 H 2.984375 Z" id="path1062" inkscape:connector-curvature="0"/>
  <path style="fill:#5a5a5a;stroke:none;stroke-width:1px;stroke-linecap:butt;stroke-linejoin:miter;stroke-opacity:1;fill-opacity:1" d="M 9.9375,3.1875 12.332031,0.714148 V 36.273437 L 9.9375,33.851165 Z" id="path1064" inkscape:connector-curvature="0"/>
  <path style="fill:#c8c8c8;stroke:none;stroke-width:1px;stroke-linecap:butt;stroke-linejoin:miter;stroke-opacity:1;fill-opacity:1" d="M 0.6640625,36.273437 2.984375,33.851165 H 9.9375 l 2.394531,2.422272 z" id="path1066" inkscape:connector-curvature="0"/>
  <path d="m 10.320954,3.5667639 c 0,-0.9208197 -0.6279109,-1.6686406 -1.4010183,-1.6686406 H 4.0800543 c -0.7731074,0 -1.4010182,0.7478209 -1.4010182,1.6686406 V 32.743436 c 0,0.92082 0.6279108,1.668641 1.4010182,1.668641 h 4.8398814 c 0.7731074,0 1.4010183,-0.747821 1.4010183,-1.668641 z" style="fill:#141414;stroke-width:0.51034266" id="path2589" inkscape:connector-curvature="0"/>
  <g transform="translate(-0.0625,-0.6875)" id="g2643">
    <g transform="matrix(0.447299,0,0,0.447222,-0.19093,11.7503)" id="g2597">
      <path d="M 27,4.213 C 27,2.992 26.008,2 24.787,2 H 5.213 C 3.992,2 3,2.992 3,4.213 V 23.787 C 3,25.008 3.992,26 5.213,26 H 24.787 C 26.008,26 27,25.008 27,23.787 Z" style="fill:#333333;stroke:#000000;stroke-width:1.57000005px" id="path2595" inkscape:connector-curvature="0"/>
    </g>
    <g transform="matrix(0.424676,0,0,0.419544,0.158984,12.1324)" id="g2601">
      <path d="M 27,4.213 C 27,2.992 26.02,2 24.813,2 H 5.187 C 3.98,2 3,2.992 3,4.213 V 23.787 C 3,25.008 3.98,26 5.187,26 H 24.813 C 26.02,26 27,25.008 27,23.787 Z" style="fill:none;stroke:#737373;stroke-width:0.70999998px" id="path2599" inkscape:connector-curvature="0"/>
    </g>
    <g transform="matrix(0.473836,0,0,0.474124,-0.590973,11.3909)" id="g2605">
      <path d="M 27,4.212 C 27,2.991 26.008,2 24.787,2 H 5.213 C 3.992,2 3,2.991 3,4.212 V 23.788 C 3,25.009 3.992,26 5.213,26 H 24.787 C 26.008,26 27,25.009 27,23.788 Z" style="fill:none;stroke:#cccccc;stroke-width:0.63px" id="path2603" inkscape:connector-curvature="0"/>
    </g>
    <g transform="matrix(0.411186,0,0,0.0177872,0.332216,13.7501)" id="g2609">
      <path d="M 27,9.104 C 27,5.183 26.862,2 26.693,2 H 3.307 C 3.138,2 3,5.183 3,9.104 v 9.792 C 3,22.817 3.138,26 3.307,26 H 26.693 C 26.862,26 27,22.817 27,18.896 Z" style="fill:#010101" id="path2607" inkscape:connector-curvature="0"/>
    </g>
    <g transform="matrix(0.411186,0,0,0.0177872,0.332216,21.9831)" id="g2613">
      <path d="M 27,9.104 C 27,5.183 26.862,2 26.693,2 H 3.307 C 3.138,2 3,5.183 3,9.104 v 9.792 C 3,22.817 3.138,26 3.307,26 H 26.693 C 26.862,26 27,22.817 27,18.896 Z" style="fill:#010101" id="path2611" inkscape:connector-curvature="0"/>
    </g>
    <g transform="matrix(0.411186,0,0,0.0177872,0.332216,20.6109)" id="g2617">
      <path d="M 27,9.104 C 27,5.183 26.862,2 26.693,2 H 3.307 C 3.138,2 3,5.183 3,9.104 v 9.792 C 3,22.817 3.138,26 3.307,26 H 26.693 C 26.862,26 27,22.817 27,18.896 Z" style="fill:#010101" id="path2615" inkscape:connector-curvature="0"/>
    </g>
    <g transform="matrix(0.411186,0,0,0.0177872,0.332216,19.2388)" id="g2621">
      <path d="M 27,9.104 C 27,5.183 26.862,2 26.693,2 H 3.307 C 3.138,2 3,5.183 3,9.104 v 9.792 C 3,22.817 3.138,26 3.307,26 H 26.693 C 26.862,26 27,22.817 27,18.896 Z" style="fill:#010101" id="path2619" inkscape:connector-curvature="0"/>
    </g>
    <g transform="matrix(0.411186,0,0,0.0177872,0.332216,17.8666)" id="g2625">
      <path d="M 27,9.104 C 27,5.183 26.862,2 26.693,2 H 3.307 C 3.138,2 3,5.183 3,9.104 v 9.792 C 3,22.817 3.138,26 3.307,26 H 26.693 C 26.862,26 27,22.817 27,18.896 Z" style="fill:#010101" id="path2623" inkscape:connector-curvature="0"/>
    </g>
    <g transform="matrix(0.411186,0,0,0.0177872,0.332216,16.4944)" id="g2629">
      <path d="M 27,9.104 C 27,5.183 26.862,2 26.693,2 H 3.307 C 3.138,2 3,5.183 3,9.104 v 9.792 C 3,22.817 3.138,26 3.307,26 H 26.693 C 26.862,26 27,22.817 27,18.896 Z" style="fill:#010101" id="path2627" inkscape:connector-curvature="0"/>
    </g>
    <g transform="matrix(0.411186,0,0,0.0177872,0.332216,15.1223)" id="g2633">
      <path d="M 27,9.104 C 27,5.183 26.862,2 26.693,2 H 3.307 C 3.138,2 3,5.183 3,9.104 v 9.792 C 3,22.817 3.138,26 3.307,26 H 26.693 C 26.862,26 27,22.817 27,18.896 Z" style="fill:#010101" id="path2631" inkscape:connector-curvature="0"/>
    </g>
    <g transform="matrix(0.201407,0,0,0.155507,3.37008,15.7352)" id="g2637">
      <path d="M 27,4.213 C 27,2.992 26.234,2 25.291,2 H 4.709 C 3.766,2 3,2.992 3,4.213 V 23.787 C 3,25.008 3.766,26 4.709,26 H 25.291 C 26.234,26 27,25.008 27,23.787 Z" style="fill:none;stroke:#808080;stroke-width:1.66999996px" id="path2635" inkscape:connector-curvature="0"/>
    </g>
    <g transform="translate(-229.581,-117.534)" id="g2641">
      <rect x="234" y="134" width="4" height="2.8080001" style="fill:#ffffff;stroke:#000000;stroke-width:0.69999999px" id="rect2639"/>
    </g>
  </g>
</svg>