<svg width="150px" height="380px" version="1.1" xmlns="http://www.w3.org/2000/svg" xmlns:xlink="http://www.w3.org/1999/xlink" xml:space="preserve" xmlns:serif="http://www.serif.com/" style="fill-rule:evenodd;clip-rule:evenodd;stroke-miterlimit:10;">
  <defs>
    <linearGradient id="_Linear1" x1="0" y1="0" x2="1" y2="0" gradientUnits="userSpaceOnUse" gradientTransform="matrix(149.956,-379.998,379.888,150,0.0435799,379.998)">
      <stop offset="0" style="stop-color:rgb(9,13,17);stop-opacity:1"/>
      <stop offset="1" style="stop-color:rgb(24,35,46);stop-opacity:1"/>
    </linearGradient>
    <linearGradient id="_Linear2" x1="0" y1="0" x2="1" y2="0" gradientUnits="userSpaceOnUse" gradientTransform="matrix(3.12285e-15,-72,51,4.40873e-15,131.022,312)">
      <stop offset="0" style="stop-color:rgb(156,156,156);stop-opacity:1"/>
      <stop offset="1" style="stop-color:rgb(36,36,36);stop-opacity:1"/>
    </linearGradient>
    <linearGradient id="_Linear3" x1="0" y1="0" x2="1" y2="0" gradientUnits="userSpaceOnUse" gradientTransform="matrix(1.93073,126.592,-123.761,1.9749,112.873,103.796)">
      <stop offset="0" style="stop-color:rgb(21,30,39);stop-opacity:1"/>
      <stop offset="1" style="stop-color:rgb(21,30,39);stop-opacity:0"/>
    </linearGradient>
  </defs>
  <g id="Panel">
    <rect id="rect9931" x="0" y="0" width="150" height="380" style="fill:rgb(26,26,26);"/>
    <rect id="rect2024" x="0.044" y="0" width="149.956" height="379.998" style="fill:url(#_Linear1);"/>
    <path id="path42" d="M67.518,362.5l2.674,0l2.49,8.317l2.574,-8.317l2.66,0l-3.461,10.397c-0.323,0.959 -0.902,1.438 -1.738,1.438c-0.847,0 -1.432,-0.484 -1.755,-1.453l-3.444,-10.382Z" style="fill:rgb(172,181,188);fill-rule:nonzero;"/>
    <path id="path44" d="M78.116,371.292l0,-8.792l2.508,0l0,8.709c0.044,0.312 0.334,0.468 0.869,0.468l1.705,0c0.512,0 0.797,-0.145 0.852,-0.435l0.017,-0.083l0,-8.659l2.508,0l0,8.776c0,0.769 -0.084,1.315 -0.251,1.638c-0.446,0.858 -1.232,1.287 -2.357,1.287l-3.243,0c-1.159,0 -1.95,-0.44 -2.374,-1.321c-0.156,-0.323 -0.234,-0.852 -0.234,-1.588Z" style="fill:rgb(172,181,188);fill-rule:nonzero;"/>
    <path id="path46" d="M87.728,371.343l0,-8.843l2.507,0l0,8.642c0,0.357 0.212,0.535 0.636,0.535l4.463,0l-0.017,2.524l-4.664,0c-0.167,0 -0.312,-0.005 -0.434,-0.017c-0.903,-0.077 -1.544,-0.342 -1.923,-0.794c-0.379,-0.451 -0.568,-1.134 -0.568,-2.047Z" style="fill:rgb(172,181,188);fill-rule:nonzero;"/>
    <path id="path48" d="M95.417,365.024l0,-2.524l7.522,0l0,2.524l-2.524,0l0,9.177l-2.507,0l0,-9.177l-2.491,0Z" style="fill:rgb(172,181,188);fill-rule:nonzero;"/>
    <path id="path4" d="M63.95,368.417c0,-4.509 -3.656,-8.164 -8.165,-8.164c-4.509,0 -8.164,3.655 -8.164,8.164c0,4.509 3.655,8.165 8.164,8.165c4.509,0 8.165,-3.656 8.165,-8.165Z" style="fill:rgb(117,117,117);fill-rule:nonzero;stroke:rgb(65,76,85);stroke-width:0.61px;"/>
    <path d="M142.916,328.825c0,-4.117 -3.341,-7.459 -7.458,-7.459l-14.916,0c-4.117,0 -7.458,3.342 -7.458,7.459l0,20.902c0,4.117 3.341,7.459 7.458,7.459l14.916,0c4.117,0 7.458,-3.342 7.458,-7.459l0,-20.902Z" style="stroke:rgb(64,75,84);stroke-width:1px;stroke-linejoin:round;stroke-miterlimit:1.5;"/>
    <g id="text9293-4">
      <path d="M15.498,350.825l3.114,0c0,0.32 -0.014,0.611 -0.04,0.873c-0.027,0.261 -0.081,0.504 -0.161,0.728c-0.112,0.315 -0.264,0.593 -0.456,0.836c-0.192,0.243 -0.417,0.446 -0.676,0.608c-0.259,0.163 -0.543,0.287 -0.852,0.373c-0.31,0.085 -0.635,0.128 -0.977,0.128c-0.469,0 -0.897,-0.078 -1.284,-0.232c-0.387,-0.155 -0.719,-0.373 -0.997,-0.653c-0.277,-0.28 -0.493,-0.616 -0.648,-1.008c-0.155,-0.392 -0.232,-0.826 -0.232,-1.301c0,-0.469 0.076,-0.9 0.228,-1.292c0.152,-0.392 0.368,-0.727 0.648,-1.005c0.28,-0.277 0.618,-0.493 1.013,-0.648c0.395,-0.155 0.835,-0.232 1.32,-0.232c0.63,0 1.182,0.136 1.657,0.408c0.475,0.272 0.851,0.694 1.128,1.265l-1.488,0.616c-0.139,-0.331 -0.319,-0.568 -0.54,-0.712c-0.222,-0.144 -0.474,-0.216 -0.757,-0.216c-0.235,0 -0.448,0.044 -0.64,0.132c-0.192,0.088 -0.356,0.213 -0.492,0.376c-0.136,0.163 -0.243,0.359 -0.32,0.588c-0.078,0.229 -0.116,0.486 -0.116,0.768c0,0.256 0.033,0.494 0.1,0.713c0.066,0.218 0.166,0.408 0.3,0.568c0.133,0.16 0.299,0.284 0.496,0.372c0.197,0.088 0.427,0.132 0.688,0.132c0.155,0 0.304,-0.017 0.448,-0.052c0.144,-0.035 0.274,-0.091 0.389,-0.168c0.114,-0.077 0.209,-0.177 0.284,-0.3c0.074,-0.123 0.125,-0.272 0.152,-0.448l-1.289,0l0,-1.217Z" style="fill:white;fill-rule:nonzero;"/>
      <path d="M22.661,351.962l-0.704,-2.009l-0.704,2.009l1.408,0Zm0.416,1.192l-2.241,0l-0.36,1.049l-1.672,0l2.297,-6.035l1.712,0l2.297,6.035l-1.672,0l-0.361,-1.049Z" style="fill:white;fill-rule:nonzero;"/>
      <path d="M27.823,349.497l0,4.706l-1.568,0l0,-4.706l-1.289,0l0,-1.329l4.146,0l0,1.329l-1.289,0Z" style="fill:white;fill-rule:nonzero;"/>
      <path d="M33.242,349.497l-1.865,0l0,1.008l1.761,0l0,1.329l-1.761,0l0,1.04l1.865,0l0,1.329l-3.434,0l0,-6.035l3.434,0l0,1.329Z" style="fill:white;fill-rule:nonzero;"/>
    </g>
    <g id="text9293-41" serif:id="text9293-4">
      <path d="M47.391,349.497l0,4.706l-1.568,0l0,-4.706l-1.289,0l0,-1.329l4.146,0l0,1.329l-1.289,0Z" style="fill:white;fill-rule:nonzero;"/>
      <path d="M50.945,348.168l0,3.281c0,0.177 0.007,0.357 0.02,0.541c0.013,0.184 0.053,0.35 0.12,0.5c0.067,0.149 0.172,0.271 0.316,0.364c0.144,0.093 0.347,0.14 0.608,0.14c0.262,0 0.463,-0.047 0.605,-0.14c0.141,-0.093 0.246,-0.215 0.316,-0.364c0.069,-0.15 0.11,-0.316 0.124,-0.5c0.013,-0.184 0.02,-0.364 0.02,-0.541l0,-3.281l1.56,0l0,3.498c0,0.939 -0.214,1.624 -0.644,2.056c-0.429,0.433 -1.09,0.649 -1.981,0.649c-0.891,0 -1.552,-0.216 -1.984,-0.649c-0.433,-0.432 -0.649,-1.117 -0.649,-2.056l0,-3.498l1.569,0Z" style="fill:white;fill-rule:nonzero;"/>
      <path d="M55.899,354.203l0,-6.035l1.569,0l2.897,3.69l0,-3.69l1.56,0l0,6.035l-1.56,0l-2.897,-3.69l0,3.69l-1.569,0Z" style="fill:white;fill-rule:nonzero;"/>
      <path d="M66.623,349.497l-1.864,0l0,1.008l1.76,0l0,1.329l-1.76,0l0,1.04l1.864,0l0,1.329l-3.433,0l0,-6.035l3.433,0l0,1.329Z" style="fill:white;fill-rule:nonzero;"/>
    </g>
    <g id="text9293-42" serif:id="text9293-4">
      <path d="M120.383,351.185c0,0.24 0.045,0.462 0.136,0.665c0.091,0.202 0.214,0.378 0.368,0.528c0.155,0.149 0.335,0.265 0.541,0.348c0.205,0.083 0.422,0.124 0.652,0.124c0.229,0 0.447,-0.041 0.652,-0.124c0.205,-0.083 0.387,-0.199 0.544,-0.348c0.158,-0.15 0.282,-0.326 0.372,-0.528c0.091,-0.203 0.136,-0.425 0.136,-0.665c0,-0.24 -0.045,-0.461 -0.136,-0.664c-0.09,-0.203 -0.214,-0.379 -0.372,-0.528c-0.157,-0.15 -0.339,-0.266 -0.544,-0.348c-0.205,-0.083 -0.423,-0.124 -0.652,-0.124c-0.23,0 -0.447,0.041 -0.652,0.124c-0.206,0.082 -0.386,0.198 -0.541,0.348c-0.154,0.149 -0.277,0.325 -0.368,0.528c-0.091,0.203 -0.136,0.424 -0.136,0.664Zm-1.641,0c0,-0.448 0.083,-0.865 0.249,-1.252c0.165,-0.387 0.394,-0.724 0.688,-1.013c0.293,-0.288 0.644,-0.513 1.052,-0.676c0.408,-0.163 0.858,-0.244 1.349,-0.244c0.485,0 0.934,0.081 1.344,0.244c0.411,0.163 0.765,0.388 1.061,0.676c0.296,0.289 0.527,0.626 0.692,1.013c0.165,0.387 0.248,0.804 0.248,1.252c0,0.449 -0.083,0.866 -0.248,1.253c-0.165,0.387 -0.396,0.724 -0.692,1.012c-0.296,0.288 -0.65,0.514 -1.061,0.677c-0.41,0.162 -0.859,0.244 -1.344,0.244c-0.491,0 -0.941,-0.082 -1.349,-0.244c-0.408,-0.163 -0.759,-0.389 -1.052,-0.677c-0.294,-0.288 -0.523,-0.625 -0.688,-1.012c-0.166,-0.387 -0.249,-0.804 -0.249,-1.253Z" style="fill:white;fill-rule:nonzero;"/>
      <path d="M127.986,348.168l0,3.281c0,0.177 0.007,0.357 0.02,0.541c0.014,0.184 0.054,0.35 0.12,0.5c0.067,0.149 0.172,0.271 0.316,0.364c0.144,0.093 0.347,0.14 0.609,0.14c0.261,0 0.463,-0.047 0.604,-0.14c0.141,-0.093 0.247,-0.215 0.316,-0.364c0.069,-0.15 0.111,-0.316 0.124,-0.5c0.013,-0.184 0.02,-0.364 0.02,-0.541l0,-3.281l1.561,0l0,3.498c0,0.939 -0.215,1.624 -0.644,2.056c-0.43,0.433 -1.09,0.649 -1.981,0.649c-0.891,0 -1.553,-0.216 -1.985,-0.649c-0.432,-0.432 -0.648,-1.117 -0.648,-2.056l0,-3.498l1.568,0Z" style="fill:white;fill-rule:nonzero;"/>
      <path d="M135.229,349.497l0,4.706l-1.568,0l0,-4.706l-1.289,0l0,-1.329l4.146,0l0,1.329l-1.289,0Z" style="fill:white;fill-rule:nonzero;"/>
    </g>
    <g id="g40">
      <path id="polygon6" d="M53.887,373.394l0.553,-0.891l-1.063,-2.393l-2.216,-2.284l0.459,3.101l0.597,1.28l0.833,1.264l0.837,-0.077Z" style="fill:rgb(43,43,43);fill-rule:nonzero;stroke:rgb(65,76,85);stroke-width:0.04px;stroke-miterlimit:4;"/>
      <path id="polygon8" d="M57.615,373.401l-0.553,-0.89l1.063,-2.393l2.216,-2.285l-0.459,3.101l-0.598,1.281l-0.832,1.263l-0.837,-0.077Z" style="fill:rgb(38,38,38);fill-rule:nonzero;stroke:rgb(65,76,85);stroke-width:0.04px;stroke-miterlimit:4;"/>
      <path id="polygon12" d="M53.203,362.359l2.584,-0.66l0,13.447l-1.35,-2.651l-1.06,-2.385l-1.023,-0.581l-2.052,-2.92l-0.057,-0.776l1.149,-2.067l1.809,-1.407Z" style="fill:rgb(66,66,66);fill-rule:nonzero;stroke:rgb(65,76,85);stroke-width:0.04px;stroke-miterlimit:4;"/>
      <path id="polygon14" d="M58.368,362.364l-2.584,-0.661l0,13.448l1.349,-2.651l1.061,-2.385l1.023,-0.581l2.051,-2.921l0.057,-0.775l-1.148,-2.067l-1.809,-1.407Z" style="fill:rgb(51,51,51);fill-rule:nonzero;stroke:rgb(65,76,85);stroke-width:0.04px;stroke-miterlimit:4;"/>
      <path id="polyline16" d="M54.063,368.237l1.723,-1.684l0,1.229l-1.723,1.718l0,-1.263" style="fill:rgb(76,76,76);fill-rule:nonzero;stroke:rgb(65,76,85);stroke-width:0.04px;stroke-miterlimit:4;"/>
      <path id="polygon18" d="M55.787,367.781l-1.723,1.718l0.376,3.004l1.347,2.643l0,-7.365Z" style="fill:rgb(91,91,91);fill-rule:nonzero;stroke:rgb(65,76,85);stroke-width:0.04px;stroke-miterlimit:4;"/>
      <path id="polygon20" d="M55.787,375.146l-1.347,-2.643l1.347,-0.635l0,3.278Z" style="fill:rgb(51,51,51);fill-rule:nonzero;stroke:rgb(65,76,85);stroke-width:0.04px;stroke-miterlimit:4;"/>
      <path id="polygon22" d="M54.064,369.499l0,-1.263l-1.249,-1.58l-1.477,-1.19l-0.002,0.932l0.776,1.823l1.952,1.278Z" style="fill:white;fill-rule:nonzero;stroke:rgb(65,76,85);stroke-width:0.04px;stroke-miterlimit:4;"/>
      <path id="polyline24" d="M57.509,368.238l-1.723,-1.685l0,1.23l1.723,1.718l0,-1.263" style="fill:rgb(45,45,45);fill-rule:nonzero;stroke:rgb(65,76,85);stroke-width:0.04px;stroke-miterlimit:4;"/>
      <path id="polygon26" d="M55.784,367.781l1.723,1.718l-0.376,3.004l-1.347,2.643l0,-7.365Z" style="fill:rgb(53,53,53);fill-rule:nonzero;stroke:rgb(65,76,85);stroke-width:0.04px;stroke-miterlimit:4;"/>
      <path id="polygon28" d="M55.784,375.146l1.347,-2.643l-1.347,-0.635l0,3.278Z" style="fill:rgb(25,25,25);fill-rule:nonzero;stroke:rgb(65,76,85);stroke-width:0.04px;stroke-miterlimit:4;"/>
      <path id="polygon30" d="M57.507,369.499l0,-1.263l1.249,-1.58l1.477,-1.19l0.002,0.932l-0.776,1.823l-1.952,1.278Z" style="fill:white;fill-rule:nonzero;stroke:rgb(65,76,85);stroke-width:0.04px;stroke-miterlimit:4;"/>
      <path id="polyline32" d="M53.219,362.338l2.566,4.215l-0.006,-4.87" style="fill:rgb(56,56,56);fill-rule:nonzero;stroke:rgb(65,76,85);stroke-width:0.04px;stroke-miterlimit:4;"/>
      <path id="polyline34" d="M58.352,362.338l-2.566,4.215l0.005,-4.869" style="fill:rgb(45,45,45);fill-rule:nonzero;stroke:rgb(65,76,85);stroke-width:0.04px;stroke-miterlimit:4;"/>
      <path id="polygon36" d="M53.377,370.111l0.688,-0.611l0.375,3.006l-1.063,-2.395Z" style="fill:rgb(51,51,51);fill-rule:nonzero;stroke:rgb(65,76,85);stroke-width:0.04px;stroke-miterlimit:4;"/>
      <path id="polygon38" d="M58.197,370.125l-0.688,-0.61l-0.375,3.006l1.063,-2.396Z" style="fill:rgb(28,28,28);fill-rule:nonzero;stroke:rgb(65,76,85);stroke-width:0.04px;stroke-miterlimit:4;"/>
    </g>
    <g id="text7967-9-5">
      <path d="M51.339,37.714l0,-7.351l1.378,0l0,4.623l0.089,0l1.82,-2.383l1.145,0l-1.681,2.188l2.207,2.923l-1.676,0l-1.815,-2.556l-0.089,0l0,2.556l-1.378,0Z" style="fill:white;fill-rule:nonzero;"/>
      <path d="M57.373,37.714l0,-5.111l1.378,0l0,5.111l-1.378,0Zm0,-5.973l0,-1.15l1.378,0l0,1.15l-1.378,0Z" style="fill:white;fill-rule:nonzero;"/>
      <path d="M64.244,37.603c-0.571,0.152 -1.1,0.228 -1.587,0.228c-0.817,0 -1.461,-0.24 -1.935,-0.72c-0.473,-0.479 -0.71,-1.132 -0.71,-1.957c0,-0.835 0.244,-1.488 0.731,-1.96c0.487,-0.472 1.161,-0.708 2.021,-0.708c0.416,0 0.895,0.067 1.438,0.2l0,0.997c-0.565,-0.184 -1.016,-0.275 -1.355,-0.275c-0.412,0 -0.744,0.158 -0.996,0.475c-0.251,0.316 -0.377,0.737 -0.377,1.261c0,0.537 0.136,0.967 0.407,1.29c0.272,0.323 0.634,0.484 1.087,0.484c0.413,0 0.838,-0.09 1.276,-0.27l0,0.955Z" style="fill:white;fill-rule:nonzero;"/>
      <path d="M65.548,37.714l0,-7.351l1.378,0l0,4.623l0.088,0l1.82,-2.383l1.146,0l-1.681,2.188l2.207,2.923l-1.676,0l-1.816,-2.556l-0.088,0l0,2.556l-1.378,0Z" style="fill:white;fill-rule:nonzero;"/>
      <path d="M77.941,37.714l0,-0.963c-0.354,0.72 -0.911,1.08 -1.672,1.08c-0.614,0 -1.097,-0.225 -1.448,-0.675c-0.35,-0.45 -0.526,-1.07 -0.526,-1.858c0,-0.857 0.198,-1.539 0.594,-2.048c0.396,-0.509 0.927,-0.764 1.594,-0.764c0.534,0 1.02,0.211 1.458,0.633l0,-2.756l1.382,0l0,7.351l-1.382,0Zm0,-3.775c-0.333,-0.373 -0.688,-0.559 -1.067,-0.559c-0.338,0 -0.608,0.163 -0.81,0.489c-0.201,0.326 -0.302,0.763 -0.302,1.313c0,1.046 0.335,1.569 1.005,1.569c0.41,0 0.801,-0.263 1.174,-0.787l0,-2.025Z" style="fill:white;fill-rule:nonzero;"/>
      <path d="M81.041,37.714l0,-5.111l1.378,0l0,0.963c0.357,-0.72 0.9,-1.08 1.63,-1.08c0.087,0 0.172,0.009 0.256,0.028l0,1.229c-0.196,-0.071 -0.377,-0.107 -0.545,-0.107c-0.549,0 -0.996,0.278 -1.341,0.833l0,3.245l-1.378,0Z" style="fill:white;fill-rule:nonzero;"/>
      <path d="M88.537,37.714l0,-0.963c-0.447,0.72 -1.028,1.08 -1.742,1.08c-0.456,0 -0.816,-0.145 -1.08,-0.433c-0.264,-0.289 -0.395,-0.683 -0.395,-1.183l0,-3.612l1.378,0l0,3.272c0,0.581 0.194,0.871 0.582,0.871c0.434,0 0.853,-0.309 1.257,-0.927l0,-3.216l1.378,0l0,5.111l-1.378,0Z" style="fill:white;fill-rule:nonzero;"/>
      <path d="M91.637,37.714l0,-5.111l1.322,0l0,0.963c0.404,-0.72 0.978,-1.08 1.723,-1.08c0.385,0 0.701,0.095 0.95,0.284c0.248,0.189 0.4,0.455 0.456,0.796c0.478,-0.72 1.055,-1.08 1.732,-1.08c0.934,0 1.401,0.515 1.401,1.546l0,3.682l-1.322,0l0,-3.231c0,-0.605 -0.202,-0.907 -0.605,-0.907c-0.413,0 -0.815,0.297 -1.206,0.893l0,3.245l-1.322,0l0,-3.231c0,-0.608 -0.204,-0.912 -0.61,-0.912c-0.407,0 -0.806,0.299 -1.197,0.898l0,3.245l-1.322,0Z" style="fill:white;fill-rule:nonzero;"/>
    </g>
    <g>
      <path d="M24.935,17.798l0,7.397l-2.465,0l0,-7.397l-2.026,0l0,-2.088l6.517,0l0,2.088l-2.026,0Z" style="fill:rgb(173,182,189);fill-rule:nonzero;"/>
      <path d="M30.521,19.949l0.465,0c0.487,0 0.86,-0.1 1.12,-0.302c0.26,-0.201 0.39,-0.49 0.39,-0.868c0,-0.377 -0.13,-0.666 -0.39,-0.868c-0.26,-0.201 -0.633,-0.302 -1.12,-0.302l-0.465,0l0,2.34Zm5.422,5.246l-3.07,0l-2.352,-3.648l0,3.648l-2.466,0l0,-9.485l3.837,0c0.528,0 0.989,0.077 1.384,0.233c0.394,0.155 0.719,0.366 0.975,0.635c0.255,0.268 0.448,0.578 0.578,0.931c0.13,0.352 0.195,0.729 0.195,1.132c0,0.721 -0.174,1.306 -0.522,1.755c-0.348,0.448 -0.862,0.752 -1.541,0.912l2.982,3.887Z" style="fill:rgb(173,182,189);fill-rule:nonzero;"/>
      <path d="M39.352,15.71l0,5.158c0,0.276 0.01,0.559 0.031,0.849c0.021,0.289 0.084,0.551 0.189,0.786c0.105,0.235 0.27,0.426 0.497,0.572c0.226,0.147 0.545,0.22 0.956,0.22c0.411,0 0.727,-0.073 0.95,-0.22c0.222,-0.146 0.387,-0.337 0.496,-0.572c0.11,-0.235 0.175,-0.497 0.195,-0.786c0.021,-0.29 0.032,-0.573 0.032,-0.849l0,-5.158l2.453,0l0,5.497c0,1.476 -0.338,2.554 -1.013,3.233c-0.675,0.68 -1.713,1.019 -3.113,1.019c-1.401,0 -2.441,-0.339 -3.12,-1.019c-0.679,-0.679 -1.019,-1.757 -1.019,-3.233l0,-5.497l2.466,0Z" style="fill:rgb(173,182,189);fill-rule:nonzero;"/>
      <path d="M46.711,25.195l1.61,-9.485l2.441,0l1.899,5.057l1.887,-5.057l2.441,0l1.61,9.485l-2.453,0l-0.818,-5.46l-2.239,5.46l-0.981,0l-2.126,-5.46l-0.818,5.46l-2.453,0Z" style="fill:rgb(173,182,189);fill-rule:nonzero;"/>
      <path d="M59.731,25.195l1.61,-9.485l2.441,0l1.899,5.057l1.887,-5.057l2.441,0l1.61,9.485l-2.453,0l-0.818,-5.46l-2.239,5.46l-0.981,0l-2.126,-5.46l-0.818,5.46l-2.453,0Z" style="fill:rgb(173,182,189);fill-rule:nonzero;"/>
      <path d="M75.33,20.452c0,0.378 0.071,0.726 0.214,1.045c0.142,0.318 0.335,0.595 0.579,0.83c0.243,0.235 0.526,0.417 0.849,0.547c0.323,0.13 0.664,0.195 1.025,0.195c0.361,0 0.702,-0.065 1.025,-0.195c0.323,-0.13 0.608,-0.312 0.856,-0.547c0.247,-0.235 0.442,-0.512 0.585,-0.83c0.142,-0.319 0.213,-0.667 0.213,-1.045c0,-0.377 -0.071,-0.725 -0.213,-1.044c-0.143,-0.318 -0.338,-0.595 -0.585,-0.83c-0.248,-0.235 -0.533,-0.417 -0.856,-0.547c-0.323,-0.13 -0.664,-0.195 -1.025,-0.195c-0.361,0 -0.702,0.065 -1.025,0.195c-0.323,0.13 -0.606,0.312 -0.849,0.547c-0.244,0.235 -0.437,0.512 -0.579,0.83c-0.143,0.319 -0.214,0.667 -0.214,1.044Zm-2.579,0c0,-0.704 0.13,-1.36 0.39,-1.968c0.26,-0.608 0.621,-1.139 1.082,-1.592c0.461,-0.453 1.013,-0.807 1.654,-1.063c0.642,-0.255 1.348,-0.383 2.12,-0.383c0.763,0 1.468,0.128 2.113,0.383c0.646,0.256 1.202,0.61 1.667,1.063c0.466,0.453 0.828,0.984 1.088,1.592c0.26,0.608 0.39,1.264 0.39,1.968c0,0.705 -0.13,1.361 -0.39,1.969c-0.26,0.608 -0.622,1.139 -1.088,1.591c-0.465,0.453 -1.021,0.808 -1.667,1.063c-0.645,0.256 -1.35,0.384 -2.113,0.384c-0.772,0 -1.478,-0.128 -2.12,-0.384c-0.641,-0.255 -1.193,-0.61 -1.654,-1.063c-0.461,-0.452 -0.822,-0.983 -1.082,-1.591c-0.26,-0.608 -0.39,-1.264 -0.39,-1.969Z" style="fill:rgb(173,182,189);fill-rule:nonzero;"/>
      <path d="M87.281,19.949l0.465,0c0.487,0 0.86,-0.1 1.12,-0.302c0.26,-0.201 0.39,-0.49 0.39,-0.868c0,-0.377 -0.13,-0.666 -0.39,-0.868c-0.26,-0.201 -0.633,-0.302 -1.12,-0.302l-0.465,0l0,2.34Zm5.422,5.246l-3.07,0l-2.352,-3.648l0,3.648l-2.466,0l0,-9.485l3.837,0c0.528,0 0.99,0.077 1.384,0.233c0.394,0.155 0.719,0.366 0.975,0.635c0.256,0.268 0.448,0.578 0.578,0.931c0.13,0.352 0.195,0.729 0.195,1.132c0,0.721 -0.174,1.306 -0.522,1.755c-0.348,0.448 -0.861,0.752 -1.541,0.912l2.982,3.887Z" style="fill:rgb(173,182,189);fill-rule:nonzero;"/>
      <path d="M100.477,19.622l3.007,-3.912l3.044,0l-3.761,4.491l4.113,4.994l-3.195,0l-3.208,-4.114l0,4.114l-2.466,0l0,-9.485l2.466,0l0,3.912Z" style="fill:rgb(173,182,189);fill-rule:nonzero;"/>
      <rect x="107.975" y="15.71" width="2.466" height="9.485" style="fill:rgb(173,182,189);fill-rule:nonzero;"/>
      <path d="M119.259,18.88c-0.571,-0.696 -1.275,-1.044 -2.114,-1.044c-0.369,0 -0.71,0.067 -1.025,0.201c-0.314,0.134 -0.585,0.317 -0.811,0.547c-0.227,0.231 -0.405,0.506 -0.535,0.824c-0.13,0.319 -0.195,0.663 -0.195,1.032c0,0.377 0.065,0.725 0.195,1.044c0.13,0.319 0.31,0.595 0.541,0.83c0.231,0.235 0.501,0.42 0.811,0.554c0.311,0.134 0.646,0.201 1.007,0.201c0.788,0 1.497,-0.335 2.126,-1.006l0,2.918l-0.252,0.088c-0.377,0.134 -0.729,0.233 -1.057,0.296c-0.327,0.063 -0.65,0.094 -0.968,0.094c-0.654,0 -1.281,-0.124 -1.881,-0.371c-0.6,-0.247 -1.128,-0.595 -1.585,-1.044c-0.457,-0.449 -0.824,-0.981 -1.101,-1.598c-0.276,-0.616 -0.415,-1.289 -0.415,-2.019c0,-0.729 0.136,-1.398 0.409,-2.006c0.273,-0.608 0.637,-1.132 1.094,-1.573c0.458,-0.44 0.988,-0.784 1.592,-1.031c0.604,-0.248 1.237,-0.371 1.899,-0.371c0.378,0 0.749,0.039 1.114,0.119c0.365,0.08 0.748,0.204 1.151,0.371l0,2.944Z" style="fill:rgb(173,182,189);fill-rule:nonzero;"/>
      <path d="M123.687,19.622l3.006,-3.912l3.045,0l-3.762,4.491l4.114,4.994l-3.195,0l-3.208,-4.114l0,4.114l-2.466,0l0,-9.485l2.466,0l0,3.912Z" style="fill:rgb(173,182,189);fill-rule:nonzero;"/>
    </g>
    <g id="text9293-43" serif:id="text9293-4">
      <path d="M12.46,151.914l0.315,0c0.238,0 0.45,-0.037 0.637,-0.112c0.186,-0.075 0.344,-0.177 0.472,-0.308c0.129,-0.131 0.227,-0.286 0.294,-0.466c0.068,-0.179 0.102,-0.376 0.102,-0.591c0,-0.21 -0.035,-0.406 -0.105,-0.588c-0.07,-0.182 -0.169,-0.338 -0.298,-0.469c-0.128,-0.131 -0.286,-0.233 -0.472,-0.308c-0.187,-0.075 -0.397,-0.112 -0.63,-0.112l-0.315,0l0,2.954Zm-1.372,-4.116l2.03,0c0.359,0 0.696,0.072 1.011,0.217c0.315,0.145 0.591,0.337 0.826,0.577c0.236,0.241 0.421,0.521 0.557,0.84c0.135,0.32 0.203,0.655 0.203,1.005c0,0.345 -0.067,0.678 -0.2,0.997c-0.133,0.32 -0.317,0.601 -0.553,0.844c-0.235,0.243 -0.511,0.436 -0.826,0.581c-0.315,0.145 -0.654,0.217 -1.018,0.217l-2.03,0l0,-5.278Z" style="fill:white;fill-rule:nonzero;"/>
      <path d="M19.593,148.96l-1.631,0l0,0.882l1.54,0l0,1.162l-1.54,0l0,0.91l1.631,0l0,1.162l-3.003,0l0,-5.278l3.003,0l0,1.162Z" style="fill:white;fill-rule:nonzero;"/>
      <path d="M24.381,149.562c-0.318,-0.387 -0.71,-0.581 -1.176,-0.581c-0.206,0 -0.396,0.037 -0.571,0.112c-0.175,0.075 -0.325,0.176 -0.451,0.304c-0.126,0.129 -0.225,0.282 -0.298,0.459c-0.072,0.177 -0.108,0.369 -0.108,0.574c0,0.21 0.036,0.404 0.108,0.581c0.073,0.177 0.173,0.331 0.301,0.462c0.129,0.131 0.279,0.233 0.452,0.308c0.172,0.075 0.359,0.112 0.56,0.112c0.438,0 0.833,-0.187 1.183,-0.56l0,1.624l-0.14,0.049c-0.21,0.075 -0.406,0.129 -0.588,0.164c-0.182,0.035 -0.362,0.053 -0.539,0.053c-0.364,0 -0.713,-0.069 -1.047,-0.207c-0.333,-0.137 -0.627,-0.331 -0.882,-0.581c-0.254,-0.249 -0.458,-0.546 -0.612,-0.889c-0.154,-0.343 -0.231,-0.717 -0.231,-1.123c0,-0.406 0.076,-0.778 0.227,-1.117c0.152,-0.338 0.355,-0.63 0.609,-0.875c0.255,-0.245 0.55,-0.436 0.886,-0.574c0.336,-0.137 0.688,-0.206 1.057,-0.206c0.21,0 0.416,0.022 0.619,0.066c0.203,0.045 0.417,0.114 0.641,0.207l0,1.638Z" style="fill:white;fill-rule:nonzero;"/>
      <path d="M28.245,151.116l-0.616,-1.757l-0.616,1.757l1.232,0Zm0.364,1.043l-1.96,0l-0.315,0.917l-1.463,0l2.009,-5.278l1.498,0l2.009,5.278l-1.463,0l-0.315,-0.917Z" style="fill:white;fill-rule:nonzero;"/>
      <path d="M31.766,150.542l-1.925,-2.744l1.638,0l0.98,1.442l0.973,-1.442l1.638,0l-1.932,2.744l0,2.534l-1.372,0l0,-2.534Z" style="fill:white;fill-rule:nonzero;"/>
    </g>
    <g id="text9293-44" serif:id="text9293-4">
      <path d="M19.577,93.696l0.301,0c0.345,0 0.592,-0.045 0.742,-0.133c0.149,-0.089 0.224,-0.231 0.224,-0.427c0,-0.196 -0.075,-0.339 -0.224,-0.427c-0.15,-0.089 -0.397,-0.133 -0.742,-0.133l-0.301,0l0,1.12Zm0,-2.142l0.252,0c0.429,0 0.644,-0.171 0.644,-0.511c0,-0.341 -0.215,-0.511 -0.644,-0.511l-0.252,0l0,1.022Zm-1.372,-2.072l2.044,0c0.485,0 0.854,0.116 1.106,0.35c0.252,0.233 0.378,0.569 0.378,1.008c0,0.266 -0.048,0.486 -0.144,0.661c-0.096,0.175 -0.241,0.323 -0.437,0.445c0.196,0.037 0.362,0.094 0.5,0.171c0.138,0.077 0.25,0.172 0.336,0.284c0.086,0.112 0.148,0.238 0.186,0.378c0.037,0.14 0.056,0.289 0.056,0.448c0,0.247 -0.044,0.466 -0.13,0.658c-0.086,0.191 -0.208,0.352 -0.364,0.483c-0.156,0.13 -0.346,0.228 -0.57,0.294c-0.224,0.065 -0.476,0.098 -0.756,0.098l-2.205,0l0,-5.278Z" style="fill:white;fill-rule:nonzero;"/>
      <path d="M26.052,90.644l-1.631,0l0,0.882l1.54,0l0,1.162l-1.54,0l0,0.91l1.631,0l0,1.162l-3.003,0l0,-5.278l3.003,0l0,1.162Z" style="fill:white;fill-rule:nonzero;"/>
      <path d="M27.039,94.76l0,-5.278l1.372,0l2.534,3.227l0,-3.227l1.365,0l0,5.278l-1.365,0l-2.534,-3.227l0,3.227l-1.372,0Z" style="fill:white;fill-rule:nonzero;"/>
      <path d="M34.788,93.598l0.315,0c0.238,0 0.45,-0.038 0.637,-0.112c0.186,-0.075 0.344,-0.178 0.472,-0.308c0.128,-0.131 0.226,-0.286 0.294,-0.466c0.068,-0.18 0.102,-0.377 0.102,-0.591c0,-0.21 -0.035,-0.406 -0.105,-0.588c-0.07,-0.182 -0.17,-0.339 -0.298,-0.469c-0.128,-0.131 -0.286,-0.234 -0.472,-0.308c-0.187,-0.075 -0.397,-0.112 -0.63,-0.112l-0.315,0l0,2.954Zm-1.372,-4.116l2.03,0c0.359,0 0.696,0.072 1.011,0.217c0.315,0.144 0.59,0.337 0.826,0.577c0.236,0.24 0.421,0.52 0.557,0.84c0.135,0.32 0.203,0.655 0.203,1.005c0,0.345 -0.067,0.677 -0.2,0.997c-0.133,0.32 -0.317,0.601 -0.553,0.844c-0.236,0.242 -0.511,0.436 -0.826,0.581c-0.315,0.144 -0.654,0.217 -1.018,0.217l-2.03,0l0,-5.278Z" style="fill:white;fill-rule:nonzero;"/>
    </g>
    <g id="text9293-45" serif:id="text9293-4">
      <path d="M115.207,90.644l0,4.116l-1.372,0l0,-4.116l-1.127,0l0,-1.162l3.626,0l0,1.162l-1.127,0Z" style="fill:white;fill-rule:nonzero;"/>
      <rect x="116.943" y="89.482" width="1.372" height="5.278" style="fill:white;fill-rule:nonzero;"/>
      <path d="M119.183,94.76l0.896,-5.278l1.358,0l1.057,2.814l1.05,-2.814l1.358,0l0.896,5.278l-1.365,0l-0.455,-3.038l-1.246,3.038l-0.546,0l-1.183,-3.038l-0.455,3.038l-1.365,0Z" style="fill:white;fill-rule:nonzero;"/>
      <path d="M129.669,90.644l-1.631,0l0,0.882l1.54,0l0,1.162l-1.54,0l0,0.91l1.631,0l0,1.162l-3.003,0l0,-5.278l3.003,0l0,1.162Z" style="fill:white;fill-rule:nonzero;"/>
    </g>
    <path d="M144.022,254.4c0,-7.948 -6.453,-14.4 -14.4,-14.4l-109.2,0c-7.948,0 -14.4,6.452 -14.4,14.4l0,43.2c0,7.948 6.452,14.4 14.4,14.4l109.2,0c7.947,0 14.4,-6.452 14.4,-14.4l0,-43.2Z" style="fill:url(#_Linear2);"/>
    <path d="M143,254.2c0,-7.837 -6.363,-14.2 -14.2,-14.2l-107.6,0c-7.837,0 -14.2,6.363 -14.2,14.2l0,42.6c0,7.837 6.363,14.2 14.2,14.2l107.6,0c7.837,0 14.2,-6.363 14.2,-14.2l0,-42.6Z" style="fill:rgb(21,30,39);"/>
    <g id="text9293-46" serif:id="text9293-4">
      <path d="M48.46,248.02l0.315,0c0.238,0 0.45,-0.037 0.637,-0.112c0.186,-0.074 0.344,-0.177 0.472,-0.308c0.129,-0.13 0.227,-0.285 0.294,-0.465c0.068,-0.18 0.102,-0.377 0.102,-0.592c0,-0.21 -0.035,-0.406 -0.105,-0.588c-0.07,-0.182 -0.169,-0.338 -0.298,-0.469c-0.128,-0.13 -0.286,-0.233 -0.472,-0.308c-0.187,-0.074 -0.397,-0.112 -0.63,-0.112l-0.315,0l0,2.954Zm-1.372,-4.116l2.03,0c0.359,0 0.696,0.073 1.011,0.217c0.315,0.145 0.591,0.338 0.826,0.578c0.236,0.24 0.421,0.52 0.557,0.84c0.135,0.32 0.203,0.654 0.203,1.004c0,0.346 -0.067,0.678 -0.2,0.998c-0.133,0.32 -0.317,0.601 -0.553,0.843c-0.235,0.243 -0.511,0.437 -0.826,0.581c-0.315,0.145 -0.654,0.217 -1.018,0.217l-2.03,0l0,-5.278Z" style="fill:white;fill-rule:nonzero;"/>
      <path d="M55.593,245.066l-1.631,0l0,0.882l1.54,0l0,1.162l-1.54,0l0,0.91l1.631,0l0,1.162l-3.003,0l0,-5.278l3.003,0l0,1.162Z" style="fill:white;fill-rule:nonzero;"/>
      <path d="M60.381,245.668c-0.318,-0.387 -0.71,-0.581 -1.176,-0.581c-0.206,0 -0.396,0.038 -0.571,0.112c-0.175,0.075 -0.325,0.177 -0.451,0.305c-0.126,0.128 -0.225,0.281 -0.298,0.458c-0.072,0.178 -0.108,0.369 -0.108,0.574c0,0.21 0.036,0.404 0.108,0.581c0.073,0.178 0.173,0.332 0.301,0.462c0.129,0.131 0.279,0.234 0.452,0.308c0.172,0.075 0.359,0.112 0.56,0.112c0.438,0 0.833,-0.186 1.183,-0.56l0,1.624l-0.14,0.049c-0.21,0.075 -0.406,0.13 -0.588,0.165c-0.182,0.035 -0.362,0.052 -0.539,0.052c-0.364,0 -0.713,-0.068 -1.047,-0.206c-0.333,-0.138 -0.627,-0.331 -0.882,-0.581c-0.254,-0.25 -0.458,-0.546 -0.612,-0.889c-0.154,-0.343 -0.231,-0.718 -0.231,-1.124c0,-0.406 0.076,-0.778 0.227,-1.116c0.152,-0.338 0.355,-0.63 0.609,-0.875c0.255,-0.245 0.55,-0.436 0.886,-0.574c0.336,-0.138 0.688,-0.207 1.057,-0.207c0.21,0 0.416,0.023 0.619,0.067c0.203,0.044 0.417,0.113 0.641,0.206l0,1.638Z" style="fill:white;fill-rule:nonzero;"/>
      <path d="M64.245,247.222l-0.616,-1.757l-0.616,1.757l1.232,0Zm0.364,1.043l-1.96,0l-0.315,0.917l-1.463,0l2.009,-5.278l1.498,0l2.009,5.278l-1.463,0l-0.315,-0.917Z" style="fill:white;fill-rule:nonzero;"/>
      <path d="M67.766,246.648l-1.925,-2.744l1.638,0l0.98,1.442l0.973,-1.442l1.638,0l-1.932,2.744l0,2.534l-1.372,0l0,-2.534Z" style="fill:white;fill-rule:nonzero;"/>
    </g>
    <g>
      <path d="M79.485,165.001l18.352,-10.307c0,0 0.573,-0.352 1.017,-0.961c0.414,-0.568 0.686,-1.338 0.686,-1.338l8.126,-44.065c-0.003,-0.061 0.024,-0.166 0.034,-0.227c0.387,-2.25 1.633,-4.051 3.527,-4.051c0.063,0 0.126,0.002 0.188,0.006l0,-0.006l32.405,0c0,0 0.232,0.01 0.349,0.01c1.683,0 3.049,1.376 3.049,3.095c0,0.305 0.011,0.665 0,0.946l0.009,0l0,119.454c0,0 -0.009,0.717 -0.009,1.019c0,1.719 -1.47,3.161 -3.153,3.161c-0.057,0 -0.187,0 -0.187,0l-63.06,0c0,0 -0.309,-0.022 -0.457,-0.022c-1.683,0 -3.006,-1.248 -3.006,-2.968c0,-0.274 -0.01,-0.981 -0.01,-0.981l0,-58.146l0.01,0c-0.018,-0.449 -0.018,-1.055 0.074,-1.553c0.145,-0.786 0.753,-2.397 2.056,-3.066Z" style="fill:rgb(140,140,140);"/>
      <path d="M79.487,164.71l18.352,-10.308c0,0 0.573,-0.351 1.017,-0.961c0.414,-0.568 0.687,-1.338 0.687,-1.338l8.125,-44.065c-0.002,-0.061 0.024,-0.165 0.035,-0.227c0.387,-2.25 1.633,-4.051 3.527,-4.051c0.063,0 0.125,0.002 0.187,0.006l0,-0.006l32.405,0c0,0 0.233,0.01 0.35,0.01c1.682,0 3.048,1.376 3.048,3.095c0,0.305 0.012,0.665 0,0.946l0.01,0l0,119.454c0,0 -0.01,0.718 -0.01,1.019c0,1.72 -1.47,3.162 -3.152,3.162c-0.058,0 -0.187,0 -0.187,0l-63.061,0c0,0 -0.309,-0.023 -0.457,-0.023c-1.682,0 -3.006,-1.248 -3.006,-2.967c0,-0.275 -0.01,-0.982 -0.01,-0.982l0,-58.146l0.01,0c-0.018,-0.448 -0.018,-1.055 0.074,-1.552c0.146,-0.787 0.753,-2.398 2.056,-3.066Z" style="fill:url(#_Linear3);"/>
    </g>
    <path d="M80.343,164.665l17.845,-10.211c0,0 0.557,-0.348 0.989,-0.952c0.402,-0.563 0.667,-1.326 0.667,-1.326l7.902,-43.655c-0.003,-0.061 0.023,-0.165 0.033,-0.225c0.377,-2.23 1.588,-4.014 3.43,-4.014c0.061,0 0.122,0.002 0.182,0.006l0,-0.006l31.511,0c0,0 0.226,0.01 0.34,0.01c1.636,0 2.964,1.363 2.964,3.066c0,0.303 0.012,0.659 0,0.938l0.01,0l0,118.344c0,0 -0.01,0.711 -0.01,1.01c0,1.703 -1.429,3.132 -3.065,3.132c-0.056,0 -0.182,0 -0.182,0l-56.611,0c0,0 -5.01,-0.022 -5.154,-0.022c-1.636,0 -2.923,-1.237 -2.923,-2.94c0,-0.272 -0.01,-5.029 -0.01,-5.029l0,-53.55l0.01,0c-0.017,-0.444 -0.017,-1.045 0.072,-1.538c0.142,-0.779 0.732,-2.375 2,-3.038Z" style="fill:rgb(21,30,39);"/>
    <g id="text9293-47" serif:id="text9293-4">
      <path d="M121.623,245.107l0,4.116l-1.372,0l0,-4.116l-1.127,0l0,-1.162l3.626,0l0,1.162l-1.127,0Z" style="fill:white;fill-rule:nonzero;"/>
      <path d="M124.976,246.689l-1.925,-2.744l1.638,0l0.98,1.442l0.973,-1.442l1.638,0l-1.932,2.744l0,2.534l-1.372,0l0,-2.534Z" style="fill:white;fill-rule:nonzero;"/>
      <path d="M130.135,246.367l0.455,0c0.504,0 0.756,-0.219 0.756,-0.658c0,-0.439 -0.252,-0.658 -0.756,-0.658l-0.455,0l0,1.316Zm0,2.856l-1.372,0l0,-5.278l2.184,0c0.593,0 1.047,0.154 1.362,0.462c0.315,0.308 0.472,0.742 0.472,1.302c0,0.56 -0.157,0.994 -0.472,1.302c-0.315,0.308 -0.769,0.462 -1.362,0.462l-0.812,0l0,1.75Z" style="fill:white;fill-rule:nonzero;"/>
      <path d="M136.512,245.107l-1.631,0l0,0.882l1.54,0l0,1.162l-1.54,0l0,0.91l1.631,0l0,1.162l-3.003,0l0,-5.278l3.003,0l0,1.162Z" style="fill:white;fill-rule:nonzero;"/>
    </g>
    <g id="text9293-48" serif:id="text9293-4">
      <path d="M102.929,211.427l0,4.116l-1.372,0l0,-4.116l-1.127,0l0,-1.162l3.626,0l0,1.162l-1.127,0Z" style="fill:white;fill-rule:nonzero;"/>
      <path d="M106.282,213.009l-1.925,-2.744l1.638,0l0.98,1.442l0.973,-1.442l1.638,0l-1.932,2.744l0,2.534l-1.372,0l0,-2.534Z" style="fill:white;fill-rule:nonzero;"/>
      <path d="M111.441,212.687l0.455,0c0.504,0 0.756,-0.219 0.756,-0.658c0,-0.438 -0.252,-0.658 -0.756,-0.658l-0.455,0l0,1.316Zm0,2.856l-1.372,0l0,-5.278l2.184,0c0.593,0 1.047,0.154 1.362,0.462c0.315,0.308 0.472,0.742 0.472,1.302c0,0.56 -0.157,0.994 -0.472,1.302c-0.315,0.308 -0.769,0.462 -1.362,0.462l-0.812,0l0,1.75Z" style="fill:white;fill-rule:nonzero;"/>
      <path d="M117.818,211.427l-1.631,0l0,0.882l1.54,0l0,1.162l-1.54,0l0,0.91l1.631,0l0,1.162l-3.003,0l0,-5.278l3.003,0l0,1.162Z" style="fill:white;fill-rule:nonzero;"/>
    </g>
    <g id="text9293-49" serif:id="text9293-4">
      <path d="M98.088,227.543l0,-5.278l1.372,0l2.534,3.227l0,-3.227l1.365,0l0,5.278l-1.365,0l-2.534,-3.227l0,3.227l-1.372,0Z" style="fill:rgb(179,179,179);fill-rule:nonzero;"/>
      <path d="M105.725,224.904c0,0.21 0.04,0.404 0.119,0.581c0.079,0.178 0.187,0.332 0.322,0.462c0.135,0.131 0.293,0.233 0.473,0.305c0.179,0.072 0.369,0.108 0.57,0.108c0.201,0 0.391,-0.036 0.571,-0.108c0.179,-0.072 0.338,-0.174 0.476,-0.305c0.137,-0.13 0.246,-0.284 0.325,-0.462c0.079,-0.177 0.119,-0.371 0.119,-0.581c0,-0.21 -0.04,-0.403 -0.119,-0.581c-0.079,-0.177 -0.188,-0.331 -0.325,-0.462c-0.138,-0.13 -0.297,-0.232 -0.476,-0.304c-0.18,-0.072 -0.37,-0.109 -0.571,-0.109c-0.201,0 -0.391,0.037 -0.57,0.109c-0.18,0.072 -0.338,0.174 -0.473,0.304c-0.135,0.131 -0.243,0.285 -0.322,0.462c-0.079,0.178 -0.119,0.371 -0.119,0.581Zm-1.435,0c0,-0.392 0.072,-0.757 0.217,-1.095c0.145,-0.338 0.345,-0.634 0.602,-0.886c0.257,-0.252 0.564,-0.449 0.921,-0.591c0.357,-0.142 0.75,-0.214 1.179,-0.214c0.425,0 0.817,0.072 1.176,0.214c0.359,0.142 0.669,0.339 0.928,0.591c0.259,0.252 0.46,0.548 0.605,0.886c0.145,0.338 0.217,0.703 0.217,1.095c0,0.392 -0.072,0.758 -0.217,1.096c-0.145,0.338 -0.346,0.633 -0.605,0.885c-0.259,0.252 -0.569,0.45 -0.928,0.592c-0.359,0.142 -0.751,0.213 -1.176,0.213c-0.429,0 -0.822,-0.071 -1.179,-0.213c-0.357,-0.142 -0.664,-0.34 -0.921,-0.592c-0.257,-0.252 -0.457,-0.547 -0.602,-0.885c-0.145,-0.338 -0.217,-0.704 -0.217,-1.096Z" style="fill:rgb(179,179,179);fill-rule:nonzero;"/>
      <rect x="111.003" y="222.265" width="1.372" height="5.278" style="fill:rgb(179,179,179);fill-rule:nonzero;"/>
      <path d="M116.379,223.616c-0.149,-0.121 -0.299,-0.211 -0.448,-0.269c-0.149,-0.058 -0.294,-0.088 -0.434,-0.088c-0.177,0 -0.322,0.042 -0.434,0.126c-0.112,0.084 -0.168,0.194 -0.168,0.329c0,0.094 0.028,0.171 0.084,0.231c0.056,0.061 0.13,0.114 0.221,0.158c0.091,0.044 0.193,0.083 0.308,0.115c0.114,0.033 0.227,0.068 0.339,0.105c0.448,0.15 0.776,0.349 0.984,0.599c0.207,0.25 0.311,0.575 0.311,0.976c0,0.271 -0.045,0.516 -0.136,0.735c-0.091,0.22 -0.224,0.408 -0.399,0.564c-0.175,0.156 -0.39,0.278 -0.644,0.364c-0.255,0.086 -0.543,0.129 -0.865,0.129c-0.667,0 -1.286,-0.198 -1.855,-0.595l0.588,-1.106c0.205,0.182 0.408,0.318 0.609,0.406c0.201,0.089 0.399,0.133 0.595,0.133c0.224,0 0.391,-0.051 0.501,-0.154c0.109,-0.102 0.164,-0.219 0.164,-0.35c0,-0.079 -0.014,-0.148 -0.042,-0.206c-0.028,-0.058 -0.075,-0.112 -0.14,-0.161c-0.065,-0.049 -0.15,-0.095 -0.255,-0.137c-0.105,-0.042 -0.233,-0.088 -0.382,-0.14c-0.177,-0.056 -0.351,-0.117 -0.521,-0.185c-0.171,-0.068 -0.322,-0.158 -0.455,-0.27c-0.133,-0.112 -0.241,-0.253 -0.322,-0.423c-0.082,-0.17 -0.123,-0.386 -0.123,-0.648c0,-0.261 0.043,-0.498 0.13,-0.71c0.086,-0.212 0.207,-0.394 0.364,-0.546c0.156,-0.152 0.347,-0.27 0.574,-0.354c0.226,-0.084 0.479,-0.126 0.759,-0.126c0.261,0 0.534,0.037 0.819,0.109c0.285,0.072 0.558,0.178 0.819,0.318l-0.546,1.071Z" style="fill:rgb(179,179,179);fill-rule:nonzero;"/>
      <path d="M121.006,223.427l-1.631,0l0,0.882l1.54,0l0,1.162l-1.54,0l0,0.91l1.631,0l0,1.162l-3.003,0l0,-5.278l3.003,0l0,1.162Z" style="fill:rgb(179,179,179);fill-rule:nonzero;"/>
    </g>
    <g>
      <circle cx="133.47" cy="7.5" r="6.5" style="fill:rgb(98,98,98);"/>
      <ellipse cx="133.625" cy="7.674" rx="6.311" ry="6.285" style="fill:rgb(62,62,62);"/>
      <circle cx="133.47" cy="7.5" r="6.067" style="fill:rgb(125,125,125);"/>
      <circle cx="133.5" cy="7.5" r="5" style="fill:none;stroke:rgb(102,102,102);stroke-width:0.85px;stroke-linecap:round;stroke-linejoin:round;stroke-miterlimit:1.5;"/>
      <ellipse cx="133.432" cy="7.428" rx="4.276" ry="4.297" style="fill:none;stroke:rgb(102,102,102);stroke-opacity:0.486275;stroke-width:0.85px;stroke-linecap:round;stroke-linejoin:round;stroke-miterlimit:1.5;"/>
      <ellipse cx="133.43" cy="7.425" rx="3.423" ry="3.455" style="fill:none;stroke:rgb(102,102,102);stroke-opacity:0.305882;stroke-width:0.85px;stroke-linecap:round;stroke-linejoin:round;stroke-miterlimit:1.5;"/>
      <g>
        <path d="M132.784,9.227l-1.01,1.117c-0.14,0.155 -0.344,0.298 -0.537,0.283c-0.137,-0.012 -0.267,-0.138 -0.377,-0.237l-0.003,-0.002c-0.113,-0.103 -0.253,-0.236 -0.276,-0.376c-0.03,-0.188 0.093,-0.387 0.23,-0.539l1.01,-1.117c0.613,-0.507 0.59,-1.041 -0.083,-1.563l-1.107,-1c-0.16,-0.146 -0.329,-0.306 -0.305,-0.506c0.015,-0.126 0.165,-0.296 0.255,-0.398l0,0l0,0c0.002,-0.002 0.003,-0.003 0.004,-0.005l0.008,-0.008c0.09,-0.1 0.235,-0.237 0.357,-0.266c0.2,-0.048 0.388,0.072 0.552,0.22l1.133,1.024c0.558,0.524 1.083,0.597 1.521,-0.081l1.01,-1.117c0.119,-0.132 0.308,-0.263 0.474,-0.272c0.165,-0.008 0.307,0.106 0.44,0.226l0.002,0.002c0.134,0.121 0.273,0.267 0.281,0.433c0.007,0.165 -0.116,0.35 -0.235,0.482l-1.009,1.117c-0.605,0.604 -0.516,1.108 0.072,1.521l1.134,1.024c0.154,0.14 0.293,0.34 0.278,0.533c-0.011,0.136 -0.134,0.267 -0.233,0.376l-0.007,0.009c-0.002,0.001 -0.003,0.003 -0.004,0.004l0,0l0,0c-0.121,0.131 -0.234,0.226 -0.399,0.233c-0.162,0.006 -0.376,-0.074 -0.506,-0.192l-1.106,-1c-0.521,-0.648 -1.057,-0.655 -1.564,0.075Z" style="fill:rgb(43,43,43);stroke:rgb(28,28,28);stroke-width:0.25px;stroke-linejoin:round;stroke-miterlimit:1.41421;"/>
        <path d="M132.994,8.791l-0.741,0.82c-0.103,0.114 -0.254,0.217 -0.402,0.2c-0.105,-0.012 -0.208,-0.112 -0.294,-0.19l-0.002,-0.001c-0.089,-0.081 -0.2,-0.186 -0.221,-0.292c-0.028,-0.143 0.061,-0.291 0.162,-0.402l0.74,-0.82c0.454,-0.368 0.422,-0.773 -0.105,-1.186l-0.871,-0.787c-0.126,-0.115 -0.259,-0.241 -0.246,-0.392c0.008,-0.095 0.118,-0.22 0.184,-0.295l0,0l0,0c0.001,-0.001 0.002,-0.002 0.003,-0.003l0.006,-0.006c0.066,-0.073 0.173,-0.173 0.265,-0.192c0.151,-0.031 0.298,0.065 0.427,0.181l0.892,0.807c0.44,0.411 0.842,0.48 1.158,-0.021l0.741,-0.82c0.087,-0.097 0.228,-0.191 0.354,-0.193c0.126,-0.002 0.238,0.088 0.342,0.183l0.002,0.002c0.105,0.095 0.215,0.208 0.225,0.335c0.01,0.125 -0.078,0.262 -0.166,0.358l-0.74,0.82c-0.446,0.442 -0.364,0.826 0.096,1.154l0.892,0.807c0.121,0.109 0.233,0.265 0.226,0.41c-0.005,0.103 -0.095,0.199 -0.167,0.279l-0.006,0.006c-0.001,0.001 -0.002,0.003 -0.003,0.004l0,0l0,0c-0.088,0.095 -0.172,0.165 -0.298,0.165c-0.123,0.001 -0.289,-0.066 -0.391,-0.158l-0.871,-0.787c-0.414,-0.505 -0.823,-0.525 -1.191,0.014Z" style="fill:rgb(149,149,149);fill-opacity:0.188235;"/>
      </g>
    </g>
    <g>
      <circle cx="16.47" cy="7.5" r="6.5" style="fill:rgb(98,98,98);"/>
      <ellipse cx="16.625" cy="7.674" rx="6.311" ry="6.285" style="fill:rgb(62,62,62);"/>
      <circle cx="16.47" cy="7.5" r="6.067" style="fill:rgb(125,125,125);"/>
      <circle cx="16.5" cy="7.5" r="5" style="fill:none;stroke:rgb(102,102,102);stroke-width:0.85px;stroke-linecap:round;stroke-linejoin:round;stroke-miterlimit:1.5;"/>
      <ellipse cx="16.432" cy="7.428" rx="4.276" ry="4.297" style="fill:none;stroke:rgb(102,102,102);stroke-opacity:0.486275;stroke-width:0.85px;stroke-linecap:round;stroke-linejoin:round;stroke-miterlimit:1.5;"/>
      <ellipse cx="16.43" cy="7.425" rx="3.423" ry="3.455" style="fill:none;stroke:rgb(102,102,102);stroke-opacity:0.305882;stroke-width:0.85px;stroke-linecap:round;stroke-linejoin:round;stroke-miterlimit:1.5;"/>
      <g>
        <path d="M15.784,9.227l-1.01,1.117c-0.14,0.155 -0.344,0.298 -0.537,0.283c-0.137,-0.012 -0.267,-0.138 -0.377,-0.237l-0.003,-0.002c-0.113,-0.103 -0.253,-0.236 -0.276,-0.376c-0.03,-0.188 0.093,-0.387 0.23,-0.539l1.01,-1.117c0.613,-0.507 0.59,-1.041 -0.083,-1.563l-1.107,-1c-0.16,-0.146 -0.329,-0.306 -0.305,-0.506c0.015,-0.126 0.165,-0.296 0.255,-0.398l0,0l0,0c0.002,-0.002 0.003,-0.003 0.004,-0.005l0.008,-0.008c0.09,-0.1 0.235,-0.237 0.357,-0.266c0.2,-0.048 0.388,0.072 0.552,0.22l1.133,1.024c0.558,0.524 1.083,0.597 1.521,-0.081l1.01,-1.117c0.119,-0.132 0.308,-0.263 0.474,-0.272c0.165,-0.008 0.307,0.106 0.44,0.226l0.002,0.002c0.134,0.121 0.273,0.267 0.281,0.433c0.007,0.165 -0.116,0.35 -0.235,0.482l-1.009,1.117c-0.605,0.604 -0.516,1.108 0.072,1.521l1.134,1.024c0.154,0.14 0.293,0.34 0.278,0.533c-0.011,0.136 -0.134,0.267 -0.233,0.376l-0.007,0.009c-0.002,0.001 -0.003,0.003 -0.004,0.004l0,0l0,0c-0.121,0.131 -0.234,0.226 -0.399,0.233c-0.162,0.006 -0.376,-0.074 -0.506,-0.192l-1.106,-1c-0.521,-0.648 -1.057,-0.655 -1.564,0.075Z" style="fill:rgb(43,43,43);stroke:rgb(28,28,28);stroke-width:0.25px;stroke-linejoin:round;stroke-miterlimit:1.41421;"/>
        <path d="M15.994,8.791l-0.741,0.82c-0.103,0.114 -0.254,0.217 -0.402,0.2c-0.105,-0.012 -0.208,-0.112 -0.294,-0.19l-0.002,-0.001c-0.089,-0.081 -0.2,-0.186 -0.221,-0.292c-0.028,-0.143 0.061,-0.291 0.162,-0.402l0.74,-0.82c0.454,-0.368 0.422,-0.773 -0.105,-1.186l-0.871,-0.787c-0.126,-0.115 -0.259,-0.241 -0.246,-0.392c0.008,-0.095 0.118,-0.22 0.184,-0.295l0,0l0,0c0.001,-0.001 0.002,-0.002 0.003,-0.003l0.006,-0.006c0.066,-0.073 0.173,-0.173 0.265,-0.192c0.151,-0.031 0.298,0.065 0.427,0.181l0.892,0.807c0.44,0.411 0.842,0.48 1.158,-0.021l0.741,-0.82c0.087,-0.097 0.228,-0.191 0.354,-0.193c0.126,-0.002 0.238,0.088 0.342,0.183l0.002,0.002c0.105,0.095 0.215,0.208 0.225,0.335c0.01,0.125 -0.078,0.262 -0.166,0.358l-0.74,0.82c-0.446,0.442 -0.364,0.826 0.096,1.154l0.892,0.807c0.121,0.109 0.233,0.265 0.226,0.41c-0.005,0.103 -0.095,0.199 -0.167,0.279l-0.006,0.006c-0.001,0.001 -0.002,0.003 -0.003,0.004l0,0l0,0c-0.088,0.095 -0.172,0.165 -0.298,0.165c-0.123,0.001 -0.289,-0.066 -0.391,-0.158l-0.871,-0.787c-0.414,-0.505 -0.823,-0.525 -1.191,0.014Z" style="fill:rgb(149,149,149);fill-opacity:0.188235;"/>
      </g>
    </g>
    <g>
      <circle cx="133.47" cy="372.5" r="6.5" style="fill:rgb(98,98,98);"/>
      <ellipse cx="133.625" cy="372.674" rx="6.311" ry="6.285" style="fill:rgb(62,62,62);"/>
      <circle cx="133.47" cy="372.5" r="6.067" style="fill:rgb(125,125,125);"/>
      <circle cx="133.5" cy="372.5" r="5" style="fill:none;stroke:rgb(102,102,102);stroke-width:0.85px;stroke-linecap:round;stroke-linejoin:round;stroke-miterlimit:1.5;"/>
      <ellipse cx="133.432" cy="372.428" rx="4.276" ry="4.297" style="fill:none;stroke:rgb(102,102,102);stroke-opacity:0.486275;stroke-width:0.85px;stroke-linecap:round;stroke-linejoin:round;stroke-miterlimit:1.5;"/>
      <ellipse cx="133.43" cy="372.425" rx="3.423" ry="3.455" style="fill:none;stroke:rgb(102,102,102);stroke-opacity:0.305882;stroke-width:0.85px;stroke-linecap:round;stroke-linejoin:round;stroke-miterlimit:1.5;"/>
      <g>
        <path d="M132.784,374.227l-1.01,1.117c-0.14,0.155 -0.344,0.298 -0.537,0.283c-0.137,-0.012 -0.267,-0.138 -0.377,-0.237l-0.003,-0.002c-0.113,-0.103 -0.253,-0.236 -0.276,-0.376c-0.03,-0.188 0.093,-0.387 0.23,-0.539l1.01,-1.117c0.613,-0.507 0.59,-1.041 -0.083,-1.563l-1.107,-1c-0.16,-0.146 -0.329,-0.306 -0.305,-0.506c0.015,-0.126 0.165,-0.296 0.255,-0.398l0,0l0,0c0.002,-0.002 0.003,-0.003 0.004,-0.005l0.008,-0.008c0.09,-0.1 0.235,-0.237 0.357,-0.266c0.2,-0.048 0.388,0.072 0.552,0.22l1.133,1.024c0.558,0.524 1.083,0.597 1.521,-0.081l1.01,-1.117c0.119,-0.132 0.308,-0.263 0.474,-0.272c0.165,-0.008 0.307,0.106 0.44,0.226l0.002,0.002c0.134,0.121 0.273,0.267 0.281,0.433c0.007,0.165 -0.116,0.35 -0.235,0.482l-1.009,1.117c-0.605,0.604 -0.516,1.108 0.072,1.521l1.134,1.024c0.154,0.14 0.293,0.34 0.278,0.533c-0.011,0.136 -0.134,0.267 -0.233,0.376l-0.007,0.009c-0.002,0.001 -0.003,0.003 -0.004,0.004l0,0l0,0c-0.121,0.131 -0.234,0.226 -0.399,0.233c-0.162,0.006 -0.376,-0.074 -0.506,-0.192l-1.106,-1c-0.521,-0.648 -1.057,-0.655 -1.564,0.075Z" style="fill:rgb(43,43,43);stroke:rgb(28,28,28);stroke-width:0.25px;stroke-linejoin:round;stroke-miterlimit:1.41421;"/>
        <path d="M132.994,373.791l-0.741,0.82c-0.103,0.114 -0.254,0.217 -0.402,0.2c-0.105,-0.012 -0.208,-0.112 -0.294,-0.19l-0.002,-0.001c-0.089,-0.081 -0.2,-0.186 -0.221,-0.292c-0.028,-0.143 0.061,-0.291 0.162,-0.402l0.74,-0.82c0.454,-0.368 0.422,-0.773 -0.105,-1.186l-0.871,-0.787c-0.126,-0.115 -0.259,-0.241 -0.246,-0.392c0.008,-0.095 0.118,-0.22 0.184,-0.295l0,0l0,0c0.001,-0.001 0.002,-0.002 0.003,-0.003l0.006,-0.006c0.066,-0.073 0.173,-0.173 0.265,-0.192c0.151,-0.031 0.298,0.065 0.427,0.181l0.892,0.807c0.44,0.411 0.842,0.48 1.158,-0.021l0.741,-0.82c0.087,-0.097 0.228,-0.191 0.354,-0.193c0.126,-0.002 0.238,0.088 0.342,0.183l0.002,0.002c0.105,0.095 0.215,0.208 0.225,0.335c0.01,0.125 -0.078,0.262 -0.166,0.358l-0.74,0.82c-0.446,0.442 -0.364,0.826 0.096,1.154l0.892,0.807c0.121,0.109 0.233,0.265 0.226,0.41c-0.005,0.103 -0.095,0.199 -0.167,0.279l-0.006,0.006c-0.001,0.001 -0.002,0.003 -0.003,0.004l0,0l0,0c-0.088,0.095 -0.172,0.165 -0.298,0.165c-0.123,0.001 -0.289,-0.066 -0.391,-0.158l-0.871,-0.787c-0.414,-0.505 -0.823,-0.525 -1.191,0.014Z" style="fill:rgb(149,149,149);fill-opacity:0.188235;"/>
      </g>
    </g>
    <g>
      <circle cx="16.47" cy="372.5" r="6.5" style="fill:rgb(98,98,98);"/>
      <ellipse cx="16.625" cy="372.674" rx="6.311" ry="6.285" style="fill:rgb(62,62,62);"/>
      <circle cx="16.47" cy="372.5" r="6.067" style="fill:rgb(125,125,125);"/>
      <circle cx="16.5" cy="372.5" r="5" style="fill:none;stroke:rgb(102,102,102);stroke-width:0.85px;stroke-linecap:round;stroke-linejoin:round;stroke-miterlimit:1.5;"/>
      <ellipse cx="16.432" cy="372.428" rx="4.276" ry="4.297" style="fill:none;stroke:rgb(102,102,102);stroke-opacity:0.486275;stroke-width:0.85px;stroke-linecap:round;stroke-linejoin:round;stroke-miterlimit:1.5;"/>
      <ellipse cx="16.43" cy="372.425" rx="3.423" ry="3.455" style="fill:none;stroke:rgb(102,102,102);stroke-opacity:0.305882;stroke-width:0.85px;stroke-linecap:round;stroke-linejoin:round;stroke-miterlimit:1.5;"/>
      <g>
        <path d="M15.784,374.227l-1.01,1.117c-0.14,0.155 -0.344,0.298 -0.537,0.283c-0.137,-0.012 -0.267,-0.138 -0.377,-0.237l-0.003,-0.002c-0.113,-0.103 -0.253,-0.236 -0.276,-0.376c-0.03,-0.188 0.093,-0.387 0.23,-0.539l1.01,-1.117c0.613,-0.507 0.59,-1.041 -0.083,-1.563l-1.107,-1c-0.16,-0.146 -0.329,-0.306 -0.305,-0.506c0.015,-0.126 0.165,-0.296 0.255,-0.398l0,0l0,0c0.002,-0.002 0.003,-0.003 0.004,-0.005l0.008,-0.008c0.09,-0.1 0.235,-0.237 0.357,-0.266c0.2,-0.048 0.388,0.072 0.552,0.22l1.133,1.024c0.558,0.524 1.083,0.597 1.521,-0.081l1.01,-1.117c0.119,-0.132 0.308,-0.263 0.474,-0.272c0.165,-0.008 0.307,0.106 0.44,0.226l0.002,0.002c0.134,0.121 0.273,0.267 0.281,0.433c0.007,0.165 -0.116,0.35 -0.235,0.482l-1.009,1.117c-0.605,0.604 -0.516,1.108 0.072,1.521l1.134,1.024c0.154,0.14 0.293,0.34 0.278,0.533c-0.011,0.136 -0.134,0.267 -0.233,0.376l-0.007,0.009c-0.002,0.001 -0.003,0.003 -0.004,0.004l0,0l0,0c-0.121,0.131 -0.234,0.226 -0.399,0.233c-0.162,0.006 -0.376,-0.074 -0.506,-0.192l-1.106,-1c-0.521,-0.648 -1.057,-0.655 -1.564,0.075Z" style="fill:rgb(43,43,43);stroke:rgb(28,28,28);stroke-width:0.25px;stroke-linejoin:round;stroke-miterlimit:1.41421;"/>
        <path d="M15.994,373.791l-0.741,0.82c-0.103,0.114 -0.254,0.217 -0.402,0.2c-0.105,-0.012 -0.208,-0.112 -0.294,-0.19l-0.002,-0.001c-0.089,-0.081 -0.2,-0.186 -0.221,-0.292c-0.028,-0.143 0.061,-0.291 0.162,-0.402l0.74,-0.82c0.454,-0.368 0.422,-0.773 -0.105,-1.186l-0.871,-0.787c-0.126,-0.115 -0.259,-0.241 -0.246,-0.392c0.008,-0.095 0.118,-0.22 0.184,-0.295l0,0l0,0c0.001,-0.001 0.002,-0.002 0.003,-0.003l0.006,-0.006c0.066,-0.073 0.173,-0.173 0.265,-0.192c0.151,-0.031 0.298,0.065 0.427,0.181l0.892,0.807c0.44,0.411 0.842,0.48 1.158,-0.021l0.741,-0.82c0.087,-0.097 0.228,-0.191 0.354,-0.193c0.126,-0.002 0.238,0.088 0.342,0.183l0.002,0.002c0.105,0.095 0.215,0.208 0.225,0.335c0.01,0.125 -0.078,0.262 -0.166,0.358l-0.74,0.82c-0.446,0.442 -0.364,0.826 0.096,1.154l0.892,0.807c0.121,0.109 0.233,0.265 0.226,0.41c-0.005,0.103 -0.095,0.199 -0.167,0.279l-0.006,0.006c-0.001,0.001 -0.002,0.003 -0.003,0.004l0,0l0,0c-0.088,0.095 -0.172,0.165 -0.298,0.165c-0.123,0.001 -0.289,-0.066 -0.391,-0.158l-0.871,-0.787c-0.414,-0.505 -0.823,-0.525 -1.191,0.014Z" style="fill:rgb(149,149,149);fill-opacity:0.188235;"/>
      </g>
    </g>
    <g id="text9293-410" serif:id="text9293-4">
      <path d="M117.626,147.945l0,4.116l1.645,0l0,1.162l-3.017,0l0,-5.278l1.372,0Z" style="fill:white;fill-rule:nonzero;"/>
      <path d="M122.981,149.107l-1.631,0l0,0.882l1.54,0l0,1.162l-1.54,0l0,0.91l1.631,0l0,1.162l-3.003,0l0,-5.278l3.003,0l0,1.162Z" style="fill:white;fill-rule:nonzero;"/>
      <path d="M124.906,147.945l1.274,3.213l1.281,-3.213l1.491,0l-2.226,5.278l-1.092,0l-2.219,-5.278l1.491,0Z" style="fill:white;fill-rule:nonzero;"/>
      <path d="M132.508,149.107l-1.631,0l0,0.882l1.54,0l0,1.162l-1.54,0l0,0.91l1.631,0l0,1.162l-3.003,0l0,-5.278l3.003,0l0,1.162Z" style="fill:white;fill-rule:nonzero;"/>
      <path d="M134.867,147.945l0,4.116l1.645,0l0,1.162l-3.017,0l0,-5.278l1.372,0Z" style="fill:white;fill-rule:nonzero;"/>
    </g>
    <g id="text9293-411" serif:id="text9293-4">
      <path d="M84.007,243.945l0,4.116l1.645,0l0,1.162l-3.017,0l0,-5.278l1.372,0Z" style="fill:white;fill-rule:nonzero;"/>
      <path d="M89.362,245.107l-1.631,0l0,0.882l1.54,0l0,1.162l-1.54,0l0,0.91l1.631,0l0,1.162l-3.003,0l0,-5.278l3.003,0l0,1.162Z" style="fill:white;fill-rule:nonzero;"/>
      <path d="M91.287,243.945l1.274,3.213l1.281,-3.213l1.491,0l-2.226,5.278l-1.092,0l-2.219,-5.278l1.491,0Z" style="fill:white;fill-rule:nonzero;"/>
      <path d="M98.889,245.107l-1.631,0l0,0.882l1.54,0l0,1.162l-1.54,0l0,0.91l1.631,0l0,1.162l-3.003,0l0,-5.278l3.003,0l0,1.162Z" style="fill:white;fill-rule:nonzero;"/>
      <path d="M101.248,243.945l0,4.116l1.645,0l0,1.162l-3.017,0l0,-5.278l1.372,0Z" style="fill:white;fill-rule:nonzero;"/>
    </g>
    <path id="path2198" d="M130.325,196.298c5.878,-10.184 3.577,-23.245 -5.43,-30.804c-9.008,-7.555 -22.274,-7.555 -31.281,0c-9.008,7.559 -11.309,20.62 -5.431,30.804" style="fill:none;stroke:rgb(204,204,204);stroke-width:1.5px;stroke-linecap:round;stroke-miterlimit:4;"/>
    <g>
      <path id="path2105" d="M33.236,271.439c2.737,-4.742 1.664,-10.824 -2.533,-14.346c-4.194,-3.521 -10.373,-3.521 -14.566,0c-4.198,3.522 -5.271,9.604 -2.534,14.346l9.817,-5.666l9.816,5.666Z" style="fill:none;stroke:rgb(204,204,204);stroke-width:1px;stroke-linecap:round;stroke-miterlimit:4;"/>
      <path id="path2108" d="M32.863,272.636l0.024,4.409" style="fill:rgb(204,204,204);fill-rule:nonzero;stroke:rgb(204,204,204);stroke-width:1px;stroke-linecap:round;stroke-miterlimit:4;"/>
      <path id="path2111" d="M35.08,274.809l-4.409,0.02" style="fill:rgb(204,204,204);fill-rule:nonzero;stroke:rgb(204,204,204);stroke-width:1px;stroke-linecap:round;stroke-miterlimit:4;"/>
      <path id="path2114" d="M16.761,274.684l-4.414,0.02" style="fill:rgb(204,204,204);fill-rule:nonzero;stroke:rgb(204,204,204);stroke-width:1px;stroke-linecap:round;stroke-miterlimit:4;"/>
      <path id="path2117" d="M23.42,265.777l-0.024,-13.31" style="fill:none;stroke:rgb(204,204,204);stroke-width:1px;stroke-linecap:round;stroke-miterlimit:4;"/>
    </g>
    <g>
      <path id="path21051" serif:id="path2105" d="M68.236,271.439c2.737,-4.742 1.664,-10.824 -2.533,-14.346c-4.194,-3.521 -10.373,-3.521 -14.566,0c-4.198,3.522 -5.271,9.604 -2.534,14.346l9.817,-5.666l9.816,5.666Z" style="fill:none;stroke:rgb(204,204,204);stroke-width:1px;stroke-linecap:round;stroke-miterlimit:4;"/>
      <path id="path21081" serif:id="path2108" d="M67.863,272.636l0.024,4.409" style="fill:rgb(204,204,204);fill-rule:nonzero;stroke:rgb(204,204,204);stroke-width:1px;stroke-linecap:round;stroke-miterlimit:4;"/>
      <path id="path21111" serif:id="path2111" d="M70.08,274.809l-4.409,0.02" style="fill:rgb(204,204,204);fill-rule:nonzero;stroke:rgb(204,204,204);stroke-width:1px;stroke-linecap:round;stroke-miterlimit:4;"/>
      <path id="path21141" serif:id="path2114" d="M51.761,274.684l-4.414,0.02" style="fill:rgb(204,204,204);fill-rule:nonzero;stroke:rgb(204,204,204);stroke-width:1px;stroke-linecap:round;stroke-miterlimit:4;"/>
      <path id="path21171" serif:id="path2117" d="M58.42,265.777l-0.024,-13.31" style="fill:none;stroke:rgb(204,204,204);stroke-width:1px;stroke-linecap:round;stroke-miterlimit:4;"/>
    </g>
    <g>
      <path id="path21052" serif:id="path2105" d="M102.236,271.439c2.737,-4.742 1.664,-10.824 -2.533,-14.346c-4.194,-3.521 -10.373,-3.521 -14.566,0c-4.198,3.522 -5.271,9.604 -2.534,14.346l9.817,-5.666l9.816,5.666Z" style="fill:none;stroke:rgb(204,204,204);stroke-width:1px;stroke-linecap:round;stroke-miterlimit:4;"/>
      <path id="path21082" serif:id="path2108" d="M101.863,272.636l0.024,4.409" style="fill:rgb(204,204,204);fill-rule:nonzero;stroke:rgb(204,204,204);stroke-width:1px;stroke-linecap:round;stroke-miterlimit:4;"/>
      <path id="path21112" serif:id="path2111" d="M104.08,274.809l-4.409,0.02" style="fill:rgb(204,204,204);fill-rule:nonzero;stroke:rgb(204,204,204);stroke-width:1px;stroke-linecap:round;stroke-miterlimit:4;"/>
      <path id="path21142" serif:id="path2114" d="M85.761,274.684l-4.414,0.02" style="fill:rgb(204,204,204);fill-rule:nonzero;stroke:rgb(204,204,204);stroke-width:1px;stroke-linecap:round;stroke-miterlimit:4;"/>
      <path id="path21172" serif:id="path2117" d="M92.42,265.777l-0.024,-13.31" style="fill:none;stroke:rgb(204,204,204);stroke-width:1px;stroke-linecap:round;stroke-miterlimit:4;"/>
    </g>
    <g>
      <path id="path21053" serif:id="path2105" d="M137.236,271.439c2.737,-4.742 1.664,-10.824 -2.533,-14.346c-4.194,-3.521 -10.373,-3.521 -14.566,0c-4.198,3.522 -5.271,9.604 -2.534,14.346l9.817,-5.666l9.816,5.666Z" style="fill:none;stroke:rgb(204,204,204);stroke-width:1px;stroke-linecap:round;stroke-miterlimit:4;"/>
      <path id="path21083" serif:id="path2108" d="M136.863,272.636l0.024,4.409" style="fill:rgb(204,204,204);fill-rule:nonzero;stroke:rgb(204,204,204);stroke-width:1px;stroke-linecap:round;stroke-miterlimit:4;"/>
      <path id="path21113" serif:id="path2111" d="M139.08,274.809l-4.409,0.02" style="fill:rgb(204,204,204);fill-rule:nonzero;stroke:rgb(204,204,204);stroke-width:1px;stroke-linecap:round;stroke-miterlimit:4;"/>
      <path id="path21143" serif:id="path2114" d="M120.761,274.684l-4.414,0.02" style="fill:rgb(204,204,204);fill-rule:nonzero;stroke:rgb(204,204,204);stroke-width:1px;stroke-linecap:round;stroke-miterlimit:4;"/>
      <path id="path21173" serif:id="path2117" d="M127.42,265.777l-0.024,-13.31" style="fill:none;stroke:rgb(204,204,204);stroke-width:1px;stroke-linecap:round;stroke-miterlimit:4;"/>
    </g>
    <circle id="circle2204" cx="128.895" cy="205.054" r="3.706" style="fill:rgb(204,204,204);stroke:rgb(204,204,204);stroke-width:1px;stroke-miterlimit:4;"/>
    <g>
      <path id="path21981" serif:id="path2198" d="M96.093,113.641c5.878,-10.185 3.577,-23.246 -5.431,-30.805c-9.007,-7.555 -22.273,-7.555 -31.281,0c-9.007,7.559 -11.308,20.62 -5.43,30.805" style="fill:none;stroke:rgb(204,204,204);stroke-width:1.5px;stroke-linecap:round;stroke-miterlimit:4;"/>
      <circle id="circle2201" cx="56.882" cy="121.909" r="3.706" style="fill:none;stroke:rgb(204,204,204);stroke-width:1px;stroke-miterlimit:4;"/>
      <circle id="circle22041" serif:id="circle2204" cx="94.662" cy="121.396" r="3.706" style="fill:rgb(204,204,204);stroke:rgb(204,204,204);stroke-width:1px;stroke-miterlimit:4;"/>
    </g>
    <g id="text9293-412" serif:id="text9293-4">
      <path d="M31.989,216.255c-0.149,-0.121 -0.298,-0.211 -0.448,-0.269c-0.149,-0.058 -0.294,-0.088 -0.434,-0.088c-0.177,0 -0.322,0.042 -0.434,0.126c-0.112,0.084 -0.168,0.194 -0.168,0.329c0,0.094 0.028,0.171 0.084,0.231c0.056,0.061 0.13,0.114 0.221,0.158c0.091,0.044 0.193,0.083 0.308,0.115c0.114,0.033 0.227,0.068 0.339,0.105c0.448,0.15 0.776,0.349 0.984,0.599c0.207,0.25 0.311,0.575 0.311,0.976c0,0.271 -0.045,0.516 -0.136,0.735c-0.091,0.22 -0.224,0.408 -0.399,0.564c-0.175,0.156 -0.39,0.278 -0.644,0.364c-0.255,0.086 -0.543,0.129 -0.865,0.129c-0.667,0 -1.285,-0.198 -1.855,-0.595l0.588,-1.106c0.206,0.182 0.409,0.318 0.609,0.406c0.201,0.089 0.399,0.133 0.595,0.133c0.224,0 0.391,-0.051 0.501,-0.154c0.109,-0.102 0.164,-0.219 0.164,-0.35c0,-0.079 -0.014,-0.148 -0.042,-0.206c-0.028,-0.058 -0.074,-0.112 -0.14,-0.161c-0.065,-0.049 -0.15,-0.095 -0.255,-0.137c-0.105,-0.042 -0.232,-0.088 -0.382,-0.14c-0.177,-0.056 -0.351,-0.117 -0.521,-0.185c-0.171,-0.068 -0.322,-0.158 -0.455,-0.27c-0.133,-0.112 -0.241,-0.253 -0.322,-0.423c-0.082,-0.17 -0.123,-0.386 -0.123,-0.648c0,-0.261 0.043,-0.498 0.13,-0.71c0.086,-0.212 0.207,-0.394 0.364,-0.546c0.156,-0.152 0.347,-0.27 0.574,-0.354c0.226,-0.084 0.479,-0.126 0.759,-0.126c0.262,0 0.535,0.037 0.819,0.109c0.285,0.072 0.558,0.178 0.819,0.318l-0.546,1.071Z" style="fill:white;fill-rule:nonzero;"/>
      <path d="M34.985,216.941l1.981,0l0,-2.037l1.372,0l0,5.278l-1.372,0l0,-2.177l-1.981,0l0,2.177l-1.372,0l0,-5.278l1.372,0l0,2.037Z" style="fill:white;fill-rule:nonzero;"/>
      <path d="M42.314,218.222l-0.616,-1.757l-0.616,1.757l1.232,0Zm0.364,1.043l-1.96,0l-0.315,0.917l-1.463,0l2.009,-5.278l1.498,0l2.009,5.278l-1.463,0l-0.315,-0.917Z" style="fill:white;fill-rule:nonzero;"/>
      <path d="M46.43,217.326l0.455,0c0.504,0 0.756,-0.219 0.756,-0.658c0,-0.438 -0.252,-0.658 -0.756,-0.658l-0.455,0l0,1.316Zm0,2.856l-1.372,0l0,-5.278l2.184,0c0.593,0 1.047,0.154 1.362,0.462c0.315,0.308 0.472,0.742 0.472,1.302c0,0.56 -0.157,0.994 -0.472,1.302c-0.315,0.308 -0.769,0.462 -1.362,0.462l-0.812,0l0,1.75Z" style="fill:white;fill-rule:nonzero;"/>
      <path d="M52.807,216.066l-1.631,0l0,0.882l1.54,0l0,1.162l-1.54,0l0,0.91l1.631,0l0,1.162l-3.003,0l0,-5.278l3.003,0l0,1.162Z" style="fill:white;fill-rule:nonzero;"/>
    </g>
    <g id="text9293-413" serif:id="text9293-4">
      <path d="M14.224,245.255c-0.15,-0.121 -0.299,-0.211 -0.448,-0.269c-0.15,-0.058 -0.294,-0.088 -0.434,-0.088c-0.178,0 -0.322,0.042 -0.434,0.126c-0.112,0.084 -0.168,0.194 -0.168,0.329c0,0.094 0.028,0.171 0.084,0.231c0.056,0.061 0.129,0.114 0.22,0.158c0.091,0.044 0.194,0.083 0.308,0.115c0.115,0.033 0.228,0.068 0.34,0.105c0.448,0.15 0.776,0.349 0.983,0.599c0.208,0.25 0.312,0.575 0.312,0.976c0,0.271 -0.046,0.516 -0.137,0.735c-0.091,0.22 -0.224,0.408 -0.399,0.564c-0.175,0.156 -0.389,0.278 -0.644,0.364c-0.254,0.086 -0.542,0.129 -0.864,0.129c-0.668,0 -1.286,-0.198 -1.855,-0.595l0.588,-1.106c0.205,0.182 0.408,0.318 0.609,0.406c0.2,0.089 0.399,0.133 0.595,0.133c0.224,0 0.391,-0.051 0.5,-0.154c0.11,-0.102 0.165,-0.219 0.165,-0.35c0,-0.079 -0.014,-0.148 -0.042,-0.206c-0.028,-0.058 -0.075,-0.112 -0.14,-0.161c-0.066,-0.049 -0.151,-0.095 -0.256,-0.137c-0.105,-0.042 -0.232,-0.088 -0.381,-0.14c-0.178,-0.056 -0.351,-0.117 -0.522,-0.185c-0.17,-0.068 -0.322,-0.158 -0.455,-0.27c-0.133,-0.112 -0.24,-0.253 -0.322,-0.423c-0.081,-0.17 -0.122,-0.386 -0.122,-0.648c0,-0.261 0.043,-0.498 0.129,-0.71c0.087,-0.212 0.208,-0.394 0.364,-0.546c0.157,-0.152 0.348,-0.27 0.574,-0.354c0.227,-0.084 0.48,-0.126 0.76,-0.126c0.261,0 0.534,0.037 0.819,0.109c0.284,0.072 0.557,0.178 0.819,0.318l-0.546,1.071Z" style="fill:white;fill-rule:nonzero;"/>
      <path d="M17.22,245.941l1.981,0l0,-2.037l1.372,0l0,5.278l-1.372,0l0,-2.177l-1.981,0l0,2.177l-1.372,0l0,-5.278l1.372,0l0,2.037Z" style="fill:white;fill-rule:nonzero;"/>
      <path d="M24.549,247.222l-0.616,-1.757l-0.616,1.757l1.232,0Zm0.364,1.043l-1.96,0l-0.315,0.917l-1.463,0l2.009,-5.278l1.498,0l2.009,5.278l-1.463,0l-0.315,-0.917Z" style="fill:white;fill-rule:nonzero;"/>
      <path d="M28.665,246.326l0.455,0c0.504,0 0.756,-0.219 0.756,-0.658c0,-0.438 -0.252,-0.658 -0.756,-0.658l-0.455,0l0,1.316Zm0,2.856l-1.372,0l0,-5.278l2.184,0c0.592,0 1.046,0.154 1.361,0.462c0.315,0.308 0.473,0.742 0.473,1.302c0,0.56 -0.158,0.994 -0.473,1.302c-0.315,0.308 -0.769,0.462 -1.361,0.462l-0.812,0l0,1.75Z" style="fill:white;fill-rule:nonzero;"/>
      <path d="M35.042,245.066l-1.631,0l0,0.882l1.54,0l0,1.162l-1.54,0l0,0.91l1.631,0l0,1.162l-3.003,0l0,-5.278l3.003,0l0,1.162Z" style="fill:white;fill-rule:nonzero;"/>
    </g>
    <circle id="circle22011" serif:id="circle2201" cx="91.115" cy="205.566" r="3.706" style="fill:none;stroke:rgb(204,204,204);stroke-width:1px;stroke-miterlimit:4;"/>
    <g id="text9293-414" serif:id="text9293-4">
      <path d="M67.861,126.776l0,4.116l-1.372,0l0,-4.116l-1.127,0l0,-1.162l3.626,0l0,1.162l-1.127,0Z" style="fill:white;fill-rule:nonzero;"/>
      <path d="M70.969,125.614l0,2.87c0,0.154 0.006,0.312 0.017,0.473c0.012,0.161 0.047,0.306 0.105,0.437c0.059,0.131 0.151,0.237 0.277,0.319c0.126,0.081 0.303,0.122 0.532,0.122c0.228,0 0.405,-0.041 0.528,-0.122c0.124,-0.082 0.216,-0.188 0.277,-0.319c0.06,-0.131 0.097,-0.276 0.108,-0.437c0.012,-0.161 0.018,-0.319 0.018,-0.473l0,-2.87l1.365,0l0,3.059c0,0.821 -0.188,1.421 -0.564,1.799c-0.375,0.378 -0.953,0.567 -1.732,0.567c-0.78,0 -1.358,-0.189 -1.736,-0.567c-0.378,-0.378 -0.567,-0.978 -0.567,-1.799l0,-3.059l1.372,0Z" style="fill:white;fill-rule:nonzero;"/>
      <path d="M75.302,130.892l0,-5.278l1.372,0l2.534,3.227l0,-3.227l1.365,0l0,5.278l-1.365,0l-2.534,-3.227l0,3.227l-1.372,0Z" style="fill:white;fill-rule:nonzero;"/>
      <path d="M84.682,126.776l-1.631,0l0,0.882l1.54,0l0,1.162l-1.54,0l0,0.91l1.631,0l0,1.162l-3.003,0l0,-5.278l3.003,0l0,1.162Z" style="fill:white;fill-rule:nonzero;"/>
    </g>
    <path id="path2146" d="M61.075,199.27c5.878,-10.184 3.577,-23.245 -5.43,-30.804c-9.008,-7.555 -22.274,-7.555 -31.281,0c-9.008,7.559 -11.309,20.62 -5.43,30.804" style="fill:none;stroke:rgb(204,204,204);stroke-width:1.5px;stroke-linecap:round;stroke-miterlimit:4;"/>
    <circle id="circle2149" cx="21.865" cy="208.538" r="3.706" style="fill:none;stroke:rgb(204,204,204);stroke-width:1px;stroke-miterlimit:4;"/>
    <circle id="circle2152" cx="59.645" cy="208.026" r="3.706" style="fill:rgb(204,204,204);stroke:rgb(204,204,204);stroke-width:1px;stroke-miterlimit:4;"/>
    <g>
      <path id="path8216-1" d="M43.667,79.944c4.233,-7.33 2.575,-16.732 -3.909,-22.173c-6.485,-5.441 -16.031,-5.441 -22.516,0c-6.484,5.441 -8.142,14.843 -3.909,22.173" style="fill:none;stroke:rgb(204,204,204);stroke-width:1.5px;stroke-linecap:round;stroke-linejoin:miter;stroke-miterlimit:4;"/>
      <circle id="path9488-2-9" cx="15.443" cy="86.247" r="2.667" style="fill:none;stroke:rgb(204,204,204);stroke-width:1px;stroke-linejoin:miter;stroke-miterlimit:4;"/>
      <circle id="path9488-2-6-0" cx="42.639" cy="86.247" r="2.667" style="fill:rgb(204,204,204);stroke:rgb(204,204,204);stroke-width:1px;stroke-linejoin:miter;stroke-miterlimit:4;"/>
    </g>
    <g>
      <path id="path8216-11" serif:id="path8216-1" d="M136.667,79.944c4.233,-7.33 2.575,-16.732 -3.909,-22.173c-6.485,-5.441 -16.031,-5.441 -22.516,0c-6.484,5.441 -8.142,14.843 -3.909,22.173" style="fill:none;stroke:rgb(204,204,204);stroke-width:1.5px;stroke-linecap:round;stroke-linejoin:miter;stroke-miterlimit:4;"/>
      <circle id="path9488-2-91" serif:id="path9488-2-9" cx="108.443" cy="86.247" r="2.667" style="fill:none;stroke:rgb(204,204,204);stroke-width:1px;stroke-linejoin:miter;stroke-miterlimit:4;"/>
      <circle id="path9488-2-6-01" serif:id="path9488-2-6-0" cx="135.639" cy="86.247" r="2.667" style="fill:rgb(204,204,204);stroke:rgb(204,204,204);stroke-width:1px;stroke-linejoin:miter;stroke-miterlimit:4;"/>
    </g>
    <g>
      <path id="path8216-12" serif:id="path8216-1" d="M142.089,136.225c4.232,-7.331 2.574,-16.733 -3.91,-22.173c-6.484,-5.441 -16.031,-5.441 -22.515,0c-6.485,5.44 -8.142,14.842 -3.91,22.173" style="fill:none;stroke:rgb(204,204,204);stroke-width:1.5px;stroke-linecap:round;stroke-linejoin:miter;stroke-miterlimit:4;"/>
      <circle id="path9488-2-92" serif:id="path9488-2-9" cx="113.864" cy="142.527" r="2.667" style="fill:none;stroke:rgb(204,204,204);stroke-width:1px;stroke-linejoin:miter;stroke-miterlimit:4;"/>
      <circle id="path9488-2-6-02" serif:id="path9488-2-6-0" cx="141.06" cy="142.527" r="2.667" style="fill:rgb(204,204,204);stroke:rgb(204,204,204);stroke-width:1px;stroke-linejoin:miter;stroke-miterlimit:4;"/>
    </g>
    <g>
      <path id="path8216-13" serif:id="path8216-1" d="M38.246,136.681c4.232,-7.33 2.575,-16.732 -3.91,-22.173c-6.484,-5.441 -16.031,-5.441 -22.515,0c-6.484,5.441 -8.142,14.843 -3.91,22.173" style="fill:none;stroke:rgb(204,204,204);stroke-width:1.5px;stroke-linecap:round;stroke-linejoin:miter;stroke-miterlimit:4;"/>
      <circle id="path9488-2-93" serif:id="path9488-2-9" cx="10.022" cy="142.983" r="2.667" style="fill:none;stroke:rgb(204,204,204);stroke-width:1px;stroke-linejoin:miter;stroke-miterlimit:4;"/>
      <circle id="path9488-2-6-03" serif:id="path9488-2-6-0" cx="37.218" cy="142.983" r="2.667" style="fill:rgb(204,204,204);stroke:rgb(204,204,204);stroke-width:1px;stroke-linejoin:miter;stroke-miterlimit:4;"/>
    </g>
    <g id="text9293-415" serif:id="text9293-4">
      <path d="M85.525,348.168l1.457,3.674l1.464,-3.674l1.705,0l-2.545,6.035l-1.249,0l-2.537,-6.035l1.705,0Z" style="fill:white;fill-rule:nonzero;"/>
      <path d="M91.872,351.185c0,0.24 0.045,0.462 0.136,0.665c0.09,0.202 0.213,0.378 0.368,0.528c0.155,0.149 0.335,0.265 0.54,0.348c0.206,0.083 0.423,0.124 0.652,0.124c0.23,0 0.447,-0.041 0.653,-0.124c0.205,-0.083 0.386,-0.199 0.544,-0.348c0.157,-0.15 0.281,-0.326 0.372,-0.528c0.091,-0.203 0.136,-0.425 0.136,-0.665c0,-0.24 -0.045,-0.461 -0.136,-0.664c-0.091,-0.203 -0.215,-0.379 -0.372,-0.528c-0.158,-0.15 -0.339,-0.266 -0.544,-0.348c-0.206,-0.083 -0.423,-0.124 -0.653,-0.124c-0.229,0 -0.446,0.041 -0.652,0.124c-0.205,0.082 -0.385,0.198 -0.54,0.348c-0.155,0.149 -0.278,0.325 -0.368,0.528c-0.091,0.203 -0.136,0.424 -0.136,0.664Zm-1.641,0c0,-0.448 0.083,-0.865 0.248,-1.252c0.166,-0.387 0.395,-0.724 0.688,-1.013c0.294,-0.288 0.645,-0.513 1.053,-0.676c0.408,-0.163 0.858,-0.244 1.348,-0.244c0.486,0 0.934,0.081 1.345,0.244c0.411,0.163 0.764,0.388 1.06,0.676c0.297,0.289 0.527,0.626 0.693,1.013c0.165,0.387 0.248,0.804 0.248,1.252c0,0.449 -0.083,0.866 -0.248,1.253c-0.166,0.387 -0.396,0.724 -0.693,1.012c-0.296,0.288 -0.649,0.514 -1.06,0.677c-0.411,0.162 -0.859,0.244 -1.345,0.244c-0.49,0 -0.94,-0.082 -1.348,-0.244c-0.408,-0.163 -0.759,-0.389 -1.053,-0.677c-0.293,-0.288 -0.522,-0.625 -0.688,-1.012c-0.165,-0.387 -0.248,-0.804 -0.248,-1.253Z" style="fill:white;fill-rule:nonzero;"/>
      <path d="M99.475,348.168l0,4.706l1.881,0l0,1.329l-3.45,0l0,-6.035l1.569,0Z" style="fill:white;fill-rule:nonzero;"/>
    </g>
  </g>
</svg>