<?xml version="1.0" encoding="UTF-8" standalone="no"?>
<svg
   xmlns:dc="http://purl.org/dc/elements/1.1/"
   xmlns:cc="http://creativecommons.org/ns#"
   xmlns:rdf="http://www.w3.org/1999/02/22-rdf-syntax-ns#"
   xmlns:svg="http://www.w3.org/2000/svg"
   xmlns="http://www.w3.org/2000/svg"
   xmlns:xlink="http://www.w3.org/1999/xlink"
   xmlns:sodipodi="http://sodipodi.sourceforge.net/DTD/sodipodi-0.dtd"
   xmlns:inkscape="http://www.inkscape.org/namespaces/inkscape"
   width="17"
   height="16"
   viewBox="0 0 17 16"
   version="1.1"
   xml:space="preserve"
   style="fill-rule:evenodd;clip-rule:evenodd;stroke-linecap:round;stroke-linejoin:round;stroke-miterlimit:1.5;"
   id="svg25616"
   sodipodi:docname="ButtonE_ON.svg"
   inkscape:version="0.92.3 (2405546, 2018-03-11)">
  <defs
   id="defs25620">
    <linearGradient
   inkscape:collect="always"
   id="linearGradient26189">
      <stop
   style="stop-color:#000000;stop-opacity:1;"
   offset="0"
   id="stop26185" />
      <stop
   style="stop-color:#dcdcdc;stop-opacity:1"
   offset="1"
   id="stop26187" />
    </linearGradient>
    <linearGradient
   inkscape:collect="always"
   xlink:href="#linearGradient26189"
   id="linearGradient26191"
   x1="92.79319"
   y1="323.93362"
   x2="92.788002"
   y2="309.92209"
   gradientUnits="userSpaceOnUse" />
  </defs>
  <metadata
   id="metadata25622">
    <rdf:RDF>
      <cc:Work
   rdf:about="">
        <dc:format>image/svg+xml</dc:format>
        <dc:type
   rdf:resource="http://purl.org/dc/dcmitype/StillImage" />
      <dc:title></dc:title></cc:Work>
    </rdf:RDF>
  </metadata>
  <sodipodi:namedview
   pagecolor="#ffffff"
   bordercolor="#666666"
   borderopacity="1"
   objecttolerance="10"
   gridtolerance="10"
   guidetolerance="10"
   inkscape:pageopacity="0"
   inkscape:pageshadow="2"
   inkscape:window-width="1920"
   inkscape:window-height="1017"
   id="namedview25618"
   showgrid="false"
   inkscape:zoom="41.7193"
   inkscape:cx="11.545014"
   inkscape:cy="10.016987"
   inkscape:window-x="1912"
   inkscape:window-y="-8"
   inkscape:window-maximized="1"
   inkscape:current-layer="svg25616" />
  <g
   transform="matrix(1.03804,0,0,1.04192,-79.790839,-322.20077)"
   id="g25597"
   style="stroke:none;fill-opacity:1;fill:url(#linearGradient26191)">
    <path
   d="m 92.788,312.7 c 0,-1.536 -1.251,-2.782 -2.792,-2.782 h -9.881 c -1.541,0 -2.793,1.246 -2.793,2.782 v 8.433 c 0,1.536 1.252,2.783 2.793,2.783 h 9.881 c 1.541,0 2.792,-1.247 2.792,-2.783 z"
   style="stroke:none;stroke-width:0.95999998px;fill-opacity:1;fill:url(#linearGradient26191)"
   id="path25595"
   inkscape:connector-curvature="0" />
  </g>
  <g
   transform="matrix(1.02667,0,0,1.13251,-79.183809,-350.50847)"
   id="g25601">
    <path
   d="m 92.322,313.746 c 0,-1.541 -1.381,-2.792 -3.081,-2.792 h -7.626 c -1.7,0 -3.08,1.251 -3.08,2.792 v 5.586 c 0,1.541 1.38,2.792 3.08,2.792 h 7.626 c 1.7,0 3.081,-1.251 3.081,-2.792 z"
   style="fill:#262626;stroke:#666666;stroke-width:0.79000002px"
   id="path25599"
   inkscape:connector-curvature="0" />
  </g>
  <g
   transform="matrix(0.925979,0,0,0.991131,-70.581679,-305.75457)"
   id="g25605"
   style="fill:#aecffb;fill-opacity:1">
    <path
   d="m 92.322,313.042 c 0,-1.153 -1.002,-2.088 -2.236,-2.088 H 80.77 c -1.234,0 -2.235,0.935 -2.235,2.088 v 6.994 c 0,1.153 1.001,2.088 2.235,2.088 h 9.316 c 1.234,0 2.236,-0.935 2.236,-2.088 z"
   style="fill:#aecffb;stroke:#333333;stroke-width:0.88999999px;fill-opacity:1"
   id="path25603"
   inkscape:connector-curvature="0" />
  </g>
  <g
   id="text9293-4"
   transform="matrix(4.00166,0,0,4.00166,6.693,10.639)"
   style="fill:#000000;fill-opacity:1">
    <path
   d="M 0.889,-1.029 H 0.481 v 0.221 h 0.385 v 0.29 H 0.481 V -0.29 H 0.889 V 0 H 0.138 v -1.319 h 0.751 z"
   style="fill:#000000;fill-rule:nonzero;fill-opacity:1"
   id="path25609"
   inkscape:connector-curvature="0" />
  </g>
</svg>