<?xml version="1.0" encoding="UTF-8" standalone="no"?>
<svg
   xmlns:dc="http://purl.org/dc/elements/1.1/"
   xmlns:cc="http://creativecommons.org/ns#"
   xmlns:rdf="http://www.w3.org/1999/02/22-rdf-syntax-ns#"
   xmlns:svg="http://www.w3.org/2000/svg"
   xmlns="http://www.w3.org/2000/svg"
   xmlns:xlink="http://www.w3.org/1999/xlink"
   xmlns:sodipodi="http://sodipodi.sourceforge.net/DTD/sodipodi-0.dtd"
   xmlns:inkscape="http://www.inkscape.org/namespaces/inkscape"
   width="17"
   height="16"
   viewBox="0 0 17 16"
   version="1.1"
   xml:space="preserve"
   style="fill-rule:evenodd;clip-rule:evenodd;stroke-linecap:round;stroke-linejoin:round;stroke-miterlimit:1.5;"
   id="svg23092"
   sodipodi:docname="ButtonC_ON.svg"
   inkscape:version="0.92.3 (2405546, 2018-03-11)">
  <defs
   id="defs23096">
    <linearGradient
   inkscape:collect="always"
   id="linearGradient23665">
      <stop
   style="stop-color:#000000;stop-opacity:1;"
   offset="0"
   id="stop23661" />
      <stop
   style="stop-color:#dcdcdc;stop-opacity:1"
   offset="1"
   id="stop23663" />
    </linearGradient>
    <linearGradient
   inkscape:collect="always"
   xlink:href="#linearGradient23665"
   id="linearGradient23667"
   x1="92.800972"
   y1="323.9119"
   x2="92.788002"
   y2="309.90036"
   gradientUnits="userSpaceOnUse" />
  </defs>
  <metadata
   id="metadata23098">
    <rdf:RDF>
      <cc:Work
   rdf:about="">
        <dc:format>image/svg+xml</dc:format>
        <dc:type
   rdf:resource="http://purl.org/dc/dcmitype/StillImage" />
      <dc:title></dc:title></cc:Work>
    </rdf:RDF>
  </metadata>
  <sodipodi:namedview
   pagecolor="#ffffff"
   bordercolor="#666666"
   borderopacity="1"
   objecttolerance="10"
   gridtolerance="10"
   guidetolerance="10"
   inkscape:pageopacity="0"
   inkscape:pageshadow="2"
   inkscape:window-width="1920"
   inkscape:window-height="1017"
   id="namedview23094"
   showgrid="false"
   inkscape:zoom="29.5"
   inkscape:cx="10.183234"
   inkscape:cy="9.876243"
   inkscape:window-x="1912"
   inkscape:window-y="-8"
   inkscape:window-maximized="1"
   inkscape:current-layer="svg23092" />
  <g
   transform="matrix(1.03804,0,0,1.04192,-79.790839,-322.20077)"
   id="g23073"
   style="stroke:none;fill-opacity:1;fill:url(#linearGradient23667)">
    <path
   d="m 92.788,312.7 c 0,-1.536 -1.251,-2.782 -2.792,-2.782 h -9.881 c -1.541,0 -2.793,1.246 -2.793,2.782 v 8.433 c 0,1.536 1.252,2.783 2.793,2.783 h 9.881 c 1.541,0 2.792,-1.247 2.792,-2.783 z"
   style="stroke:none;stroke-width:0.95999998px;fill-opacity:1;fill:url(#linearGradient23667)"
   id="path23071"
   inkscape:connector-curvature="0" />
  </g>
  <g
   transform="matrix(1.02667,0,0,1.13251,-79.183809,-350.50847)"
   id="g23077">
    <path
   d="m 92.322,313.746 c 0,-1.541 -1.381,-2.792 -3.081,-2.792 h -7.626 c -1.7,0 -3.08,1.251 -3.08,2.792 v 5.586 c 0,1.541 1.38,2.792 3.08,2.792 h 7.626 c 1.7,0 3.081,-1.251 3.081,-2.792 z"
   style="fill:#262626;stroke:#666666;stroke-width:0.79000002px"
   id="path23075"
   inkscape:connector-curvature="0" />
  </g>
  <g
   transform="matrix(0.925979,0,0,0.991131,-70.581679,-305.75457)"
   id="g23081"
   style="fill:#aecffb;fill-opacity:1">
    <path
   d="m 92.322,313.042 c 0,-1.153 -1.002,-2.088 -2.236,-2.088 H 80.77 c -1.234,0 -2.235,0.935 -2.235,2.088 v 6.994 c 0,1.153 1.001,2.088 2.235,2.088 h 9.316 c 1.234,0 2.236,-0.935 2.236,-2.088 z"
   style="fill:#aecffb;stroke:#333333;stroke-width:0.88999999px;fill-opacity:1"
   id="path23079"
   inkscape:connector-curvature="0" />
  </g>
  <g
   id="text9293.-4"
   transform="matrix(4.00166,0,0,4.00166,5.693,10.639)"
   style="fill:#000000;fill-opacity:1">
    <path
   d="M 1.088,-0.878 C 1.009,-0.975 0.911,-1.023 0.794,-1.023 c -0.051,0 -0.099,0.009 -0.142,0.028 -0.044,0.018 -0.082,0.044 -0.113,0.076 -0.032,0.032 -0.056,0.07 -0.075,0.114 -0.018,0.045 -0.027,0.092 -0.027,0.144 0,0.052 0.009,0.101 0.027,0.145 0.019,0.044 0.044,0.083 0.076,0.115 0.032,0.033 0.069,0.059 0.112,0.077 0.044,0.019 0.09,0.028 0.14,0.028 0.11,0 0.209,-0.046 0.296,-0.14 V -0.03 L 1.053,-0.017 C 1.001,0.001 0.952,0.015 0.906,0.024 0.861,0.032 0.816,0.037 0.771,0.037 0.68,0.037 0.593,0.02 0.51,-0.015 0.427,-0.049 0.353,-0.098 0.29,-0.16 0.226,-0.222 0.175,-0.297 0.136,-0.382 0.098,-0.468 0.079,-0.562 0.079,-0.663 c 0,-0.101 0.019,-0.194 0.057,-0.279 0.037,-0.085 0.088,-0.157 0.152,-0.219 0.063,-0.061 0.137,-0.109 0.221,-0.143 0.084,-0.034 0.172,-0.052 0.264,-0.052 0.053,0 0.104,0.006 0.155,0.017 0.051,0.011 0.104,0.028 0.16,0.052 z"
   style="fill:#000000;fill-rule:nonzero;fill-opacity:1"
   id="path23085"
   inkscape:connector-curvature="0" />
  </g>
</svg>