<?xml version="1.0" encoding="UTF-8" standalone="no"?>
<svg
   xmlns:dc="http://purl.org/dc/elements/1.1/"
   xmlns:cc="http://creativecommons.org/ns#"
   xmlns:rdf="http://www.w3.org/1999/02/22-rdf-syntax-ns#"
   xmlns:svg="http://www.w3.org/2000/svg"
   xmlns="http://www.w3.org/2000/svg"
   xmlns:sodipodi="http://sodipodi.sourceforge.net/DTD/sodipodi-0.dtd"
   xmlns:inkscape="http://www.inkscape.org/namespaces/inkscape"
   width="45px"
   height="380px"
   version="1.1"
   xml:space="preserve"
   style="fill-rule:evenodd;clip-rule:evenodd;stroke-linecap:round;stroke-linejoin:round;stroke-miterlimit:10;"
   id="svg35012"
   sodipodi:docname="HyperPower.svg"
   inkscape:version="0.92.3 (2405546, 2018-03-11)"><metadata
   id="metadata35016"><rdf:RDF><cc:Work
       rdf:about=""><dc:format>image/svg+xml</dc:format><dc:type
         rdf:resource="http://purl.org/dc/dcmitype/StillImage" /><dc:title></dc:title></cc:Work></rdf:RDF></metadata><sodipodi:namedview
   pagecolor="#ffffff"
   bordercolor="#666666"
   borderopacity="1"
   objecttolerance="10"
   gridtolerance="10"
   guidetolerance="10"
   inkscape:pageopacity="0"
   inkscape:pageshadow="2"
   inkscape:window-width="1920"
   inkscape:window-height="1017"
   id="namedview35014"
   showgrid="false"
   inkscape:zoom="3.5132042"
   inkscape:cx="79.324785"
   inkscape:cy="276.30142"
   inkscape:window-x="1912"
   inkscape:window-y="-8"
   inkscape:window-maximized="1"
   inkscape:current-layer="svg35012" />
  <defs
   id="defs34935">
    <linearGradient
   id="_Linear1"
   x1="0"
   y1="0"
   x2="1"
   y2="0"
   gradientUnits="userSpaceOnUse"
   gradientTransform="matrix(44.9999,-379.998,379.998,44.9999,8.50126e-5,379.999)">
      <stop
   offset="0"
   style="stop-color:#d1e4fd;stop-opacity:1"
   id="stop34930" />
      <stop
   offset="1"
   style="stop-color:#ffffff;stop-opacity:1"
   id="stop34932" />
    </linearGradient>
  
    
    
    
    
    
    
    
    
    
    
    
    
    
    
    
    
    
    
    
    
    
    
    
    
    
    
    
    
    
    
    
    
    
    
    
    
    
    
    
    
    
    
    
    
    
    
    
    
    
    
    
    
    
    
    
    
    
    
  </defs>
  <rect
   style="fill:url(#_Linear1)"
   height="379.99799"
   width="45"
   y="0"
   x="0"
   id="rect9931" /><path
   inkscape:connector-curvature="0"
   style="fill:#3486f7;stroke:#3063b0;stroke-width:1.00999999px"
   d="M 7.642,162.308 H 37.62 c 2.372,0 4.281,1.909 4.281,4.28 v 158.326 c 0,2.371 -1.909,4.281 -4.281,4.281 H 7.642 c -2.372,0 -4.281,-1.91 -4.281,-4.281 V 166.588 c 0,-2.371 1.909,-4.28 4.281,-4.28 z"
   id="rect23814" /><g
   id="g35645"
   style="fill:#00112b"><path
     id="path8377"
     d="m 14.513,113.724 v -3.56 h -3.66 v -2.466 h 9.485 v 2.466 h -3.912 v 3.56 h 3.912 v 2.465 h -9.485 v -2.465 z"
     style="fill:#00112b;fill-rule:nonzero"
     inkscape:connector-curvature="0" /><path
     id="path8379"
     d="m 15.784,103.42 -4.931,3.461 v -2.944 l 2.591,-1.762 -2.591,-1.749 v -2.943 l 4.931,3.472 h 4.554 v 2.465 z"
     style="fill:#00112b;fill-rule:nonzero"
     inkscape:connector-curvature="0" /><path
     id="path8381"
     d="m 15.204,94.149 v -0.818 c 0,-0.906 -0.393,-1.359 -1.181,-1.359 -0.789,0 -1.183,0.453 -1.183,1.359 v 0.818 z m 5.134,0 v 2.466 H 10.853 V 92.69 c 0,-1.065 0.276,-1.88 0.83,-2.446 0.553,-0.566 1.333,-0.85 2.34,-0.85 1.006,0 1.786,0.284 2.339,0.85 0.554,0.566 0.831,1.381 0.831,2.446 v 1.459 z"
     style="fill:#00112b;fill-rule:nonzero"
     inkscape:connector-curvature="0" /><path
     id="path8383"
     d="m 12.94,82.689 v 2.931 h 1.585 v -2.767 h 2.089 v 2.767 h 1.635 v -2.931 h 2.089 v 5.397 h -9.485 v -5.397 z"
     style="fill:#00112b;fill-rule:nonzero"
     inkscape:connector-curvature="0" /><path
     id="path8385"
     d="m 15.091,78.449 v -0.464 c 0,-0.488 -0.1,-0.861 -0.301,-1.121 -0.201,-0.259 -0.491,-0.39 -0.868,-0.39 -0.377,0 -0.666,0.131 -0.869,0.39 -0.201,0.26 -0.301,0.633 -0.301,1.121 v 0.464 z m 5.247,-5.422 v 3.07 l -3.649,2.352 h 3.649 v 2.466 h -9.485 v -3.836 c 0,-0.529 0.077,-0.99 0.232,-1.384 0.156,-0.394 0.367,-0.719 0.635,-0.975 0.269,-0.256 0.579,-0.449 0.931,-0.579 0.353,-0.13 0.73,-0.195 1.132,-0.195 0.722,0 1.307,0.175 1.756,0.522 0.449,0.348 0.752,0.862 0.912,1.541 z"
     style="fill:#00112b;fill-rule:nonzero"
     inkscape:connector-curvature="0" /><path
     id="path8387"
     d="m 15.204,69.531 v -0.818 c 0,-0.906 -0.393,-1.358 -1.181,-1.358 -0.789,0 -1.183,0.452 -1.183,1.358 v 0.818 z m 5.134,0 v 2.465 h -9.485 v -3.925 c 0,-1.065 0.276,-1.881 0.83,-2.447 0.553,-0.566 1.333,-0.848 2.34,-0.848 1.006,0 1.786,0.282 2.339,0.848 0.554,0.566 0.831,1.382 0.831,2.447 v 1.46 z"
     style="fill:#00112b;fill-rule:nonzero"
     inkscape:connector-curvature="0" /><path
     id="path8389"
     d="m 15.595,61.316 c 0.378,0 0.726,-0.071 1.044,-0.213 0.318,-0.143 0.595,-0.336 0.831,-0.58 0.234,-0.242 0.417,-0.526 0.546,-0.848 0.131,-0.324 0.196,-0.665 0.196,-1.026 0,-0.361 -0.065,-0.702 -0.196,-1.025 -0.129,-0.323 -0.312,-0.608 -0.546,-0.856 -0.236,-0.247 -0.513,-0.442 -0.831,-0.584 -0.318,-0.143 -0.666,-0.215 -1.044,-0.215 -0.377,0 -0.725,0.072 -1.045,0.215 -0.318,0.142 -0.595,0.337 -0.829,0.584 -0.235,0.248 -0.417,0.533 -0.548,0.856 -0.129,0.323 -0.194,0.664 -0.194,1.025 0,0.361 0.065,0.702 0.194,1.026 0.131,0.322 0.313,0.606 0.548,0.848 0.234,0.244 0.511,0.437 0.829,0.58 0.32,0.142 0.668,0.213 1.045,0.213 z m 0,2.578 c -0.705,0 -1.36,-0.129 -1.969,-0.389 -0.607,-0.261 -1.139,-0.62 -1.592,-1.083 -0.452,-0.46 -0.807,-1.012 -1.062,-1.654 -0.256,-0.64 -0.384,-1.348 -0.384,-2.119 0,-0.763 0.128,-1.468 0.384,-2.114 0.255,-0.646 0.61,-1.201 1.062,-1.666 0.453,-0.466 0.985,-0.828 1.592,-1.088 0.609,-0.26 1.264,-0.39 1.969,-0.39 0.704,0 1.361,0.13 1.968,0.39 0.609,0.26 1.139,0.622 1.592,1.088 0.453,0.465 0.807,1.02 1.063,1.666 0.255,0.646 0.383,1.351 0.383,2.114 0,0.771 -0.128,1.479 -0.383,2.119 -0.256,0.642 -0.61,1.194 -1.063,1.654 -0.453,0.463 -0.983,0.822 -1.592,1.083 -0.607,0.26 -1.264,0.389 -1.968,0.389 z"
     style="fill:#00112b;fill-rule:nonzero"
     inkscape:connector-curvature="0" /><path
     id="path8391"
     d="m 10.853,50.397 6.126,-1.636 -6.126,-2.013 v -1.962 l 6.126,-2.013 -6.126,-1.635 v -2.58 l 9.485,2.831 v 2.516 l -5.497,1.862 5.497,1.862 v 2.516 l -9.485,2.83 z"
     style="fill:#00112b;fill-rule:nonzero"
     inkscape:connector-curvature="0" /><path
     id="path8393"
     d="m 12.94,32.168 v 2.931 h 1.585 v -2.767 h 2.089 v 2.767 h 1.635 v -2.931 h 2.089 v 5.397 h -9.485 v -5.397 z"
     style="fill:#00112b;fill-rule:nonzero"
     inkscape:connector-curvature="0" /><path
     id="path8395"
     d="m 15.091,27.928 v -0.464 c 0,-0.487 -0.1,-0.86 -0.301,-1.121 -0.201,-0.259 -0.491,-0.389 -0.868,-0.389 -0.377,0 -0.666,0.13 -0.869,0.389 -0.201,0.261 -0.301,0.634 -0.301,1.121 v 0.464 z m 5.247,-5.421 v 3.069 l -3.649,2.352 h 3.649 v 2.467 h -9.485 v -3.837 c 0,-0.529 0.077,-0.99 0.232,-1.384 0.156,-0.394 0.367,-0.719 0.635,-0.975 0.269,-0.256 0.579,-0.449 0.931,-0.578 0.353,-0.131 0.73,-0.196 1.132,-0.196 0.722,0 1.307,0.175 1.756,0.522 0.449,0.348 0.752,0.862 0.912,1.541 z"
     style="fill:#00112b;fill-rule:nonzero"
     inkscape:connector-curvature="0" /></g><path
   inkscape:connector-curvature="0"
   style="fill:#757575;fill-rule:nonzero;stroke:#414c55;stroke-width:0.61000001px;stroke-linecap:butt;stroke-linejoin:miter"
   d="m 30.543,350.293 c 0,-4.509 -3.655,-8.164 -8.164,-8.164 -4.51,0 -8.165,3.655 -8.165,8.164 0,4.51 3.655,8.165 8.165,8.165 4.509,0 8.164,-3.655 8.164,-8.165 z"
   id="path4" /><g
   id="g40">
      <path
   inkscape:connector-curvature="0"
   style="fill:#2b2b2b;fill-rule:nonzero;stroke:#414c55;stroke-width:0.04px;stroke-linecap:butt;stroke-linejoin:miter"
   d="m 20.48,355.27 0.553,-0.89 -1.063,-2.394 -2.216,-2.284 0.459,3.101 0.598,1.28 0.833,1.264 z"
   id="polygon6" />
      <path
   inkscape:connector-curvature="0"
   style="fill:#262626;fill-rule:nonzero;stroke:#414c55;stroke-width:0.04px;stroke-linecap:butt;stroke-linejoin:miter"
   d="m 24.208,355.277 -0.553,-0.89 1.063,-2.393 2.216,-2.284 -0.459,3.101 -0.597,1.28 -0.833,1.263 z"
   id="polygon8" />
      <path
   inkscape:connector-curvature="0"
   style="fill:#424242;fill-rule:nonzero;stroke:#414c55;stroke-width:0.04px;stroke-linecap:butt;stroke-linejoin:miter"
   d="m 19.796,344.235 2.584,-0.66 v 13.447 l -1.349,-2.651 -1.061,-2.385 -1.023,-0.581 -2.051,-2.92 -0.058,-0.775 1.149,-2.068 z"
   id="polygon12" />
      <path
   inkscape:connector-curvature="0"
   style="fill:#333333;fill-rule:nonzero;stroke:#414c55;stroke-width:0.04px;stroke-linecap:butt;stroke-linejoin:miter"
   d="m 24.961,344.24 -2.584,-0.66 v 13.447 l 1.35,-2.651 1.06,-2.385 1.023,-0.581 2.051,-2.92 0.058,-0.776 -1.149,-2.067 z"
   id="polygon14" />
      <path
   inkscape:connector-curvature="0"
   style="fill:#4c4c4c;fill-rule:nonzero;stroke:#414c55;stroke-width:0.04px;stroke-linecap:butt;stroke-linejoin:miter"
   d="m 20.656,350.113 1.723,-1.684 v 1.229 l -1.723,1.719 v -1.264"
   id="polyline16" />
      <path
   inkscape:connector-curvature="0"
   style="fill:#5b5b5b;fill-rule:nonzero;stroke:#414c55;stroke-width:0.04px;stroke-linecap:butt;stroke-linejoin:miter"
   d="m 22.38,349.657 -1.723,1.718 0.376,3.005 1.347,2.642 z"
   id="polygon18" />
      <path
   inkscape:connector-curvature="0"
   style="fill:#333333;fill-rule:nonzero;stroke:#414c55;stroke-width:0.04px;stroke-linecap:butt;stroke-linejoin:miter"
   d="m 22.38,357.022 -1.347,-2.642 1.347,-0.635 z"
   id="polygon20" />
      <path
   inkscape:connector-curvature="0"
   style="fill:#ffffff;fill-rule:nonzero;stroke:#414c55;stroke-width:0.04px;stroke-linecap:butt;stroke-linejoin:miter"
   d="m 20.657,351.375 v -1.263 l -1.249,-1.579 -1.477,-1.191 -0.001,0.932 0.775,1.823 z"
   id="polygon22" />
      <path
   inkscape:connector-curvature="0"
   style="fill:#2d2d2d;fill-rule:nonzero;stroke:#414c55;stroke-width:0.04px;stroke-linecap:butt;stroke-linejoin:miter"
   d="m 24.102,350.114 -1.723,-1.685 v 1.23 l 1.723,1.718 v -1.263"
   id="polyline24" />
      <path
   inkscape:connector-curvature="0"
   style="fill:#353535;fill-rule:nonzero;stroke:#414c55;stroke-width:0.04px;stroke-linecap:butt;stroke-linejoin:miter"
   d="m 22.377,349.657 1.723,1.718 -0.376,3.005 -1.347,2.642 z"
   id="polygon26" />
      <path
   inkscape:connector-curvature="0"
   style="fill:#191919;fill-rule:nonzero;stroke:#414c55;stroke-width:0.04px;stroke-linecap:butt;stroke-linejoin:miter"
   d="m 22.377,357.022 1.347,-2.642 -1.347,-0.635 z"
   id="polygon28" />
      <path
   inkscape:connector-curvature="0"
   style="fill:#ffffff;fill-rule:nonzero;stroke:#414c55;stroke-width:0.04px;stroke-linecap:butt;stroke-linejoin:miter"
   d="m 24.1,351.375 v -1.263 l 1.249,-1.579 1.477,-1.191 0.002,0.932 -0.775,1.823 z"
   id="polygon30" />
      <path
   inkscape:connector-curvature="0"
   style="fill:#383838;fill-rule:nonzero;stroke:#414c55;stroke-width:0.04px;stroke-linecap:butt;stroke-linejoin:miter"
   d="m 19.812,344.214 2.566,4.215 -0.005,-4.869"
   id="polyline32" />
      <path
   inkscape:connector-curvature="0"
   style="fill:#2d2d2d;fill-rule:nonzero;stroke:#414c55;stroke-width:0.04px;stroke-linecap:butt;stroke-linejoin:miter"
   d="m 24.945,344.214 -2.566,4.215 0.005,-4.869"
   id="polyline34" />
      <path
   inkscape:connector-curvature="0"
   style="fill:#333333;fill-rule:nonzero;stroke:#414c55;stroke-width:0.04px;stroke-linecap:butt;stroke-linejoin:miter"
   d="m 19.971,351.987 0.687,-0.61 0.376,3.006 z"
   id="polygon36" />
      <path
   inkscape:connector-curvature="0"
   style="fill:#1c1c1c;fill-rule:nonzero;stroke:#414c55;stroke-width:0.04px;stroke-linecap:butt;stroke-linejoin:miter"
   d="m 24.791,352.001 -0.688,-0.61 -0.376,3.006 z"
   id="polygon38" />
    </g><path
   inkscape:connector-curvature="0"
   style="fill:#2c5aa0;fill-rule:nonzero"
   d="m 33.432,121.071 h -5.111 v -1.378 h 5.111 z m -5.972,0 h -1.151 v -1.378 h 1.151 z"
   id="path8424" /><path
   inkscape:connector-curvature="0"
   style="fill:#2c5aa0;fill-rule:nonzero"
   d="m 33.432,117.97 h -5.111 v -1.377 h 0.963 c -0.72,-0.45 -1.08,-1.032 -1.08,-1.742 0,-0.456 0.144,-0.816 0.433,-1.08 0.289,-0.264 0.683,-0.396 1.183,-0.396 h 3.612 v 1.379 H 30.16 c -0.58,0 -0.871,0.191 -0.871,0.577 0,0.437 0.309,0.857 0.927,1.262 h 3.216 z"
   id="path8426" /><path
   inkscape:connector-curvature="0"
   style="fill:#2c5aa0;fill-rule:nonzero"
   d="m 33.432,111.565 h -4.251 v 0.703 h -0.86 v -0.703 h -0.354 c -0.643,0 -1.137,-0.154 -1.483,-0.459 -0.345,-0.306 -0.519,-0.741 -0.519,-1.306 0,-0.348 0.063,-0.717 0.191,-1.108 h 0.941 c -0.172,0.384 -0.256,0.67 -0.256,0.857 0,0.424 0.387,0.637 1.163,0.637 h 0.317 v -3.217 h 5.111 v 1.378 h -4.251 v 1.839 h 4.251 z m -5.972,-3.446 h -1.151 v -1.15 h 1.151 z"
   id="path8428" /><path
   inkscape:connector-curvature="0"
   style="fill:#2c5aa0;fill-rule:nonzero"
   d="m 33.432,105.247 h -5.111 v -1.379 h 0.963 c -0.72,-0.45 -1.08,-1.03 -1.08,-1.74 0,-0.457 0.144,-0.817 0.433,-1.08 0.289,-0.264 0.683,-0.396 1.183,-0.396 h 3.612 v 1.377 H 30.16 c -0.58,0 -0.871,0.193 -0.871,0.578 0,0.438 0.309,0.858 0.927,1.261 h 3.216 z"
   id="path8430" /><path
   inkscape:connector-curvature="0"
   style="fill:#2c5aa0;fill-rule:nonzero"
   d="m 33.432,98.985 h -5.111 v -1.378 h 5.111 z m -5.972,0 h -1.151 v -1.378 h 1.151 z"
   id="path8432" /><path
   inkscape:connector-curvature="0"
   style="fill:#2c5aa0;fill-rule:nonzero"
   d="m 33.405,93.25 c 0.095,0.328 0.144,0.588 0.144,0.777 0,1.195 -0.559,1.793 -1.676,1.793 h -2.692 v 0.572 h -0.86 V 95.82 H 27.46 l -0.159,-1.379 h 1.02 v -1.094 h 0.86 v 1.094 h 2.51 c 0.628,0 0.941,-0.256 0.941,-0.768 0,-0.118 -0.022,-0.259 -0.066,-0.423 z"
   id="path8434" /><path
   inkscape:connector-curvature="0"
   style="fill:#2c5aa0;fill-rule:nonzero"
   d="m 33.26,87.859 c 0.193,0.654 0.289,1.275 0.289,1.862 0,0.853 -0.243,1.527 -0.726,2.02 -0.484,0.494 -1.146,0.74 -1.983,0.74 -0.792,0 -1.429,-0.225 -1.912,-0.677 -0.482,-0.451 -0.724,-1.049 -0.724,-1.79 0,-0.748 0.236,-1.295 0.707,-1.639 0.473,-0.345 1.219,-0.516 2.24,-0.516 v 3.17 c 0.975,-0.094 1.462,-0.628 1.462,-1.607 0,-0.462 -0.107,-0.983 -0.321,-1.563 z m -2.886,3.189 v -1.835 c -0.873,0 -1.308,0.281 -1.308,0.843 0,0.571 0.435,0.902 1.308,0.992 z"
   id="path8436" /><path
   inkscape:connector-curvature="0"
   style="fill:#2c5aa0;fill-rule:nonzero"
   d="m 35.272,83.291 h -6.951 v -1.377 h 0.963 c -0.72,-0.354 -1.08,-0.912 -1.08,-1.672 0,-0.614 0.226,-1.098 0.676,-1.451 0.45,-0.351 1.069,-0.528 1.857,-0.528 0.856,0 1.539,0.199 2.049,0.596 0.509,0.397 0.763,0.93 0.763,1.597 0,0.538 -0.211,1.023 -0.633,1.458 h 2.356 z m -3.176,-1.377 c 0.373,-0.336 0.559,-0.693 0.559,-1.072 0,-0.338 -0.164,-0.608 -0.491,-0.81 -0.327,-0.201 -0.764,-0.302 -1.311,-0.302 -1.046,0 -1.569,0.337 -1.569,1.011 0,0.406 0.263,0.797 0.787,1.173 z"
   id="path8438" /><path
   inkscape:connector-curvature="0"
   style="fill:#2c5aa0;fill-rule:nonzero"
   d="m 33.549,74.827 c 0,0.799 -0.241,1.432 -0.724,1.903 -0.483,0.47 -1.132,0.705 -1.948,0.705 -0.826,0 -1.477,-0.237 -1.956,-0.71 -0.477,-0.474 -0.717,-1.116 -0.717,-1.929 0,-0.817 0.24,-1.462 0.717,-1.935 0.479,-0.473 1.127,-0.71 1.946,-0.71 0.839,0 1.495,0.237 1.969,0.712 0.476,0.475 0.713,1.13 0.713,1.964 z m -0.862,-0.023 c 0,-0.791 -0.607,-1.187 -1.82,-1.187 -0.556,0 -0.994,0.105 -1.317,0.315 -0.323,0.209 -0.484,0.497 -0.484,0.864 0,0.363 0.161,0.649 0.484,0.858 0.323,0.21 0.764,0.315 1.327,0.315 0.555,0 0.996,-0.105 1.322,-0.313 0.326,-0.207 0.488,-0.492 0.488,-0.852 z"
   id="path8440" /><path
   inkscape:connector-curvature="0"
   style="fill:#2c5aa0;fill-rule:nonzero"
   d="m 33.432,69.981 -5.111,1.42 v -1.28 l 3.579,-1.006 -3.579,-1.07 v -1.192 l 3.598,-0.964 -3.598,-1.085 v -0.958 l 5.111,1.517 v 1.322 l -3.505,0.931 3.505,1.043 z"
   id="path8442" /><path
   inkscape:connector-curvature="0"
   style="fill:#2c5aa0;fill-rule:nonzero"
   d="m 33.26,58.496 c 0.193,0.655 0.289,1.276 0.289,1.862 0,0.854 -0.243,1.528 -0.726,2.021 -0.484,0.494 -1.146,0.74 -1.983,0.74 -0.792,0 -1.429,-0.226 -1.912,-0.677 -0.482,-0.452 -0.724,-1.048 -0.724,-1.791 0,-0.747 0.236,-1.293 0.707,-1.637 0.473,-0.346 1.219,-0.518 2.24,-0.518 v 3.171 c 0.975,-0.093 1.462,-0.629 1.462,-1.606 0,-0.463 -0.107,-0.984 -0.321,-1.565 z m -2.886,3.189 v -1.834 c -0.873,0 -1.308,0.281 -1.308,0.843 0,0.57 0.435,0.901 1.308,0.991 z"
   id="path8444" /><path
   inkscape:connector-curvature="0"
   style="fill:#2c5aa0;fill-rule:nonzero"
   d="m 33.432,57.072 h -5.111 v -1.379 h 0.963 c -0.72,-0.357 -1.08,-0.9 -1.08,-1.629 0,-0.087 0.01,-0.172 0.028,-0.255 h 1.229 c -0.071,0.194 -0.107,0.377 -0.107,0.544 0,0.549 0.279,0.996 0.833,1.34 h 3.245 z"
   id="path8446" /><path
   inkscape:connector-curvature="0"
   style="fill:#2c5aa0;fill-rule:nonzero"
   d="m 33.269,49.73 h -1.01 c 0.286,-0.683 0.428,-1.266 0.428,-1.751 0,-0.564 -0.192,-0.847 -0.577,-0.847 -0.248,0 -0.465,0.233 -0.651,0.699 l -0.186,0.465 c -0.206,0.506 -0.426,0.868 -0.662,1.085 -0.235,0.217 -0.527,0.326 -0.875,0.326 -0.485,0 -0.861,-0.185 -1.129,-0.554 -0.268,-0.369 -0.403,-0.886 -0.403,-1.551 0,-0.416 0.061,-0.91 0.182,-1.484 h 0.968 c -0.193,0.551 -0.288,1.01 -0.288,1.373 0,0.571 0.177,0.856 0.531,0.856 0.232,0 0.429,-0.211 0.59,-0.633 l 0.154,-0.4 c 0.226,-0.599 0.456,-1.016 0.689,-1.25 0.233,-0.234 0.533,-0.352 0.899,-0.352 0.481,0 0.871,0.199 1.171,0.598 0.299,0.4 0.449,0.918 0.449,1.558 0,0.614 -0.093,1.235 -0.28,1.862 z"
   id="path8448" /><path
   inkscape:connector-curvature="0"
   style="fill:#2c5aa0;fill-rule:nonzero"
   d="m 33.432,41.043 h -0.963 c 0.72,0.447 1.08,1.027 1.08,1.741 0,0.456 -0.144,0.816 -0.433,1.08 -0.289,0.264 -0.683,0.396 -1.183,0.396 h -3.612 v -1.378 h 3.272 c 0.581,0 0.871,-0.195 0.871,-0.582 0,-0.434 -0.308,-0.854 -0.927,-1.257 h -3.216 v -1.378 h 5.111 z"
   id="path8450" /><path
   inkscape:connector-curvature="0"
   style="fill:#2c5aa0;fill-rule:nonzero"
   d="m 35.272,37.942 h -6.951 v -1.378 h 0.963 c -0.72,-0.353 -1.08,-0.911 -1.08,-1.671 0,-0.614 0.226,-1.098 0.676,-1.45 0.45,-0.352 1.069,-0.529 1.857,-0.529 0.856,0 1.539,0.199 2.049,0.596 0.509,0.398 0.763,0.929 0.763,1.598 0,0.536 -0.211,1.021 -0.633,1.456 h 2.356 z m -3.176,-1.378 c 0.373,-0.335 0.559,-0.692 0.559,-1.071 0,-0.338 -0.164,-0.608 -0.491,-0.81 -0.327,-0.201 -0.764,-0.302 -1.311,-0.302 -1.046,0 -1.569,0.337 -1.569,1.01 0,0.407 0.263,0.798 0.787,1.173 z"
   id="path8452" /><path
   inkscape:connector-curvature="0"
   style="fill:#2c5aa0;fill-rule:nonzero"
   d="m 35.272,31.625 h -6.951 v -1.378 h 0.963 c -0.72,-0.354 -1.08,-0.911 -1.08,-1.672 0,-0.614 0.226,-1.098 0.676,-1.45 0.45,-0.352 1.069,-0.528 1.857,-0.528 0.856,0 1.539,0.198 2.049,0.595 0.509,0.398 0.763,0.93 0.763,1.598 0,0.537 -0.211,1.023 -0.633,1.457 h 2.356 z m -3.176,-1.378 c 0.373,-0.336 0.559,-0.693 0.559,-1.071 0,-0.338 -0.164,-0.608 -0.491,-0.81 -0.327,-0.202 -0.764,-0.302 -1.311,-0.302 -1.046,0 -1.569,0.336 -1.569,1.01 0,0.406 0.263,0.797 0.787,1.173 z"
   id="path8454" /><path
   inkscape:connector-curvature="0"
   style="fill:#2c5aa0"
   d="m 26.081,23.929 v 1.379 h 7.351 v -1.379 z"
   id="rect8456" /><path
   inkscape:connector-curvature="0"
   style="fill:#2c5aa0;fill-rule:nonzero"
   d="m 35.272,22.188 -1.84,-1.159 -5.111,1.894 v -1.48 l 3.416,-1.266 -3.416,-1.504 v -1.048 l 6.951,3.157 z"
   id="path8458" /><path
   inkscape:connector-curvature="0"
   style="fill:#00112b;fill-rule:nonzero"
   d="m 10.895,331.095 h 1.751 l 1.632,5.45 1.687,-5.45 h 1.743 l -2.268,6.813 c -0.212,0.628 -0.591,0.942 -1.139,0.942 -0.555,0 -0.938,-0.317 -1.15,-0.952 z"
   id="path42" /><path
   inkscape:connector-curvature="0"
   style="fill:#00112b;fill-rule:nonzero"
   d="m 17.839,336.856 v -5.761 h 1.643 v 5.707 c 0.029,0.204 0.219,0.306 0.57,0.306 h 1.117 c 0.336,0 0.522,-0.094 0.559,-0.284 l 0.011,-0.055 v -5.674 h 1.643 v 5.75 c 0,0.504 -0.055,0.862 -0.164,1.074 -0.293,0.562 -0.807,0.843 -1.545,0.843 h -2.125 c -0.76,0 -1.278,-0.288 -1.556,-0.865 -0.102,-0.212 -0.153,-0.559 -0.153,-1.041 z"
   id="path44" /><path
   inkscape:connector-curvature="0"
   style="fill:#00112b;fill-rule:nonzero"
   d="m 24.138,336.889 v -5.794 h 1.643 v 5.663 c 0,0.234 0.138,0.35 0.416,0.35 h 2.925 l -0.011,1.654 h -3.056 c -0.11,0 -0.205,-0.003 -0.285,-0.01 -0.592,-0.051 -1.012,-0.225 -1.26,-0.521 -0.248,-0.296 -0.372,-0.743 -0.372,-1.342 z"
   id="path46" /><path
   inkscape:connector-curvature="0"
   style="fill:#00112b;fill-rule:nonzero"
   d="m 29.176,332.749 v -1.654 h 4.93 v 1.654 h -1.654 v 6.013 h -1.644 v -6.013 z"
   id="path48" /><rect
   style="fill:#ffffff"
   height="0.90399998"
   width="1.721"
   y="323.72299"
   x="15.605"
   id="rect8463" /><path
   inkscape:connector-curvature="0"
   style="fill:#ffffff;fill-rule:nonzero"
   d="m 18.918,322.251 h -0.66 v -0.997 h 1.837 v 4.526 h -1.177 z"
   id="path8465" /><path
   inkscape:connector-curvature="0"
   style="fill:#ffffff;fill-rule:nonzero"
   d="m 24.809,325.78 h -3.642 l 1.121,-1.164 c 0.296,-0.309 0.528,-0.569 0.696,-0.785 0.168,-0.212 0.292,-0.392 0.376,-0.54 0.08,-0.148 0.132,-0.268 0.152,-0.36 0.02,-0.092 0.032,-0.172 0.032,-0.236 0,-0.068 -0.012,-0.132 -0.036,-0.196 -0.02,-0.064 -0.052,-0.12 -0.096,-0.172 -0.044,-0.048 -0.1,-0.088 -0.16,-0.12 -0.064,-0.028 -0.136,-0.045 -0.22,-0.045 -0.16,0 -0.284,0.053 -0.372,0.157 -0.092,0.104 -0.136,0.232 -0.136,0.388 0,0.044 0.004,0.108 0.016,0.192 h -1.285 c 0,-0.264 0.044,-0.504 0.132,-0.72 0.084,-0.217 0.204,-0.401 0.361,-0.557 0.156,-0.156 0.344,-0.276 0.556,-0.36 0.216,-0.084 0.448,-0.128 0.704,-0.128 0.252,0 0.484,0.04 0.7,0.12 0.212,0.08 0.401,0.192 0.557,0.336 0.156,0.144 0.276,0.316 0.364,0.516 0.088,0.197 0.132,0.413 0.132,0.645 0,0.248 -0.052,0.476 -0.16,0.684 -0.104,0.212 -0.272,0.428 -0.504,0.648 l -0.753,0.701 h 1.465 z"
   id="path8467" /><path
   inkscape:connector-curvature="0"
   style="fill:#ffffff;fill-rule:nonzero"
   d="m 26.357,321.254 1.093,2.757 1.096,-2.757 h 1.281 l -1.909,4.526 h -0.936 l -1.901,-4.526 z"
   id="path8469" /><path
   inkscape:connector-curvature="0"
   style="fill:#ffffff;fill-rule:nonzero"
   d="m 15.037,256.135 h 1.225 v -1.225 h 0.768 v 1.225 h 1.216 v 0.768 H 17.03 v 1.225 h -0.768 v -1.225 h -1.225 z"
   id="path8473" /><path
   inkscape:connector-curvature="0"
   style="fill:#ffffff;fill-rule:nonzero"
   d="m 20.275,255.251 h -0.66 v -0.997 h 1.837 v 4.526 h -1.177 z"
   id="path8475" /><path
   inkscape:connector-curvature="0"
   style="fill:#ffffff;fill-rule:nonzero"
   d="m 26.166,258.78 h -3.642 l 1.125,-1.164 c 0.296,-0.309 0.528,-0.569 0.692,-0.785 0.168,-0.212 0.296,-0.392 0.376,-0.54 0.084,-0.148 0.132,-0.268 0.152,-0.36 0.02,-0.092 0.032,-0.172 0.032,-0.236 0,-0.068 -0.012,-0.132 -0.032,-0.196 -0.024,-0.064 -0.056,-0.12 -0.1,-0.172 -0.044,-0.048 -0.096,-0.088 -0.16,-0.12 -0.06,-0.028 -0.136,-0.045 -0.22,-0.045 -0.156,0 -0.284,0.053 -0.372,0.157 -0.092,0.104 -0.136,0.232 -0.136,0.388 0,0.044 0.008,0.108 0.02,0.192 h -1.285 c 0,-0.264 0.04,-0.504 0.128,-0.72 0.084,-0.217 0.208,-0.401 0.364,-0.557 0.157,-0.156 0.341,-0.276 0.553,-0.36 0.216,-0.084 0.452,-0.128 0.704,-0.128 0.252,0 0.488,0.04 0.7,0.12 0.216,0.08 0.4,0.192 0.557,0.336 0.156,0.144 0.276,0.316 0.364,0.516 0.088,0.197 0.132,0.413 0.132,0.645 0,0.248 -0.052,0.476 -0.156,0.684 -0.108,0.212 -0.276,0.428 -0.509,0.648 l -0.752,0.701 h 1.465 z"
   id="path8477" /><path
   inkscape:connector-curvature="0"
   style="fill:#ffffff;fill-rule:nonzero"
   d="m 27.714,254.254 1.093,2.757 1.096,-2.757 h 1.281 l -1.909,4.526 h -0.936 l -1.901,-4.526 z"
   id="path8479" /><path
   inkscape:connector-curvature="0"
   style="fill:#ffffff;fill-rule:nonzero"
   d="m 16.677,222.135 h 1.225 v -1.225 h 0.768 v 1.225 h 1.217 v 0.768 H 18.67 v 1.225 h -0.768 v -1.225 h -1.225 z"
   id="path8483" /><path
   inkscape:connector-curvature="0"
   style="fill:#ffffff;fill-rule:nonzero"
   d="m 23.684,221.251 h -1.565 l -0.08,0.5 c 0.072,-0.008 0.14,-0.016 0.2,-0.02 0.061,-0.008 0.121,-0.012 0.185,-0.012 0.228,0 0.44,0.04 0.636,0.12 0.196,0.08 0.364,0.192 0.504,0.332 0.14,0.14 0.252,0.308 0.332,0.504 0.08,0.196 0.12,0.408 0.12,0.64 0,0.244 -0.048,0.465 -0.136,0.661 -0.092,0.196 -0.216,0.364 -0.38,0.5 -0.164,0.14 -0.364,0.244 -0.6,0.32 -0.236,0.072 -0.5,0.108 -0.789,0.108 -0.272,0 -0.528,-0.032 -0.776,-0.096 -0.244,-0.068 -0.476,-0.168 -0.692,-0.304 l 0.176,-1.105 c 0.2,0.172 0.4,0.305 0.608,0.393 0.208,0.092 0.408,0.136 0.596,0.136 0.24,0 0.429,-0.064 0.569,-0.196 0.14,-0.128 0.212,-0.289 0.212,-0.481 0,-0.224 -0.096,-0.408 -0.284,-0.544 -0.188,-0.14 -0.433,-0.208 -0.737,-0.208 -0.136,0 -0.276,0.016 -0.42,0.044 -0.144,0.032 -0.288,0.08 -0.424,0.144 l 0.376,-2.433 h 2.369 z"
   id="path8485" /><path
   inkscape:connector-curvature="0"
   style="fill:#ffffff;fill-rule:nonzero"
   d="m 25.685,220.254 1.088,2.757 1.101,-2.757 h 1.276 l -1.908,4.526 h -0.937 l -1.901,-4.526 z"
   id="path8487" /><path
   inkscape:connector-curvature="0"
   style="fill:#ffffff;fill-rule:nonzero"
   d="m 17.411,188.369 1.093,2.757 1.1,-2.757 h 1.277 l -1.909,4.526 h -0.936 l -1.901,-4.526 z"
   id="path8491" /><path
   inkscape:connector-curvature="0"
   style="fill:#ffffff;fill-rule:nonzero"
   d="m 23.454,191.214 -0.528,-1.504 -0.528,1.504 z m 0.312,0.897 h -1.681 l -0.268,0.784 h -1.252 l 1.72,-4.526 h 1.285 l 1.721,4.526 h -1.253 z"
   id="path8493" /><path
   inkscape:connector-curvature="0"
   style="fill:#ffffff;fill-rule:nonzero"
   d="m 26.983,190.394 h 0.221 c 0.232,0 0.412,-0.048 0.536,-0.144 0.124,-0.096 0.184,-0.236 0.184,-0.416 0,-0.18 -0.06,-0.316 -0.184,-0.412 -0.124,-0.096 -0.304,-0.145 -0.536,-0.145 h -0.221 z m 2.586,2.501 h -1.465 l -1.121,-1.741 v 1.741 h -1.176 v -4.526 h 1.829 c 0.252,0 0.472,0.04 0.66,0.112 0.188,0.076 0.344,0.176 0.464,0.304 0.124,0.128 0.216,0.276 0.276,0.444 0.064,0.169 0.096,0.349 0.096,0.541 0,0.344 -0.084,0.624 -0.252,0.836 -0.164,0.212 -0.408,0.36 -0.732,0.436 z"
   id="path8495" /><path
   inkscape:connector-curvature="0"
   style="fill:#ffffff;fill-rule:nonzero"
   d="m 17.677,290.247 h 2.333 c 0,0.24 -0.012,0.46 -0.032,0.656 -0.02,0.196 -0.06,0.376 -0.12,0.544 -0.08,0.237 -0.196,0.445 -0.34,0.629 -0.144,0.18 -0.312,0.332 -0.508,0.456 -0.192,0.12 -0.405,0.216 -0.637,0.276 -0.232,0.064 -0.476,0.096 -0.732,0.096 -0.352,0 -0.672,-0.056 -0.964,-0.172 -0.288,-0.116 -0.541,-0.28 -0.749,-0.488 -0.208,-0.212 -0.368,-0.464 -0.484,-0.757 -0.116,-0.296 -0.176,-0.62 -0.176,-0.976 0,-0.352 0.06,-0.672 0.172,-0.968 0.116,-0.292 0.276,-0.545 0.488,-0.753 0.208,-0.208 0.461,-0.372 0.757,-0.488 0.296,-0.116 0.628,-0.172 0.992,-0.172 0.472,0 0.884,0.1 1.241,0.304 0.356,0.204 0.64,0.52 0.848,0.949 l -1.116,0.464 c -0.105,-0.248 -0.241,-0.428 -0.409,-0.536 -0.164,-0.108 -0.352,-0.161 -0.564,-0.161 -0.176,0 -0.336,0.033 -0.48,0.101 -0.144,0.064 -0.268,0.16 -0.368,0.28 -0.104,0.124 -0.184,0.268 -0.24,0.44 -0.06,0.172 -0.088,0.364 -0.088,0.576 0,0.192 0.024,0.372 0.076,0.536 0.048,0.164 0.124,0.304 0.224,0.424 0.1,0.121 0.224,0.213 0.372,0.281 0.148,0.064 0.32,0.1 0.516,0.1 0.116,0 0.228,-0.016 0.336,-0.04 0.108,-0.028 0.204,-0.068 0.288,-0.128 0.088,-0.056 0.16,-0.132 0.216,-0.225 0.056,-0.092 0.092,-0.204 0.113,-0.336 h -0.965 z"
   id="path8499" /><path
   inkscape:connector-curvature="0"
   style="fill:#ffffff;fill-rule:nonzero"
   d="m 20.754,292.78 v -4.526 h 1.177 l 2.173,2.769 v -2.769 h 1.168 v 4.526 h -1.168 l -2.173,-2.765 v 2.765 z"
   id="path8501" /><path
   inkscape:connector-curvature="0"
   style="fill:#ffffff;fill-rule:nonzero"
   d="m 27.397,291.784 h 0.268 c 0.204,0 0.388,-0.032 0.548,-0.096 0.161,-0.064 0.293,-0.153 0.405,-0.265 0.108,-0.112 0.192,-0.244 0.252,-0.4 0.056,-0.152 0.088,-0.32 0.088,-0.504 0,-0.18 -0.032,-0.348 -0.092,-0.504 -0.06,-0.156 -0.144,-0.292 -0.256,-0.404 -0.108,-0.112 -0.244,-0.2 -0.405,-0.264 -0.16,-0.064 -0.34,-0.096 -0.54,-0.096 h -0.268 z m -1.176,-3.53 h 1.74 c 0.308,0 0.597,0.064 0.865,0.188 0.272,0.124 0.508,0.288 0.708,0.496 0.204,0.204 0.36,0.445 0.476,0.721 0.116,0.272 0.176,0.56 0.176,0.86 0,0.296 -0.056,0.58 -0.172,0.852 -0.112,0.277 -0.272,0.517 -0.472,0.725 -0.204,0.208 -0.44,0.376 -0.708,0.5 -0.272,0.124 -0.561,0.184 -0.873,0.184 h -1.74 z"
   id="path8503" /><path
   inkscape:connector-curvature="0"
   style="fill:none;stroke:#2c5aa0;stroke-width:1px;stroke-linejoin:miter;stroke-miterlimit:4"
   d="m 37.188,152.65 c 4.17,-7.223 2.538,-16.487 -3.854,-21.848 -6.388,-5.361 -15.794,-5.361 -22.183,0 -6.388,5.361 -8.023,14.625 -3.851,21.848"
   id="path8507" /><path
   inkscape:connector-curvature="0"
   style="fill:#cccccc;stroke:#2c5aa0;stroke-width:1px;stroke-linejoin:miter;stroke-miterlimit:4"
   d="m 36.624,154.467 0.037,6.72"
   id="path8510" /><path
   inkscape:connector-curvature="0"
   style="fill:#cccccc;stroke:#2c5aa0;stroke-width:1px;stroke-linejoin:miter;stroke-miterlimit:4"
   d="m 40.001,157.779 -6.718,0.031"
   id="path8513" /><path
   inkscape:connector-curvature="0"
   style="fill:#cccccc;stroke:#2c5aa0;stroke-width:1px;stroke-linejoin:miter;stroke-miterlimit:4"
   d="M 12.102,157.589 5.384,157.62"
   id="path8516" /><path
   inkscape:connector-curvature="0"
   style="fill:none;stroke:#2c5aa0;stroke-width:1px;stroke-linejoin:miter;stroke-miterlimit:4"
   d="M 22.243,144.025 22.209,124.814"
   id="path8519" />
</svg>