<?xml version="1.0" encoding="UTF-8" standalone="no"?>
<svg
   xmlns:dc="http://purl.org/dc/elements/1.1/"
   xmlns:cc="http://creativecommons.org/ns#"
   xmlns:rdf="http://www.w3.org/1999/02/22-rdf-syntax-ns#"
   xmlns:svg="http://www.w3.org/2000/svg"
   xmlns="http://www.w3.org/2000/svg"
   xmlns:xlink="http://www.w3.org/1999/xlink"
   xmlns:sodipodi="http://sodipodi.sourceforge.net/DTD/sodipodi-0.dtd"
   xmlns:inkscape="http://www.inkscape.org/namespaces/inkscape"
   width="60px"
   height="380px"
   version="1.1"
   xml:space="preserve"
   style="fill-rule:evenodd;clip-rule:evenodd;stroke-miterlimit:10;"
   id="svg6312"
   sodipodi:docname="UtilBypass.svg"
   inkscape:version="0.92.3 (2405546, 2018-03-11)">
  <defs
   id="defs6316">
    <linearGradient
   inkscape:collect="always"
   id="linearGradient6603">
      <stop
   style="stop-color:#d1e4fd;stop-opacity:1"
   offset="0"
   id="stop6599" />
      <stop
   style="stop-color:#ffffff;stop-opacity:1"
   offset="1"
   id="stop6601" />
    </linearGradient>
    <linearGradient
   inkscape:collect="always"
   xlink:href="#linearGradient6603"
   id="linearGradient6605"
   x1="0.00015104213"
   y1="379.99832"
   x2="59.999996"
   y2="-0.00014301452"
   gradientUnits="userSpaceOnUse" />
  </defs>
  <metadata
   id="metadata6318">
    <rdf:RDF>
      <cc:Work
   rdf:about="">
        <dc:format>image/svg+xml</dc:format>
        <dc:type
   rdf:resource="http://purl.org/dc/dcmitype/StillImage" />
      <dc:title></dc:title></cc:Work>
    </rdf:RDF>
  </metadata>
  <sodipodi:namedview
   pagecolor="#ffffff"
   bordercolor="#666666"
   borderopacity="1"
   objecttolerance="10"
   gridtolerance="10"
   guidetolerance="10"
   inkscape:pageopacity="0"
   inkscape:pageshadow="2"
   inkscape:window-width="1920"
   inkscape:window-height="1017"
   id="namedview6314"
   showgrid="false"
   inkscape:zoom="1.5798254"
   inkscape:cx="58.434397"
   inkscape:cy="155.03501"
   inkscape:window-x="1912"
   inkscape:window-y="-8"
   inkscape:window-maximized="1"
   inkscape:current-layer="svg6312" />
  <rect
   x="0.00015104213"
   y="-0.00014301452"
   width="59.999844"
   height="379.99847"
   style="fill:url(#linearGradient6605);fill-opacity:1;stroke-width:2.39449477"
   id="rect6088" />
  <rect
   id="rect6091"
   style="fill:#2c5aa0;fill-rule:nonzero;stroke-width:4.00165987"
   height="6.0345035"
   width="1.5686507"
   y="292.59628"
   x="18.729662" />
  <path
   inkscape:connector-curvature="0"
   id="path6093"
   style="fill:#2c5aa0;fill-rule:nonzero;stroke-width:4.00165987"
   d="m 21.562838,298.6308 v -6.0345 h 1.56865 l 2.897202,3.68953 v -3.68953 h 1.560648 v 6.0345 H 26.02869 l -2.897202,-3.68953 v 3.68953 z" />
  <path
   inkscape:connector-curvature="0"
   id="path6095"
   style="fill:#2c5aa0;fill-rule:nonzero;stroke-width:4.00165987"
   d="m 30.422513,295.36545 h 0.520216 c 0.576239,0 0.864358,-0.25211 0.864358,-0.75232 0,-0.5002 -0.288119,-0.75231 -0.864358,-0.75231 h -0.520216 z m 0,3.26535 h -1.568651 v -6.0345 h 2.497036 c 0.67628,0 1.196496,0.17607 1.556646,0.52822 0.360149,0.35214 0.540224,0.84835 0.540224,1.48861 0,0.64027 -0.180075,1.13647 -0.540224,1.48862 -0.36015,0.35215 -0.880366,0.52822 -1.556646,0.52822 h -0.928385 z" />
  <path
   inkscape:connector-curvature="0"
   id="path6097"
   style="fill:#2c5aa0;fill-rule:nonzero;stroke-width:4.00165987"
   d="m 35.848764,292.5963 v 3.28136 c 0,0.17607 0.008,0.35615 0.02001,0.54022 0.01201,0.18408 0.05202,0.35215 0.12005,0.50021 0.06803,0.14806 0.172071,0.27211 0.316131,0.36415 0.14406,0.092 0.348144,0.14006 0.608252,0.14006 0.260108,0 0.464193,-0.048 0.604251,-0.14006 0.140058,-0.092 0.248103,-0.21609 0.316131,-0.36415 0.06803,-0.14806 0.112047,-0.31613 0.124052,-0.50021 0.01201,-0.18407 0.02001,-0.36415 0.02001,-0.54022 v -3.28136 h 1.560647 v 3.49745 c 0,0.94039 -0.216089,1.62467 -0.644267,2.05685 -0.428178,0.43218 -1.088451,0.64827 -1.980822,0.64827 -0.89237,0 -1.552644,-0.21609 -1.984823,-0.64827 -0.432179,-0.43218 -0.648269,-1.11646 -0.648269,-2.05685 v -3.49745 z" />
  <path
   inkscape:connector-curvature="0"
   id="path6099"
   style="fill:#2c5aa0;fill-rule:nonzero;stroke-width:4.00165987"
   d="m 43.091768,293.92485 v 4.70595 h -1.56865 v -4.70595 h -1.288535 v -1.32855 h 4.14572 v 1.32855 z" />
  
  
  
  
  
  <g
   id="g1061"
   style="fill:#00112b"><path
     d="m 8.1476262,30.528563 h 0.5407596 c 0.6206747,0 1.065536,-0.07858 1.3345842,-0.238414 0.267716,-0.15983 0.402239,-0.415559 0.402239,-0.767186 0,-0.352959 -0.134523,-0.608687 -0.402239,-0.767186 C 9.7539218,28.595947 9.3090605,28.516032 8.6883858,28.516032 H 8.1476262 Z m 0,-3.849249 H 8.600479 c 0.7725136,0 1.1574385,-0.306342 1.1574385,-0.917693 0,-0.612683 -0.3849249,-0.919025 -1.1574385,-0.919025 H 8.1476262 Z M 5.6822423,22.956598 h 3.6734354 c 0.8724073,0 1.5343723,0.209111 1.9872243,0.628666 0.452853,0.419555 0.67928,1.022914 0.67928,1.811411 0,0.478159 -0.08524,0.87374 -0.257061,1.188073 -0.171818,0.315665 -0.434206,0.580717 -0.787165,0.799152 0.352959,0.06793 0.652641,0.170486 0.900378,0.309005 0.247737,0.137188 0.448857,0.307674 0.60336,0.508794 0.155835,0.20112 0.266384,0.427546 0.33298,0.679279 0.06793,0.251733 0.101226,0.519449 0.101226,0.805811 0,0.44353 -0.07725,0.837778 -0.233086,1.181413 -0.154503,0.344968 -0.372938,0.633994 -0.653973,0.868412 -0.281035,0.234418 -0.622007,0.411564 -1.025578,0.528773 -0.40224,0.117209 -0.855093,0.175813 -1.3585587,0.175813 h -3.962462 z"
     style="fill:#00112b;fill-rule:nonzero;stroke-width:1.33192003;fill-opacity:1"
     id="path6104"
     inkscape:connector-curvature="0" /><path
     d="M 16.111176,27.887366 12.65218,22.956598 h 2.943543 l 1.760798,2.590584 1.748811,-2.590584 h 2.943543 L 18.57656,27.887366 V 32.4412 h -2.465384 z"
     style="fill:#00112b;fill-rule:nonzero;stroke-width:1.33192003;fill-opacity:1"
     id="path6106"
     inkscape:connector-curvature="0" /><path
     d="m 25.382671,27.30798 h 0.817799 c 0.905706,0 1.358558,-0.392916 1.358558,-1.181413 0,-0.788496 -0.452852,-1.182745 -1.358558,-1.182745 h -0.817799 z m 0,5.13322 h -2.465384 v -9.484602 h 3.923836 c 1.065536,0 1.880671,0.275707 2.446737,0.829786 0.567398,0.552747 0.849765,1.333252 0.849765,2.340183 0,1.0056 -0.282367,1.786105 -0.849765,2.338852 -0.566066,0.554079 -1.381201,0.831118 -2.446737,0.831118 h -1.458452 z"
     style="fill:#00112b;fill-rule:nonzero;stroke-width:1.33192003;fill-opacity:1"
     id="path6108"
     inkscape:connector-curvature="0" /><path
     d="m 36.075325,28.918272 -1.106826,-3.156651 -1.106825,3.156651 z m 0.653973,1.875343 H 33.207701 L 32.641635,32.4412 h -2.62921 l 3.609503,-9.484602 h 2.69181 l 3.610836,9.484602 h -2.62921 z"
     style="fill:#00112b;fill-rule:nonzero;stroke-width:1.33192003;fill-opacity:1"
     id="path6110"
     inkscape:connector-curvature="0" /><path
     d="m 46.215232,25.383356 c -0.269048,-0.217103 -0.536764,-0.379597 -0.805812,-0.483487 -0.267716,-0.105222 -0.528772,-0.157167 -0.779173,-0.157167 -0.319661,0 -0.579385,0.07459 -0.780505,0.226427 -0.20112,0.150507 -0.302346,0.347631 -0.302346,0.591372 0,0.167822 0.05061,0.30501 0.151839,0.414227 0.09989,0.109218 0.231754,0.203784 0.39558,0.283699 0.163826,0.07992 0.347631,0.149175 0.554079,0.20778 0.205116,0.0586 0.408899,0.121205 0.610019,0.187801 0.80448,0.269047 1.39452,0.627334 1.767458,1.076191 0.372938,0.448857 0.559406,1.03357 0.559406,1.754139 0,0.487482 -0.08125,0.927016 -0.245073,1.321264 -0.163826,0.394249 -0.40224,0.732556 -0.716573,1.012259 -0.315665,0.281036 -0.70059,0.49947 -1.157438,0.655305 -0.458181,0.154503 -0.974966,0.231754 -1.554351,0.231754 -1.198728,0 -2.310881,-0.355622 -3.333796,-1.0682 l 1.057545,-1.988556 c 0.368942,0.327652 0.733888,0.570062 1.093506,0.729892 0.36095,0.15983 0.717905,0.238414 1.069532,0.238414 0.40224,0 0.703254,-0.0919 0.899046,-0.275708 0.197124,-0.185137 0.295686,-0.394248 0.295686,-0.629998 0,-0.142515 -0.02397,-0.265052 -0.07459,-0.370274 -0.05061,-0.105221 -0.134524,-0.20112 -0.251733,-0.289026 -0.117209,-0.08924 -0.27038,-0.170486 -0.459513,-0.246406 -0.189132,-0.07459 -0.416891,-0.158498 -0.685938,-0.250401 -0.318329,-0.101225 -0.629999,-0.211775 -0.93634,-0.334311 -0.306342,-0.121205 -0.579385,-0.282368 -0.817799,-0.483487 -0.239746,-0.202452 -0.431542,-0.455517 -0.579385,-0.761859 -0.146512,-0.306341 -0.219767,-0.69393 -0.219767,-1.162766 0,-0.470168 0.07725,-0.896382 0.233086,-1.277311 0.154503,-0.382261 0.372937,-0.708582 0.653973,-0.981625 0.281035,-0.271712 0.62467,-0.483487 1.030906,-0.635326 0.407567,-0.150507 0.861752,-0.226426 1.365218,-0.226426 0.470167,0 0.960314,0.06526 1.471771,0.195792 0.511458,0.129196 1.002936,0.319661 1.471772,0.571394 z"
     style="fill:#00112b;fill-rule:nonzero;stroke-width:1.33192003;fill-opacity:1"
     id="path6112"
     inkscape:connector-curvature="0" /><path
     d="m 54.341276,25.383356 c -0.267716,-0.217103 -0.536764,-0.379597 -0.80448,-0.483487 -0.269048,-0.105222 -0.528772,-0.157167 -0.780505,-0.157167 -0.318329,0 -0.579385,0.07459 -0.780505,0.226427 -0.20112,0.150507 -0.301014,0.347631 -0.301014,0.591372 0,0.167822 0.04928,0.30501 0.150507,0.414227 0.101226,0.109218 0.233086,0.203784 0.396912,0.283699 0.162494,0.07992 0.347631,0.149175 0.552747,0.20778 0.205115,0.0586 0.408899,0.121205 0.610019,0.187801 0.805812,0.269047 1.39452,0.627334 1.767458,1.076191 0.372938,0.448857 0.560738,1.03357 0.560738,1.754139 0,0.487482 -0.08258,0.927016 -0.246405,1.321264 -0.162494,0.394249 -0.40224,0.732556 -0.716573,1.012259 -0.314333,0.281036 -0.70059,0.49947 -1.157438,0.655305 -0.456849,0.154503 -0.974966,0.231754 -1.553019,0.231754 -1.20006,0 -2.310881,-0.355622 -3.333796,-1.0682 l 1.056213,-1.988556 c 0.368942,0.327652 0.733888,0.570062 1.094838,0.729892 0.36095,0.15983 0.716573,0.238414 1.069532,0.238414 0.40224,0 0.701922,-0.0919 0.899046,-0.275708 0.197124,-0.185137 0.295686,-0.394248 0.295686,-0.629998 0,-0.142515 -0.02531,-0.265052 -0.07592,-0.370274 -0.05061,-0.105221 -0.134524,-0.20112 -0.251733,-0.289026 -0.117209,-0.08924 -0.27038,-0.170486 -0.458181,-0.246406 C 52.146271,28.730468 51.91718,28.64656 51.649464,28.554657 51.331135,28.453432 51.018134,28.342882 50.711793,28.220346 50.405452,28.099141 50.13374,27.937978 49.893995,27.736859 49.655581,27.534407 49.462453,27.281342 49.315942,26.975 49.16943,26.668659 49.094843,26.28107 49.094843,25.812234 c 0,-0.470168 0.07858,-0.896382 0.233086,-1.277311 0.155834,-0.382261 0.372937,-0.708582 0.653973,-0.981625 0.281035,-0.271712 0.62467,-0.483487 1.032238,-0.635326 0.406235,-0.150507 0.861752,-0.226426 1.365218,-0.226426 0.468835,0 0.960314,0.06526 1.471771,0.195792 0.511457,0.129196 1.001604,0.319661 1.471772,0.571394 z"
     style="fill:#00112b;fill-rule:nonzero;stroke-width:1.33192003;fill-opacity:1"
     id="path6114"
     inkscape:connector-curvature="0" /></g>
  <path
   d="m 57.070181,251.23794 c 0,-0.72108 -0.585419,-1.30734 -1.306076,-1.30734 H 4.9975812 c -0.7206576,0 -1.306076,0.58626 -1.306076,1.30734 v 38.92399 c 0,0.72109 0.5854184,1.30614 1.306076,1.30614 H 55.764105 c 0.720657,0 1.306076,-0.58505 1.306076,-1.30614 z"
   id="path6119"
   inkscape:connector-curvature="0"
   style="fill:#3486f7;fill-opacity:1;stroke:#3063b0;stroke-width:1;stroke-miterlimit:10;stroke-dasharray:none;stroke-opacity:1" />
  <path
   d="m 57.070181,155.23794 c 0,-0.72108 -0.585419,-1.30734 -1.306076,-1.30734 H 4.9975812 c -0.7206576,0 -1.306076,0.58626 -1.306076,1.30734 v 38.92399 c 0,0.72109 0.5854184,1.30614 1.306076,1.30614 H 55.764105 c 0.720657,0 1.306076,-0.58505 1.306076,-1.30614 z"
   id="path6123"
   inkscape:connector-curvature="0"
   style="fill:#3486f7;fill-opacity:1;stroke:#3063b0;stroke-width:1;stroke-miterlimit:10;stroke-dasharray:none;stroke-opacity:1" />
  
  
  
  <g
   id="g1067"
   style="fill:#00112b"><path
     inkscape:connector-curvature="0"
     style="fill:#00112b;fill-rule:nonzero;stroke-width:0.0626855;fill-opacity:1"
     d="m 18.394489,356.09446 h 1.751935 l 1.631452,5.45019 1.68693,-5.45019 h 1.743033 l -2.267585,6.81328 c -0.211877,0.62818 -0.591501,0.94198 -1.139184,0.94198 -0.555017,0 -0.938465,-0.31713 -1.149966,-0.95163 z"
     id="path42" /><path
     inkscape:connector-curvature="0"
     style="fill:#00112b;fill-rule:nonzero;stroke-width:0.0626855;fill-opacity:1"
     d="m 25.339102,361.8562 v -5.76174 h 1.64305 v 5.70695 c 0.02909,0.20454 0.219086,0.30672 0.569623,0.30672 h 1.117306 c 0.335807,0 0.522045,-0.0948 0.558654,-0.28478 l 0.01097,-0.0548 v -5.6741 h 1.643049 v 5.75077 c 0,0.50386 -0.05472,0.86173 -0.164299,1.07348 -0.292114,0.56242 -0.80695,0.84344 -1.544508,0.84344 h -2.125038 c -0.759623,0 -1.278032,-0.28842 -1.555478,-0.86538 -0.102303,-0.21168 -0.153329,-0.55859 -0.153329,-1.04057 z"
     id="path44" /><path
     inkscape:connector-curvature="0"
     style="fill:#00112b;fill-rule:nonzero;stroke-width:0.0626855;fill-opacity:1"
     d="m 31.637553,361.88911 v -5.79459 h 1.643113 v 5.66313 c 0,0.23382 0.138597,0.35054 0.416231,0.35054 h 2.924718 l -0.01097,1.65408 h -3.056169 c -0.109512,0 -0.204543,-0.004 -0.28478,-0.011 -0.591563,-0.051 -1.011556,-0.22454 -1.259728,-0.52029 -0.24836,-0.29587 -0.372415,-0.74307 -0.372415,-1.3419 z"
     id="path46" /><path
     inkscape:connector-curvature="0"
     style="fill:#00112b;fill-rule:nonzero;stroke-width:0.0626855;fill-opacity:1"
     d="m 36.676214,357.74848 v -1.65402 h 4.929274 v 1.65402 h -1.65402 v 6.01373 h -1.643112 v -6.01373 z"
     id="path48" /></g>
  <path
   id="path4"
   d="m 38.383465,346.41724 c 0,-4.50925 -3.655481,-8.1647 -8.164802,-8.1647 -4.50914,0 -8.164658,3.65545 -8.164658,8.1647 0,4.50921 3.655482,8.16469 8.164658,8.16469 4.509321,0 8.164802,-3.65548 8.164802,-8.16469 z"
   style="fill:#757575;fill-rule:nonzero;stroke:#414c55;stroke-width:0.61073178px;stroke-opacity:1"
   inkscape:connector-curvature="0" />
  <path
   inkscape:connector-curvature="0"
   style="fill:#2b2b2b;fill-rule:nonzero;stroke-width:0.0359254"
   d="m 28.320581,351.39363 0.552927,-0.89027 -1.063176,-2.39314 -2.216166,-2.28424 0.459414,3.10115 0.597404,1.2801 0.832714,1.26335 z"
   id="polygon6" />
  <path
   inkscape:connector-curvature="0"
   style="fill:#262626;fill-rule:nonzero;stroke-width:0.0359254"
   d="m 32.0482,351.40099 -0.552964,-0.89034 1.063284,-2.39306 2.216059,-2.28421 -0.459378,3.10112 -0.59744,1.28005 -0.832571,1.26343 z"
   id="polygon8" />
  <path
   inkscape:connector-curvature="0"
   style="fill:#424242;fill-rule:nonzero;stroke-width:0.0359254"
   d="m 27.636058,340.35896 2.58433,-0.66042 v 13.44771 l -1.349646,-2.65126 -1.06041,-2.38477 -1.022832,-0.58109 -2.05152,-2.92055 -0.05741,-0.77527 1.148571,-2.0674 z"
   id="polygon12" />
  <path
   inkscape:connector-curvature="0"
   style="fill:#333333;fill-rule:nonzero;stroke-width:0.0359254"
   d="m 32.801376,340.36377 -2.584186,-0.66038 v 13.44778 l 1.349502,-2.65133 1.060446,-2.38469 1.022904,-0.5812 2.051376,-2.92056 0.05745,-0.77523 -1.148499,-2.0674 z"
   id="polygon14" />
  <path
   inkscape:connector-curvature="0"
   style="fill:#4c4c4c;fill-rule:nonzero;stroke-width:0.0359254"
   d="m 28.49604,346.23704 1.722982,-1.68444 v 1.22969 l -1.722982,1.71821 v -1.26346"
   id="polyline16" />
  <path
   inkscape:connector-curvature="0"
   style="fill:#5b5b5b;fill-rule:nonzero;stroke-width:0.0359254"
   d="m 30.22028,345.78089 -1.722875,1.71821 0.376103,3.00426 1.34688,2.64289 z"
   id="polygon18" />
  <path
   inkscape:connector-curvature="0"
   style="fill:#333333;fill-rule:nonzero;stroke-width:0.0359254"
   d="m 30.220388,353.14625 -1.34688,-2.64289 1.346664,-0.63487 z"
   id="polygon20" />
  <path
   inkscape:connector-curvature="0"
   style="fill:#ffffff;fill-rule:nonzero;stroke-width:0.0359254"
   d="m 28.497405,347.4991 v -1.26346 l -1.248982,-1.57921 -1.477217,-1.19017 -0.0015,0.93169 0.775342,1.82328 z"
   id="polygon22" />
  <path
   inkscape:connector-curvature="0"
   style="fill:#2d2d2d;fill-rule:nonzero;stroke-width:0.0359254"
   d="m 31.942364,346.23772 -1.722874,-1.68443 v 1.22969 l 1.722874,1.71817 v -1.26343"
   id="polyline24" />
  <path
   inkscape:connector-curvature="0"
   style="fill:#353535;fill-rule:nonzero;stroke-width:0.0359254"
   d="m 30.217514,345.78089 1.722766,1.71821 -0.376103,3.00426 -1.346771,2.64289 z"
   id="polygon26" />
  <path
   inkscape:connector-curvature="0"
   style="fill:#191919;fill-rule:nonzero;stroke-width:0.0359254"
   d="m 30.217406,353.14625 1.346771,-2.64289 -1.346556,-0.63487 z"
   id="polygon28" />
  <path
   inkscape:connector-curvature="0"
   style="fill:#ffffff;fill-rule:nonzero;stroke-width:0.0359254"
   d="m 31.94028,347.4991 v -1.26343 l 1.248947,-1.57921 1.477324,-1.1902 0.0015,0.93172 -0.775198,1.82332 z"
   id="polygon30" />
  <path
   inkscape:connector-curvature="0"
   style="fill:#383838;fill-rule:nonzero;stroke-width:0.0359254"
   d="m 27.65226,340.33776 2.565972,4.2151 -0.0055,-4.86955"
   id="polyline32" />
  <path
   inkscape:connector-curvature="0"
   style="fill:#2d2d2d;fill-rule:nonzero;stroke-width:0.0359254"
   d="m 32.784994,340.3382 -2.565972,4.21509 0.0055,-4.86951"
   id="polyline34" />
  <path
   inkscape:connector-curvature="0"
   style="fill:#333333;fill-rule:nonzero;stroke-width:0.0359254"
   d="m 27.810907,348.11051 0.68772,-0.61008 0.375349,3.00602 z"
   id="polygon36" />
  <path
   inkscape:connector-curvature="0"
   style="fill:#1c1c1c;fill-rule:nonzero;stroke-width:0.0359254"
   d="m 32.630659,348.12528 -0.687756,-0.61009 -0.375349,3.00606 z"
   id="polygon38" />
  <path
   d="m 15.69217,285.139 v 4.116 h 1.645 v 1.162 h -3.017 v -5.278 z"
   style="fill:#ffffff;fill-rule:nonzero"
   id="path6151"
   inkscape:connector-curvature="0" />
  <path
   d="m 44.624,287.498 h 0.259 c 0.271,0 0.479,-0.056 0.623,-0.168 0.145,-0.112 0.217,-0.273 0.217,-0.483 0,-0.21 -0.072,-0.371 -0.217,-0.483 -0.144,-0.112 -0.352,-0.168 -0.623,-0.168 h -0.259 z m 3.017,2.919 h -1.708 l -1.309,-2.03 v 2.03 h -1.372 v -5.278 h 2.135 c 0.294,0 0.551,0.043 0.77,0.13 0.22,0.086 0.401,0.204 0.543,0.353 0.142,0.149 0.25,0.322 0.322,0.518 0.072,0.196 0.108,0.406 0.108,0.63 0,0.401 -0.096,0.727 -0.29,0.977 -0.194,0.249 -0.48,0.418 -0.858,0.507 z"
   style="fill:#ffffff;fill-rule:nonzero"
   id="path6155"
   inkscape:connector-curvature="0" />
  <path
   d="m 15.69217,232.13896 v 4.116 h 1.645 v 1.162 h -3.017 v -5.278 z"
   style="fill:#2c5aa0;fill-rule:nonzero;fill-opacity:1"
   id="path6159"
   inkscape:connector-curvature="0" />
  <path
   d="m 44.624,234.49796 h 0.259 c 0.271,0 0.479,-0.056 0.623,-0.168 0.145,-0.112 0.217,-0.273 0.217,-0.483 0,-0.21 -0.072,-0.371 -0.217,-0.483 -0.144,-0.112 -0.352,-0.168 -0.623,-0.168 h -0.259 z m 3.017,2.919 h -1.708 l -1.309,-2.03 v 2.03 h -1.372 v -5.278 h 2.135 c 0.294,0 0.551,0.043 0.77,0.13 0.22,0.086 0.401,0.204 0.543,0.353 0.142,0.149 0.25,0.322 0.322,0.518 0.072,0.196 0.108,0.406 0.108,0.63 0,0.401 -0.096,0.727 -0.29,0.977 -0.194,0.249 -0.48,0.418 -0.858,0.507 z"
   style="fill:#2c5aa0;fill-rule:nonzero;fill-opacity:1"
   id="path6163"
   inkscape:connector-curvature="0" />
  <path
   d="m 15.69217,189.139 v 4.116 h 1.645 v 1.162 h -3.017 v -5.278 z"
   style="fill:#ffffff;fill-rule:nonzero"
   id="path6167"
   inkscape:connector-curvature="0" />
  <path
   d="m 44.624,191.498 h 0.259 c 0.271,0 0.479,-0.056 0.623,-0.168 0.145,-0.112 0.217,-0.273 0.217,-0.483 0,-0.21 -0.072,-0.371 -0.217,-0.483 -0.144,-0.112 -0.352,-0.168 -0.623,-0.168 h -0.259 z m 3.017,2.919 h -1.708 l -1.309,-2.03 v 2.03 h -1.372 v -5.278 h 2.135 c 0.294,0 0.551,0.043 0.77,0.13 0.22,0.086 0.401,0.204 0.543,0.353 0.142,0.149 0.25,0.322 0.322,0.518 0.072,0.196 0.108,0.406 0.108,0.63 0,0.401 -0.096,0.727 -0.29,0.977 -0.194,0.249 -0.48,0.418 -0.858,0.507 z"
   style="fill:#ffffff;fill-rule:nonzero"
   id="path6171"
   inkscape:connector-curvature="0" />
  <path
   d="m 15.69217,325.139 v 4.116 h 1.645 v 1.162 h -3.017 v -5.278 z"
   style="fill:#2c5aa0;fill-rule:nonzero;fill-opacity:1"
   id="path6175"
   inkscape:connector-curvature="0" />
  <path
   d="m 44.624,327.498 h 0.259 c 0.271,0 0.479,-0.056 0.623,-0.168 0.145,-0.112 0.217,-0.273 0.217,-0.483 0,-0.21 -0.072,-0.371 -0.217,-0.483 -0.144,-0.112 -0.352,-0.168 -0.623,-0.168 h -0.259 z m 3.017,2.919 h -1.708 l -1.309,-2.03 v 2.03 h -1.372 v -5.278 h 2.135 c 0.294,0 0.551,0.043 0.77,0.13 0.22,0.086 0.401,0.204 0.543,0.353 0.142,0.149 0.25,0.322 0.322,0.518 0.072,0.196 0.108,0.406 0.108,0.63 0,0.401 -0.096,0.727 -0.29,0.977 -0.194,0.249 -0.48,0.418 -0.858,0.507 z"
   style="fill:#2c5aa0;fill-rule:nonzero;fill-opacity:1"
   id="path6179"
   inkscape:connector-curvature="0" />
  <path
   d="M 29.963908,81.152336 V 84.6818 H 28.78742 v -3.529464 h -0.9644 v -0.996413 h 3.10929 v 0.996413 z"
   style="fill:#2c5aa0;fill-rule:nonzero;stroke-width:4.00165987"
   id="path6183"
   inkscape:connector-curvature="0" />
  <path
   d="m 32.436934,82.420862 c 0,0.180075 0.03601,0.344143 0.104043,0.496206 0.06403,0.152063 0.156065,0.284118 0.272113,0.396164 0.116048,0.112047 0.252105,0.200083 0.408169,0.260108 0.152063,0.06403 0.316131,0.09604 0.488203,0.09604 0.172071,0 0.336139,-0.03201 0.488202,-0.09604 0.156065,-0.06002 0.292121,-0.148061 0.40817,-0.260108 0.120049,-0.112046 0.212088,-0.244101 0.280116,-0.396164 0.06803,-0.152063 0.100041,-0.316131 0.100041,-0.496206 0,-0.180075 -0.03201,-0.348144 -0.100041,-0.500207 -0.06803,-0.152063 -0.160067,-0.284118 -0.280116,-0.396165 -0.116049,-0.112046 -0.252105,-0.196081 -0.40817,-0.260108 -0.152063,-0.06002 -0.316131,-0.09204 -0.488202,-0.09204 -0.172072,0 -0.33614,0.03201 -0.488203,0.09204 -0.156064,0.06403 -0.292121,0.148062 -0.408169,0.260108 -0.116048,0.112047 -0.208086,0.244102 -0.272113,0.396165 -0.06803,0.152063 -0.104043,0.320132 -0.104043,0.500207 z m -1.22851,0 c 0,-0.336139 0.06002,-0.648269 0.184077,-0.94039 0.124051,-0.28812 0.296122,-0.544226 0.516214,-0.760315 0.220091,-0.21609 0.484201,-0.38416 0.788327,-0.50421 0.308128,-0.124051 0.644267,-0.184076 1.01242,-0.184076 0.364151,0 0.70029,0.06003 1.008418,0.184076 0.308128,0.12005 0.572237,0.28812 0.792329,0.50421 0.224093,0.216089 0.396164,0.472195 0.520216,0.760315 0.124051,0.292121 0.188078,0.604251 0.188078,0.94039 0,0.33614 -0.06403,0.648269 -0.188078,0.936389 -0.124052,0.292121 -0.296123,0.544225 -0.520216,0.760315 -0.220092,0.21609 -0.484201,0.384159 -0.792329,0.508211 -0.308128,0.12005 -0.644267,0.180074 -1.008418,0.180074 -0.368153,0 -0.704292,-0.06002 -1.01242,-0.180074 -0.304126,-0.124052 -0.568236,-0.292121 -0.788327,-0.508211 -0.220092,-0.21609 -0.392163,-0.468194 -0.516214,-0.760315 -0.124052,-0.28812 -0.184077,-0.600249 -0.184077,-0.936389 z"
   style="fill:#2c5aa0;fill-rule:nonzero;stroke-width:4.00165987"
   id="path6185"
   inkscape:connector-curvature="0" />
  <path
   d="m 39.163724,82.148749 h 2.332968 c 0,0.2401 -0.008,0.460191 -0.02801,0.656272 -0.02001,0.196082 -0.06002,0.376156 -0.12005,0.544226 -0.08404,0.236098 -0.200083,0.444184 -0.344143,0.628261 -0.14406,0.180075 -0.31213,0.332138 -0.508211,0.456189 -0.19208,0.12005 -0.404168,0.21609 -0.636264,0.276115 -0.232096,0.06403 -0.476197,0.09604 -0.732304,0.09604 -0.352146,0 -0.672278,-0.05602 -0.9644,-0.172071 -0.288119,-0.116048 -0.540224,-0.280116 -0.74831,-0.488202 -0.204085,-0.212088 -0.368153,-0.464193 -0.484201,-0.756314 -0.116048,-0.296123 -0.172071,-0.620257 -0.172071,-0.976405 0,-0.352146 0.05602,-0.672279 0.168069,-0.968402 0.116049,-0.292121 0.276115,-0.544226 0.488203,-0.752312 0.208086,-0.208086 0.460191,-0.372154 0.756314,-0.488203 0.296123,-0.116048 0.62826,-0.172071 0.992411,-0.172071 0.472196,0 0.884367,0.100042 1.240515,0.304126 0.356148,0.204085 0.640266,0.520216 0.848352,0.948394 l -1.116463,0.464192 c -0.104043,-0.248103 -0.2401,-0.428177 -0.404168,-0.536222 -0.16807,-0.108045 -0.356148,-0.160067 -0.568236,-0.160067 -0.176073,0 -0.336139,0.03201 -0.480199,0.100042 -0.14406,0.06403 -0.268111,0.160066 -0.368153,0.280116 -0.104043,0.124052 -0.184076,0.268111 -0.240099,0.440183 -0.06003,0.172071 -0.08804,0.364151 -0.08804,0.576239 0,0.192079 0.02401,0.372154 0.07603,0.536222 0.04802,0.164068 0.124051,0.304126 0.224093,0.424176 0.100041,0.12005 0.224093,0.212088 0.372154,0.280116 0.148062,0.06403 0.320133,0.100042 0.516214,0.100042 0.116048,0 0.228095,-0.01601 0.33614,-0.04002 0.108045,-0.02801 0.204084,-0.06803 0.292121,-0.128053 0.08404,-0.05602 0.156065,-0.132055 0.212088,-0.224093 0.05602,-0.09204 0.09204,-0.204085 0.112046,-0.336139 h -0.9644 z"
   style="fill:#2c5aa0;fill-rule:nonzero;stroke-width:4.00165987"
   id="path6187"
   inkscape:connector-curvature="0" />
  <path
   d="m 44.441914,82.148749 h 2.336969 c 0,0.2401 -0.01201,0.460191 -0.03201,0.656272 -0.02001,0.196082 -0.06003,0.376156 -0.12005,0.544226 -0.08404,0.236098 -0.196081,0.444184 -0.340141,0.628261 -0.14406,0.180075 -0.316131,0.332138 -0.508211,0.456189 -0.196081,0.12005 -0.408169,0.21609 -0.640265,0.276115 -0.232097,0.06403 -0.476198,0.09604 -0.732304,0.09604 -0.352146,0 -0.672279,-0.05602 -0.960398,-0.172071 -0.292122,-0.116048 -0.540225,-0.280116 -0.748311,-0.488202 -0.208086,-0.212088 -0.372154,-0.464193 -0.484201,-0.756314 -0.116048,-0.296123 -0.176073,-0.620257 -0.176073,-0.976405 0,-0.352146 0.05602,-0.672279 0.172072,-0.968402 0.112046,-0.292121 0.276114,-0.544226 0.4842,-0.752312 0.212088,-0.208086 0.464193,-0.372154 0.760316,-0.488203 0.296123,-0.116048 0.624259,-0.172071 0.98841,-0.172071 0.472196,0 0.888368,0.100042 1.244516,0.304126 0.356148,0.204085 0.636264,0.520216 0.84435,0.948394 l -1.116463,0.464192 c -0.104043,-0.248103 -0.240099,-0.428177 -0.404167,-0.536222 -0.16807,-0.108045 -0.356148,-0.160067 -0.568236,-0.160067 -0.176073,0 -0.33614,0.03201 -0.480199,0.100042 -0.14406,0.06403 -0.26411,0.160066 -0.368153,0.280116 -0.100042,0.124052 -0.180075,0.268111 -0.2401,0.440183 -0.05602,0.172071 -0.08804,0.364151 -0.08804,0.576239 0,0.192079 0.02801,0.372154 0.07603,0.536222 0.05202,0.164068 0.124052,0.304126 0.224093,0.424176 0.100042,0.12005 0.224093,0.212088 0.372155,0.280116 0.148061,0.06403 0.320133,0.100042 0.516214,0.100042 0.116048,0 0.228095,-0.01601 0.336139,-0.04002 0.108045,-0.02801 0.204085,-0.06803 0.292121,-0.128053 0.08404,-0.05602 0.156065,-0.132055 0.212088,-0.224093 0.05602,-0.09204 0.09604,-0.204085 0.116049,-0.336139 h -0.968402 z"
   style="fill:#2c5aa0;fill-rule:nonzero;stroke-width:4.00165987"
   id="path6189"
   inkscape:connector-curvature="0" />
  <path
   d="m 48.695678,80.155923 v 3.529464 h 1.412586 V 84.6818 H 47.51919 v -4.525877 z"
   style="fill:#2c5aa0;fill-rule:nonzero;stroke-width:4.00165987"
   id="path6191"
   inkscape:connector-curvature="0" />
  <path
   d="m 53.285583,81.152336 h -1.39658 v 0.756314 h 1.320548 v 0.996413 h -1.320548 v 0.780324 h 1.39658 V 84.6818 h -2.573068 v -4.525877 h 2.573068 z"
   style="fill:#2c5aa0;fill-rule:nonzero;stroke-width:4.00165987"
   id="path6193"
   inkscape:connector-curvature="0" />
  <path
   d="m 23.669727,46.316404 c -0.128053,-0.104043 -0.256107,-0.180075 -0.38416,-0.232096 -0.128053,-0.04802 -0.252104,-0.07603 -0.372154,-0.07603 -0.152063,0 -0.276115,0.03601 -0.372154,0.108045 -0.09604,0.07203 -0.14406,0.16807 -0.14406,0.284118 0,0.08003 0.02401,0.14406 0.07203,0.196081 0.04802,0.05202 0.112046,0.100042 0.192079,0.136057 0.07603,0.04002 0.164068,0.07203 0.26411,0.100041 0.09604,0.02801 0.19208,0.05602 0.288119,0.08804 0.38416,0.128053 0.664276,0.300124 0.844351,0.512212 0.176073,0.21609 0.268111,0.496206 0.268111,0.840349 0,0.232096 -0.04002,0.440182 -0.12005,0.62826 -0.07603,0.188078 -0.19208,0.348145 -0.340141,0.484201 -0.152063,0.132055 -0.336139,0.236098 -0.552229,0.31213 -0.21609,0.07203 -0.464193,0.108044 -0.740307,0.108044 -0.572237,0 -1.104458,-0.168069 -1.592661,-0.50821 l 0.504209,-0.948394 c 0.176073,0.156065 0.352146,0.272113 0.524218,0.348145 0.172071,0.07603 0.340141,0.116048 0.508211,0.116048 0.192079,0 0.336139,-0.04402 0.432179,-0.132055 0.09204,-0.08804 0.140058,-0.188078 0.140058,-0.300124 0,-0.06803 -0.01201,-0.128054 -0.03602,-0.180075 -0.02401,-0.04802 -0.06403,-0.09604 -0.12005,-0.136057 -0.05602,-0.04402 -0.128053,-0.08003 -0.220091,-0.116048 -0.08804,-0.03601 -0.200083,-0.07603 -0.328136,-0.12005 -0.152063,-0.04802 -0.300125,-0.104043 -0.444184,-0.160066 -0.148062,-0.06003 -0.276115,-0.136056 -0.392163,-0.232096 -0.112047,-0.09604 -0.204085,-0.21609 -0.276115,-0.36015 -0.06803,-0.148061 -0.104043,-0.332137 -0.104043,-0.55623 0,-0.224093 0.03601,-0.428178 0.112047,-0.608253 0.07203,-0.184076 0.176073,-0.340141 0.312129,-0.468194 0.132055,-0.132055 0.296123,-0.232096 0.492204,-0.304126 0.19208,-0.07203 0.40817,-0.108045 0.648269,-0.108045 0.224093,0 0.460191,0.03201 0.704292,0.09204 0.244102,0.06403 0.476198,0.152063 0.700291,0.272113 z"
   style="fill:#2c5aa0;fill-rule:nonzero;stroke-width:4.00165987"
   id="path6197"
   inkscape:connector-curvature="0" />
  <path
   d="M 26.807028,46.152336 V 49.6818 H 25.63054 v -3.529464 h -0.9644 v -0.996413 h 3.10929 v 0.996413 z"
   style="fill:#2c5aa0;fill-rule:nonzero;stroke-width:4.00165987"
   id="path6199"
   inkscape:connector-curvature="0" />
  <path
   d="m 30.544579,48.001103 -0.524218,-1.504624 -0.528219,1.504624 z m 0.312129,0.896372 H 29.180013 L 28.9079,49.6818 h -1.25252 l 1.720714,-4.525877 h 1.284533 l 1.720714,4.525877 h -1.25252 z"
   style="fill:#2c5aa0;fill-rule:nonzero;stroke-width:4.00165987"
   id="path6201"
   inkscape:connector-curvature="0" />
  <path
   d="M 34.418185,46.152336 V 49.6818 h -1.176488 v -3.529464 h -0.968401 v -0.996413 h 3.10929 v 0.996413 z"
   style="fill:#2c5aa0;fill-rule:nonzero;stroke-width:4.00165987"
   id="path6203"
   inkscape:connector-curvature="0" />
  <path
   d="m 37.079289,45.155923 v 2.46102 c 0,0.132055 0.008,0.268112 0.01601,0.404168 0.01201,0.140058 0.04002,0.26411 0.09204,0.376156 0.04802,0.112047 0.128053,0.204085 0.236098,0.272113 0.108045,0.07203 0.260108,0.108045 0.456189,0.108045 0.196082,0 0.344143,-0.03601 0.452188,-0.108045 0.104043,-0.06803 0.184076,-0.160066 0.236098,-0.272113 0.05202,-0.112046 0.08404,-0.236098 0.09204,-0.376156 0.01201,-0.136056 0.01601,-0.272113 0.01601,-0.404168 v -2.46102 h 1.172486 v 2.625089 c 0,0.704292 -0.164068,1.216504 -0.484201,1.540639 -0.324134,0.324134 -0.816338,0.4842 -1.484616,0.4842 -0.668277,0 -1.164483,-0.160066 -1.488617,-0.4842 -0.324135,-0.324135 -0.488203,-0.836347 -0.488203,-1.540639 v -2.625089 z"
   style="fill:#2c5aa0;fill-rule:nonzero;stroke-width:4.00165987"
   id="path6205"
   inkscape:connector-curvature="0" />
  <path
   d="m 43.277861,46.316404 c -0.128053,-0.104043 -0.256107,-0.180075 -0.38416,-0.232096 -0.128053,-0.04802 -0.252104,-0.07603 -0.372154,-0.07603 -0.152063,0 -0.276115,0.03601 -0.372154,0.108045 -0.09604,0.07203 -0.14406,0.16807 -0.14406,0.284118 0,0.08003 0.02401,0.14406 0.07203,0.196081 0.04802,0.05202 0.112046,0.100042 0.192079,0.136057 0.07603,0.04002 0.164068,0.07203 0.260108,0.100041 0.100042,0.02801 0.196082,0.05602 0.292122,0.08804 0.384159,0.128053 0.664275,0.300124 0.84435,0.512212 0.176073,0.21609 0.268111,0.496206 0.268111,0.840349 0,0.232096 -0.04002,0.440182 -0.12005,0.62826 -0.07603,0.188078 -0.19208,0.348145 -0.340141,0.484201 -0.152063,0.132055 -0.336139,0.236098 -0.552229,0.31213 -0.220091,0.07203 -0.464193,0.108044 -0.740307,0.108044 -0.572237,0 -1.104458,-0.168069 -1.592661,-0.50821 l 0.504209,-0.948394 c 0.176073,0.156065 0.352146,0.272113 0.524218,0.348145 0.172071,0.07603 0.340141,0.116048 0.508211,0.116048 0.192079,0 0.336139,-0.04402 0.428177,-0.132055 0.09604,-0.08804 0.14406,-0.188078 0.14406,-0.300124 0,-0.06803 -0.01201,-0.128054 -0.03601,-0.180075 -0.02401,-0.04802 -0.06403,-0.09604 -0.12005,-0.136057 -0.05602,-0.04402 -0.132054,-0.08003 -0.220091,-0.116048 -0.08804,-0.03601 -0.200083,-0.07603 -0.328136,-0.12005 -0.152063,-0.04802 -0.300125,-0.104043 -0.444184,-0.160066 -0.148062,-0.06003 -0.276115,-0.136056 -0.392163,-0.232096 -0.112047,-0.09604 -0.204085,-0.21609 -0.276115,-0.36015 -0.06803,-0.148061 -0.104043,-0.332137 -0.104043,-0.55623 0,-0.224093 0.03601,-0.428178 0.112047,-0.608253 0.07203,-0.184076 0.176073,-0.340141 0.312129,-0.468194 0.132055,-0.132055 0.296123,-0.232096 0.492204,-0.304126 0.19208,-0.07203 0.40817,-0.108045 0.648269,-0.108045 0.224093,0 0.460191,0.03201 0.704292,0.09204 0.244102,0.06403 0.476198,0.152063 0.700291,0.272113 z"
   style="fill:#2c5aa0;fill-rule:nonzero;stroke-width:4.00165987"
   id="path6207"
   inkscape:connector-curvature="0" />
  <path
   d="m 29.423684,93.551784 h 0.392163 c 0.432179,0 0.648269,-0.188078 0.648269,-0.564234 0,-0.376156 -0.21609,-0.564234 -0.648269,-0.564234 h -0.392163 z m 0,2.449016 h -1.176488 v -4.525877 h 1.872777 c 0.508211,0 0.896372,0.132054 1.168484,0.396164 0.268112,0.264109 0.404168,0.636264 0.404168,1.116463 0,0.480199 -0.136056,0.852354 -0.404168,1.116463 -0.272112,0.26411 -0.660273,0.396164 -1.168484,0.396164 h -0.696289 z"
   style="fill:#2c5aa0;fill-rule:nonzero;stroke-width:4.00165987"
   id="path6211"
   inkscape:connector-curvature="0" />
  <path
   d="m 33.493372,91.474923 v 2.46102 c 0,0.132055 0.004,0.268112 0.01601,0.404168 0.008,0.140058 0.04002,0.26411 0.08804,0.376156 0.05202,0.112047 0.128053,0.204085 0.236098,0.272113 0.108045,0.07203 0.260108,0.108045 0.456189,0.108045 0.196082,0 0.348145,-0.03601 0.45619,-0.108045 0.104043,-0.06803 0.184076,-0.160066 0.236098,-0.272113 0.05202,-0.112046 0.08003,-0.236098 0.09204,-0.376156 0.008,-0.136056 0.01601,-0.272113 0.01601,-0.404168 v -2.46102 h 1.168485 v 2.625088 c 0,0.704293 -0.160066,1.216505 -0.484201,1.54064 -0.320132,0.324134 -0.816338,0.4842 -1.484616,0.4842 -0.668277,0 -1.164483,-0.160066 -1.488617,-0.4842 -0.320133,-0.324135 -0.484201,-0.836347 -0.484201,-1.54064 v -2.625088 z"
   style="fill:#2c5aa0;fill-rule:nonzero;stroke-width:4.00165987"
   id="path6213"
   inkscape:connector-curvature="0" />
  <path
   d="m 39.691943,92.635404 c -0.128053,-0.104043 -0.256106,-0.180075 -0.384159,-0.232096 -0.128053,-0.04802 -0.252104,-0.07603 -0.372154,-0.07603 -0.152063,0 -0.276115,0.03602 -0.372155,0.108045 -0.09604,0.07203 -0.144059,0.16807 -0.144059,0.284118 0,0.08003 0.02401,0.14406 0.07203,0.196081 0.04802,0.05202 0.112047,0.100042 0.188079,0.136057 0.08003,0.04002 0.168069,0.07203 0.264109,0.100041 0.100042,0.02801 0.196081,0.05602 0.292121,0.08804 0.38416,0.128053 0.664276,0.300124 0.840349,0.512212 0.180075,0.21609 0.268111,0.496206 0.268111,0.840349 0,0.232096 -0.04002,0.440182 -0.116048,0.62826 -0.08003,0.188078 -0.19208,0.348145 -0.344143,0.484201 -0.148061,0.132055 -0.332138,0.236098 -0.548227,0.31213 -0.220092,0.07203 -0.468194,0.108044 -0.744309,0.108044 -0.572237,0 -1.100457,-0.168069 -1.588659,-0.50821 l 0.504209,-0.948394 c 0.176073,0.156065 0.348145,0.272113 0.520216,0.348145 0.172071,0.07603 0.344143,0.116048 0.512212,0.116048 0.19208,0 0.33614,-0.04402 0.428178,-0.132055 0.09604,-0.08804 0.140058,-0.188078 0.140058,-0.300125 0,-0.06803 -0.01201,-0.128053 -0.03601,-0.180074 -0.02401,-0.04802 -0.06403,-0.09604 -0.12005,-0.136057 -0.05602,-0.04402 -0.128053,-0.08003 -0.216089,-0.116048 -0.09204,-0.03601 -0.200083,-0.07603 -0.328136,-0.12005 -0.152063,-0.04802 -0.300125,-0.104043 -0.448186,-0.160066 -0.14406,-0.06002 -0.276115,-0.136056 -0.388161,-0.232096 -0.116048,-0.09604 -0.208087,-0.21609 -0.276115,-0.36015 -0.07203,-0.148061 -0.104043,-0.332137 -0.104043,-0.55623 0,-0.224093 0.03601,-0.428178 0.108045,-0.608253 0.07603,-0.184076 0.180074,-0.340141 0.312129,-0.468194 0.136057,-0.132055 0.300125,-0.232096 0.492204,-0.304126 0.196082,-0.07203 0.412171,-0.108045 0.652271,-0.108045 0.224093,0 0.456189,0.03201 0.700291,0.09204 0.244101,0.06403 0.480199,0.152063 0.704292,0.272113 z"
   style="fill:#2c5aa0;fill-rule:nonzero;stroke-width:4.00165987"
   id="path6215"
   inkscape:connector-curvature="0" />
  <path
   d="m 42.257008,93.223648 h 1.700705 v -1.748725 h 1.176488 V 96.0008 H 43.957713 V 94.136026 H 42.257008 V 96.0008 h -1.172487 v -4.525877 h 1.172487 z"
   style="fill:#2c5aa0;fill-rule:nonzero;stroke-width:4.00165987"
   id="path6217"
   inkscape:connector-curvature="0" />
  <path
   d="m 12.131111,108.4848 0.768319,-4.52588 h 1.164483 l 0.908377,2.413 0.900373,-2.413 h 1.160482 l 0.768318,4.52588 h -1.168484 l -0.388161,-2.60508 -1.068444,2.60508 H 14.70818 l -1.016421,-2.60508 -0.388161,2.60508 z"
   style="fill:#2c5aa0;fill-rule:nonzero;stroke-width:4.00165987;fill-opacity:1"
   id="path6221"
   inkscape:connector-curvature="0" />
  <path
   d="m 19.574199,106.22386 c 0,0.18008 0.03201,0.34414 0.100041,0.49621 0.06803,0.15206 0.160067,0.28412 0.276115,0.39616 0.116048,0.11205 0.252104,0.20009 0.404168,0.26011 0.156064,0.064 0.320132,0.096 0.492204,0.096 0.172071,0 0.332137,-0.032 0.488202,-0.096 0.152063,-0.06 0.28812,-0.14806 0.40817,-0.26011 0.116048,-0.11204 0.208086,-0.2441 0.276114,-0.39616 0.06803,-0.15207 0.104043,-0.31613 0.104043,-0.49621 0,-0.18007 -0.03602,-0.34814 -0.104043,-0.50021 -0.06803,-0.15206 -0.160066,-0.28411 -0.276114,-0.39616 -0.12005,-0.11205 -0.256107,-0.19608 -0.40817,-0.26011 -0.156065,-0.06 -0.316131,-0.092 -0.488202,-0.092 -0.172072,0 -0.33614,0.032 -0.492204,0.092 -0.152064,0.064 -0.28812,0.14806 -0.404168,0.26011 -0.116048,0.11205 -0.208086,0.2441 -0.276115,0.39616 -0.06803,0.15207 -0.100041,0.32014 -0.100041,0.50021 z m -1.232511,0 c 0,-0.33614 0.06403,-0.64827 0.188078,-0.94039 0.124051,-0.28812 0.296122,-0.54422 0.516214,-0.76031 0.220091,-0.21609 0.480199,-0.38416 0.788327,-0.50421 0.304126,-0.12405 0.644267,-0.18408 1.01242,-0.18408 0.364151,0 0.696289,0.06 1.004416,0.18408 0.308128,0.12005 0.576239,0.28812 0.796331,0.50421 0.224093,0.21609 0.396164,0.47219 0.520216,0.76031 0.124051,0.29212 0.184076,0.60425 0.184076,0.94039 0,0.33614 -0.06003,0.64827 -0.184076,0.93639 -0.124052,0.29212 -0.296123,0.54423 -0.520216,0.76032 -0.220092,0.21609 -0.488203,0.38416 -0.796331,0.50821 -0.308127,0.12005 -0.640265,0.18007 -1.004416,0.18007 -0.368153,0 -0.708294,-0.06 -1.01242,-0.18007 -0.308128,-0.12405 -0.568236,-0.29212 -0.788327,-0.50821 -0.220092,-0.21609 -0.392163,-0.4682 -0.516214,-0.76032 -0.124052,-0.28812 -0.188078,-0.60025 -0.188078,-0.93639 z"
   style="fill:#2c5aa0;fill-rule:nonzero;stroke-width:4.00165987;fill-opacity:1"
   id="path6223"
   inkscape:connector-curvature="0" />
  <path
   d="m 25.272563,107.48839 h 0.272113 c 0.204084,0 0.384159,-0.032 0.544225,-0.096 0.160067,-0.064 0.296123,-0.15207 0.404168,-0.26411 0.112046,-0.11205 0.196081,-0.2441 0.252105,-0.40017 0.06002,-0.15206 0.08804,-0.32013 0.08804,-0.50421 0,-0.18007 -0.03201,-0.34814 -0.09204,-0.50421 -0.06002,-0.15606 -0.14406,-0.29212 -0.252105,-0.40416 -0.112046,-0.11205 -0.244101,-0.20009 -0.404167,-0.26411 -0.160067,-0.064 -0.340141,-0.096 -0.540224,-0.096 h -0.272113 z m -1.176488,-3.52947 h 1.740722 c 0.308128,0 0.596247,0.064 0.86836,0.18808 0.268111,0.12405 0.504209,0.28812 0.708294,0.49621 0.200083,0.20408 0.360149,0.44418 0.476197,0.7203 0.116048,0.27211 0.172072,0.56023 0.172072,0.86035 0,0.29612 -0.05602,0.58024 -0.16807,0.85236 -0.116048,0.27611 -0.272113,0.51621 -0.476198,0.7243 -0.200083,0.20808 -0.436181,0.37615 -0.708293,0.5002 -0.268112,0.12406 -0.560233,0.18408 -0.872362,0.18408 h -1.740722 z"
   style="fill:#2c5aa0;fill-rule:nonzero;stroke-width:4.00165987;fill-opacity:1"
   id="path6225"
   inkscape:connector-curvature="0" />
  <path
   d="M 31.387099,104.95534 H 29.99052 v 0.75631 h 1.316546 v 0.99641 H 29.99052 v 0.78033 h 1.396579 v 0.99641 h -2.573067 v -4.52588 h 2.573067 z"
   style="fill:#2c5aa0;fill-rule:nonzero;stroke-width:4.00165987;fill-opacity:1"
   id="path6227"
   inkscape:connector-curvature="0" />
  <path
   d="m 58.000112,155.74966 c 0,-1.51786 -1.232232,-2.75019 -2.750005,-2.75019 H 5.7500113 c -1.517773,0 -2.7500053,1.23233 -2.7500053,2.75019 v 81.919 c 0,1.51786 1.2322323,2.75019 2.7500053,2.75019 H 55.250107 c 1.517773,0 2.750005,-1.23233 2.750005,-2.75019 z"
   style="fill:none;stroke:#4d4d4d;stroke-width:1.06593776px;stroke-linecap:round;stroke-linejoin:round;stroke-miterlimit:1.5"
   id="path6231"
   inkscape:connector-curvature="0" />
  <path
   d="m 58.000112,251.74966 c 0,-1.51786 -1.232232,-2.75019 -2.750005,-2.75019 H 5.7500113 c -1.517773,0 -2.7500053,1.23233 -2.7500053,2.75019 v 81.919 c 0,1.51786 1.2322323,2.75019 2.7500053,2.75019 H 55.250107 c 1.517773,0 2.750005,-1.23233 2.750005,-2.75019 z"
   style="fill:none;stroke:#4d4d4d;stroke-width:1.06593776px;stroke-linecap:round;stroke-linejoin:round;stroke-miterlimit:1.5"
   id="path6235"
   inkscape:connector-curvature="0" />
  <path
   d="m 58.000112,42.749738 c 0,-1.517931 -1.232232,-2.74979 -2.750005,-2.74979 H 5.7500113 c -1.517773,0 -2.7500053,1.231859 -2.7500053,2.74979 v 97.919892 c 0,1.51793 1.2322323,2.74979 2.7500053,2.74979 H 55.250107 c 1.517773,0 2.750005,-1.23186 2.750005,-2.74979 z"
   style="fill:none;stroke:#4d4d4d;stroke-width:0.99147737px;stroke-linecap:round;stroke-linejoin:round;stroke-miterlimit:1.5"
   id="path6239"
   inkscape:connector-curvature="0" />
  <path
   inkscape:connector-curvature="0"
   id="path6243"
   style="fill:#ffffff;fill-rule:nonzero;stroke-width:4.00165987"
   d="m 14.64163,255.78155 c 0,0.2401 0.04402,0.46019 0.136056,0.66427 0.09204,0.20409 0.212088,0.38016 0.368153,0.52822 0.156065,0.14806 0.33614,0.26411 0.540224,0.34815 0.204085,0.084 0.424176,0.12405 0.652271,0.12405 0.228094,0 0.448186,-0.04 0.65227,-0.12405 0.204085,-0.084 0.388161,-0.20009 0.544226,-0.34815 0.156065,-0.14806 0.280116,-0.32413 0.372155,-0.52822 0.09204,-0.20408 0.136056,-0.42417 0.136056,-0.66427 0,-0.2401 -0.04402,-0.46019 -0.136056,-0.66428 -0.09204,-0.20408 -0.21609,-0.38015 -0.372155,-0.52822 -0.156065,-0.14806 -0.340141,-0.26411 -0.544226,-0.34814 -0.204084,-0.084 -0.424176,-0.12405 -0.65227,-0.12405 -0.228095,0 -0.448186,0.04 -0.652271,0.12405 -0.204084,0.084 -0.384159,0.20008 -0.540224,0.34814 -0.156065,0.14807 -0.276114,0.32414 -0.368153,0.52822 -0.09204,0.20409 -0.136056,0.42418 -0.136056,0.66428 z m -1.640681,0 c 0,-0.44819 0.08404,-0.86436 0.248103,-1.25252 0.164068,-0.38816 0.396165,-0.7243 0.688286,-1.01242 0.292121,-0.28812 0.644267,-0.51221 1.052436,-0.67628 0.40817,-0.16407 0.856356,-0.2441 1.34856,-0.2441 0.484201,0 0.932387,0.08 1.344558,0.2441 0.412171,0.16407 0.764317,0.38816 1.060439,0.67628 0.296123,0.28812 0.52822,0.62426 0.692288,1.01242 0.164068,0.38816 0.248103,0.80433 0.248103,1.25252 0,0.44818 -0.08404,0.86436 -0.248103,1.25252 -0.164068,0.38816 -0.396165,0.7243 -0.692288,1.01242 -0.296122,0.28812 -0.648268,0.51221 -1.060439,0.67628 -0.412171,0.16407 -0.860357,0.2441 -1.344558,0.2441 -0.492204,0 -0.94039,-0.08 -1.34856,-0.2441 -0.408169,-0.16407 -0.760315,-0.38816 -1.052436,-0.67628 -0.292121,-0.28812 -0.524218,-0.62426 -0.688286,-1.01242 -0.164068,-0.38816 -0.248103,-0.80434 -0.248103,-1.25252 z" />
  <path
   inkscape:connector-curvature="0"
   id="path6245"
   style="fill:#ffffff;fill-rule:nonzero;stroke-width:4.00165987"
   d="m 22.244784,252.7643 v 3.28136 c 0,0.17607 0.008,0.35615 0.02001,0.54022 0.012,0.18408 0.05202,0.35215 0.12005,0.50021 0.06803,0.14806 0.172071,0.27211 0.316131,0.36415 0.14406,0.092 0.348145,0.14006 0.608253,0.14006 0.260107,0 0.464192,-0.048 0.60425,-0.14006 0.140058,-0.092 0.248103,-0.21609 0.316131,-0.36415 0.06803,-0.14806 0.112047,-0.31613 0.124052,-0.50021 0.012,-0.18407 0.02001,-0.36415 0.02001,-0.54022 v -3.28136 h 1.560648 v 3.49745 c 0,0.94039 -0.21609,1.62467 -0.644268,2.05685 -0.428177,0.43218 -1.088451,0.64827 -1.980821,0.64827 -0.892371,0 -1.552645,-0.21609 -1.984824,-0.64827 -0.432179,-0.43218 -0.648269,-1.11646 -0.648269,-2.05685 v -3.49745 z" />
  <path
   inkscape:connector-curvature="0"
   id="path6247"
   style="fill:#ffffff;fill-rule:nonzero;stroke-width:4.00165987"
   d="m 29.487789,254.09285 v 4.70595 h -1.568651 v -4.70595 h -1.288535 v -1.32855 h 4.14572 v 1.32855 z" />
  <path
   inkscape:connector-curvature="0"
   id="path6249"
   style="fill:#ffffff;fill-rule:nonzero;stroke-width:4.00165987"
   d="m 33.041263,255.53345 h 0.520215 c 0.57624,0 0.864359,-0.25211 0.864359,-0.75232 0,-0.5002 -0.288119,-0.75231 -0.864359,-0.75231 h -0.520215 z m 0,3.26535 h -1.568651 v -6.0345 h 2.497036 c 0.67628,0 1.196496,0.17607 1.556646,0.52822 0.360149,0.35214 0.540224,0.84835 0.540224,1.48861 0,0.64027 -0.180075,1.13647 -0.540224,1.48862 -0.36015,0.35215 -0.880366,0.52822 -1.556646,0.52822 h -0.928385 z" />
  <path
   inkscape:connector-curvature="0"
   id="path6251"
   style="fill:#ffffff;fill-rule:nonzero;stroke-width:4.00165987"
   d="m 38.467514,252.7643 v 3.28136 c 0,0.17607 0.008,0.35615 0.02001,0.54022 0.01201,0.18408 0.05202,0.35215 0.12005,0.50021 0.06803,0.14806 0.172071,0.27211 0.316131,0.36415 0.14406,0.092 0.348144,0.14006 0.608252,0.14006 0.260108,0 0.464193,-0.048 0.604251,-0.14006 0.140058,-0.092 0.248103,-0.21609 0.316131,-0.36415 0.06803,-0.14806 0.112046,-0.31613 0.124051,-0.50021 0.01201,-0.18407 0.02001,-0.36415 0.02001,-0.54022 v -3.28136 h 1.560647 v 3.49745 c 0,0.94039 -0.216089,1.62467 -0.644267,2.05685 -0.428178,0.43218 -1.088452,0.64827 -1.980822,0.64827 -0.89237,0 -1.552644,-0.21609 -1.984823,-0.64827 -0.432179,-0.43218 -0.648269,-1.11646 -0.648269,-2.05685 v -3.49745 z" />
  <path
   inkscape:connector-curvature="0"
   id="path6253"
   style="fill:#ffffff;fill-rule:nonzero;stroke-width:4.00165987"
   d="m 45.710518,254.09285 v 4.70595 h -1.56865 v -4.70595 h -1.288535 v -1.32855 h 4.14572 v 1.32855 z" />
  <path
   inkscape:connector-curvature="0"
   id="path6258"
   style="fill:#ffffff;fill-rule:nonzero;stroke-width:4.00165987"
   d="m 22.435407,158.30894 c -0.172072,-0.14006 -0.340141,-0.2401 -0.512213,-0.30813 -0.172071,-0.068 -0.336139,-0.10004 -0.496206,-0.10004 -0.204084,0 -0.368152,0.048 -0.496205,0.14406 -0.128054,0.096 -0.19208,0.22009 -0.19208,0.37615 0,0.10805 0.03201,0.19609 0.09604,0.26411 0.06403,0.068 0.148061,0.12806 0.252104,0.18008 0.104044,0.052 0.220092,0.096 0.352146,0.13205 0.132055,0.036 0.260108,0.076 0.388161,0.12005 0.512213,0.17207 0.888369,0.40017 1.124467,0.68429 0.236098,0.28411 0.356148,0.65627 0.356148,1.11646 0,0.30813 -0.05202,0.58824 -0.156065,0.84035 -0.104043,0.2521 -0.256106,0.46419 -0.456189,0.64427 -0.200083,0.18007 -0.444185,0.31613 -0.736306,0.41617 -0.292121,0.10004 -0.620257,0.14806 -0.98841,0.14806 -0.764317,0 -1.468609,-0.22809 -2.12088,-0.68028 l 0.672279,-1.26453 c 0.236098,0.20809 0.468194,0.36415 0.696289,0.4642 0.228095,0.10004 0.456189,0.15206 0.680282,0.15206 0.256107,0 0.448186,-0.06 0.572238,-0.17607 0.124051,-0.11605 0.188078,-0.25211 0.188078,-0.40017 0,-0.092 -0.01601,-0.16807 -0.04802,-0.2361 -0.03201,-0.068 -0.08404,-0.12805 -0.160067,-0.18407 -0.07603,-0.056 -0.172071,-0.10805 -0.292121,-0.15607 -0.12005,-0.048 -0.264109,-0.10004 -0.436181,-0.16007 -0.204084,-0.064 -0.400166,-0.13605 -0.596247,-0.21208 -0.196081,-0.076 -0.368153,-0.18008 -0.520216,-0.30813 -0.152063,-0.12805 -0.276114,-0.28812 -0.368153,-0.4842 -0.09204,-0.19608 -0.140058,-0.44019 -0.140058,-0.74031 0,-0.30012 0.04802,-0.56824 0.148062,-0.81234 0.100041,-0.2441 0.236098,-0.45218 0.416172,-0.62426 0.180075,-0.17207 0.396165,-0.30812 0.656273,-0.40416 0.260108,-0.096 0.548227,-0.14406 0.86836,-0.14406 0.300124,0 0.612254,0.04 0.936388,0.12405 0.324135,0.084 0.636264,0.20408 0.936389,0.36415 z" />
  <path
   inkscape:connector-curvature="0"
   id="path6260"
   style="fill:#ffffff;fill-rule:nonzero;stroke-width:4.00165987"
   d="m 27.725601,158.09285 h -1.864773 v 1.00842 h 1.76073 v 1.32855 h -1.76073 v 1.04043 h 1.864773 v 1.32855 h -3.433424 v -6.0345 h 3.433424 z" />
  <path
   inkscape:connector-curvature="0"
   id="path6262"
   style="fill:#ffffff;fill-rule:nonzero;stroke-width:4.00165987"
   d="m 28.854069,162.7988 v -6.0345 h 1.568651 l 2.897202,3.68953 v -3.68953 h 1.560647 v 6.0345 h -1.560647 l -2.897202,-3.68953 v 3.68953 z" />
  <path
   inkscape:connector-curvature="0"
   id="path6264"
   style="fill:#ffffff;fill-rule:nonzero;stroke-width:4.00165987"
   d="m 37.713745,161.47025 h 0.360149 c 0.272113,0 0.516214,-0.044 0.728302,-0.12805 0.212088,-0.084 0.392163,-0.20409 0.540224,-0.35215 0.148062,-0.14806 0.260108,-0.32814 0.33614,-0.53222 0.07603,-0.20409 0.116048,-0.43218 0.116048,-0.67628 0,-0.2401 -0.04002,-0.46419 -0.12005,-0.67228 -0.08003,-0.20809 -0.19208,-0.38816 -0.340141,-0.53622 -0.148061,-0.14806 -0.328136,-0.26811 -0.540224,-0.35215 -0.212088,-0.084 -0.452188,-0.12805 -0.720299,-0.12805 h -0.360149 z m -1.568651,-4.70595 h 2.320963 c 0.412171,0 0.79633,0.084 1.156479,0.2481 0.36015,0.16407 0.676281,0.38416 0.944392,0.66027 0.268111,0.27612 0.480199,0.59625 0.636264,0.9604 0.156065,0.36415 0.232096,0.74831 0.232096,1.14848 0,0.39616 -0.07603,0.77632 -0.228094,1.14047 -0.152063,0.36415 -0.364151,0.68829 -0.632262,0.9644 -0.268112,0.27612 -0.584243,0.50021 -0.944392,0.66428 -0.36015,0.16407 -0.748311,0.2481 -1.164483,0.2481 h -2.320963 z" />
  <path
   inkscape:connector-curvature="0"
   id="path6269"
   style="fill:#2c5aa0;fill-rule:nonzero;stroke-width:4.00165987"
   d="m 14.467836,137.78113 c -0.364151,-0.44418 -0.812337,-0.66427 -1.344558,-0.66427 -0.236098,0 -0.452187,0.044 -0.65227,0.12805 -0.200083,0.084 -0.372155,0.20008 -0.516214,0.34815 -0.14406,0.14806 -0.256107,0.32013 -0.340142,0.52421 -0.08403,0.20409 -0.124051,0.42018 -0.124051,0.65628 0,0.24009 0.04002,0.46019 0.124051,0.66427 0.08404,0.20409 0.196082,0.38016 0.344143,0.52822 0.148062,0.14806 0.320133,0.26811 0.516214,0.35215 0.196082,0.084 0.412171,0.12805 0.640266,0.12805 0.500207,0 0.952395,-0.21209 1.352561,-0.64027 v 1.85677 l -0.160066,0.056 c -0.2401,0.084 -0.464193,0.14806 -0.672279,0.18807 -0.208087,0.04 -0.412171,0.06 -0.616256,0.06 -0.416173,0 -0.816339,-0.08 -1.196496,-0.2361 -0.380158,-0.15606 -0.716297,-0.38016 -1.008419,-0.66427 -0.292121,-0.28412 -0.524217,-0.62426 -0.70029,-1.01643 -0.1760731,-0.39216 -0.2641096,-0.82034 -0.2641096,-1.28453 0,-0.46419 0.088036,-0.88837 0.2601076,-1.27653 0.172072,-0.38816 0.404168,-0.7203 0.696289,-1.00041 0.292121,-0.28012 0.628261,-0.50021 1.01242,-0.65628 0.384159,-0.15606 0.788327,-0.23609 1.208501,-0.23609 0.2401,0 0.476198,0.024 0.708294,0.076 0.232097,0.052 0.476198,0.12805 0.732304,0.2361 z" />
  <path
   inkscape:connector-curvature="0"
   id="path6271"
   style="fill:#2c5aa0;fill-rule:nonzero;stroke-width:4.00165987"
   d="m 16.916852,138.78155 c 0,0.2401 0.04402,0.46019 0.136056,0.66427 0.09204,0.20409 0.212088,0.38016 0.368153,0.52822 0.156065,0.14806 0.33614,0.26411 0.540224,0.34815 0.204085,0.084 0.424176,0.12405 0.652271,0.12405 0.228094,0 0.448186,-0.04 0.65227,-0.12405 0.204085,-0.084 0.388161,-0.20009 0.544226,-0.34815 0.156065,-0.14806 0.280116,-0.32413 0.372155,-0.52822 0.09204,-0.20408 0.136056,-0.42417 0.136056,-0.66427 0,-0.2401 -0.04402,-0.46019 -0.136056,-0.66428 -0.09204,-0.20408 -0.21609,-0.38015 -0.372155,-0.52822 -0.156065,-0.14806 -0.340141,-0.26411 -0.544226,-0.34814 -0.204084,-0.084 -0.424176,-0.12405 -0.65227,-0.12405 -0.228095,0 -0.448186,0.04 -0.652271,0.12405 -0.204084,0.084 -0.384159,0.20008 -0.540224,0.34814 -0.156065,0.14807 -0.276114,0.32414 -0.368153,0.52822 -0.09204,0.20409 -0.136056,0.42418 -0.136056,0.66428 z m -1.640681,0 c 0,-0.44819 0.08404,-0.86436 0.248103,-1.25252 0.164068,-0.38816 0.396165,-0.7243 0.688286,-1.01242 0.292121,-0.28812 0.644267,-0.51221 1.052436,-0.67628 0.40817,-0.16407 0.856356,-0.2441 1.34856,-0.2441 0.484201,0 0.932387,0.08 1.344558,0.2441 0.412171,0.16407 0.764317,0.38816 1.060439,0.67628 0.296123,0.28812 0.52822,0.62426 0.692288,1.01242 0.164068,0.38816 0.248103,0.80433 0.248103,1.25252 0,0.44818 -0.08404,0.86436 -0.248103,1.25252 -0.164068,0.38816 -0.396165,0.7243 -0.692288,1.01242 -0.296122,0.28812 -0.648268,0.51221 -1.060439,0.67628 -0.412171,0.16407 -0.860357,0.2441 -1.344558,0.2441 -0.492204,0 -0.94039,-0.08 -1.34856,-0.2441 -0.408169,-0.16407 -0.760315,-0.38816 -1.052436,-0.67628 -0.292121,-0.28812 -0.524218,-0.62426 -0.688286,-1.01242 -0.164068,-0.38816 -0.248103,-0.80434 -0.248103,-1.25252 z" />
  <path
   inkscape:connector-curvature="0"
   id="path6273"
   style="fill:#2c5aa0;fill-rule:nonzero;stroke-width:4.00165987"
   d="m 22.951355,141.7988 v -6.0345 h 1.568651 l 2.897202,3.68953 v -3.68953 h 1.560647 v 6.0345 h -1.560647 l -2.897202,-3.68953 v 3.68953 z" />
  <path
   inkscape:connector-curvature="0"
   id="path6275"
   style="fill:#2c5aa0;fill-rule:nonzero;stroke-width:4.00165987"
   d="m 32.531329,137.09285 v 4.70595 h -1.56865 v -4.70595 h -1.288535 v -1.32855 h 4.14572 v 1.32855 z" />
  <path
   inkscape:connector-curvature="0"
   id="path6277"
   style="fill:#2c5aa0;fill-rule:nonzero;stroke-width:4.00165987"
   d="m 36.084803,138.46142 h 0.296123 c 0.308128,0 0.548228,-0.064 0.712296,-0.19208 0.164068,-0.12806 0.248103,-0.31213 0.248103,-0.55223 0,-0.2401 -0.08404,-0.42418 -0.248103,-0.55223 -0.164068,-0.12806 -0.404168,-0.19208 -0.712296,-0.19208 h -0.296123 z m 3.449431,3.33738 h -1.95281 l -1.496621,-2.32096 v 2.32096 h -1.56865 v -6.0345 h 2.441012 c 0.33614,0 0.628261,0.048 0.880365,0.14806 0.252105,0.10004 0.45619,0.23209 0.620258,0.40417 0.164068,0.17207 0.284118,0.36815 0.368152,0.59224 0.08404,0.22409 0.124052,0.46419 0.124052,0.7203 0,0.46019 -0.112047,0.83235 -0.332138,1.11646 -0.220091,0.28412 -0.548227,0.4802 -0.980407,0.58024 z" />
  <path
   inkscape:connector-curvature="0"
   id="path6279"
   style="fill:#2c5aa0;fill-rule:nonzero;stroke-width:4.00165987"
   d="m 41.447028,138.78155 c 0,0.2401 0.04402,0.46019 0.136056,0.66427 0.09204,0.20409 0.212088,0.38016 0.368153,0.52822 0.156065,0.14806 0.336139,0.26411 0.540224,0.34815 0.204085,0.084 0.424176,0.12405 0.652271,0.12405 0.228094,0 0.448186,-0.04 0.65227,-0.12405 0.204085,-0.084 0.388161,-0.20009 0.544226,-0.34815 0.156065,-0.14806 0.280116,-0.32413 0.372154,-0.52822 0.09204,-0.20408 0.136057,-0.42417 0.136057,-0.66427 0,-0.2401 -0.04402,-0.46019 -0.136057,-0.66428 -0.09204,-0.20408 -0.216089,-0.38015 -0.372154,-0.52822 -0.156065,-0.14806 -0.340141,-0.26411 -0.544226,-0.34814 -0.204084,-0.084 -0.424176,-0.12405 -0.65227,-0.12405 -0.228095,0 -0.448186,0.04 -0.652271,0.12405 -0.204085,0.084 -0.384159,0.20008 -0.540224,0.34814 -0.156065,0.14807 -0.276115,0.32414 -0.368153,0.52822 -0.09204,0.20409 -0.136056,0.42418 -0.136056,0.66428 z m -1.640681,0 c 0,-0.44819 0.08404,-0.86436 0.248103,-1.25252 0.164068,-0.38816 0.396164,-0.7243 0.688286,-1.01242 0.292121,-0.28812 0.644267,-0.51221 1.052436,-0.67628 0.408169,-0.16407 0.856355,-0.2441 1.34856,-0.2441 0.4842,0 0.932386,0.08 1.344557,0.2441 0.412171,0.16407 0.764317,0.38816 1.06044,0.67628 0.296123,0.28812 0.528219,0.62426 0.692287,1.01242 0.164069,0.38816 0.248103,0.80433 0.248103,1.25252 0,0.44818 -0.08404,0.86436 -0.248103,1.25252 -0.164068,0.38816 -0.396164,0.7243 -0.692287,1.01242 -0.296123,0.28812 -0.648269,0.51221 -1.06044,0.67628 -0.412171,0.16407 -0.860357,0.2441 -1.344557,0.2441 -0.492205,0 -0.940391,-0.08 -1.34856,-0.2441 -0.408169,-0.16407 -0.760315,-0.38816 -1.052436,-0.67628 -0.292122,-0.28812 -0.524218,-0.62426 -0.688286,-1.01242 -0.164068,-0.38816 -0.248103,-0.80434 -0.248103,-1.25252 z" />
  <path
   inkscape:connector-curvature="0"
   id="path6281"
   style="fill:#2c5aa0;fill-rule:nonzero;stroke-width:4.00165987"
   d="m 49.050182,135.7643 v 4.70595 h 1.88078 v 1.32855 h -3.449431 v -6.0345 z" />
  <path
   inkscape:connector-curvature="0"
   id="path6286"
   style="fill:#2c5aa0;fill-rule:nonzero;stroke-width:4.00165987"
   d="m 14.661783,201.46142 h 0.296123 c 0.308128,0 0.548227,-0.064 0.712295,-0.19208 0.164068,-0.12806 0.248103,-0.31213 0.248103,-0.55223 0,-0.2401 -0.08403,-0.42418 -0.248103,-0.55223 -0.164068,-0.12806 -0.404167,-0.19208 -0.712295,-0.19208 h -0.296123 z m 3.449431,3.33738 h -1.95281 l -1.496621,-2.32096 v 2.32096 h -1.568651 v -6.0345 h 2.441013 c 0.336139,0 0.62826,0.048 0.880365,0.14806 0.252105,0.10004 0.456189,0.23209 0.620257,0.40417 0.164068,0.17207 0.284118,0.36815 0.368153,0.59224 0.08403,0.22409 0.124052,0.46419 0.124052,0.7203 0,0.46019 -0.112047,0.83235 -0.332138,1.11646 -0.220092,0.28412 -0.548228,0.4802 -0.980407,0.58024 z" />
  <path
   inkscape:connector-curvature="0"
   id="path6288"
   style="fill:#2c5aa0;fill-rule:nonzero;stroke-width:4.00165987"
   d="m 22.20091,200.09285 h -1.864773 v 1.00842 h 1.76073 v 1.32855 h -1.76073 v 1.04043 h 1.864773 v 1.32855 h -3.433424 v -6.0345 h 3.433424 z" />
  <path
   inkscape:connector-curvature="0"
   id="path6290"
   style="fill:#2c5aa0;fill-rule:nonzero;stroke-width:4.00165987"
   d="m 25.618328,200.09285 v 4.70595 h -1.568651 v -4.70595 h -1.288534 v -1.32855 h 4.14572 v 1.32855 z" />
  <path
   inkscape:connector-curvature="0"
   id="path6292"
   style="fill:#2c5aa0;fill-rule:nonzero;stroke-width:4.00165987"
   d="m 29.171802,198.7643 v 3.28136 c 0,0.17607 0.008,0.35615 0.02001,0.54022 0.012,0.18408 0.05202,0.35215 0.12005,0.50021 0.06803,0.14806 0.172072,0.27211 0.316131,0.36415 0.14406,0.092 0.348145,0.14006 0.608253,0.14006 0.260108,0 0.464192,-0.048 0.60425,-0.14006 0.140058,-0.092 0.248103,-0.21609 0.316132,-0.36415 0.06803,-0.14806 0.112046,-0.31613 0.124051,-0.50021 0.012,-0.18407 0.02001,-0.36415 0.02001,-0.54022 v -3.28136 h 1.560648 v 3.49745 c 0,0.94039 -0.21609,1.62467 -0.644268,2.05685 -0.428177,0.43218 -1.088451,0.64827 -1.980821,0.64827 -0.89237,0 -1.552644,-0.21609 -1.984824,-0.64827 -0.432179,-0.43218 -0.648269,-1.11646 -0.648269,-2.05685 v -3.49745 z" />
  <path
   inkscape:connector-curvature="0"
   id="path6294"
   style="fill:#2c5aa0;fill-rule:nonzero;stroke-width:4.00165987"
   d="m 35.694508,201.46142 h 0.296123 c 0.308128,0 0.548227,-0.064 0.712295,-0.19208 0.164068,-0.12806 0.248103,-0.31213 0.248103,-0.55223 0,-0.2401 -0.08404,-0.42418 -0.248103,-0.55223 -0.164068,-0.12806 -0.404167,-0.19208 -0.712295,-0.19208 h -0.296123 z m 3.449431,3.33738 h -1.95281 l -1.496621,-2.32096 v 2.32096 h -1.568651 v -6.0345 h 2.441013 c 0.336139,0 0.62826,0.048 0.880365,0.14806 0.252105,0.10004 0.456189,0.23209 0.620257,0.40417 0.164068,0.17207 0.284118,0.36815 0.368153,0.59224 0.08404,0.22409 0.124052,0.46419 0.124052,0.7203 0,0.46019 -0.112047,0.83235 -0.332138,1.11646 -0.220092,0.28412 -0.548228,0.4802 -0.980407,0.58024 z" />
  <path
   inkscape:connector-curvature="0"
   id="path6296"
   style="fill:#2c5aa0;fill-rule:nonzero;stroke-width:4.00165987"
   d="m 39.800211,204.7988 v -6.0345 h 1.568651 l 2.897202,3.68953 v -3.68953 h 1.560647 v 6.0345 h -1.560647 l -2.897202,-3.68953 v 3.68953 z" />
  <path
   inkscape:connector-curvature="0"
   id="path6301"
   style="fill:#4b4b4b;stroke:#737373;stroke-width:0.96365029px;stroke-linecap:round;stroke-linejoin:round;stroke-miterlimit:1.5"
   d="m 46.000028,56.757632 c 0,-2.096781 -1.702296,-3.799992 -3.799636,-3.799992 H 16.800097 c -2.09734,0 -3.799637,1.703211 -3.799637,3.799992 v 11.399976 c 0,2.096781 1.702297,3.799992 3.799637,3.799992 h 25.400295 c 2.09734,0 3.799636,-1.703211 3.799636,-3.799992 z" />
  <path
   inkscape:connector-curvature="0"
   id="path6305"
   style="fill:#262626;stroke:#262626;stroke-width:0.48951483px;stroke-linecap:round;stroke-linejoin:round;stroke-miterlimit:1.5"
   d="m 44.999968,57.63462 c 0,-1.774201 -1.440953,-3.21538 -3.215637,-3.21538 H 17.215129 c -1.774684,0 -3.214768,1.441179 -3.214768,3.21538 v 9.64614 c 0,1.774201 1.440084,3.21538 3.214768,3.21538 h 24.569202 c 1.774684,0 3.215637,-1.441179 3.215637,-3.21538 z" />
</svg>