<?xml version="1.0" encoding="UTF-8" standalone="no"?>
<svg
   xmlns:dc="http://purl.org/dc/elements/1.1/"
   xmlns:cc="http://creativecommons.org/ns#"
   xmlns:rdf="http://www.w3.org/1999/02/22-rdf-syntax-ns#"
   xmlns:svg="http://www.w3.org/2000/svg"
   xmlns="http://www.w3.org/2000/svg"
   xmlns:sodipodi="http://sodipodi.sourceforge.net/DTD/sodipodi-0.dtd"
   xmlns:inkscape="http://www.inkscape.org/namespaces/inkscape"
   width="150px"
   height="380px"
   version="1.1"
   xml:space="preserve"
   style="fill-rule:evenodd;clip-rule:evenodd;stroke-linecap:round;"
   id="svg3079"
   sodipodi:docname="Ferox.svg"
   inkscape:version="0.92.3 (2405546, 2018-03-11)"><metadata
   id="metadata3083"><rdf:RDF><cc:Work
       rdf:about=""><dc:format>image/svg+xml</dc:format><dc:type
         rdf:resource="http://purl.org/dc/dcmitype/StillImage" /><dc:title></dc:title></cc:Work></rdf:RDF></metadata><sodipodi:namedview
   pagecolor="#ffffff"
   bordercolor="#666666"
   borderopacity="1"
   objecttolerance="10"
   gridtolerance="10"
   guidetolerance="10"
   inkscape:pageopacity="0"
   inkscape:pageshadow="2"
   inkscape:window-width="1920"
   inkscape:window-height="1017"
   id="namedview3081"
   showgrid="false"
   inkscape:zoom="2.2105263"
   inkscape:cx="75"
   inkscape:cy="190"
   inkscape:window-x="1912"
   inkscape:window-y="-8"
   inkscape:window-maximized="1"
   inkscape:current-layer="svg3079" />
  <defs
   id="defs2965">
    <linearGradient
   id="_Linear1"
   x1="0"
   y1="0"
   x2="1"
   y2="0"
   gradientUnits="userSpaceOnUse"
   gradientTransform="matrix(150,-379.998,379.998,150,3.28145e-4,379.998)">
      <stop
   offset="0"
   style="stop-color:#001900;stop-opacity:1"
   id="stop2960" />
      <stop
   offset="1"
   style="stop-color:#002800;stop-opacity:1"
   id="stop2962" />
    </linearGradient>
  
    
    
    
    
    
    
    
    
    
    
    
    
    
    
    
    
    
    
    
    
    
    
    
    
    
    
    
    
    
    
    
    
    
    
    
    
    
    
    
    
    
    
    
    
    
    
    
    
    
    
    
    
    
    
    
    
    
    
    
    
    
    
    
    
    
    
    
    
    
    
    
    
    
    
    
    
    
    
    
    
    
    
    
    
    
    
    
    
    
    
    
    
    
    
    
  </defs>
  <rect
   style="fill:#1a1a1a"
   height="380"
   width="150"
   y="0"
   x="0"
   id="rect9931" /><rect
   style="fill:url(#_Linear1)"
   height="379.99799"
   width="150"
   y="0"
   x="0"
   id="rect1106" /><path
   inkscape:connector-curvature="0"
   style="fill:#ffffff;fill-rule:nonzero"
   d="m 62.683,123.163 c -0.364,-0.444 -0.812,-0.664 -1.345,-0.664 -0.236,0 -0.452,0.044 -0.652,0.128 -0.2,0.084 -0.372,0.2 -0.516,0.348 -0.144,0.148 -0.256,0.32 -0.34,0.524 -0.084,0.204 -0.124,0.42 -0.124,0.657 0,0.24 0.04,0.46 0.124,0.664 0.084,0.204 0.196,0.38 0.344,0.528 0.148,0.148 0.32,0.268 0.516,0.352 0.196,0.084 0.412,0.128 0.64,0.128 0.501,0 0.953,-0.212 1.353,-0.64 v 1.857 l -0.16,0.056 c -0.24,0.084 -0.464,0.148 -0.672,0.188 -0.209,0.04 -0.413,0.06 -0.617,0.06 -0.416,0 -0.816,-0.08 -1.196,-0.236 -0.38,-0.156 -0.717,-0.38 -1.009,-0.665 -0.292,-0.284 -0.524,-0.624 -0.7,-1.016 -0.176,-0.392 -0.264,-0.82 -0.264,-1.284 0,-0.465 0.088,-0.889 0.26,-1.277 0.172,-0.388 0.404,-0.72 0.696,-1 0.292,-0.281 0.629,-0.501 1.013,-0.657 0.384,-0.156 0.788,-0.236 1.208,-0.236 0.24,0 0.476,0.024 0.709,0.076 0.232,0.052 0.476,0.128 0.732,0.236 z"
   id="path1109" /><path
   inkscape:connector-curvature="0"
   style="fill:#ffffff;fill-rule:nonzero"
   d="m 65.244,121.146 v 3.282 c 0,0.176 0.008,0.356 0.02,0.54 0.012,0.184 0.052,0.352 0.12,0.5 0.068,0.148 0.172,0.272 0.316,0.364 0.144,0.092 0.348,0.14 0.608,0.14 0.26,0 0.465,-0.048 0.605,-0.14 0.14,-0.092 0.248,-0.216 0.316,-0.364 0.068,-0.148 0.112,-0.316 0.124,-0.5 0.012,-0.184 0.02,-0.364 0.02,-0.54 v -3.282 h 1.56 v 3.498 c 0,0.94 -0.216,1.624 -0.644,2.057 -0.428,0.432 -1.088,0.648 -1.981,0.648 -0.892,0 -1.552,-0.216 -1.984,-0.648 -0.433,-0.433 -0.649,-1.117 -0.649,-2.057 v -3.498 z"
   id="path1111" /><path
   inkscape:connector-curvature="0"
   style="fill:#ffffff;fill-rule:nonzero"
   d="m 72.487,122.475 v 4.706 h -1.569 v -4.706 H 69.63 v -1.329 h 4.145 v 1.329 z"
   id="path1113" /><path
   inkscape:connector-curvature="0"
   style="fill:#ffffff;fill-rule:nonzero"
   d="m 75.784,124.164 c 0,0.24 0.044,0.46 0.136,0.664 0.092,0.204 0.212,0.38 0.369,0.528 0.156,0.148 0.336,0.264 0.54,0.348 0.204,0.084 0.424,0.124 0.652,0.124 0.228,0 0.448,-0.04 0.652,-0.124 0.204,-0.084 0.388,-0.2 0.545,-0.348 0.156,-0.148 0.28,-0.324 0.372,-0.528 0.092,-0.204 0.136,-0.424 0.136,-0.664 0,-0.241 -0.044,-0.461 -0.136,-0.665 -0.092,-0.204 -0.216,-0.38 -0.372,-0.528 -0.157,-0.148 -0.341,-0.264 -0.545,-0.348 -0.204,-0.084 -0.424,-0.124 -0.652,-0.124 -0.228,0 -0.448,0.04 -0.652,0.124 -0.204,0.084 -0.384,0.2 -0.54,0.348 -0.157,0.148 -0.277,0.324 -0.369,0.528 -0.092,0.204 -0.136,0.424 -0.136,0.665 z m -1.64,0 c 0,-0.449 0.084,-0.865 0.248,-1.253 0.164,-0.388 0.396,-0.724 0.688,-1.012 0.292,-0.289 0.644,-0.513 1.052,-0.677 0.409,-0.164 0.857,-0.244 1.349,-0.244 0.484,0 0.932,0.08 1.345,0.244 0.412,0.164 0.764,0.388 1.06,0.677 0.296,0.288 0.528,0.624 0.692,1.012 0.164,0.388 0.248,0.804 0.248,1.253 0,0.448 -0.084,0.864 -0.248,1.252 -0.164,0.388 -0.396,0.724 -0.692,1.012 -0.296,0.289 -0.648,0.513 -1.06,0.677 -0.413,0.164 -0.861,0.244 -1.345,0.244 -0.492,0 -0.94,-0.08 -1.349,-0.244 -0.408,-0.164 -0.76,-0.388 -1.052,-0.677 -0.292,-0.288 -0.524,-0.624 -0.688,-1.012 -0.164,-0.388 -0.248,-0.804 -0.248,-1.252 z"
   id="path1115" /><path
   inkscape:connector-curvature="0"
   style="fill:#ffffff;fill-rule:nonzero"
   d="m 85.276,122.475 h -1.889 v 1.008 h 1.721 v 1.329 h -1.721 v 2.369 h -1.568 v -6.035 h 3.457 z"
   id="path1117" /><path
   inkscape:connector-curvature="0"
   style="fill:#ffffff;fill-rule:nonzero"
   d="m 89.67,122.475 h -1.889 v 1.008 h 1.721 v 1.329 h -1.721 v 2.369 h -1.568 v -6.035 h 3.457 z"
   id="path1119" /><path
   inkscape:connector-curvature="0"
   style="fill:none;stroke:#cccccc;stroke-width:1.5px"
   d="M 102.739,103.173 C 110.96,88.93 107.742,70.664 95.144,60.092 82.547,49.526 63.995,49.526 51.397,60.092 38.8,70.664 35.582,88.93 43.803,103.173"
   id="path1124" /><circle
   style="fill:none;stroke:#cccccc;stroke-width:1px;stroke-linecap:butt"
   r="3.7060001"
   cy="112.44"
   cx="44.173"
   id="circle1127" /><circle
   style="fill:#cccccc;stroke:#cccccc;stroke-width:1px;stroke-linecap:butt"
   r="3.7060001"
   cy="111.928"
   cx="102.952"
   id="circle1130" /><rect
   style="fill:#ffffff"
   height="6.0349998"
   width="1.569"
   y="349.61301"
   x="63.164001"
   id="rect1133" /><path
   inkscape:connector-curvature="0"
   style="fill:#ffffff;fill-rule:nonzero"
   d="m 65.997,355.648 v -6.035 h 1.569 l 2.897,3.69 v -3.69 h 1.561 v 6.035 h -1.561 l -2.897,-3.69 v 3.69 z"
   id="path1135" /><path
   inkscape:connector-curvature="0"
   style="fill:#ffffff;fill-rule:nonzero"
   d="m 74.857,352.382 h 0.52 c 0.577,0 0.865,-0.252 0.865,-0.752 0,-0.5 -0.288,-0.752 -0.865,-0.752 h -0.52 z m 0,3.266 h -1.569 v -6.035 h 2.497 c 0.677,0 1.197,0.176 1.557,0.529 0.36,0.352 0.54,0.848 0.54,1.488 0,0.64 -0.18,1.137 -0.54,1.489 -0.36,0.352 -0.88,0.528 -1.557,0.528 h -0.928 z"
   id="path1137" /><path
   inkscape:connector-curvature="0"
   style="fill:#ffffff;fill-rule:nonzero"
   d="m 80.283,349.613 v 3.282 c 0,0.176 0.008,0.356 0.02,0.54 0.012,0.184 0.052,0.352 0.12,0.5 0.068,0.148 0.172,0.272 0.317,0.364 0.144,0.092 0.348,0.14 0.608,0.14 0.26,0 0.464,-0.048 0.604,-0.14 0.14,-0.092 0.248,-0.216 0.316,-0.364 0.068,-0.148 0.112,-0.316 0.124,-0.5 0.012,-0.184 0.02,-0.364 0.02,-0.54 v -3.282 h 1.561 v 3.498 c 0,0.94 -0.216,1.624 -0.644,2.057 -0.429,0.432 -1.089,0.648 -1.981,0.648 -0.893,0 -1.553,-0.216 -1.985,-0.648 -0.432,-0.433 -0.648,-1.117 -0.648,-2.057 v -3.498 z"
   id="path1139" /><path
   inkscape:connector-curvature="0"
   style="fill:#ffffff;fill-rule:nonzero"
   d="m 87.526,350.942 v 4.706 h -1.568 v -4.706 h -1.289 v -1.329 h 4.146 v 1.329 z"
   id="path1141" /><path
   inkscape:connector-curvature="0"
   style="fill:#ffffff;fill-rule:nonzero"
   d="m 52.929,38.447 c -0.571,0.152 -1.1,0.229 -1.587,0.229 -0.816,0 -1.461,-0.241 -1.934,-0.719 -0.474,-0.48 -0.711,-1.133 -0.711,-1.958 0,-0.835 0.244,-1.489 0.731,-1.961 0.488,-0.471 1.161,-0.707 2.021,-0.707 0.416,0 0.896,0.067 1.439,0.2 v 0.996 c -0.566,-0.183 -1.018,-0.274 -1.355,-0.274 -0.413,0 -0.746,0.158 -0.997,0.474 -0.251,0.317 -0.377,0.737 -0.377,1.262 0,0.537 0.136,0.967 0.408,1.29 0.271,0.323 0.633,0.484 1.086,0.484 0.413,0 0.839,-0.09 1.276,-0.27 z"
   id="path1146" /><path
   inkscape:connector-curvature="0"
   style="fill:#ffffff;fill-rule:nonzero"
   d="m 54.232,38.559 v -5.112 h 1.323 v 0.964 c 0.403,-0.72 0.977,-1.08 1.723,-1.08 0.384,0 0.7,0.094 0.949,0.284 0.248,0.189 0.4,0.455 0.457,0.796 0.477,-0.72 1.055,-1.08 1.732,-1.08 0.934,0 1.4,0.516 1.4,1.546 v 3.682 h -1.322 v -3.231 c 0,-0.605 -0.201,-0.908 -0.605,-0.908 -0.412,0 -0.815,0.298 -1.205,0.894 v 3.245 h -1.323 v -3.231 c 0,-0.608 -0.203,-0.912 -0.61,-0.912 -0.406,0 -0.805,0.299 -1.196,0.898 v 3.245 z"
   id="path1148" /><path
   inkscape:connector-curvature="0"
   style="fill:#ffffff;fill-rule:nonzero"
   d="m 65.625,38.676 c -0.797,0 -1.432,-0.242 -1.902,-0.725 -0.47,-0.482 -0.705,-1.131 -0.705,-1.948 0,-0.826 0.236,-1.477 0.71,-1.955 0.473,-0.478 1.117,-0.717 1.93,-0.717 0.816,0 1.461,0.239 1.934,0.717 0.473,0.478 0.709,1.126 0.709,1.946 0,0.838 -0.237,1.495 -0.712,1.969 -0.474,0.475 -1.13,0.713 -1.964,0.713 z m 0.023,-0.862 c 0.791,0 1.187,-0.607 1.187,-1.82 0,-0.556 -0.105,-0.994 -0.314,-1.317 -0.21,-0.323 -0.497,-0.484 -0.863,-0.484 -0.363,0 -0.65,0.161 -0.86,0.484 -0.209,0.323 -0.313,0.764 -0.313,1.326 0,0.556 0.103,0.997 0.311,1.323 0.208,0.326 0.492,0.488 0.852,0.488 z"
   id="path1150" /><path
   inkscape:connector-curvature="0"
   style="fill:#ffffff;fill-rule:nonzero"
   d="m 69.433,38.396 v -1.01 c 0.683,0.286 1.267,0.428 1.75,0.428 0.566,0 0.847,-0.192 0.847,-0.577 0,-0.248 -0.233,-0.465 -0.697,-0.651 L 70.867,36.399 C 70.361,36.194 70,35.974 69.783,35.737 69.565,35.502 69.457,35.21 69.457,34.863 c 0,-0.485 0.184,-0.861 0.553,-1.13 0.37,-0.268 0.886,-0.402 1.55,-0.402 0.416,0 0.912,0.06 1.486,0.182 v 0.968 c -0.553,-0.193 -1.01,-0.288 -1.373,-0.288 -0.572,0 -0.857,0.177 -0.857,0.53 0,0.233 0.211,0.43 0.633,0.591 l 0.4,0.153 c 0.6,0.227 1.016,0.457 1.25,0.69 0.235,0.233 0.351,0.532 0.351,0.899 0,0.48 -0.199,0.871 -0.598,1.171 -0.398,0.298 -0.918,0.449 -1.556,0.449 -0.616,0 -1.236,-0.094 -1.863,-0.28 z"
   id="path1152" /><path
   inkscape:connector-curvature="0"
   style="fill:#ffffff;fill-rule:nonzero"
   d="m 78.245,38.559 v -4.251 h -0.703 v -0.861 h 0.703 v -0.353 c 0,-0.643 0.154,-1.137 0.46,-1.484 0.305,-0.345 0.74,-0.518 1.305,-0.518 0.348,0 0.717,0.063 1.108,0.19 v 0.941 c -0.385,-0.171 -0.67,-0.256 -0.857,-0.256 -0.424,0 -0.637,0.388 -0.637,1.164 v 0.316 h 3.216 v 5.112 h -1.377 v -4.251 h -1.839 v 4.251 z m 3.446,-5.972 v -1.151 h 1.149 v 1.151 z"
   id="path1154" /><rect
   style="fill:#ffffff"
   height="7.3509998"
   width="1.3789999"
   y="31.208"
   x="84.563004"
   id="rect1156" /><path
   inkscape:connector-curvature="0"
   style="fill:#ffffff;fill-rule:nonzero"
   d="m 90.298,38.532 c -0.328,0.095 -0.587,0.144 -0.777,0.144 -1.194,0 -1.792,-0.559 -1.792,-1.676 v -2.692 h -0.573 v -0.861 h 0.573 v -0.86 l 1.378,-0.159 v 1.019 h 1.094 v 0.861 h -1.094 v 2.509 c 0,0.628 0.257,0.942 0.768,0.942 0.119,0 0.259,-0.023 0.423,-0.066 z"
   id="path1158" /><path
   inkscape:connector-curvature="0"
   style="fill:#ffffff;fill-rule:nonzero"
   d="m 95.69,38.387 c -0.655,0.192 -1.276,0.289 -1.863,0.289 -0.853,0 -1.526,-0.243 -2.02,-0.727 -0.493,-0.484 -0.74,-1.145 -0.74,-1.983 0,-0.792 0.226,-1.428 0.678,-1.911 0.451,-0.483 1.048,-0.724 1.789,-0.724 0.749,0 1.295,0.236 1.639,0.707 0.345,0.472 0.517,1.219 0.517,2.239 h -3.17 c 0.093,0.976 0.628,1.463 1.606,1.463 0.463,0 0.983,-0.107 1.564,-0.321 z M 92.501,35.5 h 1.835 c 0,-0.872 -0.282,-1.307 -0.843,-1.307 -0.572,0 -0.902,0.435 -0.992,1.307 z"
   id="path1160" /><path
   inkscape:connector-curvature="0"
   style="fill:#ffffff;fill-rule:nonzero"
   d="m 97.115,38.559 v -5.112 h 1.377 v 0.964 c 0.357,-0.72 0.9,-1.08 1.63,-1.08 0.087,0 0.172,0.009 0.256,0.027 v 1.23 c -0.196,-0.071 -0.377,-0.107 -0.544,-0.107 -0.55,0 -0.997,0.278 -1.342,0.833 v 3.245 z"
   id="path1162" /><g
   id="g3201"
   style="fill:#d6e8d6"><path
     id="path1167"
     d="m 59.116,19.797 h -2.968 v 1.585 h 2.705 v 2.089 h -2.705 v 3.724 H 53.682 V 17.71 h 5.434 z"
     style="fill:#d6e8d6;fill-rule:nonzero"
     inkscape:connector-curvature="0" /><path
     id="path1169"
     d="m 65.985,19.797 h -2.93 v 1.585 h 2.766 v 2.089 h -2.766 v 1.635 h 2.93 v 2.089 H 60.588 V 17.71 h 5.397 z"
     style="fill:#d6e8d6;fill-rule:nonzero"
     inkscape:connector-curvature="0" /><path
     id="path1171"
     d="m 70.225,21.948 h 0.466 c 0.486,0 0.859,-0.099 1.119,-0.301 0.259,-0.201 0.39,-0.491 0.39,-0.868 0,-0.377 -0.131,-0.666 -0.39,-0.868 C 71.55,19.71 71.177,19.61 70.691,19.61 h -0.466 z m 5.422,5.247 h -3.07 l -2.352,-3.648 v 3.648 H 67.759 V 17.71 h 3.838 c 0.527,0 0.989,0.078 1.383,0.232 0.395,0.156 0.72,0.368 0.975,0.635 0.256,0.269 0.448,0.58 0.578,0.931 0.131,0.353 0.195,0.73 0.195,1.133 0,0.721 -0.173,1.306 -0.522,1.755 -0.348,0.449 -0.861,0.753 -1.541,0.912 z"
     style="fill:#d6e8d6;fill-rule:nonzero"
     inkscape:connector-curvature="0" /><path
     id="path1173"
     d="m 78.653,22.452 c 0,0.378 0.072,0.726 0.215,1.044 0.142,0.318 0.335,0.596 0.578,0.831 0.243,0.235 0.526,0.417 0.849,0.546 0.323,0.131 0.665,0.196 1.026,0.196 0.36,0 0.702,-0.065 1.024,-0.196 0.324,-0.129 0.609,-0.311 0.857,-0.546 0.246,-0.235 0.442,-0.513 0.584,-0.831 0.143,-0.318 0.213,-0.666 0.213,-1.044 0,-0.377 -0.07,-0.725 -0.213,-1.044 -0.142,-0.319 -0.338,-0.596 -0.584,-0.83 -0.248,-0.234 -0.533,-0.417 -0.857,-0.547 -0.322,-0.13 -0.664,-0.195 -1.024,-0.195 -0.361,0 -0.703,0.065 -1.026,0.195 -0.323,0.13 -0.606,0.313 -0.849,0.547 -0.243,0.234 -0.436,0.511 -0.578,0.83 -0.143,0.319 -0.215,0.667 -0.215,1.044 z m -2.579,0 c 0,-0.705 0.131,-1.36 0.391,-1.969 0.259,-0.607 0.62,-1.138 1.081,-1.591 0.461,-0.453 1.013,-0.807 1.654,-1.063 0.642,-0.256 1.348,-0.384 2.121,-0.384 0.763,0 1.466,0.128 2.112,0.384 0.646,0.256 1.202,0.61 1.668,1.063 0.465,0.453 0.828,0.984 1.088,1.591 0.26,0.609 0.39,1.264 0.39,1.969 0,0.705 -0.13,1.361 -0.39,1.969 -0.26,0.608 -0.623,1.138 -1.088,1.591 -0.466,0.453 -1.022,0.807 -1.668,1.063 -0.646,0.256 -1.349,0.384 -2.112,0.384 -0.773,0 -1.479,-0.128 -2.121,-0.384 -0.641,-0.256 -1.193,-0.61 -1.654,-1.063 -0.461,-0.453 -0.822,-0.983 -1.081,-1.591 -0.26,-0.608 -0.391,-1.264 -0.391,-1.969 z"
     style="fill:#d6e8d6;fill-rule:nonzero"
     inkscape:connector-curvature="0" /><path
     id="path1175"
     d="M 90.378,22.138 87.421,17.71 h 3.045 l 1.283,2.452 1.585,-2.452 h 3.044 l -3.132,4.428 3.535,5.057 h -3.007 l -1.899,-3.094 -2.227,3.094 h -2.981 z"
     style="fill:#d6e8d6;fill-rule:nonzero"
     inkscape:connector-curvature="0" /></g><g
   id="g3207"
   style="fill:#d6e8d6"><path
     id="path42"
     d="m 62.952,363.5 h 2.673 l 2.49,8.317 2.574,-8.317 h 2.66 l -3.46,10.397 c -0.323,0.959 -0.903,1.438 -1.738,1.438 -0.847,0 -1.433,-0.484 -1.755,-1.453 z"
     style="fill:#d6e8d6;fill-rule:nonzero"
     inkscape:connector-curvature="0" /><path
     id="path44"
     d="M 73.55,372.292 V 363.5 h 2.507 v 8.709 c 0.044,0.312 0.334,0.468 0.869,0.468 h 1.705 c 0.513,0 0.797,-0.145 0.853,-0.435 l 0.017,-0.083 V 363.5 h 2.507 v 8.776 c 0,0.769 -0.083,1.315 -0.251,1.638 -0.445,0.858 -1.231,1.287 -2.357,1.287 h -3.243 c -1.159,0 -1.95,-0.44 -2.373,-1.321 -0.156,-0.323 -0.234,-0.852 -0.234,-1.588 z"
     style="fill:#d6e8d6;fill-rule:nonzero"
     inkscape:connector-curvature="0" /><path
     id="path46"
     d="M 83.161,372.343 V 363.5 h 2.508 v 8.642 c 0,0.357 0.211,0.535 0.635,0.535 h 4.463 l -0.016,2.524 h -4.664 c -0.167,0 -0.312,-0.005 -0.435,-0.017 -0.903,-0.077 -1.544,-0.342 -1.922,-0.794 -0.379,-0.451 -0.569,-1.134 -0.569,-2.047 z"
     style="fill:#d6e8d6;fill-rule:nonzero"
     inkscape:connector-curvature="0" /><path
     id="path48"
     d="M 90.851,366.024 V 363.5 h 7.522 v 2.524 h -2.524 v 9.177 h -2.508 v -9.177 z"
     style="fill:#d6e8d6;fill-rule:nonzero"
     inkscape:connector-curvature="0" /></g><path
   inkscape:connector-curvature="0"
   style="fill:#757575;fill-rule:nonzero;stroke:#414c55;stroke-width:0.61000001px;stroke-linecap:butt;stroke-miterlimit:10"
   d="m 59.383,369.417 c 0,-4.509 -3.655,-8.164 -8.164,-8.164 -4.509,0 -8.165,3.655 -8.165,8.164 0,4.509 3.656,8.165 8.165,8.165 4.509,0 8.164,-3.656 8.164,-8.165 z"
   id="path4" /><g
   id="g40">
      <path
   inkscape:connector-curvature="0"
   style="fill:#2b2b2b;fill-rule:nonzero;stroke:#414c55;stroke-width:0.04px;stroke-linecap:butt"
   d="m 49.321,374.394 0.553,-0.891 -1.064,-2.393 -2.216,-2.284 0.46,3.101 0.597,1.28 0.833,1.264 z"
   id="polygon6" />
      <path
   inkscape:connector-curvature="0"
   style="fill:#262626;fill-rule:nonzero;stroke:#414c55;stroke-width:0.04px;stroke-linecap:butt"
   d="m 53.048,374.401 -0.553,-0.89 1.064,-2.393 2.216,-2.285 -0.46,3.101 -0.597,1.281 -0.833,1.263 z"
   id="polygon8" />
      <path
   inkscape:connector-curvature="0"
   style="fill:#424242;fill-rule:nonzero;stroke:#414c55;stroke-width:0.04px;stroke-linecap:butt"
   d="m 48.636,363.359 2.584,-0.66 v 13.447 l -1.349,-2.651 -1.061,-2.385 -1.022,-0.581 -2.052,-2.92 -0.057,-0.776 1.148,-2.067 z"
   id="polygon12" />
      <path
   inkscape:connector-curvature="0"
   style="fill:#333333;fill-rule:nonzero;stroke:#414c55;stroke-width:0.04px;stroke-linecap:butt"
   d="m 53.801,363.364 -2.584,-0.661 v 13.448 l 1.35,-2.651 1.06,-2.385 1.023,-0.581 2.051,-2.921 0.058,-0.775 -1.149,-2.067 z"
   id="polygon14" />
      <path
   inkscape:connector-curvature="0"
   style="fill:#4c4c4c;fill-rule:nonzero;stroke:#414c55;stroke-width:0.04px;stroke-linecap:butt"
   d="m 49.496,369.237 1.723,-1.684 v 1.229 l -1.723,1.718 v -1.263"
   id="polyline16" />
      <path
   inkscape:connector-curvature="0"
   style="fill:#5b5b5b;fill-rule:nonzero;stroke:#414c55;stroke-width:0.04px;stroke-linecap:butt"
   d="m 51.22,368.781 -1.723,1.718 0.377,3.004 1.346,2.643 z"
   id="polygon18" />
      <path
   inkscape:connector-curvature="0"
   style="fill:#333333;fill-rule:nonzero;stroke:#414c55;stroke-width:0.04px;stroke-linecap:butt"
   d="m 51.22,376.146 -1.346,-2.643 1.346,-0.635 z"
   id="polygon20" />
      <path
   inkscape:connector-curvature="0"
   style="fill:#ffffff;fill-rule:nonzero;stroke:#414c55;stroke-width:0.04px;stroke-linecap:butt"
   d="m 49.497,370.499 v -1.263 l -1.249,-1.58 -1.477,-1.19 -10e-4,0.932 0.775,1.823 z"
   id="polygon22" />
      <path
   inkscape:connector-curvature="0"
   style="fill:#2d2d2d;fill-rule:nonzero;stroke:#414c55;stroke-width:0.04px;stroke-linecap:butt"
   d="m 52.942,369.238 -1.722,-1.685 v 1.23 l 1.722,1.718 v -1.263"
   id="polyline24" />
      <path
   inkscape:connector-curvature="0"
   style="fill:#353535;fill-rule:nonzero;stroke:#414c55;stroke-width:0.04px;stroke-linecap:butt"
   d="m 51.218,368.781 1.722,1.718 -0.376,3.004 -1.347,2.643 z"
   id="polygon26" />
      <path
   inkscape:connector-curvature="0"
   style="fill:#191919;fill-rule:nonzero;stroke:#414c55;stroke-width:0.04px;stroke-linecap:butt"
   d="m 51.217,376.146 1.347,-2.643 -1.346,-0.635 z"
   id="polygon28" />
      <path
   inkscape:connector-curvature="0"
   style="fill:#ffffff;fill-rule:nonzero;stroke:#414c55;stroke-width:0.04px;stroke-linecap:butt"
   d="m 52.94,370.499 v -1.263 l 1.249,-1.58 1.478,-1.19 10e-4,0.932 -0.775,1.823 z"
   id="polygon30" />
      <path
   inkscape:connector-curvature="0"
   style="fill:#383838;fill-rule:nonzero;stroke:#414c55;stroke-width:0.04px;stroke-linecap:butt"
   d="m 48.652,363.338 2.566,4.215 -0.005,-4.87"
   id="polyline32" />
      <path
   inkscape:connector-curvature="0"
   style="fill:#2d2d2d;fill-rule:nonzero;stroke:#414c55;stroke-width:0.04px;stroke-linecap:butt"
   d="m 53.785,363.338 -2.566,4.215 0.006,-4.869"
   id="polyline34" />
      <path
   inkscape:connector-curvature="0"
   style="fill:#333333;fill-rule:nonzero;stroke:#414c55;stroke-width:0.04px;stroke-linecap:butt"
   d="m 48.811,371.111 0.688,-0.611 0.375,3.006 z"
   id="polygon36" />
      <path
   inkscape:connector-curvature="0"
   style="fill:#1c1c1c;fill-rule:nonzero;stroke:#414c55;stroke-width:0.04px;stroke-linecap:butt"
   d="m 53.631,371.125 -0.688,-0.61 -0.375,3.006 z"
   id="polygon38" />
    </g><path
   inkscape:connector-curvature="0"
   style="fill:#000f00;stroke:#003c00;stroke-width:1px;stroke-linecap:butt"
   d="m 74.99,246.071 c 0,-6.012 -4.882,-10.894 -10.892,-10.894 H 13.271 c -6.011,0 -10.892,4.882 -10.892,10.894 v 58.618 c 0,6.012 4.881,10.891 10.892,10.891 h 50.827 c 6.01,0 10.892,-4.879 10.892,-10.891 z"
   id="path1204" /><path
   inkscape:connector-curvature="0"
   style="fill:#ffffff;fill-rule:nonzero"
   d="m 52.317,269.448 h 0.344 c 0.396,0 0.676,-0.052 0.848,-0.152 0.173,-0.1 0.257,-0.264 0.257,-0.488 0,-0.224 -0.084,-0.388 -0.257,-0.488 -0.172,-0.1 -0.452,-0.152 -0.848,-0.152 h -0.344 z m 0,-2.449 h 0.288 c 0.492,0 0.736,-0.196 0.736,-0.584 0,-0.388 -0.244,-0.584 -0.736,-0.584 h -0.288 z m -1.569,-2.369 h 2.337 c 0.557,0 0.977,0.132 1.265,0.4 0.288,0.269 0.432,0.653 0.432,1.153 0,0.304 -0.056,0.556 -0.164,0.756 -0.108,0.2 -0.276,0.368 -0.5,0.508 0.224,0.044 0.416,0.109 0.572,0.197 0.156,0.088 0.284,0.196 0.384,0.324 0.1,0.128 0.168,0.272 0.212,0.432 0.044,0.16 0.064,0.332 0.064,0.512 0,0.284 -0.048,0.532 -0.148,0.752 -0.1,0.22 -0.236,0.405 -0.416,0.553 -0.18,0.148 -0.396,0.26 -0.652,0.336 -0.256,0.076 -0.545,0.112 -0.865,0.112 h -2.521 z"
   id="path1208" /><path
   inkscape:connector-curvature="0"
   style="fill:#ffffff;fill-rule:nonzero"
   d="m 57.855,267.399 h 0.52 c 0.577,0 0.865,-0.252 0.865,-0.752 0,-0.5 -0.288,-0.752 -0.865,-0.752 h -0.52 z m 0,3.266 h -1.568 v -6.035 h 2.497 c 0.676,0 1.196,0.176 1.556,0.529 0.36,0.352 0.541,0.848 0.541,1.488 0,0.64 -0.181,1.137 -0.541,1.489 -0.36,0.352 -0.88,0.528 -1.556,0.528 h -0.929 z"
   id="path1210" /><path
   inkscape:connector-curvature="0"
   style="fill:#ffffff;fill-rule:nonzero"
   d="m 20.137,264.63 v 4.706 h 1.881 v 1.329 h -3.449 v -6.035 z"
   id="path1215" /><path
   inkscape:connector-curvature="0"
   style="fill:#ffffff;fill-rule:nonzero"
   d="m 24.395,267.399 h 0.52 c 0.577,0 0.865,-0.252 0.865,-0.752 0,-0.5 -0.288,-0.752 -0.865,-0.752 h -0.52 z m 0,3.266 h -1.568 v -6.035 h 2.497 c 0.676,0 1.196,0.176 1.556,0.529 0.36,0.352 0.54,0.848 0.54,1.488 0,0.64 -0.18,1.137 -0.54,1.489 -0.36,0.352 -0.88,0.528 -1.556,0.528 h -0.929 z"
   id="path1217" /><path
   inkscape:connector-curvature="0"
   style="fill:#ffffff;fill-rule:nonzero"
   d="m 40.143,311.925 v -6.035 h 1.568 l 2.898,3.69 v -3.69 h 1.56 v 6.035 h -1.56 l -2.898,-3.69 v 3.69 z"
   id="path1222" /><path
   inkscape:connector-curvature="0"
   style="fill:#ffffff;fill-rule:nonzero"
   d="m 48.874,308.908 c 0,0.24 0.044,0.46 0.136,0.664 0.092,0.204 0.212,0.38 0.368,0.528 0.157,0.148 0.337,0.264 0.541,0.348 0.204,0.084 0.424,0.124 0.652,0.124 0.228,0 0.448,-0.04 0.652,-0.124 0.204,-0.084 0.388,-0.2 0.544,-0.348 0.157,-0.148 0.281,-0.324 0.373,-0.528 0.092,-0.204 0.136,-0.424 0.136,-0.664 0,-0.241 -0.044,-0.461 -0.136,-0.665 -0.092,-0.204 -0.216,-0.38 -0.373,-0.528 -0.156,-0.148 -0.34,-0.264 -0.544,-0.348 -0.204,-0.084 -0.424,-0.124 -0.652,-0.124 -0.228,0 -0.448,0.04 -0.652,0.124 -0.204,0.084 -0.384,0.2 -0.541,0.348 -0.156,0.148 -0.276,0.324 -0.368,0.528 -0.092,0.204 -0.136,0.424 -0.136,0.665 z m -1.64,0 c 0,-0.449 0.084,-0.865 0.248,-1.253 0.164,-0.388 0.396,-0.724 0.688,-1.012 0.292,-0.289 0.644,-0.513 1.052,-0.677 0.409,-0.164 0.857,-0.244 1.349,-0.244 0.484,0 0.932,0.08 1.345,0.244 0.412,0.164 0.764,0.388 1.06,0.677 0.296,0.288 0.528,0.624 0.692,1.012 0.164,0.388 0.248,0.804 0.248,1.253 0,0.448 -0.084,0.864 -0.248,1.252 -0.164,0.388 -0.396,0.724 -0.692,1.012 -0.296,0.289 -0.648,0.513 -1.06,0.677 -0.413,0.164 -0.861,0.244 -1.345,0.244 -0.492,0 -0.94,-0.08 -1.349,-0.244 -0.408,-0.164 -0.76,-0.388 -1.052,-0.677 -0.292,-0.288 -0.524,-0.624 -0.688,-1.012 -0.164,-0.388 -0.248,-0.804 -0.248,-1.252 z"
   id="path1224" /><path
   inkscape:connector-curvature="0"
   style="fill:#ffffff;fill-rule:nonzero"
   d="m 57.134,307.219 v 4.706 h -1.569 v -4.706 h -1.288 v -1.329 h 4.145 v 1.329 z"
   id="path1226" /><path
   inkscape:connector-curvature="0"
   style="fill:#ffffff;fill-rule:nonzero"
   d="m 63.408,307.907 c -0.364,-0.444 -0.812,-0.664 -1.344,-0.664 -0.236,0 -0.452,0.044 -0.653,0.128 -0.2,0.084 -0.372,0.2 -0.516,0.348 -0.144,0.148 -0.256,0.32 -0.34,0.524 -0.084,0.204 -0.124,0.42 -0.124,0.657 0,0.24 0.04,0.46 0.124,0.664 0.084,0.204 0.196,0.38 0.344,0.528 0.148,0.148 0.32,0.268 0.516,0.352 0.197,0.084 0.413,0.128 0.641,0.128 0.5,0 0.952,-0.212 1.352,-0.64 v 1.857 l -0.16,0.056 c -0.24,0.084 -0.464,0.148 -0.672,0.188 -0.208,0.04 -0.412,0.06 -0.616,0.06 -0.416,0 -0.817,-0.08 -1.197,-0.236 -0.38,-0.156 -0.716,-0.38 -1.008,-0.665 -0.292,-0.284 -0.524,-0.624 -0.7,-1.016 -0.177,-0.392 -0.265,-0.82 -0.265,-1.284 0,-0.465 0.088,-0.889 0.261,-1.277 0.172,-0.388 0.404,-0.72 0.696,-1 0.292,-0.281 0.628,-0.501 1.012,-0.657 0.384,-0.156 0.789,-0.236 1.209,-0.236 0.24,0 0.476,0.024 0.708,0.076 0.232,0.052 0.476,0.128 0.732,0.236 z"
   id="path1228" /><path
   inkscape:connector-curvature="0"
   style="fill:#ffffff;fill-rule:nonzero"
   d="m 66.225,308.219 h 2.265 v -2.329 h 1.569 v 6.035 H 68.49 v -2.489 h -2.265 v 2.489 h -1.568 v -6.035 h 1.568 z"
   id="path1230" /><path
   inkscape:connector-curvature="0"
   style="fill:#ffffff;fill-rule:nonzero"
   d="m 17.822,308.219 h 2.265 v -2.329 h 1.569 v 6.035 h -1.569 v -2.489 h -2.265 v 2.489 h -1.569 v -6.035 h 1.569 z"
   id="path1235" /><path
   inkscape:connector-curvature="0"
   style="fill:#ffffff;fill-rule:nonzero"
   d="m 24.489,308.659 h 0.52 c 0.576,0 0.864,-0.252 0.864,-0.752 0,-0.5 -0.288,-0.752 -0.864,-0.752 h -0.52 z m 0,3.266 H 22.92 v -6.035 h 2.497 c 0.676,0 1.197,0.176 1.557,0.529 0.36,0.352 0.54,0.848 0.54,1.488 0,0.64 -0.18,1.137 -0.54,1.489 -0.36,0.352 -0.881,0.528 -1.557,0.528 h -0.928 z"
   id="path1237" /><path
   inkscape:connector-curvature="0"
   style="fill:#ffffff;fill-rule:nonzero"
   d="m 14.66,188.739 h 0.296 c 0.308,0 0.548,-0.064 0.712,-0.192 0.164,-0.128 0.248,-0.312 0.248,-0.552 0,-0.24 -0.084,-0.424 -0.248,-0.552 -0.164,-0.128 -0.404,-0.192 -0.712,-0.192 H 14.66 Z m 3.449,3.338 h -1.953 l -1.496,-2.321 v 2.321 h -1.569 v -6.035 h 2.441 c 0.336,0 0.628,0.048 0.881,0.148 0.252,0.1 0.456,0.232 0.62,0.405 0.164,0.172 0.284,0.368 0.368,0.592 0.084,0.224 0.124,0.464 0.124,0.72 0,0.46 -0.112,0.832 -0.332,1.117 -0.22,0.284 -0.548,0.48 -0.981,0.58 z"
   id="path1242" /><path
   inkscape:connector-curvature="0"
   style="fill:#ffffff;fill-rule:nonzero"
   d="m 22.199,187.371 h -1.865 v 1.008 h 1.761 v 1.329 h -1.761 v 1.04 h 1.865 v 1.329 h -3.433 v -6.035 h 3.433 z"
   id="path1244" /><path
   inkscape:connector-curvature="0"
   style="fill:#ffffff;fill-rule:nonzero"
   d="m 26.641,187.587 c -0.172,-0.14 -0.34,-0.24 -0.512,-0.308 -0.173,-0.068 -0.337,-0.1 -0.497,-0.1 -0.204,0 -0.368,0.048 -0.496,0.144 -0.128,0.096 -0.192,0.22 -0.192,0.376 0,0.108 0.032,0.196 0.096,0.264 0.064,0.068 0.148,0.128 0.252,0.18 0.104,0.052 0.22,0.096 0.352,0.132 0.132,0.036 0.26,0.076 0.389,0.12 0.512,0.172 0.888,0.4 1.124,0.685 0.236,0.284 0.356,0.656 0.356,1.116 0,0.308 -0.052,0.588 -0.156,0.84 -0.104,0.252 -0.256,0.465 -0.456,0.645 -0.2,0.18 -0.444,0.316 -0.736,0.416 -0.293,0.1 -0.621,0.148 -0.989,0.148 -0.764,0 -1.468,-0.228 -2.121,-0.68 l 0.673,-1.265 c 0.236,0.208 0.468,0.364 0.696,0.464 0.228,0.1 0.456,0.152 0.68,0.152 0.256,0 0.448,-0.06 0.572,-0.176 0.124,-0.116 0.188,-0.252 0.188,-0.4 0,-0.092 -0.016,-0.168 -0.048,-0.236 -0.032,-0.068 -0.084,-0.128 -0.16,-0.184 -0.076,-0.056 -0.172,-0.108 -0.292,-0.156 -0.12,-0.048 -0.264,-0.1 -0.436,-0.16 -0.204,-0.064 -0.4,-0.136 -0.596,-0.212 -0.196,-0.076 -0.368,-0.18 -0.52,-0.308 -0.152,-0.128 -0.277,-0.289 -0.369,-0.485 -0.092,-0.196 -0.14,-0.44 -0.14,-0.74 0,-0.3 0.048,-0.568 0.148,-0.812 0.101,-0.244 0.237,-0.452 0.417,-0.625 0.18,-0.172 0.396,-0.308 0.656,-0.404 0.26,-0.096 0.548,-0.144 0.868,-0.144 0.3,0 0.613,0.04 0.937,0.124 0.324,0.084 0.636,0.204 0.936,0.364 z"
   id="path1246" /><path
   inkscape:connector-curvature="0"
   style="fill:#ffffff;fill-rule:nonzero"
   d="m 29.866,189.06 c 0,0.24 0.044,0.46 0.136,0.664 0.092,0.204 0.212,0.38 0.368,0.528 0.156,0.148 0.336,0.264 0.541,0.348 0.204,0.084 0.424,0.124 0.652,0.124 0.228,0 0.448,-0.04 0.652,-0.124 0.204,-0.084 0.388,-0.2 0.544,-0.348 0.156,-0.148 0.28,-0.324 0.372,-0.528 0.093,-0.204 0.137,-0.424 0.137,-0.664 0,-0.241 -0.044,-0.461 -0.137,-0.665 -0.092,-0.204 -0.216,-0.38 -0.372,-0.528 -0.156,-0.148 -0.34,-0.264 -0.544,-0.348 -0.204,-0.084 -0.424,-0.124 -0.652,-0.124 -0.228,0 -0.448,0.04 -0.652,0.124 -0.205,0.084 -0.385,0.2 -0.541,0.348 -0.156,0.148 -0.276,0.324 -0.368,0.528 -0.092,0.204 -0.136,0.424 -0.136,0.665 z m -1.641,0 c 0,-0.449 0.084,-0.865 0.249,-1.253 0.164,-0.388 0.396,-0.724 0.688,-1.012 0.292,-0.289 0.644,-0.513 1.052,-0.677 0.408,-0.164 0.857,-0.244 1.349,-0.244 0.484,0 0.932,0.08 1.344,0.244 0.413,0.164 0.765,0.388 1.061,0.677 0.296,0.288 0.528,0.624 0.692,1.012 0.164,0.388 0.248,0.804 0.248,1.253 0,0.448 -0.084,0.864 -0.248,1.252 -0.164,0.388 -0.396,0.724 -0.692,1.012 -0.296,0.289 -0.648,0.513 -1.061,0.677 -0.412,0.164 -0.86,0.244 -1.344,0.244 -0.492,0 -0.941,-0.08 -1.349,-0.244 -0.408,-0.164 -0.76,-0.388 -1.052,-0.677 -0.292,-0.288 -0.524,-0.624 -0.688,-1.012 -0.165,-0.388 -0.249,-0.804 -0.249,-1.252 z"
   id="path1248" /><path
   inkscape:connector-curvature="0"
   style="fill:#ffffff;fill-rule:nonzero"
   d="m 35.901,192.077 v -6.035 h 1.568 l 2.897,3.69 v -3.69 h 1.561 v 6.035 h -1.561 l -2.897,-3.69 v 3.69 z"
   id="path1250" /><path
   inkscape:connector-curvature="0"
   style="fill:#ffffff;fill-rule:nonzero"
   d="m 46.489,189.836 -0.704,-2.009 -0.705,2.009 z m 0.416,1.192 h -2.241 l -0.36,1.049 h -1.673 l 2.297,-6.035 h 1.713 l 2.297,6.035 h -1.673 z"
   id="path1252" /><path
   inkscape:connector-curvature="0"
   style="fill:#ffffff;fill-rule:nonzero"
   d="m 49.626,192.077 v -6.035 h 1.569 l 2.897,3.69 v -3.69 h 1.561 v 6.035 h -1.561 l -2.897,-3.69 v 3.69 z"
   id="path1254" /><path
   inkscape:connector-curvature="0"
   style="fill:#ffffff;fill-rule:nonzero"
   d="m 61.343,188.059 c -0.364,-0.444 -0.812,-0.664 -1.344,-0.664 -0.236,0 -0.453,0.044 -0.653,0.128 -0.2,0.084 -0.372,0.2 -0.516,0.348 -0.144,0.148 -0.256,0.32 -0.34,0.524 -0.084,0.204 -0.124,0.42 -0.124,0.657 0,0.24 0.04,0.46 0.124,0.664 0.084,0.204 0.196,0.38 0.344,0.528 0.148,0.148 0.32,0.268 0.516,0.352 0.196,0.084 0.413,0.128 0.641,0.128 0.5,0 0.952,-0.212 1.352,-0.64 v 1.857 l -0.16,0.056 c -0.24,0.084 -0.464,0.148 -0.672,0.188 -0.208,0.04 -0.412,0.06 -0.616,0.06 -0.417,0 -0.817,-0.08 -1.197,-0.236 -0.38,-0.156 -0.716,-0.38 -1.008,-0.665 -0.292,-0.284 -0.525,-0.624 -0.701,-1.016 -0.176,-0.392 -0.264,-0.82 -0.264,-1.284 0,-0.465 0.088,-0.889 0.26,-1.277 0.172,-0.388 0.405,-0.72 0.697,-1 0.292,-0.281 0.628,-0.501 1.012,-0.657 0.384,-0.156 0.788,-0.236 1.209,-0.236 0.24,0 0.476,0.024 0.708,0.076 0.232,0.052 0.476,0.128 0.732,0.236 z"
   id="path1256" /><path
   inkscape:connector-curvature="0"
   style="fill:#ffffff;fill-rule:nonzero"
   d="m 65.769,187.371 h -1.865 v 1.008 h 1.761 v 1.329 h -1.761 v 1.04 h 1.865 v 1.329 h -3.433 v -6.035 h 3.433 z"
   id="path1258" /><path
   inkscape:connector-curvature="0"
   style="fill:none;stroke:#cccccc;stroke-width:1.5px"
   d="m 59.383,170.241 c 5.878,-10.184 3.577,-23.245 -5.431,-30.804 -9.007,-7.556 -22.273,-7.556 -31.281,0 -9.007,7.559 -11.308,20.62 -5.43,30.804"
   id="path1263" /><circle
   style="fill:none;stroke:#cccccc;stroke-width:1px;stroke-linecap:butt"
   r="3.7060001"
   cy="179.509"
   cx="20.173"
   id="circle1266" /><circle
   style="fill:#cccccc;stroke:#cccccc;stroke-width:1px;stroke-linecap:butt"
   r="3.7060001"
   cy="178.99699"
   cx="57.952"
   id="circle1269" /><path
   inkscape:connector-curvature="0"
   style="fill:none;stroke:#cccccc;stroke-width:1.5px"
   d="m 132.383,170.241 c 5.878,-10.184 3.577,-23.245 -5.431,-30.804 -9.007,-7.556 -22.273,-7.556 -31.281,0 -9.007,7.559 -11.308,20.62 -5.43,30.804"
   id="path1274" /><circle
   style="fill:none;stroke:#cccccc;stroke-width:1px;stroke-linecap:butt"
   r="3.7060001"
   cy="179.509"
   cx="93.172997"
   id="circle1277" /><circle
   style="fill:#cccccc;stroke:#cccccc;stroke-width:1px;stroke-linecap:butt"
   r="3.7060001"
   cy="178.99699"
   cx="130.952"
   id="circle1280" /><path
   inkscape:connector-curvature="0"
   style="fill:#ffffff;fill-rule:nonzero"
   d="m 100.66,190.748 h 0.36 c 0.272,0 0.516,-0.044 0.728,-0.128 0.212,-0.084 0.392,-0.204 0.54,-0.352 0.149,-0.148 0.261,-0.328 0.337,-0.532 0.076,-0.204 0.116,-0.432 0.116,-0.676 0,-0.241 -0.04,-0.465 -0.12,-0.673 -0.08,-0.208 -0.192,-0.388 -0.341,-0.536 -0.148,-0.148 -0.328,-0.268 -0.54,-0.352 -0.212,-0.084 -0.452,-0.128 -0.72,-0.128 h -0.36 z m -1.569,-4.706 h 2.321 c 0.412,0 0.796,0.084 1.157,0.248 0.36,0.164 0.676,0.385 0.944,0.661 0.268,0.276 0.48,0.596 0.636,0.96 0.156,0.364 0.232,0.748 0.232,1.149 0,0.396 -0.076,0.776 -0.228,1.14 -0.152,0.364 -0.364,0.688 -0.632,0.964 -0.268,0.277 -0.584,0.501 -0.944,0.665 -0.361,0.164 -0.749,0.248 -1.165,0.248 h -2.321 z"
   id="path1285" /><path
   inkscape:connector-curvature="0"
   style="fill:#ffffff;fill-rule:nonzero"
   d="m 106.95,188.739 h 0.297 c 0.308,0 0.548,-0.064 0.712,-0.192 0.164,-0.128 0.248,-0.312 0.248,-0.552 0,-0.24 -0.084,-0.424 -0.248,-0.552 -0.164,-0.128 -0.404,-0.192 -0.712,-0.192 h -0.297 z m 3.45,3.338 h -1.953 l -1.497,-2.321 v 2.321 h -1.568 v -6.035 h 2.441 c 0.336,0 0.628,0.048 0.88,0.148 0.252,0.1 0.456,0.232 0.62,0.405 0.164,0.172 0.285,0.368 0.369,0.592 0.084,0.224 0.124,0.464 0.124,0.72 0,0.46 -0.112,0.832 -0.333,1.117 -0.22,0.284 -0.548,0.48 -0.98,0.58 z"
   id="path1287" /><rect
   style="fill:#ffffff"
   height="6.0349998"
   width="1.569"
   y="186.04201"
   x="111.056"
   id="rect1289" /><path
   inkscape:connector-curvature="0"
   style="fill:#ffffff;fill-rule:nonzero"
   d="m 114.962,186.042 1.456,3.674 1.465,-3.674 h 1.705 l -2.545,6.035 h -1.249 l -2.537,-6.035 z"
   id="path1291" /><path
   inkscape:connector-curvature="0"
   style="fill:#ffffff;fill-rule:nonzero"
   d="m 123.653,187.371 h -1.864 v 1.008 h 1.76 v 1.329 h -1.76 v 1.04 h 1.864 v 1.329 h -3.433 v -6.035 h 3.433 z"
   id="path1293" /><path
   inkscape:connector-curvature="0"
   style="fill:#cccccc;fill-rule:nonzero;stroke:#cccccc;stroke-width:1px"
   d="m 64.531,215.859 0.024,4.41"
   id="path1298" /><path
   inkscape:connector-curvature="0"
   style="fill:#cccccc;fill-rule:nonzero;stroke:#cccccc;stroke-width:1px"
   d="m 66.748,218.032 -4.41,0.02"
   id="path1301" /><path
   inkscape:connector-curvature="0"
   style="fill:#cccccc;fill-rule:nonzero;stroke:#cccccc;stroke-width:1px"
   d="m 48.429,217.908 -4.414,0.02"
   id="path1304" /><path
   inkscape:connector-curvature="0"
   style="fill:none;stroke:#cccccc;stroke-width:1px"
   d="m 64.904,214.662 c 2.737,-4.742 1.664,-10.824 -2.533,-14.346 -4.194,-3.521 -10.373,-3.521 -14.567,0 -4.197,3.522 -5.27,9.604 -2.533,14.346 l 9.816,-5.666 z"
   id="path1307" /><path
   inkscape:connector-curvature="0"
   style="fill:none;stroke:#cccccc;stroke-width:1px"
   d="M 55.087,209 55.063,195.69"
   id="path1310" /><path
   inkscape:connector-curvature="0"
   style="fill:none;stroke:#cccccc;stroke-width:1px"
   d="m 105.904,214.662 c 2.737,-4.742 1.664,-10.824 -2.534,-14.346 -4.193,-3.521 -10.372,-3.521 -14.566,0 -4.197,3.522 -5.27,9.604 -2.533,14.346 l 9.816,-5.666 z"
   id="path1315" /><path
   inkscape:connector-curvature="0"
   style="fill:none;stroke:#cccccc;stroke-width:1px"
   d="M 96.087,209 96.063,195.69"
   id="path1318" /><path
   inkscape:connector-curvature="0"
   style="fill:#cccccc;fill-rule:nonzero;stroke:#cccccc;stroke-width:1px"
   d="m 106.044,216.064 0.024,4.41"
   id="path1321" /><path
   inkscape:connector-curvature="0"
   style="fill:#cccccc;fill-rule:nonzero;stroke:#cccccc;stroke-width:1px"
   d="m 108.261,218.237 -4.41,0.02"
   id="path1324" /><path
   inkscape:connector-curvature="0"
   style="fill:#cccccc;fill-rule:nonzero;stroke:#cccccc;stroke-width:1px"
   d="m 89.942,218.113 -4.414,0.02"
   id="path1327" /><path
   inkscape:connector-curvature="0"
   style="fill:none;stroke:#cccccc;stroke-width:1px"
   d="m 137.904,74.662 c 2.737,-4.742 1.664,-10.824 -2.534,-14.346 -4.193,-3.521 -10.372,-3.521 -14.566,0 -4.197,3.522 -5.27,9.604 -2.533,14.346 l 9.816,-5.666 z"
   id="path1332" /><path
   inkscape:connector-curvature="0"
   style="fill:none;stroke:#cccccc;stroke-width:1px"
   d="M 128.087,69 128.063,55.691"
   id="path1335" /><path
   inkscape:connector-curvature="0"
   style="fill:#cccccc;fill-rule:nonzero;stroke:#cccccc;stroke-width:1px"
   d="m 138.044,76.064 0.024,4.41"
   id="path1338" /><path
   inkscape:connector-curvature="0"
   style="fill:#cccccc;fill-rule:nonzero;stroke:#cccccc;stroke-width:1px"
   d="m 140.261,78.237 -4.41,0.02"
   id="path1341" /><path
   inkscape:connector-curvature="0"
   style="fill:#cccccc;fill-rule:nonzero;stroke:#cccccc;stroke-width:1px"
   d="m 121.942,78.113 -4.414,0.02"
   id="path1344" /><path
   inkscape:connector-curvature="0"
   style="fill:none;stroke:#cccccc;stroke-width:1.5px"
   d="m 132.383,267.241 c 5.878,-10.184 3.577,-23.245 -5.431,-30.804 -9.007,-7.556 -22.273,-7.556 -31.281,0 -9.007,7.559 -11.308,20.62 -5.43,30.804"
   id="path1349" /><circle
   style="fill:none;stroke:#cccccc;stroke-width:1px;stroke-linecap:butt"
   r="3.7060001"
   cy="276.509"
   cx="93.172997"
   id="circle1352" /><circle
   style="fill:#cccccc;stroke:#cccccc;stroke-width:1px;stroke-linecap:butt"
   r="3.7060001"
   cy="275.99701"
   cx="130.952"
   id="circle1355" /><path
   inkscape:connector-curvature="0"
   style="fill:#ffffff;fill-rule:nonzero"
   d="m 104.66,287.86 h 0.344 c 0.396,0 0.676,-0.052 0.848,-0.152 0.172,-0.1 0.256,-0.264 0.256,-0.488 0,-0.224 -0.084,-0.388 -0.256,-0.488 -0.172,-0.1 -0.452,-0.152 -0.848,-0.152 h -0.344 z m 0,-2.449 h 0.288 c 0.492,0 0.736,-0.196 0.736,-0.584 0,-0.388 -0.244,-0.584 -0.736,-0.584 h -0.288 z m -1.569,-2.369 h 2.337 c 0.556,0 0.977,0.132 1.265,0.4 0.288,0.269 0.432,0.653 0.432,1.153 0,0.304 -0.056,0.556 -0.164,0.756 -0.108,0.2 -0.276,0.368 -0.5,0.508 0.224,0.044 0.416,0.109 0.572,0.197 0.156,0.088 0.284,0.196 0.384,0.324 0.1,0.128 0.168,0.272 0.212,0.432 0.044,0.16 0.064,0.332 0.064,0.512 0,0.284 -0.048,0.532 -0.148,0.752 -0.1,0.22 -0.236,0.405 -0.416,0.553 -0.18,0.148 -0.396,0.26 -0.652,0.336 -0.257,0.076 -0.545,0.112 -0.865,0.112 h -2.521 z"
   id="path1360" /><rect
   style="fill:#ffffff"
   height="6.0349998"
   width="1.569"
   y="283.04199"
   x="108.629"
   id="rect1362" /><path
   inkscape:connector-curvature="0"
   style="fill:#ffffff;fill-rule:nonzero"
   d="m 113.752,284.371 v 4.706 h -1.569 v -4.706 h -1.289 v -1.329 h 4.146 v 1.329 z"
   id="path1364" /><path
   inkscape:connector-curvature="0"
   style="fill:#ffffff;fill-rule:nonzero"
   d="m 119.17,284.371 h -1.865 v 1.008 h 1.761 v 1.329 h -1.761 v 1.04 h 1.865 v 1.329 h -3.434 v -6.035 h 3.434 z"
   id="path1366" /><path
   inkscape:connector-curvature="0"
   style="fill:none;stroke:#cccccc;stroke-width:1px"
   d="m 105.904,311.662 c 2.737,-4.742 1.664,-10.824 -2.534,-14.346 -4.193,-3.521 -10.372,-3.521 -14.566,0 -4.197,3.522 -5.27,9.604 -2.533,14.346 l 9.816,-5.666 z"
   id="path1371" /><path
   inkscape:connector-curvature="0"
   style="fill:none;stroke:#cccccc;stroke-width:1px"
   d="M 96.087,306 96.063,292.69"
   id="path1374" /><path
   inkscape:connector-curvature="0"
   style="fill:#cccccc;fill-rule:nonzero;stroke:#cccccc;stroke-width:1px"
   d="m 106.044,313.064 0.024,4.409"
   id="path1377" /><path
   inkscape:connector-curvature="0"
   style="fill:#cccccc;fill-rule:nonzero;stroke:#cccccc;stroke-width:1px"
   d="m 108.261,315.237 -4.41,0.02"
   id="path1380" /><path
   inkscape:connector-curvature="0"
   style="fill:#cccccc;fill-rule:nonzero;stroke:#cccccc;stroke-width:1px"
   d="m 89.942,315.113 -4.414,0.02"
   id="path1383" />
</svg>