<svg width="17px" height="16px" version="1.1" xmlns="http://www.w3.org/2000/svg" xmlns:xlink="http://www.w3.org/1999/xlink" xml:space="preserve" xmlns:serif="http://www.serif.com/" style="fill-rule:evenodd;clip-rule:evenodd;stroke-linecap:round;stroke-linejoin:round;stroke-miterlimit:1.5;">
  <defs>
    <linearGradient id="_Linear1" x1="0" y1="0" x2="1" y2="0" gradientUnits="userSpaceOnUse" gradientTransform="matrix(-0.0643149,-14.4915,14.4376,-0.0645553,16.5742,15.2217)">
      <stop offset="0" style="stop-color:black;stop-opacity:1"/>
      <stop offset="1" style="stop-color:rgb(220,220,220);stop-opacity:1"/>
    </linearGradient>
  </defs>
  <path id="path26222" d="M16.527,3.608c0,-1.601 -1.299,-2.899 -2.898,-2.899l-10.257,0c-1.6,0 -2.9,1.298 -2.9,2.899l0,8.786c0,1.601 1.3,2.9 2.9,2.9l10.257,0c1.599,0 2.898,-1.299 2.898,-2.9l0,-8.786Z" style="fill:url(#_Linear1);"/>
  <path id="path26226" d="M15.6,4.812c0,-1.745 -1.417,-3.162 -3.163,-3.162l-7.829,0c-1.745,0 -3.162,1.417 -3.162,3.162l0,6.326c0,1.745 1.417,3.162 3.162,3.162l7.829,0c1.746,0 3.163,-1.417 3.163,-3.162l0,-6.326Z" style="fill:rgb(38,38,38);stroke:rgb(102,102,102);stroke-width:0.85px;"/>
  <path id="path26230" d="M14.907,4.511c0,-1.143 -0.928,-2.069 -2.071,-2.069l-8.626,0c-1.143,0 -2.07,0.926 -2.07,2.069l0,6.932c0,1.143 0.927,2.07 2.07,2.07l8.626,0c1.143,0 2.071,-0.927 2.071,-2.07l0,-6.932Z" style="fill:rgb(26,26,26);stroke:rgb(51,51,51);stroke-width:0.85px;"/>
  <path d="M8.542,7.685l2.723,0c0,0.28 -0.012,0.534 -0.035,0.763c-0.023,0.229 -0.07,0.441 -0.14,0.637c-0.098,0.275 -0.231,0.519 -0.399,0.732c-0.168,0.212 -0.365,0.389 -0.591,0.532c-0.227,0.142 -0.475,0.25 -0.746,0.325c-0.271,0.075 -0.555,0.112 -0.854,0.112c-0.411,0 -0.785,-0.068 -1.124,-0.203c-0.338,-0.135 -0.628,-0.325 -0.871,-0.57c-0.243,-0.245 -0.432,-0.539 -0.567,-0.882c-0.135,-0.343 -0.203,-0.723 -0.203,-1.138c0,-0.411 0.067,-0.787 0.2,-1.13c0.133,-0.343 0.322,-0.636 0.567,-0.879c0.245,-0.243 0.54,-0.432 0.885,-0.567c0.345,-0.135 0.73,-0.203 1.155,-0.203c0.551,0 1.034,0.119 1.449,0.357c0.415,0.238 0.744,0.607 0.987,1.106l-1.302,0.539c-0.121,-0.289 -0.279,-0.497 -0.473,-0.623c-0.193,-0.126 -0.414,-0.189 -0.661,-0.189c-0.205,0 -0.392,0.039 -0.56,0.116c-0.168,0.077 -0.311,0.186 -0.43,0.329c-0.119,0.142 -0.213,0.313 -0.28,0.514c-0.068,0.201 -0.102,0.425 -0.102,0.672c0,0.224 0.029,0.432 0.088,0.623c0.058,0.191 0.145,0.357 0.262,0.497c0.117,0.14 0.261,0.249 0.434,0.326c0.173,0.077 0.373,0.115 0.602,0.115c0.135,0 0.266,-0.015 0.392,-0.045c0.126,-0.031 0.239,-0.08 0.34,-0.147c0.1,-0.068 0.183,-0.156 0.248,-0.263c0.065,-0.107 0.11,-0.238 0.133,-0.392l-1.127,0l0,-1.064Z" style="fill:rgb(204,204,204);fill-rule:nonzero;"/>
</svg>