<?xml version="1.0" encoding="UTF-8" standalone="no"?>
<svg
   xmlns:dc="http://purl.org/dc/elements/1.1/"
   xmlns:cc="http://creativecommons.org/ns#"
   xmlns:rdf="http://www.w3.org/1999/02/22-rdf-syntax-ns#"
   xmlns:svg="http://www.w3.org/2000/svg"
   xmlns="http://www.w3.org/2000/svg"
   xmlns:xlink="http://www.w3.org/1999/xlink"
   xmlns:sodipodi="http://sodipodi.sourceforge.net/DTD/sodipodi-0.dtd"
   xmlns:inkscape="http://www.inkscape.org/namespaces/inkscape"
   width="17px"
   height="16px"
   version="1.1"
   xml:space="preserve"
   style="fill-rule:evenodd;clip-rule:evenodd;stroke-linecap:round;stroke-linejoin:round;stroke-miterlimit:1.5;"
   id="svg19855"
   sodipodi:docname="Button_ON.svg"
   inkscape:version="0.92.3 (2405546, 2018-03-11)">
  <defs
   id="defs19859">
    <linearGradient
   inkscape:collect="always"
   id="linearGradient19867">
      <stop
   style="stop-color:#000000;stop-opacity:1;"
   offset="0"
   id="stop19863" />
      <stop
   style="stop-color:#dcdcdc;stop-opacity:0.92056078"
   offset="1"
   id="stop19865" />
    </linearGradient>
    <linearGradient
   inkscape:collect="always"
   xlink:href="#linearGradient19867"
   id="linearGradient19869"
   x1="92.800316"
   y1="323.91684"
   x2="92.795967"
   y2="309.95331"
   gradientUnits="userSpaceOnUse" />
  </defs>
  <metadata
   id="metadata19861">
    <rdf:RDF>
      <cc:Work
   rdf:about="">
        <dc:format>image/svg+xml</dc:format>
        <dc:type
   rdf:resource="http://purl.org/dc/dcmitype/StillImage" />
      <dc:title></dc:title></cc:Work>
    </rdf:RDF>
  </metadata>
  <sodipodi:namedview
   pagecolor="#ffffff"
   bordercolor="#666666"
   borderopacity="1"
   objecttolerance="10"
   gridtolerance="10"
   guidetolerance="10"
   inkscape:pageopacity="0"
   inkscape:pageshadow="2"
   inkscape:window-width="1920"
   inkscape:window-height="1017"
   id="namedview19857"
   showgrid="false"
   inkscape:zoom="53.0625"
   inkscape:cx="8.5"
   inkscape:cy="6.4923439"
   inkscape:window-x="1912"
   inkscape:window-y="-8"
   inkscape:window-maximized="1"
   inkscape:current-layer="svg19855" />
  <g
   transform="matrix(1.03804,0,0,1.04192,-79.7909,-322.201)"
   id="g19845"
   style="fill-opacity:1;fill:url(#linearGradient19869);stroke:none">
    <path
   d="M92.788,312.7c0,-1.536 -1.251,-2.782 -2.792,-2.782l-9.881,0c-1.541,0 -2.793,1.246 -2.793,2.782l0,8.433c0,1.536 1.252,2.783 2.793,2.783l9.881,0c1.541,0 2.792,-1.247 2.792,-2.783l0,-8.433Z"
   style="stroke:none;stroke-width:0.96px;fill-opacity:1;fill:url(#linearGradient19869)"
   id="path19843" />
  </g>
  <g
   transform="matrix(1.02667,0,0,1.13251,-79.1839,-350.508)"
   id="g19849">
    <path
   d="M92.322,313.746c0,-1.541 -1.381,-2.792 -3.081,-2.792l-7.626,0c-1.7,0 -3.08,1.251 -3.08,2.792l0,5.586c0,1.541 1.38,2.792 3.08,2.792l7.626,0c1.7,0 3.081,-1.251 3.081,-2.792l0,-5.586Z"
   style="fill:rgb(38,38,38);stroke:rgb(102,102,102);stroke-width:0.79px;"
   id="path19847" />
  </g>
  <g
   transform="matrix(0.925979,0,0,0.991131,-70.5817,-305.755)"
   id="g19853"
   style="fill:#aecffb;fill-opacity:1">
    <path
   d="M92.322,313.042c0,-1.153 -1.002,-2.088 -2.236,-2.088l-9.316,0c-1.234,0 -2.235,0.935 -2.235,2.088l0,6.994c0,1.153 1.001,2.088 2.235,2.088l9.316,0c1.234,0 2.236,-0.935 2.236,-2.088l0,-6.994Z"
   style="fill:#aecffb;stroke:rgb(51, 51, 51);stroke-width:0.89px;fill-opacity:1"
   id="path19851" />
  </g>
</svg>