<?xml version="1.0" encoding="UTF-8" standalone="no"?>
<svg
   xmlns:serif="http://www.serif.com/"
   xmlns:dc="http://purl.org/dc/elements/1.1/"
   xmlns:cc="http://creativecommons.org/ns#"
   xmlns:rdf="http://www.w3.org/1999/02/22-rdf-syntax-ns#"
   xmlns:svg="http://www.w3.org/2000/svg"
   xmlns="http://www.w3.org/2000/svg"
   xmlns:sodipodi="http://sodipodi.sourceforge.net/DTD/sodipodi-0.dtd"
   xmlns:inkscape="http://www.inkscape.org/namespaces/inkscape"
   width="120px"
   height="380px"
   version="1.1"
   xml:space="preserve"
   style="fill-rule:evenodd;clip-rule:evenodd;stroke-linecap:round;"
   id="svg178"
   sodipodi:docname="Vorg.svg"
   inkscape:version="0.92.3 (2405546, 2018-03-11)"><metadata
   id="metadata182"><rdf:RDF><cc:Work
       rdf:about=""><dc:format>image/svg+xml</dc:format><dc:type
         rdf:resource="http://purl.org/dc/dcmitype/StillImage" /><dc:title></dc:title></cc:Work></rdf:RDF></metadata><sodipodi:namedview
   pagecolor="#ffffff"
   bordercolor="#666666"
   borderopacity="1"
   objecttolerance="10"
   gridtolerance="10"
   guidetolerance="10"
   inkscape:pageopacity="0"
   inkscape:pageshadow="2"
   inkscape:window-width="1920"
   inkscape:window-height="1017"
   id="namedview180"
   showgrid="false"
   inkscape:zoom="1.7566021"
   inkscape:cx="-140.89458"
   inkscape:cy="181.70709"
   inkscape:window-x="1912"
   inkscape:window-y="-8"
   inkscape:window-maximized="1"
   inkscape:current-layer="svg178" />
  <defs
   id="defs7">
    <linearGradient
   id="_Linear1"
   x1="0"
   y1="0"
   x2="1"
   y2="0"
   gradientUnits="userSpaceOnUse"
   gradientTransform="matrix(119.812,-379.998,303.522,150,3.28145e-4,379.998)">
      <stop
   offset="0"
   style="stop-color:#d1e4fd;stop-opacity:1"
   id="stop2" />
      <stop
   offset="1"
   style="stop-color:#ffffff;stop-opacity:1"
   id="stop4" />
    </linearGradient>
  
    
    
    
    
    
    
    
    
    
    
    
    
    
    
    
    
    
    
    
    
    
    
    
    
    
    
    
    
    
    
    
    
    
    
    
    
    
    
    
    
    
    
    
    
    
    
    
    
    
    
    
    
    
    
    
    
    
    
    
    
    
    
    
    
    
    
    
    
    
    
    
    
    
    
  </defs>
  <rect
   style="fill:url(#_Linear1)"
   height="379.99799"
   width="119.812"
   y="0"
   x="0"
   id="rect23233" /><g
   id="g1119"
   style="fill:#00112b"><path
     d="m 48.551,18.305 h 2.457 l -4.212,9.256 h -1.937 l -4.212,-9.256 h 2.535 l 2.665,6.214 z"
     style="fill:#00112b;fill-rule:nonzero"
     id="path10"
     inkscape:connector-curvature="0" /><path
     d="m 55.675,27.678 c -0.945,0 -1.768,-0.193 -2.47,-0.578 -0.702,-0.386 -1.242,-0.939 -1.619,-1.658 -0.377,-0.719 -0.565,-1.56 -0.565,-2.522 0,-0.962 0.19,-1.798 0.572,-2.509 0.381,-0.711 0.92,-1.259 1.618,-1.644 0.698,-0.386 1.519,-0.579 2.464,-0.579 0.944,0 1.765,0.193 2.463,0.579 0.698,0.385 1.233,0.933 1.606,1.644 0.372,0.711 0.559,1.547 0.559,2.509 0,0.962 -0.187,1.803 -0.559,2.522 -0.373,0.719 -0.908,1.272 -1.606,1.658 -0.698,0.385 -1.519,0.578 -2.463,0.578 z m 0,-1.859 c 0.693,0 1.237,-0.247 1.631,-0.741 0.394,-0.494 0.592,-1.213 0.592,-2.158 0,-0.936 -0.198,-1.649 -0.592,-2.138 -0.394,-0.49 -0.938,-0.735 -1.631,-0.735 -0.694,0 -1.235,0.243 -1.625,0.728 -0.39,0.485 -0.585,1.2 -0.585,2.145 0,0.953 0.195,1.675 0.585,2.165 0.39,0.489 0.931,0.734 1.625,0.734 z"
     style="fill:#00112b;fill-rule:nonzero"
     id="path12"
     inkscape:connector-curvature="0" /><path
     d="M 69.78,27.561 H 67.193 L 65.997,24.48 c -0.139,-0.347 -0.464,-0.52 -0.975,-0.52 h -0.884 v 3.601 h -2.405 v -9.256 h 4.303 c 1.118,0 1.958,0.241 2.522,0.722 0.563,0.481 0.845,1.167 0.845,2.06 0,0.624 -0.167,1.164 -0.501,1.619 -0.334,0.455 -0.804,0.777 -1.41,0.968 0.26,0.052 0.494,0.173 0.702,0.364 0.208,0.191 0.372,0.446 0.494,0.767 z M 65.646,22.14 c 0.52,0 0.897,-0.08 1.131,-0.24 0.234,-0.161 0.351,-0.41 0.351,-0.748 0,-0.355 -0.115,-0.611 -0.345,-0.767 -0.23,-0.156 -0.609,-0.234 -1.137,-0.234 h -1.534 v 1.989 z"
     style="fill:#00112b;fill-rule:nonzero"
     id="path14"
     inkscape:connector-curvature="0" /><path
     d="m 79.166,22.335 v 4.641 c -0.494,0.225 -1.047,0.399 -1.658,0.52 -0.611,0.121 -1.237,0.182 -1.878,0.182 -1.006,0 -1.879,-0.191 -2.62,-0.572 -0.741,-0.381 -1.311,-0.929 -1.709,-1.644 -0.399,-0.715 -0.598,-1.563 -0.598,-2.542 0,-0.953 0.199,-1.787 0.598,-2.502 0.398,-0.715 0.962,-1.266 1.69,-1.651 0.728,-0.386 1.577,-0.579 2.548,-0.579 0.667,0 1.297,0.087 1.891,0.26 0.594,0.173 1.077,0.412 1.45,0.715 l -0.767,1.729 c -0.425,-0.277 -0.835,-0.479 -1.229,-0.604 -0.394,-0.126 -0.817,-0.189 -1.267,-0.189 -0.824,0 -1.437,0.232 -1.84,0.696 -0.403,0.463 -0.604,1.172 -0.604,2.125 0,0.988 0.21,1.72 0.63,2.197 0.42,0.477 1.068,0.715 1.944,0.715 0.407,0 0.814,-0.043 1.222,-0.13 v -1.716 h -1.612 v -1.651 z"
     style="fill:#00112b;fill-rule:nonzero"
     id="path16"
     inkscape:connector-curvature="0" /></g><g
   id="text7967-9-5"
   style="fill:#2c5aa0">
      <rect
   id="rect18"
   style="fill:#2c5aa0;fill-rule:nonzero"
   height="7.3509998"
   width="1.378"
   y="30.421"
   x="25.565001" />
      <path
   inkscape:connector-curvature="0"
   id="path20"
   style="fill:#2c5aa0;fill-rule:nonzero"
   d="m 30.812,37.888 c -0.798,0 -1.432,-0.241 -1.902,-0.724 -0.47,-0.482 -0.705,-1.132 -0.705,-1.948 0,-0.826 0.236,-1.477 0.709,-1.955 0.474,-0.478 1.117,-0.717 1.93,-0.717 0.816,0 1.461,0.239 1.935,0.717 0.473,0.478 0.71,1.126 0.71,1.946 0,0.838 -0.238,1.494 -0.713,1.969 -0.475,0.475 -1.13,0.712 -1.964,0.712 z m 0.023,-0.861 c 0.791,0 1.187,-0.607 1.187,-1.82 0,-0.556 -0.105,-0.995 -0.314,-1.318 -0.21,-0.323 -0.498,-0.484 -0.864,-0.484 -0.363,0 -0.649,0.161 -0.859,0.484 -0.209,0.323 -0.314,0.765 -0.314,1.327 0,0.555 0.104,0.996 0.312,1.322 0.208,0.326 0.492,0.489 0.852,0.489 z" />
      <path
   inkscape:connector-curvature="0"
   id="path22"
   style="fill:#2c5aa0;fill-rule:nonzero"
   d="m 35.658,37.772 -1.42,-5.112 h 1.28 l 1.006,3.58 1.071,-3.58 h 1.191 l 0.964,3.599 1.085,-3.599 h 0.959 l -1.518,5.112 h -1.322 l -0.931,-3.506 -1.043,3.506 z" />
      <path
   inkscape:connector-curvature="0"
   id="path24"
   style="fill:#2c5aa0;fill-rule:nonzero"
   d="M 46.124,39.611 V 32.66 h 1.378 v 0.964 c 0.353,-0.72 0.91,-1.08 1.671,-1.08 0.614,0 1.098,0.225 1.45,0.675 0.352,0.45 0.528,1.069 0.528,1.857 0,0.857 -0.198,1.54 -0.595,2.049 -0.398,0.509 -0.93,0.763 -1.597,0.763 -0.537,0 -1.023,-0.211 -1.457,-0.633 v 2.356 z m 1.378,-3.175 c 0.335,0.372 0.692,0.558 1.07,0.558 0.339,0 0.609,-0.163 0.81,-0.491 0.202,-0.327 0.303,-0.764 0.303,-1.31 0,-1.046 -0.337,-1.569 -1.01,-1.569 -0.407,0 -0.798,0.262 -1.173,0.787 z" />
      <path
   inkscape:connector-curvature="0"
   id="path26"
   style="fill:#2c5aa0;fill-rule:nonzero"
   d="m 54.946,37.222 c -0.46,0.444 -0.952,0.666 -1.476,0.666 -0.447,0 -0.81,-0.136 -1.089,-0.409 -0.28,-0.274 -0.419,-0.627 -0.419,-1.062 0,-0.565 0.225,-1 0.677,-1.306 0.452,-0.306 1.098,-0.458 1.939,-0.458 h 0.368 v -0.466 c 0,-0.531 -0.303,-0.796 -0.908,-0.796 -0.537,0 -1.08,0.152 -1.63,0.456 v -0.949 c 0.624,-0.236 1.242,-0.354 1.853,-0.354 1.338,0 2.007,0.532 2.007,1.597 v 2.262 c 0,0.4 0.129,0.601 0.386,0.601 0.047,0 0.107,-0.007 0.182,-0.019 l 0.032,0.773 c -0.291,0.087 -0.549,0.13 -0.772,0.13 -0.565,0 -0.928,-0.222 -1.09,-0.666 z m 0,-0.74 V 35.444 H 54.62 c -0.891,0 -1.336,0.279 -1.336,0.838 0,0.189 0.064,0.348 0.193,0.477 0.129,0.129 0.288,0.193 0.477,0.193 0.323,0 0.653,-0.156 0.992,-0.47 z" />
      <path
   inkscape:connector-curvature="0"
   id="path28"
   style="fill:#2c5aa0;fill-rule:nonzero"
   d="m 57.911,37.609 v -1.01 c 0.683,0.285 1.267,0.428 1.751,0.428 0.565,0 0.847,-0.192 0.847,-0.577 0,-0.249 -0.233,-0.466 -0.698,-0.652 l -0.466,-0.186 c -0.506,-0.205 -0.867,-0.426 -1.085,-0.661 -0.217,-0.236 -0.325,-0.528 -0.325,-0.876 0,-0.484 0.184,-0.86 0.554,-1.129 0.369,-0.268 0.886,-0.402 1.55,-0.402 0.416,0 0.911,0.06 1.485,0.181 v 0.969 c -0.553,-0.193 -1.01,-0.289 -1.373,-0.289 -0.571,0 -0.857,0.177 -0.857,0.531 0,0.232 0.211,0.43 0.633,0.591 l 0.4,0.154 c 0.599,0.226 1.016,0.456 1.25,0.689 0.235,0.232 0.352,0.532 0.352,0.898 0,0.481 -0.199,0.871 -0.598,1.171 -0.399,0.299 -0.918,0.449 -1.558,0.449 -0.614,0 -1.235,-0.093 -1.862,-0.279 z" />
      <path
   inkscape:connector-curvature="0"
   id="path30"
   style="fill:#2c5aa0;fill-rule:nonzero"
   d="m 63.302,37.609 v -1.01 c 0.683,0.285 1.267,0.428 1.751,0.428 0.565,0 0.847,-0.192 0.847,-0.577 0,-0.249 -0.233,-0.466 -0.698,-0.652 l -0.466,-0.186 c -0.506,-0.205 -0.867,-0.426 -1.084,-0.661 -0.218,-0.236 -0.326,-0.528 -0.326,-0.876 0,-0.484 0.184,-0.86 0.554,-1.129 0.369,-0.268 0.886,-0.402 1.55,-0.402 0.416,0 0.911,0.06 1.485,0.181 v 0.969 c -0.552,-0.193 -1.01,-0.289 -1.373,-0.289 -0.571,0 -0.857,0.177 -0.857,0.531 0,0.232 0.211,0.43 0.633,0.591 l 0.401,0.154 c 0.599,0.226 1.015,0.456 1.25,0.689 0.234,0.232 0.351,0.532 0.351,0.898 0,0.481 -0.199,0.871 -0.598,1.171 -0.399,0.299 -0.918,0.449 -1.557,0.449 -0.615,0 -1.236,-0.093 -1.863,-0.279 z" />
      <path
   inkscape:connector-curvature="0"
   id="path32"
   style="fill:#2c5aa0;fill-rule:nonzero"
   d="M 72.115,37.772 V 33.521 H 71.412 V 32.66 h 0.703 v -0.354 c 0,-0.642 0.153,-1.136 0.459,-1.483 0.306,-0.346 0.741,-0.519 1.306,-0.519 0.347,0 0.717,0.064 1.108,0.191 v 0.941 c -0.385,-0.171 -0.671,-0.256 -0.857,-0.256 -0.425,0 -0.638,0.388 -0.638,1.163 v 0.317 h 3.217 v 5.112 h -1.378 v -4.251 h -1.839 v 4.251 z m 3.445,-5.973 v -1.15 h 1.15 v 1.15 z m -0.773,0.861" />
      <rect
   id="rect34"
   style="fill:#2c5aa0;fill-rule:nonzero"
   height="7.3509998"
   width="1.378"
   y="30.421"
   x="78.432999" />
      <path
   inkscape:connector-curvature="0"
   id="path36"
   style="fill:#2c5aa0;fill-rule:nonzero"
   d="m 84.168,37.744 c -0.329,0.096 -0.588,0.144 -0.777,0.144 -1.195,0 -1.793,-0.558 -1.793,-1.676 V 33.521 H 81.026 V 32.66 h 0.572 v -0.861 l 1.379,-0.158 v 1.019 h 1.094 v 0.861 h -1.094 v 2.51 c 0,0.627 0.256,0.94 0.768,0.94 0.118,0 0.259,-0.022 0.423,-0.065 z" />
      <path
   inkscape:connector-curvature="0"
   id="path38"
   style="fill:#2c5aa0;fill-rule:nonzero"
   d="m 89.559,37.6 c -0.654,0.192 -1.275,0.288 -1.862,0.288 -0.853,0 -1.527,-0.242 -2.02,-0.726 -0.494,-0.484 -0.741,-1.145 -0.741,-1.983 0,-0.792 0.226,-1.429 0.678,-1.911 0.451,-0.483 1.048,-0.724 1.79,-0.724 0.748,0 1.294,0.236 1.639,0.707 0.344,0.472 0.516,1.219 0.516,2.24 h -3.17 c 0.093,0.974 0.628,1.461 1.606,1.461 0.463,0 0.984,-0.107 1.564,-0.321 z M 86.37,34.713 h 1.835 c 0,-0.872 -0.281,-1.308 -0.843,-1.308 -0.571,0 -0.902,0.436 -0.992,1.308 z" />
      <path
   inkscape:connector-curvature="0"
   id="path40"
   style="fill:#2c5aa0;fill-rule:nonzero"
   d="M 90.984,37.772 V 32.66 h 1.378 v 0.964 c 0.357,-0.72 0.9,-1.08 1.629,-1.08 0.087,0 0.173,0.009 0.256,0.028 v 1.229 c -0.195,-0.072 -0.377,-0.107 -0.544,-0.107 -0.55,0 -0.996,0.277 -1.341,0.833 v 3.245 z" />
    </g><path
   inkscape:connector-curvature="0"
   style="fill:none;stroke:#2c5aa0;stroke-width:1.20000005px"
   d="m 33.74,156.417 c 3.252,-5.633 1.978,-12.858 -3.008,-17.041 -4.982,-4.183 -12.321,-4.183 -17.303,0 -4.986,4.183 -6.26,11.408 -3.009,17.041"
   id="path7818" /><circle
   id="circle44"
   style="fill:#2c5aa0;stroke:#2c5aa0;stroke-width:1.20000005px;stroke-linejoin:round;stroke-miterlimit:1.5"
   r="2.957"
   cy="161.96201"
   cx="32.564999" /><circle
   id="circle46"
   style="fill:none;stroke:#2c5aa0;stroke-width:1.20000005px;stroke-linejoin:round;stroke-miterlimit:1.5"
   r="2.957"
   cy="161.96201"
   cx="11.534" /><path
   inkscape:connector-curvature="0"
   style="fill:none;stroke:#2c5aa0;stroke-width:1.20000005px"
   d="m 108.853,156.417 c 3.251,-5.633 1.977,-12.858 -3.009,-17.041 -4.982,-4.183 -12.321,-4.183 -17.303,0 -4.986,4.183 -6.26,11.408 -3.009,17.041"
   serif:id="path7818"
   id="path78181" /><circle
   id="circle49"
   style="fill:#2c5aa0;stroke:#2c5aa0;stroke-width:1.20000005px;stroke-linejoin:round;stroke-miterlimit:1.5"
   r="2.957"
   cy="161.96201"
   cx="107.677" /><circle
   id="circle51"
   style="fill:none;stroke:#2c5aa0;stroke-width:1.20000005px;stroke-linejoin:round;stroke-miterlimit:1.5"
   r="2.957"
   cy="161.96201"
   cx="86.646004" /><g
   id="g59">
      <g
   id="g57">
        <path
   inkscape:connector-curvature="0"
   style="fill:#cccccc;fill-rule:nonzero;stroke:#2c5aa0;stroke-width:1.20000005px"
   d="m 33.298,227.943 0.029,5.238"
   id="path7809" />
        <path
   inkscape:connector-curvature="0"
   style="fill:#cccccc;fill-rule:nonzero;stroke:#2c5aa0;stroke-width:1.20000005px"
   d="m 35.932,230.524 -5.239,0.024"
   id="path7812" />
        <path
   inkscape:connector-curvature="0"
   style="fill:#cccccc;fill-rule:nonzero;stroke:#2c5aa0;stroke-width:1.20000005px"
   d="m 14.171,230.377 -5.243,0.024"
   id="path7815" />
        <path
   inkscape:connector-curvature="0"
   style="fill:none;stroke:#2c5aa0;stroke-width:1.20000005px"
   d="m 33.74,226.522 c 3.252,-5.633 1.978,-12.858 -3.008,-17.041 -4.982,-4.183 -12.321,-4.183 -17.303,0 -4.986,4.183 -6.26,11.408 -3.009,17.041 l 11.66,-6.731 z"
   serif:id="path7818"
   id="path78182" />
      </g>
    </g><g
   id="g67">
      <g
   id="g65">
        <path
   inkscape:connector-curvature="0"
   style="fill:#cccccc;fill-rule:nonzero;stroke:#2c5aa0;stroke-width:1.20000005px"
   d="m 108.41,227.943 0.029,5.238"
   serif:id="path7809"
   id="path78091" />
        <path
   inkscape:connector-curvature="0"
   style="fill:#2c5aa0;fill-rule:nonzero;stroke:#2c5aa0;stroke-width:1.20000005px"
   d="m 111.044,230.524 -5.238,0.024"
   serif:id="path7812"
   id="path78121" />
        <path
   inkscape:connector-curvature="0"
   style="fill:#cccccc;fill-rule:nonzero;stroke:#2c5aa0;stroke-width:1.20000005px"
   d="m 89.283,230.377 -5.243,0.024"
   serif:id="path7815"
   id="path78151" />
        <path
   inkscape:connector-curvature="0"
   style="fill:none;stroke:#2c5aa0;stroke-width:1.20000005px"
   d="m 108.853,226.522 c 3.251,-5.633 1.977,-12.858 -3.009,-17.041 -4.982,-4.183 -12.321,-4.183 -17.303,0 -4.986,4.183 -6.26,11.408 -3.009,17.041 l 11.66,-6.731 z"
   serif:id="path7818"
   id="path78183" />
      </g>
    </g><path
   inkscape:connector-curvature="0"
   id="path69"
   style="fill:#2c5aa0;fill-rule:nonzero"
   d="m 42.795,129.031 c -0.772,0 -1.445,-0.158 -2.019,-0.475 -0.573,-0.316 -1.015,-0.763 -1.324,-1.34 -0.31,-0.577 -0.465,-1.245 -0.465,-2.003 0,-0.751 0.155,-1.414 0.465,-1.987 0.309,-0.574 0.751,-1.019 1.324,-1.336 0.574,-0.316 1.247,-0.474 2.019,-0.474 0.487,0 0.958,0.073 1.414,0.219 0.455,0.146 0.822,0.344 1.1,0.594 l -0.594,1.388 c -0.605,-0.438 -1.231,-0.657 -1.878,-0.657 -0.598,0 -1.057,0.189 -1.377,0.568 -0.32,0.379 -0.48,0.941 -0.48,1.685 0,0.751 0.16,1.318 0.48,1.7 0.32,0.383 0.779,0.574 1.377,0.574 0.647,0 1.273,-0.219 1.878,-0.657 l 0.594,1.387 c -0.278,0.251 -0.645,0.449 -1.1,0.595 -0.456,0.146 -0.927,0.219 -1.414,0.219 z" /><path
   inkscape:connector-curvature="0"
   id="path71"
   style="fill:#2c5aa0;fill-rule:nonzero"
   d="m 49.597,129.031 c -1.085,0 -1.906,-0.273 -2.462,-0.819 -0.556,-0.546 -0.835,-1.347 -0.835,-2.404 v -4.299 h 1.909 v 4.372 c 0,0.535 0.12,0.945 0.36,1.231 0.24,0.285 0.583,0.427 1.028,0.427 0.438,0 0.775,-0.144 1.012,-0.433 0.236,-0.288 0.355,-0.697 0.355,-1.225 v -4.372 h 1.93 v 4.299 c 0,1.043 -0.284,1.841 -0.851,2.394 -0.567,0.553 -1.382,0.829 -2.446,0.829 z" /><path
   inkscape:connector-curvature="0"
   id="path73"
   style="fill:#2c5aa0;fill-rule:nonzero"
   d="m 55.846,128.937 v -5.842 h -2.212 v -1.586 h 6.406 v 1.586 h -2.212 v 5.842 z" /><path
   inkscape:connector-curvature="0"
   id="path75"
   style="fill:#2c5aa0;fill-rule:nonzero"
   d="m 63.962,129.031 c -0.758,0 -1.419,-0.155 -1.982,-0.464 -0.563,-0.31 -0.996,-0.753 -1.299,-1.33 -0.302,-0.578 -0.454,-1.252 -0.454,-2.024 0,-0.772 0.153,-1.443 0.459,-2.014 0.306,-0.57 0.739,-1.01 1.299,-1.319 0.56,-0.31 1.219,-0.464 1.977,-0.464 0.758,0 1.417,0.154 1.977,0.464 0.56,0.309 0.989,0.749 1.288,1.319 0.299,0.571 0.449,1.242 0.449,2.014 0,0.772 -0.15,1.446 -0.449,2.024 -0.299,0.577 -0.728,1.02 -1.288,1.33 -0.56,0.309 -1.219,0.464 -1.977,0.464 z m 0,-1.492 c 0.557,0 0.993,-0.198 1.309,-0.594 0.317,-0.397 0.475,-0.974 0.475,-1.732 0,-0.751 -0.158,-1.323 -0.475,-1.716 -0.316,-0.393 -0.752,-0.59 -1.309,-0.59 -0.556,0 -0.991,0.195 -1.304,0.585 -0.313,0.389 -0.469,0.963 -0.469,1.721 0,0.765 0.156,1.344 0.469,1.737 0.313,0.393 0.748,0.589 1.304,0.589 z" /><path
   inkscape:connector-curvature="0"
   id="path77"
   style="fill:#2c5aa0;fill-rule:nonzero"
   d="m 68.824,128.937 v -7.428 h 5.184 v 1.534 h -3.254 v 1.356 H 73.8 v 1.523 h -3.046 v 3.015 z" /><path
   inkscape:connector-curvature="0"
   id="path79"
   style="fill:#2c5aa0;fill-rule:nonzero"
   d="m 74.916,128.937 v -7.428 h 5.185 v 1.534 h -3.255 v 1.356 h 3.046 v 1.523 h -3.046 v 3.015 z" /><path
   inkscape:connector-curvature="0"
   id="path81"
   style="fill:#2c5aa0;fill-rule:nonzero"
   d="m 94.45,172.795 h -1.661 l -0.768,-1.978 c -0.089,-0.222 -0.297,-0.333 -0.626,-0.333 h -0.567 v 2.311 h -1.544 v -5.942 h 2.762 c 0.718,0 1.258,0.155 1.619,0.463 0.362,0.309 0.543,0.75 0.543,1.323 0,0.401 -0.107,0.747 -0.321,1.039 -0.215,0.292 -0.516,0.5 -0.906,0.622 0.167,0.033 0.317,0.111 0.451,0.234 0.133,0.122 0.239,0.286 0.317,0.492 z m -2.654,-3.48 c 0.334,0 0.576,-0.051 0.726,-0.154 0.15,-0.103 0.225,-0.263 0.225,-0.48 0,-0.228 -0.073,-0.392 -0.221,-0.493 -0.147,-0.1 -0.391,-0.15 -0.73,-0.15 h -0.985 v 1.277 z" /><path
   inkscape:connector-curvature="0"
   id="path83"
   style="fill:#2c5aa0;fill-rule:nonzero"
   d="m 95.243,172.795 v -5.942 h 4.239 v 1.202 H 96.77 v 1.118 h 2.537 v 1.202 H 96.77 v 1.219 h 2.712 v 1.201 z" /><path
   inkscape:connector-curvature="0"
   id="path85"
   style="fill:#2c5aa0;fill-rule:nonzero"
   d="m 102.353,172.87 c -0.445,0 -0.884,-0.058 -1.318,-0.175 -0.434,-0.117 -0.788,-0.275 -1.06,-0.476 l 0.492,-1.11 c 0.29,0.184 0.597,0.325 0.922,0.422 0.326,0.097 0.653,0.146 0.981,0.146 0.334,0 0.59,-0.046 0.768,-0.138 0.178,-0.091 0.267,-0.221 0.267,-0.388 0,-0.15 -0.081,-0.274 -0.242,-0.371 -0.161,-0.098 -0.465,-0.194 -0.91,-0.288 -0.562,-0.111 -0.999,-0.249 -1.31,-0.413 -0.312,-0.164 -0.53,-0.358 -0.655,-0.58 -0.125,-0.223 -0.188,-0.493 -0.188,-0.81 0,-0.361 0.103,-0.688 0.309,-0.98 0.206,-0.293 0.495,-0.521 0.868,-0.685 0.373,-0.164 0.798,-0.246 1.277,-0.246 0.428,0 0.844,0.06 1.247,0.179 0.404,0.12 0.719,0.277 0.948,0.472 l -0.484,1.11 c -0.262,-0.184 -0.537,-0.324 -0.827,-0.421 -0.289,-0.098 -0.578,-0.147 -0.868,-0.147 -0.283,0 -0.512,0.055 -0.684,0.163 -0.172,0.109 -0.259,0.255 -0.259,0.438 0,0.101 0.031,0.184 0.092,0.251 0.061,0.067 0.175,0.132 0.342,0.196 0.167,0.064 0.418,0.132 0.751,0.204 0.54,0.117 0.964,0.258 1.273,0.422 0.309,0.164 0.527,0.356 0.655,0.576 0.128,0.219 0.192,0.482 0.192,0.788 0,0.579 -0.225,1.034 -0.676,1.365 -0.45,0.331 -1.085,0.496 -1.903,0.496 z" /><path
   inkscape:connector-curvature="0"
   id="path87"
   style="fill:#2c5aa0;fill-rule:nonzero"
   d="m 9.098,166.678 h 2.429 c 0.656,0 1.222,0.118 1.698,0.355 0.476,0.236 0.84,0.577 1.093,1.022 0.253,0.445 0.38,0.974 0.38,1.586 0,0.617 -0.125,1.15 -0.376,1.598 -0.25,0.448 -0.613,0.79 -1.089,1.026 -0.475,0.237 -1.044,0.355 -1.706,0.355 H 9.098 Z m 2.32,4.69 c 0.579,0 1.011,-0.143 1.298,-0.43 0.286,-0.286 0.43,-0.719 0.43,-1.297 0,-1.141 -0.576,-1.711 -1.728,-1.711 h -0.751 v 3.438 z" /><path
   inkscape:connector-curvature="0"
   id="path89"
   style="fill:#2c5aa0;fill-rule:nonzero"
   d="m 20.782,172.62 h -1.661 l -0.768,-1.978 c -0.089,-0.222 -0.297,-0.334 -0.626,-0.334 H 17.16 v 2.312 h -1.544 v -5.942 h 2.762 c 0.718,0 1.258,0.154 1.62,0.463 0.361,0.309 0.542,0.75 0.542,1.323 0,0.4 -0.107,0.747 -0.321,1.039 -0.214,0.292 -0.516,0.499 -0.906,0.622 0.167,0.033 0.317,0.111 0.451,0.233 0.133,0.123 0.239,0.287 0.317,0.493 z m -2.654,-3.48 c 0.334,0 0.576,-0.052 0.726,-0.155 0.15,-0.102 0.226,-0.262 0.226,-0.479 0,-0.229 -0.074,-0.393 -0.222,-0.493 -0.147,-0.1 -0.391,-0.15 -0.73,-0.15 h -0.985 v 1.277 z" /><rect
   id="rect91"
   style="fill:#2c5aa0;fill-rule:nonzero"
   height="5.9419999"
   width="1.569"
   y="166.67799"
   x="21.575001" /><path
   inkscape:connector-curvature="0"
   id="path93"
   style="fill:#2c5aa0;fill-rule:nonzero"
   d="m 28.56,166.678 h 1.578 l -2.704,5.942 H 26.19 l -2.704,-5.942 h 1.628 l 1.71,3.989 z" /><path
   inkscape:connector-curvature="0"
   id="path95"
   style="fill:#2c5aa0;fill-rule:nonzero"
   d="m 30.48,172.62 v -5.942 h 4.24 v 1.202 h -2.713 v 1.118 h 2.537 v 1.202 h -2.537 v 1.218 h 2.713 v 1.202 z" /><path
   inkscape:connector-curvature="0"
   id="path97"
   style="fill:#2c5aa0;fill-rule:nonzero"
   d="m 16.755,241.548 c -0.617,0 -1.156,-0.127 -1.615,-0.38 -0.459,-0.253 -0.812,-0.61 -1.06,-1.072 -0.247,-0.462 -0.371,-0.996 -0.371,-1.603 0,-0.6 0.124,-1.13 0.371,-1.589 0.248,-0.459 0.601,-0.816 1.06,-1.069 0.459,-0.253 0.998,-0.379 1.615,-0.379 0.39,0 0.767,0.058 1.131,0.175 0.365,0.117 0.658,0.275 0.881,0.476 l -0.476,1.109 c -0.484,-0.35 -0.985,-0.525 -1.502,-0.525 -0.479,0 -0.846,0.151 -1.102,0.455 -0.256,0.303 -0.384,0.752 -0.384,1.347 0,0.601 0.128,1.055 0.384,1.361 0.256,0.306 0.623,0.459 1.102,0.459 0.517,0 1.018,-0.175 1.502,-0.526 l 0.476,1.11 c -0.223,0.2 -0.516,0.359 -0.881,0.476 -0.364,0.117 -0.741,0.175 -1.131,0.175 z" /><path
   inkscape:connector-curvature="0"
   id="path99"
   style="fill:#2c5aa0;fill-rule:nonzero"
   d="m 23.857,235.531 h 1.578 l -2.704,5.942 h -1.244 l -2.704,-5.942 h 1.628 l 1.711,3.989 z" /><path
   inkscape:connector-curvature="0"
   id="path101"
   style="fill:#2c5aa0;fill-rule:nonzero"
   d="m 28.848,240.229 h 1.286 v 1.244 h -4.123 v -1.244 h 1.277 v -2.996 l -1.194,0.685 v -1.344 l 1.836,-1.043 h 0.918 z" /><path
   inkscape:connector-curvature="0"
   id="path103"
   style="fill:#2c5aa0;fill-rule:nonzero"
   d="m 16.755,290.621 c -0.617,0 -1.156,-0.126 -1.615,-0.38 -0.459,-0.253 -0.812,-0.61 -1.06,-1.072 -0.247,-0.462 -0.371,-0.996 -0.371,-1.602 0,-0.601 0.124,-1.131 0.371,-1.59 0.248,-0.459 0.601,-0.815 1.06,-1.068 0.459,-0.254 0.998,-0.38 1.615,-0.38 0.39,0 0.767,0.058 1.131,0.175 0.365,0.117 0.658,0.275 0.881,0.476 l -0.476,1.11 c -0.484,-0.351 -0.985,-0.526 -1.502,-0.526 -0.479,0 -0.846,0.152 -1.102,0.455 -0.256,0.303 -0.384,0.752 -0.384,1.348 0,0.601 0.128,1.054 0.384,1.36 0.256,0.306 0.623,0.459 1.102,0.459 0.517,0 1.018,-0.175 1.502,-0.526 l 0.476,1.11 c -0.223,0.201 -0.516,0.359 -0.881,0.476 -0.364,0.117 -0.741,0.175 -1.131,0.175 z" /><path
   inkscape:connector-curvature="0"
   id="path105"
   style="fill:#2c5aa0;fill-rule:nonzero"
   d="m 23.857,284.604 h 1.578 l -2.704,5.942 h -1.244 l -2.704,-5.942 h 1.628 l 1.711,3.989 z" /><path
   inkscape:connector-curvature="0"
   id="path107"
   style="fill:#2c5aa0;fill-rule:nonzero"
   d="m 28.848,289.303 h 1.286 v 1.243 h -4.123 v -1.243 h 1.277 v -2.997 l -1.194,0.685 v -1.344 l 1.836,-1.043 h 0.918 z" /><rect
   id="rect109"
   style="fill:#2c5aa0;fill-rule:nonzero"
   height="5.9419999"
   width="1.569"
   y="338.39499"
   x="18.035999" /><path
   inkscape:connector-curvature="0"
   id="path111"
   style="fill:#2c5aa0;fill-rule:nonzero"
   d="m 24.513,338.395 h 1.477 v 5.942 h -1.16 l -2.696,-3.371 v 3.371 h -1.46 v -5.942 h 1.143 l 2.696,3.355 z" /><path
   inkscape:connector-curvature="0"
   id="path119"
   style="fill:#2c5aa0;fill-rule:nonzero"
   d="m 91.997,241.548 c -0.617,0 -1.156,-0.127 -1.615,-0.38 -0.459,-0.253 -0.812,-0.61 -1.06,-1.072 -0.247,-0.462 -0.371,-0.996 -0.371,-1.603 0,-0.6 0.124,-1.13 0.371,-1.589 0.248,-0.459 0.601,-0.816 1.06,-1.069 0.459,-0.253 0.998,-0.379 1.615,-0.379 0.39,0 0.767,0.058 1.131,0.175 0.365,0.117 0.658,0.275 0.881,0.476 l -0.476,1.109 c -0.484,-0.35 -0.985,-0.525 -1.502,-0.525 -0.479,0 -0.846,0.151 -1.102,0.455 -0.256,0.303 -0.384,0.752 -0.384,1.347 0,0.601 0.128,1.055 0.384,1.361 0.256,0.306 0.623,0.459 1.102,0.459 0.517,0 1.018,-0.175 1.502,-0.526 l 0.476,1.11 c -0.223,0.2 -0.516,0.359 -0.881,0.476 -0.364,0.117 -0.741,0.175 -1.131,0.175 z" /><path
   inkscape:connector-curvature="0"
   id="path121"
   style="fill:#2c5aa0;fill-rule:nonzero"
   d="m 99.1,235.531 h 1.577 l -2.704,5.942 h -1.244 l -2.704,-5.942 h 1.628 l 1.711,3.989 z" /><path
   inkscape:connector-curvature="0"
   id="path123"
   style="fill:#2c5aa0;fill-rule:nonzero"
   d="m 105.15,240.229 v 1.244 h -4.189 v -1.152 l 1.936,-2.02 c 0.362,-0.378 0.542,-0.731 0.542,-1.059 0,-0.384 -0.228,-0.576 -0.684,-0.576 -0.234,0 -0.48,0.046 -0.739,0.137 -0.258,0.092 -0.518,0.224 -0.78,0.397 l -0.492,-1.11 c 0.239,-0.195 0.549,-0.349 0.93,-0.463 0.381,-0.114 0.769,-0.171 1.164,-0.171 0.429,0 0.803,0.068 1.123,0.204 0.32,0.136 0.568,0.331 0.743,0.584 0.175,0.253 0.263,0.55 0.263,0.889 0,0.345 -0.069,0.658 -0.205,0.939 -0.136,0.281 -0.368,0.597 -0.697,0.947 l -1.185,1.21 z" /><path
   inkscape:connector-curvature="0"
   id="path125"
   style="fill:#2c5aa0;fill-rule:nonzero"
   d="m 91.997,290.371 c -0.617,0 -1.156,-0.127 -1.615,-0.38 -0.459,-0.253 -0.812,-0.611 -1.06,-1.072 -0.247,-0.462 -0.371,-0.996 -0.371,-1.603 0,-0.601 0.124,-1.131 0.371,-1.59 0.248,-0.459 0.601,-0.815 1.06,-1.068 0.459,-0.253 0.998,-0.38 1.615,-0.38 0.39,0 0.767,0.059 1.131,0.176 0.365,0.117 0.658,0.275 0.881,0.475 l -0.476,1.11 c -0.484,-0.35 -0.985,-0.525 -1.502,-0.525 -0.479,0 -0.846,0.151 -1.102,0.454 -0.256,0.304 -0.384,0.753 -0.384,1.348 0,0.601 0.128,1.055 0.384,1.361 0.256,0.306 0.623,0.459 1.102,0.459 0.517,0 1.018,-0.176 1.502,-0.526 l 0.476,1.11 c -0.223,0.2 -0.516,0.359 -0.881,0.476 -0.364,0.116 -0.741,0.175 -1.131,0.175 z" /><path
   inkscape:connector-curvature="0"
   id="path127"
   style="fill:#2c5aa0;fill-rule:nonzero"
   d="m 99.1,284.354 h 1.577 l -2.704,5.942 h -1.244 l -2.704,-5.942 h 1.628 l 1.711,3.989 z" /><path
   inkscape:connector-curvature="0"
   id="path129"
   style="fill:#2c5aa0;fill-rule:nonzero"
   d="m 105.15,289.052 v 1.244 h -4.189 v -1.152 l 1.936,-2.02 c 0.362,-0.378 0.542,-0.731 0.542,-1.06 0,-0.384 -0.228,-0.575 -0.684,-0.575 -0.234,0 -0.48,0.045 -0.739,0.137 -0.258,0.092 -0.518,0.224 -0.78,0.397 l -0.492,-1.11 c 0.239,-0.195 0.549,-0.349 0.93,-0.464 0.381,-0.114 0.769,-0.171 1.164,-0.171 0.429,0 0.803,0.069 1.123,0.205 0.32,0.136 0.568,0.331 0.743,0.584 0.175,0.253 0.263,0.55 0.263,0.889 0,0.345 -0.069,0.658 -0.205,0.939 -0.136,0.281 -0.368,0.597 -0.697,0.947 l -1.185,1.21 z" /><path
   inkscape:connector-curvature="0"
   id="path131"
   style="fill:#3486f7;stroke:#3063b0;stroke-width:1.20000005px;stroke-linejoin:round;stroke-miterlimit:1.5"
   d="m 115.422,315.494 c 0,-5.034 -4.087,-9.122 -9.122,-9.122 H 88.056 c -5.034,0 -9.122,4.088 -9.122,9.122 v 23.115 c 0,5.035 4.088,9.122 9.122,9.122 H 106.3 c 5.035,0 9.122,-4.087 9.122,-9.122 z" /><g
   id="g1101"><path
     d="m 91.112,344.237 c -0.606,0 -1.135,-0.124 -1.586,-0.371 -0.45,-0.248 -0.797,-0.603 -1.039,-1.064 -0.242,-0.462 -0.363,-1.002 -0.363,-1.619 0,-0.618 0.123,-1.155 0.367,-1.611 0.245,-0.456 0.592,-0.808 1.039,-1.056 0.448,-0.248 0.976,-0.371 1.582,-0.371 0.606,0 1.134,0.123 1.582,0.371 0.447,0.248 0.791,0.6 1.03,1.056 0.24,0.456 0.359,0.993 0.359,1.611 0,0.617 -0.119,1.157 -0.359,1.619 -0.239,0.461 -0.583,0.816 -1.03,1.064 -0.448,0.247 -0.976,0.371 -1.582,0.371 z m 0,-1.193 c 0.445,0 0.794,-0.159 1.047,-0.476 0.254,-0.317 0.38,-0.779 0.38,-1.385 0,-0.601 -0.126,-1.059 -0.38,-1.373 -0.253,-0.315 -0.602,-0.472 -1.047,-0.472 -0.445,0 -0.793,0.156 -1.043,0.468 -0.251,0.311 -0.376,0.77 -0.376,1.377 0,0.612 0.125,1.075 0.376,1.389 0.25,0.315 0.598,0.472 1.043,0.472 z"
     style="fill:#ffffff;fill-rule:nonzero"
     id="path113"
     inkscape:connector-curvature="0" /><path
     d="m 97.613,344.237 c -0.868,0 -1.524,-0.218 -1.969,-0.655 -0.445,-0.437 -0.668,-1.078 -0.668,-1.924 v -3.438 h 1.527 v 3.497 c 0,0.428 0.096,0.756 0.288,0.985 0.192,0.228 0.466,0.342 0.822,0.342 0.351,0 0.621,-0.116 0.81,-0.347 0.189,-0.231 0.284,-0.557 0.284,-0.98 v -3.497 h 1.544 v 3.438 c 0,0.835 -0.227,1.473 -0.681,1.916 -0.453,0.442 -1.105,0.663 -1.957,0.663 z"
     style="fill:#ffffff;fill-rule:nonzero"
     id="path115"
     inkscape:connector-curvature="0" /><path
     d="m 102.613,344.162 v -4.674 h -1.77 v -1.268 h 5.125 v 1.268 h -1.77 v 4.674 z"
     style="fill:#ffffff;fill-rule:nonzero"
     id="path117"
     inkscape:connector-curvature="0" /></g><path
   inkscape:connector-curvature="0"
   style="fill:none;stroke:#00112b;stroke-width:1px;stroke-linecap:butt;stroke-linejoin:miter;stroke-miterlimit:10"
   d="m 72.702,331.119 c 0,-7.259 -5.885,-13.144 -13.145,-13.144 -7.259,0 -13.144,5.885 -13.144,13.144 0,7.26 5.885,13.145 13.144,13.145 7.26,0 13.145,-5.885 13.145,-13.145 z"
   id="path3539" /><path
   inkscape:connector-curvature="0"
   style="fill:#ffffff;fill-rule:nonzero;stroke:#000000;stroke-width:0.60000002px;stroke-linecap:butt;stroke-linejoin:round;stroke-miterlimit:1.41420996"
   d="m 53.814,337.221 1.34,2.034 1.348,-0.124 0.89,-1.433 -1.712,-3.853 -3.568,-3.678 0.74,4.993 z"
   id="polygon3543" /><path
   inkscape:connector-curvature="0"
   style="fill:#ffffff;fill-rule:nonzero;stroke:#000000;stroke-width:0.60000002px;stroke-linecap:butt;stroke-linejoin:round;stroke-miterlimit:1.41420996"
   d="m 65.191,337.233 -1.341,2.034 -1.347,-0.124 -0.891,-1.434 1.712,-3.852 3.568,-3.678 -0.74,4.993 z"
   id="polygon3545" /><path
   inkscape:connector-curvature="0"
   style="fill:#ffffff;fill-rule:nonzero;stroke:#000000;stroke-width:0.60000002px;stroke-linecap:butt;stroke-linejoin:round;stroke-miterlimit:1.41420996"
   d="m 59.56,320.302 v 21.65 l -2.173,-4.268 -1.707,-3.839 -1.647,-0.936 -3.302,-4.702 -0.093,-1.248 1.849,-3.328 2.912,-2.265 z"
   id="polygon3549" /><path
   inkscape:connector-curvature="0"
   style="fill:#ffffff;fill-rule:nonzero;stroke:#000000;stroke-width:0.60000002px;stroke-linecap:butt;stroke-linejoin:round;stroke-miterlimit:1.41420996"
   d="m 59.555,320.31 v 21.65 l 2.173,-4.268 1.707,-3.839 1.647,-0.936 3.302,-4.702 0.093,-1.248 -1.849,-3.328 -2.913,-2.266 z"
   id="polygon3551" /><path
   inkscape:connector-curvature="0"
   style="fill:#ffffff;fill-rule:nonzero;stroke:#000000;stroke-width:0.60000002px;stroke-linecap:butt;stroke-linejoin:round;stroke-miterlimit:1.41420996"
   d="m 56.784,330.829 2.774,-2.712 v 1.98 l -2.774,2.766 v -2.034"
   id="polyline3553" /><path
   inkscape:connector-curvature="0"
   style="fill:#ffffff;fill-rule:nonzero;stroke:#000000;stroke-width:0.60000002px;stroke-linecap:butt;stroke-linejoin:round;stroke-miterlimit:1.41420996"
   d="m 59.56,330.095 -2.774,2.766 0.606,4.837 2.168,4.254 z"
   id="polygon3555" /><path
   inkscape:connector-curvature="0"
   style="fill:#ffffff;fill-rule:nonzero;stroke:#000000;stroke-width:0.60000002px;stroke-linecap:butt;stroke-linejoin:round;stroke-miterlimit:1.41420996"
   d="m 57.392,337.698 2.168,-1.023 v 5.277 z"
   id="polygon3557" /><path
   inkscape:connector-curvature="0"
   style="fill-rule:nonzero;stroke:#000000;stroke-width:0.60000002px;stroke-linecap:butt;stroke-linejoin:round;stroke-miterlimit:1.41420996"
   d="m 52.395,327.868 1.248,2.936 3.143,2.057 v -2.034 l -2.011,-2.543 -2.378,-1.916 z"
   id="polygon3559" /><path
   inkscape:connector-curvature="0"
   style="fill:#ffffff;fill-rule:nonzero;stroke:#000000;stroke-width:0.60000002px;stroke-linecap:butt;stroke-linejoin:round;stroke-miterlimit:1.41420996"
   d="m 62.332,330.83 -2.773,-2.712 v 1.98 l 2.773,2.766 v -2.034"
   id="polyline3561" /><path
   inkscape:connector-curvature="0"
   style="fill:#ffffff;fill-rule:nonzero;stroke:#000000;stroke-width:0.60000002px;stroke-linecap:butt;stroke-linejoin:round;stroke-miterlimit:1.41420996"
   d="m 59.555,330.095 2.774,2.766 -0.606,4.837 -2.168,4.254 z"
   id="polygon3563" /><path
   inkscape:connector-curvature="0"
   style="fill:#ffffff;fill-rule:nonzero;stroke:#000000;stroke-width:0.60000002px;stroke-linecap:butt;stroke-linejoin:round;stroke-miterlimit:1.41420996"
   d="m 61.723,337.698 -2.167,-1.023 -10e-4,5.277 z"
   id="polygon3565" /><path
   inkscape:connector-curvature="0"
   style="fill-rule:nonzero;stroke:#000000;stroke-width:0.60000002px;stroke-linecap:butt;stroke-linejoin:round;stroke-miterlimit:1.41420996"
   d="m 66.72,327.868 -1.248,2.936 -3.143,2.057 v -2.034 l 2.011,-2.543 2.378,-1.916 z"
   id="polygon3567" /><path
   inkscape:connector-curvature="0"
   style="fill:#ffffff;fill-rule:nonzero;stroke:#000000;stroke-width:0.60000002px;stroke-linecap:butt;stroke-linejoin:round;stroke-miterlimit:1.41420996"
   d="m 55.426,321.332 4.131,6.786 -0.009,-7.84"
   id="polyline3569" /><path
   inkscape:connector-curvature="0"
   style="fill:#ffffff;fill-rule:nonzero;stroke:#000000;stroke-width:0.60000002px;stroke-linecap:butt;stroke-linejoin:round;stroke-miterlimit:1.41420996"
   d="m 63.689,321.332 -4.131,6.786 0.009,-7.839"
   id="polyline3571" /><path
   inkscape:connector-curvature="0"
   style="fill:#ffffff;fill-rule:nonzero;stroke:#000000;stroke-width:0.60000002px;stroke-linecap:butt;stroke-linejoin:round;stroke-miterlimit:1.41420996"
   d="m 56.788,332.863 0.604,4.839 -1.711,-3.857 z"
   id="polygon3573" /><path
   inkscape:connector-curvature="0"
   style="fill:#ffffff;fill-rule:nonzero;stroke:#000000;stroke-width:0.60000002px;stroke-linecap:butt;stroke-linejoin:round;stroke-miterlimit:1.41420996"
   d="m 62.333,332.887 -0.604,4.839 1.711,-3.857 z"
   id="polygon3575" /><g
   id="g158"
   style="fill:#00112b">
      <path
   inkscape:connector-curvature="0"
   id="path150"
   style="fill:#00112b;fill-rule:nonzero"
   d="m 43.862,348.616 h 2.37 l 2.206,7.371 2.281,-7.371 h 2.358 l -3.067,9.214 c -0.287,0.85 -0.8,1.274 -1.541,1.274 -0.75,0 -1.269,-0.429 -1.555,-1.287 z" />
      <path
   inkscape:connector-curvature="0"
   id="path152"
   style="fill:#00112b;fill-rule:nonzero"
   d="m 53.254,356.408 v -7.792 h 2.222 v 7.718 c 0.039,0.276 0.296,0.415 0.77,0.415 h 1.511 c 0.455,0 0.706,-0.129 0.756,-0.386 l 0.015,-0.074 v -7.673 h 2.222 v 7.777 c 0,0.681 -0.074,1.165 -0.222,1.452 -0.395,0.76 -1.092,1.14 -2.089,1.14 h -2.874 c -1.027,0 -1.728,-0.39 -2.104,-1.17 -0.138,-0.286 -0.207,-0.755 -0.207,-1.407 z" />
      <path
   inkscape:connector-curvature="0"
   id="path154"
   style="fill:#00112b;fill-rule:nonzero"
   d="m 61.772,356.452 v -7.836 h 2.222 v 7.659 c 0,0.316 0.188,0.474 0.563,0.474 h 3.955 l -0.014,2.237 h -4.134 c -0.148,0 -0.276,-0.005 -0.385,-0.015 -0.8,-0.069 -1.368,-0.304 -1.703,-0.704 -0.336,-0.4 -0.504,-1.005 -0.504,-1.815 z" />
      <path
   inkscape:connector-curvature="0"
   id="path156"
   style="fill:#00112b;fill-rule:nonzero"
   d="m 68.586,350.853 v -2.237 h 6.667 v 2.237 h -2.237 v 8.133 h -2.222 v -8.133 z" />
    </g><path
   inkscape:connector-curvature="0"
   id="path160"
   style="fill:#2c5aa0;stroke:#e3dbdb;stroke-width:1.20000005px;stroke-linejoin:round;stroke-miterlimit:1.5;fill-opacity:0"
   d="m 40.936,276.037 v -13.145 c 0,-5.182 -4.207,-9.389 -9.389,-9.389 H 12.769 c -5.182,0 -9.389,4.207 -9.389,9.389 v 13.145" /><path
   inkscape:connector-curvature="0"
   id="path162"
   style="fill:#e3dbdb;fill-opacity:0;stroke:#2c5aa0;stroke-width:1.20000005px;stroke-linejoin:round;stroke-miterlimit:1.5"
   d="m 40.936,328.615 v -13.144 c 0,-5.182 -4.207,-9.389 -9.389,-9.389 H 12.769 c -5.182,0 -9.389,4.207 -9.389,9.389 v 13.144" /><path
   inkscape:connector-curvature="0"
   id="path164"
   style="fill:#2c5aa0;fill-opacity:0;stroke:#2c5aa0;stroke-width:1.20000005px;stroke-linejoin:round;stroke-miterlimit:1.5"
   d="m 116.048,276.037 v -13.145 c 0,-5.182 -4.207,-9.389 -9.389,-9.389 H 87.881 c -5.182,0 -9.389,4.207 -9.389,9.389 v 13.145" /><path
   inkscape:connector-curvature="0"
   style="fill:none;stroke:#2c5aa0;stroke-width:1.5px"
   d="M 89.012,99.392 C 97.233,85.15 94.015,66.883 81.418,56.311 68.82,45.745 50.268,45.745 37.671,56.311 25.073,66.883 21.855,85.15 30.076,99.392"
   id="path2382" /><circle
   style="fill:none;stroke:#2c5aa0;stroke-width:1px;stroke-linecap:butt"
   r="3.7060001"
   cy="108.659"
   cx="30.445999"
   id="circle2385" /><circle
   style="fill:#2c5aa0;stroke:#2c5aa0;stroke-width:1px;stroke-linecap:butt"
   r="3.7060001"
   cy="108.147"
   cx="89.224998"
   id="circle2388" />
<path
   style="fill:#2c5aa0;fill-opacity:1;stroke:#2c5aa0;stroke-width:0;stroke-miterlimit:4;stroke-dasharray:none;stroke-opacity:0.98994978;paint-order:stroke fill markers"
   d="m 22.179688,252.96094 c -5.994774,-0.002 -10.527522,0.0797 -11.171876,0.20117 -4.1387067,0.78002 -7.4832231,4.30279 -8.0214839,8.45117 -0.2122999,1.6362 -0.2855353,14.05408 -0.085937,14.57422 0.185554,0.48355 0.8596471,0.39079 0.9804688,-0.13477 0.057259,-0.24907 0.128376,-3.85003 0.15625,-8.0039 l 0.050781,-7.55274 0.6914063,-1.40429 c 1.2588299,-2.55622 3.6645814,-4.39712 6.4316408,-4.92188 0.646984,-0.12267 5.104361,-0.20512 11.068359,-0.20312 10.648212,0.003 11.470783,0.0669 13.349609,1.02539 1.071298,0.54654 2.878889,2.25622 3.492188,3.30273 1.17387,2.00306 1.173854,2.00389 1.289062,10.36133 0.104478,7.57915 0.116043,7.75 0.509766,7.75 0.394098,0 0.402688,-0.15234 0.455078,-7.24609 0.03439,-4.65585 -0.02317,-7.62408 -0.164062,-8.30469 -0.541657,-2.61659 -2.647608,-5.40987 -5.041016,-6.68555 -2.14503,-1.14325 -2.866298,-1.20498 -13.990234,-1.20898 z"
   id="path1103"
   inkscape:connector-curvature="0" /></svg>