<svg xmlns:dc="http://purl.org/dc/elements/1.1/" xmlns:cc="http://creativecommons.org/ns#" xmlns:rdf="http://www.w3.org/1999/02/22-rdf-syntax-ns#" xmlns:svg="http://www.w3.org/2000/svg" xmlns="http://www.w3.org/2000/svg" xmlns:sodipodi="http://sodipodi.sourceforge.net/DTD/sodipodi-0.dtd" xmlns:inkscape="http://www.inkscape.org/namespaces/inkscape" width="18px" height="18px" version="1.1" xml:space="preserve" style="fill-rule:evenodd;clip-rule:evenodd;stroke-linecap:round;stroke-linejoin:round;stroke-miterlimit:1.5;" id="svg1267" sodipodi:docname="KnobSmallAlt.svg" inkscape:version="0.92.3 (2405546, 2018-03-11)">
  <defs id="defs1271"/>
  <metadata id="metadata1273">
    <rdf:RDF>
      <cc:Work rdf:about="">
        <dc:format>image/svg+xml</dc:format>
        <dc:type rdf:resource="http://purl.org/dc/dcmitype/StillImage"/>
      </cc:Work>
    </rdf:RDF>
  </metadata>
  <sodipodi:namedview pagecolor="#ffffff" bordercolor="#666666" borderopacity="1" objecttolerance="10" gridtolerance="10" guidetolerance="10" inkscape:pageopacity="0" inkscape:pageshadow="2" inkscape:window-width="1920" inkscape:window-height="1018" id="namedview1269" showgrid="false" inkscape:zoom="47.166667" inkscape:cx="9" inkscape:cy="9" inkscape:window-x="-8" inkscape:window-y="-8" inkscape:window-maximized="1" inkscape:current-layer="svg1267"/>
  <g transform="matrix(1.8,0,0,1.8,0.105086,7.77156e-16)" id="g1229">
    <circle cx="4.942" cy="5" r="5" style="fill:rgb(153,153,153);" id="circle1227"/>
  </g>
  <g transform="matrix(1.12917,0,0,1.1596,-1.6617,-2.28689)" id="g1233">
    <ellipse cx="9.442" cy="9.733" rx="5.314" ry="5.174" style="fill:rgb(21,21,21);" id="ellipse1231"/>
  </g>
  <g transform="matrix(0.940973,0,0,0.966332,0.115248,-0.405739)" id="g1237">
    <ellipse cx="9.442" cy="9.733" rx="5.314" ry="5.174" style="fill:rgb(26,26,26);" id="ellipse1235"/>
  </g>
  <g transform="matrix(0.658681,0,0,0.676432,2.78067,2.41598)" id="g1241">
    <ellipse cx="9.442" cy="9.733" rx="5.314" ry="5.174" style="fill:rgb(31,31,31);" id="ellipse1239"/>
  </g>
  <g transform="matrix(0.540933,0,0,0.543761,-8.1574,-34.2734)" id="g1245">
    <path d="M32.622,64.608l0.072,-0.411c0.082,-0.465 0.526,-0.776 0.991,-0.694l1.684,0.297c0.465,0.082 0.776,0.526 0.694,0.991l-0.072,0.409c0.581,0.173 1.148,0.38 1.698,0.619l0.208,-0.361c0.236,-0.408 0.76,-0.549 1.168,-0.313l1.482,0.856c0.408,0.235 0.549,0.759 0.313,1.168l-0.21,0.364c0.484,0.359 0.945,0.747 1.382,1.161l0.323,-0.271c0.362,-0.303 0.901,-0.256 1.205,0.106l1.099,1.31c0.304,0.362 0.256,0.901 -0.105,1.205l-0.321,0.269c0.331,0.501 0.634,1.023 0.905,1.564l0.392,-0.143c0.443,-0.161 0.935,0.068 1.096,0.512l0.585,1.607c0.161,0.443 -0.068,0.934 -0.511,1.096l-0.391,0.142c0.139,0.581 0.244,1.175 0.313,1.78l0.417,0c0.472,0 0.855,0.383 0.855,0.855l0,1.711c0,0.472 -0.383,0.855 -0.855,0.855l-0.417,0c-0.069,0.605 -0.174,1.199 -0.313,1.78l0.391,0.142c0.443,0.162 0.672,0.653 0.511,1.096l-0.585,1.608c-0.161,0.443 -0.653,0.672 -1.096,0.511l-0.392,-0.143c-0.271,0.541 -0.574,1.063 -0.905,1.564l0.321,0.269c0.361,0.304 0.409,0.844 0.105,1.205l-1.099,1.31c-0.304,0.362 -0.843,0.409 -1.205,0.106l-0.323,-0.271c-0.437,0.414 -0.898,0.802 -1.382,1.162l0.21,0.363c0.236,0.409 0.095,0.933 -0.313,1.169l-1.482,0.855c-0.408,0.236 -0.932,0.095 -1.168,-0.313l-0.208,-0.361c-0.55,0.239 -1.117,0.446 -1.698,0.619l0.072,0.409c0.082,0.465 -0.229,0.909 -0.694,0.991l-1.684,0.297c-0.465,0.082 -0.909,-0.229 -0.991,-0.694l-0.072,-0.411c-0.299,0.018 -0.6,0.027 -0.904,0.027c-0.303,0 -0.604,-0.009 -0.903,-0.027l-0.073,0.411c-0.082,0.465 -0.526,0.776 -0.991,0.694l-1.684,-0.297c-0.465,-0.082 -0.775,-0.526 -0.694,-0.991l0.073,-0.409c-0.582,-0.173 -1.149,-0.38 -1.699,-0.619l-0.208,0.361c-0.236,0.408 -0.759,0.549 -1.168,0.313l-1.481,-0.855c-0.409,-0.236 -0.549,-0.76 -0.313,-1.169l0.21,-0.363c-0.484,-0.36 -0.946,-0.748 -1.383,-1.162l-0.323,0.271c-0.361,0.303 -0.901,0.256 -1.205,-0.106l-1.099,-1.31c-0.303,-0.361 -0.256,-0.901 0.106,-1.205l0.321,-0.269c-0.332,-0.501 -0.635,-1.023 -0.906,-1.564l-0.392,0.143c-0.443,0.161 -0.934,-0.068 -1.096,-0.511l-0.585,-1.608c-0.161,-0.443 0.068,-0.934 0.512,-1.096l0.39,-0.142c-0.139,-0.581 -0.243,-1.175 -0.312,-1.78l-0.417,0c-0.472,0 -0.856,-0.383 -0.856,-0.855l0,-1.711c0,-0.472 0.384,-0.855 0.856,-0.855l0.417,0c0.069,-0.605 0.173,-1.199 0.312,-1.78l-0.39,-0.142c-0.444,-0.162 -0.673,-0.653 -0.512,-1.096l0.585,-1.607c0.162,-0.444 0.653,-0.673 1.096,-0.512l0.392,0.143c0.271,-0.541 0.574,-1.063 0.906,-1.564l-0.321,-0.269c-0.362,-0.304 -0.409,-0.843 -0.106,-1.205l1.099,-1.31c0.304,-0.362 0.844,-0.409 1.205,-0.106l0.323,0.271c0.437,-0.414 0.899,-0.802 1.383,-1.161l-0.21,-0.364c-0.236,-0.409 -0.096,-0.933 0.313,-1.168l1.481,-0.856c0.409,-0.236 0.932,-0.095 1.168,0.313l0.208,0.361c0.55,-0.239 1.117,-0.446 1.699,-0.619l-0.073,-0.409c-0.081,-0.465 0.229,-0.909 0.694,-0.991l1.684,-0.297c0.465,-0.082 0.909,0.229 0.991,0.694l0.073,0.411c0.299,-0.017 0.6,-0.026 0.903,-0.026c0.304,0 0.605,0.009 0.904,0.026Z" style="fill:rgb(16,16,16);" id="path1243"/>
  </g>
  <g transform="matrix(1.25,0,0,1.36364,-2.25323,-3.95455)" id="g1249">
    <ellipse cx="9" cy="9.5" rx="6" ry="5.5" style="fill:rgb(31,31,31);stroke:rgb(89,89,89);stroke-width:0.38px;" id="ellipse1247"/>
  </g>
  <g transform="matrix(1.16667,0,0,1.27273,-1.50323,-3.09091)" id="g1253">
    <ellipse cx="9" cy="9.5" rx="6" ry="5.5" style="fill:rgb(38,38,38);stroke:black;stroke-width:0.41px;" id="ellipse1251"/>
  </g>
  <g transform="matrix(0.0892857,-2.78796e-19,3.60787e-19,0.119193,-3.05357,-1.37071)" id="g1265">
    <path d="M145.832,21c1.749,0 3.168,1.419 3.168,3.168l-4.5,9.503l0.352,41.722c0,4.291 -5.562,3.98 -9.852,3.98c0,0 -8.872,0.451 -8.872,-3.84l-0.628,-41.862l-4.5,-9.503c0,-1.749 1.419,-3.168 3.168,-3.168c0,0 4.648,-1.487 10.832,-1.577c5.308,-0.077 10.832,1.577 10.832,1.577Z" style="fill:rgb(235,235,235);" id="path1263"/>
  </g>
</svg>