<svg width="13px" height="13px" version="1.1" xmlns="http://www.w3.org/2000/svg" xmlns:xlink="http://www.w3.org/1999/xlink" xml:space="preserve" xmlns:serif="http://www.serif.com/" style="fill-rule:evenodd;clip-rule:evenodd;stroke-linecap:round;stroke-linejoin:round;stroke-miterlimit:1.5;">
  <g transform="matrix(1.3,0,0,1.3,-0.0301443,0)">
    <circle cx="5" cy="5" r="5" style="fill:rgb(98,98,98);"/>
  </g>
  <g transform="matrix(1.26218,0,0,1.25697,0.313833,0.389401)">
    <circle cx="5" cy="5" r="5" style="fill:rgb(62,62,62);"/>
  </g>
  <g transform="matrix(1.21333,0,0,1.21333,0.403189,0.433333)">
    <circle cx="5" cy="5" r="5" style="fill:rgb(125,125,125);"/>
  </g>
  <g transform="matrix(1.30958,0,0,1.26052,-1.86,-2.15444)">
    <ellipse cx="6.384" cy="6.866" rx="3.818" ry="3.967" style="fill:none;stroke:rgb(102,102,102);stroke-width:0.66px;"/>
  </g>
  <g transform="matrix(1.12008,0,0,1.08324,-0.7185,-1.00914)">
    <ellipse cx="6.384" cy="6.866" rx="3.818" ry="3.967" style="fill:none;stroke:rgb(102,102,102);stroke-opacity:0.486275;stroke-width:0.77px;"/>
  </g>
  <g transform="matrix(0.896407,0,0,0.870969,0.707513,0.444979)">
    <ellipse cx="6.384" cy="6.866" rx="3.818" ry="3.967" style="fill:none;stroke:rgb(102,102,102);stroke-opacity:0.305882;stroke-width:0.96px;"/>
  </g>
  <g transform="matrix(0.855825,0,0,0.855825,0.932788,0.937148)">
    <g transform="matrix(1.12512,1.01705,-1.01705,1.12512,5.93891,-4.22125)">
      <path d="M5.5,6.35l0,1.161c0,0.161 -0.042,0.348 -0.161,0.439c-0.084,0.064 -0.224,0.059 -0.338,0.059l-0.002,0c-0.118,0 -0.267,-0.004 -0.352,-0.072c-0.115,-0.091 -0.147,-0.269 -0.147,-0.426l0,-1.161c0.088,-0.606 -0.201,-0.899 -0.855,-0.85l-1.149,0c-0.167,0 -0.346,-0.005 -0.436,-0.131c-0.057,-0.08 -0.059,-0.255 -0.06,-0.36l0,0l0,0c0,-0.001 0,-0.003 0,-0.005l0,-0.008c0,-0.104 0.012,-0.257 0.067,-0.337c0.089,-0.13 0.259,-0.159 0.429,-0.159l1.177,0c0.589,0.011 0.927,-0.218 0.827,-0.832l0,-1.16c0,-0.138 0.04,-0.31 0.131,-0.401c0.09,-0.09 0.23,-0.098 0.368,-0.098l0.002,0c0.139,0 0.294,0.011 0.384,0.103c0.089,0.09 0.115,0.259 0.115,0.396l0,1.16c-0.033,0.658 0.278,0.9 0.827,0.832l1.177,0c0.161,0 0.344,0.042 0.434,0.16c0.064,0.084 0.062,0.222 0.062,0.336l0,0.008c0,0.002 0,0.004 0,0.005l0,0l0,0c-0.001,0.137 -0.017,0.25 -0.108,0.339c-0.089,0.087 -0.253,0.152 -0.388,0.152l-1.149,0c-0.632,-0.101 -0.942,0.171 -0.855,0.85Z" style="fill:rgb(43,43,43);stroke:rgb(28,28,28);stroke-width:0.19px;stroke-linecap:butt;stroke-miterlimit:1.41421;"/>
    </g>
    <g transform="matrix(0.885539,0.800478,-0.746026,0.8253,5.78111,-1.63469)">
      <path d="M5.5,6.35l0,1.161c0,0.161 -0.042,0.348 -0.161,0.439c-0.084,0.064 -0.224,0.059 -0.338,0.059l-0.002,0c-0.118,0 -0.267,-0.004 -0.352,-0.072c-0.115,-0.091 -0.147,-0.269 -0.147,-0.426l0,-1.161c0.088,-0.606 -0.201,-0.899 -0.855,-0.85l-1.149,0c-0.167,0 -0.346,-0.005 -0.436,-0.131c-0.057,-0.08 -0.059,-0.255 -0.06,-0.36l0,0l0,0c0,-0.001 0,-0.003 0,-0.005l0,-0.008c0,-0.104 0.012,-0.257 0.067,-0.337c0.089,-0.13 0.259,-0.159 0.429,-0.159l1.177,0c0.589,0.011 0.927,-0.218 0.827,-0.832l0,-1.16c0,-0.138 0.04,-0.31 0.131,-0.401c0.09,-0.09 0.23,-0.098 0.368,-0.098l0.002,0c0.139,0 0.294,0.011 0.384,0.103c0.089,0.09 0.115,0.259 0.115,0.396l0,1.16c-0.033,0.658 0.278,0.9 0.827,0.832l1.177,0c0.161,0 0.344,0.042 0.434,0.16c0.064,0.084 0.062,0.222 0.062,0.336l0,0.008c0,0.002 0,0.004 0,0.005l0,0l0,0c-0.001,0.137 -0.017,0.25 -0.108,0.339c-0.089,0.087 -0.253,0.152 -0.388,0.152l-1.149,0c-0.632,-0.101 -0.942,0.171 -0.855,0.85Z" style="fill:rgb(149,149,149);fill-opacity:0.188235;"/>
    </g>
  </g>
</svg>