<?xml version="1.0" encoding="UTF-8" standalone="no"?>
<svg
   xmlns:serif="http://www.serif.com/"
   xmlns:dc="http://purl.org/dc/elements/1.1/"
   xmlns:cc="http://creativecommons.org/ns#"
   xmlns:rdf="http://www.w3.org/1999/02/22-rdf-syntax-ns#"
   xmlns:svg="http://www.w3.org/2000/svg"
   xmlns="http://www.w3.org/2000/svg"
   xmlns:xlink="http://www.w3.org/1999/xlink"
   xmlns:sodipodi="http://sodipodi.sourceforge.net/DTD/sodipodi-0.dtd"
   xmlns:inkscape="http://www.inkscape.org/namespaces/inkscape"
   width="150px"
   height="380px"
   version="1.1"
   xml:space="preserve"
   style="fill-rule:evenodd;clip-rule:evenodd;stroke-miterlimit:10;"
   id="svg11769"
   sodipodi:docname="Nopskate.svg"
   inkscape:version="0.92.3 (2405546, 2018-03-11)">
  <defs
   id="defs11773">
    <linearGradient
   inkscape:collect="always"
   id="linearGradient12121">
      <stop
   style="stop-color:#555555;stop-opacity:1"
   offset="0"
   id="stop12117" />
      <stop
   style="stop-color:#989898;stop-opacity:1"
   offset="1"
   id="stop12119" />
    </linearGradient>
    <linearGradient
   inkscape:collect="always"
   xlink:href="#linearGradient12121"
   id="linearGradient12123"
   x1="0.00032814531"
   y1="379.99832"
   x2="150.00034"
   y2="-0.00014301452"
   gradientUnits="userSpaceOnUse" />
  </defs>
  <metadata
   id="metadata11775">
    <rdf:RDF>
      <cc:Work
   rdf:about="">
        <dc:format>image/svg+xml</dc:format>
        <dc:type
   rdf:resource="http://purl.org/dc/dcmitype/StillImage" />
      <dc:title></dc:title></cc:Work>
    </rdf:RDF>
  </metadata>
  <sodipodi:namedview
   pagecolor="#ffffff"
   bordercolor="#666666"
   borderopacity="1"
   objecttolerance="10"
   gridtolerance="10"
   guidetolerance="10"
   inkscape:pageopacity="0"
   inkscape:pageshadow="2"
   inkscape:window-width="1920"
   inkscape:window-height="1017"
   id="namedview11771"
   showgrid="false"
   inkscape:zoom="1.5798254"
   inkscape:cx="22.532884"
   inkscape:cy="190.7938"
   inkscape:window-x="1912"
   inkscape:window-y="-8"
   inkscape:window-maximized="1"
   inkscape:current-layer="svg11769" />
  <rect
   x="0.00032814531"
   y="-0.00014301452"
   width="150"
   height="379.99847"
   style="fill:url(#linearGradient12123);stroke-width:3.78603339;fill-opacity:1"
   id="rect11451" />
  <g
   id="text7967-9-5"
   transform="matrix(1.05877,0,0,1.05877,36.297,38.5591)">
    <path
   d="M 3.364,-4.015 H 2.251 V 0 H 0.95 V -4.015 H 0.286 V -4.828 H 0.95 v -0.303 c 0,-1.281 0.612,-1.922 1.838,-1.922 0.31,0 0.697,0.037 1.161,0.11 H 5.29 V 0 H 3.988 V -6.099 C 3.736,-6.198 3.485,-6.248 3.236,-6.248 c -0.656,0 -0.985,0.337 -0.985,1.011 v 0.409 h 1.113 z"
   style="fill:#ffffff;fill-rule:nonzero"
   id="path11454"
   inkscape:connector-curvature="0" />
    <path
   d="M 6.917,0 V -4.828 H 8.218 V 0 Z m 0,-5.641 v -1.087 h 1.301 v 1.087 z"
   style="fill:#ffffff;fill-rule:nonzero"
   id="path11456"
   inkscape:connector-curvature="0" />
    <path
   d="m 9.845,1.737 v -6.565 h 1.302 v 0.91 c 0.334,-0.68 0.86,-1.02 1.578,-1.02 0.581,0 1.037,0.213 1.37,0.638 0.333,0.425 0.499,1.01 0.499,1.754 0,0.809 -0.188,1.454 -0.563,1.935 -0.375,0.481 -0.878,0.721 -1.508,0.721 -0.507,0 -0.966,-0.199 -1.376,-0.598 v 2.225 z m 1.302,-2.999 c 0.316,0.352 0.653,0.528 1.011,0.528 0.319,0 0.574,-0.155 0.765,-0.464 0.191,-0.309 0.286,-0.722 0.286,-1.238 0,-0.988 -0.318,-1.482 -0.954,-1.482 -0.384,0 -0.754,0.248 -1.108,0.743 z"
   style="fill:#ffffff;fill-rule:nonzero"
   id="path11458"
   inkscape:connector-curvature="0" />
    <rect
   x="15.865"
   y="-3.201"
   width="4.0149999"
   height="0.81300002"
   style="fill:#ffffff;fill-rule:nonzero"
   id="rect11460" />
    <path
   d="M 24.114,-4.015 H 23.001 V 0 H 21.7 V -4.015 H 21.036 V -4.828 H 21.7 v -0.303 c 0,-1.281 0.612,-1.922 1.838,-1.922 0.31,0 0.697,0.037 1.16,0.11 h 1.341 V 0 h -1.301 v -6.099 c -0.252,-0.099 -0.503,-0.149 -0.752,-0.149 -0.657,0 -0.985,0.337 -0.985,1.011 v 0.409 h 1.113 z"
   style="fill:#ffffff;fill-rule:nonzero"
   id="path11462"
   inkscape:connector-curvature="0" />
    <path
   d="m 29.693,0.11 c -0.753,0 -1.352,-0.228 -1.796,-0.684 -0.444,-0.456 -0.666,-1.069 -0.666,-1.84 0,-0.78 0.224,-1.395 0.671,-1.847 0.447,-0.451 1.054,-0.677 1.822,-0.677 0.771,0 1.38,0.226 1.827,0.677 0.447,0.452 0.671,1.064 0.671,1.838 0,0.792 -0.224,1.412 -0.673,1.86 -0.448,0.449 -1.067,0.673 -1.856,0.673 z m 0.022,-0.814 c 0.748,0 1.122,-0.573 1.122,-1.719 0,-0.525 -0.099,-0.939 -0.297,-1.244 -0.198,-0.305 -0.47,-0.457 -0.816,-0.457 -0.343,0 -0.613,0.152 -0.811,0.457 -0.198,0.305 -0.297,0.722 -0.297,1.253 0,0.525 0.098,0.941 0.295,1.249 0.196,0.308 0.464,0.461 0.804,0.461 z"
   style="fill:#ffffff;fill-rule:nonzero"
   id="path11464"
   inkscape:connector-curvature="0" />
    <path
   d="m 33.418,1.737 v -6.565 h 1.301 v 0.91 c 0.334,-0.68 0.861,-1.02 1.579,-1.02 0.58,0 1.037,0.213 1.37,0.638 0.332,0.425 0.499,1.01 0.499,1.754 0,0.809 -0.188,1.454 -0.563,1.935 -0.375,0.481 -0.878,0.721 -1.508,0.721 -0.508,0 -0.966,-0.199 -1.377,-0.598 v 2.225 z m 1.301,-2.999 c 0.317,0.352 0.654,0.528 1.012,0.528 0.319,0 0.574,-0.155 0.765,-0.464 0.19,-0.309 0.286,-0.722 0.286,-1.238 0,-0.988 -0.319,-1.482 -0.955,-1.482 -0.384,0 -0.753,0.248 -1.108,0.743 z"
   style="fill:#ffffff;fill-rule:nonzero"
   id="path11466"
   inkscape:connector-curvature="0" />
    <path
   d="m 44.38,0.11 c -0.754,0 -1.352,-0.228 -1.797,-0.684 -0.444,-0.456 -0.666,-1.069 -0.666,-1.84 0,-0.78 0.224,-1.395 0.671,-1.847 0.447,-0.451 1.054,-0.677 1.822,-0.677 0.771,0 1.38,0.226 1.827,0.677 0.447,0.452 0.671,1.064 0.671,1.838 0,0.792 -0.224,1.412 -0.673,1.86 -0.448,0.449 -1.067,0.673 -1.855,0.673 z m 0.022,-0.814 c 0.747,0 1.121,-0.573 1.121,-1.719 0,-0.525 -0.099,-0.939 -0.297,-1.244 -0.198,-0.305 -0.47,-0.457 -0.816,-0.457 -0.342,0 -0.613,0.152 -0.811,0.457 -0.198,0.305 -0.297,0.722 -0.297,1.253 0,0.525 0.099,0.941 0.295,1.249 0.196,0.308 0.465,0.461 0.805,0.461 z"
   style="fill:#ffffff;fill-rule:nonzero"
   id="path11468"
   inkscape:connector-curvature="0" />
    <path
   d="m 51.666,-0.106 c -0.54,0.144 -1.04,0.216 -1.5,0.216 -0.771,0 -1.38,-0.227 -1.827,-0.679 -0.447,-0.453 -0.67,-1.07 -0.67,-1.849 0,-0.789 0.23,-1.406 0.69,-1.852 0.46,-0.445 1.096,-0.668 1.908,-0.668 0.393,0 0.846,0.063 1.359,0.189 v 0.941 c -0.533,-0.173 -0.96,-0.259 -1.279,-0.259 -0.39,0 -0.704,0.149 -0.941,0.448 -0.238,0.299 -0.357,0.696 -0.357,1.192 0,0.507 0.129,0.913 0.385,1.218 0.257,0.305 0.599,0.457 1.027,0.457 0.39,0 0.791,-0.085 1.205,-0.255 z"
   style="fill:#ffffff;fill-rule:nonzero"
   id="path11470"
   inkscape:connector-curvature="0" />
    <path
   d="m 55.386,-0.026 c -0.311,0.09 -0.556,0.136 -0.735,0.136 -1.128,0 -1.693,-0.528 -1.693,-1.583 v -2.542 h -0.54 v -0.813 h 0.54 v -0.813 l 1.302,-0.15 v 0.963 h 1.033 v 0.813 H 54.26 v 2.37 c 0,0.593 0.242,0.889 0.725,0.889 0.112,0 0.245,-0.021 0.401,-0.062 z"
   style="fill:#ffffff;fill-rule:nonzero"
   id="path11472"
   inkscape:connector-curvature="0" />
    <path
   d="M 58.912,-0.519 C 58.478,-0.1 58.014,0.11 57.518,0.11 c -0.422,0 -0.765,-0.129 -1.029,-0.387 -0.264,-0.258 -0.395,-0.592 -0.395,-1.003 0,-0.533 0.213,-0.944 0.639,-1.233 0.427,-0.289 1.037,-0.433 1.832,-0.433 h 0.347 v -0.44 c 0,-0.501 -0.286,-0.752 -0.857,-0.752 -0.508,0 -1.021,0.144 -1.539,0.431 v -0.897 c 0.589,-0.223 1.172,-0.334 1.75,-0.334 1.263,0 1.895,0.503 1.895,1.508 v 2.137 c 0,0.378 0.121,0.567 0.365,0.567 0.044,0 0.101,-0.005 0.171,-0.017 l 0.031,0.73 c -0.276,0.082 -0.519,0.123 -0.73,0.123 -0.533,0 -0.876,-0.21 -1.029,-0.629 z m 0,-0.699 v -0.981 h -0.308 c -0.841,0 -1.262,0.264 -1.262,0.792 0,0.179 0.061,0.329 0.183,0.451 0.121,0.121 0.272,0.182 0.45,0.182 0.305,0 0.618,-0.148 0.937,-0.444 z"
   style="fill:#ffffff;fill-rule:nonzero"
   id="path11474"
   inkscape:connector-curvature="0" />
    <path
   d="M 63.032,0 61.19,-4.828 h 1.372 l 1.35,3.482 1.341,-3.482 h 0.941 L 64.334,0 Z"
   style="fill:#ffffff;fill-rule:nonzero"
   id="path11476"
   inkscape:connector-curvature="0" />
    <path
   d="m 71.114,-0.163 c -0.619,0.182 -1.205,0.273 -1.759,0.273 -0.806,0 -1.442,-0.229 -1.908,-0.686 -0.466,-0.457 -0.699,-1.082 -0.699,-1.873 0,-0.748 0.213,-1.349 0.639,-1.805 0.427,-0.456 0.99,-0.684 1.691,-0.684 0.707,0 1.222,0.223 1.548,0.668 0.325,0.446 0.488,1.151 0.488,2.115 H 68.12 c 0.087,0.921 0.593,1.381 1.517,1.381 0.436,0 0.929,-0.101 1.477,-0.303 z m -3.012,-2.726 h 1.732 c 0,-0.824 -0.265,-1.235 -0.796,-1.235 -0.539,0 -0.851,0.411 -0.936,1.235 z"
   style="fill:#ffffff;fill-rule:nonzero"
   id="path11478"
   inkscape:connector-curvature="0" />
    <path
   d="m 72.459,0 v -4.828 h 1.302 v 0.91 c 0.337,-0.68 0.85,-1.02 1.539,-1.02 0.082,0 0.163,0.009 0.242,0.026 v 1.161 c -0.185,-0.067 -0.356,-0.101 -0.515,-0.101 -0.519,0 -0.941,0.263 -1.266,0.787 V 0 Z"
   style="fill:#ffffff;fill-rule:nonzero"
   id="path11480"
   inkscape:connector-curvature="0" />
  </g>
  <g
   id="text7967"
   transform="matrix(1.33192,0,0,1.33192,37.6886,27.1949)"
   style="fill:#3c3c4c;fill-opacity:1">
    <path
   d="m 0.746,0 v -7.121 h 1.851 l 3.419,4.354 V -7.121 H 7.858 V 0 H 6.016 L 2.597,-4.354 V 0 Z"
   style="fill:#3c3c4c;fill-rule:nonzero;fill-opacity:1"
   id="path11485"
   inkscape:connector-curvature="0" />
    <path
   d="m 11.051,-3.561 c 0,0.284 0.053,0.545 0.16,0.784 0.107,0.239 0.252,0.447 0.435,0.624 0.182,0.176 0.395,0.313 0.637,0.41 0.243,0.098 0.499,0.147 0.77,0.147 0.271,0 0.527,-0.049 0.77,-0.147 0.242,-0.097 0.456,-0.234 0.642,-0.41 0.186,-0.177 0.332,-0.385 0.439,-0.624 0.107,-0.239 0.161,-0.5 0.161,-0.784 0,-0.283 -0.054,-0.544 -0.161,-0.784 -0.107,-0.239 -0.253,-0.447 -0.439,-0.623 -0.186,-0.176 -0.4,-0.313 -0.642,-0.411 -0.243,-0.097 -0.499,-0.146 -0.77,-0.146 -0.271,0 -0.527,0.049 -0.77,0.146 -0.242,0.098 -0.455,0.235 -0.637,0.411 -0.183,0.176 -0.328,0.384 -0.435,0.623 -0.107,0.24 -0.16,0.501 -0.16,0.784 z m -1.937,0 c 0,-0.529 0.098,-1.021 0.293,-1.478 0.195,-0.456 0.466,-0.855 0.812,-1.195 0.347,-0.34 0.761,-0.606 1.242,-0.798 0.482,-0.192 1.013,-0.288 1.592,-0.288 0.573,0 1.102,0.096 1.587,0.288 0.484,0.192 0.902,0.458 1.251,0.798 0.35,0.34 0.622,0.739 0.817,1.195 0.195,0.457 0.293,0.949 0.293,1.478 0,0.529 -0.098,1.022 -0.293,1.478 -0.195,0.457 -0.467,0.855 -0.817,1.195 -0.349,0.34 -0.767,0.606 -1.251,0.798 -0.485,0.192 -1.014,0.288 -1.587,0.288 -0.579,0 -1.11,-0.096 -1.592,-0.288 C 10.98,-0.282 10.566,-0.548 10.219,-0.888 9.873,-1.228 9.602,-1.626 9.407,-2.083 9.212,-2.539 9.114,-3.032 9.114,-3.561 Z"
   style="fill:#3c3c4c;fill-rule:nonzero;fill-opacity:1"
   id="path11487"
   inkscape:connector-curvature="0" />
    <path
   d="m 20.023,-3.854 h 0.614 c 0.68,0 1.02,-0.295 1.02,-0.887 0,-0.592 -0.34,-0.888 -1.02,-0.888 h -0.614 z m 0,3.854 h -1.851 v -7.121 h 2.947 c 0.799,0 1.412,0.207 1.837,0.623 0.425,0.415 0.637,1.001 0.637,1.757 0,0.755 -0.212,1.341 -0.637,1.756 -0.425,0.416 -1.038,0.624 -1.837,0.624 h -1.096 z"
   style="fill:#3c3c4c;fill-rule:nonzero;fill-opacity:1"
   id="path11489"
   inkscape:connector-curvature="0" />
    <path
   d="M 28.486,-5.299 C 28.284,-5.462 28.083,-5.584 27.881,-5.662 27.68,-5.741 27.485,-5.78 27.296,-5.78 c -0.24,0 -0.435,0.056 -0.586,0.17 -0.151,0.113 -0.227,0.261 -0.227,0.444 0,0.126 0.038,0.229 0.114,0.311 0.075,0.082 0.175,0.153 0.297,0.213 0.123,0.06 0.262,0.112 0.416,0.156 0.154,0.044 0.307,0.091 0.458,0.141 0.604,0.202 1.047,0.471 1.327,0.808 0.28,0.337 0.42,0.776 0.42,1.317 0,0.366 -0.061,0.696 -0.184,0.992 -0.123,0.296 -0.302,0.55 -0.538,0.76 -0.236,0.211 -0.526,0.375 -0.869,0.492 -0.343,0.116 -0.732,0.174 -1.167,0.174 -0.9,0 -1.734,-0.267 -2.503,-0.802 l 0.794,-1.493 c 0.277,0.246 0.551,0.428 0.822,0.548 0.27,0.12 0.538,0.179 0.802,0.179 0.303,0 0.528,-0.069 0.676,-0.207 0.148,-0.139 0.222,-0.296 0.222,-0.473 0,-0.107 -0.019,-0.199 -0.057,-0.278 -0.038,-0.079 -0.101,-0.151 -0.189,-0.217 -0.088,-0.067 -0.203,-0.128 -0.345,-0.185 -0.141,-0.056 -0.313,-0.119 -0.514,-0.188 -0.24,-0.076 -0.474,-0.159 -0.704,-0.251 -0.23,-0.091 -0.435,-0.212 -0.614,-0.363 -0.179,-0.152 -0.324,-0.342 -0.434,-0.572 -0.111,-0.23 -0.166,-0.521 -0.166,-0.873 0,-0.353 0.059,-0.673 0.175,-0.959 0.117,-0.287 0.28,-0.532 0.491,-0.737 0.211,-0.204 0.469,-0.363 0.775,-0.477 0.305,-0.113 0.647,-0.17 1.024,-0.17 0.353,0 0.721,0.049 1.105,0.147 0.385,0.097 0.753,0.24 1.106,0.429 z"
   style="fill:#3c3c4c;fill-rule:nonzero;fill-opacity:1"
   id="path11491"
   inkscape:connector-curvature="0" />
    <path
   d="m 32.528,-4.184 2.258,-2.937 h 2.285 L 34.247,-3.75 37.336,0 H 34.937 L 32.528,-3.088 V 0 h -1.851 v -7.121 h 1.851 z"
   style="fill:#3c3c4c;fill-rule:nonzero;fill-opacity:1"
   id="path11493"
   inkscape:connector-curvature="0" />
    <path
   d="m 42.03,-2.645 -0.831,-2.37 -0.832,2.37 z m 0.491,1.408 H 39.876 L 39.451,0 h -1.974 l 2.711,-7.121 h 2.021 L 44.92,0 h -1.974 z"
   style="fill:#3c3c4c;fill-rule:nonzero;fill-opacity:1"
   id="path11495"
   inkscape:connector-curvature="0" />
    <path
   d="M 48.122,-5.554 V 0 H 46.271 V -5.554 H 44.75 v -1.567 h 4.892 v 1.567 z"
   style="fill:#3c3c4c;fill-rule:nonzero;fill-opacity:1"
   id="path11497"
   inkscape:connector-curvature="0" />
    <path
   d="m 54.516,-5.554 h -2.201 v 1.19 h 2.078 v 1.568 h -2.078 v 1.228 h 2.201 V 0 h -4.052 v -7.121 h 4.052 z"
   style="fill:#3c3c4c;fill-rule:nonzero;fill-opacity:1"
   id="path11499"
   inkscape:connector-curvature="0" />
  </g>
  
  
  
  <g
   id="g3085"
   style="fill:#3c3c4c"><path
     inkscape:connector-curvature="0"
     style="fill:#3c3c4c;fill-rule:nonzero;stroke-width:0.0956609;fill-opacity:1"
     d="m 62.951909,363.49974 h 2.67353 l 2.489671,8.31724 2.57433,-8.31724 h 2.659947 l -3.460437,10.39738 c -0.323334,0.95862 -0.902656,1.4375 -1.738445,1.4375 -0.846982,0 -1.43214,-0.48395 -1.7549,-1.45223 z"
     id="path42" /><path
     inkscape:connector-curvature="0"
     style="fill:#3c3c4c;fill-rule:nonzero;stroke-width:0.0956609;fill-opacity:1"
     d="m 73.549701,372.29241 v -8.79267 h 2.507368 v 8.70906 c 0.04439,0.31215 0.334335,0.46807 0.869271,0.46807 h 1.70506 c 0.512455,0 0.796664,-0.14464 0.85253,-0.43458 l 0.01674,-0.0836 v -8.65894 h 2.507368 v 8.77593 c 0,0.76892 -0.08351,1.31505 -0.250727,1.63819 -0.44578,0.85827 -1.231443,1.28712 -2.356989,1.28712 h -3.242904 c -1.159219,0 -1.950335,-0.44013 -2.37373,-1.3206 -0.156119,-0.32304 -0.233987,-0.85243 -0.233987,-1.58797 z"
     id="path44" /><path
     inkscape:connector-curvature="0"
     style="fill:#3c3c4c;fill-rule:nonzero;stroke-width:0.0956609;fill-opacity:1"
     d="m 83.161422,372.34263 v -8.84279 h 2.507463 v 8.64219 c 0,0.35682 0.211506,0.53494 0.635189,0.53494 h 4.46325 l -0.01674,2.5242 h -4.663851 c -0.16712,0 -0.312142,-0.006 -0.434588,-0.0167 -0.902751,-0.0778 -1.543679,-0.34265 -1.922401,-0.79398 -0.379008,-0.45152 -0.568321,-1.13397 -0.568321,-2.04782 z"
     id="path46" /><path
     inkscape:connector-curvature="0"
     style="fill:#3c3c4c;fill-rule:nonzero;stroke-width:0.0956609;fill-opacity:1"
     d="m 90.850645,366.02385 v -2.52411 h 7.522295 v 2.52411 h -2.524109 v 9.17723 h -2.507463 v -9.17723 z"
     id="path48" /></g>
  <path
   id="path4"
   d="m 59.383485,369.41724 c 0,-4.50925 -3.655481,-8.1647 -8.164802,-8.1647 -4.50914,0 -8.164658,3.65545 -8.164658,8.1647 0,4.50921 3.655482,8.16469 8.164658,8.16469 4.509321,0 8.164802,-3.65548 8.164802,-8.16469 z"
   style="fill:#757575;fill-rule:nonzero;stroke:#414c55;stroke-width:0.61073178px;stroke-opacity:1"
   inkscape:connector-curvature="0" />
  <g
   id="g40"
   transform="matrix(0.0359254,0,0,0.0359254,36.495161,347.09158)">
    <path
   id="polygon6"
   d="m 357.002,759.965 15.391,-24.781 -29.594,-66.614 -61.688,-63.583 12.788,86.322 16.629,35.632 23.179,35.166 z"
   style="fill:#2b2b2b;fill-rule:nonzero"
   inkscape:connector-curvature="0" />
    <path
   id="polygon8"
   d="m 460.762,760.17 -15.392,-24.783 29.597,-66.612 61.685,-63.582 -12.787,86.321 -16.63,35.631 -23.175,35.168 z"
   style="fill:#262626;fill-rule:nonzero"
   inkscape:connector-curvature="0" />
    <path
   id="polygon12"
   d="m 337.948,452.81 71.936,-18.383 V 808.75 L 372.316,734.951 342.799,668.57 314.328,652.395 257.223,571.1 l -1.598,-21.58 31.971,-57.547 z"
   style="fill:#424242;fill-rule:nonzero"
   inkscape:connector-curvature="0" />
    <path
   id="polygon14"
   d="m 481.727,452.944 -71.932,-18.382 v 374.325 l 37.564,-73.801 29.518,-66.379 28.473,-16.178 57.101,-81.295 1.599,-21.579 -31.969,-57.547 z"
   style="fill:#333333;fill-rule:nonzero"
   inkscape:connector-curvature="0" />
    <path
   id="polyline16"
   d="m 361.886,616.429 47.96,-46.887 v 34.229 l -47.96,47.827 v -35.169"
   style="fill:#4c4c4c;fill-rule:nonzero"
   inkscape:connector-curvature="0" />
    <path
   id="polygon18"
   d="m 409.881,603.732 -47.957,47.827 10.469,83.625 37.491,73.566 z"
   style="fill:#5b5b5b;fill-rule:nonzero"
   inkscape:connector-curvature="0" />
    <path
   id="polygon20"
   d="m 409.884,808.75 -37.491,-73.566 37.485,-17.672 z"
   style="fill:#333333;fill-rule:nonzero"
   inkscape:connector-curvature="0" />
    <path
   id="polygon22"
   d="M 361.924,651.559 V 616.39 l -34.766,-43.958 -41.119,-33.129 -0.043,25.934 21.582,50.752 z"
   style="fill:#ffffff;fill-rule:nonzero"
   inkscape:connector-curvature="0" />
    <path
   id="polyline24"
   d="m 457.816,616.448 -47.957,-46.887 v 34.229 l 47.957,47.826 v -35.168"
   style="fill:#2d2d2d;fill-rule:nonzero"
   inkscape:connector-curvature="0" />
    <path
   id="polygon26"
   d="m 409.804,603.732 47.954,47.827 -10.469,83.625 -37.488,73.566 z"
   style="fill:#353535;fill-rule:nonzero"
   inkscape:connector-curvature="0" />
    <path
   id="polygon28"
   d="m 409.801,808.75 37.488,-73.566 -37.482,-17.672 z"
   style="fill:#191919;fill-rule:nonzero"
   inkscape:connector-curvature="0" />
    <path
   id="polygon30"
   d="m 457.758,651.559 v -35.168 l 34.765,-43.958 41.122,-33.13 0.041,25.935 -21.578,50.753 z"
   style="fill:#ffffff;fill-rule:nonzero"
   inkscape:connector-curvature="0" />
    <path
   id="polyline32"
   d="M 338.399,452.22 409.824,569.549 409.67,434.003"
   style="fill:#383838;fill-rule:nonzero"
   inkscape:connector-curvature="0" />
    <path
   id="polyline34"
   d="M 481.271,452.232 409.846,569.561 410,434.016"
   style="fill:#2d2d2d;fill-rule:nonzero"
   inkscape:connector-curvature="0" />
    <path
   id="polygon36"
   d="m 342.815,668.578 19.143,-16.982 10.448,83.674 z"
   style="fill:#333333;fill-rule:nonzero"
   inkscape:connector-curvature="0" />
    <path
   id="polygon38"
   d="m 476.975,668.989 -19.144,-16.982 -10.448,83.675 z"
   style="fill:#1c1c1c;fill-rule:nonzero"
   inkscape:connector-curvature="0" />
  </g>
  <path
   d="m 143.24914,319.05863 c 0,-3.34483 -2.71541,-6.06067 -6.06141,-6.06067 H 90.128079 c -3.345999,0 -6.061413,2.71584 -6.061413,6.06067 v 31.81215 c 0,3.34483 2.715414,6.06067 6.061413,6.06067 h 47.059651 c 3.346,0 6.06141,-2.71584 6.06141,-6.06067 z"
   id="path11528"
   inkscape:connector-curvature="0"
   style="fill:#1a1a21;fill-opacity:1;stroke:#333359;stroke-width:1;stroke-miterlimit:10;stroke-dasharray:none;stroke-opacity:1" />
  <path
   d="m 22.713684,315.47392 v 3.52947 h 1.412586 v 0.99641 h -2.589074 v -4.52588 z"
   style="fill:#8c8c8c;fill-rule:nonzero;stroke-width:4.00165987"
   id="path11532"
   inkscape:connector-curvature="0" />
  <path
   d="m 51.713684,317.49876 h 0.224093 c 0.232096,0 0.408169,-0.048 0.532221,-0.14406 0.124051,-0.096 0.188078,-0.2361 0.188078,-0.41617 0,-0.18007 -0.06403,-0.31613 -0.188078,-0.41217 -0.124052,-0.096 -0.300125,-0.14406 -0.532221,-0.14406 h -0.224093 z m 2.589074,2.50104 H 52.83815 l -1.124466,-1.74072 v 1.74072 h -1.176488 v -4.52588 h 1.83276 c 0.252105,0 0.472196,0.04 0.660274,0.11205 0.188078,0.076 0.340141,0.17607 0.464193,0.30413 0.120049,0.12805 0.212088,0.27611 0.276114,0.44418 0.06003,0.16807 0.09204,0.34814 0.09204,0.54022 0,0.34415 -0.08404,0.62426 -0.248103,0.83635 -0.168069,0.21209 -0.412171,0.36015 -0.736305,0.43618 z"
   style="fill:#8c8c8c;fill-rule:nonzero;stroke-width:4.00165987"
   id="path11536"
   inkscape:connector-curvature="0" />
  <path
   d="m 99.713684,315.47392 v 3.52947 h 1.412586 v 0.99641 h -2.589074 v -4.52588 z"
   style="fill:#8c8c8c;fill-rule:nonzero;stroke-width:4.00165987"
   id="path11540"
   inkscape:connector-curvature="0" />
  <path
   d="m 125.71368,317.49876 h 0.2241 c 0.23209,0 0.40817,-0.048 0.53222,-0.14406 0.12405,-0.096 0.18808,-0.2361 0.18808,-0.41617 0,-0.18007 -0.064,-0.31613 -0.18808,-0.41217 -0.12405,-0.096 -0.30013,-0.14406 -0.53222,-0.14406 h -0.2241 z m 2.58908,2.50104 h -1.46461 l -1.12447,-1.74072 v 1.74072 h -1.17648 v -4.52588 h 1.83276 c 0.2521,0 0.47219,0.04 0.66027,0.11205 0.18808,0.076 0.34014,0.17607 0.46419,0.30413 0.12005,0.12805 0.21209,0.27611 0.27612,0.44418 0.06,0.16807 0.092,0.34814 0.092,0.54022 0,0.34415 -0.084,0.62426 -0.24811,0.83635 -0.16807,0.21209 -0.41217,0.36015 -0.7363,0.43618 z"
   style="fill:#8c8c8c;fill-rule:nonzero;stroke-width:4.00165987"
   id="path11544"
   inkscape:connector-curvature="0" />
  <g
   id="text9293-4"
   transform="matrix(4.00166,0,0,4.00166,24.7623,355.6098)">
    <rect
   x="0.15800001"
   y="-1.508"
   width="0.39199999"
   height="1.508"
   style="fill:#ffffff;fill-rule:nonzero"
   id="rect11548" />
    <path
   d="m 0.866,0 v -1.508 h 0.392 l 0.724,0.922 v -0.922 h 0.39 V 0 H 1.982 L 1.258,-0.922 V 0 Z"
   style="fill:#ffffff;fill-rule:nonzero"
   id="path11550"
   inkscape:connector-curvature="0" />
    <path
   d="m 3.08,-0.816 h 0.13 c 0.144,0 0.216,-0.063 0.216,-0.188 0,-0.125 -0.072,-0.188 -0.216,-0.188 H 3.08 Z M 3.08,0 H 2.688 v -1.508 h 0.624 c 0.169,0 0.299,0.044 0.389,0.132 0.09,0.088 0.135,0.212 0.135,0.372 0,0.16 -0.045,0.284 -0.135,0.372 C 3.611,-0.544 3.481,-0.5 3.312,-0.5 H 3.08 Z"
   style="fill:#ffffff;fill-rule:nonzero"
   id="path11552"
   inkscape:connector-curvature="0" />
    <path
   d="m 4.436,-1.508 v 0.82 c 0,0.044 0.002,0.089 0.005,0.135 0.003,0.046 0.013,0.088 0.03,0.125 0.017,0.037 0.043,0.068 0.079,0.091 0.036,0.023 0.087,0.035 0.152,0.035 0.065,0 0.116,-0.012 0.151,-0.035 0.035,-0.023 0.062,-0.054 0.079,-0.091 0.017,-0.037 0.028,-0.079 0.031,-0.125 0.003,-0.046 0.005,-0.091 0.005,-0.135 v -0.82 h 0.39 v 0.874 c 0,0.235 -0.054,0.406 -0.161,0.514 C 5.09,-0.012 4.925,0.042 4.702,0.042 4.479,0.042 4.314,-0.012 4.206,-0.12 4.098,-0.228 4.044,-0.399 4.044,-0.634 v -0.874 z"
   style="fill:#ffffff;fill-rule:nonzero"
   id="path11554"
   inkscape:connector-curvature="0" />
    <path
   d="M 6.246,-1.176 V 0 H 5.854 V -1.176 H 5.532 v -0.332 h 1.036 v 0.332 z"
   style="fill:#ffffff;fill-rule:nonzero"
   id="path11556"
   inkscape:connector-curvature="0" />
  </g>
  <g
   id="text9293-41"
   serif:id="text9293-4"
   transform="matrix(4.00166,0,0,4.00166,96.234,355.6098)">
    <path
   d="m 0.5,-0.754 c 0,0.06 0.011,0.116 0.034,0.166 0.022,0.051 0.053,0.095 0.092,0.132 0.038,0.038 0.083,0.066 0.135,0.087 0.051,0.021 0.105,0.031 0.163,0.031 0.057,0 0.111,-0.01 0.163,-0.031 0.051,-0.021 0.096,-0.049 0.135,-0.087 0.04,-0.037 0.071,-0.081 0.093,-0.132 0.023,-0.05 0.034,-0.106 0.034,-0.166 0,-0.06 -0.011,-0.115 -0.034,-0.166 C 1.293,-0.97 1.262,-1.014 1.222,-1.052 1.183,-1.089 1.138,-1.118 1.087,-1.139 1.035,-1.159 0.981,-1.17 0.924,-1.17 0.866,-1.17 0.812,-1.159 0.761,-1.139 0.709,-1.118 0.664,-1.089 0.626,-1.052 0.587,-1.014 0.556,-0.97 0.534,-0.92 0.511,-0.869 0.5,-0.814 0.5,-0.754 Z m -0.41,0 c 0,-0.112 0.021,-0.216 0.062,-0.313 0.041,-0.096 0.099,-0.18 0.172,-0.252 0.073,-0.072 0.161,-0.129 0.263,-0.169 0.102,-0.041 0.214,-0.061 0.337,-0.061 0.121,0 0.233,0.02 0.335,0.061 0.103,0.04 0.191,0.097 0.265,0.169 0.074,0.072 0.132,0.156 0.173,0.252 0.042,0.097 0.062,0.201 0.062,0.313 0,0.112 -0.02,0.217 -0.062,0.313 C 1.656,-0.344 1.598,-0.26 1.524,-0.188 1.45,-0.116 1.362,-0.06 1.259,-0.019 1.157,0.022 1.045,0.042 0.924,0.042 0.801,0.042 0.689,0.022 0.587,-0.019 0.485,-0.06 0.397,-0.116 0.324,-0.188 0.251,-0.26 0.193,-0.344 0.152,-0.441 0.111,-0.537 0.09,-0.642 0.09,-0.754 Z"
   style="fill:#ffffff;fill-rule:nonzero"
   id="path11561"
   inkscape:connector-curvature="0" />
    <path
   d="m 2.399,-1.507 v 0.819 c 0,0.044 0.002,0.089 0.005,0.135 0.003,0.046 0.013,0.088 0.03,0.125 0.017,0.037 0.043,0.068 0.079,0.091 0.036,0.023 0.087,0.035 0.152,0.035 0.065,0 0.116,-0.012 0.151,-0.035 0.035,-0.023 0.061,-0.054 0.079,-0.091 0.017,-0.037 0.027,-0.079 0.031,-0.125 0.003,-0.046 0.005,-0.091 0.005,-0.135 v -0.819 h 0.39 v 0.873 c 0,0.235 -0.054,0.406 -0.161,0.514 C 3.052,-0.012 2.887,0.042 2.665,0.042 2.442,0.042 2.277,-0.012 2.169,-0.12 2.061,-0.228 2.007,-0.399 2.007,-0.634 v -0.873 z"
   style="fill:#ffffff;fill-rule:nonzero"
   id="path11563"
   inkscape:connector-curvature="0" />
    <path
   d="M 4.208,-1.176 V 0 H 3.816 V -1.176 H 3.495 V -1.507 H 4.53 v 0.331 z"
   style="fill:#ffffff;fill-rule:nonzero"
   id="path11565"
   inkscape:connector-curvature="0" />
    <path
   d="m 5.096,-0.816 h 0.13 c 0.144,0 0.216,-0.062 0.216,-0.188 0,-0.125 -0.072,-0.188 -0.216,-0.188 H 5.096 Z M 5.096,0 H 4.704 v -1.507 h 0.624 c 0.169,0 0.299,0.044 0.389,0.132 0.09,0.088 0.135,0.211 0.135,0.371 0,0.16 -0.045,0.284 -0.135,0.372 C 5.627,-0.544 5.497,-0.5 5.328,-0.5 H 5.096 Z"
   style="fill:#ffffff;fill-rule:nonzero"
   id="path11567"
   inkscape:connector-curvature="0" />
    <path
   d="m 6.451,-1.507 v 0.819 c 0,0.044 0.002,0.089 0.005,0.135 0.004,0.046 0.014,0.088 0.03,0.125 0.017,0.037 0.043,0.068 0.079,0.091 0.036,0.023 0.087,0.035 0.152,0.035 0.066,0 0.116,-0.012 0.151,-0.035 0.035,-0.023 0.062,-0.054 0.079,-0.091 0.017,-0.037 0.028,-0.079 0.031,-0.125 0.003,-0.046 0.005,-0.091 0.005,-0.135 v -0.819 h 0.39 v 0.873 c 0,0.235 -0.054,0.406 -0.161,0.514 C 7.105,-0.012 6.94,0.042 6.717,0.042 6.495,0.042 6.329,-0.012 6.221,-0.12 6.113,-0.228 6.059,-0.399 6.059,-0.634 v -0.873 z"
   style="fill:#ffffff;fill-rule:nonzero"
   id="path11569"
   inkscape:connector-curvature="0" />
    <path
   d="M 8.261,-1.176 V 0 H 7.869 V -1.176 H 7.547 v -0.331 h 1.035 v 0.331 z"
   style="fill:#ffffff;fill-rule:nonzero"
   id="path11571"
   inkscape:connector-curvature="0" />
  </g>
  <path
   d="m 66.079457,217.08437 c 5.878438,-10.18422 3.577484,-23.24564 -5.430253,-30.80478 -9.007736,-7.55513 -22.273239,-7.55513 -31.280976,0 -9.007737,7.55914 -11.308691,20.62056 -5.430253,30.80478"
   style="fill:none;stroke:#cccccc;stroke-width:1.5;stroke-miterlimit:4;stroke-dasharray:none;stroke-linecap:round"
   id="path11576"
   inkscape:connector-curvature="0" />
  <path
   d="m 122.90355,199.66217 c 2.73714,-4.74196 1.66469,-10.82449 -2.53305,-14.34595 -4.19374,-3.52146 -10.3723,-3.52146 -14.56604,0 -4.19774,3.52146 -5.27019,9.60399 -2.53305,14.34595 l 9.81607,-5.66635 z"
   style="fill:none;stroke:#cccccc;stroke-width:1;stroke-miterlimit:4;stroke-dasharray:none;stroke-linecap:round"
   id="path11579"
   inkscape:connector-curvature="0" />
  <path
   d="m 122.5314,200.85867 0.024,4.40983"
   style="fill:#cccccc;fill-rule:nonzero;stroke:#cccccc;stroke-width:1;stroke-miterlimit:4;stroke-dasharray:none;stroke-linecap:round"
   id="path11582"
   inkscape:connector-curvature="0" />
  <path
   d="m 124.74832,203.03157 -4.40983,0.02"
   style="fill:#cccccc;fill-rule:nonzero;stroke:#cccccc;stroke-width:1;stroke-miterlimit:4;stroke-dasharray:none;stroke-linecap:round"
   id="path11585"
   inkscape:connector-curvature="0" />
  <path
   d="m 106.42872,202.90752 -4.41383,0.02"
   style="fill:#cccccc;fill-rule:nonzero;stroke:#cccccc;stroke-width:1;stroke-miterlimit:4;stroke-dasharray:none;stroke-linecap:round"
   id="path11588"
   inkscape:connector-curvature="0" />
  <path
   d="m 113.08748,193.99982 -0.024,-13.30952"
   style="fill:none;stroke:#cccccc;stroke-width:1;stroke-miterlimit:4;stroke-dasharray:none;stroke-linecap:round"
   id="path11591"
   inkscape:connector-curvature="0" />
  <path
   d="m 66.382657,149.90737 c 5.878438,-10.18422 3.577484,-23.24564 -5.430253,-30.80478 -9.007736,-7.55513 -22.273239,-7.55513 -31.280976,0 -9.007737,7.55914 -11.308691,20.62056 -5.430253,30.80478"
   style="fill:none;stroke:#cccccc;stroke-width:1.5;stroke-miterlimit:4;stroke-dasharray:none;stroke-linecap:round"
   id="path11594"
   inkscape:connector-curvature="0" />
  <path
   inkscape:connector-curvature="0"
   id="path11597"
   style="fill:none;stroke:#cccccc;stroke-width:1;stroke-miterlimit:4;stroke-dasharray:none;stroke-linecap:round"
   d="m 122.90358,132.66237 c 2.73714,-4.74196 1.66469,-10.82449 -2.53305,-14.34595 -4.19374,-3.52146 -10.3723,-3.52146 -14.56604,0 -4.19774,3.52146 -5.27019,9.60399 -2.53305,14.34595 l 9.81607,-5.66635 z" />
  <path
   inkscape:connector-curvature="0"
   id="path11600"
   style="fill:#cccccc;fill-rule:nonzero;stroke:#cccccc;stroke-width:1;stroke-miterlimit:4;stroke-dasharray:none;stroke-linecap:round"
   d="m 122.53143,133.85887 0.024,4.40983" />
  <path
   inkscape:connector-curvature="0"
   id="path11603"
   style="fill:#cccccc;fill-rule:nonzero;stroke:#cccccc;stroke-width:1;stroke-miterlimit:4;stroke-dasharray:none;stroke-linecap:round"
   d="m 124.74835,136.03177 -4.40983,0.02" />
  <path
   inkscape:connector-curvature="0"
   id="path11606"
   style="fill:#cccccc;fill-rule:nonzero;stroke:#cccccc;stroke-width:1;stroke-miterlimit:4;stroke-dasharray:none;stroke-linecap:round"
   d="m 106.42875,135.90772 -4.41383,0.02" />
  <path
   inkscape:connector-curvature="0"
   id="path11609"
   style="fill:none;stroke:#cccccc;stroke-width:1;stroke-miterlimit:4;stroke-dasharray:none;stroke-linecap:round"
   d="m 113.08751,127.00002 -0.024,-13.30952" />
  <path
   inkscape:connector-curvature="0"
   id="path11614"
   style="fill:none;stroke:#cccccc;stroke-width:1.5;stroke-miterlimit:4;stroke-dasharray:none;stroke-linecap:round"
   d="m 66.382647,84.907572 c 5.878438,-10.184225 3.577484,-23.245643 -5.430253,-30.804779 -9.007736,-7.555134 -22.273239,-7.555134 -31.280976,0 -9.007737,7.559136 -11.308691,20.620554 -5.430253,30.804779" />
  <g
   id="path9488-2-9"
   transform="matrix(4.00166,0,0,4.00166,-6.2853,-926.528)"
   style="stroke-width:0.24989629;stroke-miterlimit:4;stroke-dasharray:none">
    <circle
   cx="8.3610001"
   cy="255.07001"
   r="0.926"
   style="fill:none;stroke:#cccccc;stroke-width:0.24989629;stroke-miterlimit:4;stroke-dasharray:none"
   id="circle11617" />
  </g>
  <g
   id="path9488-2-6-0"
   transform="matrix(4.00166,0,0,4.00166,-6.2853,-926.528)"
   style="stroke-width:0.24989629;stroke-miterlimit:4;stroke-dasharray:none">
    <circle
   cx="17.802"
   cy="254.942"
   r="0.926"
   style="fill:#cccccc;stroke:#cccccc;stroke-width:0.24989629;stroke-miterlimit:4;stroke-dasharray:none"
   id="circle11620" />
  </g>
  <g
   id="text9293-42"
   serif:id="text9293-4"
   transform="matrix(4.00166,0,0,4.00166,31.4589,103.7438)">
    <path
   d="m 0.55,-0.304 h 0.086 c 0.099,0 0.169,-0.013 0.212,-0.038 0.043,-0.025 0.064,-0.066 0.064,-0.122 0,-0.056 -0.021,-0.097 -0.064,-0.122 C 0.805,-0.611 0.735,-0.624 0.636,-0.624 H 0.55 Z m 0,-0.612 h 0.072 c 0.123,0 0.184,-0.049 0.184,-0.146 0,-0.097 -0.061,-0.146 -0.184,-0.146 H 0.55 Z M 0.158,-1.508 h 0.584 c 0.139,0 0.244,0.033 0.316,0.1 0.072,0.067 0.108,0.163 0.108,0.288 0,0.076 -0.014,0.139 -0.041,0.189 -0.027,0.05 -0.069,0.092 -0.125,0.127 0.056,0.011 0.104,0.027 0.143,0.049 0.039,0.022 0.071,0.049 0.096,0.081 0.025,0.032 0.042,0.068 0.053,0.108 0.011,0.04 0.016,0.083 0.016,0.128 0,0.071 -0.012,0.133 -0.037,0.188 C 1.246,-0.195 1.212,-0.149 1.167,-0.112 1.122,-0.075 1.068,-0.047 1.004,-0.028 0.94,-0.009 0.868,0 0.788,0 h -0.63 z"
   style="fill:#ffffff;fill-rule:nonzero"
   id="path11625"
   inkscape:connector-curvature="0" />
    <path
   d="m 1.934,-1.508 v 1.176 h 0.47 V 0 H 1.542 v -1.508 z"
   style="fill:#ffffff;fill-rule:nonzero"
   id="path11627"
   inkscape:connector-curvature="0" />
    <path
   d="M 3.464,-1.176 H 2.998 v 0.252 h 0.44 v 0.332 h -0.44 v 0.26 H 3.464 V 0 H 2.606 v -1.508 h 0.858 z"
   style="fill:#ffffff;fill-rule:nonzero"
   id="path11629"
   inkscape:connector-curvature="0" />
    <path
   d="m 3.746,0 v -1.508 h 0.392 l 0.724,0.922 v -0.922 h 0.39 V 0 H 4.862 L 4.138,-0.922 V 0 Z"
   style="fill:#ffffff;fill-rule:nonzero"
   id="path11631"
   inkscape:connector-curvature="0" />
    <path
   d="m 5.96,-0.332 h 0.09 c 0.068,0 0.129,-0.011 0.182,-0.032 C 6.285,-0.385 6.33,-0.415 6.367,-0.452 6.404,-0.489 6.432,-0.534 6.451,-0.585 6.47,-0.636 6.48,-0.693 6.48,-0.754 6.48,-0.814 6.47,-0.87 6.45,-0.922 6.43,-0.974 6.402,-1.019 6.365,-1.056 6.328,-1.093 6.283,-1.123 6.23,-1.144 6.177,-1.165 6.117,-1.176 6.05,-1.176 H 5.96 Z M 5.568,-1.508 h 0.58 c 0.103,0 0.199,0.021 0.289,0.062 0.09,0.041 0.169,0.096 0.236,0.165 0.067,0.069 0.12,0.149 0.159,0.24 0.039,0.091 0.058,0.187 0.058,0.287 0,0.099 -0.019,0.194 -0.057,0.285 C 6.795,-0.378 6.742,-0.297 6.675,-0.228 6.608,-0.159 6.529,-0.103 6.439,-0.062 6.349,-0.021 6.252,0 6.148,0 h -0.58 z"
   style="fill:#ffffff;fill-rule:nonzero"
   id="path11633"
   inkscape:connector-curvature="0" />
  </g>
  <g
   id="text9293-43"
   serif:id="text9293-4"
   transform="matrix(4.00166,0,0,4.00166,22.7857,160.8798)">
    <rect
   x="0"
   y="-0.68599999"
   width="0.574"
   height="0.30199999"
   style="fill:#ffffff;fill-rule:nonzero"
   id="rect11638" />
    <path
   d="M 1.104,-1.176 H 0.884 V -1.507 H 1.495 V 0 H 1.104 Z"
   style="fill:#ffffff;fill-rule:nonzero"
   id="path11640"
   inkscape:connector-curvature="0" />
  </g>
  <g
   id="text9293-44"
   serif:id="text9293-4"
   transform="matrix(4.00166,0,0,4.00166,59.91183,160.2858)">
    <rect
   x="0"
   y="-0.68599999"
   width="0.574"
   height="0.30199999"
   style="fill:#ffffff;fill-rule:nonzero"
   id="rect11645" />
    <path
   d="M 1.843,0 H 0.63 L 1.004,-0.388 C 1.102,-0.49 1.18,-0.577 1.235,-0.649 1.291,-0.72 1.333,-0.78 1.36,-0.83 1.388,-0.879 1.405,-0.919 1.411,-0.95 1.418,-0.98 1.421,-1.006 1.421,-1.028 1.421,-1.05 1.418,-1.072 1.41,-1.094 1.403,-1.115 1.392,-1.134 1.377,-1.151 1.363,-1.167 1.345,-1.181 1.324,-1.191 1.304,-1.201 1.279,-1.205 1.251,-1.205 c -0.053,0 -0.094,0.017 -0.124,0.051 -0.03,0.035 -0.045,0.078 -0.045,0.13 0,0.015 0.002,0.036 0.006,0.064 H 0.66 c 0,-0.088 0.014,-0.168 0.043,-0.24 0.028,-0.071 0.069,-0.133 0.121,-0.185 0.052,-0.052 0.113,-0.092 0.185,-0.12 0.071,-0.028 0.149,-0.042 0.234,-0.042 0.084,0 0.162,0.013 0.233,0.04 0.072,0.026 0.133,0.064 0.185,0.112 0.052,0.048 0.093,0.105 0.122,0.171 0.03,0.065 0.044,0.137 0.044,0.214 0,0.083 -0.017,0.159 -0.053,0.229 -0.035,0.07 -0.091,0.142 -0.169,0.215 l -0.25,0.234 h 0.488 z"
   style="fill:#ffffff;fill-rule:nonzero"
   id="path11647"
   inkscape:connector-curvature="0" />
  </g>
  <g
   id="text9293-45"
   serif:id="text9293-4"
   transform="matrix(4.00166,0,0,4.00166,30.587,169.2828)">
    <path
   d="m 0.437,-0.659 c 0,0.052 0.01,0.1 0.03,0.145 0.02,0.044 0.047,0.083 0.081,0.115 0.033,0.033 0.073,0.058 0.118,0.076 0.044,0.018 0.092,0.027 0.142,0.027 0.05,0 0.098,-0.009 0.143,-0.027 0.045,-0.018 0.084,-0.043 0.119,-0.076 0.034,-0.032 0.061,-0.071 0.081,-0.115 0.02,-0.045 0.03,-0.093 0.03,-0.145 0,-0.053 -0.01,-0.101 -0.03,-0.146 C 1.131,-0.849 1.104,-0.887 1.07,-0.92 1.035,-0.953 0.996,-0.978 0.951,-0.996 0.906,-1.014 0.858,-1.023 0.808,-1.023 c -0.05,0 -0.098,0.009 -0.142,0.027 -0.045,0.018 -0.085,0.043 -0.118,0.076 -0.034,0.033 -0.061,0.071 -0.081,0.115 -0.02,0.045 -0.03,0.093 -0.03,0.146 z m -0.358,0 c 0,-0.098 0.018,-0.19 0.054,-0.274 0.036,-0.085 0.086,-0.159 0.15,-0.222 0.065,-0.062 0.141,-0.112 0.23,-0.147 0.09,-0.036 0.188,-0.054 0.295,-0.054 0.106,0 0.204,0.018 0.294,0.054 0.09,0.035 0.167,0.085 0.232,0.147 0.065,0.063 0.115,0.137 0.151,0.222 0.036,0.084 0.054,0.176 0.054,0.274 0,0.097 -0.018,0.189 -0.054,0.273 C 1.449,-0.301 1.399,-0.227 1.334,-0.164 1.269,-0.101 1.192,-0.052 1.102,-0.017 1.012,0.019 0.914,0.037 0.808,0.037 0.701,0.037 0.603,0.019 0.513,-0.017 0.424,-0.052 0.348,-0.101 0.283,-0.164 0.219,-0.227 0.169,-0.301 0.133,-0.386 0.097,-0.47 0.079,-0.562 0.079,-0.659 Z"
   style="fill:#ffffff;fill-rule:nonzero"
   id="path11652"
   inkscape:connector-curvature="0" />
    <path
   d="M 2.706,-0.878 C 2.627,-0.975 2.529,-1.023 2.412,-1.023 c -0.051,0 -0.099,0.009 -0.142,0.028 -0.044,0.018 -0.082,0.044 -0.113,0.076 -0.032,0.032 -0.056,0.07 -0.074,0.114 -0.019,0.045 -0.028,0.092 -0.028,0.144 0,0.052 0.009,0.101 0.028,0.145 0.018,0.044 0.043,0.083 0.075,0.115 0.032,0.033 0.069,0.059 0.113,0.077 0.043,0.019 0.089,0.028 0.139,0.028 0.11,0 0.209,-0.046 0.296,-0.14 V -0.03 L 2.671,-0.017 C 2.619,0.001 2.57,0.015 2.524,0.024 2.479,0.032 2.434,0.037 2.39,0.037 2.299,0.037 2.211,0.02 2.128,-0.015 2.045,-0.049 1.971,-0.098 1.908,-0.16 1.844,-0.222 1.793,-0.297 1.755,-0.382 1.716,-0.468 1.697,-0.562 1.697,-0.663 c 0,-0.101 0.019,-0.194 0.057,-0.279 0.038,-0.085 0.088,-0.157 0.152,-0.219 0.063,-0.061 0.137,-0.109 0.221,-0.143 0.084,-0.034 0.172,-0.052 0.264,-0.052 0.053,0 0.104,0.006 0.155,0.017 0.051,0.011 0.104,0.028 0.16,0.052 z"
   style="fill:#ffffff;fill-rule:nonzero"
   id="path11654"
   inkscape:connector-curvature="0" />
    <path
   d="M 3.423,-1.029 V 0 H 3.08 V -1.029 H 2.799 v -0.29 h 0.906 v 0.29 z"
   style="fill:#ffffff;fill-rule:nonzero"
   id="path11656"
   inkscape:connector-curvature="0" />
    <path
   d="M 4.513,-0.49 4.359,-0.929 4.205,-0.49 Z m 0.091,0.261 H 4.114 L 4.036,0 H 3.67 L 4.172,-1.319 H 4.546 L 5.048,0 H 4.683 Z"
   style="fill:#ffffff;fill-rule:nonzero"
   id="path11658"
   inkscape:connector-curvature="0" />
    <path
   d="M 5.332,-1.319 5.65,-0.516 5.97,-1.319 H 6.343 L 5.787,0 H 5.514 L 4.959,-1.319 Z"
   style="fill:#ffffff;fill-rule:nonzero"
   id="path11660"
   inkscape:connector-curvature="0" />
    <path
   d="M 7.231,-1.029 H 6.824 v 0.221 h 0.385 v 0.29 H 6.824 V -0.29 H 7.231 V 0 h -0.75 v -1.319 h 0.75 z"
   style="fill:#ffffff;fill-rule:nonzero"
   id="path11662"
   inkscape:connector-curvature="0" />
  </g>
  <g
   id="text9293-46"
   serif:id="text9293-4"
   transform="matrix(4.00166,0,0,4.00166,34.587,235.2828)">
    <path
   d="m 0.437,-0.659 c 0,0.052 0.01,0.1 0.03,0.145 0.02,0.044 0.047,0.083 0.081,0.115 0.033,0.033 0.073,0.058 0.118,0.076 0.044,0.018 0.092,0.027 0.142,0.027 0.05,0 0.098,-0.009 0.143,-0.027 0.045,-0.018 0.084,-0.043 0.119,-0.076 0.034,-0.032 0.061,-0.071 0.081,-0.115 0.02,-0.045 0.03,-0.093 0.03,-0.145 0,-0.053 -0.01,-0.101 -0.03,-0.146 C 1.131,-0.849 1.104,-0.887 1.07,-0.92 1.035,-0.953 0.996,-0.978 0.951,-0.996 0.906,-1.014 0.858,-1.023 0.808,-1.023 c -0.05,0 -0.098,0.009 -0.142,0.027 -0.045,0.018 -0.085,0.043 -0.118,0.076 -0.034,0.033 -0.061,0.071 -0.081,0.115 -0.02,0.045 -0.03,0.093 -0.03,0.146 z m -0.358,0 c 0,-0.098 0.018,-0.19 0.054,-0.274 0.036,-0.085 0.086,-0.159 0.15,-0.222 0.065,-0.062 0.141,-0.112 0.23,-0.147 0.09,-0.036 0.188,-0.054 0.295,-0.054 0.106,0 0.204,0.018 0.294,0.054 0.09,0.035 0.167,0.085 0.232,0.147 0.065,0.063 0.115,0.137 0.151,0.222 0.036,0.084 0.054,0.176 0.054,0.274 0,0.097 -0.018,0.189 -0.054,0.273 C 1.449,-0.301 1.399,-0.227 1.334,-0.164 1.269,-0.101 1.192,-0.052 1.102,-0.017 1.012,0.019 0.914,0.037 0.808,0.037 0.701,0.037 0.603,0.019 0.513,-0.017 0.424,-0.052 0.348,-0.101 0.283,-0.164 0.219,-0.227 0.169,-0.301 0.133,-0.386 0.097,-0.47 0.079,-0.562 0.079,-0.659 Z"
   style="fill:#ffffff;fill-rule:nonzero"
   id="path11667"
   inkscape:connector-curvature="0" />
    <path
   d="M 2.706,-0.878 C 2.627,-0.975 2.529,-1.023 2.412,-1.023 c -0.051,0 -0.099,0.009 -0.142,0.028 -0.044,0.018 -0.082,0.044 -0.113,0.076 -0.032,0.032 -0.056,0.07 -0.074,0.114 -0.019,0.045 -0.028,0.092 -0.028,0.144 0,0.052 0.009,0.101 0.028,0.145 0.018,0.044 0.043,0.083 0.075,0.115 0.032,0.033 0.069,0.059 0.113,0.077 0.043,0.019 0.089,0.028 0.139,0.028 0.11,0 0.209,-0.046 0.296,-0.14 V -0.03 L 2.671,-0.017 C 2.619,0.001 2.57,0.015 2.524,0.024 2.479,0.032 2.434,0.037 2.39,0.037 2.299,0.037 2.211,0.02 2.128,-0.015 2.045,-0.049 1.971,-0.098 1.908,-0.16 1.844,-0.222 1.793,-0.297 1.755,-0.382 1.716,-0.468 1.697,-0.562 1.697,-0.663 c 0,-0.101 0.019,-0.194 0.057,-0.279 0.038,-0.085 0.088,-0.157 0.152,-0.219 0.063,-0.061 0.137,-0.109 0.221,-0.143 0.084,-0.034 0.172,-0.052 0.264,-0.052 0.053,0 0.104,0.006 0.155,0.017 0.051,0.011 0.104,0.028 0.16,0.052 z"
   style="fill:#ffffff;fill-rule:nonzero"
   id="path11669"
   inkscape:connector-curvature="0" />
    <path
   d="M 3.423,-1.029 V 0 H 3.08 V -1.029 H 2.799 v -0.29 h 0.906 v 0.29 z"
   style="fill:#ffffff;fill-rule:nonzero"
   id="path11671"
   inkscape:connector-curvature="0" />
    <rect
   x="3.7379999"
   y="-0.60000002"
   width="0.50199997"
   height="0.264"
   style="fill:#ffffff;fill-rule:nonzero"
   id="rect11673" />
    <path
   d="M 4.704,-1.029 H 4.511 v -0.29 H 5.047 V 0 H 4.704 Z"
   style="fill:#ffffff;fill-rule:nonzero"
   id="path11675"
   inkscape:connector-curvature="0" />
  </g>
  <path
   inkscape:connector-curvature="0"
   id="path11680"
   style="fill:none;stroke:#cccccc;stroke-width:1.5;stroke-linejoin:round;stroke-miterlimit:4;stroke-dasharray:none;stroke-linecap:round"
   d="m 23,226 h 8" />
  <path
   inkscape:connector-curvature="0"
   id="path11684"
   style="fill:none;stroke:#cccccc;stroke-width:1.5;stroke-linejoin:round;stroke-miterlimit:4;stroke-dasharray:none;stroke-linecap:round"
   d="m 26.9139,230.0178 v -8" />
  <path
   inkscape:connector-curvature="0"
   id="path11690"
   style="fill:none;stroke:#cccccc;stroke-width:1.5;stroke-linejoin:round;stroke-miterlimit:1.5;stroke-dasharray:none;stroke-linecap:round"
   d="m 62.159423,228.83365 5.656854,-5.65685" />
  <path
   inkscape:connector-curvature="0"
   id="path11694"
   style="fill:none;stroke:#cccccc;stroke-width:1.5;stroke-linejoin:round;stroke-miterlimit:4;stroke-dasharray:none;stroke-linecap:round"
   d="m 67.76798,228.90712 -5.656855,-5.65685" />
  <g
   id="text9293-47"
   serif:id="text9293-4"
   transform="matrix(4.00166,0,0,4.00166,34.587,302.2828)">
    <path
   d="m 0.437,-0.659 c 0,0.052 0.01,0.1 0.03,0.145 0.02,0.044 0.047,0.083 0.081,0.115 0.033,0.033 0.073,0.058 0.118,0.076 0.044,0.018 0.092,0.027 0.142,0.027 0.05,0 0.098,-0.009 0.143,-0.027 0.045,-0.018 0.084,-0.043 0.119,-0.076 0.034,-0.032 0.061,-0.071 0.081,-0.115 0.02,-0.045 0.03,-0.093 0.03,-0.145 0,-0.053 -0.01,-0.101 -0.03,-0.146 C 1.131,-0.849 1.104,-0.887 1.07,-0.92 1.035,-0.953 0.996,-0.978 0.951,-0.996 0.906,-1.014 0.858,-1.023 0.808,-1.023 c -0.05,0 -0.098,0.009 -0.142,0.027 -0.045,0.018 -0.085,0.043 -0.118,0.076 -0.034,0.033 -0.061,0.071 -0.081,0.115 -0.02,0.045 -0.03,0.093 -0.03,0.146 z m -0.358,0 c 0,-0.098 0.018,-0.19 0.054,-0.274 0.036,-0.085 0.086,-0.159 0.15,-0.222 0.065,-0.062 0.141,-0.112 0.23,-0.147 0.09,-0.036 0.188,-0.054 0.295,-0.054 0.106,0 0.204,0.018 0.294,0.054 0.09,0.035 0.167,0.085 0.232,0.147 0.065,0.063 0.115,0.137 0.151,0.222 0.036,0.084 0.054,0.176 0.054,0.274 0,0.097 -0.018,0.189 -0.054,0.273 C 1.449,-0.301 1.399,-0.227 1.334,-0.164 1.269,-0.101 1.192,-0.052 1.102,-0.017 1.012,0.019 0.914,0.037 0.808,0.037 0.701,0.037 0.603,0.019 0.513,-0.017 0.424,-0.052 0.348,-0.101 0.283,-0.164 0.219,-0.227 0.169,-0.301 0.133,-0.386 0.097,-0.47 0.079,-0.562 0.079,-0.659 Z"
   style="fill:#ffffff;fill-rule:nonzero"
   id="path11700"
   inkscape:connector-curvature="0" />
    <path
   d="M 2.706,-0.878 C 2.627,-0.975 2.529,-1.023 2.412,-1.023 c -0.051,0 -0.099,0.009 -0.142,0.028 -0.044,0.018 -0.082,0.044 -0.113,0.076 -0.032,0.032 -0.056,0.07 -0.074,0.114 -0.019,0.045 -0.028,0.092 -0.028,0.144 0,0.052 0.009,0.101 0.028,0.145 0.018,0.044 0.043,0.083 0.075,0.115 0.032,0.033 0.069,0.059 0.113,0.077 0.043,0.019 0.089,0.028 0.139,0.028 0.11,0 0.209,-0.046 0.296,-0.14 V -0.03 L 2.671,-0.017 C 2.619,0.001 2.57,0.015 2.524,0.024 2.479,0.032 2.434,0.037 2.39,0.037 2.299,0.037 2.211,0.02 2.128,-0.015 2.045,-0.049 1.971,-0.098 1.908,-0.16 1.844,-0.222 1.793,-0.297 1.755,-0.382 1.716,-0.468 1.697,-0.562 1.697,-0.663 c 0,-0.101 0.019,-0.194 0.057,-0.279 0.038,-0.085 0.088,-0.157 0.152,-0.219 0.063,-0.061 0.137,-0.109 0.221,-0.143 0.084,-0.034 0.172,-0.052 0.264,-0.052 0.053,0 0.104,0.006 0.155,0.017 0.051,0.011 0.104,0.028 0.16,0.052 z"
   style="fill:#ffffff;fill-rule:nonzero"
   id="path11702"
   inkscape:connector-curvature="0" />
    <path
   d="M 3.423,-1.029 V 0 H 3.08 V -1.029 H 2.799 v -0.29 h 0.906 v 0.29 z"
   style="fill:#ffffff;fill-rule:nonzero"
   id="path11704"
   inkscape:connector-curvature="0" />
    <rect
   x="3.7379999"
   y="-0.60000002"
   width="0.50199997"
   height="0.264"
   style="fill:#ffffff;fill-rule:nonzero"
   id="rect11706" />
    <path
   d="M 5.351,0 H 4.289 l 0.327,-0.339 c 0.087,-0.09 0.154,-0.166 0.203,-0.229 0.049,-0.062 0.086,-0.115 0.11,-0.158 0.023,-0.043 0.038,-0.078 0.044,-0.105 0.006,-0.027 0.009,-0.049 0.009,-0.068 0,-0.02 -0.003,-0.039 -0.01,-0.058 C 4.966,-0.976 4.956,-0.992 4.943,-1.007 4.931,-1.021 4.915,-1.033 4.897,-1.042 4.879,-1.05 4.858,-1.055 4.833,-1.055 c -0.046,0 -0.083,0.015 -0.109,0.046 -0.026,0.03 -0.039,0.068 -0.039,0.113 0,0.013 0.001,0.032 0.005,0.056 H 4.315 c 0,-0.077 0.013,-0.147 0.038,-0.21 0.025,-0.063 0.06,-0.117 0.106,-0.162 0.045,-0.046 0.099,-0.081 0.162,-0.105 0.062,-0.025 0.131,-0.037 0.205,-0.037 0.074,0 0.142,0.012 0.204,0.035 0.062,0.023 0.116,0.056 0.162,0.098 0.045,0.042 0.081,0.092 0.107,0.15 0.025,0.057 0.038,0.12 0.038,0.188 0,0.072 -0.015,0.139 -0.046,0.2 -0.031,0.061 -0.08,0.124 -0.148,0.188 L 4.924,-0.29 h 0.427 z"
   style="fill:#ffffff;fill-rule:nonzero"
   id="path11708"
   inkscape:connector-curvature="0" />
  </g>
  <path
   inkscape:connector-curvature="0"
   id="path11713"
   style="fill:none;stroke:#cccccc;stroke-width:1.5;stroke-linejoin:round;stroke-miterlimit:1.5;stroke-linecap:round;stroke-dasharray:none"
   d="m 23,293 h 8" />
  <path
   inkscape:connector-curvature="0"
   id="path11717"
   style="fill:none;stroke:#cccccc;stroke-width:1.5;stroke-linejoin:round;stroke-miterlimit:1.5;stroke-linecap:round;stroke-dasharray:none"
   d="m 26.9139,297.0178 v -8" />
  <path
   inkscape:connector-curvature="0"
   id="path11723"
   style="fill:none;stroke:#cccccc;stroke-width:1.5;stroke-linejoin:round;stroke-miterlimit:1.5;stroke-linecap:round;stroke-dasharray:none"
   d="m 62.159453,295.83384 5.656854,-5.65685" />
  <path
   inkscape:connector-curvature="0"
   id="path11727"
   style="fill:none;stroke:#cccccc;stroke-width:1.5;stroke-linejoin:round;stroke-miterlimit:1.5;stroke-linecap:round;stroke-dasharray:none"
   d="M 67.768015,295.9073 62.11116,290.25044" />
  <path
   d="m 66.079457,284.08437 c 5.878438,-10.18422 3.577484,-23.24564 -5.430253,-30.80478 -9.007736,-7.55513 -22.273239,-7.55513 -31.280976,0 -9.007737,7.55914 -11.308691,20.62056 -5.430253,30.80478"
   style="fill:none;stroke:#cccccc;stroke-width:1.5;stroke-miterlimit:4;stroke-dasharray:none;stroke-linecap:round"
   id="path11733"
   inkscape:connector-curvature="0" />
  <path
   d="m 122.90355,266.66217 c 2.73714,-4.74196 1.66469,-10.82449 -2.53305,-14.34595 -4.19374,-3.52146 -10.3723,-3.52146 -14.56604,0 -4.19774,3.52146 -5.27019,9.60399 -2.53305,14.34595 l 9.81607,-5.66635 z"
   style="fill:none;stroke:#cccccc;stroke-width:1;stroke-miterlimit:4;stroke-dasharray:none;stroke-linecap:round"
   id="path11736"
   inkscape:connector-curvature="0" />
  <path
   d="m 122.5314,267.85867 0.024,4.40983"
   style="fill:#cccccc;fill-rule:nonzero;stroke:#cccccc;stroke-width:1;stroke-miterlimit:4;stroke-dasharray:none;stroke-linecap:round"
   id="path11739"
   inkscape:connector-curvature="0" />
  <path
   d="m 124.74832,270.03157 -4.40983,0.02"
   style="fill:#cccccc;fill-rule:nonzero;stroke:#cccccc;stroke-width:1;stroke-miterlimit:4;stroke-dasharray:none;stroke-linecap:round"
   id="path11742"
   inkscape:connector-curvature="0" />
  <path
   d="m 106.42872,269.90752 -4.41383,0.02"
   style="fill:#cccccc;fill-rule:nonzero;stroke:#cccccc;stroke-width:1;stroke-miterlimit:4;stroke-dasharray:none;stroke-linecap:round"
   id="path11745"
   inkscape:connector-curvature="0" />
  <path
   d="m 113.08748,260.99982 -0.024,-13.30952"
   style="fill:none;stroke:#cccccc;stroke-width:1;stroke-miterlimit:4;stroke-dasharray:none;stroke-linecap:round"
   id="path11748"
   inkscape:connector-curvature="0" />
  <path
   inkscape:connector-curvature="0"
   id="path11751"
   style="fill:none;stroke:#cccccc;stroke-width:1;stroke-miterlimit:4;stroke-dasharray:none;stroke-linecap:round"
   d="m 122.90358,66.662373 c 2.73714,-4.741967 1.66469,-10.824491 -2.53305,-14.345951 -4.19374,-3.521461 -10.3723,-3.521461 -14.56604,0 -4.19774,3.52146 -5.27019,9.603984 -2.53305,14.345951 l 9.81607,-5.666351 z" />
  <path
   inkscape:connector-curvature="0"
   id="path11754"
   style="fill:#cccccc;fill-rule:nonzero;stroke:#cccccc;stroke-width:1;stroke-miterlimit:4;stroke-dasharray:none;stroke-linecap:round"
   d="m 122.53143,67.858869 0.024,4.409829" />
  <path
   inkscape:connector-curvature="0"
   id="path11757"
   style="fill:#cccccc;fill-rule:nonzero;stroke:#cccccc;stroke-width:1;stroke-miterlimit:4;stroke-dasharray:none;stroke-linecap:round"
   d="m 124.74835,70.03177 -4.40983,0.02001" />
  <path
   inkscape:connector-curvature="0"
   id="path11760"
   style="fill:#cccccc;fill-rule:nonzero;stroke:#cccccc;stroke-width:1;stroke-miterlimit:4;stroke-dasharray:none;stroke-linecap:round"
   d="m 106.42875,69.907719 -4.41383,0.02001" />
  <path
   inkscape:connector-curvature="0"
   id="path11763"
   style="fill:none;stroke:#cccccc;stroke-width:1;stroke-miterlimit:4;stroke-dasharray:none;stroke-linecap:round"
   d="m 113.08751,61.000024 -0.024,-13.309521" />
</svg>