<svg width="13px" height="37px" version="1.1" xmlns="http://www.w3.org/2000/svg" xmlns:xlink="http://www.w3.org/1999/xlink" xml:space="preserve" xmlns:serif="http://www.serif.com/" style="fill-rule:evenodd;clip-rule:evenodd;stroke-linecap:round;stroke-linejoin:round;stroke-miterlimit:1.5;">
  <path id="path1060" d="M0.664,0.714l2.32,2.474l0,30.663l-2.32,2.422l0,-35.559Z" style="fill:rgb(90,90,90);"/>
  <path id="path1062" d="M0.664,0.714l11.668,0l-2.395,2.474l-6.953,-0.001l-2.32,-2.473Z" style="fill:rgb(51,51,51);"/>
  <path id="path1064" d="M9.938,3.188l2.394,-2.474l0,35.559l-2.395,-2.422l0,-30.664Z" style="fill:rgb(90,90,90);"/>
  <path id="path1066" d="M0.664,36.273l2.32,-2.422l6.954,0l2.394,2.422l-11.668,0Z" style="fill:rgb(200,200,200);"/>
  <path id="path2589" d="M10.321,3.567c0,-0.921 -0.628,-1.669 -1.401,-1.669l-4.84,0c-0.773,0 -1.401,0.748 -1.401,1.669l0,29.176c0,0.921 0.628,1.669 1.401,1.669l4.84,0c0.773,0 1.401,-0.748 1.401,-1.669l0,-29.176Z" style="fill:rgb(20,20,20);"/>
  <g id="g2643">
    <path id="path2595" d="M11.824,12.947c0,-0.546 -0.444,-0.99 -0.99,-0.99l-8.756,0c-0.546,0 -0.99,0.444 -0.99,0.99l0,8.754c0,0.546 0.444,0.99 0.99,0.99l8.756,0c0.546,0 0.99,-0.444 0.99,-0.99l0,-8.754Z" style="fill:rgb(51,51,51);stroke:black;stroke-width:0.7px;"/>
    <path id="path2599" d="M11.563,13.212c0,-0.512 -0.416,-0.928 -0.929,-0.928l-8.335,0c-0.512,0 -0.928,0.416 -0.928,0.928l0,8.213c0,0.512 0.416,0.928 0.928,0.928l8.335,0c0.513,0 0.929,-0.416 0.929,-0.928l0,-8.213Z" style="fill:none;stroke:rgb(115,115,115);stroke-width:0.3px;"/>
    <path id="path2603" d="M12.14,12.7c0,-0.578 -0.47,-1.048 -1.049,-1.048l-9.274,0c-0.579,0 -1.049,0.47 -1.049,1.048l0,9.282c0,0.579 0.47,1.049 1.049,1.049l9.274,0c0.579,0 1.049,-0.47 1.049,-1.049l0,-9.282Z" style="fill:none;stroke:rgb(204,204,204);stroke-width:0.8px;"/>
    <path id="path2607" d="M11.372,13.225c0,-0.07 -0.057,-0.127 -0.126,-0.127l-9.616,0c-0.07,0 -0.127,0.057 -0.127,0.127l0,0.174c0,0.069 0.057,0.126 0.127,0.126l9.616,0c0.069,0 0.126,-0.057 0.126,-0.126l0,-0.174Z" style="fill:rgb(1,1,1);"/>
    <path id="path2611" d="M11.372,21.458c0,-0.07 -0.057,-0.127 -0.126,-0.127l-9.616,0c-0.07,0 -0.127,0.057 -0.127,0.127l0,0.174c0,0.069 0.057,0.126 0.127,0.126l9.616,0c0.069,0 0.126,-0.057 0.126,-0.126l0,-0.174Z" style="fill:rgb(1,1,1);"/>
    <path id="path2615" d="M11.372,20.085c0,-0.069 -0.057,-0.126 -0.126,-0.126l-9.616,0c-0.07,0 -0.127,0.057 -0.127,0.126l0,0.175c0,0.069 0.057,0.126 0.127,0.126l9.616,0c0.069,0 0.126,-0.057 0.126,-0.126l0,-0.175Z" style="fill:rgb(1,1,1);"/>
    <path id="path2619" d="M11.372,18.713c0,-0.07 -0.057,-0.126 -0.126,-0.126l-9.616,0c-0.07,0 -0.127,0.056 -0.127,0.126l0,0.174c0,0.07 0.057,0.127 0.127,0.127l9.616,0c0.069,0 0.126,-0.057 0.126,-0.127l0,-0.174Z" style="fill:rgb(1,1,1);"/>
    <path id="path2623" d="M11.372,17.341c0,-0.07 -0.057,-0.126 -0.126,-0.126l-9.616,0c-0.07,0 -0.127,0.056 -0.127,0.126l0,0.174c0,0.07 0.057,0.127 0.127,0.127l9.616,0c0.069,0 0.126,-0.057 0.126,-0.127l0,-0.174Z" style="fill:rgb(1,1,1);"/>
    <path id="path2627" d="M11.372,15.969c0,-0.07 -0.057,-0.127 -0.126,-0.127l-9.616,0c-0.07,0 -0.127,0.057 -0.127,0.127l0,0.174c0,0.07 0.057,0.126 0.127,0.126l9.616,0c0.069,0 0.126,-0.056 0.126,-0.126l0,-0.174Z" style="fill:rgb(1,1,1);"/>
    <path id="path2631" d="M11.372,14.597c0,-0.07 -0.057,-0.127 -0.126,-0.127l-9.616,0c-0.07,0 -0.127,0.057 -0.127,0.127l0,0.174c0,0.07 0.057,0.126 0.127,0.126l9.616,0c0.069,0 0.126,-0.056 0.126,-0.126l0,-0.174Z" style="fill:rgb(1,1,1);"/>
    <path id="path2635" d="M8.746,15.703c0,-0.19 -0.155,-0.344 -0.345,-0.344l-4.145,0c-0.19,0 -0.344,0.154 -0.344,0.344l0,3.044c0,0.19 0.154,0.344 0.344,0.344l4.145,0c0.19,0 0.345,-0.154 0.345,-0.344l0,-3.044Z" style="fill:none;stroke:rgb(128,128,128);stroke-width:0.3px;"/>
    <rect id="rect2639" x="4.357" y="15.778" width="4" height="2.808" style="fill:white;stroke:black;stroke-width:0.7px;"/>
  </g>
</svg>