<?xml version="1.0" encoding="UTF-8" standalone="no"?>
<svg
   xmlns:serif="http://www.serif.com/"
   xmlns:dc="http://purl.org/dc/elements/1.1/"
   xmlns:cc="http://creativecommons.org/ns#"
   xmlns:rdf="http://www.w3.org/1999/02/22-rdf-syntax-ns#"
   xmlns:svg="http://www.w3.org/2000/svg"
   xmlns="http://www.w3.org/2000/svg"
   xmlns:xlink="http://www.w3.org/1999/xlink"
   xmlns:sodipodi="http://sodipodi.sourceforge.net/DTD/sodipodi-0.dtd"
   xmlns:inkscape="http://www.inkscape.org/namespaces/inkscape"
   width="150px"
   height="380px"
   version="1.1"
   xml:space="preserve"
   style="fill-rule:evenodd;clip-rule:evenodd;stroke-linejoin:round;stroke-miterlimit:1.41421;"
   id="svg22297"
   sodipodi:docname="Stabile.svg"
   inkscape:version="0.92.3 (2405546, 2018-03-11)">
  <defs
   id="defs22301">
    <linearGradient
   inkscape:collect="always"
   id="linearGradient22648">
      <stop
   style="stop-color:#555555;stop-opacity:1"
   offset="0"
   id="stop22644" />
      <stop
   style="stop-color:#989898;stop-opacity:1"
   offset="1"
   id="stop22646" />
    </linearGradient>
    <linearGradient
   inkscape:collect="always"
   xlink:href="#linearGradient22648"
   id="linearGradient22650"
   x1="0.00032814531"
   y1="379.99832"
   x2="150.00034"
   y2="-0.00014301452"
   gradientUnits="userSpaceOnUse" />
  </defs>
  <metadata
   id="metadata22303">
    <rdf:RDF>
      <cc:Work
   rdf:about="">
        <dc:format>image/svg+xml</dc:format>
        <dc:type
   rdf:resource="http://purl.org/dc/dcmitype/StillImage" />
      <dc:title></dc:title></cc:Work>
    </rdf:RDF>
  </metadata>
  <sodipodi:namedview
   pagecolor="#ffffff"
   bordercolor="#666666"
   borderopacity="1"
   objecttolerance="10"
   gridtolerance="10"
   guidetolerance="10"
   inkscape:pageopacity="0"
   inkscape:pageshadow="2"
   inkscape:window-width="1920"
   inkscape:window-height="1017"
   id="namedview22299"
   showgrid="false"
   inkscape:zoom="2.2342106"
   inkscape:cx="-7.6841162"
   inkscape:cy="190.17872"
   inkscape:window-x="1912"
   inkscape:window-y="-8"
   inkscape:window-maximized="1"
   inkscape:current-layer="svg22297" />
  <rect
   x="0.00032814531"
   y="-0.00014301452"
   width="150"
   height="379.99847"
   style="fill:url(#linearGradient22650);stroke:#1a1a1a;stroke-width:0.98436868px;fill-opacity:1"
   id="rect21984" />
  <path
   d="m 126.90355,74.593173 c 2.73714,-4.741967 1.66469,-10.824491 -2.53305,-14.345951 -4.19374,-3.521461 -10.3723,-3.521461 -14.56604,0 -4.19774,3.52146 -5.27019,9.603984 -2.53305,14.345951 l 9.81607,-5.666351 z"
   style="fill:none;stroke:#cccccc;stroke-width:1;stroke-linejoin:miter;stroke-miterlimit:4;stroke-dasharray:none;stroke-linecap:round"
   id="path21987"
   inkscape:connector-curvature="0" />
  <path
   d="m 126.5314,75.789669 0.024,4.409829"
   style="fill:#cccccc;fill-rule:nonzero;stroke:#cccccc;stroke-width:1;stroke-linejoin:miter;stroke-miterlimit:4;stroke-dasharray:none;stroke-linecap:round"
   id="path21990"
   inkscape:connector-curvature="0" />
  <path
   d="m 128.74832,77.96257 -4.40983,0.02001"
   style="fill:#cccccc;fill-rule:nonzero;stroke:#cccccc;stroke-width:1;stroke-linejoin:miter;stroke-miterlimit:4;stroke-dasharray:none;stroke-linecap:round"
   id="path21993"
   inkscape:connector-curvature="0" />
  <path
   d="m 110.42872,77.838519 -4.41383,0.02001"
   style="fill:#cccccc;fill-rule:nonzero;stroke:#cccccc;stroke-width:1;stroke-linejoin:miter;stroke-miterlimit:4;stroke-dasharray:none;stroke-linecap:round"
   id="path21996"
   inkscape:connector-curvature="0" />
  <path
   d="m 117.08748,68.930824 -0.024,-13.309521"
   style="fill:none;stroke:#cccccc;stroke-width:1;stroke-linejoin:miter;stroke-miterlimit:4;stroke-dasharray:none;stroke-linecap:round"
   id="path21999"
   inkscape:connector-curvature="0" />
  <g
   id="text9293-4"
   transform="matrix(4.00166,0,0,4.00166,39.7048,124.1808)">
    <path
   d="M 1.244,-1.004 C 1.153,-1.115 1.041,-1.17 0.908,-1.17 c -0.059,0 -0.113,0.011 -0.163,0.032 -0.05,0.021 -0.093,0.05 -0.129,0.087 C 0.58,-1.014 0.552,-0.971 0.531,-0.92 0.51,-0.869 0.5,-0.815 0.5,-0.756 c 0,0.06 0.01,0.115 0.031,0.166 0.021,0.051 0.049,0.095 0.086,0.132 0.037,0.037 0.08,0.067 0.129,0.088 0.049,0.021 0.103,0.032 0.16,0.032 0.125,0 0.238,-0.053 0.338,-0.16 v 0.464 L 1.204,-0.02 C 1.144,0.001 1.088,0.017 1.036,0.027 0.984,0.037 0.933,0.042 0.882,0.042 0.778,0.042 0.678,0.022 0.583,-0.017 0.488,-0.056 0.404,-0.112 0.331,-0.183 0.258,-0.254 0.2,-0.339 0.156,-0.437 0.112,-0.535 0.09,-0.642 0.09,-0.758 c 0,-0.116 0.022,-0.222 0.065,-0.319 0.043,-0.097 0.101,-0.18 0.174,-0.25 0.073,-0.07 0.157,-0.125 0.253,-0.164 0.096,-0.039 0.197,-0.059 0.302,-0.059 0.06,0 0.119,0.006 0.177,0.019 0.058,0.013 0.119,0.032 0.183,0.059 z"
   style="fill:#ffffff;fill-rule:nonzero"
   id="path22002"
   inkscape:connector-curvature="0" />
    <path
   d="m 1.884,-1.508 v 0.82 c 0,0.044 0.002,0.089 0.005,0.135 0.003,0.046 0.013,0.088 0.03,0.125 0.017,0.037 0.043,0.068 0.079,0.091 0.036,0.023 0.087,0.035 0.152,0.035 0.065,0 0.116,-0.012 0.151,-0.035 0.035,-0.023 0.062,-0.054 0.079,-0.091 0.017,-0.037 0.028,-0.079 0.031,-0.125 0.003,-0.046 0.005,-0.091 0.005,-0.135 v -0.82 h 0.39 v 0.874 c 0,0.235 -0.054,0.406 -0.161,0.514 C 2.538,-0.012 2.373,0.042 2.15,0.042 1.927,0.042 1.762,-0.012 1.654,-0.12 1.546,-0.228 1.492,-0.399 1.492,-0.634 v -0.874 z"
   style="fill:#ffffff;fill-rule:nonzero"
   id="path22004"
   inkscape:connector-curvature="0" />
    <path
   d="M 3.694,-1.176 V 0 H 3.302 V -1.176 H 2.98 v -0.332 h 1.036 v 0.332 z"
   style="fill:#ffffff;fill-rule:nonzero"
   id="path22006"
   inkscape:connector-curvature="0" />
    <path
   d="m 4.518,-0.754 c 0,0.06 0.011,0.115 0.034,0.166 0.023,0.051 0.053,0.095 0.092,0.132 0.039,0.037 0.084,0.066 0.135,0.087 0.051,0.021 0.106,0.031 0.163,0.031 0.057,0 0.112,-0.01 0.163,-0.031 0.051,-0.021 0.097,-0.05 0.136,-0.087 0.039,-0.037 0.07,-0.081 0.093,-0.132 0.023,-0.051 0.034,-0.106 0.034,-0.166 0,-0.06 -0.011,-0.115 -0.034,-0.166 C 5.311,-0.971 5.28,-1.015 5.241,-1.052 5.202,-1.089 5.156,-1.118 5.105,-1.139 5.054,-1.16 4.999,-1.17 4.942,-1.17 c -0.057,0 -0.112,0.01 -0.163,0.031 -0.051,0.021 -0.096,0.05 -0.135,0.087 -0.039,0.037 -0.069,0.081 -0.092,0.132 -0.023,0.051 -0.034,0.106 -0.034,0.166 z m -0.41,0 c 0,-0.112 0.021,-0.216 0.062,-0.313 0.041,-0.097 0.099,-0.181 0.172,-0.253 0.073,-0.072 0.161,-0.128 0.263,-0.169 0.102,-0.041 0.214,-0.061 0.337,-0.061 0.121,0 0.233,0.02 0.336,0.061 0.103,0.041 0.191,0.097 0.265,0.169 0.074,0.072 0.132,0.156 0.173,0.253 0.041,0.097 0.062,0.201 0.062,0.313 0,0.112 -0.021,0.216 -0.062,0.313 C 5.675,-0.344 5.617,-0.26 5.543,-0.188 5.469,-0.116 5.381,-0.06 5.278,-0.019 5.175,0.022 5.063,0.042 4.942,0.042 4.819,0.042 4.707,0.022 4.605,-0.019 4.503,-0.06 4.415,-0.116 4.342,-0.188 4.269,-0.26 4.211,-0.344 4.17,-0.441 4.129,-0.538 4.108,-0.642 4.108,-0.754 Z"
   style="fill:#ffffff;fill-rule:nonzero"
   id="path22008"
   inkscape:connector-curvature="0" />
    <path
   d="M 6.89,-1.176 H 6.418 v 0.252 h 0.43 v 0.332 H 6.418 V 0 H 6.026 V -1.508 H 6.89 Z"
   style="fill:#ffffff;fill-rule:nonzero"
   id="path22010"
   inkscape:connector-curvature="0" />
    <path
   d="M 7.988,-1.176 H 7.516 v 0.252 h 0.43 v 0.332 H 7.516 V 0 H 7.124 v -1.508 h 0.864 z"
   style="fill:#ffffff;fill-rule:nonzero"
   id="path22012"
   inkscape:connector-curvature="0" />
  </g>
  <path
   d="m 126.90355,74.593173 c 2.73714,-4.741967 1.66469,-10.824491 -2.53305,-14.345951 -4.19374,-3.521461 -10.3723,-3.521461 -14.56604,0 -4.19774,3.52146 -5.27019,9.603984 -2.53305,14.345951 l 9.81607,-5.666351 z"
   style="fill:none;stroke:#cccccc;stroke-width:1;stroke-linejoin:miter;stroke-miterlimit:4;stroke-dasharray:none;stroke-linecap:round"
   id="path22017"
   inkscape:connector-curvature="0" />
  <path
   d="m 126.5314,75.789669 0.024,4.409829"
   style="fill:#cccccc;fill-rule:nonzero;stroke:#cccccc;stroke-width:1;stroke-linejoin:miter;stroke-miterlimit:4;stroke-dasharray:none;stroke-linecap:round"
   id="path22020"
   inkscape:connector-curvature="0" />
  <path
   d="m 128.74832,77.96257 -4.40983,0.02001"
   style="fill:#cccccc;fill-rule:nonzero;stroke:#cccccc;stroke-width:1;stroke-linejoin:miter;stroke-miterlimit:4;stroke-dasharray:none;stroke-linecap:round"
   id="path22023"
   inkscape:connector-curvature="0" />
  <path
   d="m 110.42872,77.838519 -4.41383,0.02001"
   style="fill:#cccccc;fill-rule:nonzero;stroke:#cccccc;stroke-width:1;stroke-linejoin:miter;stroke-miterlimit:4;stroke-dasharray:none;stroke-linecap:round"
   id="path22026"
   inkscape:connector-curvature="0" />
  <path
   d="m 117.08748,68.930824 -0.024,-13.309521"
   style="fill:none;stroke:#cccccc;stroke-width:1;stroke-linejoin:miter;stroke-miterlimit:4;stroke-dasharray:none;stroke-linecap:round"
   id="path22029"
   inkscape:connector-curvature="0" />
  <path
   d="m 84.738783,100.17329 c 8.221111,-14.242842 5.003181,-32.509492 -7.594315,-43.081092 -12.597496,-10.566003 -31.149562,-10.566003 -43.747059,0 -12.597496,10.5716 -15.815426,28.83825 -7.594315,43.081092"
   style="fill:none;stroke:#cccccc;stroke-width:1.5;stroke-linejoin:miter;stroke-miterlimit:4;stroke-dasharray:none;stroke-linecap:round"
   id="path22032"
   inkscape:connector-curvature="0" />
  <circle
   cx="26.172579"
   cy="109.44025"
   r="3.7055371"
   style="fill:none;stroke:#cccccc;stroke-width:1;stroke-linejoin:miter;stroke-miterlimit:4;stroke-dasharray:none"
   id="circle22035" />
  <circle
   cx="84.952255"
   cy="108.92801"
   r="3.7055371"
   style="fill:#cccccc;stroke:#cccccc;stroke-width:1;stroke-linejoin:miter;stroke-miterlimit:4;stroke-dasharray:none"
   id="circle22038" />
  <path
   d="m 126.90355,148.66217 c 2.73714,-4.74196 1.66469,-10.82449 -2.53305,-14.34595 -4.19374,-3.52146 -10.3723,-3.52146 -14.56604,0 -4.19774,3.52146 -5.27019,9.60399 -2.53305,14.34595 l 9.81607,-5.66635 z"
   style="fill:none;stroke:#cccccc;stroke-width:1;stroke-linejoin:miter;stroke-miterlimit:4;stroke-dasharray:none;stroke-linecap:round"
   id="path22041"
   inkscape:connector-curvature="0" />
  <path
   d="m 126.5314,149.85867 0.024,4.40983"
   style="fill:#cccccc;fill-rule:nonzero;stroke:#cccccc;stroke-width:1;stroke-linejoin:miter;stroke-miterlimit:4;stroke-dasharray:none;stroke-linecap:round"
   id="path22044"
   inkscape:connector-curvature="0" />
  <path
   d="m 128.74832,152.03157 -4.40983,0.02"
   style="fill:#cccccc;fill-rule:nonzero;stroke:#cccccc;stroke-width:1;stroke-linejoin:miter;stroke-miterlimit:4;stroke-dasharray:none;stroke-linecap:round"
   id="path22047"
   inkscape:connector-curvature="0" />
  <path
   d="m 110.42872,151.90752 -4.41383,0.02"
   style="fill:#cccccc;fill-rule:nonzero;stroke:#cccccc;stroke-width:1;stroke-linejoin:miter;stroke-miterlimit:4;stroke-dasharray:none;stroke-linecap:round"
   id="path22050"
   inkscape:connector-curvature="0" />
  <path
   d="m 117.08748,142.99982 -0.024,-13.30952"
   style="fill:none;stroke:#cccccc;stroke-width:1;stroke-linejoin:miter;stroke-miterlimit:4;stroke-dasharray:none;stroke-linecap:round"
   id="path22053"
   inkscape:connector-curvature="0" />
  <g
   id="text9293-41"
   serif:id="text9293-4"
   transform="matrix(4.00166,0,0,4.00166,27.4589,189.0768)">
    <path
   d="m 0.55,-0.834 h 0.074 c 0.077,0 0.137,-0.016 0.178,-0.048 C 0.843,-0.914 0.864,-0.96 0.864,-1.02 0.864,-1.08 0.843,-1.126 0.802,-1.158 0.761,-1.19 0.701,-1.206 0.624,-1.206 H 0.55 Z M 1.412,0 H 0.924 L 0.55,-0.58 V 0 H 0.158 v -1.508 h 0.61 c 0.084,0 0.157,0.012 0.22,0.037 0.063,0.025 0.114,0.058 0.155,0.101 0.041,0.043 0.071,0.092 0.092,0.148 0.021,0.056 0.031,0.116 0.031,0.18 0,0.115 -0.028,0.208 -0.083,0.279 -0.055,0.071 -0.137,0.12 -0.245,0.145 z"
   style="fill:#ffffff;fill-rule:nonzero"
   id="path22056"
   inkscape:connector-curvature="0" />
    <path
   d="M 2.434,-1.176 H 1.968 v 0.252 h 0.44 v 0.332 h -0.44 v 0.26 H 2.434 V 0 H 1.576 v -1.508 h 0.858 z"
   style="fill:#ffffff;fill-rule:nonzero"
   id="path22058"
   inkscape:connector-curvature="0" />
    <path
   d="M 3.544,-1.122 C 3.501,-1.157 3.459,-1.182 3.416,-1.199 3.373,-1.216 3.332,-1.224 3.292,-1.224 c -0.051,0 -0.092,0.012 -0.124,0.036 -0.032,0.024 -0.048,0.055 -0.048,0.094 0,0.027 0.008,0.049 0.024,0.066 0.016,0.017 0.037,0.032 0.063,0.045 0.026,0.013 0.055,0.024 0.088,0.033 0.033,0.009 0.065,0.019 0.097,0.03 0.128,0.043 0.222,0.1 0.281,0.171 0.059,0.071 0.089,0.164 0.089,0.279 0,0.077 -0.013,0.147 -0.039,0.21 C 3.697,-0.197 3.659,-0.144 3.609,-0.099 3.559,-0.054 3.498,-0.02 3.425,0.005 3.352,0.03 3.27,0.042 3.178,0.042 c -0.191,0 -0.367,-0.057 -0.53,-0.17 l 0.168,-0.316 c 0.059,0.052 0.117,0.091 0.174,0.116 0.057,0.025 0.114,0.038 0.17,0.038 0.064,0 0.112,-0.015 0.143,-0.044 0.031,-0.029 0.047,-0.063 0.047,-0.1 0,-0.023 -0.004,-0.042 -0.012,-0.059 C 3.33,-0.51 3.317,-0.525 3.298,-0.539 3.279,-0.553 3.255,-0.566 3.225,-0.578 3.195,-0.59 3.159,-0.603 3.116,-0.618 3.065,-0.634 3.016,-0.652 2.967,-0.671 2.918,-0.69 2.875,-0.716 2.837,-0.748 2.799,-0.78 2.768,-0.82 2.745,-0.869 2.722,-0.918 2.71,-0.979 2.71,-1.054 2.71,-1.129 2.722,-1.196 2.747,-1.257 2.772,-1.318 2.806,-1.37 2.851,-1.413 2.896,-1.456 2.95,-1.49 3.015,-1.514 3.08,-1.538 3.152,-1.55 3.232,-1.55 c 0.075,0 0.153,0.01 0.234,0.031 0.081,0.021 0.159,0.051 0.234,0.091 z"
   style="fill:#ffffff;fill-rule:nonzero"
   id="path22060"
   inkscape:connector-curvature="0" />
    <path
   d="m 4.35,-0.754 c 0,0.06 0.011,0.115 0.034,0.166 0.023,0.051 0.053,0.095 0.092,0.132 0.039,0.037 0.084,0.066 0.135,0.087 0.051,0.021 0.106,0.031 0.163,0.031 0.057,0 0.112,-0.01 0.163,-0.031 0.051,-0.021 0.097,-0.05 0.136,-0.087 0.039,-0.037 0.07,-0.081 0.093,-0.132 C 5.189,-0.639 5.2,-0.694 5.2,-0.754 5.2,-0.814 5.189,-0.869 5.166,-0.92 5.143,-0.971 5.112,-1.015 5.073,-1.052 5.034,-1.089 4.988,-1.118 4.937,-1.139 4.886,-1.16 4.831,-1.17 4.774,-1.17 4.717,-1.17 4.662,-1.16 4.611,-1.139 4.56,-1.118 4.515,-1.089 4.476,-1.052 4.437,-1.015 4.407,-0.971 4.384,-0.92 4.361,-0.869 4.35,-0.814 4.35,-0.754 Z m -0.41,0 c 0,-0.112 0.021,-0.216 0.062,-0.313 0.041,-0.097 0.099,-0.181 0.172,-0.253 0.073,-0.072 0.161,-0.128 0.263,-0.169 0.102,-0.041 0.214,-0.061 0.337,-0.061 0.121,0 0.233,0.02 0.336,0.061 0.103,0.041 0.191,0.097 0.265,0.169 0.074,0.072 0.132,0.156 0.173,0.253 0.041,0.097 0.062,0.201 0.062,0.313 0,0.112 -0.021,0.216 -0.062,0.313 C 5.507,-0.344 5.449,-0.26 5.375,-0.188 5.301,-0.116 5.213,-0.06 5.11,-0.019 5.007,0.022 4.895,0.042 4.774,0.042 4.651,0.042 4.539,0.022 4.437,-0.019 4.335,-0.06 4.247,-0.116 4.174,-0.188 4.101,-0.26 4.043,-0.344 4.002,-0.441 3.961,-0.538 3.94,-0.642 3.94,-0.754 Z"
   style="fill:#ffffff;fill-rule:nonzero"
   id="path22062"
   inkscape:connector-curvature="0" />
    <path
   d="M 5.858,0 V -1.508 H 6.25 l 0.724,0.922 v -0.922 h 0.39 V 0 H 6.974 L 6.25,-0.922 V 0 Z"
   style="fill:#ffffff;fill-rule:nonzero"
   id="path22064"
   inkscape:connector-curvature="0" />
    <path
   d="M 8.504,-0.56 8.328,-1.062 8.152,-0.56 Z m 0.104,0.298 H 8.048 L 7.958,0 H 7.54 L 8.114,-1.508 H 8.542 L 9.116,0 H 8.698 Z"
   style="fill:#ffffff;fill-rule:nonzero"
   id="path22066"
   inkscape:connector-curvature="0" />
    <path
   d="M 9.288,0 V -1.508 H 9.68 l 0.724,0.922 v -0.922 h 0.39 V 0 h -0.39 L 9.68,-0.922 V 0 Z"
   style="fill:#ffffff;fill-rule:nonzero"
   id="path22068"
   inkscape:connector-curvature="0" />
    <path
   d="M 12.216,-1.004 C 12.125,-1.115 12.013,-1.17 11.88,-1.17 c -0.059,0 -0.113,0.011 -0.163,0.032 -0.05,0.021 -0.093,0.05 -0.129,0.087 -0.036,0.037 -0.064,0.08 -0.085,0.131 -0.021,0.051 -0.031,0.105 -0.031,0.164 0,0.06 0.01,0.115 0.031,0.166 0.021,0.051 0.049,0.095 0.086,0.132 0.037,0.037 0.08,0.067 0.129,0.088 0.049,0.021 0.103,0.032 0.16,0.032 0.125,0 0.238,-0.053 0.338,-0.16 v 0.464 l -0.04,0.014 c -0.06,0.021 -0.116,0.037 -0.168,0.047 -0.052,0.01 -0.103,0.015 -0.154,0.015 -0.104,0 -0.204,-0.02 -0.299,-0.059 -0.095,-0.039 -0.179,-0.095 -0.252,-0.166 -0.073,-0.071 -0.131,-0.156 -0.175,-0.254 -0.044,-0.098 -0.066,-0.205 -0.066,-0.321 0,-0.116 0.022,-0.222 0.065,-0.319 0.043,-0.097 0.101,-0.18 0.174,-0.25 0.073,-0.07 0.157,-0.125 0.253,-0.164 0.096,-0.039 0.197,-0.059 0.302,-0.059 0.06,0 0.119,0.006 0.177,0.019 0.058,0.013 0.119,0.032 0.183,0.059 z"
   style="fill:#ffffff;fill-rule:nonzero"
   id="path22070"
   inkscape:connector-curvature="0" />
    <path
   d="m 13.322,-1.176 h -0.466 v 0.252 h 0.44 v 0.332 h -0.44 v 0.26 h 0.466 V 0 h -0.858 v -1.508 h 0.858 z"
   style="fill:#ffffff;fill-rule:nonzero"
   id="path22072"
   inkscape:connector-curvature="0" />
  </g>
  <path
   d="m 126.90355,148.66217 c 2.73714,-4.74196 1.66469,-10.82449 -2.53305,-14.34595 -4.19374,-3.52146 -10.3723,-3.52146 -14.56604,0 -4.19774,3.52146 -5.27019,9.60399 -2.53305,14.34595 l 9.81607,-5.66635 z"
   style="fill:none;stroke:#cccccc;stroke-width:1;stroke-linejoin:miter;stroke-miterlimit:4;stroke-dasharray:none;stroke-linecap:round"
   id="path22077"
   inkscape:connector-curvature="0" />
  <path
   d="m 126.5314,149.85867 0.024,4.40983"
   style="fill:#cccccc;fill-rule:nonzero;stroke:#cccccc;stroke-width:1;stroke-linejoin:miter;stroke-miterlimit:4;stroke-dasharray:none;stroke-linecap:round"
   id="path22080"
   inkscape:connector-curvature="0" />
  <path
   d="m 128.74832,152.03157 -4.40983,0.02"
   style="fill:#cccccc;fill-rule:nonzero;stroke:#cccccc;stroke-width:1;stroke-linejoin:miter;stroke-miterlimit:4;stroke-dasharray:none;stroke-linecap:round"
   id="path22083"
   inkscape:connector-curvature="0" />
  <path
   d="m 110.42872,151.90752 -4.41383,0.02"
   style="fill:#cccccc;fill-rule:nonzero;stroke:#cccccc;stroke-width:1;stroke-linejoin:miter;stroke-miterlimit:4;stroke-dasharray:none;stroke-linecap:round"
   id="path22086"
   inkscape:connector-curvature="0" />
  <path
   d="m 117.08748,142.99982 -0.024,-13.30952"
   style="fill:none;stroke:#cccccc;stroke-width:1;stroke-linejoin:miter;stroke-miterlimit:4;stroke-dasharray:none;stroke-linecap:round"
   id="path22089"
   inkscape:connector-curvature="0" />
  <path
   d="m 144.24851,279.98062 c 0,-2.99846 -2.43587,-5.43307 -5.43534,-5.43307 H 12.061844 c -2.9946902,0 -5.4305624,2.43461 -5.4305624,5.43307 v 28.51788 c 0,2.99845 2.4358722,5.43306 5.4305624,5.43306 H 138.81317 c 2.99947,0 5.43534,-2.43461 5.43534,-5.43306 z"
   id="path22092"
   inkscape:connector-curvature="0"
   style="fill:#1a1a21;fill-opacity:1;stroke:#333359;stroke-width:1;stroke-miterlimit:1.41420996;stroke-dasharray:none;stroke-opacity:1" />
  <g
   id="path8216-11"
   serif:id="path8216-1"
   transform="matrix(4.00166,0,0,-4.00166,2.4444,-845.1942)"
   style="stroke-width:0.37484444;stroke-miterlimit:4;stroke-dasharray:none;stroke-linecap:round">
    <path
   d="m 18.227,-252.754 c 1.469,2.545 0.894,5.809 -1.357,7.698 -2.251,1.888 -5.566,1.888 -7.817,0 -2.251,-1.889 -2.826,-5.153 -1.357,-7.698"
   style="fill:none;stroke:#cccccc;stroke-width:0.37484444;stroke-linejoin:miter;stroke-miterlimit:4;stroke-dasharray:none;stroke-linecap:round"
   id="path22096"
   inkscape:connector-curvature="0" />
  </g>
  <g
   id="path9488-2-91"
   serif:id="path9488-2-9"
   transform="matrix(4.00166,0,0,4.00166,2.7147,-845.1942)"
   style="stroke-width:0.24989629;stroke-miterlimit:4;stroke-dasharray:none">
    <circle
   cx="8.3610001"
   cy="255.07001"
   r="0.926"
   style="fill:none;stroke:#cccccc;stroke-width:0.24989629;stroke-linejoin:miter;stroke-miterlimit:4;stroke-dasharray:none"
   id="circle22099" />
  </g>
  <g
   id="path9488-2-6-01"
   serif:id="path9488-2-6-0"
   transform="matrix(4.00166,0,0,4.00166,2.7147,-845.1942)"
   style="stroke-width:0.24989629;stroke-miterlimit:4;stroke-dasharray:none">
    <circle
   cx="17.802"
   cy="254.942"
   r="0.926"
   style="fill:#cccccc;stroke:#cccccc;stroke-width:0.24989629;stroke-linejoin:miter;stroke-miterlimit:4;stroke-dasharray:none"
   id="circle22102" />
  </g>
  <g
   id="text9293-42"
   serif:id="text9293-4"
   transform="matrix(4.00166,0,0,4.00166,61.53199,353.6478)">
    <rect
   x="0.15800001"
   y="-1.508"
   width="0.39199999"
   height="1.508"
   style="fill:#ffffff;fill-rule:nonzero"
   id="rect22107" />
    <path
   d="m 0.866,0 v -1.508 h 0.392 l 0.724,0.922 v -0.922 h 0.39 V 0 H 1.982 L 1.258,-0.922 V 0 Z"
   style="fill:#ffffff;fill-rule:nonzero"
   id="path22109"
   inkscape:connector-curvature="0" />
    <path
   d="m 3.08,-0.816 h 0.13 c 0.144,0 0.216,-0.063 0.216,-0.188 0,-0.125 -0.072,-0.188 -0.216,-0.188 H 3.08 Z M 3.08,0 H 2.688 v -1.508 h 0.624 c 0.169,0 0.299,0.044 0.389,0.132 0.09,0.088 0.135,0.212 0.135,0.372 0,0.16 -0.045,0.284 -0.135,0.372 C 3.611,-0.544 3.481,-0.5 3.312,-0.5 H 3.08 Z"
   style="fill:#ffffff;fill-rule:nonzero"
   id="path22111"
   inkscape:connector-curvature="0" />
    <path
   d="m 4.436,-1.508 v 0.82 c 0,0.044 0.002,0.089 0.005,0.135 0.003,0.046 0.013,0.088 0.03,0.125 0.017,0.037 0.043,0.068 0.079,0.091 0.036,0.023 0.087,0.035 0.152,0.035 0.065,0 0.116,-0.012 0.151,-0.035 0.035,-0.023 0.062,-0.054 0.079,-0.091 0.017,-0.037 0.028,-0.079 0.031,-0.125 0.003,-0.046 0.005,-0.091 0.005,-0.135 v -0.82 h 0.39 v 0.874 c 0,0.235 -0.054,0.406 -0.161,0.514 C 5.09,-0.012 4.925,0.042 4.702,0.042 4.479,0.042 4.314,-0.012 4.206,-0.12 4.098,-0.228 4.044,-0.399 4.044,-0.634 v -0.874 z"
   style="fill:#ffffff;fill-rule:nonzero"
   id="path22113"
   inkscape:connector-curvature="0" />
    <path
   d="M 6.246,-1.176 V 0 H 5.854 V -1.176 H 5.532 v -0.332 h 1.036 v 0.332 z"
   style="fill:#ffffff;fill-rule:nonzero"
   id="path22115"
   inkscape:connector-curvature="0" />
  </g>
  <g
   id="text9293-43"
   serif:id="text9293-4"
   transform="matrix(4.00166,0,0,4.00166,15.532,312.6478)">
    <path
   d="m 0.55,-1.508 v 1.176 H 1.02 V 0 H 0.158 v -1.508 z"
   style="fill:#ffffff;fill-rule:nonzero"
   id="path22120"
   inkscape:connector-curvature="0" />
    <path
   d="m 1.614,-0.816 h 0.13 c 0.144,0 0.216,-0.063 0.216,-0.188 0,-0.125 -0.072,-0.188 -0.216,-0.188 H 1.614 Z M 1.614,0 H 1.222 v -1.508 h 0.624 c 0.169,0 0.299,0.044 0.389,0.132 0.09,0.088 0.135,0.212 0.135,0.372 0,0.16 -0.045,0.284 -0.135,0.372 C 2.145,-0.544 2.015,-0.5 1.846,-0.5 H 1.614 Z"
   style="fill:#ffffff;fill-rule:nonzero"
   id="path22122"
   inkscape:connector-curvature="0" />
  </g>
  <g
   id="text9293-44"
   serif:id="text9293-4"
   transform="matrix(4.00166,0,0,4.00166,87.1935,312.6478)">
    <path
   d="M 0.55,-0.926 H 1.116 V -1.508 H 1.508 V 0 H 1.116 V -0.622 H 0.55 V 0 H 0.158 V -1.508 H 0.55 Z"
   style="fill:#ffffff;fill-rule:nonzero"
   id="path22127"
   inkscape:connector-curvature="0" />
    <path
   d="m 2.216,-0.816 h 0.13 c 0.144,0 0.216,-0.063 0.216,-0.188 0,-0.125 -0.072,-0.188 -0.216,-0.188 H 2.216 Z M 2.216,0 H 1.824 v -1.508 h 0.624 c 0.169,0 0.299,0.044 0.389,0.132 0.09,0.088 0.135,0.212 0.135,0.372 0,0.16 -0.045,0.284 -0.135,0.372 C 2.747,-0.544 2.617,-0.5 2.448,-0.5 H 2.216 Z"
   style="fill:#ffffff;fill-rule:nonzero"
   id="path22129"
   inkscape:connector-curvature="0" />
  </g>
  <g
   id="text9293-45"
   serif:id="text9293-4"
   transform="matrix(4.00166,0,0,4.00166,60.6408,270.5738)">
    <path
   d="m 0.5,-0.754 c 0,0.06 0.011,0.115 0.034,0.166 0.023,0.051 0.053,0.095 0.092,0.132 0.039,0.037 0.084,0.066 0.135,0.087 0.051,0.021 0.106,0.031 0.163,0.031 0.057,0 0.112,-0.01 0.163,-0.031 0.051,-0.021 0.097,-0.05 0.136,-0.087 0.039,-0.037 0.07,-0.081 0.093,-0.132 C 1.339,-0.639 1.35,-0.694 1.35,-0.754 1.35,-0.814 1.339,-0.869 1.316,-0.92 1.293,-0.971 1.262,-1.015 1.223,-1.052 1.184,-1.089 1.138,-1.118 1.087,-1.139 1.036,-1.16 0.981,-1.17 0.924,-1.17 0.867,-1.17 0.812,-1.16 0.761,-1.139 0.71,-1.118 0.665,-1.089 0.626,-1.052 0.587,-1.015 0.557,-0.971 0.534,-0.92 0.511,-0.869 0.5,-0.814 0.5,-0.754 Z m -0.41,0 c 0,-0.112 0.021,-0.216 0.062,-0.313 0.041,-0.097 0.099,-0.181 0.172,-0.253 0.073,-0.072 0.161,-0.128 0.263,-0.169 0.102,-0.041 0.214,-0.061 0.337,-0.061 0.121,0 0.233,0.02 0.336,0.061 0.103,0.041 0.191,0.097 0.265,0.169 0.074,0.072 0.132,0.156 0.173,0.253 0.041,0.097 0.062,0.201 0.062,0.313 0,0.112 -0.021,0.216 -0.062,0.313 C 1.657,-0.344 1.599,-0.26 1.525,-0.188 1.451,-0.116 1.363,-0.06 1.26,-0.019 1.157,0.022 1.045,0.042 0.924,0.042 0.801,0.042 0.689,0.022 0.587,-0.019 0.485,-0.06 0.397,-0.116 0.324,-0.188 0.251,-0.26 0.193,-0.344 0.152,-0.441 0.111,-0.538 0.09,-0.642 0.09,-0.754 Z"
   style="fill:#8c8c8c;fill-rule:nonzero"
   id="path22134"
   inkscape:connector-curvature="0" />
    <path
   d="m 2.4,-1.508 v 0.82 c 0,0.044 0.002,0.089 0.005,0.135 0.003,0.046 0.013,0.088 0.03,0.125 0.017,0.037 0.043,0.068 0.079,0.091 0.036,0.023 0.087,0.035 0.152,0.035 0.065,0 0.116,-0.012 0.151,-0.035 0.035,-0.023 0.062,-0.054 0.079,-0.091 0.017,-0.037 0.028,-0.079 0.031,-0.125 0.003,-0.046 0.005,-0.091 0.005,-0.135 v -0.82 h 0.39 v 0.874 c 0,0.235 -0.054,0.406 -0.161,0.514 C 3.054,-0.012 2.889,0.042 2.666,0.042 2.443,0.042 2.278,-0.012 2.17,-0.12 2.062,-0.228 2.008,-0.399 2.008,-0.634 v -0.874 z"
   style="fill:#8c8c8c;fill-rule:nonzero"
   id="path22136"
   inkscape:connector-curvature="0" />
    <path
   d="M 4.21,-1.176 V 0 H 3.818 V -1.176 H 3.496 v -0.332 h 1.036 v 0.332 z"
   style="fill:#8c8c8c;fill-rule:nonzero"
   id="path22138"
   inkscape:connector-curvature="0" />
    <path
   d="m 5.098,-0.816 h 0.13 c 0.144,0 0.216,-0.063 0.216,-0.188 0,-0.125 -0.072,-0.188 -0.216,-0.188 H 5.098 Z M 5.098,0 H 4.706 V -1.508 H 5.33 c 0.169,0 0.299,0.044 0.389,0.132 0.09,0.088 0.135,0.212 0.135,0.372 0,0.16 -0.045,0.284 -0.135,0.372 C 5.629,-0.544 5.499,-0.5 5.33,-0.5 H 5.098 Z"
   style="fill:#8c8c8c;fill-rule:nonzero"
   id="path22140"
   inkscape:connector-curvature="0" />
    <path
   d="m 6.454,-1.508 v 0.82 c 0,0.044 0.002,0.089 0.005,0.135 0.003,0.046 0.013,0.088 0.03,0.125 0.017,0.037 0.043,0.068 0.079,0.091 0.036,0.023 0.087,0.035 0.152,0.035 0.065,0 0.116,-0.012 0.151,-0.035 0.035,-0.023 0.062,-0.054 0.079,-0.091 0.017,-0.037 0.028,-0.079 0.031,-0.125 0.003,-0.046 0.005,-0.091 0.005,-0.135 v -0.82 h 0.39 v 0.874 c 0,0.235 -0.054,0.406 -0.161,0.514 C 7.108,-0.012 6.943,0.042 6.72,0.042 6.497,0.042 6.332,-0.012 6.224,-0.12 6.116,-0.228 6.062,-0.399 6.062,-0.634 v -0.874 z"
   style="fill:#8c8c8c;fill-rule:nonzero"
   id="path22142"
   inkscape:connector-curvature="0" />
    <path
   d="M 8.264,-1.176 V 0 H 7.872 V -1.176 H 7.55 v -0.332 h 1.036 v 0.332 z"
   style="fill:#8c8c8c;fill-rule:nonzero"
   id="path22144"
   inkscape:connector-curvature="0" />
  </g>
  <g
   id="text7967-9-5"
   transform="matrix(1.05877,0,0,1.05877,27.297,38.5591)">
    <path
   d="m 0.686,-0.154 v -0.954 c 0.645,0.27 1.196,0.404 1.653,0.404 0.534,0 0.801,-0.181 0.801,-0.545 0,-0.234 -0.22,-0.439 -0.66,-0.615 L 2.04,-2.04 C 1.562,-2.234 1.221,-2.442 1.016,-2.665 0.811,-2.887 0.708,-3.163 0.708,-3.491 c 0,-0.458 0.174,-0.813 0.523,-1.067 0.349,-0.253 0.837,-0.38 1.464,-0.38 0.393,0 0.861,0.057 1.403,0.172 v 0.914 C 3.576,-4.034 3.144,-4.124 2.801,-4.124 c -0.539,0 -0.809,0.167 -0.809,0.501 0,0.22 0.199,0.406 0.598,0.558 l 0.378,0.145 c 0.566,0.214 0.959,0.431 1.181,0.651 0.221,0.22 0.332,0.503 0.332,0.849 0,0.454 -0.189,0.823 -0.565,1.106 C 3.539,-0.032 3.049,0.11 2.445,0.11 1.864,0.11 1.278,0.022 0.686,-0.154 Z"
   style="fill:#ffffff;fill-rule:nonzero"
   id="path22149"
   inkscape:connector-curvature="0" />
    <path
   d="M 8.394,-0.026 C 8.083,0.064 7.839,0.11 7.66,0.11 6.531,0.11 5.967,-0.418 5.967,-1.473 V -4.015 H 5.426 v -0.813 h 0.541 v -0.813 l 1.301,-0.15 v 0.963 h 1.034 v 0.813 H 7.268 v 2.37 c 0,0.593 0.242,0.889 0.726,0.889 0.111,0 0.245,-0.021 0.4,-0.062 z"
   style="fill:#ffffff;fill-rule:nonzero"
   id="path22151"
   inkscape:connector-curvature="0" />
    <path
   d="M 11.92,-0.519 C 11.487,-0.1 11.022,0.11 10.527,0.11 10.104,0.11 9.762,-0.019 9.498,-0.277 9.234,-0.535 9.102,-0.869 9.102,-1.28 c 0,-0.533 0.213,-0.944 0.64,-1.233 0.426,-0.289 1.037,-0.433 1.831,-0.433 h 0.347 v -0.44 c 0,-0.501 -0.285,-0.752 -0.857,-0.752 -0.507,0 -1.02,0.144 -1.539,0.431 v -0.897 c 0.589,-0.223 1.173,-0.334 1.75,-0.334 1.264,0 1.895,0.503 1.895,1.508 v 2.137 c 0,0.378 0.122,0.567 0.365,0.567 0.044,0 0.101,-0.005 0.172,-0.017 l 0.03,0.73 C 13.461,0.069 13.218,0.11 13.007,0.11 12.473,0.11 12.13,-0.1 11.978,-0.519 Z m 0,-0.699 v -0.981 h -0.307 c -0.842,0 -1.262,0.264 -1.262,0.792 0,0.179 0.061,0.329 0.182,0.451 0.122,0.121 0.272,0.182 0.451,0.182 0.305,0 0.617,-0.148 0.936,-0.444 z"
   style="fill:#ffffff;fill-rule:nonzero"
   id="path22153"
   inkscape:connector-curvature="0" />
    <path
   d="m 17.338,-0.026 c -0.311,0.09 -0.556,0.136 -0.735,0.136 -1.128,0 -1.693,-0.528 -1.693,-1.583 v -2.542 h -0.54 v -0.813 h 0.54 v -0.813 l 1.302,-0.15 v 0.963 h 1.033 v 0.813 h -1.033 v 2.37 c 0,0.593 0.242,0.889 0.726,0.889 0.111,0 0.244,-0.021 0.4,-0.062 z"
   style="fill:#ffffff;fill-rule:nonzero"
   id="path22155"
   inkscape:connector-curvature="0" />
    <path
   d="m 22.429,-0.163 c -0.618,0.182 -1.204,0.273 -1.758,0.273 -0.806,0 -1.443,-0.229 -1.909,-0.686 -0.466,-0.457 -0.699,-1.082 -0.699,-1.873 0,-0.748 0.213,-1.349 0.64,-1.805 0.426,-0.456 0.99,-0.684 1.691,-0.684 0.706,0 1.222,0.223 1.547,0.668 0.326,0.446 0.488,1.151 0.488,2.115 h -2.994 c 0.088,0.921 0.594,1.381 1.517,1.381 0.437,0 0.929,-0.101 1.477,-0.303 z m -3.012,-2.726 h 1.733 c 0,-0.824 -0.265,-1.235 -0.796,-1.235 -0.539,0 -0.851,0.411 -0.937,1.235 z"
   style="fill:#ffffff;fill-rule:nonzero"
   id="path22157"
   inkscape:connector-curvature="0" />
    <path
   d="m 27.935,0 -1.843,-4.828 h 1.372 l 1.35,3.482 1.341,-3.482 h 0.941 L 29.236,0 Z"
   style="fill:#ffffff;fill-rule:nonzero"
   id="path22159"
   inkscape:connector-curvature="0" />
    <path
   d="M 34.451,-0.519 C 34.017,-0.1 33.553,0.11 33.057,0.11 c -0.422,0 -0.765,-0.129 -1.029,-0.387 -0.264,-0.258 -0.395,-0.592 -0.395,-1.003 0,-0.533 0.213,-0.944 0.639,-1.233 0.427,-0.289 1.037,-0.433 1.832,-0.433 h 0.347 v -0.44 c 0,-0.501 -0.286,-0.752 -0.857,-0.752 -0.507,0 -1.02,0.144 -1.539,0.431 v -0.897 c 0.589,-0.223 1.172,-0.334 1.75,-0.334 1.263,0 1.895,0.503 1.895,1.508 v 2.137 c 0,0.378 0.122,0.567 0.365,0.567 0.044,0 0.101,-0.005 0.171,-0.017 l 0.031,0.73 c -0.275,0.082 -0.519,0.123 -0.73,0.123 -0.533,0 -0.876,-0.21 -1.029,-0.629 z m 0,-0.699 v -0.981 h -0.308 c -0.841,0 -1.262,0.264 -1.262,0.792 0,0.179 0.061,0.329 0.183,0.451 0.121,0.121 0.272,0.182 0.451,0.182 0.304,0 0.617,-0.148 0.936,-0.444 z"
   style="fill:#ffffff;fill-rule:nonzero"
   id="path22161"
   inkscape:connector-curvature="0" />
    <path
   d="m 37.38,0 v -4.828 h 1.301 v 0.91 c 0.337,-0.68 0.85,-1.02 1.539,-1.02 0.082,0 0.163,0.009 0.242,0.026 v 1.161 c -0.185,-0.067 -0.356,-0.101 -0.515,-0.101 -0.518,0 -0.941,0.263 -1.266,0.787 V 0 Z"
   style="fill:#ffffff;fill-rule:nonzero"
   id="path22163"
   inkscape:connector-curvature="0" />
    <path
   d="m 41.473,0 v -4.828 h 1.302 V 0 Z m 0,-5.641 v -1.087 h 1.302 v 1.087 z"
   style="fill:#ffffff;fill-rule:nonzero"
   id="path22165"
   inkscape:connector-curvature="0" />
    <path
   d="M 46.767,-0.519 C 46.333,-0.1 45.869,0.11 45.373,0.11 c -0.422,0 -0.765,-0.129 -1.028,-0.387 -0.264,-0.258 -0.396,-0.592 -0.396,-1.003 0,-0.533 0.213,-0.944 0.64,-1.233 0.426,-0.289 1.037,-0.433 1.831,-0.433 h 0.347 v -0.44 c 0,-0.501 -0.286,-0.752 -0.857,-0.752 -0.507,0 -1.02,0.144 -1.539,0.431 v -0.897 c 0.589,-0.223 1.172,-0.334 1.75,-0.334 1.263,0 1.895,0.503 1.895,1.508 v 2.137 c 0,0.378 0.122,0.567 0.365,0.567 0.044,0 0.101,-0.005 0.172,-0.017 l 0.03,0.73 c -0.275,0.082 -0.519,0.123 -0.73,0.123 -0.533,0 -0.876,-0.21 -1.029,-0.629 z m 0,-0.699 V -2.199 H 46.46 c -0.842,0 -1.262,0.264 -1.262,0.792 0,0.179 0.06,0.329 0.182,0.451 0.122,0.121 0.272,0.182 0.451,0.182 0.305,0 0.617,-0.148 0.936,-0.444 z"
   style="fill:#ffffff;fill-rule:nonzero"
   id="path22167"
   inkscape:connector-curvature="0" />
    <path
   d="m 49.696,0 v -6.943 h 1.301 v 3.025 c 0.334,-0.68 0.861,-1.02 1.579,-1.02 0.58,0 1.037,0.213 1.37,0.638 0.332,0.425 0.499,1.01 0.499,1.754 0,0.806 -0.188,1.45 -0.563,1.933 -0.375,0.482 -0.877,0.723 -1.504,0.723 -0.539,0 -1,-0.199 -1.381,-0.598 L 50.755,0 Z m 1.301,-1.262 c 0.317,0.352 0.654,0.528 1.012,0.528 0.319,0 0.574,-0.155 0.765,-0.464 0.19,-0.309 0.286,-0.722 0.286,-1.238 0,-0.988 -0.319,-1.482 -0.955,-1.482 -0.384,0 -0.753,0.248 -1.108,0.743 z"
   style="fill:#ffffff;fill-rule:nonzero"
   id="path22169"
   inkscape:connector-curvature="0" />
    <rect
   x="55.662998"
   y="-6.9429998"
   width="1.302"
   height="6.9429998"
   style="fill:#ffffff;fill-rule:nonzero"
   id="rect22171" />
    <path
   d="m 62.522,-0.163 c -0.618,0.182 -1.205,0.273 -1.759,0.273 -0.806,0 -1.442,-0.229 -1.908,-0.686 -0.466,-0.457 -0.699,-1.082 -0.699,-1.873 0,-0.748 0.213,-1.349 0.64,-1.805 0.426,-0.456 0.99,-0.684 1.69,-0.684 0.707,0 1.223,0.223 1.548,0.668 0.325,0.446 0.488,1.151 0.488,2.115 h -2.994 c 0.088,0.921 0.593,1.381 1.517,1.381 0.436,0 0.929,-0.101 1.477,-0.303 z M 59.51,-2.889 h 1.732 c 0,-0.824 -0.265,-1.235 -0.795,-1.235 -0.54,0 -0.852,0.411 -0.937,1.235 z"
   style="fill:#ffffff;fill-rule:nonzero"
   id="path22173"
   inkscape:connector-curvature="0" />
    <path
   d="m 66.972,0 v -4.015 h -0.664 v -0.813 h 0.664 v -0.334 c 0,-0.607 0.144,-1.074 0.433,-1.401 0.289,-0.326 0.7,-0.49 1.233,-0.49 0.329,0 0.678,0.06 1.047,0.18 v 0.889 c -0.364,-0.162 -0.633,-0.242 -0.809,-0.242 -0.402,0 -0.603,0.366 -0.603,1.099 v 0.299 h 3.039 V 0 H 70.01 V -4.015 H 68.273 V 0 Z m 3.254,-5.641 v -1.087 h 1.086 v 1.087 z m -0.73,0.813"
   style="fill:#ffffff;fill-rule:nonzero"
   id="path22175"
   inkscape:connector-curvature="0" />
    <rect
   x="72.939003"
   y="-6.9429998"
   width="1.302"
   height="6.9429998"
   style="fill:#ffffff;fill-rule:nonzero"
   id="rect22177" />
    <path
   d="M 78.356,-0.026 C 78.045,0.064 77.8,0.11 77.622,0.11 c -1.129,0 -1.693,-0.528 -1.693,-1.583 v -2.542 h -0.541 v -0.813 h 0.541 v -0.813 l 1.301,-0.15 v 0.963 h 1.034 v 0.813 H 77.23 v 2.37 c 0,0.593 0.242,0.889 0.726,0.889 0.111,0 0.245,-0.021 0.4,-0.062 z"
   style="fill:#ffffff;fill-rule:nonzero"
   id="path22179"
   inkscape:connector-curvature="0" />
    <path
   d="m 83.448,-0.163 c -0.619,0.182 -1.205,0.273 -1.759,0.273 -0.806,0 -1.442,-0.229 -1.908,-0.686 -0.467,-0.457 -0.7,-1.082 -0.7,-1.873 0,-0.748 0.214,-1.349 0.64,-1.805 0.427,-0.456 0.99,-0.684 1.691,-0.684 0.706,0 1.222,0.223 1.548,0.668 0.325,0.446 0.488,1.151 0.488,2.115 h -2.995 c 0.088,0.921 0.594,1.381 1.517,1.381 0.437,0 0.93,-0.101 1.478,-0.303 z m -3.012,-2.726 h 1.732 c 0,-0.824 -0.265,-1.235 -0.796,-1.235 -0.539,0 -0.851,0.411 -0.936,1.235 z"
   style="fill:#ffffff;fill-rule:nonzero"
   id="path22181"
   inkscape:connector-curvature="0" />
    <path
   d="m 84.793,0 v -4.828 h 1.302 v 0.91 c 0.337,-0.68 0.85,-1.02 1.539,-1.02 0.082,0 0.162,0.009 0.242,0.026 v 1.161 c -0.185,-0.067 -0.357,-0.101 -0.515,-0.101 -0.519,0 -0.941,0.263 -1.266,0.787 V 0 Z"
   style="fill:#ffffff;fill-rule:nonzero"
   id="path22183"
   inkscape:connector-curvature="0" />
  </g>
  <g
   id="text7967"
   transform="matrix(1.33192,0,0,1.33192,49.68863,27.1949)"
   style="fill:#3c3c4c;fill-opacity:1">
    <path
   d="M 4.656,-5.299 C 4.455,-5.462 4.253,-5.584 4.052,-5.662 3.85,-5.741 3.655,-5.78 3.466,-5.78 c -0.239,0 -0.434,0.056 -0.585,0.17 -0.151,0.113 -0.227,0.261 -0.227,0.444 0,0.126 0.038,0.229 0.113,0.311 0.076,0.082 0.175,0.153 0.298,0.213 0.123,0.06 0.261,0.112 0.415,0.156 0.155,0.044 0.307,0.091 0.459,0.141 0.604,0.202 1.046,0.471 1.327,0.808 0.28,0.337 0.42,0.776 0.42,1.317 0,0.366 -0.062,0.696 -0.184,0.992 -0.123,0.296 -0.303,0.55 -0.539,0.76 C 4.727,-0.257 4.438,-0.093 4.094,0.024 3.751,0.14 3.362,0.198 2.928,0.198 c -0.9,0 -1.735,-0.267 -2.503,-0.802 l 0.793,-1.493 c 0.277,0.246 0.551,0.428 0.822,0.548 0.271,0.12 0.538,0.179 0.803,0.179 0.302,0 0.527,-0.069 0.675,-0.207 C 3.666,-1.716 3.74,-1.873 3.74,-2.05 3.74,-2.157 3.721,-2.249 3.684,-2.328 3.646,-2.407 3.583,-2.479 3.495,-2.545 3.406,-2.612 3.292,-2.673 3.15,-2.73 3.008,-2.786 2.837,-2.849 2.635,-2.918 2.396,-2.994 2.161,-3.077 1.931,-3.169 1.702,-3.26 1.497,-3.381 1.318,-3.532 1.138,-3.684 0.993,-3.874 0.883,-4.104 0.773,-4.334 0.718,-4.625 0.718,-4.977 c 0,-0.353 0.058,-0.673 0.175,-0.959 0.116,-0.287 0.28,-0.532 0.491,-0.737 0.211,-0.204 0.469,-0.363 0.774,-0.477 0.306,-0.113 0.647,-0.17 1.025,-0.17 0.353,0 0.721,0.049 1.105,0.147 0.384,0.097 0.752,0.24 1.105,0.429 z"
   style="fill:#3c3c4c;fill-rule:nonzero;fill-opacity:1"
   id="path22188"
   inkscape:connector-curvature="0" />
    <path
   d="M 9.596,-5.554 V 0 H 7.745 V -5.554 H 6.224 v -1.567 h 4.893 v 1.567 z"
   style="fill:#3c3c4c;fill-rule:nonzero;fill-opacity:1"
   id="path22190"
   inkscape:connector-curvature="0" />
    <path
   d="m 15.48,-2.645 -0.831,-2.37 -0.831,2.37 z m 0.491,1.408 H 13.327 L 12.902,0 h -1.974 l 2.71,-7.121 H 15.66 L 18.37,0 h -1.974 z"
   style="fill:#3c3c4c;fill-rule:nonzero;fill-opacity:1"
   id="path22192"
   inkscape:connector-curvature="0" />
    <path
   d="m 21.034,-1.436 h 0.406 c 0.466,0 0.8,-0.059 1.001,-0.179 0.202,-0.12 0.302,-0.312 0.302,-0.576 0,-0.265 -0.1,-0.457 -0.302,-0.576 -0.201,-0.12 -0.535,-0.18 -1.001,-0.18 h -0.406 z m 0,-2.89 h 0.34 c 0.579,0 0.869,-0.23 0.869,-0.689 0,-0.46 -0.29,-0.69 -0.869,-0.69 h -0.34 z m -1.851,-2.795 h 2.757 c 0.655,0 1.153,0.157 1.493,0.472 0.34,0.315 0.51,0.768 0.51,1.36 0,0.359 -0.065,0.656 -0.194,0.892 -0.129,0.237 -0.326,0.436 -0.59,0.6 0.264,0.051 0.489,0.128 0.675,0.232 0.186,0.103 0.337,0.231 0.454,0.382 0.116,0.151 0.199,0.321 0.25,0.51 0.05,0.189 0.075,0.39 0.075,0.605 0,0.333 -0.058,0.629 -0.174,0.887 -0.117,0.259 -0.281,0.476 -0.491,0.652 -0.211,0.176 -0.468,0.309 -0.77,0.397 C 22.876,-0.044 22.536,0 22.158,0 h -2.975 z"
   style="fill:#3c3c4c;fill-rule:nonzero;fill-opacity:1"
   id="path22194"
   inkscape:connector-curvature="0" />
    <rect
   x="25.718"
   y="-7.1209998"
   width="1.851"
   height="7.1209998"
   style="fill:#3c3c4c;fill-rule:nonzero;fill-opacity:1"
   id="rect22196" />
    <path
   d="m 30.913,-7.121 v 5.553 h 2.22 V 0 h -4.071 v -7.121 z"
   style="fill:#3c3c4c;fill-rule:nonzero;fill-opacity:1"
   id="path22198"
   inkscape:connector-curvature="0" />
    <path
   d="m 38.138,-5.554 h -2.2 v 1.19 h 2.078 v 1.568 h -2.078 v 1.228 h 2.2 V 0 h -4.051 v -7.121 h 4.051 z"
   style="fill:#3c3c4c;fill-rule:nonzero;fill-opacity:1"
   id="path22200"
   inkscape:connector-curvature="0" />
  </g>
  
  
  
  <g
   id="g7445"
   style="fill:#3c3c4c"><path
     inkscape:connector-curvature="0"
     style="fill:#3c3c4c;fill-rule:nonzero;stroke-width:0.0956609;fill-opacity:1"
     d="m 62.951909,363.49974 h 2.67353 l 2.489671,8.31724 2.57433,-8.31724 h 2.659947 l -3.460437,10.39738 c -0.323334,0.95862 -0.902656,1.4375 -1.738445,1.4375 -0.846982,0 -1.43214,-0.48395 -1.7549,-1.45223 z"
     id="path42" /><path
     inkscape:connector-curvature="0"
     style="fill:#3c3c4c;fill-rule:nonzero;stroke-width:0.0956609;fill-opacity:1"
     d="m 73.549701,372.29241 v -8.79267 h 2.507368 v 8.70906 c 0.04439,0.31215 0.334335,0.46807 0.869271,0.46807 h 1.70506 c 0.512455,0 0.796664,-0.14464 0.85253,-0.43458 l 0.01674,-0.0836 v -8.65894 h 2.507368 v 8.77593 c 0,0.76892 -0.08351,1.31505 -0.250727,1.63819 -0.44578,0.85827 -1.231443,1.28712 -2.356989,1.28712 h -3.242904 c -1.159219,0 -1.950335,-0.44013 -2.37373,-1.3206 -0.156119,-0.32304 -0.233987,-0.85243 -0.233987,-1.58797 z"
     id="path44" /><path
     inkscape:connector-curvature="0"
     style="fill:#3c3c4c;fill-rule:nonzero;stroke-width:0.0956609;fill-opacity:1"
     d="m 83.161422,372.34263 v -8.84279 h 2.507463 v 8.64219 c 0,0.35682 0.211506,0.53494 0.635189,0.53494 h 4.46325 l -0.01674,2.5242 h -4.663851 c -0.16712,0 -0.312142,-0.006 -0.434588,-0.0167 -0.902751,-0.0778 -1.543679,-0.34265 -1.922401,-0.79398 -0.379008,-0.45152 -0.568321,-1.13397 -0.568321,-2.04782 z"
     id="path46" /><path
     inkscape:connector-curvature="0"
     style="fill:#3c3c4c;fill-rule:nonzero;stroke-width:0.0956609;fill-opacity:1"
     d="m 90.850645,366.02385 v -2.52411 h 7.522295 v 2.52411 h -2.524109 v 9.17723 h -2.507463 v -9.17723 z"
     id="path48" /></g>
  <path
   id="path4"
   d="m 59.383485,369.41724 c 0,-4.50925 -3.655481,-8.1647 -8.164802,-8.1647 -4.50914,0 -8.164658,3.65545 -8.164658,8.1647 0,4.50921 3.655482,8.16469 8.164658,8.16469 4.509321,0 8.164802,-3.65548 8.164802,-8.16469 z"
   style="fill:#757575;fill-rule:nonzero;stroke:#414c55;stroke-width:0.61073178px;stroke-linejoin:miter;stroke-miterlimit:10;fill-opacity:1;stroke-opacity:1"
   inkscape:connector-curvature="0" />
  <g
   id="g40"
   transform="matrix(0.0359254,0,0,0.0359254,36.495161,347.09158)">
    <path
   id="polygon6"
   d="m 357.002,759.965 15.391,-24.781 -29.594,-66.614 -61.688,-63.583 12.788,86.322 16.629,35.632 23.179,35.166 z"
   style="fill:#2b2b2b;fill-rule:nonzero"
   inkscape:connector-curvature="0" />
    <path
   id="polygon8"
   d="m 460.762,760.17 -15.392,-24.783 29.597,-66.612 61.685,-63.582 -12.787,86.321 -16.63,35.631 -23.175,35.168 z"
   style="fill:#262626;fill-rule:nonzero"
   inkscape:connector-curvature="0" />
    <path
   id="polygon12"
   d="m 337.948,452.81 71.936,-18.383 V 808.75 L 372.316,734.951 342.799,668.57 314.328,652.395 257.223,571.1 l -1.598,-21.58 31.971,-57.547 z"
   style="fill:#424242;fill-rule:nonzero"
   inkscape:connector-curvature="0" />
    <path
   id="polygon14"
   d="m 481.727,452.944 -71.932,-18.382 v 374.325 l 37.564,-73.801 29.518,-66.379 28.473,-16.178 57.101,-81.295 1.599,-21.579 -31.969,-57.547 z"
   style="fill:#333333;fill-rule:nonzero"
   inkscape:connector-curvature="0" />
    <path
   id="polyline16"
   d="m 361.886,616.429 47.96,-46.887 v 34.229 l -47.96,47.827 v -35.169"
   style="fill:#4c4c4c;fill-rule:nonzero"
   inkscape:connector-curvature="0" />
    <path
   id="polygon18"
   d="m 409.881,603.732 -47.957,47.827 10.469,83.625 37.491,73.566 z"
   style="fill:#5b5b5b;fill-rule:nonzero"
   inkscape:connector-curvature="0" />
    <path
   id="polygon20"
   d="m 409.884,808.75 -37.491,-73.566 37.485,-17.672 z"
   style="fill:#333333;fill-rule:nonzero"
   inkscape:connector-curvature="0" />
    <path
   id="polygon22"
   d="M 361.924,651.559 V 616.39 l -34.766,-43.958 -41.119,-33.129 -0.043,25.934 21.582,50.752 z"
   style="fill:#ffffff;fill-rule:nonzero"
   inkscape:connector-curvature="0" />
    <path
   id="polyline24"
   d="m 457.816,616.448 -47.957,-46.887 v 34.229 l 47.957,47.826 v -35.168"
   style="fill:#2d2d2d;fill-rule:nonzero"
   inkscape:connector-curvature="0" />
    <path
   id="polygon26"
   d="m 409.804,603.732 47.954,47.827 -10.469,83.625 -37.488,73.566 z"
   style="fill:#353535;fill-rule:nonzero"
   inkscape:connector-curvature="0" />
    <path
   id="polygon28"
   d="m 409.801,808.75 37.488,-73.566 -37.482,-17.672 z"
   style="fill:#191919;fill-rule:nonzero"
   inkscape:connector-curvature="0" />
    <path
   id="polygon30"
   d="m 457.758,651.559 v -35.168 l 34.765,-43.958 41.122,-33.13 0.041,25.935 -21.578,50.753 z"
   style="fill:#ffffff;fill-rule:nonzero"
   inkscape:connector-curvature="0" />
    <path
   id="polyline32"
   d="M 338.399,452.22 409.824,569.549 409.67,434.003"
   style="fill:#383838;fill-rule:nonzero"
   inkscape:connector-curvature="0" />
    <path
   id="polyline34"
   d="M 481.271,452.232 409.846,569.561 410,434.016"
   style="fill:#2d2d2d;fill-rule:nonzero"
   inkscape:connector-curvature="0" />
    <path
   id="polygon36"
   d="m 342.815,668.578 19.143,-16.982 10.448,83.674 z"
   style="fill:#333333;fill-rule:nonzero"
   inkscape:connector-curvature="0" />
    <path
   id="polygon38"
   d="m 476.975,668.989 -19.144,-16.982 -10.448,83.675 z"
   style="fill:#1c1c1c;fill-rule:nonzero"
   inkscape:connector-curvature="0" />
  </g>
  <g
   id="text9293-46"
   serif:id="text9293-4"
   transform="matrix(4.00166,0,0,4.00166,51.85504,312.6478)">
    <path
   d="m 0.55,-0.304 h 0.086 c 0.099,0 0.169,-0.013 0.212,-0.038 0.043,-0.025 0.064,-0.066 0.064,-0.122 0,-0.056 -0.021,-0.097 -0.064,-0.122 C 0.805,-0.611 0.735,-0.624 0.636,-0.624 H 0.55 Z m 0,-0.612 h 0.072 c 0.123,0 0.184,-0.049 0.184,-0.146 0,-0.097 -0.061,-0.146 -0.184,-0.146 H 0.55 Z M 0.158,-1.508 h 0.584 c 0.139,0 0.244,0.033 0.316,0.1 0.072,0.067 0.108,0.163 0.108,0.288 0,0.076 -0.014,0.139 -0.041,0.189 -0.027,0.05 -0.069,0.092 -0.125,0.127 0.056,0.011 0.104,0.027 0.143,0.049 0.039,0.022 0.071,0.049 0.096,0.081 0.025,0.032 0.042,0.068 0.053,0.108 0.011,0.04 0.016,0.083 0.016,0.128 0,0.071 -0.012,0.133 -0.037,0.188 C 1.246,-0.195 1.212,-0.149 1.167,-0.112 1.122,-0.075 1.068,-0.047 1.004,-0.028 0.94,-0.009 0.868,0 0.788,0 h -0.63 z"
   style="fill:#ffffff;fill-rule:nonzero"
   id="path22229"
   inkscape:connector-curvature="0" />
    <path
   d="m 1.934,-0.816 h 0.13 c 0.144,0 0.216,-0.063 0.216,-0.188 0,-0.125 -0.072,-0.188 -0.216,-0.188 H 1.934 Z M 1.934,0 H 1.542 v -1.508 h 0.624 c 0.169,0 0.299,0.044 0.389,0.132 0.09,0.088 0.135,0.212 0.135,0.372 0,0.16 -0.045,0.284 -0.135,0.372 C 2.465,-0.544 2.335,-0.5 2.166,-0.5 H 1.934 Z"
   style="fill:#ffffff;fill-rule:nonzero"
   id="path22231"
   inkscape:connector-curvature="0" />
  </g>
  <g
   id="path8216-12"
   serif:id="path8216-1"
   transform="matrix(3.89232,0,0,-3.89232,4.1532,-727.1992)"
   style="stroke-width:0.38537428;stroke-miterlimit:4;stroke-dasharray:none;stroke-linecap:round">
    <path
   d="m 18.11,-246.991 c 1.469,2.545 0.894,5.809 -1.358,7.698 -2.251,1.889 -5.565,1.889 -7.816,0 -2.251,-1.889 -2.827,-5.153 -1.357,-7.698"
   style="fill:none;stroke:#cccccc;stroke-width:0.38537428;stroke-linejoin:miter;stroke-miterlimit:4;stroke-dasharray:none;stroke-linecap:round"
   id="path22236"
   inkscape:connector-curvature="0" />
  </g>
  <path
   id="path9630"
   d="m 73.868544,236.65989 0.0506,9.21702"
   style="fill:#cccccc;fill-rule:nonzero;stroke:#cccccc;stroke-width:1.5;stroke-linejoin:miter;stroke-miterlimit:4;stroke-dasharray:none;stroke-linecap:round"
   inkscape:connector-curvature="0" />
  <path
   id="path9630-1"
   d="m 78.500404,241.20223 -9.213121,0.0428"
   style="fill:#cccccc;fill-rule:nonzero;stroke:#cccccc;stroke-width:1.5;stroke-linejoin:miter;stroke-miterlimit:4;stroke-dasharray:none;stroke-linecap:round"
   inkscape:connector-curvature="0" />
  <path
   id="path9630-1-6"
   d="m 40.238899,240.94145 -9.213122,0.0428"
   style="fill:#cccccc;fill-rule:nonzero;stroke:#cccccc;stroke-width:1.5;stroke-linejoin:miter;stroke-miterlimit:4;stroke-dasharray:none;stroke-linecap:round"
   inkscape:connector-curvature="0" />
  <path
   id="path9948"
   d="M 54.146158,222.34005 54.09945,195.99293"
   style="fill:none;stroke:#cccccc;stroke-width:1.5;stroke-linejoin:miter;stroke-miterlimit:4;stroke-dasharray:none;stroke-linecap:round"
   inkscape:connector-curvature="0" />
  <g
   id="text9293-47"
   serif:id="text9293-4"
   transform="matrix(4.00166,0,0,4.00166,28.4589,257.0768)">
    <path
   d="M 0.986,-1.122 C 0.943,-1.157 0.901,-1.182 0.858,-1.199 0.815,-1.216 0.774,-1.224 0.734,-1.224 c -0.051,0 -0.092,0.012 -0.124,0.036 -0.032,0.024 -0.048,0.055 -0.048,0.094 0,0.027 0.008,0.049 0.024,0.066 0.016,0.017 0.037,0.032 0.063,0.045 0.026,0.013 0.055,0.024 0.088,0.033 0.033,0.009 0.065,0.019 0.097,0.03 0.128,0.043 0.222,0.1 0.281,0.171 0.059,0.071 0.089,0.164 0.089,0.279 0,0.077 -0.013,0.147 -0.039,0.21 C 1.139,-0.197 1.101,-0.144 1.051,-0.099 1.001,-0.054 0.94,-0.02 0.867,0.005 0.794,0.03 0.712,0.042 0.62,0.042 c -0.191,0 -0.367,-0.057 -0.53,-0.17 l 0.168,-0.316 c 0.059,0.052 0.117,0.091 0.174,0.116 0.057,0.025 0.114,0.038 0.17,0.038 0.064,0 0.112,-0.015 0.143,-0.044 0.031,-0.029 0.047,-0.063 0.047,-0.1 0,-0.023 -0.004,-0.042 -0.012,-0.059 C 0.772,-0.51 0.759,-0.525 0.74,-0.539 0.721,-0.553 0.697,-0.566 0.667,-0.578 0.637,-0.59 0.601,-0.603 0.558,-0.618 0.507,-0.634 0.458,-0.652 0.409,-0.671 0.36,-0.69 0.317,-0.716 0.279,-0.748 0.241,-0.78 0.21,-0.82 0.187,-0.869 0.164,-0.918 0.152,-0.979 0.152,-1.054 c 0,-0.075 0.012,-0.142 0.037,-0.203 0.025,-0.061 0.059,-0.113 0.104,-0.156 0.045,-0.043 0.099,-0.077 0.164,-0.101 0.065,-0.024 0.137,-0.036 0.217,-0.036 0.075,0 0.153,0.01 0.234,0.031 0.081,0.021 0.159,0.051 0.234,0.091 z"
   style="fill:#ffffff;fill-rule:nonzero"
   id="path22245"
   inkscape:connector-curvature="0" />
    <path
   d="M 2.308,-1.176 H 1.842 v 0.252 h 0.44 v 0.332 h -0.44 v 0.26 H 2.308 V 0 H 1.45 v -1.508 h 0.858 z"
   style="fill:#ffffff;fill-rule:nonzero"
   id="path22247"
   inkscape:connector-curvature="0" />
    <path
   d="m 2.522,0 0.256,-1.508 h 0.388 l 0.302,0.804 0.3,-0.804 H 4.156 L 4.412,0 H 4.022 L 3.892,-0.868 3.536,0 H 3.38 L 3.042,-0.868 2.912,0 Z"
   style="fill:#ffffff;fill-rule:nonzero"
   id="path22249"
   inkscape:connector-curvature="0" />
    <path
   d="m 5.052,-0.304 h 0.086 c 0.099,0 0.169,-0.013 0.212,-0.038 C 5.393,-0.367 5.414,-0.408 5.414,-0.464 5.414,-0.52 5.393,-0.561 5.35,-0.586 5.307,-0.611 5.237,-0.624 5.138,-0.624 H 5.052 Z m 0,-0.612 h 0.072 c 0.123,0 0.184,-0.049 0.184,-0.146 0,-0.097 -0.061,-0.146 -0.184,-0.146 H 5.052 Z M 4.66,-1.508 h 0.584 c 0.139,0 0.244,0.033 0.316,0.1 0.072,0.067 0.108,0.163 0.108,0.288 0,0.076 -0.014,0.139 -0.041,0.189 -0.027,0.05 -0.069,0.092 -0.125,0.127 0.056,0.011 0.104,0.027 0.143,0.049 0.039,0.022 0.071,0.049 0.096,0.081 0.025,0.032 0.042,0.068 0.053,0.108 0.011,0.04 0.016,0.083 0.016,0.128 0,0.071 -0.012,0.133 -0.037,0.188 C 5.748,-0.195 5.714,-0.149 5.669,-0.112 5.624,-0.075 5.57,-0.047 5.506,-0.028 5.442,-0.009 5.37,0 5.29,0 H 4.66 Z"
   style="fill:#ffffff;fill-rule:nonzero"
   id="path22251"
   inkscape:connector-curvature="0" />
    <path
   d="m 6.436,-1.508 v 1.176 h 0.47 V 0 H 6.044 v -1.508 z"
   style="fill:#ffffff;fill-rule:nonzero"
   id="path22253"
   inkscape:connector-curvature="0" />
    <path
   d="M 7.99,-0.56 7.814,-1.062 7.638,-0.56 Z m 0.104,0.298 H 7.534 L 7.444,0 H 7.026 L 7.6,-1.508 H 8.028 L 8.602,0 H 8.184 Z"
   style="fill:#ffffff;fill-rule:nonzero"
   id="path22255"
   inkscape:connector-curvature="0" />
    <path
   d="m 8.774,0 v -1.508 h 0.392 l 0.724,0.922 v -0.922 h 0.39 V 0 H 9.89 L 9.166,-0.922 V 0 Z"
   style="fill:#ffffff;fill-rule:nonzero"
   id="path22257"
   inkscape:connector-curvature="0" />
    <path
   d="m 11.702,-1.004 c -0.091,-0.111 -0.203,-0.166 -0.336,-0.166 -0.059,0 -0.113,0.011 -0.163,0.032 -0.05,0.021 -0.093,0.05 -0.129,0.087 -0.036,0.037 -0.064,0.08 -0.085,0.131 -0.021,0.051 -0.031,0.105 -0.031,0.164 0,0.06 0.01,0.115 0.031,0.166 0.021,0.051 0.049,0.095 0.086,0.132 0.037,0.037 0.08,0.067 0.129,0.088 0.049,0.021 0.103,0.032 0.16,0.032 0.125,0 0.238,-0.053 0.338,-0.16 v 0.464 l -0.04,0.014 c -0.06,0.021 -0.116,0.037 -0.168,0.047 -0.052,0.01 -0.103,0.015 -0.154,0.015 -0.104,0 -0.204,-0.02 -0.299,-0.059 -0.095,-0.039 -0.179,-0.095 -0.252,-0.166 -0.073,-0.071 -0.131,-0.156 -0.175,-0.254 -0.044,-0.098 -0.066,-0.205 -0.066,-0.321 0,-0.116 0.022,-0.222 0.065,-0.319 0.043,-0.097 0.101,-0.18 0.174,-0.25 0.073,-0.07 0.157,-0.125 0.253,-0.164 0.096,-0.039 0.197,-0.059 0.302,-0.059 0.06,0 0.119,0.006 0.177,0.019 0.058,0.013 0.119,0.032 0.183,0.059 z"
   style="fill:#ffffff;fill-rule:nonzero"
   id="path22259"
   inkscape:connector-curvature="0" />
    <path
   d="m 12.808,-1.176 h -0.466 v 0.252 h 0.44 v 0.332 h -0.44 v 0.26 h 0.466 V 0 H 11.95 v -1.508 h 0.858 z"
   style="fill:#ffffff;fill-rule:nonzero"
   id="path22261"
   inkscape:connector-curvature="0" />
  </g>
  <path
   d="m 126.90355,216.66217 c 2.73714,-4.74196 1.66469,-10.82449 -2.53305,-14.34595 -4.19374,-3.52146 -10.3723,-3.52146 -14.56604,0 -4.19774,3.52146 -5.27019,9.60399 -2.53305,14.34595 l 9.81607,-5.66635 z"
   style="fill:none;stroke:#cccccc;stroke-width:1;stroke-linejoin:miter;stroke-miterlimit:4;stroke-dasharray:none;stroke-linecap:round"
   id="path22266"
   inkscape:connector-curvature="0" />
  <path
   d="m 126.5314,217.85867 0.024,4.40983"
   style="fill:#cccccc;fill-rule:nonzero;stroke:#cccccc;stroke-width:1;stroke-linejoin:miter;stroke-miterlimit:4;stroke-dasharray:none;stroke-linecap:round"
   id="path22269"
   inkscape:connector-curvature="0" />
  <path
   d="m 128.74832,220.03157 -4.40983,0.02"
   style="fill:#cccccc;fill-rule:nonzero;stroke:#cccccc;stroke-width:1;stroke-linejoin:miter;stroke-miterlimit:4;stroke-dasharray:none;stroke-linecap:round"
   id="path22272"
   inkscape:connector-curvature="0" />
  <path
   d="m 126.5314,217.85867 0.024,4.40983"
   style="fill:#cccccc;fill-rule:nonzero;stroke:#cccccc;stroke-width:1;stroke-linejoin:miter;stroke-miterlimit:4;stroke-dasharray:none;stroke-linecap:round"
   id="path22275"
   inkscape:connector-curvature="0" />
  <path
   d="m 128.74832,220.03157 -4.40983,0.02"
   style="fill:#cccccc;fill-rule:nonzero;stroke:#cccccc;stroke-width:1;stroke-linejoin:miter;stroke-miterlimit:4;stroke-dasharray:none;stroke-linecap:round"
   id="path22278"
   inkscape:connector-curvature="0" />
  <path
   d="m 110.42872,219.90752 -4.41383,0.02"
   style="fill:#cccccc;fill-rule:nonzero;stroke:#cccccc;stroke-width:1;stroke-linejoin:miter;stroke-miterlimit:4;stroke-dasharray:none;stroke-linecap:round"
   id="path22281"
   inkscape:connector-curvature="0" />
  <path
   d="m 117.08748,210.99982 -0.024,-13.30952"
   style="fill:none;stroke:#cccccc;stroke-width:1;stroke-linejoin:miter;stroke-miterlimit:4;stroke-dasharray:none;stroke-linecap:round"
   id="path22284"
   inkscape:connector-curvature="0" />
  <g
   id="text9293-48"
   serif:id="text9293-4"
   transform="matrix(4.00166,0,0,4.00166,120.532,312.6478)">
    <path
   d="M 0.986,-1.122 C 0.943,-1.157 0.901,-1.182 0.858,-1.199 0.815,-1.216 0.774,-1.224 0.734,-1.224 c -0.051,0 -0.092,0.012 -0.124,0.036 -0.032,0.024 -0.048,0.055 -0.048,0.094 0,0.027 0.008,0.049 0.024,0.066 0.016,0.017 0.037,0.032 0.063,0.045 0.026,0.013 0.055,0.024 0.088,0.033 0.033,0.009 0.065,0.019 0.097,0.03 0.128,0.043 0.222,0.1 0.281,0.171 0.059,0.071 0.089,0.164 0.089,0.279 0,0.077 -0.013,0.147 -0.039,0.21 C 1.139,-0.197 1.101,-0.144 1.051,-0.099 1.001,-0.054 0.94,-0.02 0.867,0.005 0.794,0.03 0.712,0.042 0.62,0.042 c -0.191,0 -0.367,-0.057 -0.53,-0.17 l 0.168,-0.316 c 0.059,0.052 0.117,0.091 0.174,0.116 0.057,0.025 0.114,0.038 0.17,0.038 0.064,0 0.112,-0.015 0.143,-0.044 0.031,-0.029 0.047,-0.063 0.047,-0.1 0,-0.023 -0.004,-0.042 -0.012,-0.059 C 0.772,-0.51 0.759,-0.525 0.74,-0.539 0.721,-0.553 0.697,-0.566 0.667,-0.578 0.637,-0.59 0.601,-0.603 0.558,-0.618 0.507,-0.634 0.458,-0.652 0.409,-0.671 0.36,-0.69 0.317,-0.716 0.279,-0.748 0.241,-0.78 0.21,-0.82 0.187,-0.869 0.164,-0.918 0.152,-0.979 0.152,-1.054 c 0,-0.075 0.012,-0.142 0.037,-0.203 0.025,-0.061 0.059,-0.113 0.104,-0.156 0.045,-0.043 0.099,-0.077 0.164,-0.101 0.065,-0.024 0.137,-0.036 0.217,-0.036 0.075,0 0.153,0.01 0.234,0.031 0.081,0.021 0.159,0.051 0.234,0.091 z"
   style="fill:#ffffff;fill-rule:nonzero"
   id="path22287"
   inkscape:connector-curvature="0" />
    <path
   d="M 2.308,-1.176 H 1.842 v 0.252 h 0.44 v 0.332 h -0.44 v 0.26 H 2.308 V 0 H 1.45 v -1.508 h 0.858 z"
   style="fill:#ffffff;fill-rule:nonzero"
   id="path22289"
   inkscape:connector-curvature="0" />
    <path
   d="m 2.522,0 0.256,-1.508 h 0.388 l 0.302,0.804 0.3,-0.804 H 4.156 L 4.412,0 H 4.022 L 3.892,-0.868 3.536,0 H 3.38 L 3.042,-0.868 2.912,0 Z"
   style="fill:#ffffff;fill-rule:nonzero"
   id="path22291"
   inkscape:connector-curvature="0" />
  </g>
</svg>