<?xml version="1.0" encoding="UTF-8" standalone="no"?>
<svg
   xmlns:serif="http://www.serif.com/"
   xmlns:dc="http://purl.org/dc/elements/1.1/"
   xmlns:cc="http://creativecommons.org/ns#"
   xmlns:rdf="http://www.w3.org/1999/02/22-rdf-syntax-ns#"
   xmlns:svg="http://www.w3.org/2000/svg"
   xmlns="http://www.w3.org/2000/svg"
   xmlns:xlink="http://www.w3.org/1999/xlink"
   xmlns:sodipodi="http://sodipodi.sourceforge.net/DTD/sodipodi-0.dtd"
   xmlns:inkscape="http://www.inkscape.org/namespaces/inkscape"
   width="60px"
   height="380px"
   version="1.1"
   xml:space="preserve"
   style="fill-rule:evenodd;clip-rule:evenodd;"
   id="svg24383"
   sodipodi:docname="Tohe.svg"
   inkscape:version="0.92.3 (2405546, 2018-03-11)">
  <defs
   id="defs24387">
    <linearGradient
   inkscape:collect="always"
   id="linearGradient24617">
      <stop
   style="stop-color:#555555;stop-opacity:1"
   offset="0"
   id="stop24613" />
      <stop
   style="stop-color:#989898;stop-opacity:1"
   offset="1"
   id="stop24615" />
    </linearGradient>
    <linearGradient
   inkscape:collect="always"
   xlink:href="#linearGradient24617"
   id="linearGradient24619"
   x1="0.00015104213"
   y1="379.99832"
   x2="59.999996"
   y2="-0.00014301452"
   gradientUnits="userSpaceOnUse" />
  </defs>
  <metadata
   id="metadata24389">
    <rdf:RDF>
      <cc:Work
   rdf:about="">
        <dc:format>image/svg+xml</dc:format>
        <dc:type
   rdf:resource="http://purl.org/dc/dcmitype/StillImage" />
      <dc:title></dc:title></cc:Work>
    </rdf:RDF>
  </metadata>
  <sodipodi:namedview
   pagecolor="#ffffff"
   bordercolor="#666666"
   borderopacity="1"
   objecttolerance="10"
   gridtolerance="10"
   guidetolerance="10"
   inkscape:pageopacity="0"
   inkscape:pageshadow="2"
   inkscape:window-width="1920"
   inkscape:window-height="1017"
   id="namedview24385"
   showgrid="false"
   inkscape:zoom="2.2342105"
   inkscape:cx="46.657746"
   inkscape:cy="192.09979"
   inkscape:window-x="1912"
   inkscape:window-y="-8"
   inkscape:window-maximized="1"
   inkscape:current-layer="svg24383" />
  <rect
   x="0.00015104213"
   y="-0.00014301452"
   width="59.999844"
   height="379.99847"
   style="fill:url(#linearGradient24619);stroke-width:2.39449477;fill-opacity:1"
   id="rect24177" />
  <path
   d="m 39.903552,142.66217 c 2.737136,-4.74196 1.664691,-10.82449 -2.533051,-14.34595 -4.193739,-3.52146 -10.372302,-3.52146 -14.566042,0 -4.197741,3.52146 -5.270186,9.60399 -2.533051,14.34595 l 9.816072,-5.66635 z"
   style="fill:none;stroke:#cccccc;stroke-width:1.04043162px"
   id="path24180"
   inkscape:connector-curvature="0" />
  <path
   d="m 39.531398,143.85867 0.02401,4.40983"
   style="fill:#cccccc;fill-rule:nonzero;stroke:#cccccc;stroke-width:1.04043162px"
   id="path24183"
   inkscape:connector-curvature="0" />
  <path
   d="m 41.748317,146.03157 -4.409829,0.02"
   style="fill:#cccccc;fill-rule:nonzero;stroke:#cccccc;stroke-width:1.04043162px"
   id="path24186"
   inkscape:connector-curvature="0" />
  <path
   d="m 23.428718,145.90752 -4.413831,0.02"
   style="fill:#cccccc;fill-rule:nonzero;stroke:#cccccc;stroke-width:1.04043162px"
   id="path24189"
   inkscape:connector-curvature="0" />
  <path
   d="M 30.08748,136.99982 30.06347,123.6903"
   style="fill:none;stroke:#cccccc;stroke-width:1.16048133px"
   id="path24192"
   inkscape:connector-curvature="0" />
  <path
   d="m 39.903552,142.66217 c 2.737136,-4.74196 1.664691,-10.82449 -2.533051,-14.34595 -4.193739,-3.52146 -10.372302,-3.52146 -14.566042,0 -4.197741,3.52146 -5.270186,9.60399 -2.533051,14.34595 l 9.816072,-5.66635 z"
   style="fill:none;stroke:#cccccc;stroke-width:1;stroke-miterlimit:4;stroke-dasharray:none;stroke-linecap:round"
   id="path24195"
   inkscape:connector-curvature="0" />
  <path
   d="m 39.531398,143.85867 0.02401,4.40983"
   style="fill:#cccccc;fill-rule:nonzero;stroke:#cccccc;stroke-width:1;stroke-miterlimit:4;stroke-dasharray:none;stroke-linecap:round"
   id="path24198"
   inkscape:connector-curvature="0" />
  <path
   d="m 41.748317,146.03157 -4.409829,0.02"
   style="fill:#cccccc;fill-rule:nonzero;stroke:#cccccc;stroke-width:1;stroke-miterlimit:4;stroke-dasharray:none;stroke-linecap:round"
   id="path24201"
   inkscape:connector-curvature="0" />
  <path
   d="m 23.428718,145.90752 -4.413831,0.02"
   style="fill:#cccccc;fill-rule:nonzero;stroke:#cccccc;stroke-width:1;stroke-miterlimit:4;stroke-dasharray:none;stroke-linecap:round"
   id="path24204"
   inkscape:connector-curvature="0" />
  <path
   d="M 30.08748,136.99982 30.06347,123.6903"
   style="fill:none;stroke:#cccccc;stroke-width:1;stroke-miterlimit:4;stroke-dasharray:none;stroke-linecap:round"
   id="path24207"
   inkscape:connector-curvature="0" />
  <g
   id="text9293-4"
   transform="matrix(4.00166,0,0,4.00166,16.63009,279.6478)">
    <rect
   x="0.15800001"
   y="-1.508"
   width="0.39199999"
   height="1.508"
   style="fill:#ffffff;fill-rule:nonzero"
   id="rect24210" />
    <path
   d="m 0.866,0 v -1.508 h 0.392 l 0.724,0.922 v -0.922 h 0.39 V 0 H 1.982 L 1.258,-0.922 V 0 Z"
   style="fill:#ffffff;fill-rule:nonzero"
   id="path24212"
   inkscape:connector-curvature="0" />
    <path
   d="m 3.08,-0.816 h 0.13 c 0.144,0 0.216,-0.063 0.216,-0.188 0,-0.125 -0.072,-0.188 -0.216,-0.188 H 3.08 Z M 3.08,0 H 2.688 v -1.508 h 0.624 c 0.169,0 0.299,0.044 0.389,0.132 0.09,0.088 0.135,0.212 0.135,0.372 0,0.16 -0.045,0.284 -0.135,0.372 C 3.611,-0.544 3.481,-0.5 3.312,-0.5 H 3.08 Z"
   style="fill:#ffffff;fill-rule:nonzero"
   id="path24214"
   inkscape:connector-curvature="0" />
    <path
   d="m 4.436,-1.508 v 0.82 c 0,0.044 0.002,0.089 0.005,0.135 0.003,0.046 0.013,0.088 0.03,0.125 0.017,0.037 0.043,0.068 0.079,0.091 0.036,0.023 0.087,0.035 0.152,0.035 0.065,0 0.116,-0.012 0.151,-0.035 0.035,-0.023 0.062,-0.054 0.079,-0.091 0.017,-0.037 0.028,-0.079 0.031,-0.125 0.003,-0.046 0.005,-0.091 0.005,-0.135 v -0.82 h 0.39 v 0.874 c 0,0.235 -0.054,0.406 -0.161,0.514 C 5.09,-0.012 4.925,0.042 4.702,0.042 4.479,0.042 4.314,-0.012 4.206,-0.12 4.098,-0.228 4.044,-0.399 4.044,-0.634 v -0.874 z"
   style="fill:#ffffff;fill-rule:nonzero"
   id="path24216"
   inkscape:connector-curvature="0" />
    <path
   d="M 6.246,-1.176 V 0 H 5.854 V -1.176 H 5.532 v -0.332 h 1.036 v 0.332 z"
   style="fill:#ffffff;fill-rule:nonzero"
   id="path24218"
   inkscape:connector-curvature="0" />
  </g>
  <g
   id="text7967-9-5"
   transform="matrix(1.05877,0,0,1.05877,12.82352,44.3508)">
    <g
   id="g24245">
      <path
   d="M 9.447,-0.026 C 9.136,0.064 8.892,0.11 8.713,0.11 7.584,0.11 7.02,-0.418 7.02,-1.473 V -4.015 H 6.479 V -4.828 H 7.02 v -0.813 l 1.301,-0.15 v 0.963 h 1.034 v 0.813 H 8.321 v 2.37 c 0,0.593 0.242,0.889 0.726,0.889 0.111,0 0.245,-0.021 0.4,-0.062 z"
   style="fill:#ffffff;fill-rule:nonzero"
   id="path24223"
   inkscape:connector-curvature="0" />
      <path
   d="m 12.635,0.11 c -0.753,0 -1.352,-0.228 -1.796,-0.684 -0.444,-0.456 -0.666,-1.069 -0.666,-1.84 0,-0.78 0.223,-1.395 0.67,-1.847 0.447,-0.451 1.055,-0.677 1.823,-0.677 0.771,0 1.38,0.226 1.827,0.677 0.447,0.452 0.67,1.064 0.67,1.838 0,0.792 -0.224,1.412 -0.672,1.86 -0.449,0.449 -1.067,0.673 -1.856,0.673 z m 0.022,-0.814 c 0.747,0 1.121,-0.573 1.121,-1.719 0,-0.525 -0.099,-0.939 -0.297,-1.244 -0.197,-0.305 -0.469,-0.457 -0.815,-0.457 -0.343,0 -0.614,0.152 -0.811,0.457 -0.198,0.305 -0.297,0.722 -0.297,1.253 0,0.525 0.098,0.941 0.294,1.249 0.197,0.308 0.465,0.461 0.805,0.461 z"
   style="fill:#ffffff;fill-rule:nonzero"
   id="path24225"
   inkscape:connector-curvature="0" />
      <path
   d="m 16.359,0 v -4.828 h 1.302 v 0.91 c 0.425,-0.68 0.973,-1.02 1.644,-1.02 0.431,0 0.771,0.136 1.02,0.409 0.25,0.273 0.374,0.645 0.374,1.117 V 0 h -1.301 v -3.091 c 0,-0.548 -0.182,-0.822 -0.546,-0.822 -0.413,0 -0.81,0.291 -1.191,0.875 V 0 Z"
   style="fill:#ffffff;fill-rule:nonzero"
   id="path24227"
   inkscape:connector-curvature="0" />
      <path
   d="M 26.204,-0.163 C 25.586,0.019 25,0.11 24.446,0.11 c -0.807,0 -1.443,-0.229 -1.909,-0.686 -0.466,-0.457 -0.699,-1.082 -0.699,-1.873 0,-0.748 0.213,-1.349 0.64,-1.805 0.426,-0.456 0.99,-0.684 1.691,-0.684 0.706,0 1.222,0.223 1.547,0.668 0.326,0.446 0.488,1.151 0.488,2.115 H 23.21 c 0.088,0.921 0.594,1.381 1.517,1.381 0.437,0 0.929,-0.101 1.477,-0.303 z m -3.012,-2.726 h 1.733 c 0,-0.824 -0.265,-1.235 -0.796,-1.235 -0.539,0 -0.852,0.411 -0.937,1.235 z"
   style="fill:#ffffff;fill-rule:nonzero"
   id="path24229"
   inkscape:connector-curvature="0" />
      <path
   d="M 4.375,11.151 C 3.836,11.295 3.336,11.366 2.876,11.366 2.105,11.366 1.496,11.14 1.049,10.687 0.602,10.234 0.378,9.618 0.378,8.838 0.378,8.05 0.608,7.433 1.068,6.987 1.529,6.541 2.165,6.319 2.977,6.319 c 0.393,0 0.846,0.063 1.359,0.189 V 7.449 C 3.802,7.276 3.375,7.189 3.056,7.189 c -0.39,0 -0.704,0.15 -0.941,0.449 -0.237,0.299 -0.356,0.696 -0.356,1.191 0,0.507 0.128,0.913 0.385,1.218 0.256,0.305 0.598,0.458 1.026,0.458 0.39,0 0.792,-0.085 1.205,-0.255 z"
   style="fill:#ffffff;fill-rule:nonzero"
   id="path24231"
   inkscape:connector-curvature="0" />
      <path
   d="M 7.633,11.366 C 6.88,11.366 6.281,11.139 5.837,10.683 5.393,10.227 5.171,9.613 5.171,8.843 5.171,8.063 5.394,7.447 5.842,6.996 6.289,6.544 6.896,6.319 7.664,6.319 c 0.771,0 1.38,0.225 1.827,0.677 0.447,0.451 0.671,1.064 0.671,1.838 0,0.791 -0.225,1.411 -0.673,1.86 -0.449,0.448 -1.067,0.672 -1.856,0.672 z M 7.655,10.553 C 8.403,10.553 8.777,9.98 8.777,8.834 8.777,8.309 8.678,7.894 8.48,7.589 8.282,7.284 8.01,7.132 7.664,7.132 7.321,7.132 7.051,7.284 6.853,7.589 6.655,7.894 6.556,8.312 6.556,8.843 c 0,0.524 0.098,0.94 0.295,1.248 0.196,0.308 0.464,0.462 0.804,0.462 z"
   style="fill:#ffffff;fill-rule:nonzero"
   id="path24233"
   inkscape:connector-curvature="0" />
      <path
   d="M 11.358,11.257 V 6.429 h 1.301 v 0.91 c 0.425,-0.68 0.973,-1.02 1.645,-1.02 0.431,0 0.771,0.136 1.02,0.409 0.249,0.272 0.374,0.644 0.374,1.116 v 3.413 H 14.396 V 8.165 c 0,-0.548 -0.182,-0.822 -0.545,-0.822 -0.414,0 -0.811,0.292 -1.192,0.875 v 3.039 z"
   style="fill:#ffffff;fill-rule:nonzero"
   id="path24235"
   inkscape:connector-curvature="0" />
      <path
   d="m 19.76,11.23 c -0.31,0.091 -0.555,0.136 -0.734,0.136 -1.128,0 -1.693,-0.527 -1.693,-1.583 V 7.242 H 16.792 V 6.429 h 0.541 V 5.615 l 1.302,-0.149 v 0.963 h 1.033 v 0.813 h -1.033 v 2.37 c 0,0.592 0.242,0.888 0.725,0.888 0.112,0 0.245,-0.02 0.4,-0.061 z"
   style="fill:#ffffff;fill-rule:nonzero"
   id="path24237"
   inkscape:connector-curvature="0" />
      <path
   d="M 20.921,11.257 V 6.429 h 1.302 v 0.91 c 0.337,-0.68 0.85,-1.02 1.539,-1.02 0.082,0 0.162,0.008 0.242,0.026 V 7.506 C 23.819,7.438 23.647,7.405 23.489,7.405 c -0.519,0 -0.941,0.262 -1.266,0.787 v 3.065 z"
   style="fill:#ffffff;fill-rule:nonzero"
   id="path24239"
   inkscape:connector-curvature="0" />
      <path
   d="m 27.042,11.366 c -0.753,0 -1.352,-0.227 -1.796,-0.683 -0.444,-0.456 -0.666,-1.07 -0.666,-1.84 0,-0.78 0.223,-1.396 0.67,-1.847 0.447,-0.452 1.055,-0.677 1.823,-0.677 0.771,0 1.38,0.225 1.827,0.677 0.447,0.451 0.67,1.064 0.67,1.838 0,0.791 -0.224,1.411 -0.672,1.86 -0.449,0.448 -1.067,0.672 -1.856,0.672 z m 0.022,-0.813 c 0.748,0 1.121,-0.573 1.121,-1.719 0,-0.525 -0.099,-0.94 -0.297,-1.245 -0.197,-0.305 -0.469,-0.457 -0.815,-0.457 -0.343,0 -0.614,0.152 -0.811,0.457 -0.198,0.305 -0.297,0.723 -0.297,1.254 0,0.524 0.098,0.94 0.294,1.248 0.197,0.308 0.465,0.462 0.805,0.462 z"
   style="fill:#ffffff;fill-rule:nonzero"
   id="path24241"
   inkscape:connector-curvature="0" />
      <rect
   x="30.766001"
   y="4.3140001"
   width="1.302"
   height="6.9429998"
   style="fill:#ffffff;fill-rule:nonzero"
   id="rect24243" />
    </g>
  </g>
  <g
   id="text7967"
   transform="matrix(1.33192,0,0,1.33192,12.68863,32.4412)"
   style="fill:#3c3c4c;fill-opacity:1">
    <path
   d="M 3.447,-5.554 V 0 H 1.596 v -5.554 h -1.52 v -1.567 h 4.892 v 1.567 z"
   style="fill:#3c3c4c;fill-rule:nonzero;fill-opacity:1"
   id="path24250"
   inkscape:connector-curvature="0" />
    <path
   d="m 7.339,-3.561 c 0,0.284 0.053,0.545 0.16,0.784 0.107,0.239 0.252,0.447 0.435,0.624 0.182,0.176 0.395,0.313 0.637,0.41 0.243,0.098 0.499,0.147 0.77,0.147 0.271,0 0.527,-0.049 0.77,-0.147 0.242,-0.097 0.456,-0.234 0.642,-0.41 0.186,-0.177 0.332,-0.385 0.439,-0.624 0.107,-0.239 0.161,-0.5 0.161,-0.784 0,-0.283 -0.054,-0.544 -0.161,-0.784 -0.107,-0.239 -0.253,-0.447 -0.439,-0.623 -0.186,-0.176 -0.4,-0.313 -0.642,-0.411 -0.243,-0.097 -0.499,-0.146 -0.77,-0.146 -0.271,0 -0.527,0.049 -0.77,0.146 -0.242,0.098 -0.455,0.235 -0.637,0.411 -0.183,0.176 -0.328,0.384 -0.435,0.623 -0.107,0.24 -0.16,0.501 -0.16,0.784 z m -1.937,0 c 0,-0.529 0.098,-1.021 0.293,-1.478 0.195,-0.456 0.466,-0.855 0.813,-1.195 0.346,-0.34 0.76,-0.606 1.242,-0.798 0.481,-0.192 1.012,-0.288 1.591,-0.288 0.573,0 1.102,0.096 1.587,0.288 0.485,0.192 0.902,0.458 1.251,0.798 0.35,0.34 0.622,0.739 0.817,1.195 0.195,0.457 0.293,0.949 0.293,1.478 0,0.529 -0.098,1.022 -0.293,1.478 -0.195,0.457 -0.467,0.855 -0.817,1.195 -0.349,0.34 -0.766,0.606 -1.251,0.798 C 10.443,0.102 9.914,0.198 9.341,0.198 8.762,0.198 8.231,0.102 7.75,-0.09 7.268,-0.282 6.854,-0.548 6.508,-0.888 6.161,-1.228 5.89,-1.626 5.695,-2.083 5.5,-2.539 5.402,-3.032 5.402,-3.561 Z"
   style="fill:#3c3c4c;fill-rule:nonzero;fill-opacity:1"
   id="path24252"
   inkscape:connector-curvature="0" />
    <path
   d="m 16.311,-4.373 h 2.673 v -2.748 h 1.851 V 0 H 18.984 V -2.937 H 16.311 V 0 H 14.46 v -7.121 h 1.851 z"
   style="fill:#3c3c4c;fill-rule:nonzero;fill-opacity:1"
   id="path24254"
   inkscape:connector-curvature="0" />
    <path
   d="m 26.38,-5.554 h -2.201 v 1.19 h 2.078 v 1.568 h -2.078 v 1.228 H 26.38 V 0 h -4.052 v -7.121 h 4.052 z"
   style="fill:#3c3c4c;fill-rule:nonzero;fill-opacity:1"
   id="path24256"
   inkscape:connector-curvature="0" />
  </g>
  <g
   id="path8216-1"
   transform="matrix(3.89232,0,0,-3.89232,-20.3468,-864.5212)"
   style="stroke-width:0.38537428;stroke-miterlimit:4;stroke-dasharray:none;stroke-linecap:round">
    <path
   d="m 18.11,-246.991 c 1.469,2.545 0.894,5.809 -1.358,7.698 -2.251,1.889 -5.565,1.889 -7.816,0 -2.251,-1.889 -2.827,-5.153 -1.357,-7.698"
   style="fill:none;stroke:#cccccc;stroke-width:0.38537428;stroke-miterlimit:4;stroke-dasharray:none;stroke-linecap:round"
   id="path24261"
   inkscape:connector-curvature="0" />
  </g>
  <path
   id="path9630"
   d="m 49.368544,99.337894 0.0506,9.217016"
   style="fill:#cccccc;stroke:#cccccc;stroke-width:1.5;stroke-miterlimit:4;stroke-dasharray:none;stroke-linecap:round"
   inkscape:connector-curvature="0" />
  <path
   id="path9630-1"
   d="m 54.000404,103.88023 -9.213121,0.0428"
   style="fill:#cccccc;stroke:#cccccc;stroke-width:1.5;stroke-miterlimit:4;stroke-dasharray:none;stroke-linecap:round"
   inkscape:connector-curvature="0" />
  <path
   id="path9630-1-6"
   d="m 15.738899,103.61945 -9.2131217,0.0428"
   style="fill:#cccccc;stroke:#cccccc;stroke-width:1.5;stroke-miterlimit:4;stroke-dasharray:none;stroke-linecap:round"
   inkscape:connector-curvature="0" />
  <path
   id="path9948"
   d="M 29.646158,85.018049 29.59945,58.670935"
   style="fill:none;stroke:#cccccc;stroke-width:1.5;stroke-miterlimit:4;stroke-dasharray:none;stroke-linecap:round"
   inkscape:connector-curvature="0" />
  <g
   id="text9293-41"
   serif:id="text9293-4"
   transform="matrix(4.00166,0,0,4.00166,18.6753,119.1808)">
    <path
   d="M 0.73,-1.176 V 0 H 0.338 V -1.176 H 0.016 v -0.332 h 1.036 v 0.332 z"
   style="fill:#ffffff;fill-rule:nonzero"
   id="path24270"
   inkscape:connector-curvature="0" />
    <path
   d="m 1.554,-0.754 c 0,0.06 0.011,0.115 0.034,0.166 0.023,0.051 0.053,0.095 0.092,0.132 0.039,0.037 0.084,0.066 0.135,0.087 0.051,0.021 0.106,0.031 0.163,0.031 0.057,0 0.112,-0.01 0.163,-0.031 0.051,-0.021 0.097,-0.05 0.136,-0.087 0.039,-0.037 0.07,-0.081 0.093,-0.132 0.023,-0.051 0.034,-0.106 0.034,-0.166 0,-0.06 -0.011,-0.115 -0.034,-0.166 C 2.347,-0.971 2.316,-1.015 2.277,-1.052 2.238,-1.089 2.192,-1.118 2.141,-1.139 2.09,-1.16 2.035,-1.17 1.978,-1.17 c -0.057,0 -0.112,0.01 -0.163,0.031 -0.051,0.021 -0.096,0.05 -0.135,0.087 -0.039,0.037 -0.069,0.081 -0.092,0.132 -0.023,0.051 -0.034,0.106 -0.034,0.166 z m -0.41,0 c 0,-0.112 0.021,-0.216 0.062,-0.313 0.041,-0.097 0.099,-0.181 0.172,-0.253 0.073,-0.072 0.161,-0.128 0.263,-0.169 0.102,-0.041 0.214,-0.061 0.337,-0.061 0.121,0 0.233,0.02 0.336,0.061 0.103,0.041 0.191,0.097 0.265,0.169 0.074,0.072 0.132,0.156 0.173,0.253 0.041,0.097 0.062,0.201 0.062,0.313 0,0.112 -0.021,0.216 -0.062,0.313 C 2.711,-0.344 2.653,-0.26 2.579,-0.188 2.505,-0.116 2.417,-0.06 2.314,-0.019 2.211,0.022 2.099,0.042 1.978,0.042 1.855,0.042 1.743,0.022 1.641,-0.019 1.539,-0.06 1.451,-0.116 1.378,-0.188 1.305,-0.26 1.247,-0.344 1.206,-0.441 1.165,-0.538 1.144,-0.642 1.144,-0.754 Z"
   style="fill:#ffffff;fill-rule:nonzero"
   id="path24272"
   inkscape:connector-curvature="0" />
    <path
   d="m 3.062,0 v -1.508 h 0.392 l 0.724,0.922 v -0.922 h 0.39 V 0 H 4.178 L 3.454,-0.922 V 0 Z"
   style="fill:#ffffff;fill-rule:nonzero"
   id="path24274"
   inkscape:connector-curvature="0" />
    <path
   d="M 5.742,-1.176 H 5.276 v 0.252 h 0.44 v 0.332 h -0.44 v 0.26 H 5.742 V 0 H 4.884 v -1.508 h 0.858 z"
   style="fill:#ffffff;fill-rule:nonzero"
   id="path24276"
   inkscape:connector-curvature="0" />
  </g>
  <path
   d="m 57.999466,293.0552 c 0,-3.08019 -2.500575,-5.58115 -5.580994,-5.58115 H 8.6231203 c -3.0804187,0 -5.5809939,2.50096 -5.5809939,5.58115 v 29.29516 c 0,3.08018 2.5005752,5.58115 5.5809939,5.58115 H 52.418472 c 3.080419,0 5.580994,-2.50097 5.580994,-5.58115 z"
   id="path24281"
   inkscape:connector-curvature="0"
   style="fill:#1a1a21;fill-opacity:1;stroke:#333359;stroke-width:1;stroke-miterlimit:4;stroke-dasharray:none;stroke-opacity:1" />
  <path
   id="path4"
   d="m 38.543365,354.29324 c 0,-4.50925 -3.655481,-8.1647 -8.164802,-8.1647 -4.50914,0 -8.164658,3.65545 -8.164658,8.1647 0,4.50921 3.655482,8.16469 8.164658,8.16469 4.509321,0 8.164802,-3.65548 8.164802,-8.16469 z"
   style="fill:#757575;fill-rule:nonzero;stroke:#414c55;stroke-width:0.61073178px;stroke-miterlimit:10;stroke-opacity:1"
   inkscape:connector-curvature="0" />
  <g
   id="g40"
   transform="matrix(0.0359254,0,0,0.0359254,15.655041,331.96758)">
    <path
   id="polygon6"
   d="m 357.002,759.965 15.391,-24.781 -29.594,-66.614 -61.688,-63.583 12.788,86.322 16.629,35.632 23.179,35.166 z"
   style="fill:#2b2b2b;fill-rule:nonzero"
   inkscape:connector-curvature="0" />
    <path
   id="polygon8"
   d="m 460.762,760.17 -15.392,-24.783 29.597,-66.612 61.685,-63.582 -12.787,86.321 -16.63,35.631 -23.175,35.168 z"
   style="fill:#262626;fill-rule:nonzero"
   inkscape:connector-curvature="0" />
    <path
   id="polygon12"
   d="m 337.948,452.81 71.936,-18.383 V 808.75 L 372.316,734.951 342.799,668.57 314.328,652.395 257.223,571.1 l -1.598,-21.58 31.971,-57.547 z"
   style="fill:#424242;fill-rule:nonzero"
   inkscape:connector-curvature="0" />
    <path
   id="polygon14"
   d="m 481.727,452.944 -71.932,-18.382 v 374.325 l 37.564,-73.801 29.518,-66.379 28.473,-16.178 57.101,-81.295 1.599,-21.579 -31.969,-57.547 z"
   style="fill:#333333;fill-rule:nonzero"
   inkscape:connector-curvature="0" />
    <path
   id="polyline16"
   d="m 361.886,616.429 47.96,-46.887 v 34.229 l -47.96,47.827 v -35.169"
   style="fill:#4c4c4c;fill-rule:nonzero"
   inkscape:connector-curvature="0" />
    <path
   id="polygon18"
   d="m 409.881,603.732 -47.957,47.827 10.469,83.625 37.491,73.566 z"
   style="fill:#5b5b5b;fill-rule:nonzero"
   inkscape:connector-curvature="0" />
    <path
   id="polygon20"
   d="m 409.884,808.75 -37.491,-73.566 37.485,-17.672 z"
   style="fill:#333333;fill-rule:nonzero"
   inkscape:connector-curvature="0" />
    <path
   id="polygon22"
   d="M 361.924,651.559 V 616.39 l -34.766,-43.958 -41.119,-33.129 -0.043,25.934 21.582,50.752 z"
   style="fill:#ffffff;fill-rule:nonzero"
   inkscape:connector-curvature="0" />
    <path
   id="polyline24"
   d="m 457.816,616.448 -47.957,-46.887 v 34.229 l 47.957,47.826 v -35.168"
   style="fill:#2d2d2d;fill-rule:nonzero"
   inkscape:connector-curvature="0" />
    <path
   id="polygon26"
   d="m 409.804,603.732 47.954,47.827 -10.469,83.625 -37.488,73.566 z"
   style="fill:#353535;fill-rule:nonzero"
   inkscape:connector-curvature="0" />
    <path
   id="polygon28"
   d="m 409.801,808.75 37.488,-73.566 -37.482,-17.672 z"
   style="fill:#191919;fill-rule:nonzero"
   inkscape:connector-curvature="0" />
    <path
   id="polygon30"
   d="m 457.758,651.559 v -35.168 l 34.765,-43.958 41.122,-33.13 0.041,25.935 -21.578,50.753 z"
   style="fill:#ffffff;fill-rule:nonzero"
   inkscape:connector-curvature="0" />
    <path
   id="polyline32"
   d="M 338.399,452.22 409.824,569.549 409.67,434.003"
   style="fill:#383838;fill-rule:nonzero"
   inkscape:connector-curvature="0" />
    <path
   id="polyline34"
   d="M 481.271,452.232 409.846,569.561 410,434.016"
   style="fill:#2d2d2d;fill-rule:nonzero"
   inkscape:connector-curvature="0" />
    <path
   id="polygon36"
   d="m 342.815,668.578 19.143,-16.982 10.448,83.674 z"
   style="fill:#333333;fill-rule:nonzero"
   inkscape:connector-curvature="0" />
    <path
   id="polygon38"
   d="m 476.975,668.989 -19.144,-16.982 -10.448,83.675 z"
   style="fill:#1c1c1c;fill-rule:nonzero"
   inkscape:connector-curvature="0" />
  </g>
  <path
   id="path42"
   d="m 18.894489,335.09446 h 1.751935 l 1.631452,5.45019 1.68693,-5.45019 h 1.743033 l -2.267585,6.81328 c -0.211877,0.62818 -0.591501,0.94198 -1.139184,0.94198 -0.555017,0 -0.938465,-0.31713 -1.149966,-0.95163 z"
   style="fill:#3c3c4c;fill-rule:nonzero;stroke-width:0.0626855;fill-opacity:1"
   inkscape:connector-curvature="0" />
  <path
   id="path44"
   d="m 25.839102,340.8562 v -5.76174 h 1.64305 v 5.70695 c 0.02909,0.20454 0.219086,0.30672 0.569623,0.30672 h 1.117306 c 0.335807,0 0.522045,-0.0948 0.558654,-0.28478 l 0.01097,-0.0548 v -5.6741 h 1.643049 v 5.75077 c 0,0.50386 -0.05472,0.86173 -0.164299,1.07348 -0.292114,0.56242 -0.80695,0.84344 -1.544508,0.84344 h -2.125038 c -0.759623,0 -1.278032,-0.28842 -1.555478,-0.86538 -0.102303,-0.21168 -0.153329,-0.55859 -0.153329,-1.04057 z"
   style="fill:#3c3c4c;fill-rule:nonzero;stroke-width:0.0626855;fill-opacity:1"
   inkscape:connector-curvature="0" />
  <path
   id="path46"
   d="m 32.137553,340.88911 v -5.79459 h 1.643113 v 5.66313 c 0,0.23382 0.138597,0.35054 0.416231,0.35054 h 2.924718 l -0.01097,1.65408 h -3.056169 c -0.109512,0 -0.204543,-0.004 -0.28478,-0.011 -0.591563,-0.051 -1.011556,-0.22454 -1.259728,-0.52029 -0.24836,-0.29587 -0.372415,-0.74307 -0.372415,-1.3419 z"
   style="fill:#3c3c4c;fill-rule:nonzero;stroke-width:0.0626855;fill-opacity:1"
   inkscape:connector-curvature="0" />
  <path
   id="path48"
   d="m 37.176214,336.74848 v -1.65402 h 4.929274 v 1.65402 h -1.65402 v 6.01373 h -1.643112 v -6.01373 z"
   style="fill:#3c3c4c;fill-rule:nonzero;stroke-width:0.0626855;fill-opacity:1"
   inkscape:connector-curvature="0" />
  <g
   id="text9293-42"
   serif:id="text9293-4"
   transform="matrix(4.00166,0,0,4.00166,12.63009,325.6478)">
    <path
   d="m 0.5,-0.754 c 0,0.06 0.011,0.115 0.034,0.166 0.023,0.051 0.053,0.095 0.092,0.132 0.039,0.037 0.084,0.066 0.135,0.087 0.051,0.021 0.106,0.031 0.163,0.031 0.057,0 0.112,-0.01 0.163,-0.031 0.051,-0.021 0.097,-0.05 0.136,-0.087 0.039,-0.037 0.07,-0.081 0.093,-0.132 C 1.339,-0.639 1.35,-0.694 1.35,-0.754 1.35,-0.814 1.339,-0.869 1.316,-0.92 1.293,-0.971 1.262,-1.015 1.223,-1.052 1.184,-1.089 1.138,-1.118 1.087,-1.139 1.036,-1.16 0.981,-1.17 0.924,-1.17 0.867,-1.17 0.812,-1.16 0.761,-1.139 0.71,-1.118 0.665,-1.089 0.626,-1.052 0.587,-1.015 0.557,-0.971 0.534,-0.92 0.511,-0.869 0.5,-0.814 0.5,-0.754 Z m -0.41,0 c 0,-0.112 0.021,-0.216 0.062,-0.313 0.041,-0.097 0.099,-0.181 0.172,-0.253 0.073,-0.072 0.161,-0.128 0.263,-0.169 0.102,-0.041 0.214,-0.061 0.337,-0.061 0.121,0 0.233,0.02 0.336,0.061 0.103,0.041 0.191,0.097 0.265,0.169 0.074,0.072 0.132,0.156 0.173,0.253 0.041,0.097 0.062,0.201 0.062,0.313 0,0.112 -0.021,0.216 -0.062,0.313 C 1.657,-0.344 1.599,-0.26 1.525,-0.188 1.451,-0.116 1.363,-0.06 1.26,-0.019 1.157,0.022 1.045,0.042 0.924,0.042 0.801,0.042 0.689,0.022 0.587,-0.019 0.485,-0.06 0.397,-0.116 0.324,-0.188 0.251,-0.26 0.193,-0.344 0.152,-0.441 0.111,-0.538 0.09,-0.642 0.09,-0.754 Z"
   style="fill:#ffffff;fill-rule:nonzero"
   id="path24309"
   inkscape:connector-curvature="0" />
    <path
   d="m 2.4,-1.508 v 0.82 c 0,0.044 0.002,0.089 0.005,0.135 0.003,0.046 0.013,0.088 0.03,0.125 0.017,0.037 0.043,0.068 0.079,0.091 0.036,0.023 0.087,0.035 0.152,0.035 0.065,0 0.116,-0.012 0.151,-0.035 0.035,-0.023 0.062,-0.054 0.079,-0.091 0.017,-0.037 0.028,-0.079 0.031,-0.125 0.003,-0.046 0.005,-0.091 0.005,-0.135 v -0.82 h 0.39 v 0.874 c 0,0.235 -0.054,0.406 -0.161,0.514 C 3.054,-0.012 2.889,0.042 2.666,0.042 2.443,0.042 2.278,-0.012 2.17,-0.12 2.062,-0.228 2.008,-0.399 2.008,-0.634 v -0.874 z"
   style="fill:#ffffff;fill-rule:nonzero"
   id="path24311"
   inkscape:connector-curvature="0" />
    <path
   d="M 4.21,-1.176 V 0 H 3.818 V -1.176 H 3.496 v -0.332 h 1.036 v 0.332 z"
   style="fill:#ffffff;fill-rule:nonzero"
   id="path24313"
   inkscape:connector-curvature="0" />
    <path
   d="m 5.098,-0.816 h 0.13 c 0.144,0 0.216,-0.063 0.216,-0.188 0,-0.125 -0.072,-0.188 -0.216,-0.188 H 5.098 Z M 5.098,0 H 4.706 V -1.508 H 5.33 c 0.169,0 0.299,0.044 0.389,0.132 0.09,0.088 0.135,0.212 0.135,0.372 0,0.16 -0.045,0.284 -0.135,0.372 C 5.629,-0.544 5.499,-0.5 5.33,-0.5 H 5.098 Z"
   style="fill:#ffffff;fill-rule:nonzero"
   id="path24315"
   inkscape:connector-curvature="0" />
    <path
   d="m 6.454,-1.508 v 0.82 c 0,0.044 0.002,0.089 0.005,0.135 0.003,0.046 0.013,0.088 0.03,0.125 0.017,0.037 0.043,0.068 0.079,0.091 0.036,0.023 0.087,0.035 0.152,0.035 0.065,0 0.116,-0.012 0.151,-0.035 0.035,-0.023 0.062,-0.054 0.079,-0.091 0.017,-0.037 0.028,-0.079 0.031,-0.125 0.003,-0.046 0.005,-0.091 0.005,-0.135 v -0.82 h 0.39 v 0.874 c 0,0.235 -0.054,0.406 -0.161,0.514 C 7.108,-0.012 6.943,0.042 6.72,0.042 6.497,0.042 6.332,-0.012 6.224,-0.12 6.116,-0.228 6.062,-0.399 6.062,-0.634 v -0.874 z"
   style="fill:#ffffff;fill-rule:nonzero"
   id="path24317"
   inkscape:connector-curvature="0" />
    <path
   d="M 8.264,-1.176 V 0 H 7.872 V -1.176 H 7.55 v -0.332 h 1.036 v 0.332 z"
   style="fill:#ffffff;fill-rule:nonzero"
   id="path24319"
   inkscape:connector-curvature="0" />
  </g>
  <path
   d="m 15.713684,238.47392 v 3.52947 h 1.412586 v 0.99641 h -2.589074 v -4.52588 z"
   style="fill:#8c8c8c;fill-rule:nonzero;stroke-width:4.00165987"
   id="path24324"
   inkscape:connector-curvature="0" />
  <path
   d="m 44.713684,240.49876 h 0.224093 c 0.232096,0 0.408169,-0.048 0.532221,-0.14406 0.124051,-0.096 0.188078,-0.2361 0.188078,-0.41617 0,-0.18007 -0.06403,-0.31613 -0.188078,-0.41217 -0.124052,-0.096 -0.300125,-0.14406 -0.532221,-0.14406 h -0.224093 z m 2.589074,2.50104 H 45.83815 l -1.124466,-1.74072 v 1.74072 h -1.176488 v -4.52588 h 1.83276 c 0.252105,0 0.472196,0.04 0.660274,0.11205 0.188078,0.076 0.340141,0.17607 0.464193,0.30413 0.120049,0.12805 0.212088,0.27611 0.276114,0.44418 0.06003,0.16807 0.09204,0.34814 0.09204,0.54022 0,0.34415 -0.08404,0.62426 -0.248103,0.83635 -0.168069,0.21209 -0.412171,0.36015 -0.736305,0.43618 z"
   style="fill:#8c8c8c;fill-rule:nonzero;stroke-width:4.00165987"
   id="path24328"
   inkscape:connector-curvature="0" />
  <path
   d="m 15.713684,288.47392 v 3.52947 h 1.412586 v 0.99641 h -2.589074 v -4.52588 z"
   style="fill:#8c8c8c;fill-rule:nonzero;stroke-width:4.00165987"
   id="path24332"
   inkscape:connector-curvature="0" />
  <path
   d="m 44.713684,290.49876 h 0.224093 c 0.232096,0 0.408169,-0.048 0.532221,-0.14406 0.124051,-0.096 0.188078,-0.2361 0.188078,-0.41617 0,-0.18007 -0.06403,-0.31613 -0.188078,-0.41217 -0.124052,-0.096 -0.300125,-0.14406 -0.532221,-0.14406 h -0.224093 z m 2.589074,2.50104 H 45.83815 l -1.124466,-1.74072 v 1.74072 h -1.176488 v -4.52588 h 1.83276 c 0.252105,0 0.472196,0.04 0.660274,0.11205 0.188078,0.076 0.340141,0.17607 0.464193,0.30413 0.120049,0.12805 0.212088,0.27611 0.276114,0.44418 0.06003,0.16807 0.09204,0.34814 0.09204,0.54022 0,0.34415 -0.08404,0.62426 -0.248103,0.83635 -0.168069,0.21209 -0.412171,0.36015 -0.736305,0.43618 z"
   style="fill:#8c8c8c;fill-rule:nonzero;stroke-width:4.00165987"
   id="path24336"
   inkscape:connector-curvature="0" />
  <path
   d="m 13.612851,229.6498 0.768319,-4.52588 h 1.164483 l 0.908377,2.413 0.900373,-2.413 h 1.160482 l 0.768318,4.52588 h -1.168484 l -0.388161,-2.60508 -1.068444,2.60508 H 16.18992 l -1.016421,-2.60508 -0.388161,2.60508 z"
   style="fill:#8c8c8c;fill-rule:nonzero;stroke-width:4.00165987"
   id="path24340"
   inkscape:connector-curvature="0" />
  <path
   d="m 21.055939,227.38886 c 0,0.18008 0.03201,0.34414 0.100041,0.49621 0.06803,0.15206 0.160067,0.28412 0.276115,0.39616 0.116048,0.11205 0.252104,0.20009 0.404168,0.26011 0.156064,0.064 0.320132,0.096 0.492204,0.096 0.172071,0 0.332137,-0.032 0.488202,-0.096 0.152063,-0.06 0.28812,-0.14806 0.40817,-0.26011 0.116048,-0.11204 0.208086,-0.2441 0.276114,-0.39616 0.06803,-0.15207 0.104043,-0.31613 0.104043,-0.49621 0,-0.18007 -0.03601,-0.34814 -0.104043,-0.50021 -0.06803,-0.15206 -0.160066,-0.28411 -0.276114,-0.39616 -0.12005,-0.11205 -0.256107,-0.19608 -0.40817,-0.26011 -0.156065,-0.06 -0.316131,-0.092 -0.488202,-0.092 -0.172072,0 -0.33614,0.032 -0.492204,0.092 -0.152064,0.064 -0.28812,0.14806 -0.404168,0.26011 -0.116048,0.11205 -0.208086,0.2441 -0.276115,0.39616 -0.06803,0.15207 -0.100041,0.32014 -0.100041,0.50021 z m -1.232511,0 c 0,-0.33614 0.06403,-0.64827 0.188078,-0.94039 0.124051,-0.28812 0.296122,-0.54422 0.516214,-0.76031 0.220091,-0.21609 0.480199,-0.38416 0.788327,-0.50421 0.304126,-0.12405 0.644267,-0.18408 1.01242,-0.18408 0.364151,0 0.696289,0.06 1.004416,0.18408 0.308128,0.12005 0.576239,0.28812 0.796331,0.50421 0.224093,0.21609 0.396164,0.47219 0.520215,0.76031 0.124052,0.29212 0.184077,0.60425 0.184077,0.94039 0,0.33614 -0.06002,0.64827 -0.184077,0.93639 -0.124051,0.29212 -0.296122,0.54423 -0.520215,0.76032 -0.220092,0.21609 -0.488203,0.38416 -0.796331,0.50821 -0.308127,0.12005 -0.640265,0.18007 -1.004416,0.18007 -0.368153,0 -0.708294,-0.06 -1.01242,-0.18007 -0.308128,-0.12405 -0.568236,-0.29212 -0.788327,-0.50821 -0.220092,-0.21609 -0.392163,-0.4682 -0.516214,-0.76032 -0.124052,-0.28812 -0.188078,-0.60025 -0.188078,-0.93639 z"
   style="fill:#8c8c8c;fill-rule:nonzero;stroke-width:4.00165987"
   id="path24342"
   inkscape:connector-curvature="0" />
  <path
   d="m 26.754303,228.65339 h 0.272113 c 0.204084,0 0.384159,-0.032 0.544225,-0.096 0.160067,-0.064 0.296123,-0.15207 0.404168,-0.26411 0.112046,-0.11205 0.196081,-0.2441 0.252105,-0.40017 0.06002,-0.15206 0.08804,-0.32013 0.08804,-0.50421 0,-0.18007 -0.03201,-0.34814 -0.09204,-0.50421 -0.06002,-0.15606 -0.14406,-0.29212 -0.252105,-0.40416 -0.112046,-0.11205 -0.244101,-0.20009 -0.404167,-0.26411 -0.160067,-0.064 -0.340141,-0.096 -0.540224,-0.096 h -0.272113 z m -1.176488,-3.52947 h 1.740722 c 0.308128,0 0.596247,0.064 0.86836,0.18808 0.268111,0.12405 0.504209,0.28812 0.708294,0.49621 0.200083,0.20408 0.360149,0.44418 0.476197,0.7203 0.116048,0.27211 0.172072,0.56023 0.172072,0.86035 0,0.29612 -0.05602,0.58024 -0.16807,0.85236 -0.116048,0.27611 -0.272113,0.51621 -0.476198,0.7243 -0.200083,0.20808 -0.436181,0.37615 -0.708293,0.5002 -0.268112,0.12406 -0.560233,0.18408 -0.872362,0.18408 h -1.740722 z"
   style="fill:#8c8c8c;fill-rule:nonzero;stroke-width:4.00165987"
   id="path24344"
   inkscape:connector-curvature="0" />
  <path
   d="M 32.868839,226.12034 H 31.47226 v 0.75631 h 1.316546 v 0.99641 H 31.47226 v 0.78033 h 1.396579 v 0.99641 h -2.573067 v -4.52588 h 2.573067 z"
   style="fill:#8c8c8c;fill-rule:nonzero;stroke-width:4.00165987"
   id="path24346"
   inkscape:connector-curvature="0" />
  <path
   d="m 34.889677,225.12392 v 3.52947 h 1.412586 v 0.99641 h -2.589074 v -4.52588 z"
   style="fill:#8c8c8c;fill-rule:nonzero;stroke-width:4.00165987"
   id="path24348"
   inkscape:connector-curvature="0" />
  <path
   d="m 30.656984,204.73739 h 0.272113 c 0.204084,0 0.384159,-0.032 0.544226,-0.096 0.160066,-0.064 0.296122,-0.15207 0.404167,-0.26411 0.112047,-0.11205 0.196082,-0.2441 0.252105,-0.40017 0.06002,-0.15206 0.08804,-0.32013 0.08804,-0.50421 0,-0.18007 -0.02801,-0.34814 -0.08804,-0.50421 -0.06003,-0.15606 -0.148062,-0.29212 -0.256106,-0.40416 -0.112047,-0.11205 -0.244102,-0.20009 -0.404168,-0.26411 -0.160067,-0.064 -0.340141,-0.096 -0.540224,-0.096 h -0.272113 z m -1.176488,-3.52947 h 1.740722 c 0.308128,0 0.596247,0.064 0.86836,0.18808 0.268111,0.12405 0.504209,0.28812 0.708294,0.49621 0.200083,0.20408 0.360149,0.44418 0.476198,0.7203 0.116048,0.27211 0.176073,0.56023 0.176073,0.86035 0,0.29612 -0.06002,0.58024 -0.172072,0.85236 -0.116048,0.27611 -0.272113,0.51621 -0.476197,0.7243 -0.200083,0.20808 -0.436181,0.37615 -0.708294,0.5002 -0.268111,0.12406 -0.560233,0.18408 -0.872362,0.18408 h -1.740722 z"
   style="fill:#ffffff;fill-rule:nonzero;stroke-width:4.00165987"
   id="path24352"
   inkscape:connector-curvature="0" />
  <rect
   x="34.198452"
   y="201.20792"
   width="1.176488"
   height="4.5258775"
   style="fill:#ffffff;fill-rule:nonzero;stroke-width:4.00165987"
   id="rect24354" />
  <path
   d="m 38.896402,202.20434 h -1.396579 v 0.75631 h 1.316546 v 0.99641 h -1.316546 v 0.78033 h 1.396579 v 0.99641 h -2.573068 v -4.52588 h 2.573068 z"
   style="fill:#ffffff;fill-rule:nonzero;stroke-width:4.00165987"
   id="path24356"
   inkscape:connector-curvature="0" />
  <path
   d="M 41.333413,204.73739 H 43.2302 v 0.99641 h -3.873607 l 2.14489,-3.52946 h -1.784741 v -0.99642 h 3.745554 z"
   style="fill:#ffffff;fill-rule:nonzero;stroke-width:4.00165987"
   id="path24358"
   inkscape:connector-curvature="0" />
  <path
   d="m 30.486984,214.79678 h 0.392163 c 0.432179,0 0.648269,-0.18807 0.648269,-0.56423 0,-0.37616 -0.21609,-0.56423 -0.648269,-0.56423 h -0.392163 z m 0,2.44902 h -1.176488 v -4.52588 h 1.872777 c 0.508211,0 0.896372,0.13206 1.168484,0.39617 0.268112,0.26411 0.404168,0.63626 0.404168,1.11646 0,0.4802 -0.136056,0.85235 -0.404168,1.11646 -0.272112,0.26411 -0.660273,0.39617 -1.168484,0.39617 h -0.696289 z"
   style="fill:#ffffff;fill-rule:nonzero;stroke-width:4.00165987"
   id="path24362"
   inkscape:connector-curvature="0" />
  <path
   d="m 34.556672,212.71992 v 2.46102 c 0,0.13206 0.004,0.26811 0.01601,0.40417 0.008,0.14006 0.04002,0.26411 0.08804,0.37616 0.05202,0.11204 0.128053,0.20408 0.236098,0.27211 0.108045,0.072 0.260108,0.10804 0.456189,0.10804 0.196082,0 0.348145,-0.036 0.45619,-0.10804 0.104043,-0.068 0.184076,-0.16007 0.236098,-0.27211 0.05202,-0.11205 0.08003,-0.2361 0.09204,-0.37616 0.008,-0.13606 0.01601,-0.27211 0.01601,-0.40417 v -2.46102 h 1.168485 v 2.62509 c 0,0.70429 -0.160066,1.21651 -0.484201,1.54064 -0.320132,0.32414 -0.816338,0.4842 -1.484616,0.4842 -0.668277,0 -1.164483,-0.16006 -1.488617,-0.4842 -0.320133,-0.32413 -0.484201,-0.83635 -0.484201,-1.54064 v -2.62509 z"
   style="fill:#ffffff;fill-rule:nonzero;stroke-width:4.00165987"
   id="path24364"
   inkscape:connector-curvature="0" />
  <path
   d="m 40.863288,213.71634 h -1.416587 v 0.75631 h 1.288534 v 0.99641 h -1.288534 v 1.77674 h -1.176488 v -4.52588 h 2.593075 z"
   style="fill:#ffffff;fill-rule:nonzero;stroke-width:4.00165987"
   id="path24366"
   inkscape:connector-curvature="0" />
  <path
   d="m 44.156654,213.71634 h -1.416587 v 0.75631 h 1.288534 v 0.99641 h -1.288534 v 1.77674 h -1.176488 v -4.52588 h 2.593075 z"
   style="fill:#ffffff;fill-rule:nonzero;stroke-width:4.00165987"
   id="path24368"
   inkscape:connector-curvature="0" />
  <path
   d="m 30.656984,193.31042 h 0.260108 c 0.296123,0 0.508211,-0.036 0.636264,-0.11204 0.128053,-0.076 0.192079,-0.20009 0.192079,-0.36816 0,-0.16807 -0.06403,-0.28812 -0.192079,-0.36415 -0.128053,-0.076 -0.340141,-0.11605 -0.636264,-0.11605 h -0.260108 z m 0,-1.83676 h 0.21609 c 0.368152,0 0.552229,-0.14406 0.552229,-0.43618 0,-0.29212 -0.184077,-0.44018 -0.552229,-0.44018 h -0.21609 z m -1.176488,-1.77674 h 1.752727 c 0.416173,0 0.732304,0.10004 0.948393,0.30013 0.21609,0.20008 0.324135,0.4882 0.324135,0.86436 0,0.22809 -0.04002,0.42017 -0.124052,0.56823 -0.08003,0.15206 -0.204084,0.27612 -0.372154,0.38016 0.16807,0.032 0.308128,0.08 0.428178,0.14806 0.116048,0.064 0.212088,0.14806 0.288119,0.2441 0.07203,0.096 0.128053,0.20409 0.160067,0.32414 0.03201,0.12005 0.04802,0.2481 0.04802,0.38416 0,0.21208 -0.04002,0.40016 -0.112046,0.56423 -0.07603,0.16407 -0.180075,0.30012 -0.31213,0.41217 -0.136056,0.11205 -0.296122,0.19608 -0.488202,0.25211 -0.19208,0.056 -0.408169,0.084 -0.648269,0.084 h -1.892785 z"
   style="fill:#ffffff;fill-rule:nonzero;stroke-width:4.00165987"
   id="path24372"
   inkscape:connector-curvature="0" />
  <path
   d="m 36.027212,192.5421 -0.528219,-1.50462 -0.52822,1.50462 z m 0.312129,0.89637 h -1.680697 l -0.268111,0.78433 h -1.25252 l 1.720714,-4.52588 h 1.284533 l 1.720714,4.52588 h -1.25252 z"
   style="fill:#ffffff;fill-rule:nonzero;stroke-width:4.00165987"
   id="path24374"
   inkscape:connector-curvature="0" />
  <path
   d="m 40.865219,190.8574 c -0.128054,-0.10404 -0.256107,-0.18007 -0.38416,-0.23209 -0.128053,-0.048 -0.252104,-0.076 -0.372154,-0.076 -0.152063,0 -0.276115,0.036 -0.372155,0.10804 -0.09604,0.072 -0.144059,0.16807 -0.144059,0.28412 0,0.08 0.02401,0.14406 0.07203,0.19608 0.04802,0.052 0.112046,0.10004 0.188078,0.13606 0.08003,0.04 0.168069,0.072 0.264109,0.10004 0.100042,0.028 0.196081,0.056 0.292121,0.088 0.38416,0.12806 0.664276,0.30013 0.840349,0.51222 0.180075,0.21609 0.268111,0.4962 0.268111,0.84035 0,0.23209 -0.04002,0.44018 -0.116048,0.62826 -0.08003,0.18807 -0.19208,0.34814 -0.344143,0.4842 -0.148061,0.13205 -0.332138,0.2361 -0.548227,0.31213 -0.220091,0.072 -0.468194,0.10804 -0.744309,0.10804 -0.572237,0 -1.100456,-0.16807 -1.588659,-0.50821 l 0.504209,-0.94839 c 0.176073,0.15606 0.348145,0.27211 0.520216,0.34814 0.172071,0.076 0.344143,0.11605 0.512212,0.11605 0.19208,0 0.33614,-0.044 0.428178,-0.13206 0.09604,-0.088 0.140058,-0.18807 0.140058,-0.30012 0,-0.068 -0.01201,-0.12805 -0.03601,-0.18007 -0.02401,-0.048 -0.06403,-0.096 -0.12005,-0.13606 -0.05602,-0.044 -0.128053,-0.08 -0.216089,-0.11605 -0.09204,-0.036 -0.200083,-0.076 -0.328136,-0.12005 -0.152063,-0.048 -0.300125,-0.10404 -0.448186,-0.16006 -0.14406,-0.06 -0.276115,-0.13606 -0.388161,-0.2321 -0.116048,-0.096 -0.208087,-0.21609 -0.276115,-0.36015 -0.07203,-0.14806 -0.104043,-0.33214 -0.104043,-0.55623 0,-0.22409 0.03601,-0.42818 0.108045,-0.60825 0.07603,-0.18408 0.180075,-0.34014 0.312129,-0.4682 0.136057,-0.13205 0.300125,-0.23209 0.492205,-0.30412 0.196081,-0.072 0.412171,-0.10805 0.65227,-0.10805 0.224093,0 0.456189,0.032 0.700291,0.092 0.244101,0.064 0.480199,0.15206 0.704292,0.27211 z"
   style="fill:#ffffff;fill-rule:nonzero;stroke-width:4.00165987"
   id="path24376"
   inkscape:connector-curvature="0" />
  <path
   d="m 44.830864,190.69334 h -1.39658 v 0.75631 h 1.316546 v 0.99641 h -1.316546 v 0.78033 h 1.39658 v 0.99641 h -2.573068 v -4.52588 h 2.573068 z"
   style="fill:#ffffff;fill-rule:nonzero;stroke-width:4.00165987"
   id="path24378"
   inkscape:connector-curvature="0" />
</svg>