<?xml version="1.0" encoding="UTF-8" standalone="no"?>
<svg
   xmlns:dc="http://purl.org/dc/elements/1.1/"
   xmlns:cc="http://creativecommons.org/ns#"
   xmlns:rdf="http://www.w3.org/1999/02/22-rdf-syntax-ns#"
   xmlns:svg="http://www.w3.org/2000/svg"
   xmlns="http://www.w3.org/2000/svg"
   xmlns:xlink="http://www.w3.org/1999/xlink"
   xmlns:sodipodi="http://sodipodi.sourceforge.net/DTD/sodipodi-0.dtd"
   xmlns:inkscape="http://www.inkscape.org/namespaces/inkscape"
   width="150px"
   height="380px"
   version="1.1"
   xml:space="preserve"
   style="fill-rule:evenodd;clip-rule:evenodd;"
   id="svg4863"
   sodipodi:docname="Unstabile.svg"
   inkscape:version="0.92.3 (2405546, 2018-03-11)">
  <defs
   id="defs4867">
    <linearGradient
   inkscape:collect="always"
   id="linearGradient5326">
      <stop
   style="stop-color:#555555;stop-opacity:1"
   offset="0"
   id="stop5322" />
      <stop
   style="stop-color:#989898;stop-opacity:1"
   offset="1"
   id="stop5324" />
    </linearGradient>
    <linearGradient
   inkscape:collect="always"
   xlink:href="#linearGradient5326"
   id="linearGradient5328"
   x1="0.00032814531"
   y1="379.99832"
   x2="150.00034"
   y2="-0.00014301452"
   gradientUnits="userSpaceOnUse" />
  </defs>
  <metadata
   id="metadata4869">
    <rdf:RDF>
      <cc:Work
   rdf:about="">
        <dc:format>image/svg+xml</dc:format>
        <dc:type
   rdf:resource="http://purl.org/dc/dcmitype/StillImage" />
      <dc:title></dc:title></cc:Work>
    </rdf:RDF>
  </metadata>
  <sodipodi:namedview
   pagecolor="#ffffff"
   bordercolor="#666666"
   borderopacity="1"
   objecttolerance="10"
   gridtolerance="10"
   guidetolerance="10"
   inkscape:pageopacity="0"
   inkscape:pageshadow="2"
   inkscape:window-width="1920"
   inkscape:window-height="1017"
   id="namedview4865"
   showgrid="false"
   inkscape:zoom="1.5798254"
   inkscape:cx="13.528258"
   inkscape:cy="162.30031"
   inkscape:window-x="1912"
   inkscape:window-y="-8"
   inkscape:window-maximized="1"
   inkscape:current-layer="svg4863" />
  <rect
   x="0.00032814531"
   y="-0.00014301452"
   width="150"
   height="379.99847"
   style="fill:url(#linearGradient5328);stroke-width:3.78603339;fill-opacity:1"
   id="rect4542" />
  <path
   d="m 126.90355,130.66217 c 2.73714,-4.74196 1.66469,-10.82449 -2.53305,-14.34595 -4.19374,-3.52146 -10.3723,-3.52146 -14.56604,0 -4.19774,3.52146 -5.27019,9.60399 -2.53305,14.34595 l 9.81607,-5.66635 z"
   style="fill:none;stroke:#cccccc;stroke-width:1;stroke-miterlimit:4;stroke-dasharray:none;stroke-linecap:round"
   id="path4545"
   inkscape:connector-curvature="0" />
  <path
   d="m 126.5314,131.85867 0.024,4.40983"
   style="fill:#cccccc;fill-rule:nonzero;stroke:#cccccc;stroke-width:1;stroke-miterlimit:4;stroke-dasharray:none;stroke-linecap:round"
   id="path4548"
   inkscape:connector-curvature="0" />
  <path
   d="m 128.74832,134.03157 -4.40983,0.02"
   style="fill:#cccccc;fill-rule:nonzero;stroke:#cccccc;stroke-width:1;stroke-miterlimit:4;stroke-dasharray:none;stroke-linecap:round"
   id="path4551"
   inkscape:connector-curvature="0" />
  <path
   d="m 110.42872,133.90752 -4.41383,0.02"
   style="fill:#cccccc;fill-rule:nonzero;stroke:#cccccc;stroke-width:1;stroke-miterlimit:4;stroke-dasharray:none;stroke-linecap:round"
   id="path4554"
   inkscape:connector-curvature="0" />
  <path
   d="m 117.08748,124.99982 -0.024,-13.30952"
   style="fill:none;stroke:#cccccc;stroke-width:1;stroke-miterlimit:4;stroke-dasharray:none;stroke-linecap:round"
   id="path4557"
   inkscape:connector-curvature="0" />
  <path
   inkscape:connector-curvature="0"
   id="path4560"
   style="fill:#ffffff;fill-rule:nonzero;stroke-width:4.00165987"
   d="m 29.659813,167.73942 h 0.296123 c 0.308128,0 0.548227,-0.064 0.712295,-0.19208 0.164068,-0.12806 0.248103,-0.31213 0.248103,-0.55223 0,-0.2401 -0.08404,-0.42418 -0.248103,-0.55223 -0.164068,-0.12806 -0.404167,-0.19208 -0.712295,-0.19208 h -0.296123 z m 3.449431,3.33738 h -1.95281 l -1.496621,-2.32096 v 2.32096 h -1.568651 v -6.0345 h 2.441013 c 0.336139,0 0.62826,0.048 0.880365,0.14806 0.252105,0.10004 0.456189,0.23209 0.620257,0.40417 0.164068,0.17207 0.284118,0.36815 0.368153,0.59224 0.08404,0.22409 0.124052,0.46419 0.124052,0.7203 0,0.46019 -0.112047,0.83235 -0.332138,1.11646 -0.220092,0.28412 -0.548228,0.4802 -0.980407,0.58024 z" />
  <path
   inkscape:connector-curvature="0"
   id="path4562"
   style="fill:#ffffff;fill-rule:nonzero;stroke-width:4.00165987"
   d="m 37.19894,166.37085 h -1.864773 v 1.00842 h 1.76073 v 1.32855 h -1.76073 v 1.04043 h 1.864773 v 1.32855 h -3.433424 v -6.0345 h 3.433424 z" />
  <path
   inkscape:connector-curvature="0"
   id="path4564"
   style="fill:#ffffff;fill-rule:nonzero;stroke-width:4.00165987"
   d="m 41.640783,166.58694 c -0.172071,-0.14006 -0.340141,-0.2401 -0.512212,-0.30813 -0.172072,-0.068 -0.33614,-0.10004 -0.496206,-0.10004 -0.204085,0 -0.368153,0.048 -0.496206,0.14406 -0.128053,0.096 -0.19208,0.22009 -0.19208,0.37615 0,0.10805 0.03201,0.19609 0.09604,0.26411 0.06403,0.068 0.148061,0.12806 0.252105,0.18008 0.104043,0.052 0.220091,0.096 0.352146,0.13205 0.132054,0.036 0.260108,0.076 0.388161,0.12005 0.512212,0.17207 0.888368,0.40017 1.124466,0.68429 0.236098,0.28411 0.356148,0.65627 0.356148,1.11646 0,0.30813 -0.05202,0.58824 -0.156065,0.84035 -0.104043,0.2521 -0.256106,0.46419 -0.456189,0.64427 -0.200083,0.18007 -0.444184,0.31613 -0.736306,0.41617 -0.292121,0.10004 -0.620257,0.14806 -0.98841,0.14806 -0.764317,0 -1.468609,-0.22809 -2.120879,-0.68028 l 0.672279,-1.26453 c 0.236098,0.20809 0.468194,0.36415 0.696288,0.4642 0.228095,0.10004 0.45619,0.15206 0.680283,0.15206 0.256106,0 0.448186,-0.06 0.572237,-0.17607 0.124051,-0.11605 0.188078,-0.25211 0.188078,-0.40017 0,-0.092 -0.01601,-0.16807 -0.04802,-0.2361 -0.03201,-0.068 -0.08404,-0.12805 -0.160066,-0.18407 -0.07603,-0.056 -0.172072,-0.10805 -0.292121,-0.15607 -0.12005,-0.048 -0.26411,-0.10004 -0.436181,-0.16007 -0.204085,-0.064 -0.400166,-0.13605 -0.596248,-0.21208 -0.196081,-0.076 -0.368152,-0.18008 -0.520216,-0.30813 -0.152063,-0.12805 -0.276114,-0.28812 -0.368152,-0.4842 -0.09204,-0.19608 -0.140058,-0.44019 -0.140058,-0.74031 0,-0.30012 0.04802,-0.56824 0.148061,-0.81234 0.100042,-0.2441 0.236098,-0.45218 0.416173,-0.62426 0.180074,-0.17207 0.396164,-0.30812 0.656272,-0.40416 0.260108,-0.096 0.548227,-0.14406 0.86836,-0.14406 0.300125,0 0.612254,0.04 0.936389,0.12405 0.324134,0.084 0.636263,0.20408 0.936388,0.36415 z" />
  <path
   inkscape:connector-curvature="0"
   id="path4566"
   style="fill:#ffffff;fill-rule:nonzero;stroke-width:4.00165987"
   d="m 44.866121,168.05955 c 0,0.2401 0.04402,0.46019 0.136056,0.66427 0.09204,0.20409 0.212088,0.38016 0.368153,0.52822 0.156065,0.14806 0.33614,0.26411 0.540224,0.34815 0.204085,0.084 0.424176,0.12405 0.652271,0.12405 0.228094,0 0.448186,-0.04 0.65227,-0.12405 0.204085,-0.084 0.388161,-0.20009 0.544226,-0.34815 0.156065,-0.14806 0.280116,-0.32413 0.372155,-0.52822 0.09204,-0.20408 0.136056,-0.42417 0.136056,-0.66427 0,-0.2401 -0.04402,-0.46019 -0.136056,-0.66428 -0.09204,-0.20408 -0.21609,-0.38015 -0.372155,-0.52822 -0.156065,-0.14806 -0.340141,-0.26411 -0.544226,-0.34814 -0.204084,-0.084 -0.424176,-0.12405 -0.65227,-0.12405 -0.228095,0 -0.448186,0.04 -0.652271,0.12405 -0.204084,0.084 -0.384159,0.20008 -0.540224,0.34814 -0.156065,0.14807 -0.276114,0.32414 -0.368153,0.52822 -0.09204,0.20409 -0.136056,0.42418 -0.136056,0.66428 z m -1.640681,0 c 0,-0.44819 0.08404,-0.86436 0.248103,-1.25252 0.164068,-0.38816 0.396165,-0.7243 0.688286,-1.01242 0.292121,-0.28812 0.644267,-0.51221 1.052436,-0.67628 0.40817,-0.16407 0.856356,-0.2441 1.34856,-0.2441 0.484201,0 0.932387,0.08 1.344558,0.2441 0.412171,0.16407 0.764317,0.38816 1.060439,0.67628 0.296123,0.28812 0.52822,0.62426 0.692288,1.01242 0.164068,0.38816 0.248103,0.80433 0.248103,1.25252 0,0.44818 -0.08404,0.86436 -0.248103,1.25252 -0.164068,0.38816 -0.396165,0.7243 -0.692288,1.01242 -0.296122,0.28812 -0.648268,0.51221 -1.060439,0.67628 -0.412171,0.16407 -0.860357,0.2441 -1.344558,0.2441 -0.492204,0 -0.94039,-0.08 -1.34856,-0.2441 -0.408169,-0.16407 -0.760315,-0.38816 -1.052436,-0.67628 -0.292121,-0.28812 -0.524218,-0.62426 -0.688286,-1.01242 -0.164068,-0.38816 -0.248103,-0.80434 -0.248103,-1.25252 z" />
  <path
   inkscape:connector-curvature="0"
   id="path4568"
   style="fill:#ffffff;fill-rule:nonzero;stroke-width:4.00165987"
   d="m 50.900624,171.0768 v -6.0345 h 1.568651 l 2.897202,3.68953 v -3.68953 h 1.560647 v 6.0345 h -1.560647 l -2.897202,-3.68953 v 3.68953 z" />
  <path
   inkscape:connector-curvature="0"
   id="path4570"
   style="fill:#ffffff;fill-rule:nonzero;stroke-width:4.00165987"
   d="m 61.489017,168.83587 -0.704293,-2.00883 -0.704292,2.00883 z m 0.416172,1.1925 H 59.66426 l -0.36015,1.04843 h -1.672694 l 2.296953,-6.0345 h 1.712711 l 2.296953,6.0345 h -1.672694 z" />
  <path
   inkscape:connector-curvature="0"
   id="path4572"
   style="fill:#ffffff;fill-rule:nonzero;stroke-width:4.00165987"
   d="m 64.626318,171.0768 v -6.0345 h 1.568651 l 2.897202,3.68953 v -3.68953 h 1.560647 v 6.0345 h -1.560647 l -2.897202,-3.68953 v 3.68953 z" />
  <path
   inkscape:connector-curvature="0"
   id="path4574"
   style="fill:#ffffff;fill-rule:nonzero;stroke-width:4.00165987"
   d="m 76.343179,167.05913 c -0.364152,-0.44418 -0.812337,-0.66427 -1.344558,-0.66427 -0.236098,0 -0.452188,0.044 -0.652271,0.12805 -0.200083,0.084 -0.372154,0.20008 -0.516214,0.34815 -0.14406,0.14806 -0.256106,0.32013 -0.340141,0.52421 -0.08404,0.20409 -0.124051,0.42018 -0.124051,0.65628 0,0.24009 0.04002,0.46019 0.124051,0.66427 0.08404,0.20409 0.196081,0.38016 0.344143,0.52822 0.148061,0.14806 0.320133,0.26811 0.516214,0.35215 0.196081,0.084 0.412171,0.12805 0.640265,0.12805 0.500208,0 0.952396,-0.21209 1.352562,-0.64027 v 1.85677 l -0.160067,0.056 c -0.240099,0.084 -0.464192,0.14806 -0.672279,0.18807 -0.208086,0.04 -0.412171,0.06 -0.616255,0.06 -0.416173,0 -0.816339,-0.08 -1.196497,-0.2361 -0.380157,-0.15606 -0.716297,-0.38016 -1.008418,-0.66427 -0.292121,-0.28412 -0.524217,-0.62426 -0.700291,-1.01643 -0.176073,-0.39216 -0.264109,-0.82034 -0.264109,-1.28453 0,-0.46419 0.08804,-0.88837 0.260108,-1.27653 0.172071,-0.38816 0.404167,-0.7203 0.696289,-1.00041 0.292121,-0.28012 0.62826,-0.50021 1.01242,-0.65628 0.384159,-0.15606 0.788327,-0.23609 1.208501,-0.23609 0.2401,0 0.476197,0.024 0.708294,0.076 0.232096,0.052 0.476197,0.12805 0.732304,0.2361 z" />
  <path
   inkscape:connector-curvature="0"
   id="path4576"
   style="fill:#ffffff;fill-rule:nonzero;stroke-width:4.00165987"
   d="m 80.769015,166.37085 h -1.864774 v 1.00842 h 1.76073 v 1.32855 h -1.76073 v 1.04043 h 1.864774 v 1.32855 H 77.33559 v -6.0345 h 3.433425 z" />
  <path
   inkscape:connector-curvature="0"
   id="path4581"
   style="fill:none;stroke:#cccccc;stroke-width:1.5;stroke-miterlimit:4;stroke-dasharray:none;stroke-linecap:round"
   d="m 75.382657,148.24137 c 5.878438,-10.18422 3.577484,-23.24564 -5.430253,-30.80478 -9.007736,-7.55513 -22.273239,-7.55513 -31.280976,0 -9.007737,7.55914 -11.308691,20.62056 -5.430253,30.80478" />
  <circle
   id="circle4584"
   style="fill:none;stroke:#cccccc;stroke-width:1;stroke-miterlimit:4;stroke-dasharray:none"
   r="3.7055371"
   cy="157.50925"
   cx="36.172581" />
  <circle
   id="circle4587"
   style="fill:#cccccc;stroke:#cccccc;stroke-width:1;stroke-miterlimit:4;stroke-dasharray:none"
   r="3.7055371"
   cy="156.99701"
   cx="73.952255" />
  <path
   d="m 144.24851,301.98062 c 0,-2.99846 -2.43587,-5.43307 -5.43534,-5.43307 H 12.061844 c -2.9946902,0 -5.4305624,2.43461 -5.4305624,5.43307 v 28.51788 c 0,2.99845 2.4358722,5.43306 5.4305624,5.43306 H 138.81317 c 2.99947,0 5.43534,-2.43461 5.43534,-5.43306 z"
   id="path4592"
   inkscape:connector-curvature="0"
   style="fill:#1a1a21;fill-opacity:1;stroke:#333359;stroke-width:1;stroke-miterlimit:4;stroke-dasharray:none;stroke-opacity:1" />
  <path
   inkscape:connector-curvature="0"
   id="path4596"
   style="fill:none;stroke:#cccccc;stroke-width:1.5;stroke-miterlimit:4;stroke-dasharray:none;stroke-linecap:round"
   d="m 75.382657,212.24137 c 5.878438,-10.18422 3.577484,-23.24564 -5.430253,-30.80478 -9.007736,-7.55513 -22.273239,-7.55513 -31.280976,0 -9.007737,7.55914 -11.308691,20.62056 -5.430253,30.80478" />
  <circle
   id="circle4599"
   style="fill:none;stroke:#cccccc;stroke-width:1;stroke-miterlimit:4;stroke-dasharray:none"
   r="3.7055371"
   cy="221.50925"
   cx="36.172581" />
  <circle
   id="circle4602"
   style="fill:#cccccc;stroke:#cccccc;stroke-width:1;stroke-miterlimit:4;stroke-dasharray:none"
   r="3.7055371"
   cy="220.99701"
   cx="73.952255" />
  <rect
   id="rect4607"
   style="fill:#ffffff;fill-rule:nonzero;stroke-width:4.00165987"
   height="6.0345035"
   width="1.5686507"
   y="348.5383"
   x="75.980461" />
  <path
   inkscape:connector-curvature="0"
   id="path4609"
   style="fill:#ffffff;fill-rule:nonzero;stroke-width:4.00165987"
   d="m 78.813638,354.5728 v -6.0345 h 1.56865 l 2.897202,3.68953 v -3.68953 h 1.560648 v 6.0345 H 83.27949 l -2.897202,-3.68953 v 3.68953 z" />
  <path
   inkscape:connector-curvature="0"
   id="path4611"
   style="fill:#ffffff;fill-rule:nonzero;stroke-width:4.00165987"
   d="m 87.673313,351.30745 h 0.520216 c 0.576239,0 0.864358,-0.25211 0.864358,-0.75232 0,-0.5002 -0.288119,-0.75231 -0.864358,-0.75231 h -0.520216 z m 0,3.26535 h -1.568651 v -6.0345 h 2.497036 c 0.67628,0 1.196496,0.17607 1.556646,0.52822 0.360149,0.35214 0.540224,0.84835 0.540224,1.48861 0,0.64027 -0.180075,1.13647 -0.540224,1.48862 -0.36015,0.35215 -0.880366,0.52822 -1.556646,0.52822 h -0.928385 z" />
  <path
   inkscape:connector-curvature="0"
   id="path4613"
   style="fill:#ffffff;fill-rule:nonzero;stroke-width:4.00165987"
   d="m 93.099564,348.5383 v 3.28136 c 0,0.17607 0.008,0.35615 0.02001,0.54022 0.012,0.18408 0.05202,0.35215 0.12005,0.50021 0.06803,0.14806 0.172071,0.27211 0.316131,0.36415 0.14406,0.092 0.348144,0.14006 0.608252,0.14006 0.260108,0 0.464193,-0.048 0.604251,-0.14006 0.140058,-0.092 0.248103,-0.21609 0.316131,-0.36415 0.06803,-0.14806 0.112047,-0.31613 0.124052,-0.50021 0.01201,-0.18407 0.02001,-0.36415 0.02001,-0.54022 v -3.28136 h 1.560647 v 3.49745 c 0,0.94039 -0.216089,1.62467 -0.644267,2.05685 -0.428178,0.43218 -1.088451,0.64827 -1.980822,0.64827 -0.89237,0 -1.552644,-0.21609 -1.984823,-0.64827 -0.432179,-0.43218 -0.648269,-1.11646 -0.648269,-2.05685 v -3.49745 z" />
  <path
   inkscape:connector-curvature="0"
   id="path4615"
   style="fill:#ffffff;fill-rule:nonzero;stroke-width:4.00165987"
   d="m 100.34257,349.86685 v 4.70595 h -1.568652 v -4.70595 h -1.288535 v -1.32855 h 4.145717 v 1.32855 z" />
  <path
   inkscape:connector-curvature="0"
   id="path4620"
   style="fill:#ffffff;fill-rule:nonzero;stroke-width:4.00165987"
   d="m 17.241213,327.0083 v 4.70595 h 1.88078 v 1.32855 h -3.449431 v -6.0345 z" />
  <path
   inkscape:connector-curvature="0"
   id="path4622"
   style="fill:#ffffff;fill-rule:nonzero;stroke-width:4.00165987"
   d="m 21.498979,329.77745 h 0.520216 c 0.576239,0 0.864359,-0.25211 0.864359,-0.75232 0,-0.5002 -0.28812,-0.75231 -0.864359,-0.75231 h -0.520216 z m 0,3.26535 h -1.56865 v -6.0345 h 2.497035 c 0.676281,0 1.196497,0.17607 1.556646,0.52822 0.36015,0.35214 0.540224,0.84835 0.540224,1.48861 0,0.64027 -0.180074,1.13647 -0.540224,1.48862 -0.360149,0.35215 -0.880365,0.52822 -1.556646,0.52822 h -0.928385 z" />
  <path
   inkscape:connector-curvature="0"
   id="path4627"
   style="fill:#ffffff;fill-rule:nonzero;stroke-width:4.00165987"
   d="m 90.413713,329.45326 h 2.26494 v -2.32896 h 1.56865 v 6.0345 h -1.56865 v -2.48903 h -2.26494 v 2.48903 h -1.568651 v -6.0345 h 1.568651 z" />
  <path
   inkscape:connector-curvature="0"
   id="path4629"
   style="fill:#ffffff;fill-rule:nonzero;stroke-width:4.00165987"
   d="m 97.080479,329.89345 h 0.520215 c 0.576239,0 0.864359,-0.25211 0.864359,-0.75232 0,-0.5002 -0.28812,-0.75231 -0.864359,-0.75231 h -0.520215 z m 0,3.26535 h -1.568651 v -6.0345 h 2.497036 c 0.67628,0 1.196496,0.17607 1.556645,0.52822 0.36015,0.35214 0.540221,0.84835 0.540221,1.48861 0,0.64027 -0.180071,1.13647 -0.540221,1.48862 -0.360149,0.35215 -0.880365,0.52822 -1.556645,0.52822 h -0.928385 z" />
  <path
   inkscape:connector-curvature="0"
   id="path4634"
   style="fill:#ffffff;fill-rule:nonzero;stroke-width:1.05876994"
   d="m 16.15778,38.5591 v -7.35104 h 1.378519 v 3.202779 c 0.353629,-0.719963 0.910542,-1.079945 1.671797,-1.079945 0.614087,0 1.097945,0.225518 1.449457,0.675495 0.35257,0.449977 0.528326,1.069358 0.528326,1.857083 0,0.853368 -0.19799,1.535216 -0.596088,2.046602 -0.397039,0.510327 -0.927482,0.765491 -1.591331,0.765491 -0.571736,0 -1.05877,-0.210696 -1.462161,-0.633145 l -0.256223,0.51668 z m 1.378519,-1.336168 c 0.33563,0.372687 0.692435,0.559031 1.070416,0.559031 0.338806,0 0.608793,-0.16411 0.809959,-0.491269 0.202225,-0.32716 0.302808,-0.764432 0.302808,-1.310758 0,-1.046064 -0.336689,-1.569097 -1.010066,-1.569097 -0.406568,0 -0.797254,0.262575 -1.173117,0.786666 z" />
  <path
   inkscape:connector-curvature="0"
   id="path4636"
   style="fill:#ffffff;fill-rule:nonzero;stroke-width:1.05876994"
   d="m 26.637485,38.38652 c -0.654319,0.192697 -1.275817,0.289045 -1.862376,0.289045 -0.853369,0 -1.526746,-0.242459 -2.020133,-0.726317 -0.493387,-0.483857 -0.74008,-1.145589 -0.74008,-1.983076 0,-0.79196 0.225518,-1.42828 0.677612,-1.91108 0.451036,-0.482799 1.048183,-0.724198 1.789322,-0.724198 0.74855,0 1.294875,0.236105 1.638976,0.707258 0.345159,0.472212 0.516679,1.218644 0.516679,2.239299 h -3.169957 c 0.09317,0.975127 0.627851,1.462161 1.606154,1.462161 0.462683,0 0.983598,-0.106936 1.563803,-0.320807 z M 23.44847,35.500313 h 1.834849 c 0,-0.872426 -0.281633,-1.30758 -0.842781,-1.30758 -0.571736,0 -0.902072,0.435154 -0.992068,1.30758 z" />
  <path
   inkscape:connector-curvature="0"
   id="path4638"
   style="fill:#ffffff;fill-rule:nonzero;stroke-width:1.05876994"
   d="m 28.06259,38.5591 v -5.111742 h 1.37746 v 0.963481 c 0.449977,-0.719963 1.031242,-1.079945 1.741676,-1.079945 0.45633,0 0.816312,0.143992 1.079946,0.433037 0.263633,0.289044 0.39598,0.682906 0.39598,1.182646 V 38.5591 h -1.378519 v -3.272658 c 0,-0.580206 -0.192696,-0.870309 -0.57703,-0.870309 -0.437272,0 -0.858662,0.308102 -1.262053,0.926424 V 38.5591 Z" />
  <path
   inkscape:connector-curvature="0"
   id="path4640"
   style="fill:#ffffff;fill-rule:nonzero;stroke-width:1.05876994"
   d="m 36.959434,38.531572 c -0.329277,0.09529 -0.588676,0.143993 -0.778196,0.143993 -1.194292,0 -1.792497,-0.559031 -1.792497,-1.676033 v -2.691394 h -0.571736 v -0.86078 h 0.571736 v -0.86078 l 1.378518,-0.158815 v 1.019595 h 1.09371 v 0.86078 h -1.09371 v 2.509285 c 0,0.627851 0.256223,0.941247 0.767608,0.941247 0.118583,0 0.259399,-0.02223 0.424567,-0.06564 z" />
  <path
   inkscape:connector-curvature="0"
   id="path4642"
   style="fill:#ffffff;fill-rule:nonzero;stroke-width:1.05876994"
   d="m 41.195573,38.396049 v -1.010066 c 0.682907,0.285868 1.266289,0.427743 1.750147,0.427743 0.565383,0 0.848075,-0.191637 0.848075,-0.57703 0,-0.247752 -0.23293,-0.4648 -0.698789,-0.651143 l -0.465858,-0.186344 c -0.506093,-0.205401 -0.867133,-0.425625 -1.084181,-0.661731 -0.217048,-0.235047 -0.326101,-0.527268 -0.326101,-0.874544 0,-0.484917 0.184226,-0.86078 0.553737,-1.129708 0.36951,-0.267868 0.88619,-0.402332 1.550039,-0.402332 0.416097,0 0.911601,0.06035 1.485454,0.182108 v 0.967716 c -0.552678,-0.192696 -1.010066,-0.287985 -1.373224,-0.287985 -0.570678,0 -0.856545,0.176814 -0.856545,0.530443 0,0.23293 0.210695,0.429861 0.633144,0.590794 l 0.400215,0.153522 c 0.599264,0.226576 1.015361,0.456329 1.250407,0.689259 0.233989,0.232929 0.351512,0.532561 0.351512,0.898896 0,0.480681 -0.200107,0.871367 -0.598205,1.170999 -0.399156,0.298573 -0.917954,0.448919 -1.557451,0.448919 -0.615145,0 -1.235584,-0.09317 -1.862376,-0.279516 z" />
  <path
   inkscape:connector-curvature="0"
   id="path4644"
   style="fill:#ffffff;fill-rule:nonzero;stroke-width:1.05876994"
   d="m 49.356572,38.531572 c -0.329277,0.09529 -0.587617,0.143993 -0.777137,0.143993 -1.195351,0 -1.792498,-0.559031 -1.792498,-1.676033 v -2.691394 h -0.572794 v -0.86078 h 0.572794 v -0.86078 l 1.37746,-0.158815 v 1.019595 h 1.094768 v 0.86078 h -1.094768 v 2.509285 c 0,0.627851 0.256222,0.941247 0.768667,0.941247 0.117524,0 0.259399,-0.02223 0.423508,-0.06564 z" />
  <path
   inkscape:connector-curvature="0"
   id="path4646"
   style="fill:#ffffff;fill-rule:nonzero;stroke-width:1.05876994"
   d="m 53.089795,38.009598 c -0.458447,0.443625 -0.950775,0.665967 -1.474866,0.665967 -0.44786,0 -0.80996,-0.136582 -1.089475,-0.409744 -0.279515,-0.273163 -0.419273,-0.626792 -0.419273,-1.061947 0,-0.564324 0.225518,-0.999478 0.677613,-1.305463 0.451036,-0.305985 1.097945,-0.458447 1.938608,-0.458447 h 0.367393 v -0.465859 c 0,-0.530444 -0.301749,-0.796195 -0.907366,-0.796195 -0.536796,0 -1.079945,0.152463 -1.629447,0.45633 v -0.949717 c 0.623616,-0.236106 1.241937,-0.353629 1.852848,-0.353629 1.338285,0 2.006369,0.532561 2.006369,1.596625 v 2.262591 c 0,0.400215 0.12917,0.600323 0.386451,0.600323 0.04659,0 0.106936,-0.0053 0.182108,-0.018 l 0.03176,0.772902 c -0.291161,0.08682 -0.548442,0.130229 -0.771843,0.130229 -0.565383,0 -0.928541,-0.222342 -1.089474,-0.665967 z m 0,-0.74008 v -1.038653 h -0.325042 c -0.891485,0 -1.336168,0.279515 -1.336168,0.838546 0,0.189519 0.06459,0.348335 0.192696,0.477505 0.12917,0.128111 0.287986,0.192696 0.477505,0.192696 0.322925,0 0.653262,-0.156698 0.991009,-0.470094 z" />
  <path
   inkscape:connector-curvature="0"
   id="path4648"
   style="fill:#ffffff;fill-rule:nonzero;stroke-width:1.05876994"
   d="m 58.826211,38.531572 c -0.329277,0.09529 -0.588676,0.143993 -0.778196,0.143993 -1.194292,0 -1.792498,-0.559031 -1.792498,-1.676033 v -2.691394 h -0.571735 v -0.86078 h 0.571735 v -0.86078 l 1.378519,-0.158815 v 1.019595 h 1.093709 v 0.86078 h -1.093709 v 2.509285 c 0,0.627851 0.256222,0.941247 0.768667,0.941247 0.117523,0 0.25834,-0.02223 0.423508,-0.06564 z" />
  <path
   inkscape:connector-curvature="0"
   id="path4650"
   style="fill:#ffffff;fill-rule:nonzero;stroke-width:1.05876994"
   d="m 64.216409,38.38652 c -0.65432,0.192697 -1.274759,0.289045 -1.861318,0.289045 -0.853368,0 -1.527805,-0.242459 -2.021192,-0.726317 -0.493386,-0.483857 -0.74008,-1.145589 -0.74008,-1.983076 0,-0.79196 0.225518,-1.42828 0.677613,-1.91108 0.451036,-0.482799 1.048182,-0.724198 1.79038,-0.724198 0.747492,0 1.293817,0.236105 1.637917,0.707258 0.345159,0.472212 0.51668,1.218644 0.51668,2.239299 h -3.169957 c 0.09317,0.975127 0.628909,1.462161 1.606154,1.462161 0.462682,0 0.983597,-0.106936 1.563803,-0.320807 z m -3.189015,-2.886207 h 1.834848 c 0,-0.872426 -0.280574,-1.30758 -0.842781,-1.30758 -0.570677,0 -0.902072,0.435154 -0.992067,1.30758 z" />
  <path
   inkscape:connector-curvature="0"
   id="path4652"
   style="fill:#ffffff;fill-rule:nonzero;stroke-width:1.05876994"
   d="m 70.045997,38.5591 -1.951313,-5.111742 h 1.452632 l 1.42934,3.686638 1.41981,-3.686638 h 0.996303 L 71.423456,38.5591 Z" />
  <path
   inkscape:connector-curvature="0"
   id="path4654"
   style="fill:#ffffff;fill-rule:nonzero;stroke-width:1.05876994"
   d="m 76.944942,38.009598 c -0.459506,0.443625 -0.950775,0.665967 -1.475925,0.665967 -0.446801,0 -0.809959,-0.136582 -1.089475,-0.409744 -0.279515,-0.273163 -0.418214,-0.626792 -0.418214,-1.061947 0,-0.564324 0.225518,-0.999478 0.676554,-1.305463 0.452095,-0.305985 1.097945,-0.458447 1.939667,-0.458447 h 0.367393 v -0.465859 c 0,-0.530444 -0.302808,-0.796195 -0.907366,-0.796195 -0.536796,0 -1.079945,0.152463 -1.629447,0.45633 v -0.949717 c 0.623616,-0.236106 1.240879,-0.353629 1.852848,-0.353629 1.337226,0 2.006369,0.532561 2.006369,1.596625 v 2.262591 c 0,0.400215 0.12917,0.600323 0.386451,0.600323 0.04659,0 0.106936,-0.0053 0.181049,-0.018 l 0.03282,0.772902 c -0.291161,0.08682 -0.549501,0.130229 -0.772902,0.130229 -0.564324,0 -0.927482,-0.222342 -1.089474,-0.665967 z m 0,-0.74008 v -1.038653 h -0.326101 c -0.890426,0 -1.336168,0.279515 -1.336168,0.838546 0,0.189519 0.06458,0.348335 0.193755,0.477505 0.128111,0.128111 0.287985,0.192696 0.477505,0.192696 0.321866,0 0.653261,-0.156698 0.991009,-0.470094 z" />
  <path
   inkscape:connector-curvature="0"
   id="path4656"
   style="fill:#ffffff;fill-rule:nonzero;stroke-width:1.05876994"
   d="m 80.046079,38.5591 v -5.111742 h 1.37746 v 0.963481 c 0.356806,-0.719963 0.899955,-1.079945 1.629447,-1.079945 0.08682,0 0.17258,0.0095 0.256222,0.02753 v 1.229232 c -0.195872,-0.07094 -0.376922,-0.106936 -0.545266,-0.106936 -0.548443,0 -0.996303,0.278456 -1.340403,0.833252 v 3.24513 z" />
  <path
   inkscape:connector-curvature="0"
   id="path4658"
   style="fill:#ffffff;fill-rule:nonzero;stroke-width:1.05876994"
   d="m 84.379625,38.5591 v -5.111742 h 1.378518 V 38.5591 Z m 0,-5.972522 v -1.150883 h 1.378519 v 1.150883 z" />
  <path
   inkscape:connector-curvature="0"
   id="path4660"
   style="fill:#ffffff;fill-rule:nonzero;stroke-width:1.05876994"
   d="m 89.984753,38.009598 c -0.459506,0.443625 -0.950775,0.665967 -1.475925,0.665967 -0.446801,0 -0.809959,-0.136582 -1.088416,-0.409744 -0.279515,-0.273163 -0.419273,-0.626792 -0.419273,-1.061947 0,-0.564324 0.225518,-0.999478 0.677613,-1.305463 0.451036,-0.305985 1.097945,-0.458447 1.938608,-0.458447 h 0.367393 v -0.465859 c 0,-0.530444 -0.302808,-0.796195 -0.907366,-0.796195 -0.536796,0 -1.079945,0.152463 -1.629447,0.45633 v -0.949717 c 0.623616,-0.236106 1.240879,-0.353629 1.852848,-0.353629 1.337226,0 2.006369,0.532561 2.006369,1.596625 v 2.262591 c 0,0.400215 0.12917,0.600323 0.386451,0.600323 0.04659,0 0.106936,-0.0053 0.182109,-0.018 l 0.03176,0.772902 c -0.291162,0.08682 -0.549502,0.130229 -0.772902,0.130229 -0.564325,0 -0.927483,-0.222342 -1.089475,-0.665967 z m 0,-0.74008 v -1.038653 h -0.325042 c -0.891484,0 -1.336168,0.279515 -1.336168,0.838546 0,0.189519 0.06353,0.348335 0.192696,0.477505 0.12917,0.128111 0.287986,0.192696 0.477506,0.192696 0.322924,0 0.653261,-0.156698 0.991008,-0.470094 z" />
  <path
   inkscape:connector-curvature="0"
   id="path4662"
   style="fill:#ffffff;fill-rule:nonzero;stroke-width:1.05876994"
   d="m 93.085891,38.5591 v -7.35104 h 1.377459 v 3.202779 c 0.35363,-0.719963 0.911601,-1.079945 1.671798,-1.079945 0.614087,0 1.097945,0.225518 1.450515,0.675495 0.351512,0.449977 0.528326,1.069358 0.528326,1.857083 0,0.853368 -0.199048,1.535216 -0.596087,2.046602 -0.397039,0.510327 -0.928541,0.765491 -1.59239,0.765491 -0.570677,0 -1.05877,-0.210696 -1.462162,-0.633145 l -0.256222,0.51668 z m 1.377459,-1.336168 c 0.335631,0.372687 0.692436,0.559031 1.071476,0.559031 0.337747,0 0.607734,-0.16411 0.809959,-0.491269 0.201166,-0.32716 0.302808,-0.764432 0.302808,-1.310758 0,-1.046064 -0.337748,-1.569097 -1.011125,-1.569097 -0.406568,0 -0.797254,0.262575 -1.173118,0.786666 z" />
  <rect
   id="rect4664"
   style="fill:#ffffff;fill-rule:nonzero;stroke-width:1.05876994"
   height="7.3510399"
   width="1.3785186"
   y="31.208059"
   x="99.403572" />
  <path
   inkscape:connector-curvature="0"
   id="path4666"
   style="fill:#ffffff;fill-rule:nonzero;stroke-width:1.05876994"
   d="m 106.66567,38.38652 c -0.65432,0.192697 -1.27581,0.289045 -1.86237,0.289045 -0.85337,0 -1.52675,-0.242459 -2.02013,-0.726317 -0.49339,-0.483857 -0.74009,-1.145589 -0.74009,-1.983076 0,-0.79196 0.22552,-1.42828 0.67762,-1.91108 0.45103,-0.482799 1.04818,-0.724198 1.78932,-0.724198 0.74855,0 1.29487,0.236105 1.63897,0.707258 0.34411,0.472212 0.51668,1.218644 0.51668,2.239299 h -3.16995 c 0.0932,0.975127 0.62785,1.462161 1.60615,1.462161 0.46163,0 0.9836,-0.106936 1.5638,-0.320807 z m -3.18901,-2.886207 h 1.83379 c 0,-0.872426 -0.28057,-1.30758 -0.84172,-1.30758 -0.57174,0 -0.90208,0.435154 -0.99207,1.30758 z" />
  <path
   inkscape:connector-curvature="0"
   id="path4668"
   style="fill:#ffffff;fill-rule:nonzero;stroke-width:1.05876994"
   d="m 111.3772,38.5591 v -4.250962 h -0.70302 v -0.86078 h 0.70302 v -0.353629 c 0,-0.642673 0.15246,-1.137119 0.45845,-1.483337 0.30598,-0.345159 0.74114,-0.518797 1.30546,-0.518797 0.34834,0 0.71785,0.06353 1.10853,0.190579 v 0.941246 c -0.38539,-0.17152 -0.6702,-0.256222 -0.85654,-0.256222 -0.42563,0 -0.63844,0.38751 -0.63844,1.163588 v 0.316572 h 3.2176 V 38.5591 h -1.37852 v -4.250962 h -1.83908 V 38.5591 Z m 3.44524,-5.972522 v -1.150883 h 1.14982 v 1.150883 z m -0.7729,0.86078" />
  <rect
   id="rect4670"
   style="fill:#ffffff;fill-rule:nonzero;stroke-width:1.05876994"
   height="7.3510399"
   width="1.3785186"
   y="31.208059"
   x="117.69488" />
  <path
   inkscape:connector-curvature="0"
   id="path4672"
   style="fill:#ffffff;fill-rule:nonzero;stroke-width:1.05876994"
   d="m 123.43024,38.531572 c -0.32928,0.09529 -0.58868,0.143993 -0.77714,0.143993 -1.19535,0 -1.7925,-0.559031 -1.7925,-1.676033 v -2.691394 h -0.57279 v -0.86078 h 0.57279 v -0.86078 l 1.37746,-0.158815 v 1.019595 h 1.09477 v 0.86078 h -1.09477 v 2.509285 c 0,0.627851 0.25623,0.941247 0.76867,0.941247 0.11752,0 0.2594,-0.02223 0.42351,-0.06564 z" />
  <path
   inkscape:connector-curvature="0"
   id="path4674"
   style="fill:#ffffff;fill-rule:nonzero;stroke-width:1.05876994"
   d="m 128.8215,38.38652 c -0.65538,0.192697 -1.27582,0.289045 -1.86238,0.289045 -0.85337,0 -1.52675,-0.242459 -2.02013,-0.726317 -0.49445,-0.483857 -0.74114,-1.145589 -0.74114,-1.983076 0,-0.79196 0.22657,-1.42828 0.67761,-1.91108 0.45209,-0.482799 1.04818,-0.724198 1.79038,-0.724198 0.74749,0 1.29382,0.236105 1.63898,0.707258 0.3441,0.472212 0.51668,1.218644 0.51668,2.239299 h -3.17102 c 0.0932,0.975127 0.62891,1.462161 1.60615,1.462161 0.46269,0 0.98466,-0.106936 1.56487,-0.320807 z m -3.18902,-2.886207 h 1.83379 c 0,-0.872426 -0.28057,-1.30758 -0.84278,-1.30758 -0.57068,0 -0.90101,0.435154 -0.99101,1.30758 z" />
  <path
   inkscape:connector-curvature="0"
   id="path4676"
   style="fill:#ffffff;fill-rule:nonzero;stroke-width:1.05876994"
   d="m 130.24554,38.5591 v -5.111742 h 1.37852 v 0.963481 c 0.35681,-0.719963 0.89995,-1.079945 1.62945,-1.079945 0.0868,0 0.17152,0.0095 0.25622,0.02753 v 1.229232 c -0.19587,-0.07094 -0.37798,-0.106936 -0.54527,-0.106936 -0.5495,0 -0.9963,0.278456 -1.3404,0.833252 v 3.24513 z" />
  
  
  
  
  
  
  
  
  <g
   id="g11219"
   style="fill:#3c3c4c"><path
     d="m 42.147596,17.710298 v 5.157194 c 0,0.277039 0.01066,0.559406 0.03197,0.848433 0.02131,0.290359 0.08391,0.551415 0.189133,0.787165 0.10389,0.234418 0.27038,0.424882 0.496806,0.572725 0.226427,0.146511 0.544755,0.219767 0.956319,0.219767 0.410231,0 0.727228,-0.07326 0.949659,-0.219767 0.221098,-0.147843 0.387588,-0.338307 0.496806,-0.572725 0.109217,-0.23575 0.173149,-0.496806 0.19446,-0.787165 0.02131,-0.289027 0.03197,-0.571394 0.03197,-0.848433 v -5.157194 h 2.452065 v 5.496834 c 0,1.475767 -0.336976,2.55329 -1.012259,3.232569 -0.675284,0.67928 -1.712849,1.018919 -3.112697,1.018919 -1.40118,0 -2.44141,-0.339639 -3.120689,-1.018919 C 40.02186,25.760422 39.68222,24.682899 39.68222,23.207132 v -5.496834 z"
     style="fill:#3c3c4c;fill-rule:nonzero;stroke-width:1.33192003;fill-opacity:1"
     id="path4681"
     inkscape:connector-curvature="0" /><path
     d="m 49.935332,27.1949 v -9.484602 h 2.465384 l 4.553835,5.799179 v -5.799179 h 2.453397 V 27.1949 h -2.453397 l -4.553835,-5.79918 v 5.79918 z"
     style="fill:#3c3c4c;fill-rule:nonzero;stroke-width:1.33192003;fill-opacity:1"
     id="path4683"
     inkscape:connector-curvature="0" /><path
     d="m 66.602979,20.137056 c -0.267716,-0.217103 -0.536763,-0.379597 -0.804479,-0.483487 -0.269048,-0.105222 -0.528773,-0.157167 -0.780505,-0.157167 -0.318329,0 -0.578054,0.07459 -0.779174,0.226427 -0.202451,0.150507 -0.302345,0.347631 -0.302345,0.591372 0,0.167822 0.05061,0.30501 0.150506,0.414227 0.101226,0.109218 0.233086,0.203784 0.396913,0.283699 0.163826,0.07992 0.347631,0.149175 0.552746,0.20778 0.206448,0.0586 0.4089,0.121205 0.61002,0.187801 0.805811,0.269047 1.39452,0.627334 1.767458,1.076191 0.374269,0.448857 0.560738,1.03357 0.560738,1.754139 0,0.487482 -0.08258,0.927016 -0.245073,1.321264 -0.163826,0.394249 -0.403572,0.732556 -0.717905,1.012259 -0.314333,0.281036 -0.70059,0.49947 -1.157439,0.655305 -0.456848,0.154503 -0.974965,0.231754 -1.553018,0.231754 -1.20006,0 -2.310882,-0.355622 -3.333796,-1.0682 l 1.056212,-1.988556 c 0.368942,0.327652 0.733888,0.570062 1.094839,0.729892 0.36095,0.15983 0.716573,0.238414 1.069531,0.238414 0.40224,0 0.701922,-0.0919 0.899046,-0.275708 0.197125,-0.185137 0.295687,-0.394248 0.295687,-0.629998 0,-0.142515 -0.02531,-0.265052 -0.07592,-0.370274 -0.04928,-0.105221 -0.133192,-0.20112 -0.250401,-0.289026 -0.118541,-0.08924 -0.271711,-0.170486 -0.459512,-0.246406 -0.189133,-0.07459 -0.416891,-0.158498 -0.685939,-0.250401 -0.318329,-0.101225 -0.63133,-0.211775 -0.937672,-0.334311 -0.305009,-0.121205 -0.578053,-0.282368 -0.817799,-0.483487 -0.238413,-0.202452 -0.431542,-0.455517 -0.578053,-0.761859 -0.146511,-0.306341 -0.219767,-0.69393 -0.219767,-1.162766 0,-0.470168 0.07725,-0.896382 0.231754,-1.277311 0.155835,-0.382261 0.37427,-0.708582 0.655305,-0.981625 0.281035,-0.271712 0.624671,-0.483487 1.030906,-0.635326 0.406236,-0.150507 0.861752,-0.226426 1.365218,-0.226426 0.468836,0 0.960315,0.06526 1.471772,0.195792 0.511457,0.129196 1.001604,0.319661 1.471771,0.571394 z"
     style="fill:#3c3c4c;fill-rule:nonzero;stroke-width:1.33192003;fill-opacity:1"
     id="path4685"
     inkscape:connector-curvature="0" /><path
     d="M 73.182664,19.797416 V 27.1949 H 70.71728 v -7.397484 h -2.02585 v -2.087118 h 6.517084 v 2.087118 z"
     style="fill:#3c3c4c;fill-rule:nonzero;stroke-width:1.33192003;fill-opacity:1"
     id="path4687"
     inkscape:connector-curvature="0" /><path
     d="m 81.019681,23.671972 -1.106825,-3.156651 -1.106826,3.156651 z m 0.653973,1.875343 H 78.152058 L 77.585992,27.1949 h -2.62921 l 3.609503,-9.484602 h 2.693142 L 84.86893,27.1949 h -2.62921 z"
     style="fill:#3c3c4c;fill-rule:nonzero;stroke-width:1.33192003;fill-opacity:1"
     id="path4689"
     inkscape:connector-curvature="0" /><path
     d="m 88.417165,25.282263 h 0.54076 c 0.620674,0 1.064204,-0.07858 1.333252,-0.238414 0.267715,-0.15983 0.402239,-0.415559 0.402239,-0.767186 0,-0.352959 -0.134524,-0.608687 -0.402239,-0.767186 -0.269048,-0.15983 -0.712578,-0.239745 -1.333252,-0.239745 h -0.54076 z m 0,-3.849249 h 0.452853 c 0.771182,0 1.157438,-0.306342 1.157438,-0.917693 0,-0.612683 -0.386256,-0.919025 -1.157438,-0.919025 h -0.452853 z m -2.466716,-3.722716 h 3.673436 c 0.872407,0 1.535703,0.209111 1.988556,0.628666 0.452853,0.419555 0.679279,1.022914 0.679279,1.811411 0,0.478159 -0.08657,0.87374 -0.258392,1.188073 -0.171818,0.315665 -0.434206,0.580717 -0.785833,0.799152 0.351627,0.06793 0.651309,0.170486 0.899046,0.309005 0.247737,0.137188 0.448857,0.307674 0.60336,0.508794 0.155835,0.20112 0.266384,0.427546 0.334312,0.679279 0.0666,0.251733 0.09989,0.519449 0.09989,0.805811 0,0.44353 -0.07725,0.837778 -0.231754,1.181413 -0.155835,0.344968 -0.37427,0.633994 -0.655305,0.868412 -0.281035,0.234418 -0.622007,0.411564 -1.024246,0.528773 -0.403572,0.117209 -0.856425,0.175813 -1.358559,0.175813 h -3.963794 z"
     style="fill:#3c3c4c;fill-rule:nonzero;stroke-width:1.33192003;fill-opacity:1"
     id="path4691"
     inkscape:connector-curvature="0" /><rect
     x="94.655876"
     y="17.710299"
     width="2.4653838"
     height="9.484602"
     style="fill:#3c3c4c;fill-rule:nonzero;stroke-width:1.33192003;fill-opacity:1"
     id="rect4693" /><path
     d="m 101.5752,17.710298 v 7.396151 h 2.95687 V 27.1949 h -5.422251 v -9.484602 z"
     style="fill:#3c3c4c;fill-rule:nonzero;stroke-width:1.33192003;fill-opacity:1"
     id="path4695"
     inkscape:connector-curvature="0" /><path
     d="m 111.19832,19.797416 h -2.93022 v 1.584985 h 2.76773 v 2.088451 h -2.76773 v 1.635597 h 2.93022 V 27.1949 h -5.3956 v -9.484602 h 5.3956 z"
     style="fill:#3c3c4c;fill-rule:nonzero;stroke-width:1.33192003;fill-opacity:1"
     id="path4697"
     inkscape:connector-curvature="0" /></g>
  
  
  
  <g
   id="g11225"
   style="fill:#3c3c4c"><path
     inkscape:connector-curvature="0"
     style="fill:#3c3c4c;fill-rule:nonzero;stroke-width:0.0956609;fill-opacity:1"
     d="m 62.951909,363.49974 h 2.67353 l 2.489671,8.31724 2.57433,-8.31724 h 2.659947 l -3.460437,10.39738 c -0.323334,0.95862 -0.902656,1.4375 -1.738445,1.4375 -0.846982,0 -1.43214,-0.48395 -1.7549,-1.45223 z"
     id="path42" /><path
     inkscape:connector-curvature="0"
     style="fill:#3c3c4c;fill-rule:nonzero;stroke-width:0.0956609;fill-opacity:1"
     d="m 73.549701,372.29241 v -8.79267 h 2.507368 v 8.70906 c 0.04439,0.31215 0.334335,0.46807 0.869271,0.46807 h 1.70506 c 0.512455,0 0.796664,-0.14464 0.85253,-0.43458 l 0.01674,-0.0836 v -8.65894 h 2.507368 v 8.77593 c 0,0.76892 -0.08351,1.31505 -0.250727,1.63819 -0.44578,0.85827 -1.231443,1.28712 -2.356989,1.28712 h -3.242904 c -1.159219,0 -1.950335,-0.44013 -2.37373,-1.3206 -0.156119,-0.32304 -0.233987,-0.85243 -0.233987,-1.58797 z"
     id="path44" /><path
     inkscape:connector-curvature="0"
     style="fill:#3c3c4c;fill-rule:nonzero;stroke-width:0.0956609;fill-opacity:1"
     d="m 83.161422,372.34263 v -8.84279 h 2.507463 v 8.64219 c 0,0.35682 0.211506,0.53494 0.635189,0.53494 h 4.46325 l -0.01674,2.5242 h -4.663851 c -0.16712,0 -0.312142,-0.006 -0.434588,-0.0167 -0.902751,-0.0778 -1.543679,-0.34265 -1.922401,-0.79398 -0.379008,-0.45152 -0.568321,-1.13397 -0.568321,-2.04782 z"
     id="path46" /><path
     inkscape:connector-curvature="0"
     style="fill:#3c3c4c;fill-rule:nonzero;stroke-width:0.0956609;fill-opacity:1"
     d="m 90.850645,366.02385 v -2.52411 h 7.522295 v 2.52411 h -2.524109 v 9.17723 h -2.507463 v -9.17723 z"
     id="path48" /></g>
  <path
   id="path4"
   d="m 59.383485,369.41724 c 0,-4.50925 -3.655481,-8.1647 -8.164802,-8.1647 -4.50914,0 -8.164658,3.65545 -8.164658,8.1647 0,4.50921 3.655482,8.16469 8.164658,8.16469 4.509321,0 8.164802,-3.65548 8.164802,-8.16469 z"
   style="fill:#757575;fill-rule:nonzero;stroke:#414c55;stroke-width:0.611;stroke-miterlimit:10;stroke-dasharray:none;stroke-opacity:1"
   inkscape:connector-curvature="0" />
  <path
   inkscape:connector-curvature="0"
   style="fill:#2b2b2b;fill-rule:nonzero;stroke-width:0.0359254"
   d="m 49.320601,374.39363 0.552927,-0.89027 -1.063176,-2.39314 -2.216166,-2.28424 0.459414,3.10115 0.597404,1.2801 0.832714,1.26335 z"
   id="polygon6" />
  <path
   inkscape:connector-curvature="0"
   style="fill:#262626;fill-rule:nonzero;stroke-width:0.0359254"
   d="m 53.04822,374.40099 -0.552964,-0.89034 1.063284,-2.39306 2.216059,-2.28421 -0.459378,3.10112 -0.59744,1.28005 -0.832571,1.26343 z"
   id="polygon8" />
  <path
   inkscape:connector-curvature="0"
   style="fill:#424242;fill-rule:nonzero;stroke-width:0.0359254"
   d="m 48.636078,363.35896 2.58433,-0.66042 v 13.44771 l -1.349646,-2.65126 -1.06041,-2.38477 -1.022832,-0.58109 -2.05152,-2.92055 -0.05741,-0.77527 1.148571,-2.0674 z"
   id="polygon12" />
  <path
   inkscape:connector-curvature="0"
   style="fill:#333333;fill-rule:nonzero;stroke-width:0.0359254"
   d="m 53.801396,363.36377 -2.584186,-0.66038 v 13.44778 l 1.349502,-2.65133 1.060446,-2.38469 1.022904,-0.5812 2.051376,-2.92056 0.05744,-0.77523 -1.148499,-2.0674 z"
   id="polygon14" />
  <path
   inkscape:connector-curvature="0"
   style="fill:#4c4c4c;fill-rule:nonzero;stroke-width:0.0359254"
   d="m 49.49606,369.23704 1.722982,-1.68444 v 1.22969 l -1.722982,1.71821 v -1.26346"
   id="polyline16" />
  <path
   inkscape:connector-curvature="0"
   style="fill:#5b5b5b;fill-rule:nonzero;stroke-width:0.0359254"
   d="m 51.2203,368.78089 -1.722875,1.71821 0.376103,3.00426 1.34688,2.64289 z"
   id="polygon18" />
  <path
   inkscape:connector-curvature="0"
   style="fill:#333333;fill-rule:nonzero;stroke-width:0.0359254"
   d="m 51.220408,376.14625 -1.34688,-2.64289 1.346664,-0.63487 z"
   id="polygon20" />
  <path
   inkscape:connector-curvature="0"
   style="fill:#ffffff;fill-rule:nonzero;stroke-width:0.0359254"
   d="m 49.497425,370.4991 v -1.26346 l -1.248982,-1.57921 -1.477217,-1.19017 -0.0015,0.93169 0.775342,1.82328 z"
   id="polygon22" />
  <path
   inkscape:connector-curvature="0"
   style="fill:#2d2d2d;fill-rule:nonzero;stroke-width:0.0359254"
   d="m 52.942384,369.23772 -1.722874,-1.68443 v 1.22969 l 1.722874,1.71817 v -1.26343"
   id="polyline24" />
  <path
   inkscape:connector-curvature="0"
   style="fill:#353535;fill-rule:nonzero;stroke-width:0.0359254"
   d="m 51.217534,368.78089 1.722766,1.71821 -0.376103,3.00426 -1.346771,2.64289 z"
   id="polygon26" />
  <path
   inkscape:connector-curvature="0"
   style="fill:#191919;fill-rule:nonzero;stroke-width:0.0359254"
   d="m 51.217426,376.14625 1.346771,-2.64289 -1.346556,-0.63487 z"
   id="polygon28" />
  <path
   inkscape:connector-curvature="0"
   style="fill:#ffffff;fill-rule:nonzero;stroke-width:0.0359254"
   d="m 52.9403,370.4991 v -1.26343 l 1.248947,-1.57921 1.477324,-1.1902 0.0015,0.93172 -0.775198,1.82332 z"
   id="polygon30" />
  <path
   inkscape:connector-curvature="0"
   style="fill:#383838;fill-rule:nonzero;stroke-width:0.0359254"
   d="m 48.65228,363.33776 2.565972,4.2151 -0.0055,-4.86955"
   id="polyline32" />
  <path
   inkscape:connector-curvature="0"
   style="fill:#2d2d2d;fill-rule:nonzero;stroke-width:0.0359254"
   d="m 53.785014,363.3382 -2.565972,4.21509 0.0055,-4.86951"
   id="polyline34" />
  <path
   inkscape:connector-curvature="0"
   style="fill:#333333;fill-rule:nonzero;stroke-width:0.0359254"
   d="m 48.810927,371.11051 0.68772,-0.61008 0.375349,3.00602 z"
   id="polygon36" />
  <path
   inkscape:connector-curvature="0"
   style="fill:#1c1c1c;fill-rule:nonzero;stroke-width:0.0359254"
   d="m 53.630679,371.12528 -0.687756,-0.61009 -0.375349,3.00606 z"
   id="polygon38" />
  <path
   inkscape:connector-curvature="0"
   id="path4726"
   style="fill:#ffffff;fill-rule:nonzero;stroke-width:4.00165987"
   d="m 53.564293,331.8263 h 0.344143 c 0.396164,0 0.67628,-0.052 0.848352,-0.15207 0.172071,-0.10004 0.256106,-0.26411 0.256106,-0.4882 0,-0.22409 -0.08404,-0.38816 -0.256106,-0.4882 -0.172072,-0.10004 -0.452188,-0.15207 -0.848352,-0.15207 h -0.344143 z m 0,-2.44902 h 0.28812 c 0.492204,0 0.736305,-0.19608 0.736305,-0.58424 0,-0.38816 -0.244101,-0.58425 -0.736305,-0.58425 h -0.28812 z m -1.568651,-2.36898 h 2.33697 c 0.55623,0 0.976405,0.13205 1.264524,0.40016 0.28812,0.26811 0.43218,0.65227 0.43218,1.15248 0,0.30413 -0.05602,0.55623 -0.164068,0.75631 -0.108045,0.20009 -0.276115,0.36816 -0.500208,0.50822 0.224093,0.044 0.416173,0.10804 0.572237,0.19608 0.156065,0.088 0.284118,0.19608 0.38416,0.32413 0.100041,0.12805 0.168069,0.27211 0.212088,0.43218 0.04402,0.16007 0.06403,0.33214 0.06403,0.51221 0,0.28412 -0.04802,0.53222 -0.148061,0.75232 -0.100042,0.22009 -0.236098,0.40416 -0.416173,0.55222 -0.180074,0.14807 -0.396164,0.26011 -0.65227,0.33614 -0.256107,0.076 -0.544226,0.11205 -0.864359,0.11205 h -2.521046 z" />
  <path
   inkscape:connector-curvature="0"
   id="path4728"
   style="fill:#ffffff;fill-rule:nonzero;stroke-width:4.00165987"
   d="m 59.10259,329.77745 h 0.520216 c 0.576239,0 0.864359,-0.25211 0.864359,-0.75232 0,-0.5002 -0.28812,-0.75231 -0.864359,-0.75231 H 59.10259 Z m 0,3.26535 h -1.56865 v -6.0345 h 2.497036 c 0.67628,0 1.196496,0.17607 1.556645,0.52822 0.36015,0.35214 0.540224,0.84835 0.540224,1.48861 0,0.64027 -0.180074,1.13647 -0.540224,1.48862 -0.360149,0.35215 -0.880365,0.52822 -1.556645,0.52822 H 59.10259 Z" />
  <path
   inkscape:connector-curvature="0"
   id="path4733"
   style="fill:none;stroke:#cccccc;stroke-width:1.5;stroke-miterlimit:4;stroke-dasharray:none;stroke-linecap:round"
   d="m 74.643115,272.16881 c 5.717818,-9.90596 3.479734,-22.61049 -5.28577,-29.96308 -8.761613,-7.35259 -21.660761,-7.35259 -30.422373,0 -8.761613,7.35259 -11.003589,20.05712 -5.281879,29.96308" />
  <path
   id="path9630"
   d="m 73.868544,274.65989 0.0506,9.21702"
   style="fill:#cccccc;fill-rule:nonzero;stroke:#cccccc;stroke-width:1.5;stroke-miterlimit:4;stroke-dasharray:none;stroke-linecap:round"
   inkscape:connector-curvature="0" />
  <path
   id="path9630-1"
   d="m 78.500404,279.20223 -9.213121,0.0428"
   style="fill:#cccccc;fill-rule:nonzero;stroke:#cccccc;stroke-width:1.5;stroke-miterlimit:4;stroke-dasharray:none;stroke-linecap:round"
   inkscape:connector-curvature="0" />
  <path
   id="path9630-1-6"
   d="m 40.238899,278.94145 -9.213122,0.0428"
   style="fill:#cccccc;fill-rule:nonzero;stroke:#cccccc;stroke-width:1.5;stroke-miterlimit:4;stroke-dasharray:none;stroke-linecap:round"
   inkscape:connector-curvature="0" />
  <path
   id="path9948"
   d="M 54.146158,260.34005 54.09945,233.99293"
   style="fill:none;stroke:#cccccc;stroke-width:1.5;stroke-miterlimit:4;stroke-dasharray:none;stroke-linecap:round"
   inkscape:connector-curvature="0" />
  <path
   inkscape:connector-curvature="0"
   id="path4742"
   style="fill:#ffffff;fill-rule:nonzero;stroke-width:4.00165987"
   d="m 32.404537,288.58694 c -0.172072,-0.14006 -0.340141,-0.2401 -0.512213,-0.30813 -0.172071,-0.068 -0.336139,-0.10004 -0.496206,-0.10004 -0.204084,0 -0.368152,0.048 -0.496205,0.14406 -0.128054,0.096 -0.19208,0.22009 -0.19208,0.37615 0,0.10805 0.03201,0.19609 0.09604,0.26411 0.06403,0.068 0.148061,0.12806 0.252104,0.18008 0.104044,0.052 0.220092,0.096 0.352146,0.13205 0.132055,0.036 0.260108,0.076 0.388161,0.12005 0.512213,0.17207 0.888369,0.40017 1.124467,0.68429 0.236098,0.28411 0.356148,0.65627 0.356148,1.11646 0,0.30813 -0.05202,0.58824 -0.156065,0.84035 -0.104043,0.2521 -0.256106,0.46419 -0.456189,0.64427 -0.200083,0.18007 -0.444185,0.31613 -0.736306,0.41617 -0.292121,0.10004 -0.620257,0.14806 -0.98841,0.14806 -0.764317,0 -1.468609,-0.22809 -2.12088,-0.68028 l 0.672279,-1.26453 c 0.236098,0.20809 0.468194,0.36415 0.696289,0.4642 0.228095,0.10004 0.456189,0.15206 0.680282,0.15206 0.256107,0 0.448186,-0.06 0.572238,-0.17607 0.124051,-0.11605 0.188078,-0.25211 0.188078,-0.40017 0,-0.092 -0.01601,-0.16807 -0.04802,-0.2361 -0.03201,-0.068 -0.08404,-0.12805 -0.160067,-0.18407 -0.07603,-0.056 -0.172071,-0.10805 -0.292121,-0.15607 -0.12005,-0.048 -0.264109,-0.10004 -0.436181,-0.16007 -0.204084,-0.064 -0.400166,-0.13605 -0.596247,-0.21208 -0.196081,-0.076 -0.368153,-0.18008 -0.520216,-0.30813 -0.152063,-0.12805 -0.276114,-0.28812 -0.368153,-0.4842 -0.09204,-0.19608 -0.140058,-0.44019 -0.140058,-0.74031 0,-0.30012 0.04802,-0.56824 0.148062,-0.81234 0.100041,-0.2441 0.236098,-0.45218 0.416172,-0.62426 0.180075,-0.17207 0.396165,-0.30812 0.656273,-0.40416 0.260108,-0.096 0.548227,-0.14406 0.86836,-0.14406 0.300124,0 0.612254,0.04 0.936388,0.12405 0.324135,0.084 0.636264,0.20408 0.936389,0.36415 z" />
  <path
   inkscape:connector-curvature="0"
   id="path4744"
   style="fill:#ffffff;fill-rule:nonzero;stroke-width:4.00165987"
   d="m 37.694731,288.37085 h -1.864773 v 1.00842 h 1.76073 v 1.32855 h -1.76073 v 1.04043 h 1.864773 v 1.32855 h -3.433424 v -6.0345 h 3.433424 z" />
  <path
   inkscape:connector-curvature="0"
   id="path4746"
   style="fill:#ffffff;fill-rule:nonzero;stroke-width:4.00165987"
   d="m 38.551087,293.0768 1.024424,-6.0345 h 1.552645 l 1.208501,3.21733 1.200498,-3.21733 h 1.552644 l 1.024425,6.0345 h -1.560647 l -0.520216,-3.47344 -1.424591,3.47344 h -0.624259 l -1.352561,-3.47344 -0.520216,3.47344 z" />
  <path
   inkscape:connector-curvature="0"
   id="path4748"
   style="fill:#ffffff;fill-rule:nonzero;stroke-width:4.00165987"
   d="m 48.675286,291.8603 h 0.344143 c 0.396164,0 0.676281,-0.052 0.848352,-0.15207 0.172071,-0.10004 0.256106,-0.26411 0.256106,-0.4882 0,-0.22409 -0.08404,-0.38816 -0.256106,-0.4882 -0.172071,-0.10004 -0.452188,-0.15207 -0.848352,-0.15207 h -0.344143 z m 0,-2.44902 h 0.28812 c 0.492204,0 0.736305,-0.19608 0.736305,-0.58424 0,-0.38816 -0.244101,-0.58425 -0.736305,-0.58425 h -0.28812 z m -1.56865,-2.36898 h 2.336969 c 0.556231,0 0.976405,0.13205 1.264525,0.40016 0.288119,0.26811 0.432179,0.65227 0.432179,1.15248 0,0.30413 -0.05602,0.55623 -0.164068,0.75631 -0.108045,0.20009 -0.276115,0.36816 -0.500208,0.50822 0.224093,0.044 0.416173,0.10804 0.572238,0.19608 0.156064,0.088 0.284118,0.19608 0.384159,0.32413 0.100042,0.12805 0.16807,0.27211 0.212088,0.43218 0.04402,0.16007 0.06403,0.33214 0.06403,0.51221 0,0.28412 -0.04802,0.53222 -0.148062,0.75232 -0.100041,0.22009 -0.236098,0.40416 -0.416172,0.55222 -0.180075,0.14807 -0.396165,0.26011 -0.652271,0.33614 -0.256106,0.076 -0.544226,0.11205 -0.864359,0.11205 h -2.521045 z" />
  <path
   inkscape:connector-curvature="0"
   id="path4750"
   style="fill:#ffffff;fill-rule:nonzero;stroke-width:4.00165987"
   d="m 54.213584,287.0423 v 4.70595 h 1.88078 v 1.32855 h -3.449431 v -6.0345 z" />
  <path
   inkscape:connector-curvature="0"
   id="path4752"
   style="fill:#ffffff;fill-rule:nonzero;stroke-width:4.00165987"
   d="m 60.432163,290.83587 -0.704292,-2.00883 -0.704292,2.00883 z m 0.416173,1.1925 h -2.24093 l -0.360149,1.04843 h -1.672694 l 2.296953,-6.0345 h 1.71271 l 2.296953,6.0345 h -1.672694 z" />
  <path
   inkscape:connector-curvature="0"
   id="path4754"
   style="fill:#ffffff;fill-rule:nonzero;stroke-width:4.00165987"
   d="m 63.569465,293.0768 v -6.0345 h 1.568651 l 2.897201,3.68953 v -3.68953 h 1.560648 v 6.0345 h -1.560648 l -2.897201,-3.68953 v 3.68953 z" />
  <path
   inkscape:connector-curvature="0"
   id="path4756"
   style="fill:#ffffff;fill-rule:nonzero;stroke-width:4.00165987"
   d="m 75.286325,289.05913 c -0.364151,-0.44418 -0.812337,-0.66427 -1.344557,-0.66427 -0.236098,0 -0.452188,0.044 -0.652271,0.12805 -0.200083,0.084 -0.372154,0.20008 -0.516214,0.34815 -0.14406,0.14806 -0.256106,0.32013 -0.340141,0.52421 -0.08404,0.20409 -0.124052,0.42018 -0.124052,0.65628 0,0.24009 0.04002,0.46019 0.124052,0.66427 0.08404,0.20409 0.196081,0.38016 0.344143,0.52822 0.148061,0.14806 0.320132,0.26811 0.516214,0.35215 0.196081,0.084 0.412171,0.12805 0.640265,0.12805 0.500208,0 0.952395,-0.21209 1.352561,-0.64027 v 1.85677 l -0.160066,0.056 c -0.2401,0.084 -0.464193,0.14806 -0.672279,0.18807 -0.208086,0.04 -0.412171,0.06 -0.616256,0.06 -0.416172,0 -0.816338,-0.08 -1.196496,-0.2361 -0.380158,-0.15606 -0.716297,-0.38016 -1.008418,-0.66427 -0.292121,-0.28412 -0.524218,-0.62426 -0.700291,-1.01643 -0.176073,-0.39216 -0.264109,-0.82034 -0.264109,-1.28453 0,-0.46419 0.08804,-0.88837 0.260108,-1.27653 0.172071,-0.38816 0.404167,-0.7203 0.696288,-1.00041 0.292122,-0.28012 0.628261,-0.50021 1.01242,-0.65628 0.38416,-0.15606 0.788327,-0.23609 1.208502,-0.23609 0.240099,0 0.476197,0.024 0.708294,0.076 0.232096,0.052 0.476197,0.12805 0.732303,0.2361 z" />
  <path
   inkscape:connector-curvature="0"
   id="path4758"
   style="fill:#ffffff;fill-rule:nonzero;stroke-width:4.00165987"
   d="m 79.712161,288.37085 h -1.864773 v 1.00842 h 1.76073 v 1.32855 h -1.76073 v 1.04043 h 1.864773 v 1.32855 h -3.433424 v -6.0345 h 3.433424 z" />
  <path
   d="m 126.90355,254.66217 c 2.73714,-4.74196 1.66469,-10.82449 -2.53305,-14.34595 -4.19374,-3.52146 -10.3723,-3.52146 -14.56604,0 -4.19774,3.52146 -5.27019,9.60399 -2.53305,14.34595 l 9.81607,-5.66635 z"
   style="fill:none;stroke:#cccccc;stroke-width:1;stroke-miterlimit:4;stroke-dasharray:none;stroke-linecap:round"
   id="path4763"
   inkscape:connector-curvature="0" />
  <path
   d="m 126.5314,255.85867 0.024,4.40983"
   style="fill:#cccccc;fill-rule:nonzero;stroke:#cccccc;stroke-width:1;stroke-miterlimit:4;stroke-dasharray:none;stroke-linecap:round"
   id="path4766"
   inkscape:connector-curvature="0" />
  <path
   d="m 128.74832,258.03157 -4.40983,0.02"
   style="fill:#cccccc;fill-rule:nonzero;stroke:#cccccc;stroke-width:1;stroke-miterlimit:4;stroke-dasharray:none;stroke-linecap:round"
   id="path4769"
   inkscape:connector-curvature="0" />
  <path
   d="m 126.5314,255.85867 0.024,4.40983"
   style="fill:#cccccc;fill-rule:nonzero;stroke:#cccccc;stroke-width:1;stroke-miterlimit:4;stroke-dasharray:none;stroke-linecap:round"
   id="path4772"
   inkscape:connector-curvature="0" />
  <path
   d="m 128.74832,258.03157 -4.40983,0.02"
   style="fill:#cccccc;fill-rule:nonzero;stroke:#cccccc;stroke-width:1;stroke-miterlimit:4;stroke-dasharray:none;stroke-linecap:round"
   id="path4775"
   inkscape:connector-curvature="0" />
  <path
   d="m 110.42872,257.90752 -4.41383,0.02"
   style="fill:#cccccc;fill-rule:nonzero;stroke:#cccccc;stroke-width:1;stroke-miterlimit:4;stroke-dasharray:none;stroke-linecap:round"
   id="path4778"
   inkscape:connector-curvature="0" />
  <path
   d="m 117.08748,248.99982 -0.024,-13.30952"
   style="fill:none;stroke:#cccccc;stroke-width:1;stroke-miterlimit:4;stroke-dasharray:none;stroke-linecap:round"
   id="path4781"
   inkscape:connector-curvature="0" />
  <path
   inkscape:connector-curvature="0"
   id="path4784"
   style="fill:#ffffff;fill-rule:nonzero;stroke-width:4.00165987"
   d="m 125.49694,328.66894 c -0.17207,-0.14006 -0.34014,-0.2401 -0.51222,-0.30813 -0.17207,-0.068 -0.33614,-0.10004 -0.4962,-0.10004 -0.20409,0 -0.36815,0.048 -0.49621,0.14406 -0.12805,0.096 -0.19208,0.22009 -0.19208,0.37615 0,0.10805 0.032,0.19609 0.096,0.26411 0.064,0.068 0.14806,0.12806 0.25211,0.18008 0.10404,0.052 0.22009,0.096 0.35214,0.13205 0.13206,0.036 0.26011,0.076 0.38816,0.12005 0.51222,0.17207 0.88837,0.40017 1.12447,0.68429 0.2361,0.28411 0.35615,0.65627 0.35615,1.11646 0,0.30813 -0.052,0.58824 -0.15607,0.84035 -0.10404,0.2521 -0.2561,0.46419 -0.45619,0.64427 -0.20008,0.18007 -0.44418,0.31613 -0.7363,0.41617 -0.29212,0.10004 -0.62026,0.14806 -0.98841,0.14806 -0.76432,0 -1.46861,-0.22809 -2.12088,-0.68028 l 0.67228,-1.26453 c 0.2361,0.20809 0.46819,0.36415 0.69629,0.4642 0.22809,0.10004 0.45619,0.15206 0.68028,0.15206 0.25611,0 0.44819,-0.06 0.57224,-0.17607 0.12405,-0.11605 0.18807,-0.25211 0.18807,-0.40017 0,-0.092 -0.016,-0.16807 -0.048,-0.2361 -0.032,-0.068 -0.084,-0.12805 -0.16006,-0.18407 -0.076,-0.056 -0.17207,-0.10805 -0.29212,-0.15607 -0.12005,-0.048 -0.26411,-0.10004 -0.43618,-0.16007 -0.20409,-0.064 -0.40017,-0.13605 -0.59625,-0.21208 -0.19608,-0.076 -0.36815,-0.18008 -0.52022,-0.30813 -0.15206,-0.12805 -0.27611,-0.28812 -0.36815,-0.4842 -0.092,-0.19608 -0.14006,-0.44019 -0.14006,-0.74031 0,-0.30012 0.048,-0.56824 0.14806,-0.81234 0.10005,-0.2441 0.2361,-0.45218 0.41618,-0.62426 0.18007,-0.17207 0.39616,-0.30812 0.65627,-0.40416 0.26011,-0.096 0.54823,-0.14406 0.86836,-0.14406 0.30012,0 0.61225,0.04 0.93639,0.12405 0.32413,0.084 0.63626,0.20408 0.93639,0.36415 z" />
  <path
   inkscape:connector-curvature="0"
   id="path4786"
   style="fill:#ffffff;fill-rule:nonzero;stroke-width:4.00165987"
   d="m 130.78713,328.45285 h -1.86477 v 1.00842 h 1.76073 v 1.32855 h -1.76073 v 1.04043 h 1.86477 v 1.32855 h -3.43342 v -6.0345 h 3.43342 z" />
  <path
   inkscape:connector-curvature="0"
   id="path4788"
   style="fill:#ffffff;fill-rule:nonzero;stroke-width:4.00165987"
   d="m 131.64349,333.1588 1.02442,-6.0345 h 1.55265 l 1.2085,3.21733 1.20049,-3.21733 h 1.55265 l 1.02442,6.0345 h -1.56064 l -0.52022,-3.47344 -1.42459,3.47344 h -0.62426 l -1.35256,-3.47344 -0.52022,3.47344 z" />
  <path
   d="m 126.90355,69.662173 c 2.73714,-4.741967 1.66469,-10.824491 -2.53305,-14.345951 -4.19374,-3.521461 -10.3723,-3.521461 -14.56604,0 -4.19774,3.52146 -5.27019,9.603984 -2.53305,14.345951 l 9.81607,-5.666351 z"
   style="fill:none;stroke:#cccccc;stroke-width:1;stroke-miterlimit:4;stroke-dasharray:none;stroke-linecap:round"
   id="path4793"
   inkscape:connector-curvature="0" />
  <path
   d="m 126.5314,70.858669 0.024,4.409829"
   style="fill:#cccccc;fill-rule:nonzero;stroke:#cccccc;stroke-width:1;stroke-miterlimit:4;stroke-dasharray:none;stroke-linecap:round"
   id="path4796"
   inkscape:connector-curvature="0" />
  <path
   d="m 128.74832,73.03157 -4.40983,0.02001"
   style="fill:#cccccc;fill-rule:nonzero;stroke:#cccccc;stroke-width:1;stroke-miterlimit:4;stroke-dasharray:none;stroke-linecap:round"
   id="path4799"
   inkscape:connector-curvature="0" />
  <path
   d="m 110.42872,72.907519 -4.41383,0.02001"
   style="fill:#cccccc;fill-rule:nonzero;stroke:#cccccc;stroke-width:1;stroke-miterlimit:4;stroke-dasharray:none;stroke-linecap:round"
   id="path4802"
   inkscape:connector-curvature="0" />
  <path
   d="m 117.08748,63.999824 -0.024,-13.309521"
   style="fill:none;stroke:#cccccc;stroke-width:1;stroke-miterlimit:4;stroke-dasharray:none;stroke-linecap:round"
   id="path4805"
   inkscape:connector-curvature="0" />
  <path
   d="m 126.90355,193.66217 c 2.73714,-4.74196 1.66469,-10.82449 -2.53305,-14.34595 -4.19374,-3.52146 -10.3723,-3.52146 -14.56604,0 -4.19774,3.52146 -5.27019,9.60399 -2.53305,14.34595 l 9.81607,-5.66635 z"
   style="fill:none;stroke:#cccccc;stroke-width:1;stroke-miterlimit:4;stroke-dasharray:none;stroke-linecap:round"
   id="path4808"
   inkscape:connector-curvature="0" />
  <path
   d="m 126.5314,194.85867 0.024,4.40983"
   style="fill:#cccccc;fill-rule:nonzero;stroke:#cccccc;stroke-width:1;stroke-miterlimit:4;stroke-dasharray:none;stroke-linecap:round"
   id="path4811"
   inkscape:connector-curvature="0" />
  <path
   d="m 128.74832,197.03157 -4.40983,0.02"
   style="fill:#cccccc;fill-rule:nonzero;stroke:#cccccc;stroke-width:1;stroke-miterlimit:4;stroke-dasharray:none;stroke-linecap:round"
   id="path4814"
   inkscape:connector-curvature="0" />
  <path
   d="m 110.42872,196.90752 -4.41383,0.02"
   style="fill:#cccccc;fill-rule:nonzero;stroke:#cccccc;stroke-width:1;stroke-miterlimit:4;stroke-dasharray:none;stroke-linecap:round"
   id="path4817"
   inkscape:connector-curvature="0" />
  <path
   d="m 117.08748,187.99982 -0.024,-13.30952"
   style="fill:none;stroke:#cccccc;stroke-width:1;stroke-miterlimit:4;stroke-dasharray:none;stroke-linecap:round"
   id="path4820"
   inkscape:connector-curvature="0" />
  <path
   inkscape:connector-curvature="0"
   id="path4823"
   style="fill:#ffffff;fill-rule:nonzero;stroke-width:4.00165987"
   d="m 42.659813,230.74825 h 0.360149 c 0.272113,0 0.516215,-0.044 0.728303,-0.12805 0.212087,-0.084 0.392162,-0.20409 0.540224,-0.35215 0.148061,-0.14806 0.260108,-0.32814 0.336139,-0.53222 0.07603,-0.20409 0.116048,-0.43218 0.116048,-0.67628 0,-0.2401 -0.04002,-0.46419 -0.12005,-0.67228 -0.08003,-0.20809 -0.192079,-0.38816 -0.340141,-0.53622 -0.148061,-0.14806 -0.328136,-0.26811 -0.540224,-0.35215 -0.212088,-0.084 -0.452187,-0.12805 -0.720299,-0.12805 h -0.360149 z m -1.568651,-4.70595 h 2.320963 c 0.412171,0 0.79633,0.084 1.15648,0.2481 0.360149,0.16407 0.67628,0.38416 0.944392,0.66027 0.268111,0.27612 0.480199,0.59625 0.636264,0.9604 0.156064,0.36415 0.232096,0.74831 0.232096,1.14848 0,0.39616 -0.07603,0.77632 -0.228095,1.14047 -0.152063,0.36415 -0.364151,0.68829 -0.632262,0.9644 -0.268111,0.27612 -0.584242,0.50021 -0.944392,0.66428 -0.360149,0.16407 -0.74831,0.2481 -1.164483,0.2481 h -2.320963 z" />
  <path
   inkscape:connector-curvature="0"
   id="path4825"
   style="fill:#ffffff;fill-rule:nonzero;stroke-width:4.00165987"
   d="m 48.950423,228.73942 h 0.296122 c 0.308128,0 0.548228,-0.064 0.712296,-0.19208 0.164068,-0.12806 0.248103,-0.31213 0.248103,-0.55223 0,-0.2401 -0.08404,-0.42418 -0.248103,-0.55223 -0.164068,-0.12806 -0.404168,-0.19208 -0.712296,-0.19208 h -0.296122 z m 3.44943,3.33738 h -1.95281 l -1.49662,-2.32096 v 2.32096 h -1.568651 v -6.0345 h 2.441012 c 0.33614,0 0.628261,0.048 0.880366,0.14806 0.252104,0.10004 0.456189,0.23209 0.620257,0.40417 0.164068,0.17207 0.284118,0.36815 0.368153,0.59224 0.08403,0.22409 0.124051,0.46419 0.124051,0.7203 0,0.46019 -0.112046,0.83235 -0.332138,1.11646 -0.220091,0.28412 -0.548227,0.4802 -0.980406,0.58024 z" />
  <rect
   id="rect4827"
   style="fill:#ffffff;fill-rule:nonzero;stroke-width:4.00165987"
   height="6.0345035"
   width="1.5686507"
   y="226.0423"
   x="53.056126" />
  <path
   inkscape:connector-curvature="0"
   id="path4829"
   style="fill:#ffffff;fill-rule:nonzero;stroke-width:4.00165987"
   d="m 56.961746,226.0423 1.456604,3.67352 1.464608,-3.67352 h 1.704707 l -2.545056,6.0345 h -1.248518 l -2.537052,-6.0345 z" />
  <path
   inkscape:connector-curvature="0"
   id="path4831"
   style="fill:#ffffff;fill-rule:nonzero;stroke-width:4.00165987"
   d="m 65.653351,227.37085 h -1.864773 v 1.00842 h 1.76073 v 1.32855 h -1.76073 v 1.04043 h 1.864773 v 1.32855 h -3.433424 v -6.0345 h 3.433424 z" />
  <path
   inkscape:connector-curvature="0"
   id="path4836"
   style="fill:none;stroke:#cccccc;stroke-width:1.5;stroke-miterlimit:4;stroke-dasharray:none;stroke-linecap:round"
   d="m 75.382657,87.241372 c 5.878438,-10.184225 3.577484,-23.245643 -5.430253,-30.804779 -9.007736,-7.555134 -22.273239,-7.555134 -31.280976,0 -9.007737,7.559136 -11.308691,20.620554 -5.430253,30.804779" />
  <circle
   id="circle4839"
   style="fill:none;stroke:#cccccc;stroke-width:1;stroke-miterlimit:4;stroke-dasharray:none"
   r="3.7055371"
   cy="96.509247"
   cx="36.172581" />
  <circle
   id="circle4842"
   style="fill:#cccccc;stroke:#cccccc;stroke-width:1;stroke-miterlimit:4;stroke-dasharray:none"
   r="3.7055371"
   cy="95.997009"
   cx="73.952255" />
  <path
   inkscape:connector-curvature="0"
   id="path4847"
   style="fill:#ffffff;fill-rule:nonzero;stroke-width:4.00165987"
   d="m 42.436965,105.05913 c -0.364151,-0.44418 -0.812337,-0.66427 -1.344558,-0.66427 -0.236098,0 -0.452187,0.044 -0.65227,0.12805 -0.200083,0.084 -0.372155,0.20008 -0.516214,0.34815 -0.14406,0.14806 -0.256107,0.32013 -0.340142,0.52421 -0.08403,0.20409 -0.124051,0.42018 -0.124051,0.65628 0,0.24009 0.04002,0.46019 0.124051,0.66427 0.08404,0.20409 0.196082,0.38016 0.344143,0.52822 0.148062,0.14806 0.320133,0.26811 0.516214,0.35215 0.196082,0.084 0.412171,0.12805 0.640266,0.12805 0.500207,0 0.952395,-0.21209 1.352561,-0.64027 v 1.85677 l -0.160066,0.056 c -0.2401,0.084 -0.464193,0.14806 -0.672279,0.18807 -0.208087,0.04 -0.412171,0.06 -0.616256,0.06 -0.416173,0 -0.816339,-0.08 -1.196496,-0.2361 -0.380158,-0.15606 -0.716297,-0.38016 -1.008419,-0.66427 -0.292121,-0.28412 -0.524217,-0.62426 -0.70029,-1.01643 -0.176073,-0.39216 -0.26411,-0.82034 -0.26411,-1.28453 0,-0.46419 0.08804,-0.88837 0.260108,-1.27653 0.172072,-0.38816 0.404168,-0.7203 0.696289,-1.00041 0.292121,-0.28012 0.628261,-0.50021 1.01242,-0.65628 0.384159,-0.15606 0.788327,-0.23609 1.208501,-0.23609 0.2401,0 0.476198,0.024 0.708294,0.076 0.232097,0.052 0.476198,0.12805 0.732304,0.2361 z" />
  <path
   inkscape:connector-curvature="0"
   id="path4849"
   style="fill:#ffffff;fill-rule:nonzero;stroke-width:4.00165987"
   d="m 44.998027,103.0423 v 3.28136 c 0,0.17607 0.008,0.35615 0.02001,0.54022 0.012,0.18408 0.05202,0.35215 0.12005,0.50021 0.06803,0.14806 0.172071,0.27211 0.316131,0.36415 0.144059,0.092 0.348144,0.14006 0.608252,0.14006 0.260108,0 0.464193,-0.048 0.604251,-0.14006 0.140058,-0.092 0.248103,-0.21609 0.316131,-0.36415 0.06803,-0.14806 0.112046,-0.31613 0.124051,-0.50021 0.01201,-0.18407 0.02001,-0.36415 0.02001,-0.54022 v -3.28136 h 1.560647 v 3.49745 c 0,0.94039 -0.21609,1.62467 -0.644267,2.05685 -0.428178,0.43218 -1.088452,0.64827 -1.980822,0.64827 -0.89237,0 -1.552644,-0.21609 -1.984823,-0.64827 -0.43218,-0.43218 -0.648269,-1.11646 -0.648269,-2.05685 v -3.49745 z" />
  <path
   inkscape:connector-curvature="0"
   id="path4851"
   style="fill:#ffffff;fill-rule:nonzero;stroke-width:4.00165987"
   d="m 52.241032,104.37085 v 4.70595 h -1.568651 v -4.70595 h -1.288534 v -1.32855 h 4.14572 v 1.32855 z" />
  <path
   inkscape:connector-curvature="0"
   id="path4853"
   style="fill:#ffffff;fill-rule:nonzero;stroke-width:4.00165987"
   d="m 55.5384,106.05955 c 0,0.2401 0.04402,0.46019 0.136056,0.66427 0.09204,0.20409 0.212088,0.38016 0.368153,0.52822 0.156065,0.14806 0.336139,0.26411 0.540224,0.34815 0.204085,0.084 0.424176,0.12405 0.652271,0.12405 0.228094,0 0.448186,-0.04 0.65227,-0.12405 0.204085,-0.084 0.388161,-0.20009 0.544226,-0.34815 0.156065,-0.14806 0.280116,-0.32413 0.372154,-0.52822 0.09204,-0.20408 0.136057,-0.42417 0.136057,-0.66427 0,-0.2401 -0.04402,-0.46019 -0.136057,-0.66428 -0.09204,-0.20408 -0.216089,-0.38015 -0.372154,-0.52822 -0.156065,-0.14806 -0.340141,-0.26411 -0.544226,-0.34814 -0.204084,-0.084 -0.424176,-0.12405 -0.65227,-0.12405 -0.228095,0 -0.448186,0.04 -0.652271,0.12405 -0.204085,0.084 -0.384159,0.20008 -0.540224,0.34814 -0.156065,0.14807 -0.276115,0.32414 -0.368153,0.52822 -0.09204,0.20409 -0.136056,0.42418 -0.136056,0.66428 z m -1.640681,0 c 0,-0.44819 0.08404,-0.86436 0.248103,-1.25252 0.164068,-0.38816 0.396165,-0.7243 0.688286,-1.01242 0.292121,-0.28812 0.644267,-0.51221 1.052436,-0.67628 0.40817,-0.16407 0.856356,-0.2441 1.34856,-0.2441 0.484201,0 0.932386,0.08 1.344557,0.2441 0.412171,0.16407 0.764318,0.38816 1.06044,0.67628 0.296123,0.28812 0.528219,0.62426 0.692288,1.01242 0.164068,0.38816 0.248102,0.80433 0.248102,1.25252 0,0.44818 -0.08403,0.86436 -0.248102,1.25252 -0.164069,0.38816 -0.396165,0.7243 -0.692288,1.01242 -0.296122,0.28812 -0.648269,0.51221 -1.06044,0.67628 -0.412171,0.16407 -0.860356,0.2441 -1.344557,0.2441 -0.492204,0 -0.94039,-0.08 -1.34856,-0.2441 -0.408169,-0.16407 -0.760315,-0.38816 -1.052436,-0.67628 -0.292121,-0.28812 -0.524218,-0.62426 -0.688286,-1.01242 -0.164068,-0.38816 -0.248103,-0.80434 -0.248103,-1.25252 z" />
  <path
   inkscape:connector-curvature="0"
   id="path4855"
   style="fill:#ffffff;fill-rule:nonzero;stroke-width:4.00165987"
   d="m 65.030337,104.37085 h -1.888783 v 1.00842 h 1.720714 v 1.32855 h -1.720714 v 2.36898 h -1.568651 v -6.0345 h 3.457434 z" />
  <path
   inkscape:connector-curvature="0"
   id="path4857"
   style="fill:#ffffff;fill-rule:nonzero;stroke-width:4.00165987"
   d="m 69.42416,104.37085 h -1.888783 v 1.00842 h 1.720713 v 1.32855 h -1.720713 v 2.36898 h -1.568651 v -6.0345 h 3.457434 z" />
</svg>