<svg width="17px" height="16px" version="1.1" xmlns="http://www.w3.org/2000/svg" xmlns:xlink="http://www.w3.org/1999/xlink" xml:space="preserve" xmlns:serif="http://www.serif.com/" style="fill-rule:evenodd;clip-rule:evenodd;stroke-linecap:round;stroke-linejoin:round;stroke-miterlimit:1.5;">
  <defs>
    <linearGradient id="_Linear1" x1="0" y1="0" x2="1" y2="0" gradientUnits="userSpaceOnUse" gradientTransform="matrix(-0.0643149,-14.4915,14.4376,-0.0645553,16.5742,15.2217)">
      <stop offset="0" style="stop-color:black;stop-opacity:1"/>
      <stop offset="1" style="stop-color:rgb(220,220,220);stop-opacity:1"/>
    </linearGradient>
  </defs>
  <path id="path26222" d="M16.527,3.608c0,-1.601 -1.299,-2.899 -2.898,-2.899l-10.257,0c-1.6,0 -2.9,1.298 -2.9,2.899l0,8.786c0,1.601 1.3,2.9 2.9,2.9l10.257,0c1.599,0 2.898,-1.299 2.898,-2.9l0,-8.786Z" style="fill:url(#_Linear1);"/>
  <path id="path26226" d="M15.6,4.812c0,-1.745 -1.417,-3.162 -3.163,-3.162l-7.829,0c-1.745,0 -3.162,1.417 -3.162,3.162l0,6.326c0,1.745 1.417,3.162 3.162,3.162l7.829,0c1.746,0 3.163,-1.417 3.163,-3.162l0,-6.326Z" style="fill:rgb(38,38,38);stroke:rgb(102,102,102);stroke-width:0.85px;"/>
  <path id="path26230" d="M14.907,4.511c0,-1.143 -0.928,-2.069 -2.071,-2.069l-8.626,0c-1.143,0 -2.07,0.926 -2.07,2.069l0,6.932c0,1.143 0.927,2.07 2.07,2.07l8.626,0c1.143,0 2.071,-0.927 2.071,-2.07l0,-6.932Z" style="fill:rgb(26,26,26);stroke:rgb(51,51,51);stroke-width:0.85px;"/>
  <path d="M7.345,7.398l1.981,0l0,-2.037l1.372,0l0,5.278l-1.372,0l0,-2.177l-1.981,0l0,2.177l-1.372,0l0,-5.278l1.372,0l0,2.037Z" style="fill:rgb(204,204,204);fill-rule:nonzero;"/>
</svg>