<?xml version="1.0" encoding="UTF-8" standalone="no"?>
<svg
   xmlns:serif="http://www.serif.com/"
   xmlns:dc="http://purl.org/dc/elements/1.1/"
   xmlns:cc="http://creativecommons.org/ns#"
   xmlns:rdf="http://www.w3.org/1999/02/22-rdf-syntax-ns#"
   xmlns:svg="http://www.w3.org/2000/svg"
   xmlns="http://www.w3.org/2000/svg"
   xmlns:sodipodi="http://sodipodi.sourceforge.net/DTD/sodipodi-0.dtd"
   xmlns:inkscape="http://www.inkscape.org/namespaces/inkscape"
   width="150px"
   height="380px"
   version="1.1"
   xml:space="preserve"
   style="fill-rule:evenodd;clip-rule:evenodd;stroke-miterlimit:10;"
   id="svg2641"
   sodipodi:docname="Freak.svg"
   inkscape:version="0.92.3 (2405546, 2018-03-11)"><metadata
   id="metadata2645"><rdf:RDF><cc:Work
       rdf:about=""><dc:format>image/svg+xml</dc:format><dc:type
         rdf:resource="http://purl.org/dc/dcmitype/StillImage" /><dc:title></dc:title></cc:Work></rdf:RDF></metadata><sodipodi:namedview
   pagecolor="#ffffff"
   bordercolor="#666666"
   borderopacity="1"
   objecttolerance="10"
   gridtolerance="10"
   guidetolerance="10"
   inkscape:pageopacity="0"
   inkscape:pageshadow="2"
   inkscape:window-width="1920"
   inkscape:window-height="1017"
   id="namedview2643"
   showgrid="false"
   inkscape:zoom="1.7566021"
   inkscape:cx="99.278712"
   inkscape:cy="191.14382"
   inkscape:window-x="1912"
   inkscape:window-y="-8"
   inkscape:window-maximized="1"
   inkscape:current-layer="svg2641" />
  <defs
   id="defs2417">
    <linearGradient
   id="_Linear1"
   x1="0"
   y1="0"
   x2="1"
   y2="0"
   gradientUnits="userSpaceOnUse"
   gradientTransform="matrix(150,-379.998,379.998,150,3.28145e-4,379.998)">
      <stop
   offset="0"
   style="stop-color:#000000;stop-opacity:1"
   id="stop2412" />
      <stop
   offset="1"
   style="stop-color:#343434;stop-opacity:1"
   id="stop2414" />
    </linearGradient>
  
    
    
    
    
    
    
    
    
    
    
    
    
    
    
    
    
    
    
    
    
    
    
    
    
    
    
    
    
    
    
    
    
    
    
    
    
    
    
    
    
    
    
    
    
    
    
    
    
    
    
    
    
    
    
    
    
    
    
    
    
    
    
    
    
    
    
    
    
    
    
    
    
    
    
    
    
    
    
    
    
    
    
    
    
    
    
    
    
    
    
    
    
    
    
    
    
    
    
    
    
    
    
    
    
    
    
    
    
    
    
    
    
    
    
    
    
    
    
    
    
    
    
  </defs>
  <rect
   style="fill:#1a1a1a"
   height="380"
   width="150"
   y="0"
   x="0"
   id="rect9931" /><rect
   style="fill:url(#_Linear1)"
   height="379.99799"
   width="150"
   y="0"
   x="0"
   id="rect7406" /><path
   inkscape:connector-curvature="0"
   style="fill:#ffffff;fill-rule:nonzero"
   d="m 40.158,38.559 v -5.112 h 1.322 v 0.964 c 0.404,-0.72 0.978,-1.08 1.723,-1.08 0.385,0 0.702,0.094 0.95,0.284 0.248,0.189 0.4,0.455 0.456,0.796 0.477,-0.72 1.055,-1.08 1.732,-1.08 0.934,0 1.401,0.516 1.401,1.546 v 3.682 H 46.42 v -3.231 c 0,-0.605 -0.202,-0.908 -0.605,-0.908 -0.413,0 -0.815,0.298 -1.206,0.894 v 3.245 h -1.323 v -3.231 c 0,-0.608 -0.203,-0.912 -0.609,-0.912 -0.407,0 -0.805,0.299 -1.197,0.898 v 3.245 z"
   id="path7510" /><path
   inkscape:connector-curvature="0"
   style="fill:#ffffff;fill-rule:nonzero"
   d="m 51.909,38.01 c -0.459,0.443 -0.952,0.666 -1.476,0.666 -0.447,0 -0.81,-0.137 -1.089,-0.41 -0.28,-0.273 -0.42,-0.627 -0.42,-1.062 0,-0.564 0.226,-1 0.678,-1.306 0.451,-0.306 1.098,-0.458 1.939,-0.458 h 0.368 v -0.466 c 0,-0.53 -0.303,-0.796 -0.908,-0.796 -0.537,0 -1.08,0.152 -1.63,0.456 v -0.949 c 0.624,-0.237 1.242,-0.354 1.853,-0.354 1.338,0 2.006,0.532 2.006,1.597 v 2.262 c 0,0.4 0.13,0.6 0.387,0.6 0.046,0 0.108,-0.005 0.182,-0.018 l 0.033,0.773 c -0.292,0.087 -0.55,0.131 -0.773,0.131 -0.565,0 -0.929,-0.223 -1.09,-0.666 z m 0,-0.74 v -1.039 h -0.326 c -0.89,0 -1.336,0.279 -1.336,0.838 0,0.19 0.064,0.349 0.192,0.478 0.13,0.128 0.288,0.193 0.478,0.193 0.323,0 0.653,-0.157 0.992,-0.47 z"
   id="path7512" /><path
   inkscape:connector-curvature="0"
   style="fill:#ffffff;fill-rule:nonzero"
   d="m 55.009,38.559 v -5.112 h 1.379 v 0.964 c 0.45,-0.72 1.03,-1.08 1.74,-1.08 0.457,0 0.817,0.144 1.08,0.433 0.264,0.289 0.396,0.683 0.396,1.183 v 3.612 h -1.377 v -3.273 c 0,-0.58 -0.193,-0.87 -0.578,-0.87 -0.438,0 -0.858,0.308 -1.261,0.927 v 3.216 z"
   id="path7514" /><path
   inkscape:connector-curvature="0"
   style="fill:#ffffff;fill-rule:nonzero"
   d="m 61.271,38.559 v -5.112 h 1.378 v 5.112 z m 0,-5.972 v -1.151 h 1.378 v 1.151 z"
   id="path7516" /><path
   inkscape:connector-curvature="0"
   style="fill:#ffffff;fill-rule:nonzero"
   d="m 64.516,38.559 v -4.251 h -0.703 v -0.861 h 0.703 V 33.08 c 0,-1.326 0.629,-1.988 1.886,-1.988 0.406,0 0.825,0.059 1.256,0.176 V 32.2 c -0.39,-0.165 -0.742,-0.247 -1.052,-0.247 -0.474,0 -0.713,0.358 -0.713,1.075 v 0.419 h 1.295 v 0.861 h -1.295 v 4.251 z"
   id="path7518" /><path
   inkscape:connector-curvature="0"
   style="fill:#ffffff;fill-rule:nonzero"
   d="m 70.47,38.676 c -0.798,0 -1.431,-0.242 -1.901,-0.725 -0.47,-0.482 -0.706,-1.131 -0.706,-1.948 0,-0.826 0.237,-1.477 0.71,-1.955 0.473,-0.478 1.117,-0.717 1.93,-0.717 0.816,0 1.461,0.239 1.935,0.717 0.473,0.478 0.709,1.126 0.709,1.946 0,0.838 -0.237,1.495 -0.713,1.969 -0.474,0.475 -1.129,0.713 -1.964,0.713 z m 0.024,-0.862 c 0.791,0 1.187,-0.607 1.187,-1.82 0,-0.556 -0.105,-0.994 -0.315,-1.317 -0.21,-0.323 -0.496,-0.484 -0.863,-0.484 -0.363,0 -0.65,0.161 -0.86,0.484 -0.209,0.323 -0.313,0.764 -0.313,1.326 0,0.556 0.104,0.997 0.311,1.323 0.209,0.326 0.493,0.488 0.853,0.488 z"
   id="path7520" /><rect
   style="fill:#ffffff"
   height="7.3509998"
   width="1.3789999"
   y="31.208"
   x="74.413002"
   id="rect7522" /><path
   inkscape:connector-curvature="0"
   style="fill:#ffffff;fill-rule:nonzero"
   d="m 80.731,38.559 v -0.963 c -0.354,0.72 -0.911,1.08 -1.672,1.08 -0.614,0 -1.097,-0.226 -1.447,-0.676 -0.351,-0.45 -0.526,-1.069 -0.526,-1.857 0,-0.857 0.198,-1.539 0.594,-2.049 0.394,-0.509 0.926,-0.763 1.594,-0.763 0.534,0 1.02,0.211 1.457,0.633 v -2.756 h 1.383 v 7.351 z m 0,-3.775 c -0.333,-0.373 -0.687,-0.56 -1.066,-0.56 -0.338,0 -0.609,0.164 -0.81,0.49 -0.202,0.326 -0.303,0.763 -0.303,1.313 0,1.046 0.336,1.569 1.006,1.569 0.41,0 0.8,-0.263 1.173,-0.787 z"
   id="path7524" /><path
   inkscape:connector-curvature="0"
   style="fill:#ffffff;fill-rule:nonzero"
   d="m 87.118,38.559 v -4.251 h -0.703 v -0.861 h 0.703 v -0.353 c 0,-0.643 0.153,-1.137 0.459,-1.484 0.306,-0.345 0.741,-0.518 1.305,-0.518 0.349,0 0.717,0.063 1.109,0.19 v 0.941 c -0.385,-0.171 -0.67,-0.256 -0.857,-0.256 -0.425,0 -0.638,0.388 -0.638,1.164 v 0.316 h 3.218 v 5.112 h -1.379 v -4.251 h -1.839 v 4.251 z m 3.446,-5.972 v -1.151 h 1.15 v 1.151 z"
   id="path7526" /><rect
   style="fill:#ffffff"
   height="7.3509998"
   width="1.3789999"
   y="31.208"
   x="93.435997"
   id="rect7528" /><path
   inkscape:connector-curvature="0"
   style="fill:#ffffff;fill-rule:nonzero"
   d="m 99.172,38.532 c -0.33,0.095 -0.589,0.144 -0.779,0.144 -1.194,0 -1.791,-0.559 -1.791,-1.676 v -2.692 h -0.573 v -0.861 h 0.573 v -0.86 l 1.377,-0.159 v 1.019 h 1.094 v 0.861 h -1.094 v 2.509 c 0,0.628 0.257,0.942 0.769,0.942 0.118,0 0.258,-0.023 0.424,-0.066 z"
   id="path7530" /><path
   inkscape:connector-curvature="0"
   style="fill:#ffffff;fill-rule:nonzero"
   d="m 104.563,38.387 c -0.656,0.192 -1.276,0.289 -1.863,0.289 -0.853,0 -1.526,-0.243 -2.021,-0.727 -0.493,-0.484 -0.74,-1.145 -0.74,-1.983 0,-0.792 0.227,-1.428 0.678,-1.911 0.452,-0.483 1.048,-0.724 1.79,-0.724 0.748,0 1.294,0.236 1.639,0.707 0.344,0.472 0.517,1.219 0.517,2.239 h -3.171 c 0.093,0.976 0.629,1.463 1.606,1.463 0.463,0 0.983,-0.107 1.565,-0.321 z M 101.374,35.5 h 1.834 c 0,-0.872 -0.281,-1.307 -0.843,-1.307 -0.571,0 -0.901,0.435 -0.991,1.307 z"
   id="path7532" /><path
   inkscape:connector-curvature="0"
   style="fill:#ffffff;fill-rule:nonzero"
   d="m 105.987,38.559 v -5.112 h 1.378 v 0.964 c 0.357,-0.72 0.9,-1.08 1.63,-1.08 0.087,0 0.171,0.009 0.255,0.027 v 1.23 c -0.195,-0.071 -0.377,-0.107 -0.544,-0.107 -0.55,0 -0.997,0.278 -1.341,0.833 v 3.245 z"
   id="path7534" /><g
   id="g3393"
   style="fill:#6a9696"><path
     id="path7539"
     d="m 60.116,19.797 h -2.968 v 1.585 h 2.705 v 2.089 h -2.705 v 3.724 H 54.682 V 17.71 h 5.434 z"
     style="fill:#6a9696;fill-rule:nonzero"
     inkscape:connector-curvature="0" /><path
     id="path7541"
     d="m 64.055,21.948 h 0.465 c 0.486,0 0.859,-0.099 1.12,-0.301 0.26,-0.201 0.389,-0.491 0.389,-0.868 0,-0.377 -0.129,-0.666 -0.389,-0.868 C 65.379,19.71 65.006,19.61 64.52,19.61 h -0.465 z m 5.421,5.247 h -3.069 l -2.352,-3.648 v 3.648 H 61.588 V 17.71 h 3.838 c 0.528,0 0.989,0.078 1.383,0.232 0.395,0.156 0.72,0.368 0.975,0.635 0.256,0.269 0.449,0.58 0.578,0.931 0.131,0.353 0.196,0.73 0.196,1.133 0,0.721 -0.174,1.306 -0.522,1.755 -0.348,0.449 -0.862,0.753 -1.541,0.912 z"
     style="fill:#6a9696;fill-rule:nonzero"
     inkscape:connector-curvature="0" /><path
     id="path7543"
     d="m 75.905,19.797 h -2.931 l -0.001,1.585 h 2.768 v 2.089 h -2.767 l -0.001,1.635 h 2.932 v 2.089 H 70.508 V 17.71 h 5.397 z"
     style="fill:#6a9696;fill-rule:nonzero"
     inkscape:connector-curvature="0" /><path
     id="path7545"
     d="m 82.836,23.672 -1.106,-3.157 -1.107,3.157 z m 0.654,1.875 h -3.523 l -0.566,1.648 h -2.629 l 3.611,-9.485 h 2.692 l 3.611,9.485 h -2.63 z"
     style="fill:#6a9696;fill-rule:nonzero"
     inkscape:connector-curvature="0" /><path
     id="path7547"
     d="M 90.233,21.622 93.24,17.71 h 3.043 l -3.761,4.49 4.114,4.995 h -3.195 l -3.208,-4.113 v 4.113 H 87.767 V 17.71 h 2.466 z"
     style="fill:#6a9696;fill-rule:nonzero"
     inkscape:connector-curvature="0" /></g><g
   id="g3399"
   style="fill:#6a9696"><path
     id="path42"
     d="m 62.952,363.5 h 2.673 l 2.49,8.317 2.574,-8.317 h 2.66 l -3.46,10.397 c -0.323,0.959 -0.903,1.438 -1.738,1.438 -0.847,0 -1.433,-0.484 -1.755,-1.453 z"
     style="fill:#6a9696;fill-rule:nonzero"
     inkscape:connector-curvature="0" /><path
     id="path44"
     d="M 73.55,372.292 V 363.5 h 2.507 v 8.709 c 0.044,0.312 0.334,0.468 0.869,0.468 h 1.705 c 0.513,0 0.797,-0.145 0.853,-0.435 l 0.017,-0.083 V 363.5 h 2.507 v 8.776 c 0,0.769 -0.083,1.315 -0.251,1.638 -0.445,0.858 -1.231,1.287 -2.357,1.287 h -3.243 c -1.159,0 -1.95,-0.44 -2.373,-1.321 -0.156,-0.323 -0.234,-0.852 -0.234,-1.588 z"
     style="fill:#6a9696;fill-rule:nonzero"
     inkscape:connector-curvature="0" /><path
     id="path46"
     d="M 83.161,372.343 V 363.5 h 2.508 v 8.642 c 0,0.357 0.211,0.535 0.635,0.535 h 4.463 l -0.016,2.524 h -4.664 c -0.167,0 -0.312,-0.005 -0.435,-0.017 -0.903,-0.077 -1.544,-0.342 -1.922,-0.794 -0.379,-0.451 -0.569,-1.134 -0.569,-2.047 z"
     style="fill:#6a9696;fill-rule:nonzero"
     inkscape:connector-curvature="0" /><path
     id="path48"
     d="M 90.851,366.024 V 363.5 h 7.522 v 2.524 h -2.524 v 9.177 h -2.508 v -9.177 z"
     style="fill:#6a9696;fill-rule:nonzero"
     inkscape:connector-curvature="0" /></g><path
   inkscape:connector-curvature="0"
   style="fill:#757575;fill-rule:nonzero;stroke:#414c55;stroke-width:0.61000001px"
   d="m 59.383,369.417 c 0,-4.509 -3.655,-8.164 -8.164,-8.164 -4.509,0 -8.165,3.655 -8.165,8.164 0,4.509 3.656,8.165 8.165,8.165 4.509,0 8.164,-3.656 8.164,-8.165 z"
   id="path4" /><g
   id="g40">
      <path
   inkscape:connector-curvature="0"
   style="fill:#2b2b2b;fill-rule:nonzero;stroke:#414c55;stroke-width:0.04px;stroke-miterlimit:4"
   d="m 49.321,374.394 0.553,-0.891 -1.064,-2.393 -2.216,-2.284 0.46,3.101 0.597,1.28 0.833,1.264 z"
   id="polygon6" />
      <path
   inkscape:connector-curvature="0"
   style="fill:#262626;fill-rule:nonzero;stroke:#414c55;stroke-width:0.04px;stroke-miterlimit:4"
   d="m 53.048,374.401 -0.553,-0.89 1.064,-2.393 2.216,-2.285 -0.46,3.101 -0.597,1.281 -0.833,1.263 z"
   id="polygon8" />
      <path
   inkscape:connector-curvature="0"
   style="fill:#424242;fill-rule:nonzero;stroke:#414c55;stroke-width:0.04px;stroke-miterlimit:4"
   d="m 48.636,363.359 2.584,-0.66 v 13.447 l -1.349,-2.651 -1.061,-2.385 -1.022,-0.581 -2.052,-2.92 -0.057,-0.776 1.148,-2.067 z"
   id="polygon12" />
      <path
   inkscape:connector-curvature="0"
   style="fill:#333333;fill-rule:nonzero;stroke:#414c55;stroke-width:0.04px;stroke-miterlimit:4"
   d="m 53.801,363.364 -2.584,-0.661 v 13.448 l 1.35,-2.651 1.06,-2.385 1.023,-0.581 2.051,-2.921 0.058,-0.775 -1.149,-2.067 z"
   id="polygon14" />
      <path
   inkscape:connector-curvature="0"
   style="fill:#4c4c4c;fill-rule:nonzero;stroke:#414c55;stroke-width:0.04px;stroke-miterlimit:4"
   d="m 49.496,369.237 1.723,-1.684 v 1.229 l -1.723,1.718 v -1.263"
   id="polyline16" />
      <path
   inkscape:connector-curvature="0"
   style="fill:#5b5b5b;fill-rule:nonzero;stroke:#414c55;stroke-width:0.04px;stroke-miterlimit:4"
   d="m 51.22,368.781 -1.723,1.718 0.377,3.004 1.346,2.643 z"
   id="polygon18" />
      <path
   inkscape:connector-curvature="0"
   style="fill:#333333;fill-rule:nonzero;stroke:#414c55;stroke-width:0.04px;stroke-miterlimit:4"
   d="m 51.22,376.146 -1.346,-2.643 1.346,-0.635 z"
   id="polygon20" />
      <path
   inkscape:connector-curvature="0"
   style="fill:#ffffff;fill-rule:nonzero;stroke:#414c55;stroke-width:0.04px;stroke-miterlimit:4"
   d="m 49.497,370.499 v -1.263 l -1.249,-1.58 -1.477,-1.19 -10e-4,0.932 0.775,1.823 z"
   id="polygon22" />
      <path
   inkscape:connector-curvature="0"
   style="fill:#2d2d2d;fill-rule:nonzero;stroke:#414c55;stroke-width:0.04px;stroke-miterlimit:4"
   d="m 52.942,369.238 -1.722,-1.685 v 1.23 l 1.722,1.718 v -1.263"
   id="polyline24" />
      <path
   inkscape:connector-curvature="0"
   style="fill:#353535;fill-rule:nonzero;stroke:#414c55;stroke-width:0.04px;stroke-miterlimit:4"
   d="m 51.218,368.781 1.722,1.718 -0.376,3.004 -1.347,2.643 z"
   id="polygon26" />
      <path
   inkscape:connector-curvature="0"
   style="fill:#191919;fill-rule:nonzero;stroke:#414c55;stroke-width:0.04px;stroke-miterlimit:4"
   d="m 51.217,376.146 1.347,-2.643 -1.346,-0.635 z"
   id="polygon28" />
      <path
   inkscape:connector-curvature="0"
   style="fill:#ffffff;fill-rule:nonzero;stroke:#414c55;stroke-width:0.04px;stroke-miterlimit:4"
   d="m 52.94,370.499 v -1.263 l 1.249,-1.58 1.478,-1.19 10e-4,0.932 -0.775,1.823 z"
   id="polygon30" />
      <path
   inkscape:connector-curvature="0"
   style="fill:#383838;fill-rule:nonzero;stroke:#414c55;stroke-width:0.04px;stroke-miterlimit:4"
   d="m 48.652,363.338 2.566,4.215 -0.005,-4.87"
   id="polyline32" />
      <path
   inkscape:connector-curvature="0"
   style="fill:#2d2d2d;fill-rule:nonzero;stroke:#414c55;stroke-width:0.04px;stroke-miterlimit:4"
   d="m 53.785,363.338 -2.566,4.215 0.006,-4.869"
   id="polyline34" />
      <path
   inkscape:connector-curvature="0"
   style="fill:#333333;fill-rule:nonzero;stroke:#414c55;stroke-width:0.04px;stroke-miterlimit:4"
   d="m 48.811,371.111 0.688,-0.611 0.375,3.006 z"
   id="polygon36" />
      <path
   inkscape:connector-curvature="0"
   style="fill:#1c1c1c;fill-rule:nonzero;stroke:#414c55;stroke-width:0.04px;stroke-miterlimit:4"
   d="m 53.631,371.125 -0.688,-0.61 -0.375,3.006 z"
   id="polygon38" />
    </g><path
   inkscape:connector-curvature="0"
   style="fill:#ffffff;fill-rule:nonzero"
   d="m 116.998,314.65 0.768,-4.526 h 1.165 l 0.908,2.413 0.901,-2.413 h 1.16 l 0.768,4.526 H 121.5 l -0.388,-2.605 -1.069,2.605 h -0.468 l -1.016,-2.605 -0.388,2.605 z"
   id="path7589" /><path
   inkscape:connector-curvature="0"
   style="fill:#ffffff;fill-rule:nonzero"
   d="m 124.441,312.389 c 0,0.18 0.032,0.344 0.1,0.496 0.068,0.152 0.16,0.284 0.276,0.396 0.116,0.112 0.252,0.2 0.405,0.26 0.156,0.064 0.32,0.096 0.492,0.096 0.172,0 0.332,-0.032 0.488,-0.096 0.152,-0.06 0.288,-0.148 0.408,-0.26 0.116,-0.112 0.208,-0.244 0.276,-0.396 0.068,-0.152 0.104,-0.316 0.104,-0.496 0,-0.18 -0.036,-0.348 -0.104,-0.5 -0.068,-0.152 -0.16,-0.284 -0.276,-0.397 -0.12,-0.112 -0.256,-0.196 -0.408,-0.26 -0.156,-0.06 -0.316,-0.092 -0.488,-0.092 -0.172,0 -0.336,0.032 -0.492,0.092 -0.153,0.064 -0.289,0.148 -0.405,0.26 -0.116,0.113 -0.208,0.245 -0.276,0.397 -0.068,0.152 -0.1,0.32 -0.1,0.5 z m -1.232,0 c 0,-0.336 0.064,-0.648 0.188,-0.941 0.124,-0.288 0.296,-0.544 0.516,-0.76 0.22,-0.216 0.48,-0.384 0.788,-0.504 0.304,-0.124 0.645,-0.184 1.013,-0.184 0.364,0 0.696,0.06 1.004,0.184 0.308,0.12 0.576,0.288 0.796,0.504 0.225,0.216 0.397,0.472 0.521,0.76 0.124,0.293 0.184,0.605 0.184,0.941 0,0.336 -0.06,0.648 -0.184,0.936 -0.124,0.292 -0.296,0.544 -0.521,0.761 -0.22,0.216 -0.488,0.384 -0.796,0.508 -0.308,0.12 -0.64,0.18 -1.004,0.18 -0.368,0 -0.709,-0.06 -1.013,-0.18 -0.308,-0.124 -0.568,-0.292 -0.788,-0.508 -0.22,-0.217 -0.392,-0.469 -0.516,-0.761 -0.124,-0.288 -0.188,-0.6 -0.188,-0.936 z"
   id="path7591" /><path
   inkscape:connector-curvature="0"
   style="fill:#ffffff;fill-rule:nonzero"
   d="m 130.14,313.653 h 0.272 c 0.204,0 0.384,-0.032 0.544,-0.096 0.16,-0.064 0.296,-0.152 0.404,-0.264 0.112,-0.112 0.196,-0.244 0.252,-0.4 0.06,-0.152 0.088,-0.32 0.088,-0.504 0,-0.18 -0.032,-0.348 -0.092,-0.504 -0.06,-0.156 -0.144,-0.292 -0.252,-0.405 -0.112,-0.112 -0.244,-0.2 -0.404,-0.264 -0.16,-0.064 -0.34,-0.096 -0.54,-0.096 h -0.272 z m -1.177,-3.529 h 1.741 c 0.308,0 0.596,0.064 0.868,0.188 0.268,0.124 0.504,0.288 0.708,0.496 0.201,0.204 0.361,0.444 0.477,0.721 0.116,0.272 0.172,0.56 0.172,0.86 0,0.296 -0.056,0.58 -0.168,0.852 -0.116,0.276 -0.272,0.516 -0.477,0.725 -0.2,0.208 -0.436,0.376 -0.708,0.5 -0.268,0.124 -0.56,0.184 -0.872,0.184 h -1.741 z"
   id="path7593" /><path
   inkscape:connector-curvature="0"
   style="fill:#ffffff;fill-rule:nonzero"
   d="m 136.254,311.12 h -1.396 v 0.757 h 1.316 v 0.996 h -1.316 v 0.78 h 1.396 v 0.997 h -2.573 v -4.526 h 2.573 z"
   id="path7595" /><path
   inkscape:connector-curvature="0"
   style="fill:#ffffff;fill-rule:nonzero"
   d="m 90.864,311.081 h -1.416 v 0.757 h 1.292 v 0.996 h -1.292 v 1.777 h -1.177 v -4.526 h 2.593 z"
   id="path7599" /><rect
   style="fill:#ffffff"
   height="4.526"
   width="1.176"
   y="310.08499"
   x="91.568001"
   id="rect7601" /><path
   inkscape:connector-curvature="0"
   style="fill:#ffffff;fill-rule:nonzero"
   d="m 94.866,310.085 v 3.529 h 1.412 v 0.997 h -2.589 v -4.526 z"
   id="path7603" /><path
   inkscape:connector-curvature="0"
   style="fill:#ffffff;fill-rule:nonzero"
   d="m 98.359,311.081 v 3.53 h -1.176 v -3.53 h -0.965 v -0.996 h 3.106 v 0.996 z"
   id="path7605" /><path
   inkscape:connector-curvature="0"
   style="fill:#ffffff;fill-rule:nonzero"
   d="m 102.421,311.081 h -1.397 v 0.757 h 1.317 v 0.996 h -1.317 v 0.78 h 1.397 v 0.997 h -2.573 v -4.526 h 2.573 z"
   id="path7607" /><path
   inkscape:connector-curvature="0"
   style="fill:#ffffff;fill-rule:nonzero"
   d="m 104.442,312.11 h 0.224 c 0.232,0 0.408,-0.048 0.532,-0.144 0.124,-0.096 0.188,-0.236 0.188,-0.416 0,-0.181 -0.064,-0.317 -0.188,-0.413 -0.124,-0.096 -0.3,-0.144 -0.532,-0.144 h -0.224 z m 2.589,2.501 h -1.465 l -1.124,-1.741 v 1.741 h -1.177 v -4.526 h 1.833 c 0.252,0 0.472,0.04 0.66,0.112 0.188,0.076 0.34,0.176 0.465,0.304 0.12,0.128 0.212,0.276 0.276,0.444 0.06,0.168 0.092,0.348 0.092,0.541 0,0.344 -0.084,0.624 -0.248,0.836 -0.168,0.212 -0.413,0.36 -0.737,0.436 z"
   id="path7609" /><path
   inkscape:connector-curvature="0"
   style="fill:#ffffff;fill-rule:nonzero"
   d="m 35.203,285.686 c -0.272,-0.333 -0.609,-0.497 -1.009,-0.497 -0.176,0 -0.34,0.032 -0.488,0.096 -0.152,0.064 -0.28,0.152 -0.388,0.26 -0.108,0.113 -0.192,0.241 -0.256,0.393 -0.06,0.152 -0.092,0.316 -0.092,0.492 0,0.18 0.032,0.348 0.092,0.5 0.064,0.152 0.148,0.284 0.26,0.396 0.108,0.112 0.236,0.2 0.384,0.264 0.148,0.064 0.308,0.096 0.48,0.096 0.376,0 0.717,-0.16 1.017,-0.48 v 1.393 l -0.12,0.04 c -0.18,0.064 -0.349,0.112 -0.505,0.14 -0.156,0.032 -0.312,0.044 -0.464,0.044 -0.312,0 -0.608,-0.056 -0.896,-0.176 -0.284,-0.116 -0.536,-0.284 -0.756,-0.496 -0.217,-0.217 -0.393,-0.469 -0.525,-0.765 -0.132,-0.292 -0.2,-0.612 -0.2,-0.96 0,-0.348 0.068,-0.668 0.196,-0.957 0.132,-0.292 0.304,-0.54 0.525,-0.752 0.216,-0.208 0.468,-0.372 0.756,-0.492 0.288,-0.116 0.592,-0.176 0.908,-0.176 0.18,0 0.356,0.02 0.528,0.056 0.176,0.04 0.361,0.096 0.553,0.176 z"
   id="path7613" /><path
   inkscape:connector-curvature="0"
   style="fill:#ffffff;fill-rule:nonzero"
   d="m 37.035,286.438 c 0,0.18 0.036,0.344 0.104,0.496 0.068,0.152 0.161,0.284 0.277,0.396 0.116,0.112 0.252,0.2 0.404,0.26 0.156,0.064 0.316,0.096 0.488,0.096 0.172,0 0.336,-0.032 0.488,-0.096 0.156,-0.06 0.292,-0.148 0.408,-0.26 0.12,-0.112 0.212,-0.244 0.28,-0.396 0.068,-0.152 0.104,-0.316 0.104,-0.496 0,-0.18 -0.036,-0.348 -0.104,-0.5 -0.068,-0.152 -0.16,-0.284 -0.28,-0.397 -0.116,-0.112 -0.252,-0.196 -0.408,-0.26 -0.152,-0.06 -0.316,-0.092 -0.488,-0.092 -0.172,0 -0.332,0.032 -0.488,0.092 -0.152,0.064 -0.288,0.148 -0.404,0.26 -0.116,0.113 -0.209,0.245 -0.277,0.397 -0.068,0.152 -0.104,0.32 -0.104,0.5 z m -1.228,0 c 0,-0.336 0.064,-0.648 0.188,-0.941 0.124,-0.288 0.292,-0.544 0.512,-0.76 0.22,-0.216 0.484,-0.384 0.793,-0.504 0.304,-0.124 0.64,-0.184 1.008,-0.184 0.364,0 0.7,0.06 1.008,0.184 0.308,0.12 0.573,0.288 0.797,0.504 0.22,0.216 0.396,0.472 0.52,0.76 0.124,0.293 0.184,0.605 0.184,0.941 0,0.336 -0.06,0.648 -0.184,0.936 -0.124,0.292 -0.3,0.544 -0.52,0.761 -0.224,0.216 -0.489,0.384 -0.797,0.508 -0.308,0.12 -0.644,0.18 -1.008,0.18 -0.368,0 -0.704,-0.06 -1.008,-0.18 -0.309,-0.124 -0.573,-0.292 -0.793,-0.508 -0.22,-0.217 -0.388,-0.469 -0.512,-0.761 -0.124,-0.288 -0.188,-0.6 -0.188,-0.936 z"
   id="path7615" /><path
   inkscape:connector-curvature="0"
   style="fill:#ffffff;fill-rule:nonzero"
   d="m 41.357,288.699 0.769,-4.526 h 1.164 l 0.904,2.413 0.901,-2.413 h 1.164 l 0.769,4.526 h -1.169 l -0.392,-2.605 -1.069,2.605 H 43.93 l -1.012,-2.605 -0.392,2.605 z"
   id="path7617" /><path
   inkscape:connector-curvature="0"
   style="fill:#ffffff;fill-rule:nonzero"
   d="m 48.948,287.786 h 0.256 c 0.297,0 0.509,-0.036 0.637,-0.112 0.128,-0.076 0.192,-0.2 0.192,-0.368 0,-0.168 -0.064,-0.288 -0.192,-0.364 -0.128,-0.076 -0.34,-0.116 -0.637,-0.116 h -0.256 z m 0,-1.836 h 0.216 c 0.369,0 0.553,-0.144 0.553,-0.437 0,-0.292 -0.184,-0.44 -0.553,-0.44 h -0.216 z m -1.176,-1.777 h 1.753 c 0.416,0 0.732,0.1 0.948,0.3 0.216,0.2 0.32,0.488 0.32,0.864 0,0.229 -0.04,0.421 -0.12,0.569 -0.084,0.152 -0.208,0.276 -0.376,0.38 0.168,0.032 0.312,0.08 0.428,0.148 0.12,0.064 0.216,0.148 0.288,0.244 0.076,0.096 0.128,0.204 0.16,0.324 0.032,0.12 0.048,0.248 0.048,0.384 0,0.212 -0.036,0.4 -0.112,0.564 -0.072,0.165 -0.176,0.301 -0.312,0.413 -0.132,0.112 -0.296,0.196 -0.488,0.252 -0.192,0.056 -0.408,0.084 -0.648,0.084 h -1.889 z"
   id="path7619" /><rect
   style="fill:#ffffff"
   height="4.526"
   width="1.176"
   y="284.173"
   x="51.922001"
   id="rect7621" /><path
   inkscape:connector-curvature="0"
   style="fill:#ffffff;fill-rule:nonzero"
   d="m 54.046,288.699 v -4.526 h 1.177 l 2.173,2.769 v -2.769 h 1.168 v 4.526 h -1.168 l -2.173,-2.765 v 2.765 z"
   id="path7623" /><path
   inkscape:connector-curvature="0"
   style="fill:#ffffff;fill-rule:nonzero"
   d="m 62.086,285.169 h -1.397 v 0.757 h 1.321 v 0.996 h -1.321 v 0.78 h 1.397 v 0.997 h -2.573 v -4.526 h 2.573 z"
   id="path7625" /><path
   inkscape:connector-curvature="0"
   style="fill:#ffffff;fill-rule:nonzero"
   d="m 64.111,287.702 h 0.268 c 0.204,0 0.388,-0.032 0.548,-0.096 0.16,-0.064 0.292,-0.152 0.404,-0.264 0.108,-0.112 0.192,-0.244 0.252,-0.4 0.056,-0.152 0.084,-0.32 0.084,-0.504 0,-0.18 -0.028,-0.348 -0.088,-0.504 -0.06,-0.156 -0.144,-0.292 -0.256,-0.405 -0.108,-0.112 -0.244,-0.2 -0.404,-0.264 -0.16,-0.064 -0.34,-0.096 -0.54,-0.096 h -0.268 z m -1.177,-3.529 h 1.741 c 0.308,0 0.596,0.064 0.864,0.188 0.272,0.124 0.508,0.288 0.709,0.496 0.204,0.204 0.36,0.444 0.476,0.721 0.116,0.272 0.176,0.56 0.176,0.86 0,0.296 -0.056,0.58 -0.172,0.852 -0.112,0.276 -0.272,0.516 -0.472,0.725 -0.205,0.208 -0.441,0.376 -0.709,0.5 -0.272,0.124 -0.56,0.184 -0.872,0.184 h -1.741 z"
   id="path7627" /><path
   inkscape:connector-curvature="0"
   style="fill:#dadada;fill-rule:nonzero;fill-opacity:1"
   d="m 17.013,276.825 0.768,-4.526 h 1.165 l 0.908,2.413 0.901,-2.413 h 1.16 l 0.768,4.526 h -1.168 l -0.388,-2.605 -1.069,2.605 H 19.59 l -1.016,-2.605 -0.389,2.605 z"
   id="path7631" /><path
   inkscape:connector-curvature="0"
   style="fill:#dadada;fill-rule:nonzero;fill-opacity:1"
   d="m 24.456,274.564 c 0,0.18 0.032,0.344 0.1,0.496 0.068,0.152 0.16,0.284 0.276,0.396 0.116,0.112 0.252,0.2 0.404,0.26 0.156,0.064 0.321,0.096 0.493,0.096 0.172,0 0.332,-0.032 0.488,-0.096 0.152,-0.06 0.288,-0.148 0.408,-0.26 0.116,-0.112 0.208,-0.244 0.276,-0.396 0.068,-0.152 0.104,-0.316 0.104,-0.496 0,-0.18 -0.036,-0.348 -0.104,-0.5 -0.068,-0.152 -0.16,-0.284 -0.276,-0.397 -0.12,-0.112 -0.256,-0.196 -0.408,-0.26 -0.156,-0.06 -0.316,-0.092 -0.488,-0.092 -0.172,0 -0.337,0.032 -0.493,0.092 -0.152,0.064 -0.288,0.148 -0.404,0.26 -0.116,0.113 -0.208,0.245 -0.276,0.397 -0.068,0.152 -0.1,0.32 -0.1,0.5 z m -1.232,0 c 0,-0.336 0.064,-0.648 0.188,-0.941 0.124,-0.288 0.296,-0.544 0.516,-0.76 0.22,-0.216 0.48,-0.384 0.788,-0.504 0.304,-0.124 0.644,-0.184 1.013,-0.184 0.364,0 0.696,0.06 1.004,0.184 0.308,0.12 0.576,0.288 0.796,0.504 0.224,0.216 0.397,0.472 0.521,0.76 0.124,0.293 0.184,0.605 0.184,0.941 0,0.336 -0.06,0.648 -0.184,0.936 -0.124,0.292 -0.297,0.544 -0.521,0.761 -0.22,0.216 -0.488,0.384 -0.796,0.508 -0.308,0.12 -0.64,0.18 -1.004,0.18 -0.369,0 -0.709,-0.06 -1.013,-0.18 -0.308,-0.124 -0.568,-0.292 -0.788,-0.508 -0.22,-0.217 -0.392,-0.469 -0.516,-0.761 -0.124,-0.288 -0.188,-0.6 -0.188,-0.936 z"
   id="path7633" /><path
   inkscape:connector-curvature="0"
   style="fill:#dadada;fill-rule:nonzero;fill-opacity:1"
   d="m 30.154,275.828 h 0.273 c 0.204,0 0.384,-0.032 0.544,-0.096 0.16,-0.064 0.296,-0.152 0.404,-0.264 0.112,-0.112 0.196,-0.244 0.252,-0.4 0.06,-0.152 0.088,-0.32 0.088,-0.504 0,-0.18 -0.032,-0.348 -0.092,-0.504 -0.06,-0.156 -0.144,-0.292 -0.252,-0.405 -0.112,-0.112 -0.244,-0.2 -0.404,-0.264 -0.16,-0.064 -0.34,-0.096 -0.54,-0.096 h -0.273 z m -1.176,-3.529 h 1.741 c 0.308,0 0.596,0.064 0.868,0.188 0.268,0.124 0.504,0.288 0.708,0.496 0.2,0.204 0.361,0.444 0.477,0.721 0.116,0.272 0.172,0.56 0.172,0.86 0,0.296 -0.056,0.58 -0.168,0.852 -0.116,0.276 -0.273,0.516 -0.477,0.725 -0.2,0.208 -0.436,0.376 -0.708,0.5 -0.268,0.124 -0.56,0.184 -0.872,0.184 h -1.741 z"
   id="path7635" /><path
   inkscape:connector-curvature="0"
   style="fill:#dadada;fill-rule:nonzero;fill-opacity:1"
   d="m 36.909,274.324 h 0.224 c 0.232,0 0.409,-0.048 0.533,-0.144 0.124,-0.096 0.188,-0.236 0.188,-0.416 0,-0.181 -0.064,-0.317 -0.188,-0.413 -0.124,-0.096 -0.301,-0.144 -0.533,-0.144 h -0.224 z m 2.589,2.501 h -1.464 l -1.125,-1.741 v 1.741 h -1.172 v -4.526 h 1.829 c 0.252,0 0.472,0.04 0.66,0.112 0.188,0.076 0.34,0.176 0.464,0.304 0.12,0.128 0.212,0.276 0.276,0.444 0.06,0.168 0.092,0.348 0.092,0.541 0,0.344 -0.084,0.624 -0.248,0.836 -0.168,0.212 -0.412,0.36 -0.736,0.436 z"
   id="path7637" /><path
   inkscape:connector-curvature="0"
   style="fill:#dadada;fill-rule:nonzero;fill-opacity:1"
   d="m 40.931,274.564 c 0,0.18 0.032,0.344 0.1,0.496 0.068,0.152 0.16,0.284 0.276,0.396 0.116,0.112 0.252,0.2 0.408,0.26 0.152,0.064 0.316,0.096 0.488,0.096 0.173,0 0.337,-0.032 0.489,-0.096 0.156,-0.06 0.292,-0.148 0.408,-0.26 0.12,-0.112 0.212,-0.244 0.28,-0.396 0.068,-0.152 0.1,-0.316 0.1,-0.496 0,-0.18 -0.032,-0.348 -0.1,-0.5 -0.068,-0.152 -0.16,-0.284 -0.28,-0.397 -0.116,-0.112 -0.252,-0.196 -0.408,-0.26 -0.152,-0.06 -0.316,-0.092 -0.489,-0.092 -0.172,0 -0.336,0.032 -0.488,0.092 -0.156,0.064 -0.292,0.148 -0.408,0.26 -0.116,0.113 -0.208,0.245 -0.276,0.397 -0.068,0.152 -0.1,0.32 -0.1,0.5 z m -1.229,0 c 0,-0.336 0.06,-0.648 0.184,-0.941 0.125,-0.288 0.297,-0.544 0.517,-0.76 0.22,-0.216 0.484,-0.384 0.788,-0.504 0.308,-0.124 0.644,-0.184 1.012,-0.184 0.365,0 0.701,0.06 1.009,0.184 0.308,0.12 0.572,0.288 0.792,0.504 0.224,0.216 0.396,0.472 0.52,0.76 0.124,0.293 0.189,0.605 0.189,0.941 0,0.336 -0.065,0.648 -0.189,0.936 -0.124,0.292 -0.296,0.544 -0.52,0.761 -0.22,0.216 -0.484,0.384 -0.792,0.508 -0.308,0.12 -0.644,0.18 -1.009,0.18 -0.368,0 -0.704,-0.06 -1.012,-0.18 -0.304,-0.124 -0.568,-0.292 -0.788,-0.508 -0.22,-0.217 -0.392,-0.469 -0.517,-0.761 -0.124,-0.288 -0.184,-0.6 -0.184,-0.936 z"
   id="path7639" /><path
   inkscape:connector-curvature="0"
   style="fill:#dadada;fill-rule:nonzero;fill-opacity:1"
   d="m 46.629,272.299 v 2.461 c 0,0.132 0.008,0.268 0.016,0.404 0.012,0.14 0.04,0.264 0.092,0.376 0.048,0.112 0.128,0.204 0.236,0.272 0.108,0.072 0.261,0.108 0.457,0.108 0.196,0 0.348,-0.036 0.452,-0.108 0.108,-0.068 0.184,-0.16 0.236,-0.272 0.052,-0.112 0.084,-0.236 0.092,-0.376 0.012,-0.136 0.016,-0.272 0.016,-0.404 v -2.461 h 1.172 v 2.625 c 0,0.704 -0.164,1.217 -0.484,1.541 -0.324,0.324 -0.816,0.484 -1.484,0.484 -0.669,0 -1.165,-0.16 -1.489,-0.484 -0.324,-0.324 -0.484,-0.837 -0.484,-1.541 v -2.625 z"
   id="path7641" /><path
   inkscape:connector-curvature="0"
   style="fill:#dadada;fill-rule:nonzero;fill-opacity:1"
   d="m 52.06,273.295 v 3.53 h -1.177 v -3.53 h -0.964 v -0.996 h 3.109 v 0.996 z"
   id="path7643" /><path
   inkscape:connector-curvature="0"
   style="fill:#dadada;fill-rule:nonzero;fill-opacity:1"
   d="m 56.121,273.295 h -1.396 v 0.757 h 1.32 v 0.996 h -1.32 v 0.78 h 1.396 v 0.997 h -2.573 v -4.526 h 2.573 z"
   id="path7645" /><path
   inkscape:connector-curvature="0"
   style="fill:#dadada;fill-rule:nonzero;fill-opacity:1"
   d="m 89.41,276.635 0.768,-4.526 h 1.165 l 0.908,2.413 0.901,-2.413 h 1.16 l 0.768,4.526 h -1.168 l -0.388,-2.605 -1.069,2.605 h -0.468 l -1.016,-2.605 -0.389,2.605 z"
   id="path7649" /><path
   inkscape:connector-curvature="0"
   style="fill:#dadada;fill-rule:nonzero;fill-opacity:1"
   d="m 96.853,274.374 c 0,0.18 0.032,0.344 0.1,0.496 0.068,0.152 0.16,0.284 0.276,0.396 0.116,0.112 0.252,0.2 0.404,0.26 0.156,0.064 0.321,0.096 0.493,0.096 0.172,0 0.332,-0.032 0.488,-0.096 0.152,-0.06 0.288,-0.148 0.408,-0.26 0.116,-0.112 0.208,-0.244 0.276,-0.396 0.068,-0.152 0.104,-0.316 0.104,-0.496 0,-0.18 -0.036,-0.348 -0.104,-0.5 -0.068,-0.152 -0.16,-0.284 -0.276,-0.397 -0.12,-0.112 -0.256,-0.196 -0.408,-0.26 -0.156,-0.06 -0.316,-0.092 -0.488,-0.092 -0.172,0 -0.337,0.032 -0.493,0.092 -0.152,0.064 -0.288,0.148 -0.404,0.26 -0.116,0.113 -0.208,0.245 -0.276,0.397 -0.068,0.152 -0.1,0.32 -0.1,0.5 z m -1.232,0 c 0,-0.336 0.064,-0.648 0.188,-0.941 0.124,-0.288 0.296,-0.544 0.516,-0.76 0.22,-0.216 0.48,-0.384 0.788,-0.504 0.304,-0.124 0.644,-0.184 1.013,-0.184 0.364,0 0.696,0.06 1.004,0.184 0.308,0.12 0.576,0.288 0.796,0.504 0.224,0.216 0.397,0.472 0.521,0.76 0.124,0.293 0.184,0.605 0.184,0.941 0,0.336 -0.06,0.648 -0.184,0.936 -0.124,0.292 -0.297,0.544 -0.521,0.761 -0.22,0.216 -0.488,0.384 -0.796,0.508 -0.308,0.12 -0.64,0.18 -1.004,0.18 -0.369,0 -0.709,-0.06 -1.013,-0.18 -0.308,-0.124 -0.568,-0.292 -0.788,-0.508 -0.22,-0.217 -0.392,-0.469 -0.516,-0.761 -0.124,-0.288 -0.188,-0.6 -0.188,-0.936 z"
   id="path7651" /><path
   inkscape:connector-curvature="0"
   style="fill:#dadada;fill-rule:nonzero;fill-opacity:1"
   d="m 102.551,275.638 h 0.273 c 0.204,0 0.384,-0.032 0.544,-0.096 0.16,-0.064 0.296,-0.152 0.404,-0.264 0.112,-0.112 0.196,-0.244 0.252,-0.4 0.06,-0.152 0.088,-0.32 0.088,-0.504 0,-0.18 -0.032,-0.348 -0.092,-0.504 -0.06,-0.156 -0.144,-0.292 -0.252,-0.405 -0.112,-0.112 -0.244,-0.2 -0.404,-0.264 -0.16,-0.064 -0.34,-0.096 -0.54,-0.096 h -0.273 z m -1.176,-3.529 h 1.741 c 0.308,0 0.596,0.064 0.868,0.188 0.268,0.124 0.504,0.288 0.708,0.496 0.2,0.204 0.361,0.444 0.477,0.721 0.116,0.272 0.172,0.56 0.172,0.86 0,0.296 -0.056,0.58 -0.168,0.852 -0.116,0.276 -0.273,0.516 -0.477,0.725 -0.2,0.208 -0.436,0.376 -0.708,0.5 -0.268,0.124 -0.56,0.184 -0.872,0.184 h -1.741 z"
   id="path7653" /><path
   inkscape:connector-curvature="0"
   style="fill:#dadada;fill-rule:nonzero;fill-opacity:1"
   d="m 108.666,273.105 h -1.397 v 0.757 h 1.317 v 0.996 h -1.317 v 0.78 h 1.397 v 0.997 h -2.573 v -4.526 h 2.573 z"
   id="path7655" /><path
   inkscape:connector-curvature="0"
   style="fill:#dadada;fill-rule:nonzero;fill-opacity:1"
   d="m 110.687,272.109 v 3.529 h 1.412 v 0.997 h -2.589 v -4.526 z"
   id="path7657" /><path
   inkscape:connector-curvature="0"
   style="fill:#dadada;fill-rule:nonzero;fill-opacity:1"
   d="m 117.23,273.269 c -0.129,-0.104 -0.257,-0.18 -0.385,-0.232 -0.128,-0.048 -0.252,-0.076 -0.372,-0.076 -0.152,0 -0.276,0.036 -0.372,0.108 -0.096,0.072 -0.144,0.168 -0.144,0.284 0,0.08 0.024,0.144 0.072,0.197 0.048,0.052 0.108,0.1 0.188,0.136 0.076,0.04 0.164,0.072 0.264,0.1 0.096,0.028 0.196,0.056 0.292,0.088 0.385,0.128 0.665,0.3 0.841,0.512 0.18,0.216 0.268,0.496 0.268,0.84 0,0.232 -0.04,0.44 -0.116,0.628 -0.08,0.189 -0.192,0.349 -0.344,0.485 -0.148,0.132 -0.333,0.236 -0.553,0.312 -0.216,0.072 -0.464,0.108 -0.74,0.108 -0.572,0 -1.1,-0.168 -1.589,-0.508 l 0.505,-0.949 c 0.176,0.156 0.348,0.272 0.52,0.348 0.172,0.076 0.344,0.116 0.512,0.116 0.192,0 0.332,-0.044 0.428,-0.132 0.092,-0.088 0.14,-0.188 0.14,-0.3 0,-0.068 -0.012,-0.128 -0.036,-0.18 -0.024,-0.048 -0.064,-0.096 -0.12,-0.136 -0.056,-0.044 -0.128,-0.08 -0.22,-0.116 -0.088,-0.036 -0.196,-0.076 -0.324,-0.12 -0.152,-0.048 -0.3,-0.104 -0.448,-0.16 -0.144,-0.06 -0.276,-0.136 -0.388,-0.232 -0.116,-0.096 -0.208,-0.216 -0.276,-0.36 -0.072,-0.148 -0.108,-0.332 -0.108,-0.557 0,-0.224 0.04,-0.428 0.112,-0.608 0.076,-0.184 0.18,-0.34 0.312,-0.468 0.136,-0.132 0.3,-0.232 0.492,-0.304 0.192,-0.072 0.412,-0.108 0.652,-0.108 0.224,0 0.456,0.032 0.7,0.092 0.245,0.064 0.481,0.152 0.705,0.272 z"
   id="path7659" /><path
   inkscape:connector-curvature="0"
   style="fill:#dadada;fill-rule:nonzero;fill-opacity:1"
   d="m 121.195,273.105 h -1.4 v 0.757 h 1.32 v 0.996 h -1.32 v 0.78 h 1.4 v 0.997 h -2.577 v -4.526 h 2.577 z"
   id="path7661" /><path
   inkscape:connector-curvature="0"
   style="fill:#dadada;fill-rule:nonzero;fill-opacity:1"
   d="m 123.216,272.109 v 3.529 h 1.409 v 0.997 h -2.585 v -4.526 z"
   id="path7663" /><path
   inkscape:connector-curvature="0"
   style="fill:#dadada;fill-rule:nonzero;fill-opacity:1"
   d="m 127.806,273.105 h -1.397 v 0.757 h 1.317 v 0.996 h -1.317 v 0.78 h 1.397 v 0.997 h -2.573 v -4.526 h 2.573 z"
   id="path7665" /><path
   inkscape:connector-curvature="0"
   style="fill:#dadada;fill-rule:nonzero;fill-opacity:1"
   d="m 131.912,273.622 c -0.272,-0.333 -0.609,-0.497 -1.009,-0.497 -0.176,0 -0.34,0.032 -0.492,0.096 -0.148,0.064 -0.276,0.152 -0.384,0.26 -0.108,0.113 -0.192,0.241 -0.256,0.393 -0.06,0.152 -0.092,0.316 -0.092,0.492 0,0.18 0.032,0.348 0.092,0.5 0.064,0.152 0.148,0.284 0.26,0.396 0.108,0.112 0.236,0.2 0.384,0.264 0.148,0.064 0.308,0.096 0.48,0.096 0.376,0 0.717,-0.16 1.017,-0.48 v 1.393 l -0.12,0.04 c -0.18,0.064 -0.349,0.112 -0.505,0.14 -0.156,0.032 -0.312,0.044 -0.464,0.044 -0.312,0 -0.612,-0.056 -0.896,-0.176 -0.284,-0.116 -0.536,-0.284 -0.756,-0.496 -0.217,-0.217 -0.393,-0.469 -0.525,-0.765 -0.132,-0.292 -0.2,-0.612 -0.2,-0.96 0,-0.348 0.068,-0.668 0.196,-0.957 0.132,-0.292 0.304,-0.54 0.525,-0.752 0.216,-0.208 0.468,-0.372 0.756,-0.492 0.288,-0.116 0.592,-0.176 0.908,-0.176 0.18,0 0.356,0.02 0.528,0.056 0.176,0.04 0.361,0.096 0.553,0.176 z"
   id="path7667" /><path
   inkscape:connector-curvature="0"
   style="fill:#dadada;fill-rule:nonzero;fill-opacity:1"
   d="m 134.369,273.105 v 3.53 h -1.177 v -3.53 h -0.964 v -0.996 h 3.109 v 0.996 z"
   id="path7669" /><rect
   style="fill:#ffffff"
   height="4.526"
   width="1.176"
   y="294.203"
   x="31.941"
   id="rect7673" /><path
   inkscape:connector-curvature="0"
   style="fill:#ffffff;fill-rule:nonzero"
   d="m 34.066,298.729 v -4.526 h 1.177 l 2.173,2.769 v -2.769 h 1.168 v 4.526 h -1.168 l -2.173,-2.765 v 2.765 z"
   id="path7675" /><path
   inkscape:connector-curvature="0"
   style="fill:#ffffff;fill-rule:nonzero"
   d="m 40.709,297.732 h 0.272 c 0.2,0 0.384,-0.032 0.544,-0.096 0.16,-0.064 0.296,-0.152 0.404,-0.264 0.112,-0.112 0.197,-0.244 0.253,-0.4 0.06,-0.152 0.088,-0.32 0.088,-0.504 0,-0.18 -0.032,-0.348 -0.092,-0.504 -0.06,-0.156 -0.145,-0.292 -0.253,-0.405 -0.112,-0.112 -0.248,-0.2 -0.408,-0.264 -0.16,-0.064 -0.34,-0.096 -0.536,-0.096 h -0.272 z m -1.177,-3.529 h 1.741 c 0.308,0 0.596,0.064 0.869,0.188 0.268,0.124 0.504,0.288 0.708,0.496 0.2,0.204 0.36,0.444 0.476,0.721 0.116,0.272 0.172,0.56 0.172,0.86 0,0.296 -0.056,0.58 -0.168,0.852 -0.116,0.276 -0.272,0.516 -0.476,0.725 -0.2,0.208 -0.436,0.376 -0.708,0.5 -0.269,0.124 -0.561,0.184 -0.873,0.184 h -1.741 z"
   id="path7677" /><rect
   style="fill:#ffffff"
   height="4.526"
   width="1.176"
   y="294.203"
   x="44.25"
   id="rect7679" /><path
   inkscape:connector-curvature="0"
   style="fill:#ffffff;fill-rule:nonzero"
   d="m 47.176,294.203 1.092,2.757 1.101,-2.757 h 1.276 l -1.909,4.526 H 47.8 l -1.901,-4.526 z"
   id="path7681" /><rect
   style="fill:#ffffff"
   height="4.526"
   width="1.176"
   y="294.203"
   x="51.117001"
   id="rect7683" /><path
   inkscape:connector-curvature="0"
   style="fill:#ffffff;fill-rule:nonzero"
   d="m 54.419,297.732 h 0.272 c 0.204,0 0.384,-0.032 0.544,-0.096 0.16,-0.064 0.296,-0.152 0.404,-0.264 0.112,-0.112 0.196,-0.244 0.252,-0.4 0.06,-0.152 0.088,-0.32 0.088,-0.504 0,-0.18 -0.032,-0.348 -0.092,-0.504 -0.06,-0.156 -0.144,-0.292 -0.252,-0.405 -0.112,-0.112 -0.244,-0.2 -0.404,-0.264 -0.16,-0.064 -0.34,-0.096 -0.54,-0.096 h -0.272 z m -1.177,-3.529 h 1.741 c 0.308,0 0.596,0.064 0.868,0.188 0.268,0.124 0.504,0.288 0.709,0.496 0.2,0.204 0.36,0.444 0.476,0.721 0.116,0.272 0.172,0.56 0.172,0.86 0,0.296 -0.056,0.58 -0.168,0.852 -0.116,0.276 -0.272,0.516 -0.476,0.725 -0.201,0.208 -0.437,0.376 -0.709,0.5 -0.268,0.124 -0.56,0.184 -0.872,0.184 h -1.741 z"
   id="path7685" /><path
   inkscape:connector-curvature="0"
   style="fill:#ffffff;fill-rule:nonzero"
   d="m 59.137,294.203 v 2.461 c 0,0.132 0.004,0.268 0.012,0.404 0.012,0.14 0.04,0.264 0.092,0.376 0.048,0.112 0.128,0.204 0.236,0.272 0.108,0.072 0.26,0.108 0.456,0.108 0.196,0 0.348,-0.036 0.452,-0.108 0.108,-0.068 0.184,-0.16 0.236,-0.272 0.052,-0.112 0.084,-0.236 0.096,-0.376 0.008,-0.136 0.012,-0.272 0.012,-0.404 v -2.461 h 1.173 v 2.625 c 0,0.704 -0.16,1.217 -0.484,1.541 -0.321,0.324 -0.817,0.484 -1.485,0.484 -0.668,0 -1.165,-0.16 -1.489,-0.484 -0.324,-0.324 -0.484,-0.837 -0.484,-1.541 v -2.625 z"
   id="path7687" /><path
   inkscape:connector-curvature="0"
   style="fill:#ffffff;fill-rule:nonzero"
   d="m 65.159,297.048 -0.528,-1.505 -0.528,1.505 z m 0.312,0.896 h -1.68 l -0.269,0.785 h -1.256 l 1.725,-4.526 h 1.28 l 1.725,4.526 h -1.257 z"
   id="path7689" /><path
   inkscape:connector-curvature="0"
   style="fill:#ffffff;fill-rule:nonzero"
   d="m 68.689,294.203 v 3.529 h 1.408 v 0.997 h -2.585 v -4.526 z"
   id="path7691" /><rect
   style="fill:#ffffff"
   height="4.526"
   width="1.176"
   y="305.383"
   x="31.995001"
   id="rect7695" /><path
   inkscape:connector-curvature="0"
   style="fill:#ffffff;fill-rule:nonzero"
   d="m 34.12,309.909 v -4.526 h 1.177 l 2.173,2.769 v -2.769 h 1.168 v 4.526 H 37.47 l -2.173,-2.765 v 2.765 z"
   id="path7697" /><path
   inkscape:connector-curvature="0"
   style="fill:#ffffff;fill-rule:nonzero"
   d="m 40.391,305.383 1.092,2.757 1.097,-2.757 h 1.28 l -1.908,4.526 h -0.937 l -1.901,-4.526 z"
   id="path7699" /><path
   inkscape:connector-curvature="0"
   style="fill:#ffffff;fill-rule:nonzero"
   d="m 46.906,306.379 h -1.397 v 0.757 h 1.321 v 0.996 h -1.321 v 0.78 h 1.397 v 0.997 h -2.573 v -4.526 h 2.573 z"
   id="path7701" /><path
   inkscape:connector-curvature="0"
   style="fill:#ffffff;fill-rule:nonzero"
   d="m 48.93,307.408 h 0.221 c 0.232,0 0.412,-0.048 0.536,-0.144 0.124,-0.096 0.184,-0.236 0.184,-0.416 0,-0.181 -0.06,-0.317 -0.184,-0.413 -0.124,-0.096 -0.304,-0.144 -0.536,-0.144 H 48.93 Z m 2.585,2.501 h -1.464 l -1.121,-1.741 v 1.741 h -1.176 v -4.526 h 1.829 c 0.252,0 0.472,0.04 0.66,0.112 0.188,0.076 0.344,0.176 0.464,0.304 0.124,0.128 0.216,0.276 0.276,0.444 0.064,0.168 0.092,0.348 0.092,0.541 0,0.344 -0.08,0.624 -0.248,0.836 -0.164,0.212 -0.408,0.36 -0.732,0.436 z"
   id="path7703" /><path
   inkscape:connector-curvature="0"
   style="fill:#ffffff;fill-rule:nonzero"
   d="m 54.493,306.543 c -0.128,-0.104 -0.256,-0.18 -0.384,-0.232 -0.128,-0.048 -0.253,-0.076 -0.373,-0.076 -0.152,0 -0.276,0.036 -0.372,0.108 -0.096,0.072 -0.144,0.168 -0.144,0.284 0,0.08 0.024,0.144 0.072,0.197 0.048,0.052 0.108,0.1 0.188,0.136 0.076,0.04 0.164,0.072 0.264,0.1 0.096,0.028 0.196,0.056 0.293,0.088 0.384,0.128 0.664,0.3 0.84,0.512 0.18,0.216 0.268,0.496 0.268,0.84 0,0.232 -0.04,0.44 -0.116,0.628 -0.08,0.189 -0.192,0.349 -0.344,0.485 -0.148,0.132 -0.332,0.236 -0.552,0.312 -0.217,0.072 -0.465,0.108 -0.741,0.108 -0.572,0 -1.1,-0.168 -1.588,-0.508 l 0.504,-0.949 c 0.176,0.156 0.348,0.272 0.52,0.348 0.172,0.076 0.344,0.116 0.512,0.116 0.192,0 0.332,-0.044 0.428,-0.132 0.092,-0.088 0.14,-0.188 0.14,-0.3 0,-0.068 -0.012,-0.128 -0.036,-0.18 -0.024,-0.048 -0.064,-0.096 -0.12,-0.136 -0.056,-0.044 -0.128,-0.08 -0.22,-0.116 -0.088,-0.036 -0.196,-0.076 -0.324,-0.12 -0.152,-0.048 -0.3,-0.104 -0.448,-0.16 -0.144,-0.06 -0.276,-0.136 -0.388,-0.232 -0.116,-0.096 -0.208,-0.216 -0.276,-0.36 -0.072,-0.148 -0.108,-0.332 -0.108,-0.557 0,-0.224 0.04,-0.428 0.112,-0.608 0.076,-0.184 0.18,-0.34 0.312,-0.468 0.136,-0.132 0.3,-0.232 0.492,-0.304 0.196,-0.072 0.412,-0.108 0.652,-0.108 0.224,0 0.457,0.032 0.701,0.092 0.244,0.064 0.48,0.152 0.704,0.272 z"
   id="path7705" /><path
   inkscape:connector-curvature="0"
   style="fill:#ffffff;fill-rule:nonzero"
   d="m 58.458,306.379 h -1.4 v 0.757 h 1.32 v 0.996 h -1.32 v 0.78 h 1.4 v 0.997 h -2.577 v -4.526 h 2.577 z"
   id="path7707" /><path
   inkscape:connector-curvature="0"
   style="fill:#111717;stroke:#3b5858;stroke-width:1px;stroke-miterlimit:1.41420996"
   d="m 143.249,323.674 c 0,-3.321 -2.697,-6.018 -6.018,-6.018 H 90.085 c -3.321,0 -6.018,2.697 -6.018,6.018 v 31.59 c 0,3.322 2.697,6.019 6.018,6.019 h 47.146 c 3.321,0 6.018,-2.697 6.018,-6.019 z"
   id="path7711" /><rect
   style="fill:#ffffff"
   height="6.0349998"
   width="1.569"
   y="353.57501"
   x="25.395"
   id="rect7715" /><path
   inkscape:connector-curvature="0"
   style="fill:#ffffff;fill-rule:nonzero"
   d="m 28.228,359.61 v -6.035 h 1.568 l 2.898,3.69 v -3.69 h 1.56 v 6.035 h -1.56 l -2.898,-3.69 v 3.69 z"
   id="path7717" /><path
   inkscape:connector-curvature="0"
   style="fill:#ffffff;fill-rule:nonzero"
   d="m 37.087,356.344 h 0.521 c 0.576,0 0.864,-0.252 0.864,-0.752 0,-0.5 -0.288,-0.752 -0.864,-0.752 h -0.521 z m 0,3.266 h -1.568 v -6.035 h 2.497 c 0.676,0 1.196,0.176 1.556,0.529 0.361,0.352 0.541,0.848 0.541,1.488 0,0.64 -0.18,1.137 -0.541,1.489 -0.36,0.352 -0.88,0.528 -1.556,0.528 h -0.929 z"
   id="path7719" /><path
   inkscape:connector-curvature="0"
   style="fill:#ffffff;fill-rule:nonzero"
   d="m 42.514,353.575 v 3.282 c 0,0.176 0.008,0.356 0.02,0.54 0.012,0.184 0.052,0.352 0.12,0.5 0.068,0.148 0.172,0.272 0.316,0.364 0.144,0.092 0.348,0.14 0.608,0.14 0.26,0 0.464,-0.048 0.604,-0.14 0.14,-0.092 0.248,-0.216 0.316,-0.364 0.069,-0.148 0.113,-0.316 0.125,-0.5 0.012,-0.184 0.02,-0.364 0.02,-0.54 v -3.282 h 1.56 v 3.498 c 0,0.94 -0.216,1.624 -0.644,2.057 -0.428,0.432 -1.089,0.648 -1.981,0.648 -0.892,0 -1.553,-0.216 -1.985,-0.648 -0.432,-0.433 -0.648,-1.117 -0.648,-2.057 v -3.498 z"
   id="path7721" /><path
   inkscape:connector-curvature="0"
   style="fill:#ffffff;fill-rule:nonzero"
   d="m 49.757,354.904 v 4.706 h -1.569 v -4.706 h -1.289 v -1.329 h 4.146 v 1.329 z"
   id="path7723" /><path
   inkscape:connector-curvature="0"
   style="fill:#ffffff;fill-rule:nonzero"
   d="m 98.235,356.593 c 0,0.24 0.044,0.464 0.136,0.664 0.088,0.204 0.212,0.38 0.368,0.528 0.152,0.152 0.332,0.264 0.54,0.348 0.204,0.084 0.42,0.124 0.653,0.124 0.228,0 0.444,-0.04 0.652,-0.124 0.204,-0.084 0.384,-0.196 0.54,-0.348 0.16,-0.148 0.284,-0.324 0.372,-0.528 0.092,-0.2 0.136,-0.424 0.136,-0.664 0,-0.241 -0.044,-0.461 -0.136,-0.665 -0.088,-0.2 -0.212,-0.376 -0.372,-0.528 -0.156,-0.148 -0.336,-0.264 -0.54,-0.348 -0.208,-0.08 -0.424,-0.124 -0.652,-0.124 -0.233,0 -0.449,0.044 -0.653,0.124 -0.208,0.084 -0.388,0.2 -0.54,0.348 -0.156,0.152 -0.28,0.328 -0.368,0.528 -0.092,0.204 -0.136,0.424 -0.136,0.665 z m -1.641,0 c 0,-0.449 0.084,-0.865 0.248,-1.253 0.164,-0.384 0.396,-0.72 0.689,-1.008 0.292,-0.289 0.644,-0.517 1.052,-0.677 0.408,-0.164 0.856,-0.244 1.349,-0.244 0.484,0 0.932,0.08 1.34,0.244 0.412,0.16 0.764,0.388 1.061,0.677 0.296,0.288 0.528,0.624 0.692,1.008 0.168,0.388 0.248,0.804 0.248,1.253 0,0.448 -0.08,0.868 -0.248,1.252 -0.164,0.388 -0.396,0.724 -0.692,1.012 -0.297,0.289 -0.649,0.513 -1.061,0.677 -0.408,0.164 -0.856,0.244 -1.34,0.244 -0.493,0 -0.941,-0.08 -1.349,-0.244 -0.408,-0.164 -0.76,-0.388 -1.052,-0.677 -0.293,-0.288 -0.525,-0.624 -0.689,-1.012 -0.164,-0.384 -0.248,-0.804 -0.248,-1.252 z"
   id="path7728" /><path
   inkscape:connector-curvature="0"
   style="fill:#ffffff;fill-rule:nonzero"
   d="m 105.834,353.579 v 3.278 c 0,0.176 0.008,0.356 0.02,0.54 0.012,0.184 0.052,0.352 0.12,0.5 0.068,0.148 0.172,0.272 0.316,0.364 0.144,0.092 0.348,0.14 0.608,0.14 0.261,0 0.465,-0.048 0.605,-0.14 0.14,-0.092 0.244,-0.216 0.316,-0.364 0.068,-0.148 0.108,-0.316 0.124,-0.5 0.012,-0.184 0.02,-0.364 0.02,-0.54 v -3.278 h 1.561 v 3.494 c 0,0.94 -0.217,1.624 -0.645,2.057 -0.432,0.432 -1.092,0.648 -1.981,0.648 -0.892,0 -1.552,-0.216 -1.984,-0.648 -0.433,-0.433 -0.649,-1.117 -0.649,-2.057 v -3.494 z"
   id="path7730" /><path
   inkscape:connector-curvature="0"
   style="fill:#ffffff;fill-rule:nonzero"
   d="m 113.073,354.904 v 4.706 h -1.569 v -4.706 h -1.284 v -1.325 h 4.142 v 1.325 z"
   id="path7732" /><path
   inkscape:connector-curvature="0"
   style="fill:#ffffff;fill-rule:nonzero"
   d="m 116.626,356.344 h 0.521 c 0.576,0 0.864,-0.248 0.864,-0.752 0,-0.5 -0.288,-0.752 -0.864,-0.752 h -0.521 z m 0,3.266 h -1.568 v -6.031 h 2.497 c 0.676,0 1.196,0.176 1.556,0.529 0.361,0.352 0.541,0.844 0.541,1.484 0,0.64 -0.18,1.137 -0.541,1.489 -0.36,0.352 -0.88,0.528 -1.556,0.528 h -0.929 z"
   id="path7734" /><path
   inkscape:connector-curvature="0"
   style="fill:#ffffff;fill-rule:nonzero"
   d="m 122.049,353.579 v 3.278 c 0,0.176 0.008,0.356 0.02,0.54 0.016,0.184 0.056,0.352 0.12,0.5 0.068,0.148 0.172,0.272 0.316,0.364 0.144,0.092 0.348,0.14 0.608,0.14 0.264,0 0.464,-0.048 0.604,-0.14 0.14,-0.092 0.249,-0.216 0.317,-0.364 0.068,-0.148 0.112,-0.316 0.124,-0.5 0.012,-0.184 0.02,-0.364 0.02,-0.54 v -3.278 h 1.56 v 3.494 c 0,0.94 -0.216,1.624 -0.644,2.057 -0.428,0.432 -1.088,0.648 -1.981,0.648 -0.888,0 -1.552,-0.216 -1.985,-0.648 -0.432,-0.433 -0.648,-1.117 -0.648,-2.057 v -3.494 z"
   id="path7736" /><path
   inkscape:connector-curvature="0"
   style="fill:#ffffff;fill-rule:nonzero"
   d="m 129.292,354.904 v 4.706 h -1.569 v -4.706 h -1.288 v -1.325 h 4.141 v 1.325 z"
   id="path7738" /><path
   inkscape:connector-curvature="0"
   style="fill:#f5f5f5;fill-rule:nonzero;fill-opacity:1"
   d="m 22.714,319.474 v 3.529 h 1.412 V 324 h -2.589 v -4.526 z"
   id="path7743" /><path
   inkscape:connector-curvature="0"
   style="fill:#f5f5f5;fill-rule:nonzero;fill-opacity:1"
   d="m 51.714,321.499 h 0.224 c 0.232,0 0.408,-0.048 0.532,-0.144 0.124,-0.096 0.188,-0.236 0.188,-0.416 0,-0.181 -0.064,-0.317 -0.188,-0.413 -0.124,-0.096 -0.3,-0.144 -0.532,-0.144 H 51.714 Z M 54.303,324 h -1.465 l -1.124,-1.741 V 324 h -1.177 v -4.526 h 1.833 c 0.252,0 0.472,0.04 0.66,0.112 0.188,0.076 0.34,0.176 0.464,0.304 0.12,0.128 0.213,0.276 0.277,0.444 0.06,0.168 0.092,0.348 0.092,0.541 0,0.344 -0.084,0.624 -0.249,0.836 -0.168,0.212 -0.412,0.36 -0.736,0.436 z"
   id="path7747" /><path
   inkscape:connector-curvature="0"
   style="fill:#8c8c8c;fill-rule:nonzero"
   d="m 99.714,319.474 v 3.529 h 1.412 V 324 h -2.589 v -4.526 z"
   id="path7751" /><path
   inkscape:connector-curvature="0"
   style="fill:#8c8c8c;fill-rule:nonzero"
   d="m 125.714,321.499 h 0.224 c 0.232,0 0.408,-0.048 0.532,-0.144 0.124,-0.096 0.188,-0.236 0.188,-0.416 0,-0.181 -0.064,-0.317 -0.188,-0.413 -0.124,-0.096 -0.3,-0.144 -0.532,-0.144 h -0.224 z m 2.589,2.501 h -1.465 l -1.124,-1.741 V 324 h -1.177 v -4.526 h 1.833 c 0.252,0 0.472,0.04 0.66,0.112 0.188,0.076 0.34,0.176 0.464,0.304 0.12,0.128 0.213,0.276 0.277,0.444 0.06,0.168 0.092,0.348 0.092,0.541 0,0.344 -0.084,0.624 -0.249,0.836 -0.168,0.212 -0.412,0.36 -0.736,0.436 z"
   id="path7755" /><path
   inkscape:connector-curvature="0"
   style="stroke:#0d0d0d;stroke-width:0.99000001px;stroke-linecap:round;stroke-linejoin:round;stroke-miterlimit:1.5"
   d="m 134.026,243.453 c 0,-1.354 -1.099,-2.452 -2.451,-2.452 H 18.477 c -1.353,0 -2.451,1.098 -2.451,2.452 v 25.095 c 0,1.354 1.098,2.452 2.451,2.452 h 113.098 c 1.352,0 2.451,-1.098 2.451,-2.452 z"
   id="path7759" /><path
   inkscape:connector-curvature="0"
   style="fill:none;stroke:#404040;stroke-width:0.5px;stroke-linecap:round;stroke-linejoin:round;stroke-miterlimit:1.5;stroke-opacity:0.46666703"
   d="M 17.533,228.188 H 132.826"
   id="path7763" /><path
   inkscape:connector-curvature="0"
   style="fill:none;stroke:#404040;stroke-width:0.5px;stroke-linecap:round;stroke-linejoin:round;stroke-miterlimit:1.5;stroke-opacity:0.46666703"
   d="M 17.533,269.812 H 132.826"
   id="path7767" /><path
   inkscape:connector-curvature="0"
   style="fill:none;stroke:#808080;stroke-width:0.99000001px;stroke-linecap:round;stroke-linejoin:round;stroke-miterlimit:1.5"
   d="m 133.302,244.126 c 0,-1.28 -1.04,-2.318 -2.319,-2.318 H 19.104 c -1.279,0 -2.319,1.038 -2.319,2.318 v 23.726 c 0,1.28 1.04,2.318 2.319,2.318 h 111.879 c 1.279,0 2.319,-1.038 2.319,-2.318 z"
   id="path7771" /><path
   inkscape:connector-curvature="0"
   style="fill:none;stroke:#595959;stroke-width:1px;stroke-linecap:round;stroke-linejoin:round;stroke-miterlimit:1.5"
   d="m 55.462,245.044 v 21.387"
   id="path7853" /><path
   inkscape:connector-curvature="0"
   id="path2536"
   style="fill:none;stroke:#8d573b;stroke-width:3px;stroke-linejoin:round;stroke-miterlimit:1.5"
   d="M 19.504,211 V 174 L 36.217,154.549 H 61.504" /><path
   inkscape:connector-curvature="0"
   id="path2538"
   style="fill:none;stroke:#3b538d;stroke-width:3px;stroke-linejoin:round;stroke-miterlimit:1.5"
   d="m 20.091,146.716 v -27.238 l 16.626,-14.213 v -33" /><path
   inkscape:connector-curvature="0"
   id="path2540"
   style="fill:none;stroke:#3b8d5a;stroke-width:3px;stroke-linejoin:round;stroke-miterlimit:1.5"
   d="m 130.717,146.716 v -27.238 l -16.626,-14.213 v -33" /><path
   inkscape:connector-curvature="0"
   id="path2542"
   style="fill:none;stroke:#8d573b;stroke-width:3px;stroke-linejoin:round;stroke-miterlimit:1.5"
   d="M 131,211 V 174 L 114.287,154.549 H 89" /><path
   inkscape:connector-curvature="0"
   id="path2544"
   style="fill:none;stroke:#8d573b;stroke-width:3px;stroke-linejoin:round;stroke-miterlimit:1.5"
   d="M 75,216.226 V 159.549" /><path
   inkscape:connector-curvature="0"
   style="fill:none;stroke:#cccccc;stroke-width:1.5px;stroke-linecap:round;stroke-miterlimit:4"
   d="m 104.239,155.173 c 8.221,-14.243 5.003,-32.509 -7.595,-43.081 -12.597,-10.566 -31.149,-10.566 -43.747,0 -12.597,10.572 -15.815,28.838 -7.594,43.081"
   id="path7458" /><circle
   style="fill:none;stroke:#cccccc;stroke-width:1px;stroke-miterlimit:4"
   r="3.7060001"
   cy="164.44"
   cx="45.673"
   id="circle7461" /><circle
   style="fill:#cccccc;stroke:#cccccc;stroke-width:1px;stroke-miterlimit:4"
   r="3.7060001"
   cy="163.92799"
   cx="104.452"
   id="circle7464" /><g
   id="g2558">
      <path
   inkscape:connector-curvature="0"
   style="fill:#ffffff;fill-rule:nonzero"
   d="m 12.29,97.238 h 0.296 c 0.308,0 0.548,-0.064 0.712,-0.192 0.164,-0.128 0.248,-0.313 0.248,-0.553 0,-0.24 -0.084,-0.424 -0.248,-0.552 -0.164,-0.128 -0.404,-0.192 -0.712,-0.192 H 12.29 Z m 3.449,3.337 H 13.787 L 12.29,98.254 v 2.321 h -1.569 v -6.034 h 2.441 c 0.336,0 0.629,0.048 0.881,0.148 0.252,0.1 0.456,0.232 0.62,0.404 0.164,0.172 0.284,0.368 0.368,0.592 0.084,0.224 0.124,0.464 0.124,0.72 0,0.461 -0.112,0.833 -0.332,1.117 -0.22,0.284 -0.548,0.48 -0.98,0.58 z"
   id="path7467" />
      <path
   inkscape:connector-curvature="0"
   style="fill:#ffffff;fill-rule:nonzero"
   d="m 19.829,95.869 h -1.865 v 1.009 h 1.761 v 1.328 h -1.761 v 1.041 h 1.865 v 1.328 h -3.433 v -6.034 h 3.433 z"
   id="path7469" />
      <path
   inkscape:connector-curvature="0"
   style="fill:#ffffff;fill-rule:nonzero"
   d="m 24.271,96.085 c -0.172,-0.14 -0.34,-0.24 -0.512,-0.308 -0.172,-0.068 -0.336,-0.1 -0.496,-0.1 -0.205,0 -0.369,0.048 -0.497,0.144 -0.128,0.096 -0.192,0.22 -0.192,0.376 0,0.108 0.032,0.196 0.096,0.264 0.064,0.068 0.148,0.128 0.252,0.18 0.104,0.052 0.22,0.096 0.353,0.132 0.132,0.036 0.26,0.077 0.388,0.121 0.512,0.172 0.888,0.4 1.124,0.684 0.236,0.284 0.356,0.656 0.356,1.116 0,0.308 -0.052,0.589 -0.156,0.841 -0.104,0.252 -0.256,0.464 -0.456,0.644 -0.2,0.18 -0.444,0.316 -0.736,0.416 -0.292,0.1 -0.621,0.148 -0.989,0.148 -0.764,0 -1.468,-0.228 -2.121,-0.68 l 0.673,-1.265 c 0.236,0.208 0.468,0.364 0.696,0.465 0.228,0.1 0.456,0.152 0.68,0.152 0.256,0 0.448,-0.06 0.573,-0.176 0.124,-0.117 0.188,-0.253 0.188,-0.401 0,-0.092 -0.016,-0.168 -0.048,-0.236 -0.032,-0.068 -0.084,-0.128 -0.16,-0.184 -0.077,-0.056 -0.173,-0.108 -0.293,-0.156 -0.12,-0.048 -0.264,-0.1 -0.436,-0.16 -0.204,-0.064 -0.4,-0.136 -0.596,-0.212 -0.196,-0.076 -0.368,-0.18 -0.52,-0.308 -0.152,-0.128 -0.276,-0.288 -0.368,-0.484 -0.092,-0.196 -0.14,-0.441 -0.14,-0.741 0,-0.3 0.048,-0.568 0.148,-0.812 0.1,-0.244 0.236,-0.452 0.416,-0.624 0.18,-0.172 0.396,-0.308 0.656,-0.404 0.26,-0.096 0.548,-0.145 0.868,-0.145 0.301,0 0.613,0.04 0.937,0.125 0.324,0.084 0.636,0.204 0.936,0.364 z"
   id="path7471" />
      <path
   inkscape:connector-curvature="0"
   style="fill:#ffffff;fill-rule:nonzero"
   d="m 27.496,97.558 c 0,0.24 0.044,0.46 0.136,0.664 0.092,0.204 0.212,0.38 0.368,0.528 0.157,0.148 0.337,0.264 0.541,0.348 0.204,0.084 0.424,0.124 0.652,0.124 0.228,0 0.448,-0.04 0.652,-0.124 0.204,-0.084 0.388,-0.2 0.544,-0.348 0.157,-0.148 0.281,-0.324 0.373,-0.528 0.092,-0.204 0.136,-0.424 0.136,-0.664 0,-0.24 -0.044,-0.46 -0.136,-0.664 -0.092,-0.205 -0.216,-0.381 -0.373,-0.529 -0.156,-0.148 -0.34,-0.264 -0.544,-0.348 -0.204,-0.084 -0.424,-0.124 -0.652,-0.124 -0.228,0 -0.448,0.04 -0.652,0.124 -0.204,0.084 -0.384,0.2 -0.541,0.348 -0.156,0.148 -0.276,0.324 -0.368,0.529 -0.092,0.204 -0.136,0.424 -0.136,0.664 z m -1.64,0 c 0,-0.448 0.084,-0.865 0.248,-1.253 0.164,-0.388 0.396,-0.724 0.688,-1.012 0.292,-0.288 0.644,-0.512 1.052,-0.676 0.409,-0.164 0.857,-0.245 1.349,-0.245 0.484,0 0.932,0.081 1.345,0.245 0.412,0.164 0.764,0.388 1.06,0.676 0.296,0.288 0.528,0.624 0.692,1.012 0.164,0.388 0.248,0.805 0.248,1.253 0,0.448 -0.084,0.864 -0.248,1.252 -0.164,0.388 -0.396,0.725 -0.692,1.013 -0.296,0.288 -0.648,0.512 -1.06,0.676 -0.413,0.164 -0.861,0.244 -1.345,0.244 -0.492,0 -0.94,-0.08 -1.349,-0.244 -0.408,-0.164 -0.76,-0.388 -1.052,-0.676 C 26.5,99.535 26.268,99.198 26.104,98.81 25.94,98.422 25.856,98.006 25.856,97.558 Z"
   id="path7473" />
      <path
   inkscape:connector-curvature="0"
   style="fill:#ffffff;fill-rule:nonzero"
   d="m 33.531,100.575 v -6.034 h 1.568 l 2.898,3.689 v -3.689 h 1.56 v 6.034 h -1.56 l -2.898,-3.689 v 3.689 z"
   id="path7475" />
      <path
   inkscape:connector-curvature="0"
   style="fill:#ffffff;fill-rule:nonzero"
   d="m 44.119,98.334 -0.704,-2.009 -0.704,2.009 z m 0.416,1.193 h -2.241 l -0.36,1.048 h -1.672 l 2.297,-6.034 h 1.712 l 2.297,6.034 h -1.673 z"
   id="path7477" />
      <path
   inkscape:connector-curvature="0"
   style="fill:#ffffff;fill-rule:nonzero"
   d="m 47.256,100.575 v -6.034 h 1.569 l 2.897,3.689 v -3.689 h 1.561 v 6.034 h -1.561 l -2.897,-3.689 v 3.689 z"
   id="path7479" />
      <path
   inkscape:connector-curvature="0"
   style="fill:#ffffff;fill-rule:nonzero"
   d="m 58.973,96.557 c -0.364,-0.444 -0.812,-0.664 -1.344,-0.664 -0.236,0 -0.452,0.044 -0.653,0.128 -0.2,0.084 -0.372,0.2 -0.516,0.348 -0.144,0.148 -0.256,0.32 -0.34,0.525 -0.084,0.204 -0.124,0.42 -0.124,0.656 0,0.24 0.04,0.46 0.124,0.664 0.084,0.204 0.196,0.38 0.344,0.528 0.148,0.148 0.32,0.268 0.516,0.352 0.197,0.084 0.413,0.128 0.641,0.128 0.5,0 0.952,-0.212 1.352,-0.64 v 1.857 l -0.16,0.056 c -0.24,0.084 -0.464,0.148 -0.672,0.188 -0.208,0.04 -0.412,0.06 -0.616,0.06 -0.416,0 -0.817,-0.08 -1.197,-0.236 -0.38,-0.156 -0.716,-0.38 -1.008,-0.664 -0.292,-0.284 -0.524,-0.625 -0.7,-1.017 -0.177,-0.392 -0.265,-0.82 -0.265,-1.284 0,-0.464 0.088,-0.889 0.261,-1.277 0.172,-0.388 0.404,-0.72 0.696,-1 0.292,-0.28 0.628,-0.5 1.012,-0.656 0.384,-0.156 0.789,-0.237 1.209,-0.237 0.24,0 0.476,0.024 0.708,0.077 0.232,0.052 0.476,0.128 0.732,0.236 z"
   id="path7481" />
      <path
   inkscape:connector-curvature="0"
   style="fill:#ffffff;fill-rule:nonzero"
   d="m 63.399,95.869 h -1.865 v 1.009 h 1.761 v 1.328 h -1.761 v 1.041 h 1.865 v 1.328 h -3.433 v -6.034 h 3.433 z"
   id="path7483" />
    </g><g
   id="g2563">
      <path
   inkscape:connector-curvature="0"
   style="fill:none;stroke:#cccccc;stroke-width:1.5px;stroke-linecap:round;stroke-miterlimit:4"
   d="m 56.76,81.027 c 5.878,-10.185 3.577,-23.246 -5.431,-30.805 -9.007,-7.555 -22.273,-7.555 -31.281,0 -9.007,7.559 -11.308,20.62 -5.43,30.805"
   id="path7488" />
      <circle
   style="fill:none;stroke:#cccccc;stroke-width:1px;stroke-miterlimit:4"
   r="3.7060001"
   cy="90.293999"
   cx="17.549"
   id="circle7491" />
      <circle
   style="fill:#cccccc;stroke:#cccccc;stroke-width:1px;stroke-miterlimit:4"
   r="3.7060001"
   cy="89.781998"
   cx="55.328999"
   id="circle7494" />
    </g><g
   id="g2568">
      <path
   inkscape:connector-curvature="0"
   style="fill:none;stroke:#cccccc;stroke-width:1.5px;stroke-linecap:round;stroke-miterlimit:4"
   d="m 134.76,80.749 c 5.878,-10.184 3.577,-23.246 -5.431,-30.805 -9.007,-7.555 -22.273,-7.555 -31.281,0 -9.007,7.559 -11.308,20.621 -5.43,30.805"
   id="path7499" />
      <circle
   style="fill:none;stroke:#cccccc;stroke-width:1px;stroke-miterlimit:4"
   r="3.7060001"
   cy="90.016998"
   cx="95.549004"
   id="circle7502" />
      <circle
   style="fill:#cccccc;stroke:#cccccc;stroke-width:1px;stroke-miterlimit:4"
   r="3.7060001"
   cy="89.503998"
   cx="133.32899"
   id="circle7505" />
    </g><g
   id="g2575">
      <path
   inkscape:connector-curvature="0"
   style="fill:#ffffff;fill-rule:nonzero"
   d="m 102.66,99.415 h 0.36 c 0.272,0 0.516,-0.044 0.728,-0.128 0.212,-0.085 0.392,-0.205 0.54,-0.353 0.149,-0.148 0.261,-0.328 0.337,-0.532 0.076,-0.204 0.116,-0.432 0.116,-0.676 0,-0.24 -0.04,-0.464 -0.12,-0.672 -0.08,-0.208 -0.192,-0.389 -0.341,-0.537 -0.148,-0.148 -0.328,-0.268 -0.54,-0.352 -0.212,-0.084 -0.452,-0.128 -0.72,-0.128 h -0.36 z m -1.569,-4.706 h 2.321 c 0.412,0 0.796,0.084 1.157,0.248 0.36,0.164 0.676,0.384 0.944,0.66 0.268,0.276 0.48,0.596 0.636,0.96 0.156,0.365 0.232,0.749 0.232,1.149 0,0.396 -0.076,0.776 -0.228,1.14 -0.152,0.364 -0.364,0.689 -0.632,0.965 -0.268,0.276 -0.584,0.5 -0.944,0.664 -0.361,0.164 -0.749,0.248 -1.165,0.248 h -2.321 z"
   id="path7576" />
      <path
   inkscape:connector-curvature="0"
   style="fill:#ffffff;fill-rule:nonzero"
   d="m 108.95,97.406 h 0.297 c 0.308,0 0.548,-0.064 0.712,-0.192 0.164,-0.128 0.248,-0.312 0.248,-0.553 0,-0.24 -0.084,-0.424 -0.248,-0.552 -0.164,-0.128 -0.404,-0.192 -0.712,-0.192 h -0.297 z m 3.45,3.337 h -1.953 l -1.497,-2.321 v 2.321 h -1.568 v -6.034 h 2.441 c 0.336,0 0.628,0.048 0.88,0.148 0.252,0.1 0.456,0.232 0.62,0.404 0.164,0.172 0.285,0.368 0.369,0.592 0.084,0.224 0.124,0.464 0.124,0.72 0,0.461 -0.112,0.833 -0.333,1.117 -0.22,0.284 -0.548,0.48 -0.98,0.58 z"
   id="path7578" />
      <rect
   style="fill:#ffffff"
   height="6.0349998"
   width="1.569"
   y="94.709"
   x="113.056"
   id="rect7580" />
      <path
   inkscape:connector-curvature="0"
   style="fill:#ffffff;fill-rule:nonzero"
   d="m 116.962,94.709 1.456,3.673 1.465,-3.673 h 1.705 l -2.545,6.034 h -1.249 l -2.537,-6.034 z"
   id="path7582" />
      <path
   inkscape:connector-curvature="0"
   style="fill:#ffffff;fill-rule:nonzero"
   d="m 125.653,96.037 h -1.864 v 1.009 h 1.76 v 1.328 h -1.76 v 1.041 h 1.864 v 1.328 h -3.433 v -6.034 h 3.433 z"
   id="path7584" />
    </g><g
   id="g2582">
      <path
   inkscape:connector-curvature="0"
   style="fill:none;stroke:#cccccc;stroke-width:1px;stroke-linecap:round;stroke-miterlimit:4"
   d="m 140.699,201.972 c 2.737,-4.742 1.665,-10.825 -2.533,-14.346 -4.193,-3.522 -10.372,-3.522 -14.566,0 -4.197,3.521 -5.27,9.604 -2.533,14.346 l 9.816,-5.666 z"
   id="path7777" />
      <path
   inkscape:connector-curvature="0"
   style="fill:#cccccc;fill-rule:nonzero;stroke:#cccccc;stroke-width:1px;stroke-linecap:round;stroke-miterlimit:4"
   d="m 140.327,203.168 0.024,4.41"
   id="path7780" />
      <path
   inkscape:connector-curvature="0"
   style="fill:#cccccc;fill-rule:nonzero;stroke:#cccccc;stroke-width:1px;stroke-linecap:round;stroke-miterlimit:4"
   d="m 142.544,205.341 -4.41,0.02"
   id="path7783" />
      <path
   inkscape:connector-curvature="0"
   style="fill:#cccccc;fill-rule:nonzero;stroke:#cccccc;stroke-width:1px;stroke-linecap:round;stroke-miterlimit:4"
   d="m 124.225,205.217 -4.414,0.02"
   id="path7786" />
      <path
   inkscape:connector-curvature="0"
   style="fill:none;stroke:#cccccc;stroke-width:1px;stroke-linecap:round;stroke-miterlimit:4"
   d="M 130.883,196.31 130.859,183"
   id="path7789" />
    </g><g
   id="g2589">
      <path
   inkscape:connector-curvature="0"
   style="fill:none;stroke:#cccccc;stroke-width:1px;stroke-linecap:round;stroke-miterlimit:4"
   d="m 29.652,201.683 c 2.737,-4.742 1.664,-10.825 -2.533,-14.346 -4.194,-3.522 -10.373,-3.522 -14.567,0 -4.197,3.521 -5.27,9.604 -2.533,14.346 l 9.817,-5.667 z"
   id="path7794" />
      <path
   inkscape:connector-curvature="0"
   style="fill:#cccccc;fill-rule:nonzero;stroke:#cccccc;stroke-width:1px;stroke-linecap:round;stroke-miterlimit:4"
   d="m 29.279,202.879 0.024,4.41"
   id="path7797" />
      <path
   inkscape:connector-curvature="0"
   style="fill:#cccccc;fill-rule:nonzero;stroke:#cccccc;stroke-width:1px;stroke-linecap:round;stroke-miterlimit:4"
   d="m 31.496,205.052 -4.409,0.02"
   id="path7800" />
      <path
   inkscape:connector-curvature="0"
   style="fill:#cccccc;fill-rule:nonzero;stroke:#cccccc;stroke-width:1px;stroke-linecap:round;stroke-miterlimit:4"
   d="m 13.177,204.928 -4.414,0.02"
   id="path7803" />
      <path
   inkscape:connector-curvature="0"
   style="fill:none;stroke:#cccccc;stroke-width:1px;stroke-linecap:round;stroke-miterlimit:4"
   d="M 19.836,196.02 19.812,182.711"
   id="path7806" />
    </g><g
   id="g2598">
      <g
   id="g2595">
        <path
   inkscape:connector-curvature="0"
   style="fill:#cccccc;fill-rule:nonzero;stroke:#cccccc;stroke-width:1px;stroke-linecap:round;stroke-miterlimit:4"
   d="m 29.531,127.357 0.024,4.41"
   id="path7809" />
        <path
   inkscape:connector-curvature="0"
   style="fill:#cccccc;fill-rule:nonzero;stroke:#cccccc;stroke-width:1px;stroke-linecap:round;stroke-miterlimit:4"
   d="m 31.748,129.53 -4.41,0.02"
   id="path7812" />
        <path
   inkscape:connector-curvature="0"
   style="fill:#cccccc;fill-rule:nonzero;stroke:#cccccc;stroke-width:1px;stroke-linecap:round;stroke-miterlimit:4"
   d="m 13.429,129.406 -4.414,0.02"
   id="path7815" />
        <path
   inkscape:connector-curvature="0"
   style="fill:none;stroke:#cccccc;stroke-width:1px;stroke-linecap:round;stroke-miterlimit:4"
   d="m 29.904,126.161 c 2.737,-4.742 1.664,-10.825 -2.533,-14.346 -4.194,-3.522 -10.373,-3.522 -14.567,0 -4.197,3.521 -5.27,9.604 -2.533,14.346 l 9.816,-5.667 z"
   id="path7818" />
      </g>
      <path
   inkscape:connector-curvature="0"
   style="fill:none;stroke:#cccccc;stroke-width:1px;stroke-linecap:round;stroke-miterlimit:4"
   d="M 20.087,120.498 20.063,107.189"
   id="path7821" />
    </g><g
   id="text9293-4">
      <path
   inkscape:connector-curvature="0"
   id="path2600"
   style="fill:#ffffff;fill-rule:nonzero"
   d="m 19.996,234.621 -0.616,-1.757 -0.616,1.757 z m 0.364,1.043 H 18.4 l -0.315,0.917 h -1.463 l 2.009,-5.278 h 1.498 l 2.009,5.278 h -1.463 z" />
    </g><g
   serif:id="text9293-4"
   id="text9293-41">
      <path
   inkscape:connector-curvature="0"
   id="path2603"
   style="fill:#ffffff;fill-rule:nonzero"
   d="m 130.498,235.517 h 0.301 c 0.346,0 0.593,-0.045 0.742,-0.133 0.15,-0.089 0.224,-0.231 0.224,-0.427 0,-0.196 -0.074,-0.339 -0.224,-0.427 -0.149,-0.089 -0.396,-0.133 -0.742,-0.133 h -0.301 z m 0,-2.142 h 0.252 c 0.43,0 0.644,-0.171 0.644,-0.511 0,-0.341 -0.214,-0.511 -0.644,-0.511 h -0.252 z m -1.372,-2.072 h 2.044 c 0.486,0 0.854,0.116 1.106,0.35 0.252,0.233 0.378,0.569 0.378,1.008 0,0.266 -0.047,0.486 -0.143,0.661 -0.096,0.175 -0.242,0.323 -0.438,0.445 0.196,0.037 0.363,0.094 0.501,0.171 0.138,0.077 0.25,0.172 0.336,0.284 0.086,0.112 0.148,0.238 0.185,0.378 0.038,0.14 0.056,0.289 0.056,0.448 0,0.247 -0.043,0.466 -0.129,0.658 -0.086,0.191 -0.208,0.352 -0.364,0.483 -0.156,0.13 -0.347,0.228 -0.571,0.294 -0.224,0.065 -0.476,0.098 -0.756,0.098 h -2.205 z" />
    </g><g
   serif:id="text9293-4"
   id="text9293-42">
      <path
   inkscape:connector-curvature="0"
   id="path2606"
   style="fill:#ffffff;fill-rule:nonzero"
   d="m 63.522,174.206 c -0.362,-0.443 -0.811,-0.665 -1.344,-0.665 -0.235,0 -0.452,0.043 -0.652,0.128 -0.201,0.086 -0.373,0.202 -0.517,0.349 -0.144,0.146 -0.257,0.321 -0.34,0.524 -0.083,0.203 -0.124,0.421 -0.124,0.656 0,0.24 0.041,0.462 0.124,0.664 0.083,0.203 0.198,0.379 0.344,0.529 0.147,0.149 0.319,0.266 0.517,0.352 0.197,0.085 0.41,0.128 0.64,0.128 0.501,0 0.952,-0.214 1.352,-0.64 v 1.856 l -0.16,0.056 c -0.24,0.086 -0.464,0.148 -0.672,0.188 -0.208,0.04 -0.414,0.06 -0.616,0.06 -0.416,0 -0.815,-0.078 -1.197,-0.236 -0.381,-0.157 -0.717,-0.378 -1.008,-0.664 -0.291,-0.285 -0.524,-0.624 -0.7,-1.016 -0.177,-0.393 -0.265,-0.821 -0.265,-1.285 0,-0.464 0.087,-0.89 0.261,-1.276 0.173,-0.387 0.405,-0.721 0.696,-1.001 0.291,-0.28 0.628,-0.499 1.012,-0.656 0.384,-0.158 0.787,-0.236 1.209,-0.236 0.24,0 0.476,0.025 0.708,0.076 0.232,0.051 0.476,0.129 0.732,0.236 z" />
      <path
   inkscape:connector-curvature="0"
   id="path2608"
   style="fill:#ffffff;fill-rule:nonzero"
   d="m 66.083,172.189 v 3.281 c 0,0.176 0.007,0.356 0.02,0.54 0.014,0.185 0.054,0.351 0.12,0.501 0.067,0.149 0.173,0.27 0.317,0.364 0.144,0.093 0.346,0.14 0.608,0.14 0.261,0 0.463,-0.047 0.604,-0.14 0.141,-0.094 0.247,-0.215 0.316,-0.364 0.07,-0.15 0.111,-0.316 0.124,-0.501 0.014,-0.184 0.02,-0.364 0.02,-0.54 v -3.281 h 1.561 v 3.497 c 0,0.939 -0.215,1.625 -0.644,2.057 -0.43,0.432 -1.09,0.648 -1.981,0.648 -0.891,0 -1.553,-0.216 -1.985,-0.648 -0.432,-0.432 -0.648,-1.118 -0.648,-2.057 v -3.497 z" />
      <path
   inkscape:connector-curvature="0"
   id="path2610"
   style="fill:#ffffff;fill-rule:nonzero"
   d="m 73.326,173.517 v 4.706 h -1.568 v -4.706 h -1.289 v -1.328 h 4.146 v 1.328 z" />
      <path
   inkscape:connector-curvature="0"
   id="path2612"
   style="fill:#ffffff;fill-rule:nonzero"
   d="m 76.624,175.206 c 0,0.24 0.045,0.462 0.136,0.664 0.091,0.203 0.213,0.379 0.368,0.529 0.155,0.149 0.335,0.265 0.54,0.348 0.206,0.082 0.423,0.124 0.652,0.124 0.23,0 0.447,-0.042 0.653,-0.124 0.205,-0.083 0.387,-0.199 0.544,-0.348 0.157,-0.15 0.281,-0.326 0.372,-0.529 0.091,-0.202 0.136,-0.424 0.136,-0.664 0,-0.24 -0.045,-0.461 -0.136,-0.664 -0.091,-0.203 -0.215,-0.379 -0.372,-0.528 -0.157,-0.15 -0.339,-0.266 -0.544,-0.349 -0.206,-0.082 -0.423,-0.124 -0.653,-0.124 -0.229,0 -0.446,0.042 -0.652,0.124 -0.205,0.083 -0.385,0.199 -0.54,0.349 -0.155,0.149 -0.277,0.325 -0.368,0.528 -0.091,0.203 -0.136,0.424 -0.136,0.664 z m -1.641,0 c 0,-0.448 0.083,-0.866 0.248,-1.252 0.166,-0.387 0.395,-0.725 0.688,-1.013 0.294,-0.288 0.645,-0.513 1.053,-0.676 0.408,-0.163 0.858,-0.244 1.348,-0.244 0.486,0 0.934,0.081 1.345,0.244 0.411,0.163 0.764,0.388 1.06,0.676 0.297,0.288 0.527,0.626 0.693,1.013 0.165,0.386 0.248,0.804 0.248,1.252 0,0.448 -0.083,0.866 -0.248,1.253 -0.166,0.386 -0.396,0.724 -0.693,1.012 -0.296,0.288 -0.649,0.514 -1.06,0.676 -0.411,0.163 -0.859,0.244 -1.345,0.244 -0.49,0 -0.94,-0.081 -1.348,-0.244 -0.408,-0.162 -0.759,-0.388 -1.053,-0.676 -0.293,-0.288 -0.522,-0.626 -0.688,-1.012 -0.165,-0.387 -0.248,-0.805 -0.248,-1.253 z" />
      <path
   inkscape:connector-curvature="0"
   id="path2614"
   style="fill:#ffffff;fill-rule:nonzero"
   d="m 86.116,173.517 h -1.889 v 1.009 h 1.721 v 1.328 h -1.721 v 2.369 h -1.569 v -6.034 h 3.458 z" />
      <path
   inkscape:connector-curvature="0"
   id="path2616"
   style="fill:#ffffff;fill-rule:nonzero"
   d="m 90.51,173.517 h -1.889 v 1.009 h 1.72 v 1.328 h -1.72 v 2.369 h -1.569 v -6.034 h 3.458 z" />
    </g><g
   id="g2624">
      <path
   inkscape:connector-curvature="0"
   style="fill:none;stroke:#cccccc;stroke-width:1px;stroke-linecap:round;stroke-miterlimit:4"
   d="m 84.648,201.683 c 2.737,-4.742 1.665,-10.825 -2.533,-14.346 -4.194,-3.522 -10.373,-3.522 -14.566,0 -4.198,3.521 -5.27,9.604 -2.533,14.346 l 9.816,-5.667 z"
   serif:id="path7777"
   id="path77771" />
      <path
   inkscape:connector-curvature="0"
   style="fill:#cccccc;fill-rule:nonzero;stroke:#cccccc;stroke-width:1px;stroke-linecap:round;stroke-miterlimit:4"
   d="m 86.493,205.052 -4.41,0.02"
   serif:id="path7783"
   id="path77831" />
      <path
   inkscape:connector-curvature="0"
   style="fill:#cccccc;fill-rule:nonzero;stroke:#cccccc;stroke-width:1px;stroke-linecap:round;stroke-miterlimit:4"
   d="m 68.173,204.928 -4.414,0.02"
   serif:id="path7786"
   id="path77861" />
      <path
   inkscape:connector-curvature="0"
   style="fill:#cccccc;fill-rule:nonzero;stroke:#cccccc;stroke-width:1px;stroke-linecap:round;stroke-miterlimit:4"
   d="m 84.276,202.879 0.024,4.41"
   serif:id="path7780"
   id="path77801" />
      <path
   inkscape:connector-curvature="0"
   style="fill:none;stroke:#cccccc;stroke-width:1px;stroke-linecap:round;stroke-miterlimit:4"
   d="M 74.832,196.02 74.808,182.711"
   serif:id="path7789"
   id="path77891" />
    </g><g
   serif:id="text9293-4"
   id="text9293-43">
      <path
   inkscape:connector-curvature="0"
   id="path2626"
   style="fill:#ffffff;fill-rule:nonzero"
   d="m 74.376,233.067 c -0.317,-0.388 -0.709,-0.581 -1.176,-0.581 -0.205,0 -0.396,0.037 -0.571,0.112 -0.175,0.074 -0.325,0.176 -0.451,0.304 -0.126,0.128 -0.225,0.281 -0.298,0.459 -0.072,0.177 -0.108,0.368 -0.108,0.574 0,0.21 0.036,0.403 0.108,0.581 0.073,0.177 0.173,0.331 0.301,0.462 0.129,0.13 0.279,0.233 0.452,0.308 0.173,0.074 0.359,0.112 0.56,0.112 0.439,0 0.833,-0.187 1.183,-0.56 v 1.624 l -0.14,0.049 c -0.21,0.074 -0.406,0.129 -0.588,0.164 -0.182,0.035 -0.362,0.053 -0.539,0.053 -0.364,0 -0.713,-0.069 -1.047,-0.207 -0.333,-0.138 -0.627,-0.331 -0.882,-0.581 -0.254,-0.25 -0.458,-0.546 -0.612,-0.889 -0.154,-0.343 -0.231,-0.717 -0.231,-1.123 0,-0.406 0.076,-0.779 0.227,-1.117 0.152,-0.338 0.355,-0.63 0.609,-0.875 0.255,-0.245 0.55,-0.436 0.886,-0.574 0.336,-0.138 0.688,-0.206 1.057,-0.206 0.21,0 0.416,0.022 0.619,0.066 0.203,0.044 0.417,0.113 0.641,0.207 z" />
      <path
   inkscape:connector-curvature="0"
   id="path2628"
   style="fill:#ffffff;fill-rule:nonzero"
   d="m 76.182,231.303 1.274,3.213 1.281,-3.213 h 1.491 l -2.226,5.278 H 76.91 l -2.219,-5.278 z" />
    </g><g
   id="g2638">
      <g
   id="g2635">
        <path
   inkscape:connector-curvature="0"
   style="fill:#cccccc;fill-rule:nonzero;stroke:#cccccc;stroke-width:1px;stroke-linecap:round;stroke-miterlimit:4"
   d="m 139.531,127.357 0.024,4.41"
   serif:id="path7809"
   id="path78091" />
        <path
   inkscape:connector-curvature="0"
   style="fill:#cccccc;fill-rule:nonzero;stroke:#cccccc;stroke-width:1px;stroke-linecap:round;stroke-miterlimit:4"
   d="m 141.748,129.53 -4.41,0.02"
   serif:id="path7812"
   id="path78121" />
        <path
   inkscape:connector-curvature="0"
   style="fill:#cccccc;fill-rule:nonzero;stroke:#cccccc;stroke-width:1px;stroke-linecap:round;stroke-miterlimit:4"
   d="m 123.429,129.406 -4.414,0.02"
   serif:id="path7815"
   id="path78151" />
        <path
   inkscape:connector-curvature="0"
   style="fill:none;stroke:#cccccc;stroke-width:1px;stroke-linecap:round;stroke-miterlimit:4"
   d="m 139.904,126.161 c 2.737,-4.742 1.664,-10.825 -2.533,-14.346 -4.194,-3.522 -10.373,-3.522 -14.567,0 -4.197,3.521 -5.27,9.604 -2.533,14.346 l 9.816,-5.667 z"
   serif:id="path7818"
   id="path78181" />
      </g>
      <path
   inkscape:connector-curvature="0"
   style="fill:none;stroke:#cccccc;stroke-width:1px;stroke-linecap:round;stroke-miterlimit:4"
   d="m 130.087,120.498 -0.024,-13.309"
   serif:id="path7821"
   id="path78211" />
    </g>
</svg>