<svg width="18px" height="18px" version="1.1" xmlns="http://www.w3.org/2000/svg" xmlns:xlink="http://www.w3.org/1999/xlink" xml:space="preserve" xmlns:serif="http://www.serif.com/" style="fill-rule:evenodd;clip-rule:evenodd;stroke-linejoin:round;stroke-miterlimit:1.41421;">
  <circle id="circle927" cx="9.001" cy="9" r="9" style="fill:rgb(106,105,105);"/>
  <path id="path931" d="M8.602,-0.367c0.134,-0.006 0.269,-0.009 0.404,-0.009c0.136,0 0.271,0.003 0.404,0.009c1.794,1.673 4.08,2.793 6.485,3.173c0.179,0.207 0.349,0.421 0.509,0.644c-0.171,2.468 0.395,4.982 1.603,7.13c-0.048,0.271 -0.109,0.536 -0.179,0.798c-2.007,1.403 -3.592,3.422 -4.492,5.721c-0.236,0.128 -0.478,0.248 -0.728,0.356c-2.33,-0.72 -4.873,-0.72 -7.203,0c-0.25,-0.108 -0.492,-0.228 -0.728,-0.356c-0.9,-2.299 -2.485,-4.318 -4.492,-5.721c-0.07,-0.262 -0.131,-0.527 -0.179,-0.798c1.208,-2.148 1.774,-4.662 1.603,-7.13c0.16,-0.223 0.329,-0.437 0.509,-0.644c2.405,-0.38 4.691,-1.5 6.484,-3.173Z" style="fill:rgb(16,16,16);stroke:rgb(153,153,153);stroke-width:0.8px;"/>
  <ellipse id="ellipse935" cx="9" cy="8.999" rx="6" ry="6" style="fill:rgb(40,40,40);"/>
  <path id="path947" d="M9.967,1.132c0.156,0 0.283,0.169 0.283,0.378l-0.402,1.133l0.032,4.973c0,0.511 -0.497,0.474 -0.88,0.474c0,0 -0.792,0.054 -0.792,-0.458l-0.056,-4.989l-0.402,-1.133c0,-0.209 0.127,-0.378 0.283,-0.378c0,0 0.415,-0.177 0.967,-0.188c0.474,-0.009 0.967,0.188 0.967,0.188Z" style="fill:rgb(235,235,235);"/>
</svg>