<svg width="15px" height="15px" version="1.1" xmlns="http://www.w3.org/2000/svg" xmlns:xlink="http://www.w3.org/1999/xlink" xml:space="preserve" xmlns:serif="http://www.serif.com/" style="fill-rule:evenodd;clip-rule:evenodd;stroke-linejoin:round;stroke-miterlimit:1.41421;">
  <g transform="matrix(1.05116,0,0,1.02304,-0.37886,-0.279945)">
    <path d="M13.22,0.274l0.036,0.002l0.037,0.002l0.036,0.003l0.036,0.004l0.036,0.006l0.035,0.006l0.035,0.007l0.035,0.007l0.034,0.009l0.034,0.009l0.034,0.011l0.034,0.011l0.033,0.012l0.032,0.013l0.033,0.013l0.031,0.015l0.032,0.015l0.031,0.016l0.031,0.016l0.03,0.018l0.03,0.018l0.029,0.018l0.029,0.02l0.028,0.02l0.028,0.021l0.027,0.021l0.027,0.023l0.026,0.022l0.026,0.024l0.025,0.024l0.024,0.025l0.024,0.025l0.024,0.026l0.023,0.026l0.022,0.027l0.021,0.027l0.021,0.029l0.021,0.028l0.019,0.029l0.019,0.03l0.019,0.03l0.017,0.03l0.017,0.031l0.016,0.032l0.016,0.032l0.014,0.032l0.014,0.033l0.014,0.033l0.012,0.034l0.012,0.034l0.01,0.034l0.011,0.035l0.009,0.035l0.008,0.035l0.008,0.036l0.006,0.036l0.006,0.036l0.005,0.037l0.004,0.037l0.004,0.037l0.002,0.037l0.001,0.038l0.001,0.038l0,11.721l-0.001,0.038l-0.001,0.038l-0.002,0.037l-0.004,0.038l-0.004,0.036l-0.005,0.037l-0.006,0.036l-0.006,0.037l-0.008,0.035l-0.008,0.036l-0.009,0.035l-0.011,0.034l-0.01,0.035l-0.012,0.034l-0.012,0.033l-0.014,0.033l-0.014,0.033l-0.014,0.033l-0.016,0.032l-0.016,0.031l-0.017,0.031l-0.017,0.031l-0.019,0.03l-0.019,0.029l-0.019,0.029l-0.021,0.029l-0.021,0.028l-0.021,0.027l-0.022,0.027l-0.023,0.027l-0.024,0.026l-0.024,0.025l-0.024,0.025l-0.025,0.024l-0.026,0.023l-0.026,0.023l-0.027,0.022l-0.027,0.022l-0.028,0.02l-0.028,0.021l-0.029,0.019l-0.029,0.019l-0.03,0.018l-0.03,0.017l-0.031,0.017l-0.031,0.016l-0.032,0.015l-0.031,0.014l-0.033,0.014l-0.032,0.013l-0.033,0.011l-0.034,0.012l-0.034,0.01l-0.034,0.009l-0.034,0.009l-0.035,0.008l-0.035,0.007l-0.035,0.006l-0.036,0.005l-0.036,0.004l-0.036,0.004l-0.037,0.002l-0.036,0.001l-0.037,0.001l-11.408,0l-0.037,-0.001l-0.037,-0.001l-0.036,-0.002l-0.036,-0.004l-0.036,-0.004l-0.036,-0.005l-0.035,-0.006l-0.035,-0.007l-0.035,-0.008l-0.034,-0.009l-0.035,-0.009l-0.033,-0.01l-0.034,-0.012l-0.033,-0.011l-0.033,-0.013l-0.032,-0.014l-0.032,-0.014l-0.031,-0.015l-0.031,-0.016l-0.031,-0.017l-0.03,-0.017l-0.03,-0.018l-0.029,-0.019l-0.029,-0.019l-0.028,-0.021l-0.028,-0.02l-0.027,-0.022l-0.027,-0.022l-0.026,-0.023l-0.026,-0.023l-0.025,-0.024l-0.025,-0.025l-0.024,-0.025l-0.023,-0.026l-0.023,-0.027l-0.022,-0.027l-0.022,-0.027l-0.021,-0.028l-0.02,-0.029l-0.02,-0.029l-0.019,-0.029l-0.018,-0.03l-0.017,-0.031l-0.017,-0.031l-0.016,-0.031l-0.016,-0.032l-0.015,-0.033l-0.014,-0.033l-0.013,-0.033l-0.012,-0.033l-0.012,-0.034l-0.011,-0.035l-0.01,-0.034l-0.009,-0.035l-0.008,-0.036l-0.008,-0.035l-0.007,-0.037l-0.006,-0.036l-0.005,-0.037l-0.004,-0.036l-0.003,-0.038l-0.002,-0.037l-0.002,-0.038l0,-0.038l0,-11.721l0,-0.038l0.002,-0.038l0.002,-0.037l0.003,-0.037l0.004,-0.037l0.005,-0.037l0.006,-0.036l0.007,-0.036l0.008,-0.036l0.008,-0.035l0.009,-0.035l0.01,-0.035l0.011,-0.034l0.012,-0.034l0.012,-0.034l0.013,-0.033l0.014,-0.033l0.015,-0.032l0.016,-0.032l0.016,-0.032l0.017,-0.031l0.017,-0.03l0.018,-0.03l0.019,-0.03l0.02,-0.029l0.02,-0.028l0.021,-0.029l0.022,-0.027l0.022,-0.027l0.023,-0.026l0.023,-0.026l0.024,-0.025l0.025,-0.025l0.025,-0.024l0.026,-0.024l0.026,-0.022l0.027,-0.023l0.027,-0.021l0.028,-0.021l0.028,-0.02l0.029,-0.02l0.029,-0.018l0.03,-0.018l0.03,-0.018l0.031,-0.016l0.031,-0.016l0.031,-0.015l0.032,-0.015l0.032,-0.013l0.033,-0.013l0.033,-0.012l0.034,-0.011l0.033,-0.011l0.035,-0.009l0.034,-0.009l0.035,-0.007l0.035,-0.007l0.035,-0.006l0.036,-0.006l0.036,-0.004l0.036,-0.003l0.036,-0.002l0.037,-0.002l0.037,0l11.408,0l0.037,0Zm-11.439,0.977l-0.019,0l-0.012,0.001l-0.013,0.001l-0.012,0.001l-0.012,0.001l-0.012,0.002l-0.012,0.002l-0.011,0.002l-0.012,0.003l-0.011,0.003l-0.011,0.003l-0.012,0.003l-0.011,0.004l-0.011,0.004l-0.01,0.004l-0.011,0.005l-0.011,0.004l-0.01,0.005l-0.01,0.006l-0.011,0.005l-0.01,0.006l-0.01,0.006l-0.01,0.006l-0.009,0.007l-0.01,0.007l-0.009,0.007l-0.009,0.007l-0.009,0.008l-0.009,0.007l-0.009,0.008l-0.009,0.008l-0.008,0.009l-0.008,0.008l-0.008,0.009l-0.008,0.009l-0.007,0.009l-0.008,0.01l-0.007,0.009l-0.007,0.01l-0.006,0.01l-0.007,0.01l-0.006,0.01l-0.006,0.01l-0.005,0.01l-0.006,0.011l-0.005,0.01l-0.005,0.011l-0.004,0.011l-0.005,0.011l-0.004,0.011l-0.004,0.011l-0.003,0.012l-0.004,0.011l-0.003,0.012l-0.002,0.011l-0.003,0.012l-0.002,0.012l-0.002,0.012l-0.002,0.012l-0.001,0.013l-0.001,0.012l-0.001,0.013l-0.001,0.013l0,0.019l0,11.709l0,0.019l0.001,0.013l0.001,0.013l0.001,0.013l0.001,0.012l0.002,0.012l0.002,0.012l0.002,0.012l0.003,0.012l0.002,0.012l0.003,0.011l0.004,0.012l0.003,0.011l0.004,0.011l0.004,0.011l0.005,0.011l0.004,0.011l0.005,0.011l0.005,0.011l0.006,0.01l0.005,0.011l0.006,0.01l0.006,0.01l0.007,0.01l0.006,0.01l0.007,0.009l0.007,0.01l0.008,0.009l0.007,0.009l0.008,0.009l0.008,0.009l0.008,0.009l0.008,0.008l0.009,0.008l0.009,0.008l0.009,0.008l0.009,0.007l0.009,0.008l0.009,0.007l0.01,0.007l0.009,0.006l0.01,0.006l0.01,0.007l0.01,0.005l0.011,0.006l0.01,0.005l0.01,0.005l0.011,0.005l0.011,0.004l0.01,0.005l0.011,0.004l0.011,0.003l0.012,0.004l0.011,0.003l0.011,0.003l0.012,0.002l0.011,0.003l0.012,0.002l0.012,0.001l0.012,0.002l0.012,0.001l0.013,0.001l0.012,0l0.019,0l11.396,0l0.019,0l0.012,0l0.012,-0.001l0.013,-0.001l0.012,-0.002l0.012,-0.001l0.011,-0.002l0.012,-0.003l0.012,-0.002l0.011,-0.003l0.011,-0.003l0.011,-0.004l0.011,-0.003l0.011,-0.004l0.011,-0.005l0.011,-0.004l0.01,-0.005l0.011,-0.005l0.01,-0.005l0.01,-0.006l0.01,-0.005l0.01,-0.007l0.01,-0.006l0.01,-0.006l0.009,-0.007l0.01,-0.007l0.009,-0.008l0.009,-0.007l0.009,-0.008l0.009,-0.008l0.008,-0.008l0.009,-0.008l0.008,-0.009l0.008,-0.009l0.008,-0.009l0.007,-0.009l0.007,-0.009l0.008,-0.01l0.006,-0.009l0.007,-0.01l0.006,-0.01l0.007,-0.01l0.005,-0.01l0.006,-0.011l0.005,-0.01l0.006,-0.011l0.005,-0.011l0.004,-0.011l0.005,-0.011l0.004,-0.011l0.003,-0.011l0.004,-0.011l0.003,-0.012l0.003,-0.011l0.003,-0.012l0.003,-0.012l0.002,-0.012l0.002,-0.012l0.002,-0.012l0.001,-0.012l0.001,-0.013l0.001,-0.013l0,-0.013l0.001,-0.019l0,-11.709l-0.001,-0.019l0,-0.013l-0.001,-0.013l-0.001,-0.012l-0.001,-0.013l-0.002,-0.012l-0.002,-0.012l-0.002,-0.012l-0.003,-0.012l-0.003,-0.011l-0.003,-0.012l-0.003,-0.011l-0.004,-0.012l-0.003,-0.011l-0.004,-0.011l-0.005,-0.011l-0.004,-0.011l-0.005,-0.011l-0.006,-0.01l-0.005,-0.011l-0.006,-0.01l-0.005,-0.01l-0.007,-0.01l-0.006,-0.01l-0.007,-0.01l-0.006,-0.01l-0.008,-0.009l-0.007,-0.01l-0.007,-0.009l-0.008,-0.009l-0.008,-0.009l-0.008,-0.008l-0.009,-0.009l-0.008,-0.008l-0.009,-0.008l-0.009,-0.007l-0.009,-0.008l-0.009,-0.007l-0.01,-0.007l-0.009,-0.007l-0.01,-0.007l-0.01,-0.006l-0.01,-0.006l-0.01,-0.006l-0.01,-0.005l-0.01,-0.006l-0.011,-0.005l-0.01,-0.004l-0.011,-0.005l-0.011,-0.004l-0.011,-0.004l-0.011,-0.004l-0.011,-0.003l-0.011,-0.003l-0.011,-0.003l-0.012,-0.003l-0.012,-0.002l-0.011,-0.002l-0.012,-0.002l-0.012,-0.001l-0.013,-0.001l-0.012,-0.001l-0.012,-0.001l-0.019,0l-11.396,0Z" style="fill:rgb(64,64,64);"/>
  </g>
  <g transform="matrix(1.46099,0,0,1.40737,-177.17,-492.697)">
    <ellipse cx="126.401" cy="352.579" rx="2.396" ry="2.487" style="fill:rgb(180,180,180);"/>
    <path d="M126.463,350.093l0.061,0.002l0.061,0.004l0.061,0.006l0.06,0.007l0.059,0.009l0.06,0.01l0.058,0.012l0.059,0.013l0.057,0.014l0.057,0.016l0.057,0.018l0.056,0.019l0.055,0.02l0.055,0.022l0.054,0.023l0.053,0.024l0.053,0.025l0.052,0.027l0.051,0.028l0.051,0.03l0.05,0.03l0.049,0.032l0.048,0.033l0.047,0.034l0.047,0.035l0.045,0.037l0.045,0.037l0.044,0.039l0.043,0.039l0.042,0.041l0.041,0.042l0.041,0.043l0.039,0.043l0.038,0.045l0.037,0.045l0.036,0.047l0.035,0.047l0.034,0.049l0.033,0.049l0.032,0.05l0.03,0.051l0.03,0.052l0.028,0.052l0.027,0.053l0.026,0.054l0.025,0.055l0.023,0.055l0.022,0.056l0.021,0.057l0.019,0.058l0.019,0.058l0.016,0.058l0.016,0.06l0.014,0.06l0.013,0.06l0.011,0.061l0.01,0.061l0.008,0.062l0.007,0.063l0.005,0.063l0.004,0.063l0.003,0.064l0,0.064l0,0.064l-0.003,0.064l-0.004,0.063l-0.005,0.063l-0.007,0.063l-0.008,0.061l-0.01,0.062l-0.011,0.061l-0.013,0.06l-0.014,0.06l-0.016,0.059l-0.016,0.059l-0.019,0.058l-0.019,0.058l-0.021,0.056l-0.022,0.057l-0.023,0.055l-0.025,0.055l-0.026,0.054l-0.027,0.053l-0.028,0.052l-0.03,0.052l-0.03,0.051l-0.032,0.05l-0.033,0.049l-0.034,0.049l-0.035,0.047l-0.036,0.046l-0.037,0.046l-0.038,0.045l-0.039,0.043l-0.041,0.043l-0.041,0.042l-0.042,0.041l-0.043,0.039l-0.044,0.039l-0.045,0.037l-0.045,0.037l-0.047,0.035l-0.047,0.034l-0.048,0.033l-0.049,0.032l-0.05,0.03l-0.051,0.03l-0.051,0.028l-0.052,0.026l-0.053,0.026l-0.053,0.024l-0.054,0.023l-0.055,0.022l-0.055,0.02l-0.056,0.019l-0.057,0.017l-0.057,0.017l-0.057,0.014l-0.059,0.013l-0.058,0.012l-0.06,0.01l-0.059,0.009l-0.06,0.007l-0.061,0.006l-0.061,0.004l-0.061,0.002l-0.062,0.001l-0.062,-0.001l-0.061,-0.002l-0.061,-0.004l-0.061,-0.006l-0.06,-0.007l-0.06,-0.009l-0.059,-0.01l-0.059,-0.012l-0.058,-0.013l-0.058,-0.014l-0.057,-0.017l-0.056,-0.017l-0.056,-0.019l-0.056,-0.02l-0.054,-0.022l-0.054,-0.023l-0.054,-0.024l-0.052,-0.026l-0.052,-0.026l-0.052,-0.028l-0.05,-0.03l-0.05,-0.03l-0.049,-0.032l-0.048,-0.033l-0.048,-0.034l-0.046,-0.035l-0.046,-0.037l-0.045,-0.037l-0.044,-0.039l-0.043,-0.039l-0.042,-0.041l-0.041,-0.042l-0.04,-0.043l-0.039,-0.043l-0.038,-0.045l-0.038,-0.046l-0.036,-0.046l-0.035,-0.047l-0.034,-0.049l-0.032,-0.049l-0.032,-0.05l-0.031,-0.051l-0.029,-0.052l-0.029,-0.052l-0.027,-0.053l-0.025,-0.054l-0.025,-0.055l-0.023,-0.055l-0.023,-0.057l-0.02,-0.056l-0.02,-0.058l-0.018,-0.058l-0.017,-0.059l-0.015,-0.059l-0.014,-0.06l-0.013,-0.06l-0.011,-0.061l-0.01,-0.062l-0.009,-0.061l-0.006,-0.063l-0.006,-0.063l-0.004,-0.063l-0.002,-0.064l-0.001,-0.064l0.001,-0.064l0.002,-0.064l0.004,-0.063l0.006,-0.063l0.006,-0.063l0.009,-0.062l0.01,-0.061l0.011,-0.061l0.013,-0.06l0.014,-0.06l0.015,-0.06l0.017,-0.058l0.018,-0.058l0.02,-0.058l0.02,-0.057l0.023,-0.056l0.023,-0.055l0.025,-0.055l0.025,-0.054l0.027,-0.053l0.029,-0.052l0.029,-0.052l0.031,-0.051l0.032,-0.05l0.032,-0.049l0.034,-0.049l0.035,-0.047l0.036,-0.047l0.038,-0.045l0.038,-0.045l0.039,-0.043l0.04,-0.043l0.041,-0.042l0.042,-0.041l0.043,-0.039l0.044,-0.039l0.045,-0.037l0.046,-0.037l0.046,-0.035l0.048,-0.034l0.048,-0.033l0.049,-0.032l0.05,-0.03l0.05,-0.03l0.052,-0.028l0.052,-0.027l0.052,-0.025l0.054,-0.024l0.054,-0.023l0.054,-0.022l0.056,-0.02l0.056,-0.019l0.056,-0.018l0.057,-0.016l0.058,-0.014l0.058,-0.013l0.059,-0.012l0.059,-0.01l0.06,-0.009l0.06,-0.007l0.061,-0.006l0.061,-0.004l0.061,-0.002l0.062,-0.001l0.062,0.001Zm-0.113,0.462l-0.05,0.002l-0.05,0.003l-0.049,0.004l-0.049,0.006l-0.049,0.007l-0.048,0.009l-0.047,0.009l-0.048,0.011l-0.047,0.012l-0.046,0.013l-0.046,0.014l-0.045,0.015l-0.045,0.017l-0.045,0.017l-0.044,0.019l-0.043,0.02l-0.043,0.021l-0.043,0.021l-0.041,0.023l-0.041,0.024l-0.041,0.025l-0.04,0.026l-0.039,0.027l-0.039,0.028l-0.038,0.028l-0.037,0.03l-0.036,0.03l-0.036,0.032l-0.035,0.032l-0.035,0.033l-0.033,0.034l-0.033,0.035l-0.032,0.036l-0.031,0.036l-0.03,0.037l-0.03,0.038l-0.028,0.039l-0.028,0.039l-0.027,0.041l-0.026,0.04l-0.025,0.042l-0.024,0.042l-0.023,0.043l-0.022,0.043l-0.021,0.044l-0.02,0.044l-0.019,0.045l-0.018,0.046l-0.017,0.046l-0.015,0.047l-0.015,0.047l-0.014,0.048l-0.012,0.048l-0.012,0.049l-0.01,0.049l-0.009,0.049l-0.008,0.05l-0.007,0.051l-0.006,0.051l-0.004,0.051l-0.003,0.051l-0.002,0.053l-0.001,0.052l0.001,0.052l0.002,0.052l0.003,0.052l0.004,0.051l0.006,0.051l0.007,0.051l0.008,0.05l0.009,0.049l0.01,0.049l0.012,0.049l0.012,0.048l0.014,0.048l0.015,0.047l0.015,0.047l0.017,0.046l0.018,0.046l0.019,0.045l0.02,0.044l0.021,0.044l0.022,0.043l0.023,0.043l0.024,0.042l0.025,0.042l0.026,0.04l0.027,0.04l0.028,0.04l0.028,0.039l0.03,0.037l0.03,0.038l0.031,0.036l0.032,0.036l0.033,0.035l0.033,0.034l0.035,0.033l0.035,0.032l0.036,0.031l0.036,0.031l0.037,0.03l0.038,0.028l0.039,0.028l0.039,0.027l0.04,0.026l0.041,0.025l0.041,0.024l0.041,0.023l0.043,0.021l0.043,0.021l0.043,0.02l0.044,0.019l0.045,0.017l0.045,0.017l0.045,0.015l0.046,0.014l0.046,0.013l0.047,0.012l0.048,0.011l0.047,0.009l0.048,0.009l0.049,0.007l0.049,0.006l0.049,0.004l0.05,0.003l0.05,0.002l0.051,0.001l0.05,-0.001l0.05,-0.002l0.05,-0.003l0.05,-0.004l0.049,-0.006l0.048,-0.007l0.048,-0.009l0.048,-0.009l0.047,-0.011l0.047,-0.012l0.047,-0.013l0.046,-0.014l0.045,-0.015l0.045,-0.017l0.045,-0.017l0.043,-0.019l0.044,-0.02l0.043,-0.021l0.042,-0.021l0.042,-0.023l0.041,-0.024l0.041,-0.025l0.039,-0.026l0.04,-0.027l0.038,-0.028l0.038,-0.028l0.038,-0.03l0.036,-0.031l0.036,-0.031l0.035,-0.032l0.034,-0.033l0.034,-0.034l0.033,-0.035l0.032,-0.036l0.031,-0.036l0.03,-0.038l0.029,-0.037l0.029,-0.039l0.028,-0.04l0.026,-0.04l0.026,-0.04l0.025,-0.042l0.024,-0.042l0.023,-0.043l0.022,-0.043l0.021,-0.044l0.02,-0.044l0.019,-0.045l0.018,-0.046l0.017,-0.046l0.016,-0.047l0.015,-0.047l0.014,-0.048l0.012,-0.048l0.012,-0.049l0.01,-0.049l0.009,-0.049l0.008,-0.05l0.007,-0.051l0.005,-0.051l0.005,-0.051l0.003,-0.052l0.002,-0.052l0,-0.052l0,-0.052l-0.002,-0.053l-0.003,-0.051l-0.005,-0.051l-0.005,-0.051l-0.007,-0.051l-0.008,-0.05l-0.009,-0.049l-0.01,-0.049l-0.012,-0.049l-0.012,-0.048l-0.014,-0.048l-0.015,-0.047l-0.016,-0.047l-0.017,-0.046l-0.018,-0.046l-0.019,-0.045l-0.02,-0.044l-0.021,-0.044l-0.022,-0.043l-0.023,-0.043l-0.024,-0.042l-0.025,-0.042l-0.026,-0.04l-0.026,-0.041l-0.028,-0.039l-0.029,-0.039l-0.029,-0.038l-0.03,-0.037l-0.031,-0.036l-0.032,-0.036l-0.033,-0.035l-0.034,-0.034l-0.034,-0.033l-0.035,-0.032l-0.036,-0.032l-0.036,-0.03l-0.038,-0.03l-0.038,-0.028l-0.038,-0.028l-0.04,-0.027l-0.039,-0.026l-0.041,-0.025l-0.041,-0.024l-0.042,-0.023l-0.042,-0.021l-0.043,-0.021l-0.044,-0.02l-0.043,-0.019l-0.045,-0.017l-0.045,-0.017l-0.045,-0.015l-0.046,-0.014l-0.047,-0.013l-0.047,-0.012l-0.047,-0.011l-0.048,-0.009l-0.048,-0.009l-0.048,-0.007l-0.049,-0.006l-0.05,-0.004l-0.05,-0.003l-0.05,-0.002l-0.05,-0.001l-0.051,0.001Z" style="fill:rgb(84,84,84);"/>
  </g>
  <g transform="matrix(1.16879,0,0,1.13183,-140.236,-395.545)">
    <ellipse cx="126.401" cy="352.579" rx="2.396" ry="2.487" style="fill:white;"/>
    <path d="M126.463,350.093l0.061,0.002l0.061,0.004l0.061,0.006l0.06,0.007l0.059,0.009l0.06,0.01l0.058,0.012l0.059,0.013l0.057,0.014l0.057,0.016l0.057,0.018l0.056,0.019l0.055,0.02l0.055,0.022l0.054,0.023l0.053,0.024l0.053,0.025l0.052,0.027l0.051,0.028l0.051,0.03l0.05,0.03l0.049,0.032l0.048,0.033l0.047,0.034l0.047,0.035l0.045,0.037l0.045,0.037l0.044,0.039l0.043,0.039l0.042,0.041l0.041,0.042l0.041,0.043l0.039,0.043l0.038,0.045l0.037,0.045l0.036,0.047l0.035,0.047l0.034,0.049l0.033,0.049l0.032,0.05l0.03,0.051l0.03,0.052l0.028,0.052l0.027,0.053l0.026,0.054l0.025,0.055l0.023,0.055l0.022,0.056l0.021,0.057l0.019,0.058l0.019,0.058l0.016,0.058l0.016,0.06l0.014,0.06l0.013,0.06l0.011,0.061l0.01,0.061l0.008,0.062l0.007,0.063l0.005,0.063l0.004,0.063l0.003,0.064l0,0.064l0,0.064l-0.003,0.064l-0.004,0.063l-0.005,0.063l-0.007,0.063l-0.008,0.061l-0.01,0.062l-0.011,0.061l-0.013,0.06l-0.014,0.06l-0.016,0.059l-0.016,0.059l-0.019,0.058l-0.019,0.058l-0.021,0.056l-0.022,0.057l-0.023,0.055l-0.025,0.055l-0.026,0.054l-0.027,0.053l-0.028,0.052l-0.03,0.052l-0.03,0.051l-0.032,0.05l-0.033,0.049l-0.034,0.049l-0.035,0.047l-0.036,0.046l-0.037,0.046l-0.038,0.045l-0.039,0.043l-0.041,0.043l-0.041,0.042l-0.042,0.041l-0.043,0.039l-0.044,0.039l-0.045,0.037l-0.045,0.037l-0.047,0.035l-0.047,0.034l-0.048,0.033l-0.049,0.032l-0.05,0.03l-0.051,0.03l-0.051,0.028l-0.052,0.026l-0.053,0.026l-0.053,0.024l-0.054,0.023l-0.055,0.022l-0.055,0.02l-0.056,0.019l-0.057,0.017l-0.057,0.017l-0.057,0.014l-0.059,0.013l-0.058,0.012l-0.06,0.01l-0.059,0.009l-0.06,0.007l-0.061,0.006l-0.061,0.004l-0.061,0.002l-0.062,0.001l-0.062,-0.001l-0.061,-0.002l-0.061,-0.004l-0.061,-0.006l-0.06,-0.007l-0.06,-0.009l-0.059,-0.01l-0.059,-0.012l-0.058,-0.013l-0.058,-0.014l-0.057,-0.017l-0.056,-0.017l-0.056,-0.019l-0.056,-0.02l-0.054,-0.022l-0.054,-0.023l-0.054,-0.024l-0.052,-0.026l-0.052,-0.026l-0.052,-0.028l-0.05,-0.03l-0.05,-0.03l-0.049,-0.032l-0.048,-0.033l-0.048,-0.034l-0.046,-0.035l-0.046,-0.037l-0.045,-0.037l-0.044,-0.039l-0.043,-0.039l-0.042,-0.041l-0.041,-0.042l-0.04,-0.043l-0.039,-0.043l-0.038,-0.045l-0.038,-0.046l-0.036,-0.046l-0.035,-0.047l-0.034,-0.049l-0.032,-0.049l-0.032,-0.05l-0.031,-0.051l-0.029,-0.052l-0.029,-0.052l-0.027,-0.053l-0.025,-0.054l-0.025,-0.055l-0.023,-0.055l-0.023,-0.057l-0.02,-0.056l-0.02,-0.058l-0.018,-0.058l-0.017,-0.059l-0.015,-0.059l-0.014,-0.06l-0.013,-0.06l-0.011,-0.061l-0.01,-0.062l-0.009,-0.061l-0.006,-0.063l-0.006,-0.063l-0.004,-0.063l-0.002,-0.064l-0.001,-0.064l0.001,-0.064l0.002,-0.064l0.004,-0.063l0.006,-0.063l0.006,-0.063l0.009,-0.062l0.01,-0.061l0.011,-0.061l0.013,-0.06l0.014,-0.06l0.015,-0.06l0.017,-0.058l0.018,-0.058l0.02,-0.058l0.02,-0.057l0.023,-0.056l0.023,-0.055l0.025,-0.055l0.025,-0.054l0.027,-0.053l0.029,-0.052l0.029,-0.052l0.031,-0.051l0.032,-0.05l0.032,-0.049l0.034,-0.049l0.035,-0.047l0.036,-0.047l0.038,-0.045l0.038,-0.045l0.039,-0.043l0.04,-0.043l0.041,-0.042l0.042,-0.041l0.043,-0.039l0.044,-0.039l0.045,-0.037l0.046,-0.037l0.046,-0.035l0.048,-0.034l0.048,-0.033l0.049,-0.032l0.05,-0.03l0.05,-0.03l0.052,-0.028l0.052,-0.027l0.052,-0.025l0.054,-0.024l0.054,-0.023l0.054,-0.022l0.056,-0.02l0.056,-0.019l0.056,-0.018l0.057,-0.016l0.058,-0.014l0.058,-0.013l0.059,-0.012l0.059,-0.01l0.06,-0.009l0.06,-0.007l0.061,-0.006l0.061,-0.004l0.061,-0.002l0.062,-0.001l0.062,0.001Zm-0.102,0.883l-0.04,0.002l-0.039,0.002l-0.039,0.004l-0.039,0.005l-0.038,0.005l-0.038,0.007l-0.037,0.007l-0.037,0.008l-0.037,0.01l-0.037,0.01l-0.036,0.011l-0.035,0.012l-0.036,0.013l-0.035,0.014l-0.034,0.015l-0.034,0.015l-0.034,0.017l-0.034,0.017l-0.032,0.018l-0.033,0.019l-0.032,0.019l-0.031,0.021l-0.031,0.021l-0.031,0.022l-0.03,0.023l-0.029,0.023l-0.029,0.024l-0.029,0.025l-0.027,0.026l-0.028,0.026l-0.026,0.027l-0.026,0.028l-0.026,0.028l-0.024,0.029l-0.024,0.029l-0.024,0.03l-0.022,0.031l-0.022,0.031l-0.021,0.032l-0.021,0.032l-0.02,0.033l-0.019,0.033l-0.018,0.034l-0.017,0.035l-0.017,0.034l-0.016,0.036l-0.015,0.035l-0.014,0.036l-0.013,0.037l-0.013,0.037l-0.012,0.037l-0.011,0.038l-0.009,0.038l-0.01,0.039l-0.008,0.038l-0.007,0.04l-0.006,0.039l-0.006,0.04l-0.004,0.041l-0.004,0.041l-0.002,0.041l-0.002,0.041l0,0.042l0,0.042l0.002,0.041l0.002,0.041l0.004,0.041l0.004,0.041l0.006,0.04l0.006,0.039l0.007,0.039l0.008,0.039l0.01,0.039l0.009,0.038l0.011,0.038l0.012,0.037l0.013,0.037l0.013,0.037l0.014,0.036l0.015,0.035l0.016,0.036l0.017,0.034l0.017,0.035l0.018,0.034l0.019,0.033l0.02,0.033l0.021,0.032l0.021,0.032l0.022,0.031l0.022,0.031l0.024,0.03l0.024,0.029l0.024,0.029l0.026,0.028l0.026,0.028l0.026,0.027l0.028,0.026l0.027,0.026l0.029,0.025l0.029,0.024l0.029,0.023l0.03,0.023l0.031,0.022l0.031,0.021l0.031,0.021l0.032,0.019l0.033,0.019l0.032,0.018l0.034,0.017l0.034,0.017l0.034,0.015l0.034,0.015l0.035,0.014l0.036,0.013l0.035,0.012l0.036,0.011l0.037,0.01l0.037,0.009l0.037,0.009l0.037,0.007l0.038,0.007l0.038,0.005l0.039,0.005l0.039,0.004l0.039,0.002l0.04,0.002l0.04,0l0.04,0l0.039,-0.002l0.04,-0.002l0.039,-0.004l0.038,-0.005l0.038,-0.005l0.038,-0.007l0.038,-0.007l0.037,-0.009l0.037,-0.009l0.036,-0.01l0.036,-0.011l0.036,-0.012l0.035,-0.013l0.035,-0.014l0.035,-0.015l0.034,-0.015l0.034,-0.017l0.033,-0.017l0.033,-0.018l0.032,-0.019l0.032,-0.019l0.032,-0.021l0.031,-0.021l0.031,-0.022l0.03,-0.023l0.029,-0.023l0.029,-0.024l0.028,-0.025l0.028,-0.026l0.027,-0.026l0.027,-0.027l0.026,-0.028l0.025,-0.028l0.025,-0.029l0.024,-0.029l0.023,-0.03l0.023,-0.031l0.022,-0.031l0.021,-0.032l0.02,-0.032l0.02,-0.033l0.019,-0.033l0.018,-0.034l0.018,-0.035l0.017,-0.034l0.015,-0.036l0.015,-0.035l0.015,-0.036l0.013,-0.037l0.013,-0.037l0.011,-0.037l0.011,-0.038l0.01,-0.038l0.009,-0.039l0.008,-0.039l0.008,-0.039l0.006,-0.039l0.005,-0.04l0.005,-0.041l0.003,-0.041l0.003,-0.041l0.001,-0.041l0.001,-0.042l-0.001,-0.042l-0.001,-0.041l-0.003,-0.041l-0.003,-0.041l-0.005,-0.041l-0.005,-0.04l-0.006,-0.039l-0.008,-0.04l-0.008,-0.038l-0.009,-0.039l-0.01,-0.038l-0.011,-0.038l-0.011,-0.037l-0.013,-0.037l-0.013,-0.037l-0.015,-0.036l-0.015,-0.035l-0.015,-0.036l-0.017,-0.034l-0.018,-0.035l-0.018,-0.034l-0.019,-0.033l-0.02,-0.033l-0.02,-0.032l-0.021,-0.032l-0.022,-0.031l-0.023,-0.031l-0.023,-0.03l-0.024,-0.029l-0.025,-0.029l-0.025,-0.028l-0.026,-0.028l-0.027,-0.027l-0.027,-0.026l-0.028,-0.026l-0.028,-0.025l-0.029,-0.024l-0.029,-0.023l-0.03,-0.023l-0.031,-0.022l-0.031,-0.021l-0.032,-0.021l-0.032,-0.019l-0.032,-0.019l-0.033,-0.018l-0.033,-0.017l-0.034,-0.017l-0.034,-0.015l-0.035,-0.015l-0.035,-0.014l-0.035,-0.013l-0.036,-0.012l-0.036,-0.011l-0.036,-0.01l-0.037,-0.01l-0.037,-0.008l-0.038,-0.007l-0.038,-0.007l-0.038,-0.005l-0.038,-0.005l-0.039,-0.004l-0.04,-0.002l-0.039,-0.002l-0.04,0l-0.04,0Z" style="fill:rgb(201,198,198);"/>
  </g>
  <g transform="matrix(1.65243,0,0,1.65243,0.74951,9.5434)">
    <g id="text9293-4">
      <g>
        <path d="M1.99,-1.508l0,1.176l0.47,0l0,0.332l-0.862,0l0,-1.508l0.392,0Z" style="fill:rgb(242,242,242);fill-rule:nonzero;"/>
        <path d="M2.974,-0.754c0,0.06 0.011,0.115 0.034,0.166c0.023,0.051 0.053,0.095 0.092,0.132c0.039,0.037 0.084,0.066 0.135,0.087c0.051,0.021 0.106,0.031 0.163,0.031c0.057,0 0.112,-0.01 0.163,-0.031c0.051,-0.021 0.097,-0.05 0.136,-0.087c0.039,-0.037 0.07,-0.081 0.093,-0.132c0.023,-0.051 0.034,-0.106 0.034,-0.166c0,-0.06 -0.011,-0.115 -0.034,-0.166c-0.023,-0.051 -0.054,-0.095 -0.093,-0.132c-0.039,-0.037 -0.085,-0.066 -0.136,-0.087c-0.051,-0.021 -0.106,-0.031 -0.163,-0.031c-0.057,0 -0.112,0.01 -0.163,0.031c-0.051,0.021 -0.096,0.05 -0.135,0.087c-0.039,0.037 -0.069,0.081 -0.092,0.132c-0.023,0.051 -0.034,0.106 -0.034,0.166Zm-0.41,0c0,-0.112 0.021,-0.216 0.062,-0.313c0.041,-0.097 0.099,-0.181 0.172,-0.253c0.073,-0.072 0.161,-0.128 0.263,-0.169c0.102,-0.041 0.214,-0.061 0.337,-0.061c0.121,0 0.233,0.02 0.336,0.061c0.103,0.041 0.191,0.097 0.265,0.169c0.074,0.072 0.132,0.156 0.173,0.253c0.041,0.097 0.062,0.201 0.062,0.313c0,0.112 -0.021,0.216 -0.062,0.313c-0.041,0.097 -0.099,0.181 -0.173,0.253c-0.074,0.072 -0.162,0.128 -0.265,0.169c-0.103,0.041 -0.215,0.061 -0.336,0.061c-0.123,0 -0.235,-0.02 -0.337,-0.061c-0.102,-0.041 -0.19,-0.097 -0.263,-0.169c-0.073,-0.072 -0.131,-0.156 -0.172,-0.253c-0.041,-0.097 -0.062,-0.201 -0.062,-0.313Z" style="fill:rgb(242,242,242);fill-rule:nonzero;"/>
        <path d="M4.71,-1.508l0.26,0.974l0.32,-0.974l0.312,0l0.32,0.974l0.26,-0.974l0.41,0l-0.45,1.508l-0.4,0l-0.296,-0.874l-0.296,0.874l-0.4,0l-0.45,-1.508l0.41,0Z" style="fill:rgb(242,242,242);fill-rule:nonzero;"/>
        <path d="M0.55,1.684l0.13,0c0.144,0 0.216,-0.063 0.216,-0.188c0,-0.125 -0.072,-0.188 -0.216,-0.188l-0.13,0l0,0.376Zm0,0.816l-0.392,0l0,-1.508l0.624,0c0.169,0 0.299,0.044 0.389,0.132c0.09,0.088 0.135,0.212 0.135,0.372c0,0.16 -0.045,0.284 -0.135,0.372c-0.09,0.088 -0.22,0.132 -0.389,0.132l-0.232,0l0,0.5Z" style="fill:rgb(242,242,242);fill-rule:nonzero;"/>
        <path d="M1.856,1.746c0,0.06 0.011,0.115 0.034,0.166c0.023,0.051 0.053,0.095 0.092,0.132c0.039,0.037 0.084,0.066 0.135,0.087c0.051,0.021 0.106,0.031 0.163,0.031c0.057,0 0.112,-0.01 0.163,-0.031c0.051,-0.021 0.097,-0.05 0.136,-0.087c0.039,-0.037 0.07,-0.081 0.093,-0.132c0.023,-0.051 0.034,-0.106 0.034,-0.166c0,-0.06 -0.011,-0.115 -0.034,-0.166c-0.023,-0.051 -0.054,-0.095 -0.093,-0.132c-0.039,-0.037 -0.085,-0.066 -0.136,-0.087c-0.051,-0.021 -0.106,-0.031 -0.163,-0.031c-0.057,0 -0.112,0.01 -0.163,0.031c-0.051,0.021 -0.096,0.05 -0.135,0.087c-0.039,0.037 -0.069,0.081 -0.092,0.132c-0.023,0.051 -0.034,0.106 -0.034,0.166Zm-0.41,0c0,-0.112 0.021,-0.216 0.062,-0.313c0.041,-0.097 0.099,-0.181 0.172,-0.253c0.073,-0.072 0.161,-0.128 0.263,-0.169c0.102,-0.041 0.214,-0.061 0.337,-0.061c0.121,0 0.233,0.02 0.336,0.061c0.103,0.041 0.191,0.097 0.265,0.169c0.074,0.072 0.132,0.156 0.173,0.253c0.041,0.097 0.062,0.201 0.062,0.313c0,0.112 -0.021,0.216 -0.062,0.313c-0.041,0.097 -0.099,0.181 -0.173,0.253c-0.074,0.072 -0.162,0.128 -0.265,0.169c-0.103,0.041 -0.215,0.061 -0.336,0.061c-0.123,0 -0.235,-0.02 -0.337,-0.061c-0.102,-0.041 -0.19,-0.097 -0.263,-0.169c-0.073,-0.072 -0.131,-0.156 -0.172,-0.253c-0.041,-0.097 -0.062,-0.201 -0.062,-0.313Z" style="fill:rgb(242,242,242);fill-rule:nonzero;"/>
        <path d="M3.592,0.992l0.26,0.974l0.32,-0.974l0.312,0l0.32,0.974l0.26,-0.974l0.41,0l-0.45,1.508l-0.4,0l-0.296,-0.874l-0.296,0.874l-0.4,0l-0.45,-1.508l0.41,0Z" style="fill:rgb(242,242,242);fill-rule:nonzero;"/>
        <path d="M6.49,1.324l-0.466,0l0,0.252l0.44,0l0,0.332l-0.44,0l0,0.26l0.466,0l0,0.332l-0.858,0l0,-1.508l0.858,0l0,0.332Z" style="fill:rgb(242,242,242);fill-rule:nonzero;"/>
        <path d="M7.164,1.666l0.074,0c0.077,0 0.137,-0.016 0.178,-0.048c0.041,-0.032 0.062,-0.078 0.062,-0.138c0,-0.06 -0.021,-0.106 -0.062,-0.138c-0.041,-0.032 -0.101,-0.048 -0.178,-0.048l-0.074,0l0,0.372Zm0.862,0.834l-0.488,0l-0.374,-0.58l0,0.58l-0.392,0l0,-1.508l0.61,0c0.084,0 0.157,0.012 0.22,0.037c0.063,0.025 0.114,0.058 0.155,0.101c0.041,0.043 0.071,0.092 0.092,0.148c0.021,0.056 0.031,0.116 0.031,0.18c0,0.115 -0.028,0.208 -0.083,0.279c-0.055,0.071 -0.137,0.12 -0.245,0.145l0.474,0.618Z" style="fill:rgb(242,242,242);fill-rule:nonzero;"/>
      </g>
    </g>
  </g>
</svg>